<?xml version="1.0" encoding="UTF-8" standalone="no"?>
<!DOCTYPE svg PUBLIC "-//W3C//DTD SVG 1.1//EN"
 "http://www.w3.org/Graphics/SVG/1.1/DTD/svg11.dtd">
<!-- Generated by graphviz version 2.40.1 (0)
 -->
<!-- Title: Action Pages: 1 -->
<svg width="202pt" height="58pt"
 viewBox="0.00 0.00 202.00 58.00" xmlns="http://www.w3.org/2000/svg" xmlns:xlink="http://www.w3.org/1999/xlink">
<g id="graph0" class="graph" transform="scale(1 1) rotate(0) translate(4 54)">
<title>Action</title>
<polygon fill="#ffffff" stroke="transparent" points="-4,4 -4,-54 198,-54 198,4 -4,4"/>
<!-- Action -->
<g id="node1" class="node">
<title>Action</title>
<g id="a_node1_0"><a xlink:href="/idmef_parser/IDMEF/Action.html" xlink:title="The Action class is used to describe any actions taken by the analyzer in response to the event. Is is represented in the IDMEF DTD as follows: ">
<polygon fill="#cc6a51" stroke="transparent" points="8,-25 8,-46 186,-46 186,-25 8,-25"/>
<polygon fill="none" stroke="#000000" points="8,-25 8,-46 186,-46 186,-25 8,-25"/>
<text text-anchor="start" x="78" y="-31.8" font-family="Nimbus Sans L" font-size="14.00" fill="#000000">Action</text>
</a>
</g>
<g id="a_node1_1"><a xlink:href="/idmef_parser/IDMEF/Action.html" xlink:title="The default value is &quot;other&quot;. &#160;(See also Section 10.)">
<polygon fill="#ff8465" stroke="transparent" points="8,-4 8,-25 186,-25 186,-4 8,-4"/>
<polygon fill="none" stroke="#000000" points="8,-4 8,-25 186,-25 186,-4 8,-4"/>
<text text-anchor="start" x="11" y="-10.8" font-family="Nimbus Sans L" font-size="14.00" fill="#000000">[ENUM] category (Required)</text>
</a>
</g>
</g>
</g>
</svg>
