<?xml version="1.0" encoding="UTF-8" standalone="no"?>
<!DOCTYPE svg PUBLIC "-//W3C//DTD SVG 1.1//EN"
 "http://www.w3.org/Graphics/SVG/1.1/DTD/svg11.dtd">
<!-- Generated by graphviz version 2.38.0 (20140413.2041)
 -->
<!-- Title: Address Pages: 1 -->
<svg width="217pt" height="163pt"
 viewBox="0.00 0.00 217.00 163.00" xmlns="http://www.w3.org/2000/svg" xmlns:xlink="http://www.w3.org/1999/xlink">
<g id="graph0" class="graph" transform="scale(1 1) rotate(0) translate(4 159)">
<title>Address</title>
<polygon fill="white" stroke="none" points="-4,4 -4,-159 213,-159 213,4 -4,4"/>
<!-- Address -->
<g id="node1" class="node"><title>Address</title>
<g id="a_node1_0"><a xlink:href="/idmef_parser/IDMEF/Address.html" xlink:title="The Address class is used to represent network, hardware, and application addresses. ">
<polygon fill="#007a00" stroke="none" points="8.5,-129.5 8.5,-150.5 201.5,-150.5 201.5,-129.5 8.5,-129.5"/>
<polygon fill="none" stroke="black" points="8.5,-129.5 8.5,-150.5 201.5,-150.5 201.5,-129.5 8.5,-129.5"/>
<text text-anchor="start" x="82.5" y="-136.3" font-family="Times,serif" font-size="14.00">Address</text>
</a>
</g>
<g id="a_node1_1"><a xlink:href="/idmef_parser/IDMEF/Address.html" xlink:title="The address information. &#160;The format of this data is governed by the category attribute.">
<polygon fill="#00cc00" stroke="none" points="8.5,-108.5 8.5,-129.5 201.5,-129.5 201.5,-108.5 8.5,-108.5"/>
<polygon fill="none" stroke="black" points="8.5,-108.5 8.5,-129.5 201.5,-129.5 201.5,-108.5 8.5,-108.5"/>
<text text-anchor="start" x="42" y="-115.3" font-family="Times,serif" font-size="14.00">[STRING] address (1) </text>
</a>
</g>
<g id="a_node1_2"><a xlink:href="/idmef_parser/IDMEF/Address.html" xlink:title="The network mask for the address, if appropriate.">
<polygon fill="#00cc00" stroke="none" points="8.5,-87.5 8.5,-108.5 201.5,-108.5 201.5,-87.5 8.5,-87.5"/>
<polygon fill="none" stroke="black" points="8.5,-87.5 8.5,-108.5 201.5,-108.5 201.5,-87.5 8.5,-87.5"/>
<text text-anchor="start" x="32.5" y="-94.3" font-family="Times,serif" font-size="14.00">[STRING] netmask (0..1) </text>
</a>
</g>
<g id="a_node1_3"><a xlink:href="/idmef_parser/IDMEF/Address.html" xlink:title="A unique identifier for the address; see Section 3.2.9.">
<polygon fill="#00cc00" stroke="none" points="8.5,-66.5 8.5,-87.5 201.5,-87.5 201.5,-66.5 8.5,-66.5"/>
<polygon fill="none" stroke="black" points="8.5,-66.5 8.5,-87.5 201.5,-87.5 201.5,-66.5 8.5,-66.5"/>
<text text-anchor="start" x="28.5" y="-73.3" font-family="Times,serif" font-size="14.00">[STRING] ident (Optional) </text>
</a>
</g>
<g id="a_node1_4"><a xlink:href="/idmef_parser/IDMEF/Address.html" xlink:title="The type of address represented. &#160;The permitted values for this attribute are shown below. &#160;The default value is &quot;unknown&quot;. &#160;(See also Section 10.)">
<polygon fill="#00cc00" stroke="none" points="8.5,-45.5 8.5,-66.5 201.5,-66.5 201.5,-45.5 8.5,-45.5"/>
<polygon fill="none" stroke="black" points="8.5,-45.5 8.5,-66.5 201.5,-66.5 201.5,-45.5 8.5,-45.5"/>
<text text-anchor="start" x="23" y="-52.3" font-family="Times,serif" font-size="14.00">[ENUM] category (Optional) </text>
</a>
</g>
<g id="a_node1_5"><a xlink:href="/idmef_parser/IDMEF/Address.html" xlink:title="The name of the Virtual LAN to which the address belongs.">
<polygon fill="#00cc00" stroke="none" points="8.5,-24.5 8.5,-45.5 201.5,-45.5 201.5,-24.5 8.5,-24.5"/>
<polygon fill="none" stroke="black" points="8.5,-24.5 8.5,-45.5 201.5,-45.5 201.5,-24.5 8.5,-24.5"/>
<text text-anchor="start" x="13" y="-31.3" font-family="Times,serif" font-size="14.00">[STRING] vlan&#45;name (Optional) </text>
</a>
</g>
<g id="a_node1_6"><a xlink:href="/idmef_parser/IDMEF/Address.html" xlink:title="The number of the Virtual LAN to which the address belongs.">
<polygon fill="#00cc00" stroke="none" points="8.5,-3.5 8.5,-24.5 201.5,-24.5 201.5,-3.5 8.5,-3.5"/>
<polygon fill="none" stroke="black" points="8.5,-3.5 8.5,-24.5 201.5,-24.5 201.5,-3.5 8.5,-3.5"/>
<text text-anchor="start" x="11.5" y="-10.3" font-family="Times,serif" font-size="14.00">[INTEGER] vlan&#45;num (Optional) </text>
</a>
</g>
</g>
</g>
</svg>
