<?xml version="1.0" encoding="UTF-8" standalone="no"?>
<!DOCTYPE svg PUBLIC "-//W3C//DTD SVG 1.1//EN"
 "http://www.w3.org/Graphics/SVG/1.1/DTD/svg11.dtd">
<!-- Generated by graphviz version 2.26.3 (20100126.1600)
 -->
<!-- Title: Analyzer Pages: 1 -->
<svg width="864pt" height="302pt"
 viewBox="0.00 0.00 864.00 302.00" xmlns="http://www.w3.org/2000/svg" xmlns:xlink="http://www.w3.org/1999/xlink">
<g id="graph1" class="graph" transform="scale(1 1) rotate(0) translate(4 298)">
<title>Analyzer</title>
<polygon fill="white" stroke="white" points="-4,5 -4,-298 861,-298 861,5 -4,5"/>
<!-- Analyzer -->
<g id="node1" class="node"><title>Analyzer</title>
<a xlink:href="/idmef_parser/IDMEF/Analyzer.html" xlink:title="The Analyzer class identifies the analyzer from which the Alert or Heartbeat message originates. Only one analyzer may be encoded for each alert or heartbeat, and that MUST be the analyzer at which the alert or heartbeat originated. Although the IDMEF data model does not prevent the use of hierarchical intrusion detection systems (where alerts get relayed up the tree), it does not provide any way to record the identity of the &quot;relay&quot; analyzers along the path from the originating analyzer to the manager that ultimately receives the alert. ">
<polygon fill="#99993d" stroke="#99993d" points="8,-189 8,-210 256,-210 256,-189 8,-189"/>
<polygon fill="none" stroke="black" points="8,-189 8,-210 256,-210 256,-189 8,-189"/>
<text text-anchor="start" x="101" y="-196.233" font-family="Times Roman,serif" font-size="14.00">Analyzer</text>
</a>
<a xlink:href="/idmef_parser/IDMEF/Analyzer.html" xlink:title="(but see below). &#160;A unique identifier for the analyzer; see Section 3.2.9.">
<polygon fill="#ffff66" stroke="#ffff66" points="8,-169 8,-189 256,-189 256,-169 8,-169"/>
<polygon fill="none" stroke="black" points="8,-169 8,-189 256,-189 256,-169 8,-169"/>
<text text-anchor="start" x="22" y="-175.733" font-family="Times Roman,serif" font-size="14.00">[STRING] analyzerid (Optional) </text>
</a>
<a xlink:href="/idmef_parser/IDMEF/Analyzer.html" xlink:title="An explicit name for the analyzer that may be easier to understand than the analyzerid.">
<polygon fill="#ffff66" stroke="#ffff66" points="8,-149 8,-169 256,-169 256,-149 8,-149"/>
<polygon fill="none" stroke="black" points="8,-149 8,-169 256,-169 256,-149 8,-149"/>
<text text-anchor="start" x="39" y="-155.733" font-family="Times Roman,serif" font-size="14.00">[STRING] name (Optional) </text>
</a>
<a xlink:href="/idmef_parser/IDMEF/Analyzer.html" xlink:title="The manufacturer of the analyzer software and/or hardware.">
<polygon fill="#ffff66" stroke="#ffff66" points="8,-129 8,-149 256,-149 256,-129 8,-129"/>
<polygon fill="none" stroke="black" points="8,-129 8,-149 256,-149 256,-129 8,-129"/>
<text text-anchor="start" x="11.5" y="-135.733" font-family="Times Roman,serif" font-size="14.00">[STRING] manufacturer (Optional) </text>
</a>
<a xlink:href="/idmef_parser/IDMEF/Analyzer.html" xlink:title="The model name/number of the analyzer software and/or hardware.">
<polygon fill="#ffff66" stroke="#ffff66" points="8,-109 8,-129 256,-129 256,-109 8,-109"/>
<polygon fill="none" stroke="black" points="8,-109 8,-129 256,-129 256,-109 8,-109"/>
<text text-anchor="start" x="37.5" y="-115.733" font-family="Times Roman,serif" font-size="14.00">[STRING] model (Optional) </text>
</a>
<a xlink:href="/idmef_parser/IDMEF/Analyzer.html" xlink:title="The version number of the analyzer software and/or hardware.">
<polygon fill="#ffff66" stroke="#ffff66" points="8,-89 8,-109 256,-109 256,-89 8,-89"/>
<polygon fill="none" stroke="black" points="8,-89 8,-109 256,-109 256,-89 8,-89"/>
<text text-anchor="start" x="33" y="-95.7333" font-family="Times Roman,serif" font-size="14.00">[STRING] version (Optional) </text>
</a>
<a xlink:href="/idmef_parser/IDMEF/Analyzer.html" xlink:title="The class of analyzer software and/or hardware.">
<polygon fill="#ffff66" stroke="#ffff66" points="8,-69 8,-89 256,-89 256,-69 8,-69"/>
<polygon fill="none" stroke="black" points="8,-69 8,-89 256,-89 256,-69 8,-69"/>
<text text-anchor="start" x="42" y="-75.7333" font-family="Times Roman,serif" font-size="14.00">[STRING] class (Optional) </text>
</a>
<a xlink:href="/idmef_parser/IDMEF/Analyzer.html" xlink:title="Operating system name. &#160;On POSIX 1003.1 compliant systems, this is the value returned in utsname.sysname by the uname() system call, or the output of the &quot;uname &#45;s&quot; command.">
<polygon fill="#ffff66" stroke="#ffff66" points="8,-49 8,-69 256,-69 256,-49 8,-49"/>
<polygon fill="none" stroke="black" points="8,-49 8,-69 256,-69 256,-49 8,-49"/>
<text text-anchor="start" x="35.5" y="-55.7333" font-family="Times Roman,serif" font-size="14.00">[STRING] ostype (Optional) </text>
</a>
<a xlink:href="/idmef_parser/IDMEF/Analyzer.html" xlink:title="Operating system version. &#160;On POSIX 1003.1 compliant systems, this is the value returned in utsname.release by the uname() system call, or the output of the &quot;uname &#45;r&quot; command.">
<polygon fill="#ffff66" stroke="#ffff66" points="8,-29 8,-49 256,-49 256,-29 8,-29"/>
<polygon fill="none" stroke="black" points="8,-29 8,-49 256,-49 256,-29 8,-29"/>
<text text-anchor="start" x="25.5" y="-35.7333" font-family="Times Roman,serif" font-size="14.00">[STRING] osversion (Optional) </text>
</a>
</g>
<!-- Analyzer&#45;&gt;Analyzer -->
<g id="edge8" class="edge"><title>Analyzer&#45;&gt;Analyzer</title>
<path fill="none" stroke="black" d="M105.942,-214.373C110.822,-225.068 119.508,-232 132,-232 140.784,-232 147.685,-228.573 152.706,-222.821"/>
<polygon fill="black" stroke="black" points="155.662,-224.693 158.058,-214.373 149.749,-220.947 155.662,-224.693"/>
<text text-anchor="middle" x="132" y="-236.4" font-family="Times Roman,serif" font-size="14.00">0..1</text>
</g>
<!-- Node -->
<g id="node2" class="node"><title>Node</title>
<a xlink:href="/idmef_parser/IDMEF/Node.html" xlink:title="The Node class is used to identify hosts and other network devices (routers, switches, etc.). ">
<polygon fill="#007a00" stroke="#007a00" points="337,-249 337,-270 540,-270 540,-249 337,-249"/>
<polygon fill="none" stroke="black" points="337,-249 337,-270 540,-270 540,-249 337,-249"/>
<text text-anchor="start" x="420.5" y="-256.233" font-family="Times Roman,serif" font-size="14.00">Node</text>
</a>
<a xlink:href="/idmef_parser/IDMEF/Node.html" xlink:title="The location of the equipment.">
<polygon fill="#00cc00" stroke="#00cc00" points="337,-229 337,-249 540,-249 540,-229 337,-229"/>
<polygon fill="none" stroke="black" points="337,-229 337,-249 540,-249 540,-229 337,-229"/>
<text text-anchor="start" x="353.5" y="-235.733" font-family="Times Roman,serif" font-size="14.00">[STRING] location (0..1) </text>
</a>
<a xlink:href="/idmef_parser/IDMEF/Node.html" xlink:title="The name of the equipment. &#160;This information MUST be provided if no Address information is given.">
<polygon fill="#00cc00" stroke="#00cc00" points="337,-209 337,-229 540,-229 540,-209 337,-209"/>
<polygon fill="none" stroke="black" points="337,-209 337,-229 540,-229 540,-209 337,-209"/>
<text text-anchor="start" x="361.5" y="-215.733" font-family="Times Roman,serif" font-size="14.00">[STRING] name (0..1) </text>
</a>
<a xlink:href="/idmef_parser/IDMEF/Node.html" xlink:title="A unique identifier for the node; see Section 3.2.9.">
<polygon fill="#00cc00" stroke="#00cc00" points="337,-189 337,-209 540,-209 540,-189 337,-189"/>
<polygon fill="none" stroke="black" points="337,-189 337,-209 540,-209 540,-189 337,-189"/>
<text text-anchor="start" x="347" y="-195.733" font-family="Times Roman,serif" font-size="14.00">[STRING] ident (Optional) </text>
</a>
<a xlink:href="/idmef_parser/IDMEF/Node.html" xlink:title="The &quot;domain&quot; from which the name information was obtained, if relevant. &#160;The permitted values for this attribute are shown in the table below. &#160;The default value is &quot;unknown&quot;. (See also Section 10 for extensions to the table.)">
<polygon fill="#00cc00" stroke="#00cc00" points="337,-169 337,-189 540,-189 540,-169 337,-169"/>
<polygon fill="none" stroke="black" points="337,-169 337,-189 540,-189 540,-169 337,-169"/>
<text text-anchor="start" x="340.5" y="-175.733" font-family="Times Roman,serif" font-size="14.00">[ENUM] category (Optional) </text>
</a>
</g>
<!-- Analyzer&#45;&gt;Node -->
<g id="edge4" class="edge"><title>Analyzer&#45;&gt;Node</title>
<path fill="none" stroke="black" d="M264.436,-163.28C282.426,-169.159 300.802,-175.164 318.545,-180.962"/>
<polygon fill="black" stroke="black" points="317.738,-184.381 328.331,-184.16 319.912,-177.727 317.738,-184.381"/>
<text text-anchor="middle" x="296" y="-180.4" font-family="Times Roman,serif" font-size="14.00">0..1</text>
</g>
<!-- Process -->
<g id="node6" class="node"><title>Process</title>
<a xlink:href="/idmef_parser/IDMEF/Process.html" xlink:title="The Process class is used to describe processes being executed on sources, targets, and analyzers. ">
<polygon fill="#997a3d" stroke="#997a3d" points="343,-123 343,-144 533,-144 533,-123 343,-123"/>
<polygon fill="none" stroke="black" points="343,-123 343,-144 533,-144 533,-123 343,-123"/>
<text text-anchor="start" x="412" y="-130.233" font-family="Times Roman,serif" font-size="14.00">Process</text>
</a>
<a xlink:href="/idmef_parser/IDMEF/Process.html" xlink:title="The name of the program being executed. This is a short name; path and argument information are provided elsewhere.">
<polygon fill="#ffcc66" stroke="#ffcc66" points="343,-103 343,-123 533,-123 533,-103 343,-103"/>
<polygon fill="none" stroke="black" points="343,-103 343,-123 533,-123 533,-103 343,-103"/>
<text text-anchor="start" x="370" y="-109.733" font-family="Times Roman,serif" font-size="14.00">[STRING] name (1) </text>
</a>
<a xlink:href="/idmef_parser/IDMEF/Process.html" xlink:title="The process identifier of the process.">
<polygon fill="#ffcc66" stroke="#ffcc66" points="343,-83 343,-103 533,-103 533,-83 343,-83"/>
<polygon fill="none" stroke="black" points="343,-83 343,-103 533,-103 533,-83 343,-83"/>
<text text-anchor="start" x="365.5" y="-89.7333" font-family="Times Roman,serif" font-size="14.00">[INTEGER] pid (0..1) </text>
</a>
<a xlink:href="/idmef_parser/IDMEF/Process.html" xlink:title="The full path of the program being executed.">
<polygon fill="#ffcc66" stroke="#ffcc66" points="343,-63 343,-83 533,-83 533,-63 343,-63"/>
<polygon fill="none" stroke="black" points="343,-63 343,-83 533,-83 533,-63 343,-63"/>
<text text-anchor="start" x="364" y="-69.7333" font-family="Times Roman,serif" font-size="14.00">[STRING] path (0..1) </text>
</a>
<a xlink:href="/idmef_parser/IDMEF/Process.html" xlink:title="A command&#45;line argument to the program. Multiple arguments may be specified (they are assumed to have occurred in the same order they are provided) with multiple uses of arg.">
<polygon fill="#ffcc66" stroke="#ffcc66" points="343,-43 343,-63 533,-63 533,-43 343,-43"/>
<polygon fill="none" stroke="black" points="343,-43 343,-63 533,-63 533,-43 343,-43"/>
<text text-anchor="start" x="369.5" y="-49.7333" font-family="Times Roman,serif" font-size="14.00">[STRING] arg (0..*) </text>
</a>
<a xlink:href="/idmef_parser/IDMEF/Process.html" xlink:title="An environment string associated with the process; generally of the format &quot;VARIABLE=value&quot;. &#160;Multiple environment strings may be specified with multiple uses of env.">
<polygon fill="#ffcc66" stroke="#ffcc66" points="343,-23 343,-43 533,-43 533,-23 343,-23"/>
<polygon fill="none" stroke="black" points="343,-23 343,-43 533,-43 533,-23 343,-23"/>
<text text-anchor="start" x="368" y="-29.7333" font-family="Times Roman,serif" font-size="14.00">[STRING] env (0..*) </text>
</a>
<a xlink:href="/idmef_parser/IDMEF/Process.html" xlink:title="A unique identifier for the process; see Section 3.2.9.">
<polygon fill="#ffcc66" stroke="#ffcc66" points="343,-3 343,-23 533,-23 533,-3 343,-3"/>
<polygon fill="none" stroke="black" points="343,-3 343,-23 533,-23 533,-3 343,-3"/>
<text text-anchor="start" x="346.5" y="-9.73333" font-family="Times Roman,serif" font-size="14.00">[STRING] ident (Optional) </text>
</a>
</g>
<!-- Analyzer&#45;&gt;Process -->
<g id="edge6" class="edge"><title>Analyzer&#45;&gt;Process</title>
<path fill="none" stroke="black" d="M264.436,-100.091C284.61,-97.0586 305.27,-93.9528 324.978,-90.9902"/>
<polygon fill="black" stroke="black" points="325.51,-94.4496 334.879,-89.5019 324.47,-87.5274 325.51,-94.4496"/>
<text text-anchor="middle" x="296" y="-101.4" font-family="Times Roman,serif" font-size="14.00">0..1</text>
</g>
<!-- Address -->
<g id="node3" class="node"><title>Address</title>
<a xlink:href="/idmef_parser/IDMEF/Address.html" xlink:title="The Address class is used to represent network, hardware, and application addresses. ">
<polygon fill="#007a00" stroke="#007a00" points="619,-269 619,-290 848,-290 848,-269 619,-269"/>
<polygon fill="none" stroke="black" points="619,-269 619,-290 848,-290 848,-269 619,-269"/>
<text text-anchor="start" x="706" y="-276.233" font-family="Times Roman,serif" font-size="14.00">Address</text>
</a>
<a xlink:href="/idmef_parser/IDMEF/Address.html" xlink:title="The address information. &#160;The format of this data is governed by the category attribute.">
<polygon fill="#00cc00" stroke="#00cc00" points="619,-249 619,-269 848,-269 848,-249 619,-249"/>
<polygon fill="none" stroke="black" points="619,-249 619,-269 848,-269 848,-249 619,-249"/>
<text text-anchor="start" x="658" y="-255.733" font-family="Times Roman,serif" font-size="14.00">[STRING] address (1) </text>
</a>
<a xlink:href="/idmef_parser/IDMEF/Address.html" xlink:title="The network mask for the address, if appropriate.">
<polygon fill="#00cc00" stroke="#00cc00" points="619,-229 619,-249 848,-249 848,-229 619,-229"/>
<polygon fill="none" stroke="black" points="619,-229 619,-249 848,-249 848,-229 619,-229"/>
<text text-anchor="start" x="646" y="-235.733" font-family="Times Roman,serif" font-size="14.00">[STRING] netmask (0..1) </text>
</a>
<a xlink:href="/idmef_parser/IDMEF/Address.html" xlink:title="A unique identifier for the address; see Section 3.2.9.">
<polygon fill="#00cc00" stroke="#00cc00" points="619,-209 619,-229 848,-229 848,-209 619,-209"/>
<polygon fill="none" stroke="black" points="619,-209 619,-229 848,-229 848,-209 619,-209"/>
<text text-anchor="start" x="642" y="-215.733" font-family="Times Roman,serif" font-size="14.00">[STRING] ident (Optional) </text>
</a>
<a xlink:href="/idmef_parser/IDMEF/Address.html" xlink:title="The type of address represented. &#160;The permitted values for this attribute are shown below. &#160;The default value is &quot;unknown&quot;. &#160;(See also Section 10.)">
<polygon fill="#00cc00" stroke="#00cc00" points="619,-189 619,-209 848,-209 848,-189 619,-189"/>
<polygon fill="none" stroke="black" points="619,-189 619,-209 848,-209 848,-189 619,-189"/>
<text text-anchor="start" x="635.5" y="-195.733" font-family="Times Roman,serif" font-size="14.00">[ENUM] category (Optional) </text>
</a>
<a xlink:href="/idmef_parser/IDMEF/Address.html" xlink:title="The name of the Virtual LAN to which the address belongs.">
<polygon fill="#00cc00" stroke="#00cc00" points="619,-169 619,-189 848,-189 848,-169 619,-169"/>
<polygon fill="none" stroke="black" points="619,-169 619,-189 848,-189 848,-169 619,-169"/>
<text text-anchor="start" x="623.5" y="-175.733" font-family="Times Roman,serif" font-size="14.00">[STRING] vlan&#45;name (Optional) </text>
</a>
<a xlink:href="/idmef_parser/IDMEF/Address.html" xlink:title="The number of the Virtual LAN to which the address belongs.">
<polygon fill="#00cc00" stroke="#00cc00" points="619,-149 619,-169 848,-169 848,-149 619,-149"/>
<polygon fill="none" stroke="black" points="619,-149 619,-169 848,-169 848,-149 619,-149"/>
<text text-anchor="start" x="622.5" y="-155.733" font-family="Times Roman,serif" font-size="14.00">[INTEGER] vlan&#45;num (Optional) </text>
</a>
</g>
<!-- Node&#45;&gt;Address -->
<g id="edge2" class="edge"><title>Node&#45;&gt;Address</title>
<path fill="none" stroke="black" d="M547.847,-220C564.827,-220 582.521,-220 599.944,-220"/>
<polygon fill="black" stroke="black" points="600.163,-223.5 610.163,-220 600.163,-216.5 600.163,-223.5"/>
<text text-anchor="middle" x="579" y="-224.4" font-family="Times Roman,serif" font-size="14.00">0..*</text>
</g>
</g>
</svg>
