<?xml version="1.0" encoding="UTF-8" standalone="no"?>
<!DOCTYPE svg PUBLIC "-//W3C//DTD SVG 1.1//EN"
 "http://www.w3.org/Graphics/SVG/1.1/DTD/svg11.dtd">
<!-- Generated by graphviz version 2.26.3 (20100126.1600)
 -->
<!-- Title: Assessment Pages: 1 -->
<svg width="412pt" height="228pt"
 viewBox="0.00 0.00 412.00 228.00" xmlns="http://www.w3.org/2000/svg" xmlns:xlink="http://www.w3.org/1999/xlink">
<g id="graph1" class="graph" transform="scale(1 1) rotate(0) translate(4 224)">
<title>Assessment</title>
<polygon fill="white" stroke="white" points="-4,5 -4,-224 409,-224 409,5 -4,5"/>
<!-- Assessment -->
<g id="node1" class="node"><title>Assessment</title>
<a xlink:href="/idmef_parser/IDMEF/Assessment.html" xlink:title="The Assessment class is used to provide the analyzer&#39;s assessment of an event &#45;&#45; its impact, actions taken in response, and confidence. ">
<polygon fill="#993016" stroke="#993016" points="9,-79 9,-100 98,-100 98,-79 9,-79"/>
<polygon fill="none" stroke="black" points="9,-79 9,-100 98,-100 98,-79 9,-79"/>
<text text-anchor="start" x="12.5" y="-86.2333" font-family="Times Roman,serif" font-size="14.00">Assessment</text>
</a>
</g>
<!-- Impact -->
<g id="node2" class="node"><title>Impact</title>
<a xlink:href="/idmef_parser/IDMEF/Impact.html" xlink:title="The Impact class is used to provide the analyzer&#39;s assessment of the impact of the event on the target(s). It is represented in the IDMEF DTD as follows: ">
<polygon fill="#993016" stroke="#993016" points="178,-195 178,-216 396,-216 396,-195 178,-195"/>
<polygon fill="none" stroke="black" points="178,-195 178,-216 396,-216 396,-195 178,-195"/>
<text text-anchor="start" x="263.5" y="-202.233" font-family="Times Roman,serif" font-size="14.00">Impact</text>
</a>
<a xlink:href="/idmef_parser/IDMEF/Impact.html" xlink:title="Section 10.)">
<polygon fill="#ff5024" stroke="#ff5024" points="178,-175 178,-195 396,-195 396,-175 178,-175"/>
<polygon fill="none" stroke="black" points="178,-175 178,-195 396,-195 396,-175 178,-175"/>
<text text-anchor="start" x="191.5" y="-181.733" font-family="Times Roman,serif" font-size="14.00">[ENUM] severity (Optional) </text>
</a>
<a xlink:href="/idmef_parser/IDMEF/Impact.html" xlink:title="Section 10.)">
<polygon fill="#ff5024" stroke="#ff5024" points="178,-155 178,-175 396,-175 396,-155 178,-155"/>
<polygon fill="none" stroke="black" points="178,-155 178,-175 396,-175 396,-155 178,-155"/>
<text text-anchor="start" x="181.5" y="-161.733" font-family="Times Roman,serif" font-size="14.00">[ENUM] completion (Optional) </text>
</a>
<a xlink:href="/idmef_parser/IDMEF/Impact.html" xlink:title="value is &quot;other&quot;. &#160;(See also Section 10.)">
<polygon fill="#ff5024" stroke="#ff5024" points="178,-135 178,-155 396,-155 396,-135 178,-135"/>
<polygon fill="none" stroke="black" points="178,-135 178,-155 396,-155 396,-135 178,-135"/>
<text text-anchor="start" x="204" y="-141.733" font-family="Times Roman,serif" font-size="14.00">[ENUM] type (Optional) </text>
</a>
</g>
<!-- Assessment&#45;&gt;Impact -->
<g id="edge2" class="edge"><title>Assessment&#45;&gt;Impact</title>
<path fill="none" stroke="black" d="M102.054,-108.028C119.254,-114.35 139.452,-121.773 160.065,-129.349"/>
<polygon fill="black" stroke="black" points="158.962,-132.672 169.555,-132.837 161.377,-126.102 158.962,-132.672"/>
<text text-anchor="middle" x="138" y="-129.4" font-family="Times Roman,serif" font-size="14.00">0..1</text>
</g>
<!-- Action -->
<g id="node4" class="node"><title>Action</title>
<a xlink:href="/idmef_parser/IDMEF/Action.html" xlink:title="The Action class is used to describe any actions taken by the analyzer in response to the event. Is is represented in the IDMEF DTD as follows: ">
<polygon fill="#993016" stroke="#993016" points="215,-89 215,-110 359,-110 359,-89 215,-89"/>
<polygon fill="none" stroke="black" points="215,-89 215,-110 359,-110 359,-89 215,-89"/>
<text text-anchor="start" x="265" y="-96.2333" font-family="Times Roman,serif" font-size="14.00">Action</text>
</a>
<a xlink:href="/idmef_parser/IDMEF/Action.html" xlink:title="The default value is &quot;other&quot;. &#160;(See also Section 10.)">
<polygon fill="#ff5024" stroke="#ff5024" points="215,-69 215,-89 359,-89 359,-69 215,-69"/>
<polygon fill="none" stroke="black" points="215,-69 215,-89 359,-89 359,-69 215,-69"/>
<text text-anchor="start" x="218.5" y="-75.7333" font-family="Times Roman,serif" font-size="14.00">[ENUM] category () </text>
</a>
</g>
<!-- Assessment&#45;&gt;Action -->
<g id="edge4" class="edge"><title>Assessment&#45;&gt;Action</title>
<path fill="none" stroke="black" d="M105.514,-90C132.269,-90 165.566,-90 196.308,-90"/>
<polygon fill="black" stroke="black" points="196.623,-93.5001 206.623,-90 196.623,-86.5001 196.623,-93.5001"/>
<text text-anchor="middle" x="138" y="-94.4" font-family="Times Roman,serif" font-size="14.00">0..*</text>
</g>
<!-- Confidence -->
<g id="node6" class="node"><title>Confidence</title>
<a xlink:href="/idmef_parser/IDMEF/Confidence.html" xlink:title="The Confidence class is used to represent the analyzer&#39;s best estimate of the validity of its analysis. It is represented in the IDMEF DTD as follows: ">
<polygon fill="#993016" stroke="#993016" points="225,-23 225,-44 350,-44 350,-23 225,-23"/>
<polygon fill="none" stroke="black" points="225,-23 225,-44 350,-44 350,-23 225,-23"/>
<text text-anchor="start" x="249.5" y="-30.2333" font-family="Times Roman,serif" font-size="14.00">Confidence</text>
</a>
<a xlink:href="/idmef_parser/IDMEF/Confidence.html" xlink:title="also Section 10.)">
<polygon fill="#ff5024" stroke="#ff5024" points="225,-3 225,-23 350,-23 350,-3 225,-3"/>
<polygon fill="none" stroke="black" points="225,-3 225,-23 350,-23 350,-3 225,-3"/>
<text text-anchor="start" x="228.5" y="-9.73333" font-family="Times Roman,serif" font-size="14.00">[ENUM] rating () </text>
</a>
</g>
<!-- Assessment&#45;&gt;Confidence -->
<g id="edge6" class="edge"><title>Assessment&#45;&gt;Confidence</title>
<path fill="none" stroke="black" d="M105.699,-74.297C111.864,-72.4944 118.068,-70.6961 124,-69 150.781,-61.3434 180.1,-53.181 206.398,-45.9394"/>
<polygon fill="black" stroke="black" points="207.603,-49.2381 216.317,-43.2121 205.747,-42.4886 207.603,-49.2381"/>
<text text-anchor="middle" x="138" y="-73.4" font-family="Times Roman,serif" font-size="14.00">0..1</text>
</g>
</g>
</svg>
