<?xml version="1.0" encoding="UTF-8" standalone="no"?>
<!DOCTYPE svg PUBLIC "-//W3C//DTD SVG 1.1//EN"
 "http://www.w3.org/Graphics/SVG/1.1/DTD/svg11.dtd">
<!-- Generated by graphviz version 2.38.0 (20140413.2041)
 -->
<!-- Title: Checksum Pages: 1 -->
<svg width="203pt" height="100pt"
 viewBox="0.00 0.00 203.00 100.00" xmlns="http://www.w3.org/2000/svg" xmlns:xlink="http://www.w3.org/1999/xlink">
<g id="graph0" class="graph" transform="scale(1 1) rotate(0) translate(4 96)">
<title>Checksum</title>
<polygon fill="white" stroke="none" points="-4,4 -4,-96 199,-96 199,4 -4,4"/>
<!-- Checksum -->
<g id="node1" class="node"><title>Checksum</title>
<g id="a_node1_0"><a xlink:href="/idmef_parser/IDMEF/Checksum.html" xlink:title="The Checksum class represents checksum information associated with the file. This checksum information can be provided by file integrity checkers, among others. ">
<polygon fill="#997a00" stroke="none" points="8.5,-67 8.5,-88 187.5,-88 187.5,-67 8.5,-67"/>
<polygon fill="none" stroke="black" points="8.5,-67 8.5,-88 187.5,-88 187.5,-67 8.5,-67"/>
<text text-anchor="start" x="69" y="-73.8" font-family="Times,serif" font-size="14.00">Checksum</text>
</a>
</g>
<g id="a_node1_1"><a xlink:href="/idmef_parser/IDMEF/Checksum.html" xlink:title="The value of the checksum.">
<polygon fill="#ffcc00" stroke="none" points="8.5,-46 8.5,-67 187.5,-67 187.5,-46 8.5,-46"/>
<polygon fill="none" stroke="black" points="8.5,-46 8.5,-67 187.5,-67 187.5,-46 8.5,-46"/>
<text text-anchor="start" x="40.5" y="-52.8" font-family="Times,serif" font-size="14.00">[STRING] value (1) </text>
</a>
</g>
<g id="a_node1_2"><a xlink:href="/idmef_parser/IDMEF/Checksum.html" xlink:title="The key to the checksum, if appropriate.">
<polygon fill="#ffcc00" stroke="none" points="8.5,-25 8.5,-46 187.5,-46 187.5,-25 8.5,-25"/>
<polygon fill="none" stroke="black" points="8.5,-25 8.5,-46 187.5,-46 187.5,-25 8.5,-25"/>
<text text-anchor="start" x="38.5" y="-31.8" font-family="Times,serif" font-size="14.00">[STRING] key (0..1) </text>
</a>
</g>
<g id="a_node1_3"><a xlink:href="/idmef_parser/IDMEF/Checksum.html" xlink:title="default value. &#160;(See also Section 10.)">
<polygon fill="#ffcc00" stroke="none" points="8.5,-4 8.5,-25 187.5,-25 187.5,-4 8.5,-4"/>
<polygon fill="none" stroke="black" points="8.5,-4 8.5,-25 187.5,-25 187.5,-4 8.5,-4"/>
<text text-anchor="start" x="11.5" y="-10.8" font-family="Times,serif" font-size="14.00">[ENUM] algorithm (Required) </text>
</a>
</g>
</g>
</g>
</svg>
