<?xml version="1.0" encoding="UTF-8" standalone="no"?>
<!DOCTYPE svg PUBLIC "-//W3C//DTD SVG 1.1//EN"
 "http://www.w3.org/Graphics/SVG/1.1/DTD/svg11.dtd">
<!-- Generated by graphviz version 2.26.3 (20100126.1600)
 -->
<!-- Title: Checksum Pages: 1 -->
<svg width="174pt" height="96pt"
 viewBox="0.00 0.00 174.00 96.00" xmlns="http://www.w3.org/2000/svg" xmlns:xlink="http://www.w3.org/1999/xlink">
<g id="graph1" class="graph" transform="scale(1 1) rotate(0) translate(4 92)">
<title>Checksum</title>
<polygon fill="white" stroke="white" points="-4,5 -4,-92 171,-92 171,5 -4,5"/>
<!-- Checksum -->
<g id="node1" class="node"><title>Checksum</title>
<a xlink:href="#" xlink:title="The Checksum class represents checksum information associated with the file. This checksum information can be provided by file integrity checkers, among others. ">
<polygon fill="#cecece" stroke="#cecece" points="8,-63 8,-84 158,-84 158,-63 8,-63"/>
<polygon fill="none" stroke="black" points="8,-63 8,-84 158,-84 158,-63 8,-63"/>
<text text-anchor="start" x="47.5" y="-70.2333" font-family="Times Roman,serif" font-size="14.00">Checksum</text>
</a>
<a xlink:href="#" xlink:title="The value of the checksum.">
<polygon fill="none" stroke="black" points="8,-43 8,-63 158,-63 158,-43 8,-43"/>
<text text-anchor="start" x="15" y="-49.7333" font-family="Times Roman,serif" font-size="14.00">[STRING] value (1) </text>
</a>
<a xlink:href="#" xlink:title="The key to the checksum, if appropriate.">
<polygon fill="none" stroke="black" points="8,-23 8,-43 158,-43 158,-23 8,-23"/>
<text text-anchor="start" x="13" y="-29.7333" font-family="Times Roman,serif" font-size="14.00">[STRING] key (0..1) </text>
</a>
<a xlink:href="#" xlink:title="default value. &#160;(See also Section 10.)">
<polygon fill="none" stroke="black" points="8,-3 8,-23 158,-23 158,-3 8,-3"/>
<text text-anchor="start" x="11.5" y="-9.73333" font-family="Times Roman,serif" font-size="14.00">[ENUM] algorithm () </text>
</a>
</g>
</g>
</svg>
