<?xml version="1.0" encoding="UTF-8" standalone="no"?>
<!DOCTYPE svg PUBLIC "-//W3C//DTD SVG 1.1//EN"
 "http://www.w3.org/Graphics/SVG/1.1/DTD/svg11.dtd">
<!-- Generated by graphviz version 2.40.1 (0)
 -->
<!-- Title: Classification Pages: 1 -->
<svg width="446pt" height="121pt"
 viewBox="0.00 0.00 446.00 121.00" xmlns="http://www.w3.org/2000/svg" xmlns:xlink="http://www.w3.org/1999/xlink">
<g id="graph0" class="graph" transform="scale(1 1) rotate(0) translate(4 117)">
<title>Classification</title>
<polygon fill="#ffffff" stroke="transparent" points="-4,4 -4,-117 442,-117 442,4 -4,4"/>
<!-- Classification -->
<g id="node1" class="node">
<title>Classification</title>
<g id="a_node1_0"><a xlink:href="/idmef_parser/IDMEF/Classification.html" xlink:title="The Classification class provides the &quot;name&quot; of an alert, or other information allowing the manager to determine what it is. This name is chosen by the alert provider. ">
<polygon fill="#92765a" stroke="transparent" points="8,-66.5 8,-87.5 170,-87.5 170,-66.5 8,-66.5"/>
<polygon fill="none" stroke="#000000" points="8,-66.5 8,-87.5 170,-87.5 170,-66.5 8,-66.5"/>
<text text-anchor="start" x="49" y="-73.3" font-family="Nimbus Sans L" font-size="14.00" fill="#000000">Classification</text>
</a>
</g>
<g id="a_node1_1"><a xlink:href="/idmef_parser/IDMEF/Classification.html" xlink:title="A unique identifier for this classification; see Section 3.2.9.">
<polygon fill="#b79370" stroke="transparent" points="8,-45.5 8,-66.5 170,-66.5 170,-45.5 8,-45.5"/>
<polygon fill="none" stroke="#000000" points="8,-45.5 8,-66.5 170,-66.5 170,-45.5 8,-45.5"/>
<text text-anchor="start" x="11" y="-52.3" font-family="Nimbus Sans L" font-size="14.00" fill="#000000">[STRING] ident (Optional)</text>
</a>
</g>
<g id="a_node1_2"><a xlink:href="/idmef_parser/IDMEF/Classification.html" xlink:title="A vendor&#45;provided string identifying the Alert message.">
<polygon fill="#b79370" stroke="transparent" points="8,-24.5 8,-45.5 170,-45.5 170,-24.5 8,-24.5"/>
<polygon fill="none" stroke="#000000" points="8,-24.5 8,-45.5 170,-45.5 170,-24.5 8,-24.5"/>
<text text-anchor="start" x="13.5" y="-31.3" font-family="Nimbus Sans L" font-size="14.00" fill="#000000">[STRING] text (Required)</text>
</a>
</g>
</g>
<!-- Reference -->
<g id="node2" class="node">
<title>Reference</title>
<g id="a_node2_3"><a xlink:href="/idmef_parser/IDMEF/Reference.html" xlink:title="The Reference class provides the &quot;name&quot; of an alert, or other information allowing the manager to determine what it is. ">
<polygon fill="#92765a" stroke="transparent" points="245.5,-87.5 245.5,-108.5 430.5,-108.5 430.5,-87.5 245.5,-87.5"/>
<polygon fill="none" stroke="#000000" points="245.5,-87.5 245.5,-108.5 430.5,-108.5 430.5,-87.5 245.5,-87.5"/>
<text text-anchor="start" x="306.5" y="-94.3" font-family="Nimbus Sans L" font-size="14.00" fill="#000000">Reference</text>
</a>
</g>
<g id="a_node2_4"><a xlink:href="/idmef_parser/IDMEF/Reference.html" xlink:title="The name of the alert, from one of the origins listed below.">
<polygon fill="#b79370" stroke="transparent" points="245.5,-66.5 245.5,-87.5 430.5,-87.5 430.5,-66.5 245.5,-66.5"/>
<polygon fill="none" stroke="#000000" points="245.5,-66.5 245.5,-87.5 430.5,-87.5 430.5,-66.5 245.5,-66.5"/>
<text text-anchor="start" x="255.5" y="-73.3" font-family="Nimbus Sans L" font-size="14.00" fill="#000000">[STRING] name (Required)</text>
</a>
</g>
<g id="a_node2_5"><a xlink:href="/idmef_parser/IDMEF/Reference.html" xlink:title="A URL at which the manager (or the human operator of the manager) can find additional information about the alert. &#160;The document pointed to by the URL may include an in&#45;depth description of the attack, appropriate countermeasures, or other information deemed relevant by the vendor.">
<polygon fill="#b79370" stroke="transparent" points="245.5,-45.5 245.5,-66.5 430.5,-66.5 430.5,-45.5 245.5,-45.5"/>
<polygon fill="none" stroke="#000000" points="245.5,-45.5 245.5,-66.5 430.5,-66.5 430.5,-45.5 245.5,-45.5"/>
<text text-anchor="start" x="265.5" y="-52.3" font-family="Nimbus Sans L" font-size="14.00" fill="#000000">[STRING] url (Required)</text>
</a>
</g>
<g id="a_node2_6"><a xlink:href="/idmef_parser/IDMEF/Reference.html" xlink:title="The source from which the name of the alert originates. The permitted values for this attribute are shown below. &#160;The default value is &quot;unknown&quot;. &#160;(See also Section 10.)">
<polygon fill="#b79370" stroke="transparent" points="245.5,-24.5 245.5,-45.5 430.5,-45.5 430.5,-24.5 245.5,-24.5"/>
<polygon fill="none" stroke="#000000" points="245.5,-24.5 245.5,-45.5 430.5,-45.5 430.5,-24.5 245.5,-24.5"/>
<text text-anchor="start" x="261.5" y="-31.3" font-family="Nimbus Sans L" font-size="14.00" fill="#000000">[ENUM] origin (Required)</text>
</a>
</g>
<g id="a_node2_7"><a xlink:href="/idmef_parser/IDMEF/Reference.html" xlink:title="The meaning of the reference, as understood by the alert provider. &#160;This field is only valid if the value of the &lt;origin&gt; attribute is set to &quot;vendor&#45;specific&quot; or &quot;user&#45;specific&quot;.">
<polygon fill="#b79370" stroke="transparent" points="245.5,-3.5 245.5,-24.5 430.5,-24.5 430.5,-3.5 245.5,-3.5"/>
<polygon fill="none" stroke="#000000" points="245.5,-3.5 245.5,-24.5 430.5,-24.5 430.5,-3.5 245.5,-3.5"/>
<text text-anchor="start" x="248.5" y="-10.3" font-family="Nimbus Sans L" font-size="14.00" fill="#000000">[STRING] meaning (Optional)</text>
</a>
</g>
</g>
<!-- Classification&#45;&gt;Reference -->
<g id="edge1" class="edge">
<title>Classification&#45;&gt;Reference</title>
<path fill="none" stroke="#000000" d="M178.0123,-56.5C193.8125,-56.5 210.4415,-56.5 226.7562,-56.5"/>
<polygon fill="#000000" stroke="#000000" points="226.8635,-60.0001 236.8635,-56.5 226.8635,-53.0001 226.8635,-60.0001"/>
<text text-anchor="middle" x="207.5" y="-60.3" font-family="Times,serif" font-size="14.00" fill="#000000">0..*</text>
</g>
</g>
</svg>
