<?xml version="1.0" encoding="UTF-8" standalone="no"?>
<!DOCTYPE svg PUBLIC "-//W3C//DTD SVG 1.1//EN"
 "http://www.w3.org/Graphics/SVG/1.1/DTD/svg11.dtd">
<!-- Generated by graphviz version 2.38.0 (20140413.2041)
 -->
<!-- Title: Confidence Pages: 1 -->
<svg width="132pt" height="58pt"
 viewBox="0.00 0.00 132.00 58.00" xmlns="http://www.w3.org/2000/svg" xmlns:xlink="http://www.w3.org/1999/xlink">
<g id="graph0" class="graph" transform="scale(1 1) rotate(0) translate(4 54)">
<title>Confidence</title>
<polygon fill="white" stroke="none" points="-4,4 -4,-54 128,-54 128,4 -4,4"/>
<!-- Confidence -->
<g id="node1" class="node"><title>Confidence</title>
<g id="a_node1_0"><a xlink:href="/idmef_parser/IDMEF/Confidence.html" xlink:title="The Confidence class is used to represent the analyzer&#39;s best estimate of the validity of its analysis. It is represented in the IDMEF DTD as follows: ">
<polygon fill="#993016" stroke="none" points="8,-25 8,-46 116,-46 116,-25 8,-25"/>
<polygon fill="none" stroke="black" points="8,-25 8,-46 116,-46 116,-25 8,-25"/>
<text text-anchor="start" x="30.5" y="-31.8" font-family="Times,serif" font-size="14.00">Confidence</text>
</a>
</g>
<g id="a_node1_1"><a xlink:href="/idmef_parser/IDMEF/Confidence.html" xlink:title="also Section 10.)">
<polygon fill="#ff5024" stroke="none" points="8,-4 8,-25 116,-25 116,-4 8,-4"/>
<polygon fill="none" stroke="black" points="8,-4 8,-25 116,-25 116,-4 8,-4"/>
<text text-anchor="start" x="11" y="-10.8" font-family="Times,serif" font-size="14.00">[ENUM] rating () </text>
</a>
</g>
</g>
</g>
</svg>
