<?xml version="1.0" encoding="UTF-8" standalone="no"?>
<!DOCTYPE svg PUBLIC "-//W3C//DTD SVG 1.1//EN"
 "http://www.w3.org/Graphics/SVG/1.1/DTD/svg11.dtd">
<!-- Generated by graphviz version 2.26.3 (20100126.1600)
 -->
<!-- Title: File Pages: 1 -->
<svg width="812pt" height="474pt"
 viewBox="0.00 0.00 812.00 474.00" xmlns="http://www.w3.org/2000/svg" xmlns:xlink="http://www.w3.org/1999/xlink">
<g id="graph1" class="graph" transform="scale(1 1) rotate(0) translate(4 470)">
<title>File</title>
<polygon fill="white" stroke="white" points="-4,5 -4,-470 809,-470 809,5 -4,5"/>
<!-- File -->
<g id="node1" class="node"><title>File</title>
<a xlink:href="/idmef_parser/IDMEF/File.html" xlink:title="The File class provides specific information about a file or other file&#45;like object that has been created, deleted, or modified on the target. The description can provide either the file settings prior to the event or the file settings at the time of the event, as specified using the &quot;category&quot; attribute. ">
<polygon fill="#997a00" stroke="#997a00" points="8,-365 8,-386 232,-386 232,-365 8,-365"/>
<polygon fill="none" stroke="black" points="8,-365 8,-386 232,-386 232,-365 8,-365"/>
<text text-anchor="start" x="108" y="-372.233" font-family="Times Roman,serif" font-size="14.00">File</text>
</a>
<a xlink:href="/idmef_parser/IDMEF/File.html" xlink:title="The name of the file to which the alert applies, not including the path to the file.">
<polygon fill="#ffcc00" stroke="#ffcc00" points="8,-345 8,-365 232,-365 232,-345 8,-345"/>
<polygon fill="none" stroke="black" points="8,-345 8,-365 232,-365 232,-345 8,-345"/>
<text text-anchor="start" x="52" y="-351.733" font-family="Times Roman,serif" font-size="14.00">[STRING] name (1) </text>
</a>
<a xlink:href="/idmef_parser/IDMEF/File.html" xlink:title="The full path to the file, including the name. &#160;The path name should be represented in as &quot;universal&quot; a manner as possible, to facilitate processing of the alert.">
<polygon fill="#ffcc00" stroke="#ffcc00" points="8,-325 8,-345 232,-345 232,-325 8,-325"/>
<polygon fill="none" stroke="black" points="8,-325 8,-345 232,-345 232,-325 8,-325"/>
<text text-anchor="start" x="55" y="-331.733" font-family="Times Roman,serif" font-size="14.00">[STRING] path (1) </text>
</a>
<a xlink:href="/idmef_parser/IDMEF/File.html" xlink:title="Time the file was created. &#160;Note that this is *not* the Unix &quot;st_ctime&quot; file attribute (which is not file creation time). &#160;The Unix &quot;st_ctime&quot; attribute is contained in the &quot;Inode&quot; class.">
<polygon fill="#ffcc00" stroke="#ffcc00" points="8,-305 8,-325 232,-325 232,-305 8,-305"/>
<polygon fill="none" stroke="black" points="8,-305 8,-325 232,-325 232,-305 8,-305"/>
<text text-anchor="start" x="13" y="-311.733" font-family="Times Roman,serif" font-size="14.00">[DATETIME] create&#45;time (0..1) </text>
</a>
<a xlink:href="/idmef_parser/IDMEF/File.html" xlink:title="Time the file was last modified.">
<polygon fill="#ffcc00" stroke="#ffcc00" points="8,-285 8,-305 232,-305 232,-285 8,-285"/>
<polygon fill="none" stroke="black" points="8,-285 8,-305 232,-305 232,-285 8,-285"/>
<text text-anchor="start" x="11.5" y="-291.733" font-family="Times Roman,serif" font-size="14.00">[DATETIME] modify&#45;time (0..1) </text>
</a>
<a xlink:href="/idmef_parser/IDMEF/File.html" xlink:title="Time the file was last accessed.">
<polygon fill="#ffcc00" stroke="#ffcc00" points="8,-265 8,-285 232,-285 232,-265 8,-265"/>
<polygon fill="none" stroke="black" points="8,-265 8,-285 232,-285 232,-265 8,-265"/>
<text text-anchor="start" x="13" y="-271.733" font-family="Times Roman,serif" font-size="14.00">[DATETIME] access&#45;time (0..1) </text>
</a>
<a xlink:href="/idmef_parser/IDMEF/File.html" xlink:title="The size of the data, in bytes. &#160;Typically what is meant when referring to file size. &#160;On Unix UFS file systems, this value corresponds to stat.st_size. &#160;On Windows NTFS, this value corresponds to Valid Data Length (VDL).">
<polygon fill="#ffcc00" stroke="#ffcc00" points="8,-245 8,-265 232,-265 232,-245 8,-245"/>
<polygon fill="none" stroke="black" points="8,-245 8,-265 232,-265 232,-245 8,-245"/>
<text text-anchor="start" x="26" y="-251.733" font-family="Times Roman,serif" font-size="14.00">[INTEGER] data&#45;size (0..1) </text>
</a>
<a xlink:href="/idmef_parser/IDMEF/File.html" xlink:title="The physical space on disk consumed by the file, in bytes. &#160;On Unix UFS file systems, this value corresponds to 512 * stat.st_blocks. &#160;On Windows NTFS, this value corresponds to End of File (EOF).">
<polygon fill="#ffcc00" stroke="#ffcc00" points="8,-225 8,-245 232,-245 232,-225 8,-225"/>
<polygon fill="none" stroke="black" points="8,-225 8,-245 232,-245 232,-225 8,-225"/>
<text text-anchor="start" x="28" y="-231.733" font-family="Times Roman,serif" font-size="14.00">[INTEGER] disk&#45;size (0..1) </text>
</a>
<a xlink:href="/idmef_parser/IDMEF/File.html" xlink:title="A unique identifier for this file; see Section 3.2.9.">
<polygon fill="#ffcc00" stroke="#ffcc00" points="8,-205 8,-225 232,-225 232,-205 8,-205"/>
<polygon fill="none" stroke="black" points="8,-205 8,-225 232,-225 232,-205 8,-205"/>
<text text-anchor="start" x="44.5" y="-211.733" font-family="Times Roman,serif" font-size="14.00">[STRING] ident (0..1) </text>
</a>
<a xlink:href="/idmef_parser/IDMEF/File.html" xlink:title="The type of file system the file resides on. &#160;This attribute governs how path names and other attributes are interpreted.">
<polygon fill="#ffcc00" stroke="#ffcc00" points="8,-185 8,-205 232,-205 232,-185 8,-185"/>
<polygon fill="none" stroke="black" points="8,-185 8,-205 232,-205 232,-185 8,-185"/>
<text text-anchor="start" x="38" y="-191.733" font-family="Times Roman,serif" font-size="14.00">[ENUM] category (0..1) </text>
</a>
<a xlink:href="/idmef_parser/IDMEF/File.html" xlink:title="The type of file, as a mime&#45;type.">
<polygon fill="#ffcc00" stroke="#ffcc00" points="8,-165 8,-185 232,-185 232,-165 8,-165"/>
<polygon fill="none" stroke="black" points="8,-165 8,-185 232,-185 232,-165 8,-165"/>
<text text-anchor="start" x="34" y="-171.733" font-family="Times Roman,serif" font-size="14.00">[STRING] file&#45;type (0..1) </text>
</a>
</g>
<!-- FileAccess -->
<g id="node2" class="node"><title>FileAccess</title>
<a xlink:href="/idmef_parser/IDMEF/FileAccess.html" xlink:title="The FileAccess class represents the access permissions on a file. The representation is intended to be useful across operating systems. ">
<polygon fill="#997a00" stroke="#997a00" points="337,-401 337,-422 520,-422 520,-401 337,-401"/>
<polygon fill="none" stroke="black" points="337,-401 337,-422 520,-422 520,-401 337,-401"/>
<text text-anchor="start" x="394" y="-408.233" font-family="Times Roman,serif" font-size="14.00">FileAccess</text>
</a>
<a xlink:href="/idmef_parser/IDMEF/FileAccess.html" xlink:title="Level of access allowed. &#160;The permitted values are shown below. &#160;There is no default value. &#160;(See also Section 10.)">
<polygon fill="#ffcc00" stroke="#ffcc00" points="337,-381 337,-401 520,-401 520,-381 337,-381"/>
<polygon fill="none" stroke="black" points="337,-381 337,-401 520,-401 520,-381 337,-381"/>
<text text-anchor="start" x="340.5" y="-387.733" font-family="Times Roman,serif" font-size="14.00">[ENUM] Permission (1..*) </text>
</a>
</g>
<!-- File&#45;&gt;FileAccess -->
<g id="edge4" class="edge"><title>File&#45;&gt;FileAccess</title>
<path fill="none" stroke="black" d="M240.124,-341.185C261.084,-351.262 282.928,-360.971 304,-369 309.204,-370.983 314.575,-372.893 320.029,-374.726"/>
<polygon fill="black" stroke="black" points="319.328,-378.179 329.92,-377.941 321.492,-371.522 319.328,-378.179"/>
<text text-anchor="middle" x="272" y="-365.4" font-family="Times Roman,serif" font-size="14.00">0..*</text>
</g>
<!-- Linkage -->
<g id="node6" class="node"><title>Linkage</title>
<a xlink:href="/idmef_parser/IDMEF/Linkage.html" xlink:title="The Linkage class represents file system connections between the file described in the &lt;File&gt; element and other objects in the file system. For example, if the &lt;File&gt; element is a symbolic link or shortcut, then the &lt;Linkage&gt; element should contain the name of the object the link points to. Further information can be provided about the object in the &lt;Linkage&gt; element with another &lt;File&gt; element, if appropriate. ">
<polygon fill="#997a00" stroke="#997a00" points="327,-335 327,-356 530,-356 530,-335 327,-335"/>
<polygon fill="none" stroke="black" points="327,-335 327,-356 530,-356 530,-335 327,-335"/>
<text text-anchor="start" x="401" y="-342.233" font-family="Times Roman,serif" font-size="14.00">Linkage</text>
</a>
<a xlink:href="/idmef_parser/IDMEF/Linkage.html" xlink:title="The name of the file system object, not including the path.">
<polygon fill="#ffcc00" stroke="#ffcc00" points="327,-315 327,-335 530,-335 530,-315 327,-315"/>
<polygon fill="none" stroke="black" points="327,-315 327,-335 530,-335 530,-315 327,-315"/>
<text text-anchor="start" x="360.5" y="-321.733" font-family="Times Roman,serif" font-size="14.00">[STRING] name (1) </text>
</a>
<a xlink:href="/idmef_parser/IDMEF/Linkage.html" xlink:title="The full path to the file system object, including the name. &#160;The path name should be represented in as &quot;universal&quot; a manner as possible, to facilitate processing of the alert.">
<polygon fill="#ffcc00" stroke="#ffcc00" points="327,-295 327,-315 530,-315 530,-295 327,-295"/>
<polygon fill="none" stroke="black" points="327,-295 327,-315 530,-315 530,-295 327,-295"/>
<text text-anchor="start" x="363.5" y="-301.733" font-family="Times Roman,serif" font-size="14.00">[STRING] path (1) </text>
</a>
<a xlink:href="/idmef_parser/IDMEF/Linkage.html" xlink:title="Section 10.)">
<polygon fill="#ffcc00" stroke="#ffcc00" points="327,-275 327,-295 530,-295 530,-275 327,-275"/>
<polygon fill="none" stroke="black" points="327,-275 327,-295 530,-295 530,-275 327,-275"/>
<text text-anchor="start" x="330.5" y="-281.733" font-family="Times Roman,serif" font-size="14.00">[ENUM] category (Optional) </text>
</a>
</g>
<!-- File&#45;&gt;Linkage -->
<g id="edge8" class="edge"><title>File&#45;&gt;Linkage</title>
<path fill="none" stroke="black" d="M240.049,-291.666C246.119,-292.456 252.13,-293.237 258,-294 274.13,-296.096 291.122,-298.299 307.872,-300.469"/>
<polygon fill="black" stroke="black" points="307.893,-304.001 318.26,-301.815 308.792,-297.059 307.893,-304.001"/>
<text text-anchor="middle" x="272" y="-302.4" font-family="Times Roman,serif" font-size="14.00">0..*</text>
</g>
<!-- Inode -->
<g id="node9" class="node"><title>Inode</title>
<a xlink:href="/idmef_parser/IDMEF/Inode.html" xlink:title="The Inode class is used to represent the additional information contained in a Unix file system i&#45;node. ">
<polygon fill="#997a00" stroke="#997a00" points="312,-229 312,-250 544,-250 544,-229 312,-229"/>
<polygon fill="none" stroke="black" points="312,-229 312,-250 544,-250 544,-229 312,-229"/>
<text text-anchor="start" x="408.5" y="-236.233" font-family="Times Roman,serif" font-size="14.00">Inode</text>
</a>
<a xlink:href="/idmef_parser/IDMEF/Inode.html" xlink:title="The time of the last inode change, given by the st_ctime element of &quot;struct stat&quot;.">
<polygon fill="#ffcc00" stroke="#ffcc00" points="312,-209 312,-229 544,-229 544,-209 312,-209"/>
<polygon fill="none" stroke="black" points="312,-209 312,-229 544,-229 544,-209 312,-209"/>
<text text-anchor="start" x="318" y="-215.733" font-family="Times Roman,serif" font-size="14.00">[DATETIME] change&#45;time (0..1) </text>
</a>
<a xlink:href="/idmef_parser/IDMEF/Inode.html" xlink:title="The inode number.">
<polygon fill="#ffcc00" stroke="#ffcc00" points="312,-189 312,-209 544,-209 544,-189 312,-189"/>
<polygon fill="none" stroke="black" points="312,-189 312,-209 544,-209 544,-189 312,-189"/>
<text text-anchor="start" x="339" y="-195.733" font-family="Times Roman,serif" font-size="14.00">[INTEGER] number (0..1) </text>
</a>
<a xlink:href="/idmef_parser/IDMEF/Inode.html" xlink:title="The major device number of the device the file resides on.">
<polygon fill="#ffcc00" stroke="#ffcc00" points="312,-169 312,-189 544,-189 544,-169 312,-169"/>
<polygon fill="none" stroke="black" points="312,-169 312,-189 544,-189 544,-169 312,-169"/>
<text text-anchor="start" x="322" y="-175.733" font-family="Times Roman,serif" font-size="14.00">[INTEGER] major&#45;device (0..1) </text>
</a>
<a xlink:href="/idmef_parser/IDMEF/Inode.html" xlink:title="The minor device number of the device the file resides on.">
<polygon fill="#ffcc00" stroke="#ffcc00" points="312,-149 312,-169 544,-169 544,-149 312,-149"/>
<polygon fill="none" stroke="black" points="312,-149 312,-169 544,-169 544,-149 312,-149"/>
<text text-anchor="start" x="321.5" y="-155.733" font-family="Times Roman,serif" font-size="14.00">[INTEGER] minor&#45;device (0..1) </text>
</a>
<a xlink:href="/idmef_parser/IDMEF/Inode.html" xlink:title="The major device of the file itself, if it is a character special device.">
<polygon fill="#ffcc00" stroke="#ffcc00" points="312,-129 312,-149 544,-149 544,-129 312,-129"/>
<polygon fill="none" stroke="black" points="312,-129 312,-149 544,-149 544,-129 312,-129"/>
<text text-anchor="start" x="316" y="-135.733" font-family="Times Roman,serif" font-size="14.00">[INTEGER] c&#45;major&#45;device (0..1) </text>
</a>
<a xlink:href="/idmef_parser/IDMEF/Inode.html" xlink:title="The minor device of the file itself, if it is a character special device.">
<polygon fill="#ffcc00" stroke="#ffcc00" points="312,-109 312,-129 544,-129 544,-109 312,-109"/>
<polygon fill="none" stroke="black" points="312,-109 312,-129 544,-129 544,-109 312,-109"/>
<text text-anchor="start" x="315.5" y="-115.733" font-family="Times Roman,serif" font-size="14.00">[INTEGER] c&#45;minor&#45;device (0..1) </text>
</a>
</g>
<!-- File&#45;&gt;Inode -->
<g id="edge10" class="edge"><title>File&#45;&gt;Inode</title>
<path fill="none" stroke="black" d="M240.404,-238.471C257.985,-232.992 276.181,-227.32 294.012,-221.763"/>
<polygon fill="black" stroke="black" points="295.369,-225.006 303.875,-218.688 293.286,-218.323 295.369,-225.006"/>
<text text-anchor="middle" x="272" y="-235.4" font-family="Times Roman,serif" font-size="14.00">0..1</text>
</g>
<!-- Checksum -->
<g id="node11" class="node"><title>Checksum</title>
<a xlink:href="/idmef_parser/IDMEF/Checksum.html" xlink:title="The Checksum class represents checksum information associated with the file. This checksum information can be provided by file integrity checkers, among others. ">
<polygon fill="#997a00" stroke="#997a00" points="323,-63 323,-84 534,-84 534,-63 323,-63"/>
<polygon fill="none" stroke="black" points="323,-63 323,-84 534,-84 534,-63 323,-63"/>
<text text-anchor="start" x="393" y="-70.2333" font-family="Times Roman,serif" font-size="14.00">Checksum</text>
</a>
<a xlink:href="/idmef_parser/IDMEF/Checksum.html" xlink:title="The value of the checksum.">
<polygon fill="#ffcc00" stroke="#ffcc00" points="323,-43 323,-63 534,-63 534,-43 323,-43"/>
<polygon fill="none" stroke="black" points="323,-43 323,-63 534,-63 534,-43 323,-43"/>
<text text-anchor="start" x="360.5" y="-49.7333" font-family="Times Roman,serif" font-size="14.00">[STRING] value (1) </text>
</a>
<a xlink:href="/idmef_parser/IDMEF/Checksum.html" xlink:title="The key to the checksum, if appropriate.">
<polygon fill="#ffcc00" stroke="#ffcc00" points="323,-23 323,-43 534,-43 534,-23 323,-23"/>
<polygon fill="none" stroke="black" points="323,-23 323,-43 534,-43 534,-23 323,-23"/>
<text text-anchor="start" x="358.5" y="-29.7333" font-family="Times Roman,serif" font-size="14.00">[STRING] key (0..1) </text>
</a>
<a xlink:href="/idmef_parser/IDMEF/Checksum.html" xlink:title="default value. &#160;(See also Section 10.)">
<polygon fill="#ffcc00" stroke="#ffcc00" points="323,-3 323,-23 534,-23 534,-3 323,-3"/>
<polygon fill="none" stroke="black" points="323,-3 323,-23 534,-23 534,-3 323,-3"/>
<text text-anchor="start" x="326.5" y="-9.73333" font-family="Times Roman,serif" font-size="14.00">[ENUM] algorithm (Required) </text>
</a>
</g>
<!-- File&#45;&gt;Checksum -->
<g id="edge12" class="edge"><title>File&#45;&gt;Checksum</title>
<path fill="none" stroke="black" d="M224.161,-161.885C248.874,-138.573 276.184,-115.534 304,-97 305.9,-95.7343 307.834,-94.488 309.799,-93.2617"/>
<polygon fill="black" stroke="black" points="311.795,-96.146 318.586,-88.0133 308.206,-90.1363 311.795,-96.146"/>
<text text-anchor="middle" x="272" y="-135.4" font-family="Times Roman,serif" font-size="14.00">0..*</text>
</g>
<!-- UserId -->
<g id="node3" class="node"><title>UserId</title>
<a xlink:href="/idmef_parser/IDMEF/UserId.html" xlink:title="The UserId class provides specific information about a user. More than one UserId can be used within the User class to indicate attempts to transition from one user to another, or to provide complete information about a user&#39;s (or process&#39;) privileges. ">
<polygon fill="#3d7a99" stroke="#3d7a99" points="606,-441 606,-462 796,-462 796,-441 606,-441"/>
<polygon fill="none" stroke="black" points="606,-441 606,-462 796,-462 796,-441 606,-441"/>
<text text-anchor="start" x="678.5" y="-448.233" font-family="Times Roman,serif" font-size="14.00">UserId</text>
</a>
<a xlink:href="/idmef_parser/IDMEF/UserId.html" xlink:title="A user or group name.">
<polygon fill="#66ccff" stroke="#66ccff" points="606,-421 606,-441 796,-441 796,-421 606,-421"/>
<polygon fill="none" stroke="black" points="606,-421 606,-441 796,-441 796,-421 606,-421"/>
<text text-anchor="start" x="624" y="-427.733" font-family="Times Roman,serif" font-size="14.00">[STRING] name (0..1) </text>
</a>
<a xlink:href="/idmef_parser/IDMEF/UserId.html" xlink:title="A user or group number.">
<polygon fill="#66ccff" stroke="#66ccff" points="606,-401 606,-421 796,-421 796,-401 606,-401"/>
<polygon fill="none" stroke="black" points="606,-401 606,-421 796,-421 796,-401 606,-401"/>
<text text-anchor="start" x="612" y="-407.733" font-family="Times Roman,serif" font-size="14.00">[INTEGER] number (0..1) </text>
</a>
<a xlink:href="/idmef_parser/IDMEF/UserId.html" xlink:title="A unique identifier for the user id, see Section 3.2.9.">
<polygon fill="#66ccff" stroke="#66ccff" points="606,-381 606,-401 796,-401 796,-381 606,-381"/>
<polygon fill="none" stroke="black" points="606,-381 606,-401 796,-401 796,-381 606,-381"/>
<text text-anchor="start" x="609.5" y="-387.733" font-family="Times Roman,serif" font-size="14.00">[STRING] ident (Optional) </text>
</a>
<a xlink:href="/idmef_parser/IDMEF/UserId.html" xlink:title="The type of user information represented. &#160;The permitted values for this attribute are shown below. &#160;The default value is &quot;original&#45;user&quot;. &#160;(See also Section 10.)">
<polygon fill="#66ccff" stroke="#66ccff" points="606,-361 606,-381 796,-381 796,-361 606,-361"/>
<polygon fill="none" stroke="black" points="606,-361 606,-381 796,-381 796,-361 606,-361"/>
<text text-anchor="start" x="618" y="-367.733" font-family="Times Roman,serif" font-size="14.00">[ENUM] type (Optional) </text>
</a>
<a xlink:href="/idmef_parser/IDMEF/UserId.html" xlink:title="The tty the user is using.">
<polygon fill="#66ccff" stroke="#66ccff" points="606,-341 606,-361 796,-361 796,-341 606,-341"/>
<polygon fill="none" stroke="black" points="606,-341 606,-361 796,-361 796,-341 606,-341"/>
<text text-anchor="start" x="617" y="-347.733" font-family="Times Roman,serif" font-size="14.00">[STRING] tty (Optional) </text>
</a>
</g>
<!-- FileAccess&#45;&gt;UserId -->
<g id="edge2" class="edge"><title>FileAccess&#45;&gt;UserId</title>
<path fill="none" stroke="black" d="M527.718,-402C547.263,-402 567.896,-402 587.843,-402"/>
<polygon fill="black" stroke="black" points="587.886,-405.5 597.886,-402 587.886,-398.5 587.886,-405.5"/>
<text text-anchor="middle" x="575" y="-406.4" font-family="Times Roman,serif" font-size="14.00">1</text>
</g>
<!-- Linkage&#45;&gt;File -->
<g id="edge6" class="edge"><title>Linkage&#45;&gt;File</title>
<path fill="none" stroke="black" d="M318.122,-282.795C307.345,-280.454 296.51,-278.449 286,-277 274.513,-275.416 262.537,-274.305 250.508,-273.558"/>
<polygon fill="black" stroke="black" points="250.575,-270.057 240.401,-273.013 250.199,-277.047 250.575,-270.057"/>
<text text-anchor="middle" x="272" y="-281.4" font-family="Times Roman,serif" font-size="14.00">1</text>
</g>
</g>
</svg>
