<?xml version="1.0" encoding="UTF-8" standalone="no"?>
<!DOCTYPE svg PUBLIC "-//W3C//DTD SVG 1.1//EN"
 "http://www.w3.org/Graphics/SVG/1.1/DTD/svg11.dtd">
<!-- Generated by graphviz version 2.26.3 (20100126.1600)
 -->
<!-- Title: FileAccess Pages: 1 -->
<svg width="456pt" height="136pt"
 viewBox="0.00 0.00 456.00 136.00" xmlns="http://www.w3.org/2000/svg" xmlns:xlink="http://www.w3.org/1999/xlink">
<g id="graph1" class="graph" transform="scale(1 1) rotate(0) translate(4 132)">
<title>FileAccess</title>
<polygon fill="white" stroke="white" points="-4,5 -4,-132 453,-132 453,5 -4,5"/>
<!-- FileAccess -->
<g id="node1" class="node"><title>FileAccess</title>
<a xlink:href="#" xlink:title="The FileAccess class represents the access permissions on a file. The representation is intended to be useful across operating systems. ">
<polygon fill="#997a00" stroke="#997a00" points="9,-63 9,-84 192,-84 192,-63 9,-63"/>
<polygon fill="none" stroke="black" points="9,-63 9,-84 192,-84 192,-63 9,-63"/>
<text text-anchor="start" x="66" y="-70.2333" font-family="Times Roman,serif" font-size="14.00">FileAccess</text>
</a>
<a xlink:href="#" xlink:title="Level of access allowed. &#160;The permitted values are shown below. &#160;There is no default value. &#160;(See also Section 10.)">
<polygon fill="#ffcc00" stroke="#ffcc00" points="9,-43 9,-63 192,-63 192,-43 9,-43"/>
<polygon fill="none" stroke="black" points="9,-43 9,-63 192,-63 192,-43 9,-43"/>
<text text-anchor="start" x="12.5" y="-49.7333" font-family="Times Roman,serif" font-size="14.00">[ENUM] Permission (1..*) </text>
</a>
</g>
<!-- UserId -->
<g id="node2" class="node"><title>UserId</title>
<a xlink:href="#" xlink:title="The UserId class provides specific information about a user. More than one UserId can be used within the User class to indicate attempts to transition from one user to another, or to provide complete information about a user&#39;s (or process&#39;) privileges. ">
<polygon fill="#3d7a99" stroke="#3d7a99" points="255,-103 255,-124 440,-124 440,-103 255,-103"/>
<polygon fill="none" stroke="black" points="255,-103 255,-124 440,-124 440,-103 255,-103"/>
<text text-anchor="start" x="325" y="-110.233" font-family="Times Roman,serif" font-size="14.00">UserId</text>
</a>
<a xlink:href="#" xlink:title="A user or group name.">
<polygon fill="#66ccff" stroke="#66ccff" points="255,-83 255,-103 440,-103 440,-83 255,-83"/>
<polygon fill="none" stroke="black" points="255,-83 255,-103 440,-103 440,-83 255,-83"/>
<text text-anchor="start" x="270.5" y="-89.7333" font-family="Times Roman,serif" font-size="14.00">[STRING] name (0..1) </text>
</a>
<a xlink:href="#" xlink:title="A user or group number.">
<polygon fill="#66ccff" stroke="#66ccff" points="255,-63 255,-83 440,-83 440,-63 255,-63"/>
<polygon fill="none" stroke="black" points="255,-63 255,-83 440,-83 440,-63 255,-63"/>
<text text-anchor="start" x="258.5" y="-69.7333" font-family="Times Roman,serif" font-size="14.00">[INTEGER] number (0..1) </text>
</a>
<a xlink:href="#" xlink:title="A unique identifier for the user id, see Section 3.2.9.">
<polygon fill="#66ccff" stroke="#66ccff" points="255,-43 255,-63 440,-63 440,-43 255,-43"/>
<polygon fill="none" stroke="black" points="255,-43 255,-63 440,-63 440,-43 255,-43"/>
<text text-anchor="start" x="283" y="-49.7333" font-family="Times Roman,serif" font-size="14.00">[] ident (Optional) </text>
</a>
<a xlink:href="#" xlink:title="The type of user information represented. &#160;The permitted values for this attribute are shown below. &#160;The default value is &quot;original&#45;user&quot;. &#160;(See also Section 10.)">
<polygon fill="#66ccff" stroke="#66ccff" points="255,-23 255,-43 440,-43 440,-23 255,-23"/>
<polygon fill="none" stroke="black" points="255,-23 255,-43 440,-43 440,-23 255,-23"/>
<text text-anchor="start" x="264.5" y="-29.7333" font-family="Times Roman,serif" font-size="14.00">[ENUM] type (Optional) </text>
</a>
<a xlink:href="#" xlink:title="The tty the user is using.">
<polygon fill="#66ccff" stroke="#66ccff" points="255,-3 255,-23 440,-23 440,-3 255,-3"/>
<polygon fill="none" stroke="black" points="255,-3 255,-23 440,-23 440,-3 255,-3"/>
<text text-anchor="start" x="263.5" y="-9.73333" font-family="Times Roman,serif" font-size="14.00">[STRING] tty (Optional) </text>
</a>
</g>
<!-- FileAccess&#45;&gt;UserId -->
<g id="edge2" class="edge"><title>FileAccess&#45;&gt;UserId</title>
<path fill="none" stroke="black" d="M199.752,-64C211.782,-64 224.123,-64 236.297,-64"/>
<polygon fill="black" stroke="black" points="236.473,-67.5001 246.473,-64 236.473,-60.5001 236.473,-67.5001"/>
<text text-anchor="middle" x="223" y="-68.4" font-family="Times Roman,serif" font-size="14.00">1</text>
</g>
</g>
</svg>
