<?xml version="1.0" encoding="UTF-8" standalone="no"?>
<!DOCTYPE svg PUBLIC "-//W3C//DTD SVG 1.1//EN"
 "http://www.w3.org/Graphics/SVG/1.1/DTD/svg11.dtd">
<!-- Generated by graphviz version 2.40.1 (0)
 -->
<!-- Title: File Pages: 1 -->
<svg width="800pt" height="494pt"
 viewBox="0.00 0.00 800.00 494.00" xmlns="http://www.w3.org/2000/svg" xmlns:xlink="http://www.w3.org/1999/xlink">
<g id="graph0" class="graph" transform="scale(1 1) rotate(0) translate(4 490)">
<title>File</title>
<polygon fill="#ffffff" stroke="transparent" points="-4,4 -4,-490 796,-490 796,4 -4,4"/>
<!-- File -->
<g id="node1" class="node">
<title>File</title>
<g id="a_node1_0"><a xlink:href="/idmef_parser/IDMEF/File.html" xlink:title="The File class provides specific information about a file or other file&#45;like object that has been created, deleted, or modified on the target. The description can provide either the file settings prior to the event or the file settings at the time of the event, as specified using the &quot;category&quot; attribute. ">
<polygon fill="#cca300" stroke="transparent" points="8.5,-386 8.5,-407 229.5,-407 229.5,-386 8.5,-386"/>
<polygon fill="none" stroke="#000000" points="8.5,-386 8.5,-407 229.5,-407 229.5,-386 8.5,-386"/>
<text text-anchor="start" x="108" y="-392.8" font-family="Nimbus Sans L" font-size="14.00" fill="#000000">File</text>
</a>
</g>
<g id="a_node1_1"><a xlink:href="/idmef_parser/IDMEF/File.html" xlink:title="The name of the file to which the alert applies, not including the path to the file.">
<polygon fill="#ffcc00" stroke="transparent" points="8.5,-365 8.5,-386 229.5,-386 229.5,-365 8.5,-365"/>
<polygon fill="none" stroke="#000000" points="8.5,-365 8.5,-386 229.5,-386 229.5,-365 8.5,-365"/>
<text text-anchor="start" x="36.5" y="-371.8" font-family="Nimbus Sans L" font-size="14.00" fill="#000000">[STRING] name (Required)</text>
</a>
</g>
<g id="a_node1_2"><a xlink:href="/idmef_parser/IDMEF/File.html" xlink:title="The full path to the file, including the name. &#160;The path name should be represented in as &quot;universal&quot; a manner as possible, to facilitate processing of the alert.">
<polygon fill="#ffcc00" stroke="transparent" points="8.5,-344 8.5,-365 229.5,-365 229.5,-344 8.5,-344"/>
<polygon fill="none" stroke="#000000" points="8.5,-344 8.5,-365 229.5,-365 229.5,-344 8.5,-344"/>
<text text-anchor="start" x="40.5" y="-350.8" font-family="Nimbus Sans L" font-size="14.00" fill="#000000">[STRING] path (Required)</text>
</a>
</g>
<g id="a_node1_3"><a xlink:href="/idmef_parser/IDMEF/File.html" xlink:title="Time the file was created. &#160;Note that this is *not* the Unix &quot;st_ctime&quot; file attribute (which is not file creation time). &#160;The Unix &quot;st_ctime&quot; attribute is contained in the &quot;Inode&quot; class.">
<polygon fill="#ffcc00" stroke="transparent" points="8.5,-323 8.5,-344 229.5,-344 229.5,-323 8.5,-323"/>
<polygon fill="none" stroke="#000000" points="8.5,-323 8.5,-344 229.5,-344 229.5,-323 8.5,-323"/>
<text text-anchor="start" x="13.5" y="-329.8" font-family="Nimbus Sans L" font-size="14.00" fill="#000000">[DATETIME] create&#45;time (Optional)</text>
</a>
</g>
<g id="a_node1_4"><a xlink:href="/idmef_parser/IDMEF/File.html" xlink:title="Time the file was last modified.">
<polygon fill="#ffcc00" stroke="transparent" points="8.5,-302 8.5,-323 229.5,-323 229.5,-302 8.5,-302"/>
<polygon fill="none" stroke="#000000" points="8.5,-302 8.5,-323 229.5,-323 229.5,-302 8.5,-302"/>
<text text-anchor="start" x="12" y="-308.8" font-family="Nimbus Sans L" font-size="14.00" fill="#000000">[DATETIME] modify&#45;time (Optional)</text>
</a>
</g>
<g id="a_node1_5"><a xlink:href="/idmef_parser/IDMEF/File.html" xlink:title="Time the file was last accessed.">
<polygon fill="#ffcc00" stroke="transparent" points="8.5,-281 8.5,-302 229.5,-302 229.5,-281 8.5,-281"/>
<polygon fill="none" stroke="#000000" points="8.5,-281 8.5,-302 229.5,-302 229.5,-281 8.5,-281"/>
<text text-anchor="start" x="11.5" y="-287.8" font-family="Nimbus Sans L" font-size="14.00" fill="#000000">[DATETIME] access&#45;time (Optional)</text>
</a>
</g>
<g id="a_node1_6"><a xlink:href="/idmef_parser/IDMEF/File.html" xlink:title="The size of the data, in bytes. &#160;Typically what is meant when referring to file size. &#160;On Unix UFS file systems, this value corresponds to stat.st_size. &#160;On Windows NTFS, this value corresponds to Valid Data Length (VDL).">
<polygon fill="#ffcc00" stroke="transparent" points="8.5,-260 8.5,-281 229.5,-281 229.5,-260 8.5,-260"/>
<polygon fill="none" stroke="#000000" points="8.5,-260 8.5,-281 229.5,-281 229.5,-260 8.5,-260"/>
<text text-anchor="start" x="23.5" y="-266.8" font-family="Nimbus Sans L" font-size="14.00" fill="#000000">[INTEGER] data&#45;size (Optional)</text>
</a>
</g>
<g id="a_node1_7"><a xlink:href="/idmef_parser/IDMEF/File.html" xlink:title="The physical space on disk consumed by the file, in bytes. &#160;On Unix UFS file systems, this value corresponds to 512 * stat.st_blocks. &#160;On Windows NTFS, this value corresponds to End of File (EOF).">
<polygon fill="#ffcc00" stroke="transparent" points="8.5,-239 8.5,-260 229.5,-260 229.5,-239 8.5,-239"/>
<polygon fill="none" stroke="#000000" points="8.5,-239 8.5,-260 229.5,-260 229.5,-239 8.5,-239"/>
<text text-anchor="start" x="25" y="-245.8" font-family="Nimbus Sans L" font-size="14.00" fill="#000000">[INTEGER] disk&#45;size (Optional)</text>
</a>
</g>
<g id="a_node1_8"><a xlink:href="/idmef_parser/IDMEF/File.html" xlink:title="A unique identifier for this file; see Section 3.2.9.">
<polygon fill="#ffcc00" stroke="transparent" points="8.5,-218 8.5,-239 229.5,-239 229.5,-218 8.5,-218"/>
<polygon fill="none" stroke="#000000" points="8.5,-218 8.5,-239 229.5,-239 229.5,-218 8.5,-218"/>
<text text-anchor="start" x="41" y="-224.8" font-family="Nimbus Sans L" font-size="14.00" fill="#000000">[STRING] ident (Optional)</text>
</a>
</g>
<g id="a_node1_9"><a xlink:href="/idmef_parser/IDMEF/File.html" xlink:title="The type of file system the file resides on. &#160;This attribute governs how path names and other attributes are interpreted.">
<polygon fill="#ffcc00" stroke="transparent" points="8.5,-197 8.5,-218 229.5,-218 229.5,-197 8.5,-197"/>
<polygon fill="none" stroke="#000000" points="8.5,-197 8.5,-218 229.5,-218 229.5,-197 8.5,-197"/>
<text text-anchor="start" x="35" y="-203.8" font-family="Nimbus Sans L" font-size="14.00" fill="#000000">[ENUM] category (Optional)</text>
</a>
</g>
<g id="a_node1_10"><a xlink:href="/idmef_parser/IDMEF/File.html" xlink:title="The type of file, as a mime&#45;type.">
<polygon fill="#ffcc00" stroke="transparent" points="8.5,-176 8.5,-197 229.5,-197 229.5,-176 8.5,-176"/>
<polygon fill="none" stroke="#000000" points="8.5,-176 8.5,-197 229.5,-197 229.5,-176 8.5,-176"/>
<text text-anchor="start" x="32" y="-182.8" font-family="Nimbus Sans L" font-size="14.00" fill="#000000">[STRING] file&#45;type (Optional)</text>
</a>
</g>
</g>
<!-- FileAccess -->
<g id="node2" class="node">
<title>FileAccess</title>
<g id="a_node2_11"><a xlink:href="/idmef_parser/IDMEF/FileAccess.html" xlink:title="The FileAccess class represents the access permissions on a file. The representation is intended to be useful across operating systems. ">
<polygon fill="#cca300" stroke="transparent" points="323.5,-419 323.5,-440 516.5,-440 516.5,-419 323.5,-419"/>
<polygon fill="none" stroke="#000000" points="323.5,-419 323.5,-440 516.5,-440 516.5,-419 323.5,-419"/>
<text text-anchor="start" x="387" y="-425.8" font-family="Nimbus Sans L" font-size="14.00" fill="#000000">FileAccess</text>
</a>
</g>
<g id="a_node2_12"><a xlink:href="/idmef_parser/IDMEF/FileAccess.html" xlink:title="Level of access allowed. &#160;The permitted values are shown below. &#160;There is no default value. &#160;(See also Section 10.)">
<polygon fill="#ffcc00" stroke="transparent" points="323.5,-398 323.5,-419 516.5,-419 516.5,-398 323.5,-398"/>
<polygon fill="none" stroke="#000000" points="323.5,-398 323.5,-419 516.5,-419 516.5,-398 323.5,-398"/>
<text text-anchor="start" x="326.5" y="-404.8" font-family="Nimbus Sans L" font-size="14.00" fill="#000000">[ENUM] Permission (Required)</text>
</a>
</g>
</g>
<!-- File&#45;&gt;FileAccess -->
<g id="edge2" class="edge">
<title>File&#45;&gt;FileAccess</title>
<path fill="none" stroke="#000000" d="M237.1714,-358.6022C256.5153,-368.1654 276.5817,-377.3422 296,-385 301.0427,-386.9886 306.2448,-388.9068 311.5301,-390.7499"/>
<polygon fill="#000000" stroke="#000000" points="310.5231,-394.104 321.1173,-393.9855 312.7616,-387.4715 310.5231,-394.104"/>
<text text-anchor="middle" x="266.5" y="-379.8" font-family="Times,serif" font-size="14.00" fill="#000000">0..*</text>
</g>
<!-- Linkage -->
<g id="node4" class="node">
<title>Linkage</title>
<g id="a_node4_13"><a xlink:href="/idmef_parser/IDMEF/Linkage.html" xlink:title="The Linkage class represents file system connections between the file described in the &lt;File&gt; element and other objects in the file system. For example, if the &lt;File&gt; element is a symbolic link or shortcut, then the &lt;Linkage&gt; element should contain the name of the object the link points to. Further information can be provided about the object in the &lt;Linkage&gt; element with another &lt;File&gt; element, if appropriate. ">
<polygon fill="#cca300" stroke="transparent" points="332.5,-351 332.5,-372 506.5,-372 506.5,-351 332.5,-351"/>
<polygon fill="none" stroke="#000000" points="332.5,-351 332.5,-372 506.5,-372 506.5,-351 332.5,-351"/>
<text text-anchor="start" x="395.5" y="-357.8" font-family="Nimbus Sans L" font-size="14.00" fill="#000000">Linkage</text>
</a>
</g>
<g id="a_node4_14"><a xlink:href="/idmef_parser/IDMEF/Linkage.html" xlink:title="The name of the file system object, not including the path.">
<polygon fill="#ffcc00" stroke="transparent" points="332.5,-330 332.5,-351 506.5,-351 506.5,-330 332.5,-330"/>
<polygon fill="none" stroke="#000000" points="332.5,-330 332.5,-351 506.5,-351 506.5,-330 332.5,-330"/>
<text text-anchor="start" x="337" y="-336.8" font-family="Nimbus Sans L" font-size="14.00" fill="#000000">[STRING] name (Required)</text>
</a>
</g>
<g id="a_node4_15"><a xlink:href="/idmef_parser/IDMEF/Linkage.html" xlink:title="The full path to the file system object, including the name. &#160;The path name should be represented in as &quot;universal&quot; a manner as possible, to facilitate processing of the alert.">
<polygon fill="#ffcc00" stroke="transparent" points="332.5,-309 332.5,-330 506.5,-330 506.5,-309 332.5,-309"/>
<polygon fill="none" stroke="#000000" points="332.5,-309 332.5,-330 506.5,-330 506.5,-309 332.5,-309"/>
<text text-anchor="start" x="341" y="-315.8" font-family="Nimbus Sans L" font-size="14.00" fill="#000000">[STRING] path (Required)</text>
</a>
</g>
<g id="a_node4_16"><a xlink:href="/idmef_parser/IDMEF/Linkage.html" xlink:title="Section 10.)">
<polygon fill="#ffcc00" stroke="transparent" points="332.5,-288 332.5,-309 506.5,-309 506.5,-288 332.5,-288"/>
<polygon fill="none" stroke="#000000" points="332.5,-288 332.5,-309 506.5,-309 506.5,-288 332.5,-288"/>
<text text-anchor="start" x="335.5" y="-294.8" font-family="Nimbus Sans L" font-size="14.00" fill="#000000">[ENUM] category (Optional)</text>
</a>
</g>
</g>
<!-- File&#45;&gt;Linkage -->
<g id="edge4" class="edge">
<title>File&#45;&gt;Linkage</title>
<path fill="none" stroke="#000000" d="M237.0311,-306.9641C262.4794,-310.1768 289.2061,-313.5509 314.116,-316.6957"/>
<polygon fill="#000000" stroke="#000000" points="313.9408,-320.2013 324.3005,-317.9815 314.8176,-313.2564 313.9408,-320.2013"/>
<text text-anchor="middle" x="266.5" y="-314.8" font-family="Times,serif" font-size="14.00" fill="#000000">0..*</text>
</g>
<!-- Inode -->
<g id="node5" class="node">
<title>Inode</title>
<g id="a_node5_17"><a xlink:href="/idmef_parser/IDMEF/Inode.html" xlink:title="The Inode class is used to represent the additional information contained in a Unix file system i&#45;node. ">
<polygon fill="#cca300" stroke="transparent" points="304.5,-240 304.5,-261 535.5,-261 535.5,-240 304.5,-240"/>
<polygon fill="none" stroke="#000000" points="304.5,-240 304.5,-261 535.5,-261 535.5,-240 304.5,-240"/>
<text text-anchor="start" x="403" y="-246.8" font-family="Nimbus Sans L" font-size="14.00" fill="#000000">Inode</text>
</a>
</g>
<g id="a_node5_18"><a xlink:href="/idmef_parser/IDMEF/Inode.html" xlink:title="The time of the last inode change, given by the st_ctime element of &quot;struct stat&quot;.">
<polygon fill="#ffcc00" stroke="transparent" points="304.5,-219 304.5,-240 535.5,-240 535.5,-219 304.5,-219"/>
<polygon fill="none" stroke="#000000" points="304.5,-219 304.5,-240 535.5,-240 535.5,-219 304.5,-219"/>
<text text-anchor="start" x="311.5" y="-225.8" font-family="Nimbus Sans L" font-size="14.00" fill="#000000">[DATETIME] change&#45;time (Optional)</text>
</a>
</g>
<g id="a_node5_19"><a xlink:href="/idmef_parser/IDMEF/Inode.html" xlink:title="The inode number.">
<polygon fill="#ffcc00" stroke="transparent" points="304.5,-198 304.5,-219 535.5,-219 535.5,-198 304.5,-198"/>
<polygon fill="none" stroke="#000000" points="304.5,-198 304.5,-219 535.5,-219 535.5,-198 304.5,-198"/>
<text text-anchor="start" x="328.5" y="-204.8" font-family="Nimbus Sans L" font-size="14.00" fill="#000000">[INTEGER] number (Optional)</text>
</a>
</g>
<g id="a_node5_20"><a xlink:href="/idmef_parser/IDMEF/Inode.html" xlink:title="The major device number of the device the file resides on.">
<polygon fill="#ffcc00" stroke="transparent" points="304.5,-177 304.5,-198 535.5,-198 535.5,-177 304.5,-177"/>
<polygon fill="none" stroke="#000000" points="304.5,-177 304.5,-198 535.5,-198 535.5,-177 304.5,-177"/>
<text text-anchor="start" x="313" y="-183.8" font-family="Nimbus Sans L" font-size="14.00" fill="#000000">[INTEGER] major&#45;device (Optional)</text>
</a>
</g>
<g id="a_node5_21"><a xlink:href="/idmef_parser/IDMEF/Inode.html" xlink:title="The minor device number of the device the file resides on.">
<polygon fill="#ffcc00" stroke="transparent" points="304.5,-156 304.5,-177 535.5,-177 535.5,-156 304.5,-156"/>
<polygon fill="none" stroke="#000000" points="304.5,-156 304.5,-177 535.5,-177 535.5,-156 304.5,-156"/>
<text text-anchor="start" x="313" y="-162.8" font-family="Nimbus Sans L" font-size="14.00" fill="#000000">[INTEGER] minor&#45;device (Optional)</text>
</a>
</g>
<g id="a_node5_22"><a xlink:href="/idmef_parser/IDMEF/Inode.html" xlink:title="The major device of the file itself, if it is a character special device.">
<polygon fill="#ffcc00" stroke="transparent" points="304.5,-135 304.5,-156 535.5,-156 535.5,-135 304.5,-135"/>
<polygon fill="none" stroke="#000000" points="304.5,-135 304.5,-156 535.5,-156 535.5,-135 304.5,-135"/>
<text text-anchor="start" x="307.5" y="-141.8" font-family="Nimbus Sans L" font-size="14.00" fill="#000000">[INTEGER] c&#45;major&#45;device (Optional)</text>
</a>
</g>
<g id="a_node5_23"><a xlink:href="/idmef_parser/IDMEF/Inode.html" xlink:title="The minor device of the file itself, if it is a character special device.">
<polygon fill="#ffcc00" stroke="transparent" points="304.5,-114 304.5,-135 535.5,-135 535.5,-114 304.5,-114"/>
<polygon fill="none" stroke="#000000" points="304.5,-114 304.5,-135 535.5,-135 535.5,-114 304.5,-114"/>
<text text-anchor="start" x="307.5" y="-120.8" font-family="Nimbus Sans L" font-size="14.00" fill="#000000">[INTEGER] c&#45;minor&#45;device (Optional)</text>
</a>
</g>
</g>
<!-- File&#45;&gt;Inode -->
<g id="edge5" class="edge">
<title>File&#45;&gt;Inode</title>
<path fill="none" stroke="#000000" d="M237.0311,-251.0457C253.1213,-245.4863 269.7227,-239.7503 286.0527,-234.108"/>
<polygon fill="#000000" stroke="#000000" points="287.3216,-237.3727 295.6303,-230.7988 285.0356,-230.7565 287.3216,-237.3727"/>
<text text-anchor="middle" x="266.5" y="-246.8" font-family="Times,serif" font-size="14.00" fill="#000000">0..1</text>
</g>
<!-- Checksum -->
<g id="node6" class="node">
<title>Checksum</title>
<g id="a_node6_24"><a xlink:href="/idmef_parser/IDMEF/Checksum.html" xlink:title="The Checksum class represents checksum information associated with the file. This checksum information can be provided by file integrity checkers, among others. ">
<polygon fill="#cca300" stroke="transparent" points="328.5,-67 328.5,-88 510.5,-88 510.5,-67 328.5,-67"/>
<polygon fill="none" stroke="#000000" points="328.5,-67 328.5,-88 510.5,-88 510.5,-67 328.5,-67"/>
<text text-anchor="start" x="387" y="-73.8" font-family="Nimbus Sans L" font-size="14.00" fill="#000000">Checksum</text>
</a>
</g>
<g id="a_node6_25"><a xlink:href="/idmef_parser/IDMEF/Checksum.html" xlink:title="The value of the checksum.">
<polygon fill="#ffcc00" stroke="transparent" points="328.5,-46 328.5,-67 510.5,-67 510.5,-46 328.5,-46"/>
<polygon fill="none" stroke="#000000" points="328.5,-46 328.5,-67 510.5,-67 510.5,-46 328.5,-46"/>
<text text-anchor="start" x="338" y="-52.8" font-family="Nimbus Sans L" font-size="14.00" fill="#000000">[STRING] value (Required)</text>
</a>
</g>
<g id="a_node6_26"><a xlink:href="/idmef_parser/IDMEF/Checksum.html" xlink:title="The key to the checksum, if appropriate.">
<polygon fill="#ffcc00" stroke="transparent" points="328.5,-25 328.5,-46 510.5,-46 510.5,-25 328.5,-25"/>
<polygon fill="none" stroke="#000000" points="328.5,-25 328.5,-46 510.5,-46 510.5,-25 328.5,-25"/>
<text text-anchor="start" x="345.5" y="-31.8" font-family="Nimbus Sans L" font-size="14.00" fill="#000000">[STRING] key (Optional)</text>
</a>
</g>
<g id="a_node6_27"><a xlink:href="/idmef_parser/IDMEF/Checksum.html" xlink:title="default value. &#160;(See also Section 10.)">
<polygon fill="#ffcc00" stroke="transparent" points="328.5,-4 328.5,-25 510.5,-25 510.5,-4 328.5,-4"/>
<polygon fill="none" stroke="#000000" points="328.5,-4 328.5,-25 510.5,-25 510.5,-4 328.5,-4"/>
<text text-anchor="start" x="331.5" y="-10.8" font-family="Nimbus Sans L" font-size="14.00" fill="#000000">[ENUM] algorithm (Required)</text>
</a>
</g>
</g>
<!-- File&#45;&gt;Checksum -->
<g id="edge6" class="edge">
<title>File&#45;&gt;Checksum</title>
<path fill="none" stroke="#000000" d="M216.544,-172.4597C240.808,-147.205 267.9458,-122.1366 296,-102 301.0204,-98.3965 306.3098,-94.9431 311.7602,-91.6471"/>
<polygon fill="#000000" stroke="#000000" points="313.5571,-94.651 320.442,-86.5981 310.038,-88.5998 313.5571,-94.651"/>
<text text-anchor="middle" x="266.5" y="-136.8" font-family="Times,serif" font-size="14.00" fill="#000000">0..*</text>
</g>
<!-- UserId -->
<g id="node3" class="node">
<title>UserId</title>
<g id="a_node3_28"><a xlink:href="/idmef_parser/IDMEF/UserId.html" xlink:title="The UserId class provides specific information about a user. More than one UserId can be used within the User class to indicate attempts to transition from one user to another, or to provide complete information about a user&#39;s (or process&#39;) privileges. ">
<polygon fill="#52a3cc" stroke="transparent" points="595.5,-461 595.5,-482 784.5,-482 784.5,-461 595.5,-461"/>
<polygon fill="none" stroke="#000000" points="595.5,-461 595.5,-482 784.5,-482 784.5,-461 595.5,-461"/>
<text text-anchor="start" x="670" y="-467.8" font-family="Nimbus Sans L" font-size="14.00" fill="#000000">UserId</text>
</a>
</g>
<g id="a_node3_29"><a xlink:href="/idmef_parser/IDMEF/UserId.html" xlink:title="A user or group name.">
<polygon fill="#66ccff" stroke="transparent" points="595.5,-440 595.5,-461 784.5,-461 784.5,-440 595.5,-440"/>
<polygon fill="none" stroke="#000000" points="595.5,-440 595.5,-461 784.5,-461 784.5,-440 595.5,-440"/>
<text text-anchor="start" x="609.5" y="-446.8" font-family="Nimbus Sans L" font-size="14.00" fill="#000000">[STRING] name (Optional)</text>
</a>
</g>
<g id="a_node3_30"><a xlink:href="/idmef_parser/IDMEF/UserId.html" xlink:title="A user or group number.">
<polygon fill="#66ccff" stroke="transparent" points="595.5,-419 595.5,-440 784.5,-440 784.5,-419 595.5,-419"/>
<polygon fill="none" stroke="#000000" points="595.5,-419 595.5,-440 784.5,-440 784.5,-419 595.5,-419"/>
<text text-anchor="start" x="598.5" y="-425.8" font-family="Nimbus Sans L" font-size="14.00" fill="#000000">[INTEGER] number (Optional)</text>
</a>
</g>
<g id="a_node3_31"><a xlink:href="/idmef_parser/IDMEF/UserId.html" xlink:title="A unique identifier for the user id, see Section 3.2.9.">
<polygon fill="#66ccff" stroke="transparent" points="595.5,-398 595.5,-419 784.5,-419 784.5,-398 595.5,-398"/>
<polygon fill="none" stroke="#000000" points="595.5,-398 595.5,-419 784.5,-419 784.5,-398 595.5,-398"/>
<text text-anchor="start" x="612" y="-404.8" font-family="Nimbus Sans L" font-size="14.00" fill="#000000">[STRING] ident (Optional)</text>
</a>
</g>
<g id="a_node3_32"><a xlink:href="/idmef_parser/IDMEF/UserId.html" xlink:title="The type of user information represented. &#160;The permitted values for this attribute are shown below. &#160;The default value is &quot;original&#45;user&quot;. &#160;(See also Section 10.)">
<polygon fill="#66ccff" stroke="transparent" points="595.5,-377 595.5,-398 784.5,-398 784.5,-377 595.5,-377"/>
<polygon fill="none" stroke="#000000" points="595.5,-377 595.5,-398 784.5,-398 784.5,-377 595.5,-377"/>
<text text-anchor="start" x="619" y="-383.8" font-family="Nimbus Sans L" font-size="14.00" fill="#000000">[ENUM] type (Optional)</text>
</a>
</g>
<g id="a_node3_33"><a xlink:href="/idmef_parser/IDMEF/UserId.html" xlink:title="The tty the user is using.">
<polygon fill="#66ccff" stroke="transparent" points="595.5,-356 595.5,-377 784.5,-377 784.5,-356 595.5,-356"/>
<polygon fill="none" stroke="#000000" points="595.5,-356 595.5,-377 784.5,-377 784.5,-356 595.5,-356"/>
<text text-anchor="start" x="619.5" y="-362.8" font-family="Nimbus Sans L" font-size="14.00" fill="#000000">[STRING] tty (Optional)</text>
</a>
</g>
</g>
<!-- FileAccess&#45;&gt;UserId -->
<g id="edge1" class="edge">
<title>FileAccess&#45;&gt;UserId</title>
<path fill="none" stroke="#000000" d="M524.2755,-419C541.3755,-419 559.1575,-419 576.4461,-419"/>
<polygon fill="#000000" stroke="#000000" points="576.5595,-422.5001 586.5595,-419 576.5595,-415.5001 576.5595,-422.5001"/>
<text text-anchor="middle" x="565" y="-422.8" font-family="Times,serif" font-size="14.00" fill="#000000">1</text>
</g>
<!-- Linkage&#45;&gt;File -->
<g id="edge3" class="edge">
<title>Linkage&#45;&gt;File</title>
<path fill="none" stroke="#000000" d="M324.2371,-301.6447C308.9017,-298.0801 293.1046,-294.9903 278,-293 268.0135,-291.6841 257.6448,-290.722 247.204,-290.0396"/>
<polygon fill="#000000" stroke="#000000" points="247.3648,-286.5432 237.1819,-289.4687 246.9666,-293.5319 247.3648,-286.5432"/>
<text text-anchor="middle" x="266.5" y="-296.8" font-family="Times,serif" font-size="14.00" fill="#000000">1</text>
</g>
</g>
</svg>
