<?xml version="1.0" encoding="UTF-8" standalone="no"?>
<!DOCTYPE svg PUBLIC "-//W3C//DTD SVG 1.1//EN"
 "http://www.w3.org/Graphics/SVG/1.1/DTD/svg11.dtd">
<!-- Generated by graphviz version 2.40.1 (0)
 -->
<!-- Title: Heartbeat Pages: 1 -->
<svg width="1087pt" height="465pt"
 viewBox="0.00 0.00 1087.00 464.50" xmlns="http://www.w3.org/2000/svg" xmlns:xlink="http://www.w3.org/1999/xlink">
<g id="graph0" class="graph" transform="scale(1 1) rotate(0) translate(4 460.5)">
<title>Heartbeat</title>
<polygon fill="#ffffff" stroke="transparent" points="-4,4 -4,-460.5 1083,-460.5 1083,4 -4,4"/>
<!-- Heartbeat -->
<g id="node1" class="node">
<title>Heartbeat</title>
<g id="a_node1_0"><a xlink:href="/idmef_parser/IDMEF/Heartbeat.html" xlink:title="Analyzers use Heartbeat messages to indicate their current status to managers. Heartbeats are intended to be sent in a regular period, say, every ten minutes or every hour. The receipt of a Heartbeat message from an analyzer indicates to the manager that the analyzer is up and running; lack of a Heartbeat message (or more likely, lack of some number of consecutive Heartbeat messages) indicates that the analyzer or its network connection has failed. ">
<polygon fill="#90ac3d" stroke="transparent" points="8.5,-123 8.5,-144 255.5,-144 255.5,-123 8.5,-123"/>
<polygon fill="none" stroke="#000000" points="8.5,-123 8.5,-144 255.5,-144 255.5,-123 8.5,-123"/>
<text text-anchor="start" x="101.5" y="-129.8" font-family="Nimbus Sans L" font-size="14.00" fill="#000000">Heartbeat</text>
</a>
</g>
<g id="a_node1_1"><a xlink:href="/idmef_parser/IDMEF/Heartbeat.html" xlink:title="The interval in seconds at which heartbeats are generated.">
<polygon fill="#b4d74c" stroke="transparent" points="8.5,-102 8.5,-123 255.5,-123 255.5,-102 8.5,-102"/>
<polygon fill="none" stroke="#000000" points="8.5,-102 8.5,-123 255.5,-123 255.5,-102 8.5,-102"/>
<text text-anchor="start" x="11.5" y="-108.8" font-family="Nimbus Sans L" font-size="14.00" fill="#000000">[INTEGER] HeartbeatInterval (Optional)</text>
</a>
</g>
<g id="a_node1_2"><a xlink:href="/idmef_parser/IDMEF/Heartbeat.html" xlink:title="A unique identifier for the heartbeat; see Section 3.2.9.">
<polygon fill="#b4d74c" stroke="transparent" points="8.5,-81 8.5,-102 255.5,-102 255.5,-81 8.5,-81"/>
<polygon fill="none" stroke="#000000" points="8.5,-81 8.5,-102 255.5,-102 255.5,-81 8.5,-81"/>
<text text-anchor="start" x="35.5" y="-87.8" font-family="Nimbus Sans L" font-size="14.00" fill="#000000">[STRING] messageid (Optional)</text>
</a>
</g>
</g>
<!-- Analyzer -->
<g id="node2" class="node">
<title>Analyzer</title>
<g id="a_node2_3"><a xlink:href="/idmef_parser/IDMEF/Analyzer.html" xlink:title="The Analyzer class identifies the analyzer from which the Alert or Heartbeat message originates. Only one analyzer may be encoded for each alert or heartbeat, and that MUST be the analyzer at which the alert or heartbeat originated. Although the IDMEF data model does not prevent the use of hierarchical intrusion detection systems (where alerts get relayed up the tree), it does not provide any way to record the identity of the &quot;relay&quot; analyzers along the path from the originating analyzer to the manager that ultimately receives the alert. ">
<polygon fill="#cccc52" stroke="transparent" points="330.5,-348 330.5,-369 543.5,-369 543.5,-348 330.5,-348"/>
<polygon fill="none" stroke="#000000" points="330.5,-348 330.5,-369 543.5,-369 543.5,-348 330.5,-348"/>
<text text-anchor="start" x="410.5" y="-354.8" font-family="Nimbus Sans L" font-size="14.00" fill="#000000">Analyzer</text>
</a>
</g>
<g id="a_node2_4"><a xlink:href="/idmef_parser/IDMEF/Analyzer.html" xlink:title="(but see below). &#160;A unique identifier for the analyzer; see Section 3.2.9.">
<polygon fill="#ffff66" stroke="transparent" points="330.5,-327 330.5,-348 543.5,-348 543.5,-327 330.5,-327"/>
<polygon fill="none" stroke="#000000" points="330.5,-327 330.5,-348 543.5,-348 543.5,-327 330.5,-327"/>
<text text-anchor="start" x="343" y="-333.8" font-family="Nimbus Sans L" font-size="14.00" fill="#000000">[STRING] analyzerid (Optional)</text>
</a>
</g>
<g id="a_node2_5"><a xlink:href="/idmef_parser/IDMEF/Analyzer.html" xlink:title="An explicit name for the analyzer that may be easier to understand than the analyzerid.">
<polygon fill="#ffff66" stroke="transparent" points="330.5,-306 330.5,-327 543.5,-327 543.5,-306 330.5,-306"/>
<polygon fill="none" stroke="#000000" points="330.5,-306 330.5,-327 543.5,-327 543.5,-306 330.5,-306"/>
<text text-anchor="start" x="356.5" y="-312.8" font-family="Nimbus Sans L" font-size="14.00" fill="#000000">[STRING] name (Optional)</text>
</a>
</g>
<g id="a_node2_6"><a xlink:href="/idmef_parser/IDMEF/Analyzer.html" xlink:title="The manufacturer of the analyzer software and/or hardware.">
<polygon fill="#ffff66" stroke="transparent" points="330.5,-285 330.5,-306 543.5,-306 543.5,-285 330.5,-285"/>
<polygon fill="none" stroke="#000000" points="330.5,-285 330.5,-306 543.5,-306 543.5,-285 330.5,-285"/>
<text text-anchor="start" x="333.5" y="-291.8" font-family="Nimbus Sans L" font-size="14.00" fill="#000000">[STRING] manufacturer (Optional)</text>
</a>
</g>
<g id="a_node2_7"><a xlink:href="/idmef_parser/IDMEF/Analyzer.html" xlink:title="The model name/number of the analyzer software and/or hardware.">
<polygon fill="#ffff66" stroke="transparent" points="330.5,-264 330.5,-285 543.5,-285 543.5,-264 330.5,-264"/>
<polygon fill="none" stroke="#000000" points="330.5,-264 330.5,-285 543.5,-285 543.5,-264 330.5,-264"/>
<text text-anchor="start" x="355" y="-270.8" font-family="Nimbus Sans L" font-size="14.00" fill="#000000">[STRING] model (Optional)</text>
</a>
</g>
<g id="a_node2_8"><a xlink:href="/idmef_parser/IDMEF/Analyzer.html" xlink:title="The version number of the analyzer software and/or hardware.">
<polygon fill="#ffff66" stroke="transparent" points="330.5,-243 330.5,-264 543.5,-264 543.5,-243 330.5,-243"/>
<polygon fill="none" stroke="#000000" points="330.5,-243 330.5,-264 543.5,-264 543.5,-243 330.5,-243"/>
<text text-anchor="start" x="352" y="-249.8" font-family="Nimbus Sans L" font-size="14.00" fill="#000000">[STRING] version (Optional)</text>
</a>
</g>
<g id="a_node2_9"><a xlink:href="/idmef_parser/IDMEF/Analyzer.html" xlink:title="The class of analyzer software and/or hardware.">
<polygon fill="#ffff66" stroke="transparent" points="330.5,-222 330.5,-243 543.5,-243 543.5,-222 330.5,-222"/>
<polygon fill="none" stroke="#000000" points="330.5,-222 330.5,-243 543.5,-243 543.5,-222 330.5,-222"/>
<text text-anchor="start" x="358.5" y="-228.8" font-family="Nimbus Sans L" font-size="14.00" fill="#000000">[STRING] class (Optional)</text>
</a>
</g>
<g id="a_node2_10"><a xlink:href="/idmef_parser/IDMEF/Analyzer.html" xlink:title="Operating system name. &#160;On POSIX 1003.1 compliant systems, this is the value returned in utsname.sysname by the uname() system call, or the output of the &quot;uname &#45;s&quot; command.">
<polygon fill="#ffff66" stroke="transparent" points="330.5,-201 330.5,-222 543.5,-222 543.5,-201 330.5,-201"/>
<polygon fill="none" stroke="#000000" points="330.5,-201 330.5,-222 543.5,-222 543.5,-201 330.5,-201"/>
<text text-anchor="start" x="354" y="-207.8" font-family="Nimbus Sans L" font-size="14.00" fill="#000000">[STRING] ostype (Optional)</text>
</a>
</g>
<g id="a_node2_11"><a xlink:href="/idmef_parser/IDMEF/Analyzer.html" xlink:title="Operating system version. &#160;On POSIX 1003.1 compliant systems, this is the value returned in utsname.release by the uname() system call, or the output of the &quot;uname &#45;r&quot; command.">
<polygon fill="#ffff66" stroke="transparent" points="330.5,-180 330.5,-201 543.5,-201 543.5,-180 330.5,-180"/>
<polygon fill="none" stroke="#000000" points="330.5,-180 330.5,-201 543.5,-201 543.5,-180 330.5,-180"/>
<text text-anchor="start" x="345" y="-186.8" font-family="Nimbus Sans L" font-size="14.00" fill="#000000">[STRING] osversion (Optional)</text>
</a>
</g>
</g>
<!-- Heartbeat&#45;&gt;Analyzer -->
<g id="edge5" class="edge">
<title>Heartbeat&#45;&gt;Analyzer</title>
<path fill="none" stroke="#000000" d="M198.4335,-148.5516C231.8757,-166.3143 273.4347,-188.3882 312.4239,-209.0973"/>
<polygon fill="#000000" stroke="#000000" points="311.2726,-212.4488 321.746,-214.0487 314.5562,-206.2667 311.2726,-212.4488"/>
<text text-anchor="middle" x="292.5" y="-207.8" font-family="Times,serif" font-size="14.00" fill="#000000">1</text>
</g>
<!-- CreateTime -->
<g id="node6" class="node">
<title>CreateTime</title>
<g id="a_node6_12"><a xlink:href="/idmef_parser/IDMEF/CreateTime.html" xlink:title="The CreateTime class is used to indicate the date and time the alert or heartbeat was created by the analyzer. ">
<polygon fill="#8a8acc" stroke="transparent" points="397.5,-129 397.5,-150 475.5,-150 475.5,-129 397.5,-129"/>
<polygon fill="none" stroke="#000000" points="397.5,-129 397.5,-150 475.5,-150 475.5,-129 397.5,-129"/>
<text text-anchor="start" x="400.5" y="-135.8" font-family="Nimbus Sans L" font-size="14.00" fill="#000000">CreateTime</text>
</a>
</g>
</g>
<!-- Heartbeat&#45;&gt;CreateTime -->
<g id="edge6" class="edge">
<title>Heartbeat&#45;&gt;CreateTime</title>
<path fill="none" stroke="#000000" d="M263.0604,-124.6463C303.6499,-128.2395 346.2565,-132.0112 379.0832,-134.9172"/>
<polygon fill="#000000" stroke="#000000" points="379.1128,-138.4334 389.3825,-135.8289 379.7302,-131.4607 379.1128,-138.4334"/>
<text text-anchor="middle" x="292.5" y="-132.8" font-family="Times,serif" font-size="14.00" fill="#000000">1</text>
</g>
<!-- AnalyzerTime -->
<g id="node7" class="node">
<title>AnalyzerTime</title>
<g id="a_node7_13"><a xlink:href="/idmef_parser/IDMEF/AnalyzerTime.html" xlink:title="The AnalyzerTime class is used to indicate the current date and time on the analyzer. Its values should be filled in as late as possible in the message transmission process, ideally immediately before placing the message &quot;on the wire&quot;. ">
<polygon fill="#8a8acc" stroke="transparent" points="391.5,-75 391.5,-96 481.5,-96 481.5,-75 391.5,-75"/>
<polygon fill="none" stroke="#000000" points="391.5,-75 391.5,-96 481.5,-96 481.5,-75 391.5,-75"/>
<text text-anchor="start" x="394.5" y="-81.8" font-family="Nimbus Sans L" font-size="14.00" fill="#000000">AnalyzerTime</text>
</a>
</g>
</g>
<!-- Heartbeat&#45;&gt;AnalyzerTime -->
<g id="edge7" class="edge">
<title>Heartbeat&#45;&gt;AnalyzerTime</title>
<path fill="none" stroke="#000000" d="M263.0604,-101.3537C301.3222,-97.9666 341.3764,-94.4208 373.3413,-91.5911"/>
<polygon fill="#000000" stroke="#000000" points="373.7704,-95.0669 383.4228,-90.6986 373.153,-88.0942 373.7704,-95.0669"/>
<text text-anchor="middle" x="292.5" y="-103.8" font-family="Times,serif" font-size="14.00" fill="#000000">0..1</text>
</g>
<!-- AdditionalData -->
<g id="node8" class="node">
<title>AdditionalData</title>
<g id="a_node8_14"><a xlink:href="/idmef_parser/IDMEF/AdditionalData.html" xlink:title="The AdditionalData class is used to provide information that cannot be represented by the data model. AdditionalData can be used to provide atomic data (integers, strings, etc.) in cases where only small amounts of additional information need to be sent; it can also be used to extend the data model and the DTD to support the transmission of complex data (such as packet headers). Detailed instructions for extending the data model and the DTD are provided in Section 5. ">
<polygon fill="#87689e" stroke="transparent" points="344.5,-25 344.5,-46 529.5,-46 529.5,-25 344.5,-25"/>
<polygon fill="none" stroke="#000000" points="344.5,-25 344.5,-46 529.5,-46 529.5,-25 344.5,-25"/>
<text text-anchor="start" x="393" y="-31.8" font-family="Nimbus Sans L" font-size="14.00" fill="#000000">AdditionalData</text>
</a>
</g>
<g id="a_node8_15"><a xlink:href="/idmef_parser/IDMEF/AdditionalData.html" xlink:title="A string describing the meaning of the element content. These values will be vendor/implementation dependent; the method for ensuring that managers understand the strings sent by analyzers is outside the scope of this specification. &#160;A list of acceptable meaning keywords is not within the scope of the document, although later versions may undertake to establish such a list.">
<polygon fill="#a982c6" stroke="transparent" points="344.5,-4 344.5,-25 529.5,-25 529.5,-4 344.5,-4"/>
<polygon fill="none" stroke="#000000" points="344.5,-4 344.5,-25 529.5,-25 529.5,-4 344.5,-4"/>
<text text-anchor="start" x="347.5" y="-10.8" font-family="Nimbus Sans L" font-size="14.00" fill="#000000">[STRING] meaning (Optional)</text>
</a>
</g>
</g>
<!-- Heartbeat&#45;&gt;AdditionalData -->
<g id="edge8" class="edge">
<title>Heartbeat&#45;&gt;AdditionalData</title>
<path fill="none" stroke="#000000" d="M254.676,-77.4607C282.9474,-69.3037 312.616,-60.7436 339.595,-52.9595"/>
<polygon fill="#000000" stroke="#000000" points="340.7676,-56.264 349.4054,-50.1289 338.8271,-49.5383 340.7676,-56.264"/>
<text text-anchor="middle" x="292.5" y="-72.8" font-family="Times,serif" font-size="14.00" fill="#000000">0..*</text>
</g>
<!-- Analyzer&#45;&gt;Analyzer -->
<g id="edge4" class="edge">
<title>Analyzer&#45;&gt;Analyzer</title>
<path fill="none" stroke="#000000" d="M413.7863,-373.5908C418.1006,-384.4735 425.6719,-391.5 436.5,-391.5 443.9443,-391.5 449.8493,-388.1789 454.2148,-382.5668"/>
<polygon fill="#000000" stroke="#000000" points="457.406,-384.0303 459.2137,-373.5908 451.2904,-380.6244 457.406,-384.0303"/>
<text text-anchor="middle" x="436.5" y="-395.3" font-family="Times,serif" font-size="14.00" fill="#000000">0..1</text>
</g>
<!-- Node -->
<g id="node3" class="node">
<title>Node</title>
<g id="a_node3_16"><a xlink:href="/idmef_parser/IDMEF/Node.html" xlink:title="The Node class is used to identify hosts and other network devices (routers, switches, etc.). ">
<polygon fill="#3daf3d" stroke="transparent" points="618.5,-410 618.5,-431 797.5,-431 797.5,-410 618.5,-410"/>
<polygon fill="none" stroke="#000000" points="618.5,-410 618.5,-431 797.5,-431 797.5,-410 618.5,-410"/>
<text text-anchor="start" x="691.5" y="-416.8" font-family="Nimbus Sans L" font-size="14.00" fill="#000000">Node</text>
</a>
</g>
<g id="a_node3_17"><a xlink:href="/idmef_parser/IDMEF/Node.html" xlink:title="The location of the equipment.">
<polygon fill="#4cdb4c" stroke="transparent" points="618.5,-389 618.5,-410 797.5,-410 797.5,-389 618.5,-389"/>
<polygon fill="none" stroke="#000000" points="618.5,-389 618.5,-410 797.5,-410 797.5,-389 618.5,-389"/>
<text text-anchor="start" x="621.5" y="-395.8" font-family="Nimbus Sans L" font-size="14.00" fill="#000000">[STRING] location (Optional)</text>
</a>
</g>
<g id="a_node3_18"><a xlink:href="/idmef_parser/IDMEF/Node.html" xlink:title="The name of the equipment. &#160;This information MUST be provided if no Address information is given.">
<polygon fill="#4cdb4c" stroke="transparent" points="618.5,-368 618.5,-389 797.5,-389 797.5,-368 618.5,-368"/>
<polygon fill="none" stroke="#000000" points="618.5,-368 618.5,-389 797.5,-389 797.5,-368 618.5,-368"/>
<text text-anchor="start" x="627.5" y="-374.8" font-family="Nimbus Sans L" font-size="14.00" fill="#000000">[STRING] name (Optional)</text>
</a>
</g>
<g id="a_node3_19"><a xlink:href="/idmef_parser/IDMEF/Node.html" xlink:title="A unique identifier for the node; see Section 3.2.9.">
<polygon fill="#4cdb4c" stroke="transparent" points="618.5,-347 618.5,-368 797.5,-368 797.5,-347 618.5,-347"/>
<polygon fill="none" stroke="#000000" points="618.5,-347 618.5,-368 797.5,-368 797.5,-347 618.5,-347"/>
<text text-anchor="start" x="630" y="-353.8" font-family="Nimbus Sans L" font-size="14.00" fill="#000000">[STRING] ident (Optional)</text>
</a>
</g>
<g id="a_node3_20"><a xlink:href="/idmef_parser/IDMEF/Node.html" xlink:title="The &quot;domain&quot; from which the name information was obtained, if relevant. &#160;The permitted values for this attribute are shown in the table below. &#160;The default value is &quot;unknown&quot;. (See also Section 10 for extensions to the table.)">
<polygon fill="#4cdb4c" stroke="transparent" points="618.5,-326 618.5,-347 797.5,-347 797.5,-326 618.5,-326"/>
<polygon fill="none" stroke="#000000" points="618.5,-326 618.5,-347 797.5,-347 797.5,-326 618.5,-326"/>
<text text-anchor="start" x="624" y="-332.8" font-family="Nimbus Sans L" font-size="14.00" fill="#000000">[ENUM] category (Optional)</text>
</a>
</g>
</g>
<!-- Analyzer&#45;&gt;Node -->
<g id="edge2" class="edge">
<title>Analyzer&#45;&gt;Node</title>
<path fill="none" stroke="#000000" d="M551.0356,-318.9546C567.3378,-325.2108 584.0549,-331.6262 600.2121,-337.8268"/>
<polygon fill="#000000" stroke="#000000" points="599.0629,-341.1346 609.6531,-341.4499 601.571,-334.5993 599.0629,-341.1346"/>
<text text-anchor="middle" x="580.5" y="-337.8" font-family="Times,serif" font-size="14.00" fill="#000000">0..1</text>
</g>
<!-- Process -->
<g id="node5" class="node">
<title>Process</title>
<g id="a_node5_21"><a xlink:href="/idmef_parser/IDMEF/Process.html" xlink:title="The Process class is used to describe processes being executed on sources, targets, and analyzers. ">
<polygon fill="#cca352" stroke="transparent" points="622.5,-279 622.5,-300 793.5,-300 793.5,-279 622.5,-279"/>
<polygon fill="none" stroke="#000000" points="622.5,-279 622.5,-300 793.5,-300 793.5,-279 622.5,-279"/>
<text text-anchor="start" x="683.5" y="-285.8" font-family="Nimbus Sans L" font-size="14.00" fill="#000000">Process</text>
</a>
</g>
<g id="a_node5_22"><a xlink:href="/idmef_parser/IDMEF/Process.html" xlink:title="The name of the program being executed. This is a short name; path and argument information are provided elsewhere.">
<polygon fill="#ffcc66" stroke="transparent" points="622.5,-258 622.5,-279 793.5,-279 793.5,-258 622.5,-258"/>
<polygon fill="none" stroke="#000000" points="622.5,-258 622.5,-279 793.5,-279 793.5,-258 622.5,-258"/>
<text text-anchor="start" x="625.5" y="-264.8" font-family="Nimbus Sans L" font-size="14.00" fill="#000000">[STRING] name (Required)</text>
</a>
</g>
<g id="a_node5_23"><a xlink:href="/idmef_parser/IDMEF/Process.html" xlink:title="The process identifier of the process.">
<polygon fill="#ffcc66" stroke="transparent" points="622.5,-237 622.5,-258 793.5,-258 793.5,-237 622.5,-237"/>
<polygon fill="none" stroke="#000000" points="622.5,-237 622.5,-258 793.5,-258 793.5,-237 622.5,-237"/>
<text text-anchor="start" x="631" y="-243.8" font-family="Nimbus Sans L" font-size="14.00" fill="#000000">[INTEGER] pid (Optional)</text>
</a>
</g>
<g id="a_node5_24"><a xlink:href="/idmef_parser/IDMEF/Process.html" xlink:title="The full path of the program being executed.">
<polygon fill="#ffcc66" stroke="transparent" points="622.5,-216 622.5,-237 793.5,-237 793.5,-216 622.5,-216"/>
<polygon fill="none" stroke="#000000" points="622.5,-216 622.5,-237 793.5,-237 793.5,-216 622.5,-216"/>
<text text-anchor="start" x="631.5" y="-222.8" font-family="Nimbus Sans L" font-size="14.00" fill="#000000">[STRING] path (Optional)</text>
</a>
</g>
<g id="a_node5_25"><a xlink:href="/idmef_parser/IDMEF/Process.html" xlink:title="A command&#45;line argument to the program. Multiple arguments may be specified (they are assumed to have occurred in the same order they are provided) with multiple uses of arg.">
<polygon fill="#ffcc66" stroke="transparent" points="622.5,-195 622.5,-216 793.5,-216 793.5,-195 622.5,-195"/>
<polygon fill="none" stroke="#000000" points="622.5,-195 622.5,-216 793.5,-216 793.5,-195 622.5,-195"/>
<text text-anchor="start" x="635" y="-201.8" font-family="Nimbus Sans L" font-size="14.00" fill="#000000">[STRING] arg (Optional)</text>
</a>
</g>
<g id="a_node5_26"><a xlink:href="/idmef_parser/IDMEF/Process.html" xlink:title="An environment string associated with the process; generally of the format &quot;VARIABLE=value&quot;. &#160;Multiple environment strings may be specified with multiple uses of env.">
<polygon fill="#ffcc66" stroke="transparent" points="622.5,-174 622.5,-195 793.5,-195 793.5,-174 622.5,-174"/>
<polygon fill="none" stroke="#000000" points="622.5,-174 622.5,-195 793.5,-195 793.5,-174 622.5,-174"/>
<text text-anchor="start" x="634" y="-180.8" font-family="Nimbus Sans L" font-size="14.00" fill="#000000">[STRING] env (Optional)</text>
</a>
</g>
<g id="a_node5_27"><a xlink:href="/idmef_parser/IDMEF/Process.html" xlink:title="A unique identifier for the process; see Section 3.2.9.">
<polygon fill="#ffcc66" stroke="transparent" points="622.5,-153 622.5,-174 793.5,-174 793.5,-153 622.5,-153"/>
<polygon fill="none" stroke="#000000" points="622.5,-153 622.5,-174 793.5,-174 793.5,-153 622.5,-153"/>
<text text-anchor="start" x="630" y="-159.8" font-family="Nimbus Sans L" font-size="14.00" fill="#000000">[STRING] ident (Optional)</text>
</a>
</g>
</g>
<!-- Analyzer&#45;&gt;Process -->
<g id="edge3" class="edge">
<title>Analyzer&#45;&gt;Process</title>
<path fill="none" stroke="#000000" d="M551.0356,-254.7133C568.5454,-251.6119 586.5338,-248.4257 603.7929,-245.3688"/>
<polygon fill="#000000" stroke="#000000" points="604.6251,-248.7759 613.8614,-243.5854 603.4042,-241.8832 604.6251,-248.7759"/>
<text text-anchor="middle" x="580.5" y="-254.8" font-family="Times,serif" font-size="14.00" fill="#000000">0..1</text>
</g>
<!-- Address -->
<g id="node4" class="node">
<title>Address</title>
<g id="a_node4_28"><a xlink:href="/idmef_parser/IDMEF/Address.html" xlink:title="The Address class is used to represent network, hardware, and application addresses. ">
<polygon fill="#3daf3d" stroke="transparent" points="872.5,-431 872.5,-452 1071.5,-452 1071.5,-431 872.5,-431"/>
<polygon fill="none" stroke="#000000" points="872.5,-431 872.5,-452 1071.5,-452 1071.5,-431 872.5,-431"/>
<text text-anchor="start" x="947" y="-437.8" font-family="Nimbus Sans L" font-size="14.00" fill="#000000">Address</text>
</a>
</g>
<g id="a_node4_29"><a xlink:href="/idmef_parser/IDMEF/Address.html" xlink:title="The address information. &#160;The format of this data is governed by the category attribute.">
<polygon fill="#4cdb4c" stroke="transparent" points="872.5,-410 872.5,-431 1071.5,-431 1071.5,-410 872.5,-410"/>
<polygon fill="none" stroke="#000000" points="872.5,-410 872.5,-431 1071.5,-431 1071.5,-410 872.5,-410"/>
<text text-anchor="start" x="883" y="-416.8" font-family="Nimbus Sans L" font-size="14.00" fill="#000000">[STRING] address (Required)</text>
</a>
</g>
<g id="a_node4_30"><a xlink:href="/idmef_parser/IDMEF/Address.html" xlink:title="The network mask for the address, if appropriate.">
<polygon fill="#4cdb4c" stroke="transparent" points="872.5,-389 872.5,-410 1071.5,-410 1071.5,-389 872.5,-389"/>
<polygon fill="none" stroke="#000000" points="872.5,-389 872.5,-410 1071.5,-410 1071.5,-389 872.5,-389"/>
<text text-anchor="start" x="883" y="-395.8" font-family="Nimbus Sans L" font-size="14.00" fill="#000000">[STRING] netmask (Optional)</text>
</a>
</g>
<g id="a_node4_31"><a xlink:href="/idmef_parser/IDMEF/Address.html" xlink:title="A unique identifier for the address; see Section 3.2.9.">
<polygon fill="#4cdb4c" stroke="transparent" points="872.5,-368 872.5,-389 1071.5,-389 1071.5,-368 872.5,-368"/>
<polygon fill="none" stroke="#000000" points="872.5,-368 872.5,-389 1071.5,-389 1071.5,-368 872.5,-368"/>
<text text-anchor="start" x="894" y="-374.8" font-family="Nimbus Sans L" font-size="14.00" fill="#000000">[STRING] ident (Optional)</text>
</a>
</g>
<g id="a_node4_32"><a xlink:href="/idmef_parser/IDMEF/Address.html" xlink:title="The type of address represented. &#160;The permitted values for this attribute are shown below. &#160;The default value is &quot;unknown&quot;. &#160;(See also Section 10.)">
<polygon fill="#4cdb4c" stroke="transparent" points="872.5,-347 872.5,-368 1071.5,-368 1071.5,-347 872.5,-347"/>
<polygon fill="none" stroke="#000000" points="872.5,-347 872.5,-368 1071.5,-368 1071.5,-347 872.5,-347"/>
<text text-anchor="start" x="888" y="-353.8" font-family="Nimbus Sans L" font-size="14.00" fill="#000000">[ENUM] category (Optional)</text>
</a>
</g>
<g id="a_node4_33"><a xlink:href="/idmef_parser/IDMEF/Address.html" xlink:title="The name of the Virtual LAN to which the address belongs.">
<polygon fill="#4cdb4c" stroke="transparent" points="872.5,-326 872.5,-347 1071.5,-347 1071.5,-326 872.5,-326"/>
<polygon fill="none" stroke="#000000" points="872.5,-326 872.5,-347 1071.5,-347 1071.5,-326 872.5,-326"/>
<text text-anchor="start" x="877" y="-332.8" font-family="Nimbus Sans L" font-size="14.00" fill="#000000">[STRING] vlan&#45;name (Optional)</text>
</a>
</g>
<g id="a_node4_34"><a xlink:href="/idmef_parser/IDMEF/Address.html" xlink:title="The number of the Virtual LAN to which the address belongs.">
<polygon fill="#4cdb4c" stroke="transparent" points="872.5,-305 872.5,-326 1071.5,-326 1071.5,-305 872.5,-305"/>
<polygon fill="none" stroke="#000000" points="872.5,-305 872.5,-326 1071.5,-326 1071.5,-305 872.5,-305"/>
<text text-anchor="start" x="875.5" y="-311.8" font-family="Nimbus Sans L" font-size="14.00" fill="#000000">[INTEGER] vlan&#45;num (Optional)</text>
</a>
</g>
</g>
<!-- Node&#45;&gt;Address -->
<g id="edge1" class="edge">
<title>Node&#45;&gt;Address</title>
<path fill="none" stroke="#000000" d="M805.0538,-379C820.8666,-379 837.3885,-379 853.6222,-379"/>
<polygon fill="#000000" stroke="#000000" points="853.6838,-382.5001 863.6838,-379 853.6838,-375.5001 853.6838,-382.5001"/>
<text text-anchor="middle" x="834.5" y="-382.8" font-family="Times,serif" font-size="14.00" fill="#000000">0..*</text>
</g>
</g>
</svg>
