<?xml version="1.0" encoding="UTF-8" standalone="no"?>
<!DOCTYPE svg PUBLIC "-//W3C//DTD SVG 1.1//EN"
 "http://www.w3.org/Graphics/SVG/1.1/DTD/svg11.dtd">
<!-- Generated by graphviz version 2.26.3 (20100126.1600)
 -->
<!-- Title: Inode Pages: 1 -->
<svg width="256pt" height="156pt"
 viewBox="0.00 0.00 256.00 156.00" xmlns="http://www.w3.org/2000/svg" xmlns:xlink="http://www.w3.org/1999/xlink">
<g id="graph1" class="graph" transform="scale(1 1) rotate(0) translate(4 152)">
<title>Inode</title>
<polygon fill="white" stroke="white" points="-4,5 -4,-152 253,-152 253,5 -4,5"/>
<!-- Inode -->
<g id="node1" class="node"><title>Inode</title>
<a xlink:href="/idmef_parser/IDMEF/Inode.html" xlink:title="The Inode class is used to represent the additional information contained in a Unix file system i&#45;node. ">
<polygon fill="#997a00" stroke="#997a00" points="8,-123 8,-144 240,-144 240,-123 8,-123"/>
<polygon fill="none" stroke="black" points="8,-123 8,-144 240,-144 240,-123 8,-123"/>
<text text-anchor="start" x="104.5" y="-130.233" font-family="Times Roman,serif" font-size="14.00">Inode</text>
</a>
<a xlink:href="/idmef_parser/IDMEF/Inode.html" xlink:title="The time of the last inode change, given by the st_ctime element of &quot;struct stat&quot;.">
<polygon fill="#ffcc00" stroke="#ffcc00" points="8,-103 8,-123 240,-123 240,-103 8,-103"/>
<polygon fill="none" stroke="black" points="8,-103 8,-123 240,-123 240,-103 8,-103"/>
<text text-anchor="start" x="14" y="-109.733" font-family="Times Roman,serif" font-size="14.00">[DATETIME] change&#45;time (0..1) </text>
</a>
<a xlink:href="/idmef_parser/IDMEF/Inode.html" xlink:title="The inode number.">
<polygon fill="#ffcc00" stroke="#ffcc00" points="8,-83 8,-103 240,-103 240,-83 8,-83"/>
<polygon fill="none" stroke="black" points="8,-83 8,-103 240,-103 240,-83 8,-83"/>
<text text-anchor="start" x="35" y="-89.7333" font-family="Times Roman,serif" font-size="14.00">[INTEGER] number (0..1) </text>
</a>
<a xlink:href="/idmef_parser/IDMEF/Inode.html" xlink:title="The major device number of the device the file resides on.">
<polygon fill="#ffcc00" stroke="#ffcc00" points="8,-63 8,-83 240,-83 240,-63 8,-63"/>
<polygon fill="none" stroke="black" points="8,-63 8,-83 240,-83 240,-63 8,-63"/>
<text text-anchor="start" x="18" y="-69.7333" font-family="Times Roman,serif" font-size="14.00">[INTEGER] major&#45;device (0..1) </text>
</a>
<a xlink:href="/idmef_parser/IDMEF/Inode.html" xlink:title="The minor device number of the device the file resides on.">
<polygon fill="#ffcc00" stroke="#ffcc00" points="8,-43 8,-63 240,-63 240,-43 8,-43"/>
<polygon fill="none" stroke="black" points="8,-43 8,-63 240,-63 240,-43 8,-43"/>
<text text-anchor="start" x="17.5" y="-49.7333" font-family="Times Roman,serif" font-size="14.00">[INTEGER] minor&#45;device (0..1) </text>
</a>
<a xlink:href="/idmef_parser/IDMEF/Inode.html" xlink:title="The major device of the file itself, if it is a character special device.">
<polygon fill="#ffcc00" stroke="#ffcc00" points="8,-23 8,-43 240,-43 240,-23 8,-23"/>
<polygon fill="none" stroke="black" points="8,-23 8,-43 240,-43 240,-23 8,-23"/>
<text text-anchor="start" x="12" y="-29.7333" font-family="Times Roman,serif" font-size="14.00">[INTEGER] c&#45;major&#45;device (0..1) </text>
</a>
<a xlink:href="/idmef_parser/IDMEF/Inode.html" xlink:title="The minor device of the file itself, if it is a character special device.">
<polygon fill="#ffcc00" stroke="#ffcc00" points="8,-3 8,-23 240,-23 240,-3 8,-3"/>
<polygon fill="none" stroke="black" points="8,-3 8,-23 240,-23 240,-3 8,-3"/>
<text text-anchor="start" x="11.5" y="-9.73333" font-family="Times Roman,serif" font-size="14.00">[INTEGER] c&#45;minor&#45;device (0..1) </text>
</a>
</g>
</g>
</svg>
