<?xml version="1.0" encoding="UTF-8" standalone="no"?>
<!DOCTYPE svg PUBLIC "-//W3C//DTD SVG 1.1//EN"
 "http://www.w3.org/Graphics/SVG/1.1/DTD/svg11.dtd">
<!-- Generated by graphviz version 2.40.1 (0)
 -->
<!-- Title: Linkage Pages: 1 -->
<svg width="1049pt" height="384pt"
 viewBox="0.00 0.00 1049.00 384.00" xmlns="http://www.w3.org/2000/svg" xmlns:xlink="http://www.w3.org/1999/xlink">
<g id="graph0" class="graph" transform="scale(1 1) rotate(0) translate(4 380)">
<title>Linkage</title>
<polygon fill="#ffffff" stroke="transparent" points="-4,4 -4,-380 1045,-380 1045,4 -4,4"/>
<!-- Linkage -->
<g id="node1" class="node">
<title>Linkage</title>
<g id="a_node1_0"><a xlink:href="/idmef_parser/IDMEF/Linkage.html" xlink:title="The Linkage class represents file system connections between the file described in the &lt;File&gt; element and other objects in the file system. For example, if the &lt;File&gt; element is a symbolic link or shortcut, then the &lt;Linkage&gt; element should contain the name of the object the link points to. Further information can be provided about the object in the &lt;Linkage&gt; element with another &lt;File&gt; element, if appropriate. ">
<polygon fill="#cca300" stroke="transparent" points="8,-209 8,-230 182,-230 182,-209 8,-209"/>
<polygon fill="none" stroke="#000000" points="8,-209 8,-230 182,-230 182,-209 8,-209"/>
<text text-anchor="start" x="71" y="-215.8" font-family="Nimbus Sans L" font-size="14.00" fill="#000000">Linkage</text>
</a>
</g>
<g id="a_node1_1"><a xlink:href="/idmef_parser/IDMEF/Linkage.html" xlink:title="The name of the file system object, not including the path.">
<polygon fill="#ffcc00" stroke="transparent" points="8,-188 8,-209 182,-209 182,-188 8,-188"/>
<polygon fill="none" stroke="#000000" points="8,-188 8,-209 182,-209 182,-188 8,-188"/>
<text text-anchor="start" x="12.5" y="-194.8" font-family="Nimbus Sans L" font-size="14.00" fill="#000000">[STRING] name (Required)</text>
</a>
</g>
<g id="a_node1_2"><a xlink:href="/idmef_parser/IDMEF/Linkage.html" xlink:title="The full path to the file system object, including the name. &#160;The path name should be represented in as &quot;universal&quot; a manner as possible, to facilitate processing of the alert.">
<polygon fill="#ffcc00" stroke="transparent" points="8,-167 8,-188 182,-188 182,-167 8,-167"/>
<polygon fill="none" stroke="#000000" points="8,-167 8,-188 182,-188 182,-167 8,-167"/>
<text text-anchor="start" x="16.5" y="-173.8" font-family="Nimbus Sans L" font-size="14.00" fill="#000000">[STRING] path (Required)</text>
</a>
</g>
<g id="a_node1_3"><a xlink:href="/idmef_parser/IDMEF/Linkage.html" xlink:title="Section 10.)">
<polygon fill="#ffcc00" stroke="transparent" points="8,-146 8,-167 182,-167 182,-146 8,-146"/>
<polygon fill="none" stroke="#000000" points="8,-146 8,-167 182,-167 182,-146 8,-146"/>
<text text-anchor="start" x="11" y="-152.8" font-family="Nimbus Sans L" font-size="14.00" fill="#000000">[ENUM] category (Optional)</text>
</a>
</g>
</g>
<!-- File -->
<g id="node2" class="node">
<title>File</title>
<g id="a_node2_4"><a xlink:href="/idmef_parser/IDMEF/File.html" xlink:title="The File class provides specific information about a file or other file&#45;like object that has been created, deleted, or modified on the target. The description can provide either the file settings prior to the event or the file settings at the time of the event, as specified using the &quot;category&quot; attribute. ">
<polygon fill="#cca300" stroke="transparent" points="257.5,-282 257.5,-303 478.5,-303 478.5,-282 257.5,-282"/>
<polygon fill="none" stroke="#000000" points="257.5,-282 257.5,-303 478.5,-303 478.5,-282 257.5,-282"/>
<text text-anchor="start" x="357" y="-288.8" font-family="Nimbus Sans L" font-size="14.00" fill="#000000">File</text>
</a>
</g>
<g id="a_node2_5"><a xlink:href="/idmef_parser/IDMEF/File.html" xlink:title="The name of the file to which the alert applies, not including the path to the file.">
<polygon fill="#ffcc00" stroke="transparent" points="257.5,-261 257.5,-282 478.5,-282 478.5,-261 257.5,-261"/>
<polygon fill="none" stroke="#000000" points="257.5,-261 257.5,-282 478.5,-282 478.5,-261 257.5,-261"/>
<text text-anchor="start" x="285.5" y="-267.8" font-family="Nimbus Sans L" font-size="14.00" fill="#000000">[STRING] name (Required)</text>
</a>
</g>
<g id="a_node2_6"><a xlink:href="/idmef_parser/IDMEF/File.html" xlink:title="The full path to the file, including the name. &#160;The path name should be represented in as &quot;universal&quot; a manner as possible, to facilitate processing of the alert.">
<polygon fill="#ffcc00" stroke="transparent" points="257.5,-240 257.5,-261 478.5,-261 478.5,-240 257.5,-240"/>
<polygon fill="none" stroke="#000000" points="257.5,-240 257.5,-261 478.5,-261 478.5,-240 257.5,-240"/>
<text text-anchor="start" x="289.5" y="-246.8" font-family="Nimbus Sans L" font-size="14.00" fill="#000000">[STRING] path (Required)</text>
</a>
</g>
<g id="a_node2_7"><a xlink:href="/idmef_parser/IDMEF/File.html" xlink:title="Time the file was created. &#160;Note that this is *not* the Unix &quot;st_ctime&quot; file attribute (which is not file creation time). &#160;The Unix &quot;st_ctime&quot; attribute is contained in the &quot;Inode&quot; class.">
<polygon fill="#ffcc00" stroke="transparent" points="257.5,-219 257.5,-240 478.5,-240 478.5,-219 257.5,-219"/>
<polygon fill="none" stroke="#000000" points="257.5,-219 257.5,-240 478.5,-240 478.5,-219 257.5,-219"/>
<text text-anchor="start" x="262.5" y="-225.8" font-family="Nimbus Sans L" font-size="14.00" fill="#000000">[DATETIME] create&#45;time (Optional)</text>
</a>
</g>
<g id="a_node2_8"><a xlink:href="/idmef_parser/IDMEF/File.html" xlink:title="Time the file was last modified.">
<polygon fill="#ffcc00" stroke="transparent" points="257.5,-198 257.5,-219 478.5,-219 478.5,-198 257.5,-198"/>
<polygon fill="none" stroke="#000000" points="257.5,-198 257.5,-219 478.5,-219 478.5,-198 257.5,-198"/>
<text text-anchor="start" x="261" y="-204.8" font-family="Nimbus Sans L" font-size="14.00" fill="#000000">[DATETIME] modify&#45;time (Optional)</text>
</a>
</g>
<g id="a_node2_9"><a xlink:href="/idmef_parser/IDMEF/File.html" xlink:title="Time the file was last accessed.">
<polygon fill="#ffcc00" stroke="transparent" points="257.5,-177 257.5,-198 478.5,-198 478.5,-177 257.5,-177"/>
<polygon fill="none" stroke="#000000" points="257.5,-177 257.5,-198 478.5,-198 478.5,-177 257.5,-177"/>
<text text-anchor="start" x="260.5" y="-183.8" font-family="Nimbus Sans L" font-size="14.00" fill="#000000">[DATETIME] access&#45;time (Optional)</text>
</a>
</g>
<g id="a_node2_10"><a xlink:href="/idmef_parser/IDMEF/File.html" xlink:title="The size of the data, in bytes. &#160;Typically what is meant when referring to file size. &#160;On Unix UFS file systems, this value corresponds to stat.st_size. &#160;On Windows NTFS, this value corresponds to Valid Data Length (VDL).">
<polygon fill="#ffcc00" stroke="transparent" points="257.5,-156 257.5,-177 478.5,-177 478.5,-156 257.5,-156"/>
<polygon fill="none" stroke="#000000" points="257.5,-156 257.5,-177 478.5,-177 478.5,-156 257.5,-156"/>
<text text-anchor="start" x="272.5" y="-162.8" font-family="Nimbus Sans L" font-size="14.00" fill="#000000">[INTEGER] data&#45;size (Optional)</text>
</a>
</g>
<g id="a_node2_11"><a xlink:href="/idmef_parser/IDMEF/File.html" xlink:title="The physical space on disk consumed by the file, in bytes. &#160;On Unix UFS file systems, this value corresponds to 512 * stat.st_blocks. &#160;On Windows NTFS, this value corresponds to End of File (EOF).">
<polygon fill="#ffcc00" stroke="transparent" points="257.5,-135 257.5,-156 478.5,-156 478.5,-135 257.5,-135"/>
<polygon fill="none" stroke="#000000" points="257.5,-135 257.5,-156 478.5,-156 478.5,-135 257.5,-135"/>
<text text-anchor="start" x="274" y="-141.8" font-family="Nimbus Sans L" font-size="14.00" fill="#000000">[INTEGER] disk&#45;size (Optional)</text>
</a>
</g>
<g id="a_node2_12"><a xlink:href="/idmef_parser/IDMEF/File.html" xlink:title="A unique identifier for this file; see Section 3.2.9.">
<polygon fill="#ffcc00" stroke="transparent" points="257.5,-114 257.5,-135 478.5,-135 478.5,-114 257.5,-114"/>
<polygon fill="none" stroke="#000000" points="257.5,-114 257.5,-135 478.5,-135 478.5,-114 257.5,-114"/>
<text text-anchor="start" x="290" y="-120.8" font-family="Nimbus Sans L" font-size="14.00" fill="#000000">[STRING] ident (Optional)</text>
</a>
</g>
<g id="a_node2_13"><a xlink:href="/idmef_parser/IDMEF/File.html" xlink:title="The type of file system the file resides on. &#160;This attribute governs how path names and other attributes are interpreted.">
<polygon fill="#ffcc00" stroke="transparent" points="257.5,-93 257.5,-114 478.5,-114 478.5,-93 257.5,-93"/>
<polygon fill="none" stroke="#000000" points="257.5,-93 257.5,-114 478.5,-114 478.5,-93 257.5,-93"/>
<text text-anchor="start" x="284" y="-99.8" font-family="Nimbus Sans L" font-size="14.00" fill="#000000">[ENUM] category (Optional)</text>
</a>
</g>
<g id="a_node2_14"><a xlink:href="/idmef_parser/IDMEF/File.html" xlink:title="The type of file, as a mime&#45;type.">
<polygon fill="#ffcc00" stroke="transparent" points="257.5,-72 257.5,-93 478.5,-93 478.5,-72 257.5,-72"/>
<polygon fill="none" stroke="#000000" points="257.5,-72 257.5,-93 478.5,-93 478.5,-72 257.5,-72"/>
<text text-anchor="start" x="281" y="-78.8" font-family="Nimbus Sans L" font-size="14.00" fill="#000000">[STRING] file&#45;type (Optional)</text>
</a>
</g>
</g>
<!-- Linkage&#45;&gt;File -->
<g id="edge6" class="edge">
<title>Linkage&#45;&gt;File</title>
<path fill="none" stroke="#000000" d="M190.3073,-188C205.9405,-188 222.3666,-188 238.6512,-188"/>
<polygon fill="#000000" stroke="#000000" points="238.7641,-191.5001 248.764,-188 238.764,-184.5001 238.7641,-191.5001"/>
<text text-anchor="middle" x="219.5" y="-191.8" font-family="Times,serif" font-size="14.00" fill="#000000">1</text>
</g>
<!-- File&#45;&gt;Linkage -->
<g id="edge3" class="edge">
<title>File&#45;&gt;Linkage</title>
<path fill="none" stroke="#000000" d="M248.6948,-169.5508C234.9853,-168.9185 221.1954,-168.9556 208,-170 205.4441,-170.2023 202.8587,-170.4299 200.2533,-170.6799"/>
<polygon fill="#000000" stroke="#000000" points="199.7025,-167.2184 190.1247,-171.7478 200.4366,-174.1799 199.7025,-167.2184"/>
<text text-anchor="middle" x="219.5" y="-173.8" font-family="Times,serif" font-size="14.00" fill="#000000">0..*</text>
</g>
<!-- FileAccess -->
<g id="node3" class="node">
<title>FileAccess</title>
<g id="a_node3_15"><a xlink:href="/idmef_parser/IDMEF/FileAccess.html" xlink:title="The FileAccess class represents the access permissions on a file. The representation is intended to be useful across operating systems. ">
<polygon fill="#cca300" stroke="transparent" points="572.5,-309 572.5,-330 765.5,-330 765.5,-309 572.5,-309"/>
<polygon fill="none" stroke="#000000" points="572.5,-309 572.5,-330 765.5,-330 765.5,-309 572.5,-309"/>
<text text-anchor="start" x="636" y="-315.8" font-family="Nimbus Sans L" font-size="14.00" fill="#000000">FileAccess</text>
</a>
</g>
<g id="a_node3_16"><a xlink:href="/idmef_parser/IDMEF/FileAccess.html" xlink:title="Level of access allowed. &#160;The permitted values are shown below. &#160;There is no default value. &#160;(See also Section 10.)">
<polygon fill="#ffcc00" stroke="transparent" points="572.5,-288 572.5,-309 765.5,-309 765.5,-288 572.5,-288"/>
<polygon fill="none" stroke="#000000" points="572.5,-288 572.5,-309 765.5,-309 765.5,-288 572.5,-288"/>
<text text-anchor="start" x="575.5" y="-294.8" font-family="Nimbus Sans L" font-size="14.00" fill="#000000">[ENUM] Permission (Required)</text>
</a>
</g>
</g>
<!-- File&#45;&gt;FileAccess -->
<g id="edge2" class="edge">
<title>File&#45;&gt;FileAccess</title>
<path fill="none" stroke="#000000" d="M486.4582,-250.0729C505.7651,-259.0491 525.7448,-267.7041 545,-275 550.199,-276.9699 555.5603,-278.8793 561.0027,-280.7213"/>
<polygon fill="#000000" stroke="#000000" points="560.2762,-284.1666 570.869,-283.9624 562.4609,-277.5162 560.2762,-284.1666"/>
<text text-anchor="middle" x="515.5" y="-270.8" font-family="Times,serif" font-size="14.00" fill="#000000">0..*</text>
</g>
<!-- Inode -->
<g id="node5" class="node">
<title>Inode</title>
<g id="a_node5_17"><a xlink:href="/idmef_parser/IDMEF/Inode.html" xlink:title="The Inode class is used to represent the additional information contained in a Unix file system i&#45;node. ">
<polygon fill="#cca300" stroke="transparent" points="553.5,-240 553.5,-261 784.5,-261 784.5,-240 553.5,-240"/>
<polygon fill="none" stroke="#000000" points="553.5,-240 553.5,-261 784.5,-261 784.5,-240 553.5,-240"/>
<text text-anchor="start" x="652" y="-246.8" font-family="Nimbus Sans L" font-size="14.00" fill="#000000">Inode</text>
</a>
</g>
<g id="a_node5_18"><a xlink:href="/idmef_parser/IDMEF/Inode.html" xlink:title="The time of the last inode change, given by the st_ctime element of &quot;struct stat&quot;.">
<polygon fill="#ffcc00" stroke="transparent" points="553.5,-219 553.5,-240 784.5,-240 784.5,-219 553.5,-219"/>
<polygon fill="none" stroke="#000000" points="553.5,-219 553.5,-240 784.5,-240 784.5,-219 553.5,-219"/>
<text text-anchor="start" x="560.5" y="-225.8" font-family="Nimbus Sans L" font-size="14.00" fill="#000000">[DATETIME] change&#45;time (Optional)</text>
</a>
</g>
<g id="a_node5_19"><a xlink:href="/idmef_parser/IDMEF/Inode.html" xlink:title="The inode number.">
<polygon fill="#ffcc00" stroke="transparent" points="553.5,-198 553.5,-219 784.5,-219 784.5,-198 553.5,-198"/>
<polygon fill="none" stroke="#000000" points="553.5,-198 553.5,-219 784.5,-219 784.5,-198 553.5,-198"/>
<text text-anchor="start" x="577.5" y="-204.8" font-family="Nimbus Sans L" font-size="14.00" fill="#000000">[INTEGER] number (Optional)</text>
</a>
</g>
<g id="a_node5_20"><a xlink:href="/idmef_parser/IDMEF/Inode.html" xlink:title="The major device number of the device the file resides on.">
<polygon fill="#ffcc00" stroke="transparent" points="553.5,-177 553.5,-198 784.5,-198 784.5,-177 553.5,-177"/>
<polygon fill="none" stroke="#000000" points="553.5,-177 553.5,-198 784.5,-198 784.5,-177 553.5,-177"/>
<text text-anchor="start" x="562" y="-183.8" font-family="Nimbus Sans L" font-size="14.00" fill="#000000">[INTEGER] major&#45;device (Optional)</text>
</a>
</g>
<g id="a_node5_21"><a xlink:href="/idmef_parser/IDMEF/Inode.html" xlink:title="The minor device number of the device the file resides on.">
<polygon fill="#ffcc00" stroke="transparent" points="553.5,-156 553.5,-177 784.5,-177 784.5,-156 553.5,-156"/>
<polygon fill="none" stroke="#000000" points="553.5,-156 553.5,-177 784.5,-177 784.5,-156 553.5,-156"/>
<text text-anchor="start" x="562" y="-162.8" font-family="Nimbus Sans L" font-size="14.00" fill="#000000">[INTEGER] minor&#45;device (Optional)</text>
</a>
</g>
<g id="a_node5_22"><a xlink:href="/idmef_parser/IDMEF/Inode.html" xlink:title="The major device of the file itself, if it is a character special device.">
<polygon fill="#ffcc00" stroke="transparent" points="553.5,-135 553.5,-156 784.5,-156 784.5,-135 553.5,-135"/>
<polygon fill="none" stroke="#000000" points="553.5,-135 553.5,-156 784.5,-156 784.5,-135 553.5,-135"/>
<text text-anchor="start" x="556.5" y="-141.8" font-family="Nimbus Sans L" font-size="14.00" fill="#000000">[INTEGER] c&#45;major&#45;device (Optional)</text>
</a>
</g>
<g id="a_node5_23"><a xlink:href="/idmef_parser/IDMEF/Inode.html" xlink:title="The minor device of the file itself, if it is a character special device.">
<polygon fill="#ffcc00" stroke="transparent" points="553.5,-114 553.5,-135 784.5,-135 784.5,-114 553.5,-114"/>
<polygon fill="none" stroke="#000000" points="553.5,-114 553.5,-135 784.5,-135 784.5,-114 553.5,-114"/>
<text text-anchor="start" x="556.5" y="-120.8" font-family="Nimbus Sans L" font-size="14.00" fill="#000000">[INTEGER] c&#45;minor&#45;device (Optional)</text>
</a>
</g>
</g>
<!-- File&#45;&gt;Inode -->
<g id="edge4" class="edge">
<title>File&#45;&gt;Inode</title>
<path fill="none" stroke="#000000" d="M486.0311,-188C501.971,-188 518.4124,-188 534.5948,-188"/>
<polygon fill="#000000" stroke="#000000" points="534.6304,-191.5001 544.6303,-188 534.6303,-184.5001 534.6304,-191.5001"/>
<text text-anchor="middle" x="515.5" y="-191.8" font-family="Times,serif" font-size="14.00" fill="#000000">0..1</text>
</g>
<!-- Checksum -->
<g id="node6" class="node">
<title>Checksum</title>
<g id="a_node6_24"><a xlink:href="/idmef_parser/IDMEF/Checksum.html" xlink:title="The Checksum class represents checksum information associated with the file. This checksum information can be provided by file integrity checkers, among others. ">
<polygon fill="#cca300" stroke="transparent" points="577.5,-67 577.5,-88 759.5,-88 759.5,-67 577.5,-67"/>
<polygon fill="none" stroke="#000000" points="577.5,-67 577.5,-88 759.5,-88 759.5,-67 577.5,-67"/>
<text text-anchor="start" x="636" y="-73.8" font-family="Nimbus Sans L" font-size="14.00" fill="#000000">Checksum</text>
</a>
</g>
<g id="a_node6_25"><a xlink:href="/idmef_parser/IDMEF/Checksum.html" xlink:title="The value of the checksum.">
<polygon fill="#ffcc00" stroke="transparent" points="577.5,-46 577.5,-67 759.5,-67 759.5,-46 577.5,-46"/>
<polygon fill="none" stroke="#000000" points="577.5,-46 577.5,-67 759.5,-67 759.5,-46 577.5,-46"/>
<text text-anchor="start" x="587" y="-52.8" font-family="Nimbus Sans L" font-size="14.00" fill="#000000">[STRING] value (Required)</text>
</a>
</g>
<g id="a_node6_26"><a xlink:href="/idmef_parser/IDMEF/Checksum.html" xlink:title="The key to the checksum, if appropriate.">
<polygon fill="#ffcc00" stroke="transparent" points="577.5,-25 577.5,-46 759.5,-46 759.5,-25 577.5,-25"/>
<polygon fill="none" stroke="#000000" points="577.5,-25 577.5,-46 759.5,-46 759.5,-25 577.5,-25"/>
<text text-anchor="start" x="594.5" y="-31.8" font-family="Nimbus Sans L" font-size="14.00" fill="#000000">[STRING] key (Optional)</text>
</a>
</g>
<g id="a_node6_27"><a xlink:href="/idmef_parser/IDMEF/Checksum.html" xlink:title="default value. &#160;(See also Section 10.)">
<polygon fill="#ffcc00" stroke="transparent" points="577.5,-4 577.5,-25 759.5,-25 759.5,-4 577.5,-4"/>
<polygon fill="none" stroke="#000000" points="577.5,-4 577.5,-25 759.5,-25 759.5,-4 577.5,-4"/>
<text text-anchor="start" x="580.5" y="-10.8" font-family="Nimbus Sans L" font-size="14.00" fill="#000000">[ENUM] algorithm (Required)</text>
</a>
</g>
</g>
<!-- File&#45;&gt;Checksum -->
<g id="edge5" class="edge">
<title>File&#45;&gt;Checksum</title>
<path fill="none" stroke="#000000" d="M486.0805,-129.1309C505.7036,-119.6044 525.8807,-109.9392 545,-101 549.9168,-98.7011 554.9531,-96.3688 560.0471,-94.0278"/>
<polygon fill="#000000" stroke="#000000" points="561.6282,-97.1534 569.2654,-89.81 558.7158,-90.788 561.6282,-97.1534"/>
<text text-anchor="middle" x="515.5" y="-123.8" font-family="Times,serif" font-size="14.00" fill="#000000">0..*</text>
</g>
<!-- UserId -->
<g id="node4" class="node">
<title>UserId</title>
<g id="a_node4_28"><a xlink:href="/idmef_parser/IDMEF/UserId.html" xlink:title="The UserId class provides specific information about a user. More than one UserId can be used within the User class to indicate attempts to transition from one user to another, or to provide complete information about a user&#39;s (or process&#39;) privileges. ">
<polygon fill="#52a3cc" stroke="transparent" points="844.5,-351 844.5,-372 1033.5,-372 1033.5,-351 844.5,-351"/>
<polygon fill="none" stroke="#000000" points="844.5,-351 844.5,-372 1033.5,-372 1033.5,-351 844.5,-351"/>
<text text-anchor="start" x="919" y="-357.8" font-family="Nimbus Sans L" font-size="14.00" fill="#000000">UserId</text>
</a>
</g>
<g id="a_node4_29"><a xlink:href="/idmef_parser/IDMEF/UserId.html" xlink:title="A user or group name.">
<polygon fill="#66ccff" stroke="transparent" points="844.5,-330 844.5,-351 1033.5,-351 1033.5,-330 844.5,-330"/>
<polygon fill="none" stroke="#000000" points="844.5,-330 844.5,-351 1033.5,-351 1033.5,-330 844.5,-330"/>
<text text-anchor="start" x="858.5" y="-336.8" font-family="Nimbus Sans L" font-size="14.00" fill="#000000">[STRING] name (Optional)</text>
</a>
</g>
<g id="a_node4_30"><a xlink:href="/idmef_parser/IDMEF/UserId.html" xlink:title="A user or group number.">
<polygon fill="#66ccff" stroke="transparent" points="844.5,-309 844.5,-330 1033.5,-330 1033.5,-309 844.5,-309"/>
<polygon fill="none" stroke="#000000" points="844.5,-309 844.5,-330 1033.5,-330 1033.5,-309 844.5,-309"/>
<text text-anchor="start" x="847.5" y="-315.8" font-family="Nimbus Sans L" font-size="14.00" fill="#000000">[INTEGER] number (Optional)</text>
</a>
</g>
<g id="a_node4_31"><a xlink:href="/idmef_parser/IDMEF/UserId.html" xlink:title="A unique identifier for the user id, see Section 3.2.9.">
<polygon fill="#66ccff" stroke="transparent" points="844.5,-288 844.5,-309 1033.5,-309 1033.5,-288 844.5,-288"/>
<polygon fill="none" stroke="#000000" points="844.5,-288 844.5,-309 1033.5,-309 1033.5,-288 844.5,-288"/>
<text text-anchor="start" x="861" y="-294.8" font-family="Nimbus Sans L" font-size="14.00" fill="#000000">[STRING] ident (Optional)</text>
</a>
</g>
<g id="a_node4_32"><a xlink:href="/idmef_parser/IDMEF/UserId.html" xlink:title="The type of user information represented. &#160;The permitted values for this attribute are shown below. &#160;The default value is &quot;original&#45;user&quot;. &#160;(See also Section 10.)">
<polygon fill="#66ccff" stroke="transparent" points="844.5,-267 844.5,-288 1033.5,-288 1033.5,-267 844.5,-267"/>
<polygon fill="none" stroke="#000000" points="844.5,-267 844.5,-288 1033.5,-288 1033.5,-267 844.5,-267"/>
<text text-anchor="start" x="868" y="-273.8" font-family="Nimbus Sans L" font-size="14.00" fill="#000000">[ENUM] type (Optional)</text>
</a>
</g>
<g id="a_node4_33"><a xlink:href="/idmef_parser/IDMEF/UserId.html" xlink:title="The tty the user is using.">
<polygon fill="#66ccff" stroke="transparent" points="844.5,-246 844.5,-267 1033.5,-267 1033.5,-246 844.5,-246"/>
<polygon fill="none" stroke="#000000" points="844.5,-246 844.5,-267 1033.5,-267 1033.5,-246 844.5,-246"/>
<text text-anchor="start" x="868.5" y="-252.8" font-family="Nimbus Sans L" font-size="14.00" fill="#000000">[STRING] tty (Optional)</text>
</a>
</g>
</g>
<!-- FileAccess&#45;&gt;UserId -->
<g id="edge1" class="edge">
<title>FileAccess&#45;&gt;UserId</title>
<path fill="none" stroke="#000000" d="M773.2755,-309C790.3755,-309 808.1575,-309 825.4461,-309"/>
<polygon fill="#000000" stroke="#000000" points="825.5595,-312.5001 835.5595,-309 825.5595,-305.5001 825.5595,-312.5001"/>
<text text-anchor="middle" x="814" y="-312.8" font-family="Times,serif" font-size="14.00" fill="#000000">1</text>
</g>
</g>
</svg>
