<?xml version="1.0" encoding="UTF-8" standalone="no"?>
<!DOCTYPE svg PUBLIC "-//W3C//DTD SVG 1.1//EN"
 "http://www.w3.org/Graphics/SVG/1.1/DTD/svg11.dtd">
<!-- Generated by graphviz version 2.38.0 (20140413.2041)
 -->
<!-- Title: Node Pages: 1 -->
<svg width="461pt" height="163pt"
 viewBox="0.00 0.00 461.00 163.00" xmlns="http://www.w3.org/2000/svg" xmlns:xlink="http://www.w3.org/1999/xlink">
<g id="graph0" class="graph" transform="scale(1 1) rotate(0) translate(4 159)">
<title>Node</title>
<polygon fill="white" stroke="none" points="-4,4 -4,-159 457,-159 457,4 -4,4"/>
<!-- Node -->
<g id="node1" class="node"><title>Node</title>
<g id="a_node1_0"><a xlink:href="/idmef_parser/IDMEF/Node.html" xlink:title="The Node class is used to identify hosts and other network devices (routers, switches, etc.). ">
<polygon fill="#007a00" stroke="none" points="8,-108.5 8,-129.5 178,-129.5 178,-108.5 8,-108.5"/>
<polygon fill="none" stroke="black" points="8,-108.5 8,-129.5 178,-129.5 178,-108.5 8,-108.5"/>
<text text-anchor="start" x="78" y="-115.3" font-family="Times,serif" font-size="14.00">Node</text>
</a>
</g>
<g id="a_node1_1"><a xlink:href="/idmef_parser/IDMEF/Node.html" xlink:title="The location of the equipment.">
<polygon fill="#00cc00" stroke="none" points="8,-87.5 8,-108.5 178,-108.5 178,-87.5 8,-87.5"/>
<polygon fill="none" stroke="black" points="8,-87.5 8,-108.5 178,-108.5 178,-87.5 8,-87.5"/>
<text text-anchor="start" x="21.5" y="-94.3" font-family="Times,serif" font-size="14.00">[STRING] location (0..1) </text>
</a>
</g>
<g id="a_node1_2"><a xlink:href="/idmef_parser/IDMEF/Node.html" xlink:title="The name of the equipment. &#160;This information MUST be provided if no Address information is given.">
<polygon fill="#00cc00" stroke="none" points="8,-66.5 8,-87.5 178,-87.5 178,-66.5 8,-66.5"/>
<polygon fill="none" stroke="black" points="8,-66.5 8,-87.5 178,-87.5 178,-66.5 8,-66.5"/>
<text text-anchor="start" x="28" y="-73.3" font-family="Times,serif" font-size="14.00">[STRING] name (0..1) </text>
</a>
</g>
<g id="a_node1_3"><a xlink:href="/idmef_parser/IDMEF/Node.html" xlink:title="A unique identifier for the node; see Section 3.2.9.">
<polygon fill="#00cc00" stroke="none" points="8,-45.5 8,-66.5 178,-66.5 178,-45.5 8,-45.5"/>
<polygon fill="none" stroke="black" points="8,-45.5 8,-66.5 178,-66.5 178,-45.5 8,-45.5"/>
<text text-anchor="start" x="16.5" y="-52.3" font-family="Times,serif" font-size="14.00">[STRING] ident (Optional) </text>
</a>
</g>
<g id="a_node1_4"><a xlink:href="/idmef_parser/IDMEF/Node.html" xlink:title="The &quot;domain&quot; from which the name information was obtained, if relevant. &#160;The permitted values for this attribute are shown in the table below. &#160;The default value is &quot;unknown&quot;. (See also Section 10 for extensions to the table.)">
<polygon fill="#00cc00" stroke="none" points="8,-24.5 8,-45.5 178,-45.5 178,-24.5 8,-24.5"/>
<polygon fill="none" stroke="black" points="8,-24.5 8,-45.5 178,-45.5 178,-24.5 8,-24.5"/>
<text text-anchor="start" x="11" y="-31.3" font-family="Times,serif" font-size="14.00">[ENUM] category (Optional) </text>
</a>
</g>
</g>
<!-- Address -->
<g id="node2" class="node"><title>Address</title>
<g id="a_node2_5"><a xlink:href="/idmef_parser/IDMEF/Address.html" xlink:title="The Address class is used to represent network, hardware, and application addresses. ">
<polygon fill="#007a00" stroke="none" points="252.5,-129.5 252.5,-150.5 445.5,-150.5 445.5,-129.5 252.5,-129.5"/>
<polygon fill="none" stroke="black" points="252.5,-129.5 252.5,-150.5 445.5,-150.5 445.5,-129.5 252.5,-129.5"/>
<text text-anchor="start" x="326.5" y="-136.3" font-family="Times,serif" font-size="14.00">Address</text>
</a>
</g>
<g id="a_node2_6"><a xlink:href="/idmef_parser/IDMEF/Address.html" xlink:title="The address information. &#160;The format of this data is governed by the category attribute.">
<polygon fill="#00cc00" stroke="none" points="252.5,-108.5 252.5,-129.5 445.5,-129.5 445.5,-108.5 252.5,-108.5"/>
<polygon fill="none" stroke="black" points="252.5,-108.5 252.5,-129.5 445.5,-129.5 445.5,-108.5 252.5,-108.5"/>
<text text-anchor="start" x="286" y="-115.3" font-family="Times,serif" font-size="14.00">[STRING] address (1) </text>
</a>
</g>
<g id="a_node2_7"><a xlink:href="/idmef_parser/IDMEF/Address.html" xlink:title="The network mask for the address, if appropriate.">
<polygon fill="#00cc00" stroke="none" points="252.5,-87.5 252.5,-108.5 445.5,-108.5 445.5,-87.5 252.5,-87.5"/>
<polygon fill="none" stroke="black" points="252.5,-87.5 252.5,-108.5 445.5,-108.5 445.5,-87.5 252.5,-87.5"/>
<text text-anchor="start" x="276.5" y="-94.3" font-family="Times,serif" font-size="14.00">[STRING] netmask (0..1) </text>
</a>
</g>
<g id="a_node2_8"><a xlink:href="/idmef_parser/IDMEF/Address.html" xlink:title="A unique identifier for the address; see Section 3.2.9.">
<polygon fill="#00cc00" stroke="none" points="252.5,-66.5 252.5,-87.5 445.5,-87.5 445.5,-66.5 252.5,-66.5"/>
<polygon fill="none" stroke="black" points="252.5,-66.5 252.5,-87.5 445.5,-87.5 445.5,-66.5 252.5,-66.5"/>
<text text-anchor="start" x="272.5" y="-73.3" font-family="Times,serif" font-size="14.00">[STRING] ident (Optional) </text>
</a>
</g>
<g id="a_node2_9"><a xlink:href="/idmef_parser/IDMEF/Address.html" xlink:title="The type of address represented. &#160;The permitted values for this attribute are shown below. &#160;The default value is &quot;unknown&quot;. &#160;(See also Section 10.)">
<polygon fill="#00cc00" stroke="none" points="252.5,-45.5 252.5,-66.5 445.5,-66.5 445.5,-45.5 252.5,-45.5"/>
<polygon fill="none" stroke="black" points="252.5,-45.5 252.5,-66.5 445.5,-66.5 445.5,-45.5 252.5,-45.5"/>
<text text-anchor="start" x="267" y="-52.3" font-family="Times,serif" font-size="14.00">[ENUM] category (Optional) </text>
</a>
</g>
<g id="a_node2_10"><a xlink:href="/idmef_parser/IDMEF/Address.html" xlink:title="The name of the Virtual LAN to which the address belongs.">
<polygon fill="#00cc00" stroke="none" points="252.5,-24.5 252.5,-45.5 445.5,-45.5 445.5,-24.5 252.5,-24.5"/>
<polygon fill="none" stroke="black" points="252.5,-24.5 252.5,-45.5 445.5,-45.5 445.5,-24.5 252.5,-24.5"/>
<text text-anchor="start" x="257" y="-31.3" font-family="Times,serif" font-size="14.00">[STRING] vlan&#45;name (Optional) </text>
</a>
</g>
<g id="a_node2_11"><a xlink:href="/idmef_parser/IDMEF/Address.html" xlink:title="The number of the Virtual LAN to which the address belongs.">
<polygon fill="#00cc00" stroke="none" points="252.5,-3.5 252.5,-24.5 445.5,-24.5 445.5,-3.5 252.5,-3.5"/>
<polygon fill="none" stroke="black" points="252.5,-3.5 252.5,-24.5 445.5,-24.5 445.5,-3.5 252.5,-3.5"/>
<text text-anchor="start" x="255.5" y="-10.3" font-family="Times,serif" font-size="14.00">[INTEGER] vlan&#45;num (Optional) </text>
</a>
</g>
</g>
<!-- Node&#45;&gt;Address -->
<g id="edge1" class="edge"><title>Node&#45;&gt;Address</title>
<path fill="none" stroke="black" d="M186.236,-77.5C201.565,-77.5 217.623,-77.5 233.416,-77.5"/>
<polygon fill="black" stroke="black" points="233.746,-81.0001 243.746,-77.5 233.746,-74.0001 233.746,-81.0001"/>
<text text-anchor="middle" x="215" y="-81.3" font-family="Times,serif" font-size="14.00">0..*</text>
</g>
</g>
</svg>
