<?xml version="1.0" encoding="UTF-8" standalone="no"?>
<!DOCTYPE svg PUBLIC "-//W3C//DTD SVG 1.1//EN"
 "http://www.w3.org/Graphics/SVG/1.1/DTD/svg11.dtd">
<!-- Generated by graphviz version 2.40.1 (0)
 -->
<!-- Title: Node Pages: 1 -->
<svg width="477pt" height="163pt"
 viewBox="0.00 0.00 477.00 163.00" xmlns="http://www.w3.org/2000/svg" xmlns:xlink="http://www.w3.org/1999/xlink">
<g id="graph0" class="graph" transform="scale(1 1) rotate(0) translate(4 159)">
<title>Node</title>
<polygon fill="#ffffff" stroke="transparent" points="-4,4 -4,-159 473,-159 473,4 -4,4"/>
<!-- Node -->
<g id="node1" class="node">
<title>Node</title>
<g id="a_node1_0"><a xlink:href="/idmef_parser/IDMEF/Node.html" xlink:title="The Node class is used to identify hosts and other network devices (routers, switches, etc.). ">
<polygon fill="#3daf3d" stroke="transparent" points="8.5,-108.5 8.5,-129.5 187.5,-129.5 187.5,-108.5 8.5,-108.5"/>
<polygon fill="none" stroke="#000000" points="8.5,-108.5 8.5,-129.5 187.5,-129.5 187.5,-108.5 8.5,-108.5"/>
<text text-anchor="start" x="81.5" y="-115.3" font-family="Nimbus Sans L" font-size="14.00" fill="#000000">Node</text>
</a>
</g>
<g id="a_node1_1"><a xlink:href="/idmef_parser/IDMEF/Node.html" xlink:title="The location of the equipment.">
<polygon fill="#4cdb4c" stroke="transparent" points="8.5,-87.5 8.5,-108.5 187.5,-108.5 187.5,-87.5 8.5,-87.5"/>
<polygon fill="none" stroke="#000000" points="8.5,-87.5 8.5,-108.5 187.5,-108.5 187.5,-87.5 8.5,-87.5"/>
<text text-anchor="start" x="11.5" y="-94.3" font-family="Nimbus Sans L" font-size="14.00" fill="#000000">[STRING] location (Optional)</text>
</a>
</g>
<g id="a_node1_2"><a xlink:href="/idmef_parser/IDMEF/Node.html" xlink:title="The name of the equipment. &#160;This information MUST be provided if no Address information is given.">
<polygon fill="#4cdb4c" stroke="transparent" points="8.5,-66.5 8.5,-87.5 187.5,-87.5 187.5,-66.5 8.5,-66.5"/>
<polygon fill="none" stroke="#000000" points="8.5,-66.5 8.5,-87.5 187.5,-87.5 187.5,-66.5 8.5,-66.5"/>
<text text-anchor="start" x="17.5" y="-73.3" font-family="Nimbus Sans L" font-size="14.00" fill="#000000">[STRING] name (Optional)</text>
</a>
</g>
<g id="a_node1_3"><a xlink:href="/idmef_parser/IDMEF/Node.html" xlink:title="A unique identifier for the node; see Section 3.2.9.">
<polygon fill="#4cdb4c" stroke="transparent" points="8.5,-45.5 8.5,-66.5 187.5,-66.5 187.5,-45.5 8.5,-45.5"/>
<polygon fill="none" stroke="#000000" points="8.5,-45.5 8.5,-66.5 187.5,-66.5 187.5,-45.5 8.5,-45.5"/>
<text text-anchor="start" x="20" y="-52.3" font-family="Nimbus Sans L" font-size="14.00" fill="#000000">[STRING] ident (Optional)</text>
</a>
</g>
<g id="a_node1_4"><a xlink:href="/idmef_parser/IDMEF/Node.html" xlink:title="The &quot;domain&quot; from which the name information was obtained, if relevant. &#160;The permitted values for this attribute are shown in the table below. &#160;The default value is &quot;unknown&quot;. (See also Section 10 for extensions to the table.)">
<polygon fill="#4cdb4c" stroke="transparent" points="8.5,-24.5 8.5,-45.5 187.5,-45.5 187.5,-24.5 8.5,-24.5"/>
<polygon fill="none" stroke="#000000" points="8.5,-24.5 8.5,-45.5 187.5,-45.5 187.5,-24.5 8.5,-24.5"/>
<text text-anchor="start" x="14" y="-31.3" font-family="Nimbus Sans L" font-size="14.00" fill="#000000">[ENUM] category (Optional)</text>
</a>
</g>
</g>
<!-- Address -->
<g id="node2" class="node">
<title>Address</title>
<g id="a_node2_5"><a xlink:href="/idmef_parser/IDMEF/Address.html" xlink:title="The Address class is used to represent network, hardware, and application addresses. ">
<polygon fill="#3daf3d" stroke="transparent" points="262.5,-129.5 262.5,-150.5 461.5,-150.5 461.5,-129.5 262.5,-129.5"/>
<polygon fill="none" stroke="#000000" points="262.5,-129.5 262.5,-150.5 461.5,-150.5 461.5,-129.5 262.5,-129.5"/>
<text text-anchor="start" x="337" y="-136.3" font-family="Nimbus Sans L" font-size="14.00" fill="#000000">Address</text>
</a>
</g>
<g id="a_node2_6"><a xlink:href="/idmef_parser/IDMEF/Address.html" xlink:title="The address information. &#160;The format of this data is governed by the category attribute.">
<polygon fill="#4cdb4c" stroke="transparent" points="262.5,-108.5 262.5,-129.5 461.5,-129.5 461.5,-108.5 262.5,-108.5"/>
<polygon fill="none" stroke="#000000" points="262.5,-108.5 262.5,-129.5 461.5,-129.5 461.5,-108.5 262.5,-108.5"/>
<text text-anchor="start" x="273" y="-115.3" font-family="Nimbus Sans L" font-size="14.00" fill="#000000">[STRING] address (Required)</text>
</a>
</g>
<g id="a_node2_7"><a xlink:href="/idmef_parser/IDMEF/Address.html" xlink:title="The network mask for the address, if appropriate.">
<polygon fill="#4cdb4c" stroke="transparent" points="262.5,-87.5 262.5,-108.5 461.5,-108.5 461.5,-87.5 262.5,-87.5"/>
<polygon fill="none" stroke="#000000" points="262.5,-87.5 262.5,-108.5 461.5,-108.5 461.5,-87.5 262.5,-87.5"/>
<text text-anchor="start" x="273" y="-94.3" font-family="Nimbus Sans L" font-size="14.00" fill="#000000">[STRING] netmask (Optional)</text>
</a>
</g>
<g id="a_node2_8"><a xlink:href="/idmef_parser/IDMEF/Address.html" xlink:title="A unique identifier for the address; see Section 3.2.9.">
<polygon fill="#4cdb4c" stroke="transparent" points="262.5,-66.5 262.5,-87.5 461.5,-87.5 461.5,-66.5 262.5,-66.5"/>
<polygon fill="none" stroke="#000000" points="262.5,-66.5 262.5,-87.5 461.5,-87.5 461.5,-66.5 262.5,-66.5"/>
<text text-anchor="start" x="284" y="-73.3" font-family="Nimbus Sans L" font-size="14.00" fill="#000000">[STRING] ident (Optional)</text>
</a>
</g>
<g id="a_node2_9"><a xlink:href="/idmef_parser/IDMEF/Address.html" xlink:title="The type of address represented. &#160;The permitted values for this attribute are shown below. &#160;The default value is &quot;unknown&quot;. &#160;(See also Section 10.)">
<polygon fill="#4cdb4c" stroke="transparent" points="262.5,-45.5 262.5,-66.5 461.5,-66.5 461.5,-45.5 262.5,-45.5"/>
<polygon fill="none" stroke="#000000" points="262.5,-45.5 262.5,-66.5 461.5,-66.5 461.5,-45.5 262.5,-45.5"/>
<text text-anchor="start" x="278" y="-52.3" font-family="Nimbus Sans L" font-size="14.00" fill="#000000">[ENUM] category (Optional)</text>
</a>
</g>
<g id="a_node2_10"><a xlink:href="/idmef_parser/IDMEF/Address.html" xlink:title="The name of the Virtual LAN to which the address belongs.">
<polygon fill="#4cdb4c" stroke="transparent" points="262.5,-24.5 262.5,-45.5 461.5,-45.5 461.5,-24.5 262.5,-24.5"/>
<polygon fill="none" stroke="#000000" points="262.5,-24.5 262.5,-45.5 461.5,-45.5 461.5,-24.5 262.5,-24.5"/>
<text text-anchor="start" x="267" y="-31.3" font-family="Nimbus Sans L" font-size="14.00" fill="#000000">[STRING] vlan&#45;name (Optional)</text>
</a>
</g>
<g id="a_node2_11"><a xlink:href="/idmef_parser/IDMEF/Address.html" xlink:title="The number of the Virtual LAN to which the address belongs.">
<polygon fill="#4cdb4c" stroke="transparent" points="262.5,-3.5 262.5,-24.5 461.5,-24.5 461.5,-3.5 262.5,-3.5"/>
<polygon fill="none" stroke="#000000" points="262.5,-3.5 262.5,-24.5 461.5,-24.5 461.5,-3.5 262.5,-3.5"/>
<text text-anchor="start" x="265.5" y="-10.3" font-family="Nimbus Sans L" font-size="14.00" fill="#000000">[INTEGER] vlan&#45;num (Optional)</text>
</a>
</g>
</g>
<!-- Node&#45;&gt;Address -->
<g id="edge1" class="edge">
<title>Node&#45;&gt;Address</title>
<path fill="none" stroke="#000000" d="M195.0538,-77.5C210.8666,-77.5 227.3885,-77.5 243.6222,-77.5"/>
<polygon fill="#000000" stroke="#000000" points="243.6838,-81.0001 253.6838,-77.5 243.6838,-74.0001 243.6838,-81.0001"/>
<text text-anchor="middle" x="224.5" y="-81.3" font-family="Times,serif" font-size="14.00" fill="#000000">0..*</text>
</g>
</g>
</svg>
