<?xml version="1.0" encoding="UTF-8" standalone="no"?>
<!DOCTYPE svg PUBLIC "-//W3C//DTD SVG 1.1//EN"
 "http://www.w3.org/Graphics/SVG/1.1/DTD/svg11.dtd">
<!-- Generated by graphviz version 2.38.0 (20140413.2041)
 -->
<!-- Title: OverflowAlert Pages: 1 -->
<svg width="162pt" height="100pt"
 viewBox="0.00 0.00 162.00 100.00" xmlns="http://www.w3.org/2000/svg" xmlns:xlink="http://www.w3.org/1999/xlink">
<g id="graph0" class="graph" transform="scale(1 1) rotate(0) translate(4 96)">
<title>OverflowAlert</title>
<polygon fill="white" stroke="none" points="-4,4 -4,-96 158,-96 158,4 -4,4"/>
<!-- OverflowAlert -->
<g id="node1" class="node"><title>OverflowAlert</title>
<g id="a_node1_0"><a xlink:href="/idmef_parser/IDMEF/OverflowAlert.html" xlink:title="The OverflowAlert carries additional information related to buffer overflow attacks. It is intended to enable an analyzer to provide the details of the overflow attack itself. ">
<polygon fill="#737373" stroke="none" points="8,-67 8,-88 146,-88 146,-67 8,-67"/>
<polygon fill="none" stroke="black" points="8,-67 8,-88 146,-88 146,-67 8,-67"/>
<text text-anchor="start" x="37" y="-73.8" font-family="Times,serif" font-size="14.00">OverflowAlert</text>
</a>
</g>
<g id="a_node1_1"><a xlink:href="/idmef_parser/IDMEF/OverflowAlert.html" xlink:title="The program that the overflow attack attempted to run (NOTE: this is not the program that was attacked).">
<polygon fill="#bfbfbf" stroke="none" points="8,-46 8,-67 146,-67 146,-46 8,-46"/>
<polygon fill="none" stroke="black" points="8,-46 8,-67 146,-67 146,-46 8,-46"/>
<text text-anchor="start" x="11" y="-52.8" font-family="Times,serif" font-size="14.00">[STRING] program (1) </text>
</a>
</g>
<g id="a_node1_2"><a xlink:href="/idmef_parser/IDMEF/OverflowAlert.html" xlink:title="The size, in bytes, of the overflow (i.e., the number of bytes the attacker sent).">
<polygon fill="#bfbfbf" stroke="none" points="8,-25 8,-46 146,-46 146,-25 8,-25"/>
<polygon fill="none" stroke="black" points="8,-25 8,-46 146,-46 146,-25 8,-25"/>
<text text-anchor="start" x="12" y="-31.8" font-family="Times,serif" font-size="14.00">[INTEGER] size (0..1) </text>
</a>
</g>
<g id="a_node1_3"><a xlink:href="/idmef_parser/IDMEF/OverflowAlert.html" xlink:title="Some or all of the overflow data itself (dependent on how much the analyzer can capture).">
<polygon fill="#bfbfbf" stroke="none" points="8,-4 8,-25 146,-25 146,-4 8,-4"/>
<polygon fill="none" stroke="black" points="8,-4 8,-25 146,-25 146,-4 8,-4"/>
<text text-anchor="start" x="13" y="-10.8" font-family="Times,serif" font-size="14.00">[BYTE[]] buffer (0..1) </text>
</a>
</g>
</g>
</g>
</svg>
