<?xml version="1.0" encoding="UTF-8" standalone="no"?>
<!DOCTYPE svg PUBLIC "-//W3C//DTD SVG 1.1//EN"
 "http://www.w3.org/Graphics/SVG/1.1/DTD/svg11.dtd">
<!-- Generated by graphviz version 2.38.0 (20140413.2041)
 -->
<!-- Title: Process Pages: 1 -->
<svg width="183pt" height="163pt"
 viewBox="0.00 0.00 183.00 163.00" xmlns="http://www.w3.org/2000/svg" xmlns:xlink="http://www.w3.org/1999/xlink">
<g id="graph0" class="graph" transform="scale(1 1) rotate(0) translate(4 159)">
<title>Process</title>
<polygon fill="white" stroke="none" points="-4,4 -4,-159 179,-159 179,4 -4,4"/>
<!-- Process -->
<g id="node1" class="node"><title>Process</title>
<g id="a_node1_0"><a xlink:href="/idmef_parser/IDMEF/Process.html" xlink:title="The Process class is used to describe processes being executed on sources, targets, and analyzers. ">
<polygon fill="#997a3d" stroke="none" points="8.5,-129.5 8.5,-150.5 167.5,-150.5 167.5,-129.5 8.5,-129.5"/>
<polygon fill="none" stroke="black" points="8.5,-129.5 8.5,-150.5 167.5,-150.5 167.5,-129.5 8.5,-129.5"/>
<text text-anchor="start" x="67" y="-136.3" font-family="Times,serif" font-size="14.00">Process</text>
</a>
</g>
<g id="a_node1_1"><a xlink:href="/idmef_parser/IDMEF/Process.html" xlink:title="The name of the program being executed. This is a short name; path and argument information are provided elsewhere.">
<polygon fill="#ffcc66" stroke="none" points="8.5,-108.5 8.5,-129.5 167.5,-129.5 167.5,-108.5 8.5,-108.5"/>
<polygon fill="none" stroke="black" points="8.5,-108.5 8.5,-129.5 167.5,-129.5 167.5,-108.5 8.5,-108.5"/>
<text text-anchor="start" x="30.5" y="-115.3" font-family="Times,serif" font-size="14.00">[STRING] name (1) </text>
</a>
</g>
<g id="a_node1_2"><a xlink:href="/idmef_parser/IDMEF/Process.html" xlink:title="The process identifier of the process.">
<polygon fill="#ffcc66" stroke="none" points="8.5,-87.5 8.5,-108.5 167.5,-108.5 167.5,-87.5 8.5,-87.5"/>
<polygon fill="none" stroke="black" points="8.5,-87.5 8.5,-108.5 167.5,-108.5 167.5,-87.5 8.5,-87.5"/>
<text text-anchor="start" x="25" y="-94.3" font-family="Times,serif" font-size="14.00">[INTEGER] pid (0..1) </text>
</a>
</g>
<g id="a_node1_3"><a xlink:href="/idmef_parser/IDMEF/Process.html" xlink:title="The full path of the program being executed.">
<polygon fill="#ffcc66" stroke="none" points="8.5,-66.5 8.5,-87.5 167.5,-87.5 167.5,-66.5 8.5,-66.5"/>
<polygon fill="none" stroke="black" points="8.5,-66.5 8.5,-87.5 167.5,-87.5 167.5,-66.5 8.5,-66.5"/>
<text text-anchor="start" x="26.5" y="-73.3" font-family="Times,serif" font-size="14.00">[STRING] path (0..1) </text>
</a>
</g>
<g id="a_node1_4"><a xlink:href="/idmef_parser/IDMEF/Process.html" xlink:title="A command&#45;line argument to the program. Multiple arguments may be specified (they are assumed to have occurred in the same order they are provided) with multiple uses of arg.">
<polygon fill="#ffcc66" stroke="none" points="8.5,-45.5 8.5,-66.5 167.5,-66.5 167.5,-45.5 8.5,-45.5"/>
<polygon fill="none" stroke="black" points="8.5,-45.5 8.5,-66.5 167.5,-66.5 167.5,-45.5 8.5,-45.5"/>
<text text-anchor="start" x="29.5" y="-52.3" font-family="Times,serif" font-size="14.00">[STRING] arg (0..*) </text>
</a>
</g>
<g id="a_node1_5"><a xlink:href="/idmef_parser/IDMEF/Process.html" xlink:title="An environment string associated with the process; generally of the format &quot;VARIABLE=value&quot;. &#160;Multiple environment strings may be specified with multiple uses of env.">
<polygon fill="#ffcc66" stroke="none" points="8.5,-24.5 8.5,-45.5 167.5,-45.5 167.5,-24.5 8.5,-24.5"/>
<polygon fill="none" stroke="black" points="8.5,-24.5 8.5,-45.5 167.5,-45.5 167.5,-24.5 8.5,-24.5"/>
<text text-anchor="start" x="28.5" y="-31.3" font-family="Times,serif" font-size="14.00">[STRING] env (0..*) </text>
</a>
</g>
<g id="a_node1_6"><a xlink:href="/idmef_parser/IDMEF/Process.html" xlink:title="A unique identifier for the process; see Section 3.2.9.">
<polygon fill="#ffcc66" stroke="none" points="8.5,-3.5 8.5,-24.5 167.5,-24.5 167.5,-3.5 8.5,-3.5"/>
<polygon fill="none" stroke="black" points="8.5,-3.5 8.5,-24.5 167.5,-24.5 167.5,-3.5 8.5,-3.5"/>
<text text-anchor="start" x="11.5" y="-10.3" font-family="Times,serif" font-size="14.00">[STRING] ident (Optional) </text>
</a>
</g>
</g>
</g>
</svg>
