<?xml version="1.0" encoding="UTF-8" standalone="no"?>
<!DOCTYPE svg PUBLIC "-//W3C//DTD SVG 1.1//EN"
 "http://www.w3.org/Graphics/SVG/1.1/DTD/svg11.dtd">
<!-- Generated by graphviz version 2.38.0 (20140413.2041)
 -->
<!-- Title: Service Pages: 1 -->
<svg width="596pt" height="336pt"
 viewBox="0.00 0.00 596.00 336.00" xmlns="http://www.w3.org/2000/svg" xmlns:xlink="http://www.w3.org/1999/xlink">
<g id="graph0" class="graph" transform="scale(1 1) rotate(0) translate(4 332)">
<title>Service</title>
<polygon fill="white" stroke="none" points="-4,4 -4,-332 592,-332 592,4 -4,4"/>
<!-- Service -->
<g id="node1" class="node"><title>Service</title>
<g id="a_node1_0"><a xlink:href="/idmef_parser/IDMEF/Service.html" xlink:title="The Service class describes network services on sources and targets. It can identify services by name, port, and protocol. When Service occurs as an aggregate class of Source, it is understood that the service is one from which activity of interest is originating; and that the service is &quot;attached&quot; to the Node, Process, and User information also contained in Source. Likewise, when Service occurs as an aggregate class of Target, it is understood that the service is one to which activity of interest is being directed; and that the service is &quot;attached&quot; to the Node, Process, and User information also contained in Target. If Service occurs in both Source and Target, then information in both locations should be the same. If information is the same in both locations and implementers wish to carry it in only one location, they should specify it as an aggregate of the Target class. ">
<polygon fill="#997a7a" stroke="none" points="8,-257.5 8,-278.5 272,-278.5 272,-257.5 8,-257.5"/>
<polygon fill="none" stroke="black" points="8,-257.5 8,-278.5 272,-278.5 272,-257.5 8,-257.5"/>
<text text-anchor="start" x="119.5" y="-264.3" font-family="Times,serif" font-size="14.00">Service</text>
</a>
</g>
<g id="a_node1_1"><a xlink:href="/idmef_parser/IDMEF/Service.html" xlink:title="The name of the service. &#160;Whenever possible, the name from the IANA list of well&#45;known ports SHOULD be used.">
<polygon fill="#ffcccc" stroke="none" points="8,-236.5 8,-257.5 272,-257.5 272,-236.5 8,-236.5"/>
<polygon fill="none" stroke="black" points="8,-236.5 8,-257.5 272,-257.5 272,-236.5 8,-236.5"/>
<text text-anchor="start" x="75" y="-243.3" font-family="Times,serif" font-size="14.00">[STRING] name (0..1) </text>
</a>
</g>
<g id="a_node1_2"><a xlink:href="/idmef_parser/IDMEF/Service.html" xlink:title="The port number being used.">
<polygon fill="#ffcccc" stroke="none" points="8,-215.5 8,-236.5 272,-236.5 272,-215.5 8,-215.5"/>
<polygon fill="none" stroke="black" points="8,-215.5 8,-236.5 272,-236.5 272,-215.5 8,-215.5"/>
<text text-anchor="start" x="75" y="-222.3" font-family="Times,serif" font-size="14.00">[INTEGER] port (0..1) </text>
</a>
</g>
<g id="a_node1_3"><a xlink:href="/idmef_parser/IDMEF/Service.html" xlink:title="A list of port numbers being used; see Section 3.2.8 for formatting rules. &#160;If a portlist is given, the iana_protocol_number and iana_protocol_name MUST apply to all the elements of the list.">
<polygon fill="#ffcccc" stroke="none" points="8,-194.5 8,-215.5 272,-215.5 272,-194.5 8,-194.5"/>
<polygon fill="none" stroke="black" points="8,-194.5 8,-215.5 272,-215.5 272,-194.5 8,-194.5"/>
<text text-anchor="start" x="64" y="-201.3" font-family="Times,serif" font-size="14.00">[PORTLIST] portlist (0..1) </text>
</a>
</g>
<g id="a_node1_4"><a xlink:href="/idmef_parser/IDMEF/Service.html" xlink:title="Additional information about the protocol being used. &#160;The intent of the protocol field is to carry additional information related to the protocol being used when the &lt;Service&gt; attributes iana_protocol_number or/and iana_protocol_name are filed.">
<polygon fill="#ffcccc" stroke="none" points="8,-173.5 8,-194.5 272,-194.5 272,-173.5 8,-173.5"/>
<polygon fill="none" stroke="black" points="8,-173.5 8,-194.5 272,-194.5 272,-173.5 8,-173.5"/>
<text text-anchor="start" x="67.5" y="-180.3" font-family="Times,serif" font-size="14.00">[STRING] protocol (0..1) </text>
</a>
</g>
<g id="a_node1_5"><a xlink:href="/idmef_parser/IDMEF/Service.html" xlink:title="A unique identifier for the service; see Section 3.2.9.">
<polygon fill="#ffcccc" stroke="none" points="8,-152.5 8,-173.5 272,-173.5 272,-152.5 8,-152.5"/>
<polygon fill="none" stroke="black" points="8,-152.5 8,-173.5 272,-173.5 272,-152.5 8,-152.5"/>
<text text-anchor="start" x="63.5" y="-159.3" font-family="Times,serif" font-size="14.00">[STRING] ident (Optional) </text>
</a>
</g>
<g id="a_node1_6"><a xlink:href="/idmef_parser/IDMEF/Service.html" xlink:title="The IP version number.">
<polygon fill="#ffcccc" stroke="none" points="8,-131.5 8,-152.5 272,-152.5 272,-131.5 8,-131.5"/>
<polygon fill="none" stroke="black" points="8,-131.5 8,-152.5 272,-152.5 272,-131.5 8,-131.5"/>
<text text-anchor="start" x="44" y="-138.3" font-family="Times,serif" font-size="14.00">[INTEGER] ip_version (Optional) </text>
</a>
</g>
<g id="a_node1_7"><a xlink:href="/idmef_parser/IDMEF/Service.html" xlink:title="The IANA protocol number.">
<polygon fill="#ffcccc" stroke="none" points="8,-110.5 8,-131.5 272,-131.5 272,-110.5 8,-110.5"/>
<polygon fill="none" stroke="black" points="8,-110.5 8,-131.5 272,-131.5 272,-110.5 8,-110.5"/>
<text text-anchor="start" x="11" y="-117.3" font-family="Times,serif" font-size="14.00">[INTEGER] iana_protocol_number (Optional) </text>
</a>
</g>
<g id="a_node1_8"><a xlink:href="/idmef_parser/IDMEF/Service.html" xlink:title="The IANA protocol name.">
<polygon fill="#ffcccc" stroke="none" points="8,-89.5 8,-110.5 272,-110.5 272,-89.5 8,-89.5"/>
<polygon fill="none" stroke="black" points="8,-89.5 8,-110.5 272,-110.5 272,-89.5 8,-89.5"/>
<text text-anchor="start" x="21.5" y="-96.3" font-family="Times,serif" font-size="14.00">[STRING] iana_protocol_name (Optional) </text>
</a>
</g>
</g>
<!-- WebService -->
<g id="node2" class="node"><title>WebService</title>
<g id="a_node2_9"><a xlink:href="/idmef_parser/IDMEF/WebService.html" xlink:title="The WebService class carries additional information related to web traffic. ">
<polygon fill="#997a7a" stroke="none" points="366,-302.5 366,-323.5 538,-323.5 538,-302.5 366,-302.5"/>
<polygon fill="none" stroke="black" points="366,-302.5 366,-323.5 538,-323.5 538,-302.5 366,-302.5"/>
<text text-anchor="start" x="418.5" y="-309.3" font-family="Times,serif" font-size="14.00">WebService</text>
</a>
</g>
<g id="a_node2_10"><a xlink:href="/idmef_parser/IDMEF/WebService.html" xlink:title="The URL in the request.">
<polygon fill="#ffcccc" stroke="none" points="366,-281.5 366,-302.5 538,-302.5 538,-281.5 366,-281.5"/>
<polygon fill="none" stroke="black" points="366,-281.5 366,-302.5 538,-302.5 538,-281.5 366,-281.5"/>
<text text-anchor="start" x="402" y="-288.3" font-family="Times,serif" font-size="14.00">[STRING] url (1) </text>
</a>
</g>
<g id="a_node2_11"><a xlink:href="/idmef_parser/IDMEF/WebService.html" xlink:title="The CGI script in the request, without arguments.">
<polygon fill="#ffcccc" stroke="none" points="366,-260.5 366,-281.5 538,-281.5 538,-260.5 366,-260.5"/>
<polygon fill="none" stroke="black" points="366,-260.5 366,-281.5 538,-281.5 538,-260.5 366,-260.5"/>
<text text-anchor="start" x="394" y="-267.3" font-family="Times,serif" font-size="14.00">[STRING] cgi (0..1) </text>
</a>
</g>
<g id="a_node2_12"><a xlink:href="/idmef_parser/IDMEF/WebService.html" xlink:title="The HTTP method (PUT, GET) used in the request.">
<polygon fill="#ffcccc" stroke="none" points="366,-239.5 366,-260.5 538,-260.5 538,-239.5 366,-239.5"/>
<polygon fill="none" stroke="black" points="366,-239.5 366,-260.5 538,-260.5 538,-239.5 366,-239.5"/>
<text text-anchor="start" x="369" y="-246.3" font-family="Times,serif" font-size="14.00">[STRING] http&#45;method (0..1) </text>
</a>
</g>
<g id="a_node2_13"><a xlink:href="/idmef_parser/IDMEF/WebService.html" xlink:title="The arguments to the CGI script.">
<polygon fill="#ffcccc" stroke="none" points="366,-218.5 366,-239.5 538,-239.5 538,-218.5 366,-218.5"/>
<polygon fill="none" stroke="black" points="366,-218.5 366,-239.5 538,-239.5 538,-218.5 366,-218.5"/>
<text text-anchor="start" x="393.5" y="-225.3" font-family="Times,serif" font-size="14.00">[STRING] arg (0..*) </text>
</a>
</g>
</g>
<!-- Service&#45;&gt;WebService -->
<g id="edge1" class="edge"><title>Service&#45;&gt;WebService</title>
<path fill="none" stroke="black" d="M289.993,-226.314C313.042,-232.783 336.268,-239.301 357.629,-245.296"/>
<polygon fill="none" stroke="black" points="281.077,-220.177 289.759,-226.249 279.185,-226.916 281.077,-220.177"/>
</g>
<!-- SNMPService -->
<g id="node3" class="node"><title>SNMPService</title>
<g id="a_node3_14"><a xlink:href="/idmef_parser/IDMEF/SNMPService.html" xlink:title="The SNMPService class carries additional information related to SNMP traffic. The aggregate classes composing SNMPService must be interpreted as described in RFC 3411 [15] and RFC 3584 [16]. ">
<polygon fill="#997a7a" stroke="none" points="324,-171.5 324,-192.5 580,-192.5 580,-171.5 324,-171.5"/>
<polygon fill="none" stroke="black" points="324,-171.5 324,-192.5 580,-192.5 580,-171.5 324,-171.5"/>
<text text-anchor="start" x="412.5" y="-178.3" font-family="Times,serif" font-size="14.00">SNMPService</text>
</a>
</g>
<g id="a_node3_15"><a xlink:href="/idmef_parser/IDMEF/SNMPService.html" xlink:title="The object identifier in the request.">
<polygon fill="#ffcccc" stroke="none" points="324,-150.5 324,-171.5 580,-171.5 580,-150.5 324,-150.5"/>
<polygon fill="none" stroke="black" points="324,-150.5 324,-171.5 580,-171.5 580,-150.5 324,-150.5"/>
<text text-anchor="start" x="393.5" y="-157.3" font-family="Times,serif" font-size="14.00">[STRING] oid (0..1) </text>
</a>
</g>
<g id="a_node3_16"><a xlink:href="/idmef_parser/IDMEF/SNMPService.html" xlink:title="The SNMP version, typically 0 for SNMPv1, 1 for SNMPv2c, 2 for SNMPv2u and SNMPv2*, and 3 for SNMPv3; see RFC 3411 [15] Section 5 for appropriate values.">
<polygon fill="#ffcccc" stroke="none" points="324,-129.5 324,-150.5 580,-150.5 580,-129.5 324,-129.5"/>
<polygon fill="none" stroke="black" points="324,-129.5 324,-150.5 580,-150.5 580,-129.5 324,-129.5"/>
<text text-anchor="start" x="327" y="-136.3" font-family="Times,serif" font-size="14.00">[INTEGER] messageProcessingModel (0..1) </text>
</a>
</g>
<g id="a_node3_17"><a xlink:href="/idmef_parser/IDMEF/SNMPService.html" xlink:title="The identification of the security model in use, typically 0 for any, 1 for SNMPv1, 2 for SNMPv2c, and 3 for USM; see RFC 3411 [15] Section 5 for appropriate values.">
<polygon fill="#ffcccc" stroke="none" points="324,-108.5 324,-129.5 580,-129.5 580,-108.5 324,-108.5"/>
<polygon fill="none" stroke="black" points="324,-108.5 324,-129.5 580,-129.5 580,-108.5 324,-108.5"/>
<text text-anchor="start" x="358.5" y="-115.3" font-family="Times,serif" font-size="14.00">[INTEGER] securityModel (0..1) </text>
</a>
</g>
<g id="a_node3_18"><a xlink:href="/idmef_parser/IDMEF/SNMPService.html" xlink:title="The object&#39;s security name; see RFC 3411 [15] Section 3.2.2.">
<polygon fill="#ffcccc" stroke="none" points="324,-87.5 324,-108.5 580,-108.5 580,-87.5 324,-87.5"/>
<polygon fill="none" stroke="black" points="324,-87.5 324,-108.5 580,-108.5 580,-87.5 324,-87.5"/>
<text text-anchor="start" x="364.5" y="-94.3" font-family="Times,serif" font-size="14.00">[STRING] securityName (0..1) </text>
</a>
</g>
<g id="a_node3_19"><a xlink:href="/idmef_parser/IDMEF/SNMPService.html" xlink:title="The security level of the SNMP request; see RFC 3411 [15] Section 3.4.3.">
<polygon fill="#ffcccc" stroke="none" points="324,-66.5 324,-87.5 580,-87.5 580,-66.5 324,-66.5"/>
<polygon fill="none" stroke="black" points="324,-66.5 324,-87.5 580,-87.5 580,-66.5 324,-66.5"/>
<text text-anchor="start" x="361" y="-73.3" font-family="Times,serif" font-size="14.00">[INTEGER] securityLevel (0..1) </text>
</a>
</g>
<g id="a_node3_20"><a xlink:href="/idmef_parser/IDMEF/SNMPService.html" xlink:title="The object&#39;s context name; see RFC 3411 [15] Section 3.3.3.">
<polygon fill="#ffcccc" stroke="none" points="324,-45.5 324,-66.5 580,-66.5 580,-45.5 324,-45.5"/>
<polygon fill="none" stroke="black" points="324,-45.5 324,-66.5 580,-66.5 580,-45.5 324,-45.5"/>
<text text-anchor="start" x="366" y="-52.3" font-family="Times,serif" font-size="14.00">[STRING] contextName (0..1) </text>
</a>
</g>
<g id="a_node3_21"><a xlink:href="/idmef_parser/IDMEF/SNMPService.html" xlink:title="The object&#39;s context engine identifier; see RFC 3411 [15] Section 3.3.2.">
<polygon fill="#ffcccc" stroke="none" points="324,-24.5 324,-45.5 580,-45.5 580,-24.5 324,-24.5"/>
<polygon fill="none" stroke="black" points="324,-24.5 324,-45.5 580,-45.5 580,-24.5 324,-24.5"/>
<text text-anchor="start" x="356" y="-31.3" font-family="Times,serif" font-size="14.00">[STRING] contextEngineID (0..1) </text>
</a>
</g>
<g id="a_node3_22"><a xlink:href="/idmef_parser/IDMEF/SNMPService.html" xlink:title="The command sent to the SNMP server (GET, SET, etc.).">
<polygon fill="#ffcccc" stroke="none" points="324,-3.5 324,-24.5 580,-24.5 580,-3.5 324,-3.5"/>
<polygon fill="none" stroke="black" points="324,-3.5 324,-24.5 580,-24.5 580,-3.5 324,-3.5"/>
<text text-anchor="start" x="375" y="-10.3" font-family="Times,serif" font-size="14.00">[STRING] command (0..1) </text>
</a>
</g>
</g>
<!-- Service&#45;&gt;SNMPService -->
<g id="edge2" class="edge"><title>Service&#45;&gt;SNMPService</title>
<path fill="none" stroke="black" d="M289.924,-143.185C298.613,-140.775 307.327,-138.358 315.958,-135.963"/>
<polygon fill="none" stroke="black" points="279.196,-142.53 289.767,-143.229 281.067,-149.275 279.196,-142.53"/>
</g>
</g>
</svg>
