<?xml version="1.0" encoding="UTF-8" standalone="no"?>
<!DOCTYPE svg PUBLIC "-//W3C//DTD SVG 1.1//EN"
 "http://www.w3.org/Graphics/SVG/1.1/DTD/svg11.dtd">
<!-- Generated by graphviz version 2.26.3 (20100126.1600)
 -->
<!-- Title: Source Pages: 1 -->
<svg width="1022pt" height="649pt"
 viewBox="0.00 0.00 1022.00 649.00" xmlns="http://www.w3.org/2000/svg" xmlns:xlink="http://www.w3.org/1999/xlink">
<g id="graph1" class="graph" transform="scale(1 1) rotate(0) translate(4 645)">
<title>Source</title>
<polygon fill="white" stroke="white" points="-4,5 -4,-645 1019,-645 1019,5 -4,5"/>
<!-- Source -->
<g id="node1" class="node"><title>Source</title>
<a xlink:href="/idmef_parser/IDMEF/Source.html" xlink:title="The Source class contains information about the possible source(s) of the event(s) that generated an alert. An event may have more than one source (e.g., in a distributed denial&#45;of&#45;service attack). ">
<polygon fill="#182f5f" stroke="#182f5f" points="9,-360 9,-381 224,-381 224,-360 9,-360"/>
<polygon fill="none" stroke="black" points="9,-360 9,-381 224,-381 224,-360 9,-360"/>
<text text-anchor="start" x="92.5" y="-367.233" font-family="Times Roman,serif" font-size="14.00">Source</text>
</a>
<a xlink:href="/idmef_parser/IDMEF/Source.html" xlink:title="A unique identifier for this source; see Section 3.2.9.">
<polygon fill="#284f9f" stroke="#284f9f" points="9,-340 9,-360 224,-360 224,-340 9,-340"/>
<polygon fill="none" stroke="black" points="9,-340 9,-360 224,-360 224,-340 9,-340"/>
<text text-anchor="start" x="25" y="-346.733" font-family="Times Roman,serif" font-size="14.00">[STRING] ident (Optional) </text>
</a>
<a xlink:href="/idmef_parser/IDMEF/Source.html" xlink:title="An indication of whether the source is, as far as the analyzer can determine, a spoofed address used for hiding the real origin of the attack. &#160;The permitted values for this attribute are shown below. &#160;The default value is &quot;unknown&quot;. &#160;(See also Section 10.)">
<polygon fill="#284f9f" stroke="#284f9f" points="9,-320 9,-340 224,-340 224,-320 9,-320"/>
<polygon fill="none" stroke="black" points="9,-320 9,-340 224,-340 224,-320 9,-320"/>
<text text-anchor="start" x="22.5" y="-326.733" font-family="Times Roman,serif" font-size="14.00">[ENUM] spoofed (Optional) </text>
</a>
<a xlink:href="/idmef_parser/IDMEF/Source.html" xlink:title="May be used by a network&#45;based analyzer with multiple interfaces to indicate which interface this source was seen on.">
<polygon fill="#284f9f" stroke="#284f9f" points="9,-300 9,-320 224,-320 224,-300 9,-300"/>
<polygon fill="none" stroke="black" points="9,-300 9,-320 224,-320 224,-300 9,-300"/>
<text text-anchor="start" x="12.5" y="-306.733" font-family="Times Roman,serif" font-size="14.00">[STRING] interface (Optional) </text>
</a>
</g>
<!-- Node -->
<g id="node2" class="node"><title>Node</title>
<a xlink:href="/idmef_parser/IDMEF/Node.html" xlink:title="The Node class is used to identify hosts and other network devices (routers, switches, etc.). ">
<polygon fill="#007a00" stroke="#007a00" points="362,-571 362,-592 565,-592 565,-571 362,-571"/>
<polygon fill="none" stroke="black" points="362,-571 362,-592 565,-592 565,-571 362,-571"/>
<text text-anchor="start" x="445.5" y="-578.233" font-family="Times Roman,serif" font-size="14.00">Node</text>
</a>
<a xlink:href="/idmef_parser/IDMEF/Node.html" xlink:title="The location of the equipment.">
<polygon fill="#00cc00" stroke="#00cc00" points="362,-551 362,-571 565,-571 565,-551 362,-551"/>
<polygon fill="none" stroke="black" points="362,-551 362,-571 565,-571 565,-551 362,-551"/>
<text text-anchor="start" x="378.5" y="-557.733" font-family="Times Roman,serif" font-size="14.00">[STRING] location (0..1) </text>
</a>
<a xlink:href="/idmef_parser/IDMEF/Node.html" xlink:title="The name of the equipment. &#160;This information MUST be provided if no Address information is given.">
<polygon fill="#00cc00" stroke="#00cc00" points="362,-531 362,-551 565,-551 565,-531 362,-531"/>
<polygon fill="none" stroke="black" points="362,-531 362,-551 565,-551 565,-531 362,-531"/>
<text text-anchor="start" x="386.5" y="-537.733" font-family="Times Roman,serif" font-size="14.00">[STRING] name (0..1) </text>
</a>
<a xlink:href="/idmef_parser/IDMEF/Node.html" xlink:title="A unique identifier for the node; see Section 3.2.9.">
<polygon fill="#00cc00" stroke="#00cc00" points="362,-511 362,-531 565,-531 565,-511 362,-511"/>
<polygon fill="none" stroke="black" points="362,-511 362,-531 565,-531 565,-511 362,-511"/>
<text text-anchor="start" x="372" y="-517.733" font-family="Times Roman,serif" font-size="14.00">[STRING] ident (Optional) </text>
</a>
<a xlink:href="/idmef_parser/IDMEF/Node.html" xlink:title="The &quot;domain&quot; from which the name information was obtained, if relevant. &#160;The permitted values for this attribute are shown in the table below. &#160;The default value is &quot;unknown&quot;. (See also Section 10 for extensions to the table.)">
<polygon fill="#00cc00" stroke="#00cc00" points="362,-491 362,-511 565,-511 565,-491 362,-491"/>
<polygon fill="none" stroke="black" points="362,-491 362,-511 565,-511 565,-491 362,-491"/>
<text text-anchor="start" x="365.5" y="-497.733" font-family="Times Roman,serif" font-size="14.00">[ENUM] category (Optional) </text>
</a>
</g>
<!-- Source&#45;&gt;Node -->
<g id="edge4" class="edge"><title>Source&#45;&gt;Node</title>
<path fill="none" stroke="black" d="M171.57,-385.05C206.176,-411.316 252.286,-444.253 296,-469 311.218,-477.615 327.648,-485.912 344.058,-493.628"/>
<polygon fill="black" stroke="black" points="342.621,-496.819 353.165,-497.853 345.567,-490.469 342.621,-496.819"/>
<text text-anchor="middle" x="264" y="-460.4" font-family="Times Roman,serif" font-size="14.00">0..1</text>
</g>
<!-- User -->
<g id="node6" class="node"><title>User</title>
<a xlink:href="/idmef_parser/IDMEF/User.html" xlink:title="The User class is used to describe users. It is primarily used as a &quot;container&quot; class for the UserId aggregate class, as shown in Figure 16. ">
<polygon fill="#3d7a99" stroke="#3d7a99" points="362,-435 362,-456 565,-456 565,-435 362,-435"/>
<polygon fill="none" stroke="black" points="362,-435 362,-456 565,-456 565,-435 362,-435"/>
<text text-anchor="start" x="447.5" y="-442.233" font-family="Times Roman,serif" font-size="14.00">User</text>
</a>
<a xlink:href="/idmef_parser/IDMEF/User.html" xlink:title="A unique identifier for the user; see Section 3.2.9.">
<polygon fill="#66ccff" stroke="#66ccff" points="362,-415 362,-435 565,-435 565,-415 362,-415"/>
<polygon fill="none" stroke="black" points="362,-415 362,-435 565,-435 565,-415 362,-415"/>
<text text-anchor="start" x="372" y="-421.733" font-family="Times Roman,serif" font-size="14.00">[STRING] ident (Optional) </text>
</a>
<a xlink:href="/idmef_parser/IDMEF/User.html" xlink:title="The type of user represented. &#160;The permitted values for this attribute are shown below. &#160;The default value is &quot;unknown&quot;. (See also Section 10.)">
<polygon fill="#66ccff" stroke="#66ccff" points="362,-395 362,-415 565,-415 565,-395 362,-395"/>
<polygon fill="none" stroke="black" points="362,-395 362,-415 565,-415 565,-395 362,-395"/>
<text text-anchor="start" x="365.5" y="-401.733" font-family="Times Roman,serif" font-size="14.00">[ENUM] category (Optional) </text>
</a>
</g>
<!-- Source&#45;&gt;User -->
<g id="edge8" class="edge"><title>Source&#45;&gt;User</title>
<path fill="none" stroke="black" d="M231.546,-369.304C267.408,-378.088 307.002,-387.787 343.15,-396.642"/>
<polygon fill="black" stroke="black" points="342.702,-400.136 353.248,-399.115 344.368,-393.337 342.702,-400.136"/>
<text text-anchor="middle" x="264" y="-382.4" font-family="Times Roman,serif" font-size="14.00">0..1</text>
</g>
<!-- Process -->
<g id="node10" class="node"><title>Process</title>
<a xlink:href="/idmef_parser/IDMEF/Process.html" xlink:title="The Process class is used to describe processes being executed on sources, targets, and analyzers. ">
<polygon fill="#997a3d" stroke="#997a3d" points="368,-349 368,-370 558,-370 558,-349 368,-349"/>
<polygon fill="none" stroke="black" points="368,-349 368,-370 558,-370 558,-349 368,-349"/>
<text text-anchor="start" x="437" y="-356.233" font-family="Times Roman,serif" font-size="14.00">Process</text>
</a>
<a xlink:href="/idmef_parser/IDMEF/Process.html" xlink:title="The name of the program being executed. This is a short name; path and argument information are provided elsewhere.">
<polygon fill="#ffcc66" stroke="#ffcc66" points="368,-329 368,-349 558,-349 558,-329 368,-329"/>
<polygon fill="none" stroke="black" points="368,-329 368,-349 558,-349 558,-329 368,-329"/>
<text text-anchor="start" x="395" y="-335.733" font-family="Times Roman,serif" font-size="14.00">[STRING] name (1) </text>
</a>
<a xlink:href="/idmef_parser/IDMEF/Process.html" xlink:title="The process identifier of the process.">
<polygon fill="#ffcc66" stroke="#ffcc66" points="368,-309 368,-329 558,-329 558,-309 368,-309"/>
<polygon fill="none" stroke="black" points="368,-309 368,-329 558,-329 558,-309 368,-309"/>
<text text-anchor="start" x="390.5" y="-315.733" font-family="Times Roman,serif" font-size="14.00">[INTEGER] pid (0..1) </text>
</a>
<a xlink:href="/idmef_parser/IDMEF/Process.html" xlink:title="The full path of the program being executed.">
<polygon fill="#ffcc66" stroke="#ffcc66" points="368,-289 368,-309 558,-309 558,-289 368,-289"/>
<polygon fill="none" stroke="black" points="368,-289 368,-309 558,-309 558,-289 368,-289"/>
<text text-anchor="start" x="389" y="-295.733" font-family="Times Roman,serif" font-size="14.00">[STRING] path (0..1) </text>
</a>
<a xlink:href="/idmef_parser/IDMEF/Process.html" xlink:title="A command&#45;line argument to the program. Multiple arguments may be specified (they are assumed to have occurred in the same order they are provided) with multiple uses of arg.">
<polygon fill="#ffcc66" stroke="#ffcc66" points="368,-269 368,-289 558,-289 558,-269 368,-269"/>
<polygon fill="none" stroke="black" points="368,-269 368,-289 558,-289 558,-269 368,-269"/>
<text text-anchor="start" x="394.5" y="-275.733" font-family="Times Roman,serif" font-size="14.00">[STRING] arg (0..*) </text>
</a>
<a xlink:href="/idmef_parser/IDMEF/Process.html" xlink:title="An environment string associated with the process; generally of the format &quot;VARIABLE=value&quot;. &#160;Multiple environment strings may be specified with multiple uses of env.">
<polygon fill="#ffcc66" stroke="#ffcc66" points="368,-249 368,-269 558,-269 558,-249 368,-249"/>
<polygon fill="none" stroke="black" points="368,-249 368,-269 558,-269 558,-249 368,-249"/>
<text text-anchor="start" x="393" y="-255.733" font-family="Times Roman,serif" font-size="14.00">[STRING] env (0..*) </text>
</a>
<a xlink:href="/idmef_parser/IDMEF/Process.html" xlink:title="A unique identifier for the process; see Section 3.2.9.">
<polygon fill="#ffcc66" stroke="#ffcc66" points="368,-229 368,-249 558,-249 558,-229 368,-229"/>
<polygon fill="none" stroke="black" points="368,-229 368,-249 558,-249 558,-229 368,-229"/>
<text text-anchor="start" x="371.5" y="-235.733" font-family="Times Roman,serif" font-size="14.00">[STRING] ident (Optional) </text>
</a>
</g>
<!-- Source&#45;&gt;Process -->
<g id="edge10" class="edge"><title>Source&#45;&gt;Process</title>
<path fill="none" stroke="black" d="M231.546,-327.348C269.642,-322.846 311.951,-317.847 349.865,-313.368"/>
<polygon fill="black" stroke="black" points="350.398,-316.829 359.918,-312.18 349.576,-309.877 350.398,-316.829"/>
<text text-anchor="middle" x="264" y="-328.4" font-family="Times Roman,serif" font-size="14.00">0..1</text>
</g>
<!-- Service -->
<g id="node12" class="node"><title>Service</title>
<a xlink:href="/idmef_parser/IDMEF/Service.html" xlink:title="The Service class describes network services on sources and targets. It can identify services by name, port, and protocol. When Service occurs as an aggregate class of Source, it is understood that the service is one from which activity of interest is originating; and that the service is &quot;attached&quot; to the Node, Process, and User information also contained in Source. Likewise, when Service occurs as an aggregate class of Target, it is understood that the service is one to which activity of interest is being directed; and that the service is &quot;attached&quot; to the Node, Process, and User information also contained in Target. If Service occurs in both Source and Target, then information in both locations should be the same. If information is the same in both locations and implementers wish to carry it in only one location, they should specify it as an aggregate of the Target class. ">
<polygon fill="#997a7a" stroke="#997a7a" points="305,-183 305,-204 622,-204 622,-183 305,-183"/>
<polygon fill="none" stroke="black" points="305,-183 305,-204 622,-204 622,-183 305,-183"/>
<text text-anchor="start" x="438" y="-190.233" font-family="Times Roman,serif" font-size="14.00">Service</text>
</a>
<a xlink:href="/idmef_parser/IDMEF/Service.html" xlink:title="The name of the service. &#160;Whenever possible, the name from the IANA list of well&#45;known ports SHOULD be used.">
<polygon fill="#ffcccc" stroke="#ffcccc" points="305,-163 305,-183 622,-183 622,-163 305,-163"/>
<polygon fill="none" stroke="black" points="305,-163 305,-183 622,-183 622,-163 305,-163"/>
<text text-anchor="start" x="386.5" y="-169.733" font-family="Times Roman,serif" font-size="14.00">[STRING] name (0..1) </text>
</a>
<a xlink:href="/idmef_parser/IDMEF/Service.html" xlink:title="The port number being used.">
<polygon fill="#ffcccc" stroke="#ffcccc" points="305,-143 305,-163 622,-163 622,-143 305,-143"/>
<polygon fill="none" stroke="black" points="305,-143 305,-163 622,-163 622,-143 305,-143"/>
<text text-anchor="start" x="386.5" y="-149.733" font-family="Times Roman,serif" font-size="14.00">[INTEGER] port (0..1) </text>
</a>
<a xlink:href="/idmef_parser/IDMEF/Service.html" xlink:title="A list of port numbers being used; see Section 3.2.8 for formatting rules. &#160;If a portlist is given, the iana_protocol_number and iana_protocol_name MUST apply to all the elements of the list.">
<polygon fill="#ffcccc" stroke="#ffcccc" points="305,-123 305,-143 622,-143 622,-123 305,-123"/>
<polygon fill="none" stroke="black" points="305,-123 305,-143 622,-143 622,-123 305,-123"/>
<text text-anchor="start" x="373.5" y="-129.733" font-family="Times Roman,serif" font-size="14.00">[PORTLIST] portlist (0..1) </text>
</a>
<a xlink:href="/idmef_parser/IDMEF/Service.html" xlink:title="Additional information about the protocol being used. &#160;The intent of the protocol field is to carry additional information related to the protocol being used when the &lt;Service&gt; attributes iana_protocol_number or/and iana_protocol_name are filed.">
<polygon fill="#ffcccc" stroke="#ffcccc" points="305,-103 305,-123 622,-123 622,-103 305,-103"/>
<polygon fill="none" stroke="black" points="305,-103 305,-123 622,-123 622,-103 305,-103"/>
<text text-anchor="start" x="377.5" y="-109.733" font-family="Times Roman,serif" font-size="14.00">[STRING] protocol (0..1) </text>
</a>
<a xlink:href="/idmef_parser/IDMEF/Service.html" xlink:title="A unique identifier for the service; see Section 3.2.9.">
<polygon fill="#ffcccc" stroke="#ffcccc" points="305,-83 305,-103 622,-103 622,-83 305,-83"/>
<polygon fill="none" stroke="black" points="305,-83 305,-103 622,-103 622,-83 305,-83"/>
<text text-anchor="start" x="372" y="-89.7333" font-family="Times Roman,serif" font-size="14.00">[STRING] ident (Optional) </text>
</a>
<a xlink:href="/idmef_parser/IDMEF/Service.html" xlink:title="The IP version number.">
<polygon fill="#ffcccc" stroke="#ffcccc" points="305,-63 305,-83 622,-83 622,-63 305,-63"/>
<polygon fill="none" stroke="black" points="305,-63 305,-83 622,-83 622,-63 305,-63"/>
<text text-anchor="start" x="350.5" y="-69.7333" font-family="Times Roman,serif" font-size="14.00">[INTEGER] ip_version (Optional) </text>
</a>
<a xlink:href="/idmef_parser/IDMEF/Service.html" xlink:title="The IANA protocol number.">
<polygon fill="#ffcccc" stroke="#ffcccc" points="305,-43 305,-63 622,-63 622,-43 305,-43"/>
<polygon fill="none" stroke="black" points="305,-43 305,-63 622,-63 622,-43 305,-43"/>
<text text-anchor="start" x="308.5" y="-49.7333" font-family="Times Roman,serif" font-size="14.00">[INTEGER] iana_protocol_number (Optional) </text>
</a>
<a xlink:href="/idmef_parser/IDMEF/Service.html" xlink:title="The IANA protocol name.">
<polygon fill="#ffcccc" stroke="#ffcccc" points="305,-23 305,-43 622,-43 622,-23 305,-23"/>
<polygon fill="none" stroke="black" points="305,-23 305,-43 622,-43 622,-23 305,-23"/>
<text text-anchor="start" x="320.5" y="-29.7333" font-family="Times Roman,serif" font-size="14.00">[STRING] iana_protocol_name (Optional) </text>
</a>
</g>
<!-- Source&#45;&gt;Service -->
<g id="edge16" class="edge"><title>Source&#45;&gt;Service</title>
<path fill="none" stroke="black" d="M178.367,-296.888C212.774,-272.843 256.429,-242.81 296,-217 297.658,-215.918 299.328,-214.833 301.006,-213.744"/>
<polygon fill="black" stroke="black" points="302.971,-216.642 309.472,-208.276 299.173,-210.762 302.971,-216.642"/>
<text text-anchor="middle" x="264" y="-250.4" font-family="Times Roman,serif" font-size="14.00">0..1</text>
</g>
<!-- Address -->
<g id="node3" class="node"><title>Address</title>
<a xlink:href="/idmef_parser/IDMEF/Address.html" xlink:title="The Address class is used to represent network, hardware, and application addresses. ">
<polygon fill="#007a00" stroke="#007a00" points="739,-616 739,-637 968,-637 968,-616 739,-616"/>
<polygon fill="none" stroke="black" points="739,-616 739,-637 968,-637 968,-616 739,-616"/>
<text text-anchor="start" x="826" y="-623.233" font-family="Times Roman,serif" font-size="14.00">Address</text>
</a>
<a xlink:href="/idmef_parser/IDMEF/Address.html" xlink:title="The address information. &#160;The format of this data is governed by the category attribute.">
<polygon fill="#00cc00" stroke="#00cc00" points="739,-596 739,-616 968,-616 968,-596 739,-596"/>
<polygon fill="none" stroke="black" points="739,-596 739,-616 968,-616 968,-596 739,-596"/>
<text text-anchor="start" x="778" y="-602.733" font-family="Times Roman,serif" font-size="14.00">[STRING] address (1) </text>
</a>
<a xlink:href="/idmef_parser/IDMEF/Address.html" xlink:title="The network mask for the address, if appropriate.">
<polygon fill="#00cc00" stroke="#00cc00" points="739,-576 739,-596 968,-596 968,-576 739,-576"/>
<polygon fill="none" stroke="black" points="739,-576 739,-596 968,-596 968,-576 739,-576"/>
<text text-anchor="start" x="766" y="-582.733" font-family="Times Roman,serif" font-size="14.00">[STRING] netmask (0..1) </text>
</a>
<a xlink:href="/idmef_parser/IDMEF/Address.html" xlink:title="A unique identifier for the address; see Section 3.2.9.">
<polygon fill="#00cc00" stroke="#00cc00" points="739,-556 739,-576 968,-576 968,-556 739,-556"/>
<polygon fill="none" stroke="black" points="739,-556 739,-576 968,-576 968,-556 739,-556"/>
<text text-anchor="start" x="762" y="-562.733" font-family="Times Roman,serif" font-size="14.00">[STRING] ident (Optional) </text>
</a>
<a xlink:href="/idmef_parser/IDMEF/Address.html" xlink:title="The type of address represented. &#160;The permitted values for this attribute are shown below. &#160;The default value is &quot;unknown&quot;. &#160;(See also Section 10.)">
<polygon fill="#00cc00" stroke="#00cc00" points="739,-536 739,-556 968,-556 968,-536 739,-536"/>
<polygon fill="none" stroke="black" points="739,-536 739,-556 968,-556 968,-536 739,-536"/>
<text text-anchor="start" x="755.5" y="-542.733" font-family="Times Roman,serif" font-size="14.00">[ENUM] category (Optional) </text>
</a>
<a xlink:href="/idmef_parser/IDMEF/Address.html" xlink:title="The name of the Virtual LAN to which the address belongs.">
<polygon fill="#00cc00" stroke="#00cc00" points="739,-516 739,-536 968,-536 968,-516 739,-516"/>
<polygon fill="none" stroke="black" points="739,-516 739,-536 968,-536 968,-516 739,-516"/>
<text text-anchor="start" x="743.5" y="-522.733" font-family="Times Roman,serif" font-size="14.00">[STRING] vlan&#45;name (Optional) </text>
</a>
<a xlink:href="/idmef_parser/IDMEF/Address.html" xlink:title="The number of the Virtual LAN to which the address belongs.">
<polygon fill="#00cc00" stroke="#00cc00" points="739,-496 739,-516 968,-516 968,-496 739,-496"/>
<polygon fill="none" stroke="black" points="739,-496 739,-516 968,-516 968,-496 739,-496"/>
<text text-anchor="start" x="742.5" y="-502.733" font-family="Times Roman,serif" font-size="14.00">[INTEGER] vlan&#45;num (Optional) </text>
</a>
</g>
<!-- Node&#45;&gt;Address -->
<g id="edge2" class="edge"><title>Node&#45;&gt;Address</title>
<path fill="none" stroke="black" d="M572.675,-549.03C618.528,-551.97 672.222,-555.412 720.278,-558.492"/>
<polygon fill="black" stroke="black" points="720.238,-561.997 730.442,-559.144 720.686,-555.011 720.238,-561.997"/>
<text text-anchor="middle" x="661" y="-559.4" font-family="Times Roman,serif" font-size="14.00">0..*</text>
</g>
<!-- UserId -->
<g id="node7" class="node"><title>UserId</title>
<a xlink:href="/idmef_parser/IDMEF/UserId.html" xlink:title="The UserId class provides specific information about a user. More than one UserId can be used within the User class to indicate attempts to transition from one user to another, or to provide complete information about a user&#39;s (or process&#39;) privileges. ">
<polygon fill="#3d7a99" stroke="#3d7a99" points="758,-450 758,-471 948,-471 948,-450 758,-450"/>
<polygon fill="none" stroke="black" points="758,-450 758,-471 948,-471 948,-450 758,-450"/>
<text text-anchor="start" x="830.5" y="-457.233" font-family="Times Roman,serif" font-size="14.00">UserId</text>
</a>
<a xlink:href="/idmef_parser/IDMEF/UserId.html" xlink:title="A user or group name.">
<polygon fill="#66ccff" stroke="#66ccff" points="758,-430 758,-450 948,-450 948,-430 758,-430"/>
<polygon fill="none" stroke="black" points="758,-430 758,-450 948,-450 948,-430 758,-430"/>
<text text-anchor="start" x="776" y="-436.733" font-family="Times Roman,serif" font-size="14.00">[STRING] name (0..1) </text>
</a>
<a xlink:href="/idmef_parser/IDMEF/UserId.html" xlink:title="A user or group number.">
<polygon fill="#66ccff" stroke="#66ccff" points="758,-410 758,-430 948,-430 948,-410 758,-410"/>
<polygon fill="none" stroke="black" points="758,-410 758,-430 948,-430 948,-410 758,-410"/>
<text text-anchor="start" x="764" y="-416.733" font-family="Times Roman,serif" font-size="14.00">[INTEGER] number (0..1) </text>
</a>
<a xlink:href="/idmef_parser/IDMEF/UserId.html" xlink:title="A unique identifier for the user id, see Section 3.2.9.">
<polygon fill="#66ccff" stroke="#66ccff" points="758,-390 758,-410 948,-410 948,-390 758,-390"/>
<polygon fill="none" stroke="black" points="758,-390 758,-410 948,-410 948,-390 758,-390"/>
<text text-anchor="start" x="761.5" y="-396.733" font-family="Times Roman,serif" font-size="14.00">[STRING] ident (Optional) </text>
</a>
<a xlink:href="/idmef_parser/IDMEF/UserId.html" xlink:title="The type of user information represented. &#160;The permitted values for this attribute are shown below. &#160;The default value is &quot;original&#45;user&quot;. &#160;(See also Section 10.)">
<polygon fill="#66ccff" stroke="#66ccff" points="758,-370 758,-390 948,-390 948,-370 758,-370"/>
<polygon fill="none" stroke="black" points="758,-370 758,-390 948,-390 948,-370 758,-370"/>
<text text-anchor="start" x="770" y="-376.733" font-family="Times Roman,serif" font-size="14.00">[ENUM] type (Optional) </text>
</a>
<a xlink:href="/idmef_parser/IDMEF/UserId.html" xlink:title="The tty the user is using.">
<polygon fill="#66ccff" stroke="#66ccff" points="758,-350 758,-370 948,-370 948,-350 758,-350"/>
<polygon fill="none" stroke="black" points="758,-350 758,-370 948,-370 948,-350 758,-350"/>
<text text-anchor="start" x="769" y="-356.733" font-family="Times Roman,serif" font-size="14.00">[STRING] tty (Optional) </text>
</a>
</g>
<!-- User&#45;&gt;UserId -->
<g id="edge6" class="edge"><title>User&#45;&gt;UserId</title>
<path fill="none" stroke="black" d="M572.675,-421.782C624.848,-419.775 687.172,-417.378 739.792,-415.354"/>
<polygon fill="black" stroke="black" points="739.981,-418.85 749.839,-414.968 739.712,-411.855 739.981,-418.85"/>
<text text-anchor="middle" x="661" y="-422.4" font-family="Times Roman,serif" font-size="14.00">1..*</text>
</g>
<!-- WebService -->
<g id="node13" class="node"><title>WebService</title>
<a xlink:href="/idmef_parser/IDMEF/WebService.html" xlink:title="The WebService class carries additional information related to web traffic. ">
<polygon fill="#997a7a" stroke="#997a7a" points="748,-289 748,-310 958,-310 958,-289 748,-289"/>
<polygon fill="none" stroke="black" points="748,-289 748,-310 958,-310 958,-289 748,-289"/>
<text text-anchor="start" x="812" y="-296.233" font-family="Times Roman,serif" font-size="14.00">WebService</text>
</a>
<a xlink:href="/idmef_parser/IDMEF/WebService.html" xlink:title="The URL in the request.">
<polygon fill="#ffcccc" stroke="#ffcccc" points="748,-269 748,-289 958,-289 958,-269 748,-269"/>
<polygon fill="none" stroke="black" points="748,-269 748,-289 958,-289 958,-269 748,-269"/>
<text text-anchor="start" x="794.5" y="-275.733" font-family="Times Roman,serif" font-size="14.00">[STRING] url (1) </text>
</a>
<a xlink:href="/idmef_parser/IDMEF/WebService.html" xlink:title="The CGI script in the request, without arguments.">
<polygon fill="#ffcccc" stroke="#ffcccc" points="748,-249 748,-269 958,-269 958,-249 748,-249"/>
<polygon fill="none" stroke="black" points="748,-249 748,-269 958,-269 958,-249 748,-249"/>
<text text-anchor="start" x="785.5" y="-255.733" font-family="Times Roman,serif" font-size="14.00">[STRING] cgi (0..1) </text>
</a>
<a xlink:href="/idmef_parser/IDMEF/WebService.html" xlink:title="The HTTP method (PUT, GET) used in the request.">
<polygon fill="#ffcccc" stroke="#ffcccc" points="748,-229 748,-249 958,-249 958,-229 748,-229"/>
<polygon fill="none" stroke="black" points="748,-229 748,-249 958,-249 958,-229 748,-229"/>
<text text-anchor="start" x="751.5" y="-235.733" font-family="Times Roman,serif" font-size="14.00">[STRING] http&#45;method (0..1) </text>
</a>
<a xlink:href="/idmef_parser/IDMEF/WebService.html" xlink:title="The arguments to the CGI script.">
<polygon fill="#ffcccc" stroke="#ffcccc" points="748,-209 748,-229 958,-229 958,-209 748,-209"/>
<polygon fill="none" stroke="black" points="748,-209 748,-229 958,-229 958,-209 748,-209"/>
<text text-anchor="start" x="784.5" y="-215.733" font-family="Times Roman,serif" font-size="14.00">[STRING] arg (0..*) </text>
</a>
</g>
<!-- Service&#45;&gt;WebService -->
<g id="edge12" class="edge"><title>Service&#45;&gt;WebService</title>
<path fill="none" stroke="black" d="M639.162,-179.948C673.41,-192.769 708.441,-205.883 739.975,-217.688"/>
<polygon fill="none" stroke="black" points="630.753,-173.063 638.892,-179.847 628.299,-179.618 630.753,-173.063"/>
</g>
<!-- SNMPService -->
<g id="node15" class="node"><title>SNMPService</title>
<a xlink:href="/idmef_parser/IDMEF/SNMPService.html" xlink:title="The SNMPService class carries additional information related to SNMP traffic. The aggregate classes composing SNMPService must be interpreted as described in RFC 3411 [15] and RFC 3584 [16]. ">
<polygon fill="#997a7a" stroke="#997a7a" points="701,-163 701,-184 1006,-184 1006,-163 701,-163"/>
<polygon fill="none" stroke="black" points="701,-163 701,-184 1006,-184 1006,-163 701,-163"/>
<text text-anchor="start" x="808" y="-170.233" font-family="Times Roman,serif" font-size="14.00">SNMPService</text>
</a>
<a xlink:href="/idmef_parser/IDMEF/SNMPService.html" xlink:title="The object identifier in the request.">
<polygon fill="#ffcccc" stroke="#ffcccc" points="701,-143 701,-163 1006,-163 1006,-143 701,-143"/>
<polygon fill="none" stroke="black" points="701,-143 701,-163 1006,-163 1006,-143 701,-143"/>
<text text-anchor="start" x="785.5" y="-149.733" font-family="Times Roman,serif" font-size="14.00">[STRING] oid (0..1) </text>
</a>
<a xlink:href="/idmef_parser/IDMEF/SNMPService.html" xlink:title="The SNMP version, typically 0 for SNMPv1, 1 for SNMPv2c, 2 for SNMPv2u and SNMPv2*, and 3 for SNMPv3; see RFC 3411 [15] Section 5 for appropriate values.">
<polygon fill="#ffcccc" stroke="#ffcccc" points="701,-123 701,-143 1006,-143 1006,-123 701,-123"/>
<polygon fill="none" stroke="black" points="701,-123 701,-143 1006,-143 1006,-123 701,-123"/>
<text text-anchor="start" x="704.5" y="-129.733" font-family="Times Roman,serif" font-size="14.00">[INTEGER] messageProcessingModel (0..1) </text>
</a>
<a xlink:href="/idmef_parser/IDMEF/SNMPService.html" xlink:title="The identification of the security model in use, typically 0 for any, 1 for SNMPv1, 2 for SNMPv2c, and 3 for USM; see RFC 3411 [15] Section 5 for appropriate values.">
<polygon fill="#ffcccc" stroke="#ffcccc" points="701,-103 701,-123 1006,-123 1006,-103 701,-103"/>
<polygon fill="none" stroke="black" points="701,-103 701,-123 1006,-123 1006,-103 701,-103"/>
<text text-anchor="start" x="743.5" y="-109.733" font-family="Times Roman,serif" font-size="14.00">[INTEGER] securityModel (0..1) </text>
</a>
<a xlink:href="/idmef_parser/IDMEF/SNMPService.html" xlink:title="The object&#39;s security name; see RFC 3411 [15] Section 3.2.2.">
<polygon fill="#ffcccc" stroke="#ffcccc" points="701,-83 701,-103 1006,-103 1006,-83 701,-83"/>
<polygon fill="none" stroke="black" points="701,-83 701,-103 1006,-103 1006,-83 701,-83"/>
<text text-anchor="start" x="748" y="-89.7333" font-family="Times Roman,serif" font-size="14.00">[STRING] securityName (0..1) </text>
</a>
<a xlink:href="/idmef_parser/IDMEF/SNMPService.html" xlink:title="The security level of the SNMP request; see RFC 3411 [15] Section 3.4.3.">
<polygon fill="#ffcccc" stroke="#ffcccc" points="701,-63 701,-83 1006,-83 1006,-63 701,-63"/>
<polygon fill="none" stroke="black" points="701,-63 701,-83 1006,-83 1006,-63 701,-63"/>
<text text-anchor="start" x="745" y="-69.7333" font-family="Times Roman,serif" font-size="14.00">[INTEGER] securityLevel (0..1) </text>
</a>
<a xlink:href="/idmef_parser/IDMEF/SNMPService.html" xlink:title="The object&#39;s context name; see RFC 3411 [15] Section 3.3.3.">
<polygon fill="#ffcccc" stroke="#ffcccc" points="701,-43 701,-63 1006,-63 1006,-43 701,-43"/>
<polygon fill="none" stroke="black" points="701,-43 701,-63 1006,-63 1006,-43 701,-43"/>
<text text-anchor="start" x="749.5" y="-49.7333" font-family="Times Roman,serif" font-size="14.00">[STRING] contextName (0..1) </text>
</a>
<a xlink:href="/idmef_parser/IDMEF/SNMPService.html" xlink:title="The object&#39;s context engine identifier; see RFC 3411 [15] Section 3.3.2.">
<polygon fill="#ffcccc" stroke="#ffcccc" points="701,-23 701,-43 1006,-43 1006,-23 701,-23"/>
<polygon fill="none" stroke="black" points="701,-23 701,-43 1006,-43 1006,-23 701,-23"/>
<text text-anchor="start" x="737.5" y="-29.7333" font-family="Times Roman,serif" font-size="14.00">[STRING] contextEngineID (0..1) </text>
</a>
<a xlink:href="/idmef_parser/IDMEF/SNMPService.html" xlink:title="The command sent to the SNMP server (GET, SET, etc.).">
<polygon fill="#ffcccc" stroke="#ffcccc" points="701,-3 701,-23 1006,-23 1006,-3 701,-3"/>
<polygon fill="none" stroke="black" points="701,-3 701,-23 1006,-23 1006,-3 701,-3"/>
<text text-anchor="start" x="762.5" y="-9.73333" font-family="Times Roman,serif" font-size="14.00">[STRING] command (0..1) </text>
</a>
</g>
<!-- Service&#45;&gt;SNMPService -->
<g id="edge14" class="edge"><title>Service&#45;&gt;SNMPService</title>
<path fill="none" stroke="black" d="M639.799,-104.933C657.291,-104.036 674.981,-103.129 692.298,-102.241"/>
<polygon fill="none" stroke="black" points="629.347,-101.965 639.513,-104.948 629.706,-108.956 629.347,-101.965"/>
</g>
</g>
</svg>
