<?xml version="1.0" encoding="UTF-8" standalone="no"?>
<!DOCTYPE svg PUBLIC "-//W3C//DTD SVG 1.1//EN"
 "http://www.w3.org/Graphics/SVG/1.1/DTD/svg11.dtd">
<!-- Generated by graphviz version 2.26.3 (20100126.1600)
 -->
<!-- Title: Source Pages: 1 -->
<svg width="1002pt" height="649pt"
 viewBox="0.00 0.00 1002.00 649.00" xmlns="http://www.w3.org/2000/svg" xmlns:xlink="http://www.w3.org/1999/xlink">
<g id="graph1" class="graph" transform="scale(1 1) rotate(0) translate(4 645)">
<title>Source</title>
<polygon fill="white" stroke="white" points="-4,5 -4,-645 999,-645 999,5 -4,5"/>
<!-- Source -->
<g id="node1" class="node"><title>Source</title>
<a xlink:href="#" xlink:title="The Source class contains information about the possible source(s) of the event(s) that generated an alert. An event may have more than one source (e.g., in a distributed denial&#45;of&#45;service attack). ">
<polygon fill="#182f5f" stroke="#182f5f" points="9,-360 9,-381 204,-381 204,-360 9,-360"/>
<polygon fill="none" stroke="black" points="9,-360 9,-381 204,-381 204,-360 9,-360"/>
<text text-anchor="start" x="82.5" y="-367.233" font-family="Times Roman,serif" font-size="14.00">Source</text>
</a>
<a xlink:href="#" xlink:title="A unique identifier for this source; see Section 3.2.9.">
<polygon fill="#284f9f" stroke="#284f9f" points="9,-340 9,-360 204,-360 204,-340 9,-340"/>
<polygon fill="none" stroke="black" points="9,-340 9,-360 204,-360 204,-340 9,-340"/>
<text text-anchor="start" x="42" y="-346.733" font-family="Times Roman,serif" font-size="14.00">[] ident (Optional) </text>
</a>
<a xlink:href="#" xlink:title="An indication of whether the source is, as far as the analyzer can determine, a spoofed address used for hiding the real origin of the attack. &#160;The permitted values for this attribute are shown below. &#160;The default value is &quot;unknown&quot;. &#160;(See also Section 10.)">
<polygon fill="#284f9f" stroke="#284f9f" points="9,-320 9,-340 204,-340 204,-320 9,-320"/>
<polygon fill="none" stroke="black" points="9,-320 9,-340 204,-340 204,-320 9,-320"/>
<text text-anchor="start" x="12.5" y="-326.733" font-family="Times Roman,serif" font-size="14.00">[ENUM] spoofed (Optional) </text>
</a>
<a xlink:href="#" xlink:title="May be used by a network&#45;based analyzer with multiple interfaces to indicate which interface this source was seen on.">
<polygon fill="#284f9f" stroke="#284f9f" points="9,-300 9,-320 204,-320 204,-300 9,-300"/>
<polygon fill="none" stroke="black" points="9,-300 9,-320 204,-320 204,-300 9,-300"/>
<text text-anchor="start" x="29.5" y="-306.733" font-family="Times Roman,serif" font-size="14.00">[] interface (Optional) </text>
</a>
</g>
<!-- Node -->
<g id="node2" class="node"><title>Node</title>
<a xlink:href="#" xlink:title="The Node class is used to identify hosts and other network devices (routers, switches, etc.). ">
<polygon fill="#007a00" stroke="#007a00" points="342,-571 342,-592 545,-592 545,-571 342,-571"/>
<polygon fill="none" stroke="black" points="342,-571 342,-592 545,-592 545,-571 342,-571"/>
<text text-anchor="start" x="425.5" y="-578.233" font-family="Times Roman,serif" font-size="14.00">Node</text>
</a>
<a xlink:href="#" xlink:title="The location of the equipment.">
<polygon fill="#00cc00" stroke="#00cc00" points="342,-551 342,-571 545,-571 545,-551 342,-551"/>
<polygon fill="none" stroke="black" points="342,-551 342,-571 545,-571 545,-551 342,-551"/>
<text text-anchor="start" x="358.5" y="-557.733" font-family="Times Roman,serif" font-size="14.00">[STRING] location (0..1) </text>
</a>
<a xlink:href="#" xlink:title="The name of the equipment. &#160;This information MUST be provided if no Address information is given.">
<polygon fill="#00cc00" stroke="#00cc00" points="342,-531 342,-551 545,-551 545,-531 342,-531"/>
<polygon fill="none" stroke="black" points="342,-531 342,-551 545,-551 545,-531 342,-531"/>
<text text-anchor="start" x="366.5" y="-537.733" font-family="Times Roman,serif" font-size="14.00">[STRING] name (0..1) </text>
</a>
<a xlink:href="#" xlink:title="A unique identifier for the node; see Section 3.2.9.">
<polygon fill="#00cc00" stroke="#00cc00" points="342,-511 342,-531 545,-531 545,-511 342,-511"/>
<polygon fill="none" stroke="black" points="342,-511 342,-531 545,-531 545,-511 342,-511"/>
<text text-anchor="start" x="379" y="-517.733" font-family="Times Roman,serif" font-size="14.00">[] ident (Optional) </text>
</a>
<a xlink:href="#" xlink:title="The &quot;domain&quot; from which the name information was obtained, if relevant. &#160;The permitted values for this attribute are shown in the table below. &#160;The default value is &quot;unknown&quot;. (See also Section 10 for extensions to the table.)">
<polygon fill="#00cc00" stroke="#00cc00" points="342,-491 342,-511 545,-511 545,-491 342,-491"/>
<polygon fill="none" stroke="black" points="342,-491 342,-511 545,-511 545,-491 342,-491"/>
<text text-anchor="start" x="345.5" y="-497.733" font-family="Times Roman,serif" font-size="14.00">[ENUM] category (Optional) </text>
</a>
</g>
<!-- Source&#45;&gt;Node -->
<g id="edge4" class="edge"><title>Source&#45;&gt;Node</title>
<path fill="none" stroke="black" d="M158.123,-385.288C190.676,-411.641 234.212,-444.586 276,-469 291.214,-477.889 307.712,-486.364 324.214,-494.187"/>
<polygon fill="black" stroke="black" points="322.833,-497.404 333.375,-498.463 325.794,-491.061 322.833,-497.404"/>
<text text-anchor="middle" x="244" y="-460.4" font-family="Times Roman,serif" font-size="14.00">0..1</text>
</g>
<!-- User -->
<g id="node6" class="node"><title>User</title>
<a xlink:href="#" xlink:title="The User class is used to describe users. It is primarily used as a &quot;container&quot; class for the UserId aggregate class, as shown in Figure 16. ">
<polygon fill="#3d7a99" stroke="#3d7a99" points="342,-435 342,-456 545,-456 545,-435 342,-435"/>
<polygon fill="none" stroke="black" points="342,-435 342,-456 545,-456 545,-435 342,-435"/>
<text text-anchor="start" x="427.5" y="-442.233" font-family="Times Roman,serif" font-size="14.00">User</text>
</a>
<a xlink:href="#" xlink:title="A unique identifier for the user; see Section 3.2.9.">
<polygon fill="#66ccff" stroke="#66ccff" points="342,-415 342,-435 545,-435 545,-415 342,-415"/>
<polygon fill="none" stroke="black" points="342,-415 342,-435 545,-435 545,-415 342,-415"/>
<text text-anchor="start" x="379" y="-421.733" font-family="Times Roman,serif" font-size="14.00">[] ident (Optional) </text>
</a>
<a xlink:href="#" xlink:title="The type of user represented. &#160;The permitted values for this attribute are shown below. &#160;The default value is &quot;unknown&quot;. (See also Section 10.)">
<polygon fill="#66ccff" stroke="#66ccff" points="342,-395 342,-415 545,-415 545,-395 342,-395"/>
<polygon fill="none" stroke="black" points="342,-395 342,-415 545,-415 545,-395 342,-395"/>
<text text-anchor="start" x="345.5" y="-401.733" font-family="Times Roman,serif" font-size="14.00">[ENUM] category (Optional) </text>
</a>
</g>
<!-- Source&#45;&gt;User -->
<g id="edge8" class="edge"><title>Source&#45;&gt;User</title>
<path fill="none" stroke="black" d="M211.704,-367.661C247.232,-376.622 287.106,-386.679 323.61,-395.887"/>
<polygon fill="black" stroke="black" points="322.758,-399.281 333.31,-398.333 324.47,-392.494 322.758,-399.281"/>
<text text-anchor="middle" x="244" y="-382.4" font-family="Times Roman,serif" font-size="14.00">0..1</text>
</g>
<!-- Process -->
<g id="node10" class="node"><title>Process</title>
<a xlink:href="#" xlink:title="The Process class is used to describe processes being executed on sources, targets, and analyzers. ">
<polygon fill="#997a3d" stroke="#997a3d" points="366,-349 366,-370 521,-370 521,-349 366,-349"/>
<polygon fill="none" stroke="black" points="366,-349 366,-370 521,-370 521,-349 366,-349"/>
<text text-anchor="start" x="417.5" y="-356.233" font-family="Times Roman,serif" font-size="14.00">Process</text>
</a>
<a xlink:href="#" xlink:title="The name of the program being executed. This is a short name; path and argument information are provided elsewhere.">
<polygon fill="#ffcc66" stroke="#ffcc66" points="366,-329 366,-349 521,-349 521,-329 366,-329"/>
<polygon fill="none" stroke="black" points="366,-329 366,-349 521,-349 521,-329 366,-329"/>
<text text-anchor="start" x="375.5" y="-335.733" font-family="Times Roman,serif" font-size="14.00">[STRING] name (1) </text>
</a>
<a xlink:href="#" xlink:title="The process identifier of the process.">
<polygon fill="#ffcc66" stroke="#ffcc66" points="366,-309 366,-329 521,-329 521,-309 366,-309"/>
<polygon fill="none" stroke="black" points="366,-309 366,-329 521,-329 521,-309 366,-309"/>
<text text-anchor="start" x="371" y="-315.733" font-family="Times Roman,serif" font-size="14.00">[INTEGER] pid (0..1) </text>
</a>
<a xlink:href="#" xlink:title="The full path of the program being executed.">
<polygon fill="#ffcc66" stroke="#ffcc66" points="366,-289 366,-309 521,-309 521,-289 366,-289"/>
<polygon fill="none" stroke="black" points="366,-289 366,-309 521,-309 521,-289 366,-289"/>
<text text-anchor="start" x="369.5" y="-295.733" font-family="Times Roman,serif" font-size="14.00">[STRING] path (0..1) </text>
</a>
<a xlink:href="#" xlink:title="A command&#45;line argument to the program. Multiple arguments may be specified (they are assumed to have occurred in the same order they are provided) with multiple uses of arg.">
<polygon fill="#ffcc66" stroke="#ffcc66" points="366,-269 366,-289 521,-289 521,-269 366,-269"/>
<polygon fill="none" stroke="black" points="366,-269 366,-289 521,-289 521,-269 366,-269"/>
<text text-anchor="start" x="375" y="-275.733" font-family="Times Roman,serif" font-size="14.00">[STRING] arg (0..*) </text>
</a>
<a xlink:href="#" xlink:title="An environment string associated with the process; generally of the format &quot;VARIABLE=value&quot;. &#160;Multiple environment strings may be specified with multiple uses of env.">
<polygon fill="#ffcc66" stroke="#ffcc66" points="366,-249 366,-269 521,-269 521,-249 366,-249"/>
<polygon fill="none" stroke="black" points="366,-249 366,-269 521,-269 521,-249 366,-249"/>
<text text-anchor="start" x="373.5" y="-255.733" font-family="Times Roman,serif" font-size="14.00">[STRING] env (0..*) </text>
</a>
<a xlink:href="#" xlink:title="A unique identifier for the process; see Section 3.2.9.">
<polygon fill="#ffcc66" stroke="#ffcc66" points="366,-229 366,-249 521,-249 521,-229 366,-229"/>
<polygon fill="none" stroke="black" points="366,-229 366,-249 521,-249 521,-229 366,-229"/>
<text text-anchor="start" x="379" y="-235.733" font-family="Times Roman,serif" font-size="14.00">[] ident (Optional) </text>
</a>
</g>
<!-- Source&#45;&gt;Process -->
<g id="edge10" class="edge"><title>Source&#45;&gt;Process</title>
<path fill="none" stroke="black" d="M211.704,-328.14C255.129,-322.857 305.047,-316.784 347.369,-311.635"/>
<polygon fill="black" stroke="black" points="347.89,-315.097 357.394,-310.415 347.044,-308.148 347.89,-315.097"/>
<text text-anchor="middle" x="244" y="-329.4" font-family="Times Roman,serif" font-size="14.00">0..1</text>
</g>
<!-- Service -->
<g id="node12" class="node"><title>Service</title>
<a xlink:href="#" xlink:title="The Service class describes network services on sources and targets. It can identify services by name, port, and protocol. When Service occurs as an aggregate class of Source, it is understood that the service is one from which activity of interest is originating; and that the service is &quot;attached&quot; to the Node, Process, and User information also contained in Source. Likewise, when Service occurs as an aggregate class of Target, it is understood that the service is one to which activity of interest is being directed; and that the service is &quot;attached&quot; to the Node, Process, and User information also contained in Target. If Service occurs in both Source and Target, then information in both locations should be the same. If information is the same in both locations and implementers wish to carry it in only one location, they should specify it as an aggregate of the Target class. ">
<polygon fill="#997a7a" stroke="#997a7a" points="285,-183 285,-204 602,-204 602,-183 285,-183"/>
<polygon fill="none" stroke="black" points="285,-183 285,-204 602,-204 602,-183 285,-183"/>
<text text-anchor="start" x="418" y="-190.233" font-family="Times Roman,serif" font-size="14.00">Service</text>
</a>
<a xlink:href="#" xlink:title="The name of the service. &#160;Whenever possible, the name from the IANA list of well&#45;known ports SHOULD be used.">
<polygon fill="#ffcccc" stroke="#ffcccc" points="285,-163 285,-183 602,-183 602,-163 285,-163"/>
<polygon fill="none" stroke="black" points="285,-163 285,-183 602,-183 602,-163 285,-163"/>
<text text-anchor="start" x="366.5" y="-169.733" font-family="Times Roman,serif" font-size="14.00">[STRING] name (0..1) </text>
</a>
<a xlink:href="#" xlink:title="The port number being used.">
<polygon fill="#ffcccc" stroke="#ffcccc" points="285,-143 285,-163 602,-163 602,-143 285,-143"/>
<polygon fill="none" stroke="black" points="285,-143 285,-163 602,-163 602,-143 285,-143"/>
<text text-anchor="start" x="366.5" y="-149.733" font-family="Times Roman,serif" font-size="14.00">[INTEGER] port (0..1) </text>
</a>
<a xlink:href="#" xlink:title="A list of port numbers being used; see Section 3.2.8 for formatting rules. &#160;If a portlist is given, the iana_protocol_number and iana_protocol_name MUST apply to all the elements of the list.">
<polygon fill="#ffcccc" stroke="#ffcccc" points="285,-123 285,-143 602,-143 602,-123 285,-123"/>
<polygon fill="none" stroke="black" points="285,-123 285,-143 602,-143 602,-123 285,-123"/>
<text text-anchor="start" x="353.5" y="-129.733" font-family="Times Roman,serif" font-size="14.00">[PORTLIST] portlist (0..1) </text>
</a>
<a xlink:href="#" xlink:title="Additional information about the protocol being used. &#160;The intent of the protocol field is to carry additional information related to the protocol being used when the &lt;Service&gt; attributes iana_protocol_number or/and iana_protocol_name are filed.">
<polygon fill="#ffcccc" stroke="#ffcccc" points="285,-103 285,-123 602,-123 602,-103 285,-103"/>
<polygon fill="none" stroke="black" points="285,-103 285,-123 602,-123 602,-103 285,-103"/>
<text text-anchor="start" x="357.5" y="-109.733" font-family="Times Roman,serif" font-size="14.00">[STRING] protocol (0..1) </text>
</a>
<a xlink:href="#" xlink:title="A unique identifier for the service; see Section 3.2.9.">
<polygon fill="#ffcccc" stroke="#ffcccc" points="285,-83 285,-103 602,-103 602,-83 285,-83"/>
<polygon fill="none" stroke="black" points="285,-83 285,-103 602,-103 602,-83 285,-83"/>
<text text-anchor="start" x="379" y="-89.7333" font-family="Times Roman,serif" font-size="14.00">[] ident (Optional) </text>
</a>
<a xlink:href="#" xlink:title="The IP version number.">
<polygon fill="#ffcccc" stroke="#ffcccc" points="285,-63 285,-83 602,-83 602,-63 285,-63"/>
<polygon fill="none" stroke="black" points="285,-63 285,-83 602,-83 602,-63 285,-63"/>
<text text-anchor="start" x="330.5" y="-69.7333" font-family="Times Roman,serif" font-size="14.00">[INTEGER] ip_version (Optional) </text>
</a>
<a xlink:href="#" xlink:title="The IANA protocol number.">
<polygon fill="#ffcccc" stroke="#ffcccc" points="285,-43 285,-63 602,-63 602,-43 285,-43"/>
<polygon fill="none" stroke="black" points="285,-43 285,-63 602,-63 602,-43 285,-43"/>
<text text-anchor="start" x="288.5" y="-49.7333" font-family="Times Roman,serif" font-size="14.00">[INTEGER] iana_protocol_number (Optional) </text>
</a>
<a xlink:href="#" xlink:title="The IANA protocol name.">
<polygon fill="#ffcccc" stroke="#ffcccc" points="285,-23 285,-43 602,-43 602,-23 285,-23"/>
<polygon fill="none" stroke="black" points="285,-23 285,-43 602,-43 602,-23 285,-23"/>
<text text-anchor="start" x="300.5" y="-29.7333" font-family="Times Roman,serif" font-size="14.00">[STRING] iana_protocol_name (Optional) </text>
</a>
</g>
<!-- Source&#45;&gt;Service -->
<g id="edge16" class="edge"><title>Source&#45;&gt;Service</title>
<path fill="none" stroke="black" d="M164.209,-296.821C196.673,-272.62 238.092,-242.46 276,-217 277.644,-215.896 279.299,-214.789 280.964,-213.68"/>
<polygon fill="black" stroke="black" points="282.96,-216.556 289.368,-208.119 279.097,-210.719 282.96,-216.556"/>
<text text-anchor="middle" x="244" y="-250.4" font-family="Times Roman,serif" font-size="14.00">0..1</text>
</g>
<!-- Address -->
<g id="node3" class="node"><title>Address</title>
<a xlink:href="#" xlink:title="The Address class is used to represent network, hardware, and application addresses. ">
<polygon fill="#007a00" stroke="#007a00" points="732,-616 732,-637 935,-637 935,-616 732,-616"/>
<polygon fill="none" stroke="black" points="732,-616 732,-637 935,-637 935,-616 732,-616"/>
<text text-anchor="start" x="806" y="-623.233" font-family="Times Roman,serif" font-size="14.00">Address</text>
</a>
<a xlink:href="#" xlink:title="The address information. &#160;The format of this data is governed by the category attribute.">
<polygon fill="#00cc00" stroke="#00cc00" points="732,-596 732,-616 935,-616 935,-596 732,-596"/>
<polygon fill="none" stroke="black" points="732,-596 732,-616 935,-616 935,-596 732,-596"/>
<text text-anchor="start" x="758" y="-602.733" font-family="Times Roman,serif" font-size="14.00">[STRING] address (1) </text>
</a>
<a xlink:href="#" xlink:title="The network mask for the address, if appropriate.">
<polygon fill="#00cc00" stroke="#00cc00" points="732,-576 732,-596 935,-596 935,-576 732,-576"/>
<polygon fill="none" stroke="black" points="732,-576 732,-596 935,-596 935,-576 732,-576"/>
<text text-anchor="start" x="746" y="-582.733" font-family="Times Roman,serif" font-size="14.00">[STRING] netmask (0..1) </text>
</a>
<a xlink:href="#" xlink:title="A unique identifier for the address; see Section 3.2.9.">
<polygon fill="#00cc00" stroke="#00cc00" points="732,-556 732,-576 935,-576 935,-556 732,-556"/>
<polygon fill="none" stroke="black" points="732,-556 732,-576 935,-576 935,-556 732,-556"/>
<text text-anchor="start" x="769" y="-562.733" font-family="Times Roman,serif" font-size="14.00">[] ident (Optional) </text>
</a>
<a xlink:href="#" xlink:title="The type of address represented. &#160;The permitted values for this attribute are shown below. &#160;The default value is &quot;unknown&quot;. &#160;(See also Section 10.)">
<polygon fill="#00cc00" stroke="#00cc00" points="732,-536 732,-556 935,-556 935,-536 732,-536"/>
<polygon fill="none" stroke="black" points="732,-536 732,-556 935,-556 935,-536 732,-536"/>
<text text-anchor="start" x="735.5" y="-542.733" font-family="Times Roman,serif" font-size="14.00">[ENUM] category (Optional) </text>
</a>
<a xlink:href="#" xlink:title="The name of the Virtual LAN to which the address belongs.">
<polygon fill="#00cc00" stroke="#00cc00" points="732,-516 732,-536 935,-536 935,-516 732,-516"/>
<polygon fill="none" stroke="black" points="732,-516 732,-536 935,-536 935,-516 732,-516"/>
<text text-anchor="start" x="750.5" y="-522.733" font-family="Times Roman,serif" font-size="14.00">[] vlan&#45;name (Optional) </text>
</a>
<a xlink:href="#" xlink:title="The number of the Virtual LAN to which the address belongs.">
<polygon fill="#00cc00" stroke="#00cc00" points="732,-496 732,-516 935,-516 935,-496 732,-496"/>
<polygon fill="none" stroke="black" points="732,-496 732,-516 935,-516 935,-496 732,-496"/>
<text text-anchor="start" x="754" y="-502.733" font-family="Times Roman,serif" font-size="14.00">[] vlan&#45;num (Optional) </text>
</a>
</g>
<!-- Node&#45;&gt;Address -->
<g id="edge2" class="edge"><title>Node&#45;&gt;Address</title>
<path fill="none" stroke="black" d="M552.675,-549.03C602.733,-552.239 662.136,-556.047 713.346,-559.33"/>
<polygon fill="black" stroke="black" points="713.27,-562.832 723.474,-559.979 713.718,-555.846 713.27,-562.832"/>
<text text-anchor="middle" x="641" y="-559.4" font-family="Times Roman,serif" font-size="14.00">0..*</text>
</g>
<!-- UserId -->
<g id="node7" class="node"><title>UserId</title>
<a xlink:href="#" xlink:title="The UserId class provides specific information about a user. More than one UserId can be used within the User class to indicate attempts to transition from one user to another, or to provide complete information about a user&#39;s (or process&#39;) privileges. ">
<polygon fill="#3d7a99" stroke="#3d7a99" points="741,-450 741,-471 926,-471 926,-450 741,-450"/>
<polygon fill="none" stroke="black" points="741,-450 741,-471 926,-471 926,-450 741,-450"/>
<text text-anchor="start" x="811" y="-457.233" font-family="Times Roman,serif" font-size="14.00">UserId</text>
</a>
<a xlink:href="#" xlink:title="A user or group name.">
<polygon fill="#66ccff" stroke="#66ccff" points="741,-430 741,-450 926,-450 926,-430 741,-430"/>
<polygon fill="none" stroke="black" points="741,-430 741,-450 926,-450 926,-430 741,-430"/>
<text text-anchor="start" x="756.5" y="-436.733" font-family="Times Roman,serif" font-size="14.00">[STRING] name (0..1) </text>
</a>
<a xlink:href="#" xlink:title="A user or group number.">
<polygon fill="#66ccff" stroke="#66ccff" points="741,-410 741,-430 926,-430 926,-410 741,-410"/>
<polygon fill="none" stroke="black" points="741,-410 741,-430 926,-430 926,-410 741,-410"/>
<text text-anchor="start" x="744.5" y="-416.733" font-family="Times Roman,serif" font-size="14.00">[INTEGER] number (0..1) </text>
</a>
<a xlink:href="#" xlink:title="A unique identifier for the user id, see Section 3.2.9.">
<polygon fill="#66ccff" stroke="#66ccff" points="741,-390 741,-410 926,-410 926,-390 741,-390"/>
<polygon fill="none" stroke="black" points="741,-390 741,-410 926,-410 926,-390 741,-390"/>
<text text-anchor="start" x="769" y="-396.733" font-family="Times Roman,serif" font-size="14.00">[] ident (Optional) </text>
</a>
<a xlink:href="#" xlink:title="The type of user information represented. &#160;The permitted values for this attribute are shown below. &#160;The default value is &quot;original&#45;user&quot;. &#160;(See also Section 10.)">
<polygon fill="#66ccff" stroke="#66ccff" points="741,-370 741,-390 926,-390 926,-370 741,-370"/>
<polygon fill="none" stroke="black" points="741,-370 741,-390 926,-390 926,-370 741,-370"/>
<text text-anchor="start" x="750.5" y="-376.733" font-family="Times Roman,serif" font-size="14.00">[ENUM] type (Optional) </text>
</a>
<a xlink:href="#" xlink:title="The tty the user is using.">
<polygon fill="#66ccff" stroke="#66ccff" points="741,-350 741,-370 926,-370 926,-350 741,-350"/>
<polygon fill="none" stroke="black" points="741,-350 741,-370 926,-370 926,-350 741,-350"/>
<text text-anchor="start" x="749.5" y="-356.733" font-family="Times Roman,serif" font-size="14.00">[STRING] tty (Optional) </text>
</a>
</g>
<!-- User&#45;&gt;UserId -->
<g id="edge6" class="edge"><title>User&#45;&gt;UserId</title>
<path fill="none" stroke="black" d="M552.675,-421.782C605.695,-419.743 669.198,-417.3 722.346,-415.256"/>
<polygon fill="black" stroke="black" points="722.629,-418.748 732.487,-414.866 722.36,-411.753 722.629,-418.748"/>
<text text-anchor="middle" x="641" y="-422.4" font-family="Times Roman,serif" font-size="14.00">1..*</text>
</g>
<!-- WebService -->
<g id="node13" class="node"><title>WebService</title>
<a xlink:href="#" xlink:title="The WebService class carries additional information related to web traffic. ">
<polygon fill="#997a7a" stroke="#997a7a" points="728,-289 728,-310 938,-310 938,-289 728,-289"/>
<polygon fill="none" stroke="black" points="728,-289 728,-310 938,-310 938,-289 728,-289"/>
<text text-anchor="start" x="792" y="-296.233" font-family="Times Roman,serif" font-size="14.00">WebService</text>
</a>
<a xlink:href="#" xlink:title="The URL in the request.">
<polygon fill="#ffcccc" stroke="#ffcccc" points="728,-269 728,-289 938,-289 938,-269 728,-269"/>
<polygon fill="none" stroke="black" points="728,-269 728,-289 938,-289 938,-269 728,-269"/>
<text text-anchor="start" x="774.5" y="-275.733" font-family="Times Roman,serif" font-size="14.00">[STRING] url (1) </text>
</a>
<a xlink:href="#" xlink:title="The CGI script in the request, without arguments.">
<polygon fill="#ffcccc" stroke="#ffcccc" points="728,-249 728,-269 938,-269 938,-249 728,-249"/>
<polygon fill="none" stroke="black" points="728,-249 728,-269 938,-269 938,-249 728,-249"/>
<text text-anchor="start" x="765.5" y="-255.733" font-family="Times Roman,serif" font-size="14.00">[STRING] cgi (0..1) </text>
</a>
<a xlink:href="#" xlink:title="The HTTP method (PUT, GET) used in the request.">
<polygon fill="#ffcccc" stroke="#ffcccc" points="728,-229 728,-249 938,-249 938,-229 728,-229"/>
<polygon fill="none" stroke="black" points="728,-229 728,-249 938,-249 938,-229 728,-229"/>
<text text-anchor="start" x="731.5" y="-235.733" font-family="Times Roman,serif" font-size="14.00">[STRING] http&#45;method (0..1) </text>
</a>
<a xlink:href="#" xlink:title="The arguments to the CGI script.">
<polygon fill="#ffcccc" stroke="#ffcccc" points="728,-209 728,-229 938,-229 938,-209 728,-209"/>
<polygon fill="none" stroke="black" points="728,-209 728,-229 938,-229 938,-209 728,-209"/>
<text text-anchor="start" x="764.5" y="-215.733" font-family="Times Roman,serif" font-size="14.00">[STRING] arg (0..*) </text>
</a>
</g>
<!-- Service&#45;&gt;WebService -->
<g id="edge12" class="edge"><title>Service&#45;&gt;WebService</title>
<path fill="none" stroke="black" d="M619.162,-179.948C653.41,-192.769 688.441,-205.883 719.975,-217.688"/>
<polygon fill="none" stroke="black" points="610.753,-173.063 618.892,-179.847 608.299,-179.618 610.753,-173.063"/>
</g>
<!-- SNMPService -->
<g id="node15" class="node"><title>SNMPService</title>
<a xlink:href="#" xlink:title="The SNMPService class carries additional information related to SNMP traffic. The aggregate classes composing SNMPService must be interpreted as described in RFC 3411 [15] and RFC 3584 [16]. ">
<polygon fill="#997a7a" stroke="#997a7a" points="681,-163 681,-184 986,-184 986,-163 681,-163"/>
<polygon fill="none" stroke="black" points="681,-163 681,-184 986,-184 986,-163 681,-163"/>
<text text-anchor="start" x="788" y="-170.233" font-family="Times Roman,serif" font-size="14.00">SNMPService</text>
</a>
<a xlink:href="#" xlink:title="The object identifier in the request.">
<polygon fill="#ffcccc" stroke="#ffcccc" points="681,-143 681,-163 986,-163 986,-143 681,-143"/>
<polygon fill="none" stroke="black" points="681,-143 681,-163 986,-163 986,-143 681,-143"/>
<text text-anchor="start" x="765.5" y="-149.733" font-family="Times Roman,serif" font-size="14.00">[STRING] oid (0..1) </text>
</a>
<a xlink:href="#" xlink:title="The SNMP version, typically 0 for SNMPv1, 1 for SNMPv2c, 2 for SNMPv2u and SNMPv2*, and 3 for SNMPv3; see RFC 3411 [15] Section 5 for appropriate values.">
<polygon fill="#ffcccc" stroke="#ffcccc" points="681,-123 681,-143 986,-143 986,-123 681,-123"/>
<polygon fill="none" stroke="black" points="681,-123 681,-143 986,-143 986,-123 681,-123"/>
<text text-anchor="start" x="684.5" y="-129.733" font-family="Times Roman,serif" font-size="14.00">[INTEGER] messageProcessingModel (0..1) </text>
</a>
<a xlink:href="#" xlink:title="The identification of the security model in use, typically 0 for any, 1 for SNMPv1, 2 for SNMPv2c, and 3 for USM; see RFC 3411 [15] Section 5 for appropriate values.">
<polygon fill="#ffcccc" stroke="#ffcccc" points="681,-103 681,-123 986,-123 986,-103 681,-103"/>
<polygon fill="none" stroke="black" points="681,-103 681,-123 986,-123 986,-103 681,-103"/>
<text text-anchor="start" x="723.5" y="-109.733" font-family="Times Roman,serif" font-size="14.00">[INTEGER] securityModel (0..1) </text>
</a>
<a xlink:href="#" xlink:title="The object&#39;s security name; see RFC 3411 [15] Section 3.2.2.">
<polygon fill="#ffcccc" stroke="#ffcccc" points="681,-83 681,-103 986,-103 986,-83 681,-83"/>
<polygon fill="none" stroke="black" points="681,-83 681,-103 986,-103 986,-83 681,-83"/>
<text text-anchor="start" x="728" y="-89.7333" font-family="Times Roman,serif" font-size="14.00">[STRING] securityName (0..1) </text>
</a>
<a xlink:href="#" xlink:title="The security level of the SNMP request; see RFC 3411 [15] Section 3.4.3.">
<polygon fill="#ffcccc" stroke="#ffcccc" points="681,-63 681,-83 986,-83 986,-63 681,-63"/>
<polygon fill="none" stroke="black" points="681,-63 681,-83 986,-83 986,-63 681,-63"/>
<text text-anchor="start" x="725" y="-69.7333" font-family="Times Roman,serif" font-size="14.00">[INTEGER] securityLevel (0..1) </text>
</a>
<a xlink:href="#" xlink:title="The object&#39;s context name; see RFC 3411 [15] Section 3.3.3.">
<polygon fill="#ffcccc" stroke="#ffcccc" points="681,-43 681,-63 986,-63 986,-43 681,-43"/>
<polygon fill="none" stroke="black" points="681,-43 681,-63 986,-63 986,-43 681,-43"/>
<text text-anchor="start" x="729.5" y="-49.7333" font-family="Times Roman,serif" font-size="14.00">[STRING] contextName (0..1) </text>
</a>
<a xlink:href="#" xlink:title="The object&#39;s context engine identifier; see RFC 3411 [15] Section 3.3.2.">
<polygon fill="#ffcccc" stroke="#ffcccc" points="681,-23 681,-43 986,-43 986,-23 681,-23"/>
<polygon fill="none" stroke="black" points="681,-23 681,-43 986,-43 986,-23 681,-23"/>
<text text-anchor="start" x="717.5" y="-29.7333" font-family="Times Roman,serif" font-size="14.00">[STRING] contextEngineID (0..1) </text>
</a>
<a xlink:href="#" xlink:title="The command sent to the SNMP server (GET, SET, etc.).">
<polygon fill="#ffcccc" stroke="#ffcccc" points="681,-3 681,-23 986,-23 986,-3 681,-3"/>
<polygon fill="none" stroke="black" points="681,-3 681,-23 986,-23 986,-3 681,-3"/>
<text text-anchor="start" x="742.5" y="-9.73333" font-family="Times Roman,serif" font-size="14.00">[STRING] command (0..1) </text>
</a>
</g>
<!-- Service&#45;&gt;SNMPService -->
<g id="edge14" class="edge"><title>Service&#45;&gt;SNMPService</title>
<path fill="none" stroke="black" d="M619.799,-104.933C637.291,-104.036 654.981,-103.129 672.298,-102.241"/>
<polygon fill="none" stroke="black" points="609.347,-101.965 619.513,-104.948 609.706,-108.956 609.347,-101.965"/>
</g>
</g>
</svg>
