<?xml version="1.0" encoding="UTF-8" standalone="no"?>
<!DOCTYPE svg PUBLIC "-//W3C//DTD SVG 1.1//EN"
 "http://www.w3.org/Graphics/SVG/1.1/DTD/svg11.dtd">
<!-- Generated by graphviz version 2.38.0 (20140413.2041)
 -->
<!-- Title: Source Pages: 1 -->
<svg width="871pt" height="677pt"
 viewBox="0.00 0.00 871.00 677.00" xmlns="http://www.w3.org/2000/svg" xmlns:xlink="http://www.w3.org/1999/xlink">
<g id="graph0" class="graph" transform="scale(1 1) rotate(0) translate(4 673)">
<title>Source</title>
<polygon fill="white" stroke="none" points="-4,4 -4,-673 867,-673 867,4 -4,4"/>
<!-- Source -->
<g id="node1" class="node"><title>Source</title>
<g id="a_node1_0"><a xlink:href="/idmef_parser/IDMEF/Source.html" xlink:title="The Source class contains information about the possible source(s) of the event(s) that generated an alert. An event may have more than one source (e.g., in a distributed denial&#45;of&#45;service attack). ">
<polygon fill="#182f5f" stroke="none" points="8.5,-376.5 8.5,-397.5 187.5,-397.5 187.5,-376.5 8.5,-376.5"/>
<polygon fill="none" stroke="black" points="8.5,-376.5 8.5,-397.5 187.5,-397.5 187.5,-376.5 8.5,-376.5"/>
<text text-anchor="start" x="79" y="-383.3" font-family="Times,serif" font-size="14.00">Source</text>
</a>
</g>
<g id="a_node1_1"><a xlink:href="/idmef_parser/IDMEF/Source.html" xlink:title="A unique identifier for this source; see Section 3.2.9.">
<polygon fill="#284f9f" stroke="none" points="8.5,-355.5 8.5,-376.5 187.5,-376.5 187.5,-355.5 8.5,-355.5"/>
<polygon fill="none" stroke="black" points="8.5,-355.5 8.5,-376.5 187.5,-376.5 187.5,-355.5 8.5,-355.5"/>
<text text-anchor="start" x="21.5" y="-362.3" font-family="Times,serif" font-size="14.00">[STRING] ident (Optional) </text>
</a>
</g>
<g id="a_node1_2"><a xlink:href="/idmef_parser/IDMEF/Source.html" xlink:title="An indication of whether the source is, as far as the analyzer can determine, a spoofed address used for hiding the real origin of the attack. &#160;The permitted values for this attribute are shown below. &#160;The default value is &quot;unknown&quot;. &#160;(See also Section 10.)">
<polygon fill="#284f9f" stroke="none" points="8.5,-334.5 8.5,-355.5 187.5,-355.5 187.5,-334.5 8.5,-334.5"/>
<polygon fill="none" stroke="black" points="8.5,-334.5 8.5,-355.5 187.5,-355.5 187.5,-334.5 8.5,-334.5"/>
<text text-anchor="start" x="18" y="-341.3" font-family="Times,serif" font-size="14.00">[ENUM] spoofed (Optional) </text>
</a>
</g>
<g id="a_node1_3"><a xlink:href="/idmef_parser/IDMEF/Source.html" xlink:title="May be used by a network&#45;based analyzer with multiple interfaces to indicate which interface this source was seen on.">
<polygon fill="#284f9f" stroke="none" points="8.5,-313.5 8.5,-334.5 187.5,-334.5 187.5,-313.5 8.5,-313.5"/>
<polygon fill="none" stroke="black" points="8.5,-313.5 8.5,-334.5 187.5,-334.5 187.5,-313.5 8.5,-313.5"/>
<text text-anchor="start" x="11.5" y="-320.3" font-family="Times,serif" font-size="14.00">[STRING] interface (Optional) </text>
</a>
</g>
</g>
<!-- Node -->
<g id="node2" class="node"><title>Node</title>
<g id="a_node2_4"><a xlink:href="/idmef_parser/IDMEF/Node.html" xlink:title="The Node class is used to identify hosts and other network devices (routers, switches, etc.). ">
<polygon fill="#007a00" stroke="none" points="308,-596.5 308,-617.5 478,-617.5 478,-596.5 308,-596.5"/>
<polygon fill="none" stroke="black" points="308,-596.5 308,-617.5 478,-617.5 478,-596.5 308,-596.5"/>
<text text-anchor="start" x="378" y="-603.3" font-family="Times,serif" font-size="14.00">Node</text>
</a>
</g>
<g id="a_node2_5"><a xlink:href="/idmef_parser/IDMEF/Node.html" xlink:title="The location of the equipment.">
<polygon fill="#00cc00" stroke="none" points="308,-575.5 308,-596.5 478,-596.5 478,-575.5 308,-575.5"/>
<polygon fill="none" stroke="black" points="308,-575.5 308,-596.5 478,-596.5 478,-575.5 308,-575.5"/>
<text text-anchor="start" x="321.5" y="-582.3" font-family="Times,serif" font-size="14.00">[STRING] location (0..1) </text>
</a>
</g>
<g id="a_node2_6"><a xlink:href="/idmef_parser/IDMEF/Node.html" xlink:title="The name of the equipment. &#160;This information MUST be provided if no Address information is given.">
<polygon fill="#00cc00" stroke="none" points="308,-554.5 308,-575.5 478,-575.5 478,-554.5 308,-554.5"/>
<polygon fill="none" stroke="black" points="308,-554.5 308,-575.5 478,-575.5 478,-554.5 308,-554.5"/>
<text text-anchor="start" x="328" y="-561.3" font-family="Times,serif" font-size="14.00">[STRING] name (0..1) </text>
</a>
</g>
<g id="a_node2_7"><a xlink:href="/idmef_parser/IDMEF/Node.html" xlink:title="A unique identifier for the node; see Section 3.2.9.">
<polygon fill="#00cc00" stroke="none" points="308,-533.5 308,-554.5 478,-554.5 478,-533.5 308,-533.5"/>
<polygon fill="none" stroke="black" points="308,-533.5 308,-554.5 478,-554.5 478,-533.5 308,-533.5"/>
<text text-anchor="start" x="316.5" y="-540.3" font-family="Times,serif" font-size="14.00">[STRING] ident (Optional) </text>
</a>
</g>
<g id="a_node2_8"><a xlink:href="/idmef_parser/IDMEF/Node.html" xlink:title="The &quot;domain&quot; from which the name information was obtained, if relevant. &#160;The permitted values for this attribute are shown in the table below. &#160;The default value is &quot;unknown&quot;. (See also Section 10 for extensions to the table.)">
<polygon fill="#00cc00" stroke="none" points="308,-512.5 308,-533.5 478,-533.5 478,-512.5 308,-512.5"/>
<polygon fill="none" stroke="black" points="308,-512.5 308,-533.5 478,-533.5 478,-512.5 308,-512.5"/>
<text text-anchor="start" x="311" y="-519.3" font-family="Times,serif" font-size="14.00">[ENUM] category (Optional) </text>
</a>
</g>
</g>
<!-- Source&#45;&gt;Node -->
<g id="edge2" class="edge"><title>Source&#45;&gt;Node</title>
<path fill="none" stroke="black" d="M146.395,-401.784C175.849,-429.012 215.098,-463.156 253,-489.5 264.927,-497.79 277.849,-505.894 290.847,-513.536"/>
<polygon fill="black" stroke="black" points="289.44,-516.766 299.847,-518.75 292.949,-510.709 289.44,-516.766"/>
<text text-anchor="middle" x="224" y="-476.3" font-family="Times,serif" font-size="14.00">0..1</text>
</g>
<!-- User -->
<g id="node4" class="node"><title>User</title>
<g id="a_node4_9"><a xlink:href="/idmef_parser/IDMEF/User.html" xlink:title="The User class is used to describe users. It is primarily used as a &quot;container&quot; class for the UserId aggregate class, as shown in Figure 16. ">
<polygon fill="#3d7a99" stroke="none" points="308,-454.5 308,-475.5 478,-475.5 478,-454.5 308,-454.5"/>
<polygon fill="none" stroke="black" points="308,-454.5 308,-475.5 478,-475.5 478,-454.5 308,-454.5"/>
<text text-anchor="start" x="380" y="-461.3" font-family="Times,serif" font-size="14.00">User</text>
</a>
</g>
<g id="a_node4_10"><a xlink:href="/idmef_parser/IDMEF/User.html" xlink:title="A unique identifier for the user; see Section 3.2.9.">
<polygon fill="#66ccff" stroke="none" points="308,-433.5 308,-454.5 478,-454.5 478,-433.5 308,-433.5"/>
<polygon fill="none" stroke="black" points="308,-433.5 308,-454.5 478,-454.5 478,-433.5 308,-433.5"/>
<text text-anchor="start" x="316.5" y="-440.3" font-family="Times,serif" font-size="14.00">[STRING] ident (Optional) </text>
</a>
</g>
<g id="a_node4_11"><a xlink:href="/idmef_parser/IDMEF/User.html" xlink:title="The type of user represented. &#160;The permitted values for this attribute are shown below. &#160;The default value is &quot;unknown&quot;. (See also Section 10.)">
<polygon fill="#66ccff" stroke="none" points="308,-412.5 308,-433.5 478,-433.5 478,-412.5 308,-412.5"/>
<polygon fill="none" stroke="black" points="308,-412.5 308,-433.5 478,-433.5 478,-412.5 308,-412.5"/>
<text text-anchor="start" x="311" y="-419.3" font-family="Times,serif" font-size="14.00">[ENUM] category (Optional) </text>
</a>
</g>
</g>
<!-- Source&#45;&gt;User -->
<g id="edge4" class="edge"><title>Source&#45;&gt;User</title>
<path fill="none" stroke="black" d="M195.009,-384.765C225.463,-394 259.2,-404.23 290.023,-413.577"/>
<polygon fill="black" stroke="black" points="289.334,-417.025 299.92,-416.578 291.366,-410.326 289.334,-417.025"/>
<text text-anchor="middle" x="224" y="-398.3" font-family="Times,serif" font-size="14.00">0..1</text>
</g>
<!-- Process -->
<g id="node6" class="node"><title>Process</title>
<g id="a_node6_12"><a xlink:href="/idmef_parser/IDMEF/Process.html" xlink:title="The Process class is used to describe processes being executed on sources, targets, and analyzers. ">
<polygon fill="#997a3d" stroke="none" points="314,-365.5 314,-386.5 473,-386.5 473,-365.5 314,-365.5"/>
<polygon fill="none" stroke="black" points="314,-365.5 314,-386.5 473,-386.5 473,-365.5 314,-365.5"/>
<text text-anchor="start" x="372.5" y="-372.3" font-family="Times,serif" font-size="14.00">Process</text>
</a>
</g>
<g id="a_node6_13"><a xlink:href="/idmef_parser/IDMEF/Process.html" xlink:title="The name of the program being executed. This is a short name; path and argument information are provided elsewhere.">
<polygon fill="#ffcc66" stroke="none" points="314,-344.5 314,-365.5 473,-365.5 473,-344.5 314,-344.5"/>
<polygon fill="none" stroke="black" points="314,-344.5 314,-365.5 473,-365.5 473,-344.5 314,-344.5"/>
<text text-anchor="start" x="336" y="-351.3" font-family="Times,serif" font-size="14.00">[STRING] name (1) </text>
</a>
</g>
<g id="a_node6_14"><a xlink:href="/idmef_parser/IDMEF/Process.html" xlink:title="The process identifier of the process.">
<polygon fill="#ffcc66" stroke="none" points="314,-323.5 314,-344.5 473,-344.5 473,-323.5 314,-323.5"/>
<polygon fill="none" stroke="black" points="314,-323.5 314,-344.5 473,-344.5 473,-323.5 314,-323.5"/>
<text text-anchor="start" x="330.5" y="-330.3" font-family="Times,serif" font-size="14.00">[INTEGER] pid (0..1) </text>
</a>
</g>
<g id="a_node6_15"><a xlink:href="/idmef_parser/IDMEF/Process.html" xlink:title="The full path of the program being executed.">
<polygon fill="#ffcc66" stroke="none" points="314,-302.5 314,-323.5 473,-323.5 473,-302.5 314,-302.5"/>
<polygon fill="none" stroke="black" points="314,-302.5 314,-323.5 473,-323.5 473,-302.5 314,-302.5"/>
<text text-anchor="start" x="332" y="-309.3" font-family="Times,serif" font-size="14.00">[STRING] path (0..1) </text>
</a>
</g>
<g id="a_node6_16"><a xlink:href="/idmef_parser/IDMEF/Process.html" xlink:title="A command&#45;line argument to the program. Multiple arguments may be specified (they are assumed to have occurred in the same order they are provided) with multiple uses of arg.">
<polygon fill="#ffcc66" stroke="none" points="314,-281.5 314,-302.5 473,-302.5 473,-281.5 314,-281.5"/>
<polygon fill="none" stroke="black" points="314,-281.5 314,-302.5 473,-302.5 473,-281.5 314,-281.5"/>
<text text-anchor="start" x="335" y="-288.3" font-family="Times,serif" font-size="14.00">[STRING] arg (0..*) </text>
</a>
</g>
<g id="a_node6_17"><a xlink:href="/idmef_parser/IDMEF/Process.html" xlink:title="An environment string associated with the process; generally of the format &quot;VARIABLE=value&quot;. &#160;Multiple environment strings may be specified with multiple uses of env.">
<polygon fill="#ffcc66" stroke="none" points="314,-260.5 314,-281.5 473,-281.5 473,-260.5 314,-260.5"/>
<polygon fill="none" stroke="black" points="314,-260.5 314,-281.5 473,-281.5 473,-260.5 314,-260.5"/>
<text text-anchor="start" x="334" y="-267.3" font-family="Times,serif" font-size="14.00">[STRING] env (0..*) </text>
</a>
</g>
<g id="a_node6_18"><a xlink:href="/idmef_parser/IDMEF/Process.html" xlink:title="A unique identifier for the process; see Section 3.2.9.">
<polygon fill="#ffcc66" stroke="none" points="314,-239.5 314,-260.5 473,-260.5 473,-239.5 314,-239.5"/>
<polygon fill="none" stroke="black" points="314,-239.5 314,-260.5 473,-260.5 473,-239.5 314,-239.5"/>
<text text-anchor="start" x="317" y="-246.3" font-family="Times,serif" font-size="14.00">[STRING] ident (Optional) </text>
</a>
</g>
</g>
<!-- Source&#45;&gt;Process -->
<g id="edge5" class="edge"><title>Source&#45;&gt;Process</title>
<path fill="none" stroke="black" d="M195.009,-341.689C227.122,-337.094 262.884,-331.977 295.031,-327.376"/>
<polygon fill="black" stroke="black" points="295.929,-330.784 305.332,-325.902 294.937,-323.854 295.929,-330.784"/>
<text text-anchor="middle" x="224" y="-341.3" font-family="Times,serif" font-size="14.00">0..1</text>
</g>
<!-- Service -->
<g id="node7" class="node"><title>Service</title>
<g id="a_node7_19"><a xlink:href="/idmef_parser/IDMEF/Service.html" xlink:title="The Service class describes network services on sources and targets. It can identify services by name, port, and protocol. When Service occurs as an aggregate class of Source, it is understood that the service is one from which activity of interest is originating; and that the service is &quot;attached&quot; to the Node, Process, and User information also contained in Source. Likewise, when Service occurs as an aggregate class of Target, it is understood that the service is one to which activity of interest is being directed; and that the service is &quot;attached&quot; to the Node, Process, and User information also contained in Target. If Service occurs in both Source and Target, then information in both locations should be the same. If information is the same in both locations and implementers wish to carry it in only one location, they should specify it as an aggregate of the Target class. ">
<polygon fill="#997a7a" stroke="none" points="261,-192.5 261,-213.5 525,-213.5 525,-192.5 261,-192.5"/>
<polygon fill="none" stroke="black" points="261,-192.5 261,-213.5 525,-213.5 525,-192.5 261,-192.5"/>
<text text-anchor="start" x="372.5" y="-199.3" font-family="Times,serif" font-size="14.00">Service</text>
</a>
</g>
<g id="a_node7_20"><a xlink:href="/idmef_parser/IDMEF/Service.html" xlink:title="The name of the service. &#160;Whenever possible, the name from the IANA list of well&#45;known ports SHOULD be used.">
<polygon fill="#ffcccc" stroke="none" points="261,-171.5 261,-192.5 525,-192.5 525,-171.5 261,-171.5"/>
<polygon fill="none" stroke="black" points="261,-171.5 261,-192.5 525,-192.5 525,-171.5 261,-171.5"/>
<text text-anchor="start" x="328" y="-178.3" font-family="Times,serif" font-size="14.00">[STRING] name (0..1) </text>
</a>
</g>
<g id="a_node7_21"><a xlink:href="/idmef_parser/IDMEF/Service.html" xlink:title="The port number being used.">
<polygon fill="#ffcccc" stroke="none" points="261,-150.5 261,-171.5 525,-171.5 525,-150.5 261,-150.5"/>
<polygon fill="none" stroke="black" points="261,-150.5 261,-171.5 525,-171.5 525,-150.5 261,-150.5"/>
<text text-anchor="start" x="328" y="-157.3" font-family="Times,serif" font-size="14.00">[INTEGER] port (0..1) </text>
</a>
</g>
<g id="a_node7_22"><a xlink:href="/idmef_parser/IDMEF/Service.html" xlink:title="A list of port numbers being used; see Section 3.2.8 for formatting rules. &#160;If a portlist is given, the iana_protocol_number and iana_protocol_name MUST apply to all the elements of the list.">
<polygon fill="#ffcccc" stroke="none" points="261,-129.5 261,-150.5 525,-150.5 525,-129.5 261,-129.5"/>
<polygon fill="none" stroke="black" points="261,-129.5 261,-150.5 525,-150.5 525,-129.5 261,-129.5"/>
<text text-anchor="start" x="317" y="-136.3" font-family="Times,serif" font-size="14.00">[PORTLIST] portlist (0..1) </text>
</a>
</g>
<g id="a_node7_23"><a xlink:href="/idmef_parser/IDMEF/Service.html" xlink:title="Additional information about the protocol being used. &#160;The intent of the protocol field is to carry additional information related to the protocol being used when the &lt;Service&gt; attributes iana_protocol_number or/and iana_protocol_name are filed.">
<polygon fill="#ffcccc" stroke="none" points="261,-108.5 261,-129.5 525,-129.5 525,-108.5 261,-108.5"/>
<polygon fill="none" stroke="black" points="261,-108.5 261,-129.5 525,-129.5 525,-108.5 261,-108.5"/>
<text text-anchor="start" x="320.5" y="-115.3" font-family="Times,serif" font-size="14.00">[STRING] protocol (0..1) </text>
</a>
</g>
<g id="a_node7_24"><a xlink:href="/idmef_parser/IDMEF/Service.html" xlink:title="A unique identifier for the service; see Section 3.2.9.">
<polygon fill="#ffcccc" stroke="none" points="261,-87.5 261,-108.5 525,-108.5 525,-87.5 261,-87.5"/>
<polygon fill="none" stroke="black" points="261,-87.5 261,-108.5 525,-108.5 525,-87.5 261,-87.5"/>
<text text-anchor="start" x="316.5" y="-94.3" font-family="Times,serif" font-size="14.00">[STRING] ident (Optional) </text>
</a>
</g>
<g id="a_node7_25"><a xlink:href="/idmef_parser/IDMEF/Service.html" xlink:title="The IP version number.">
<polygon fill="#ffcccc" stroke="none" points="261,-66.5 261,-87.5 525,-87.5 525,-66.5 261,-66.5"/>
<polygon fill="none" stroke="black" points="261,-66.5 261,-87.5 525,-87.5 525,-66.5 261,-66.5"/>
<text text-anchor="start" x="297" y="-73.3" font-family="Times,serif" font-size="14.00">[INTEGER] ip_version (Optional) </text>
</a>
</g>
<g id="a_node7_26"><a xlink:href="/idmef_parser/IDMEF/Service.html" xlink:title="The IANA protocol number.">
<polygon fill="#ffcccc" stroke="none" points="261,-45.5 261,-66.5 525,-66.5 525,-45.5 261,-45.5"/>
<polygon fill="none" stroke="black" points="261,-45.5 261,-66.5 525,-66.5 525,-45.5 261,-45.5"/>
<text text-anchor="start" x="264" y="-52.3" font-family="Times,serif" font-size="14.00">[INTEGER] iana_protocol_number (Optional) </text>
</a>
</g>
<g id="a_node7_27"><a xlink:href="/idmef_parser/IDMEF/Service.html" xlink:title="The IANA protocol name.">
<polygon fill="#ffcccc" stroke="none" points="261,-24.5 261,-45.5 525,-45.5 525,-24.5 261,-24.5"/>
<polygon fill="none" stroke="black" points="261,-24.5 261,-45.5 525,-45.5 525,-24.5 261,-24.5"/>
<text text-anchor="start" x="274.5" y="-31.3" font-family="Times,serif" font-size="14.00">[STRING] iana_protocol_name (Optional) </text>
</a>
</g>
</g>
<!-- Source&#45;&gt;Service -->
<g id="edge8" class="edge"><title>Source&#45;&gt;Service</title>
<path fill="none" stroke="black" d="M153.216,-309.464C182.612,-284.91 219.584,-254.313 253,-227.5 254.192,-226.544 255.39,-225.584 256.594,-224.62"/>
<polygon fill="black" stroke="black" points="258.983,-227.192 264.617,-218.218 254.617,-221.72 258.983,-227.192"/>
<text text-anchor="middle" x="224" y="-262.3" font-family="Times,serif" font-size="14.00">0..1</text>
</g>
<!-- Address -->
<g id="node3" class="node"><title>Address</title>
<g id="a_node3_28"><a xlink:href="/idmef_parser/IDMEF/Address.html" xlink:title="The Address class is used to represent network, hardware, and application addresses. ">
<polygon fill="#007a00" stroke="none" points="631,-643.5 631,-664.5 824,-664.5 824,-643.5 631,-643.5"/>
<polygon fill="none" stroke="black" points="631,-643.5 631,-664.5 824,-664.5 824,-643.5 631,-643.5"/>
<text text-anchor="start" x="705" y="-650.3" font-family="Times,serif" font-size="14.00">Address</text>
</a>
</g>
<g id="a_node3_29"><a xlink:href="/idmef_parser/IDMEF/Address.html" xlink:title="The address information. &#160;The format of this data is governed by the category attribute.">
<polygon fill="#00cc00" stroke="none" points="631,-622.5 631,-643.5 824,-643.5 824,-622.5 631,-622.5"/>
<polygon fill="none" stroke="black" points="631,-622.5 631,-643.5 824,-643.5 824,-622.5 631,-622.5"/>
<text text-anchor="start" x="664.5" y="-629.3" font-family="Times,serif" font-size="14.00">[STRING] address (1) </text>
</a>
</g>
<g id="a_node3_30"><a xlink:href="/idmef_parser/IDMEF/Address.html" xlink:title="The network mask for the address, if appropriate.">
<polygon fill="#00cc00" stroke="none" points="631,-601.5 631,-622.5 824,-622.5 824,-601.5 631,-601.5"/>
<polygon fill="none" stroke="black" points="631,-601.5 631,-622.5 824,-622.5 824,-601.5 631,-601.5"/>
<text text-anchor="start" x="655" y="-608.3" font-family="Times,serif" font-size="14.00">[STRING] netmask (0..1) </text>
</a>
</g>
<g id="a_node3_31"><a xlink:href="/idmef_parser/IDMEF/Address.html" xlink:title="A unique identifier for the address; see Section 3.2.9.">
<polygon fill="#00cc00" stroke="none" points="631,-580.5 631,-601.5 824,-601.5 824,-580.5 631,-580.5"/>
<polygon fill="none" stroke="black" points="631,-580.5 631,-601.5 824,-601.5 824,-580.5 631,-580.5"/>
<text text-anchor="start" x="651" y="-587.3" font-family="Times,serif" font-size="14.00">[STRING] ident (Optional) </text>
</a>
</g>
<g id="a_node3_32"><a xlink:href="/idmef_parser/IDMEF/Address.html" xlink:title="The type of address represented. &#160;The permitted values for this attribute are shown below. &#160;The default value is &quot;unknown&quot;. &#160;(See also Section 10.)">
<polygon fill="#00cc00" stroke="none" points="631,-559.5 631,-580.5 824,-580.5 824,-559.5 631,-559.5"/>
<polygon fill="none" stroke="black" points="631,-559.5 631,-580.5 824,-580.5 824,-559.5 631,-559.5"/>
<text text-anchor="start" x="645.5" y="-566.3" font-family="Times,serif" font-size="14.00">[ENUM] category (Optional) </text>
</a>
</g>
<g id="a_node3_33"><a xlink:href="/idmef_parser/IDMEF/Address.html" xlink:title="The name of the Virtual LAN to which the address belongs.">
<polygon fill="#00cc00" stroke="none" points="631,-538.5 631,-559.5 824,-559.5 824,-538.5 631,-538.5"/>
<polygon fill="none" stroke="black" points="631,-538.5 631,-559.5 824,-559.5 824,-538.5 631,-538.5"/>
<text text-anchor="start" x="635.5" y="-545.3" font-family="Times,serif" font-size="14.00">[STRING] vlan&#45;name (Optional) </text>
</a>
</g>
<g id="a_node3_34"><a xlink:href="/idmef_parser/IDMEF/Address.html" xlink:title="The number of the Virtual LAN to which the address belongs.">
<polygon fill="#00cc00" stroke="none" points="631,-517.5 631,-538.5 824,-538.5 824,-517.5 631,-517.5"/>
<polygon fill="none" stroke="black" points="631,-517.5 631,-538.5 824,-538.5 824,-517.5 631,-517.5"/>
<text text-anchor="start" x="634" y="-524.3" font-family="Times,serif" font-size="14.00">[INTEGER] vlan&#45;num (Optional) </text>
</a>
</g>
</g>
<!-- Node&#45;&gt;Address -->
<g id="edge1" class="edge"><title>Node&#45;&gt;Address</title>
<path fill="none" stroke="black" d="M486.04,-572.708C525.131,-575.769 571.1,-579.369 612.287,-582.595"/>
<polygon fill="black" stroke="black" points="612.128,-586.093 622.371,-583.384 612.675,-579.114 612.128,-586.093"/>
<text text-anchor="middle" x="562" y="-582.3" font-family="Times,serif" font-size="14.00">0..*</text>
</g>
<!-- UserId -->
<g id="node5" class="node"><title>UserId</title>
<g id="a_node5_35"><a xlink:href="/idmef_parser/IDMEF/UserId.html" xlink:title="The UserId class provides specific information about a user. More than one UserId can be used within the User class to indicate attempts to transition from one user to another, or to provide complete information about a user&#39;s (or process&#39;) privileges. ">
<polygon fill="#3d7a99" stroke="none" points="648,-470.5 648,-491.5 807,-491.5 807,-470.5 648,-470.5"/>
<polygon fill="none" stroke="black" points="648,-470.5 648,-491.5 807,-491.5 807,-470.5 648,-470.5"/>
<text text-anchor="start" x="709" y="-477.3" font-family="Times,serif" font-size="14.00">UserId</text>
</a>
</g>
<g id="a_node5_36"><a xlink:href="/idmef_parser/IDMEF/UserId.html" xlink:title="A user or group name.">
<polygon fill="#66ccff" stroke="none" points="648,-449.5 648,-470.5 807,-470.5 807,-449.5 648,-449.5"/>
<polygon fill="none" stroke="black" points="648,-449.5 648,-470.5 807,-470.5 807,-449.5 648,-449.5"/>
<text text-anchor="start" x="662.5" y="-456.3" font-family="Times,serif" font-size="14.00">[STRING] name (0..1) </text>
</a>
</g>
<g id="a_node5_37"><a xlink:href="/idmef_parser/IDMEF/UserId.html" xlink:title="A user or group number.">
<polygon fill="#66ccff" stroke="none" points="648,-428.5 648,-449.5 807,-449.5 807,-428.5 648,-428.5"/>
<polygon fill="none" stroke="black" points="648,-428.5 648,-449.5 807,-449.5 807,-428.5 648,-428.5"/>
<text text-anchor="start" x="652" y="-435.3" font-family="Times,serif" font-size="14.00">[INTEGER] number (0..1) </text>
</a>
</g>
<g id="a_node5_38"><a xlink:href="/idmef_parser/IDMEF/UserId.html" xlink:title="A unique identifier for the user id, see Section 3.2.9.">
<polygon fill="#66ccff" stroke="none" points="648,-407.5 648,-428.5 807,-428.5 807,-407.5 648,-407.5"/>
<polygon fill="none" stroke="black" points="648,-407.5 648,-428.5 807,-428.5 807,-407.5 648,-407.5"/>
<text text-anchor="start" x="651" y="-414.3" font-family="Times,serif" font-size="14.00">[STRING] ident (Optional) </text>
</a>
</g>
<g id="a_node5_39"><a xlink:href="/idmef_parser/IDMEF/UserId.html" xlink:title="The type of user information represented. &#160;The permitted values for this attribute are shown below. &#160;The default value is &quot;original&#45;user&quot;. &#160;(See also Section 10.)">
<polygon fill="#66ccff" stroke="none" points="648,-386.5 648,-407.5 807,-407.5 807,-386.5 648,-386.5"/>
<polygon fill="none" stroke="black" points="648,-386.5 648,-407.5 807,-407.5 807,-386.5 648,-386.5"/>
<text text-anchor="start" x="657" y="-393.3" font-family="Times,serif" font-size="14.00">[ENUM] type (Optional) </text>
</a>
</g>
<g id="a_node5_40"><a xlink:href="/idmef_parser/IDMEF/UserId.html" xlink:title="The tty the user is using.">
<polygon fill="#66ccff" stroke="none" points="648,-365.5 648,-386.5 807,-386.5 807,-365.5 648,-365.5"/>
<polygon fill="none" stroke="black" points="648,-365.5 648,-386.5 807,-386.5 807,-365.5 648,-365.5"/>
<text text-anchor="start" x="657.5" y="-372.3" font-family="Times,serif" font-size="14.00">[STRING] tty (Optional) </text>
</a>
</g>
</g>
<!-- User&#45;&gt;UserId -->
<g id="edge3" class="edge"><title>User&#45;&gt;UserId</title>
<path fill="none" stroke="black" d="M486.04,-440.064C530.642,-437.915 584.198,-435.334 629.388,-433.156"/>
<polygon fill="black" stroke="black" points="629.671,-436.647 639.49,-432.669 629.334,-429.655 629.671,-436.647"/>
<text text-anchor="middle" x="562" y="-440.3" font-family="Times,serif" font-size="14.00">1..*</text>
</g>
<!-- WebService -->
<g id="node8" class="node"><title>WebService</title>
<g id="a_node8_41"><a xlink:href="/idmef_parser/IDMEF/WebService.html" xlink:title="The WebService class carries additional information related to web traffic. ">
<polygon fill="#997a7a" stroke="none" points="641,-302.5 641,-323.5 813,-323.5 813,-302.5 641,-302.5"/>
<polygon fill="none" stroke="black" points="641,-302.5 641,-323.5 813,-323.5 813,-302.5 641,-302.5"/>
<text text-anchor="start" x="693.5" y="-309.3" font-family="Times,serif" font-size="14.00">WebService</text>
</a>
</g>
<g id="a_node8_42"><a xlink:href="/idmef_parser/IDMEF/WebService.html" xlink:title="The URL in the request.">
<polygon fill="#ffcccc" stroke="none" points="641,-281.5 641,-302.5 813,-302.5 813,-281.5 641,-281.5"/>
<polygon fill="none" stroke="black" points="641,-281.5 641,-302.5 813,-302.5 813,-281.5 641,-281.5"/>
<text text-anchor="start" x="677" y="-288.3" font-family="Times,serif" font-size="14.00">[STRING] url (1) </text>
</a>
</g>
<g id="a_node8_43"><a xlink:href="/idmef_parser/IDMEF/WebService.html" xlink:title="The CGI script in the request, without arguments.">
<polygon fill="#ffcccc" stroke="none" points="641,-260.5 641,-281.5 813,-281.5 813,-260.5 641,-260.5"/>
<polygon fill="none" stroke="black" points="641,-260.5 641,-281.5 813,-281.5 813,-260.5 641,-260.5"/>
<text text-anchor="start" x="669" y="-267.3" font-family="Times,serif" font-size="14.00">[STRING] cgi (0..1) </text>
</a>
</g>
<g id="a_node8_44"><a xlink:href="/idmef_parser/IDMEF/WebService.html" xlink:title="The HTTP method (PUT, GET) used in the request.">
<polygon fill="#ffcccc" stroke="none" points="641,-239.5 641,-260.5 813,-260.5 813,-239.5 641,-239.5"/>
<polygon fill="none" stroke="black" points="641,-239.5 641,-260.5 813,-260.5 813,-239.5 641,-239.5"/>
<text text-anchor="start" x="644" y="-246.3" font-family="Times,serif" font-size="14.00">[STRING] http&#45;method (0..1) </text>
</a>
</g>
<g id="a_node8_45"><a xlink:href="/idmef_parser/IDMEF/WebService.html" xlink:title="The arguments to the CGI script.">
<polygon fill="#ffcccc" stroke="none" points="641,-218.5 641,-239.5 813,-239.5 813,-218.5 641,-218.5"/>
<polygon fill="none" stroke="black" points="641,-218.5 641,-239.5 813,-239.5 813,-218.5 641,-218.5"/>
<text text-anchor="start" x="668.5" y="-225.3" font-family="Times,serif" font-size="14.00">[STRING] arg (0..*) </text>
</a>
</g>
</g>
<!-- Service&#45;&gt;WebService -->
<g id="edge6" class="edge"><title>Service&#45;&gt;WebService</title>
<path fill="none" stroke="black" d="M542.822,-187.635C573.424,-201.646 604.814,-216.017 632.77,-228.816"/>
<polygon fill="none" stroke="black" points="534.812,-180.119 542.447,-187.464 531.898,-186.483 534.812,-180.119"/>
</g>
<!-- SNMPService -->
<g id="node9" class="node"><title>SNMPService</title>
<g id="a_node9_46"><a xlink:href="/idmef_parser/IDMEF/SNMPService.html" xlink:title="The SNMPService class carries additional information related to SNMP traffic. The aggregate classes composing SNMPService must be interpreted as described in RFC 3411 [15] and RFC 3584 [16]. ">
<polygon fill="#997a7a" stroke="none" points="599,-171.5 599,-192.5 855,-192.5 855,-171.5 599,-171.5"/>
<polygon fill="none" stroke="black" points="599,-171.5 599,-192.5 855,-192.5 855,-171.5 599,-171.5"/>
<text text-anchor="start" x="687.5" y="-178.3" font-family="Times,serif" font-size="14.00">SNMPService</text>
</a>
</g>
<g id="a_node9_47"><a xlink:href="/idmef_parser/IDMEF/SNMPService.html" xlink:title="The object identifier in the request.">
<polygon fill="#ffcccc" stroke="none" points="599,-150.5 599,-171.5 855,-171.5 855,-150.5 599,-150.5"/>
<polygon fill="none" stroke="black" points="599,-150.5 599,-171.5 855,-171.5 855,-150.5 599,-150.5"/>
<text text-anchor="start" x="668.5" y="-157.3" font-family="Times,serif" font-size="14.00">[STRING] oid (0..1) </text>
</a>
</g>
<g id="a_node9_48"><a xlink:href="/idmef_parser/IDMEF/SNMPService.html" xlink:title="The SNMP version, typically 0 for SNMPv1, 1 for SNMPv2c, 2 for SNMPv2u and SNMPv2*, and 3 for SNMPv3; see RFC 3411 [15] Section 5 for appropriate values.">
<polygon fill="#ffcccc" stroke="none" points="599,-129.5 599,-150.5 855,-150.5 855,-129.5 599,-129.5"/>
<polygon fill="none" stroke="black" points="599,-129.5 599,-150.5 855,-150.5 855,-129.5 599,-129.5"/>
<text text-anchor="start" x="602" y="-136.3" font-family="Times,serif" font-size="14.00">[INTEGER] messageProcessingModel (0..1) </text>
</a>
</g>
<g id="a_node9_49"><a xlink:href="/idmef_parser/IDMEF/SNMPService.html" xlink:title="The identification of the security model in use, typically 0 for any, 1 for SNMPv1, 2 for SNMPv2c, and 3 for USM; see RFC 3411 [15] Section 5 for appropriate values.">
<polygon fill="#ffcccc" stroke="none" points="599,-108.5 599,-129.5 855,-129.5 855,-108.5 599,-108.5"/>
<polygon fill="none" stroke="black" points="599,-108.5 599,-129.5 855,-129.5 855,-108.5 599,-108.5"/>
<text text-anchor="start" x="633.5" y="-115.3" font-family="Times,serif" font-size="14.00">[INTEGER] securityModel (0..1) </text>
</a>
</g>
<g id="a_node9_50"><a xlink:href="/idmef_parser/IDMEF/SNMPService.html" xlink:title="The object&#39;s security name; see RFC 3411 [15] Section 3.2.2.">
<polygon fill="#ffcccc" stroke="none" points="599,-87.5 599,-108.5 855,-108.5 855,-87.5 599,-87.5"/>
<polygon fill="none" stroke="black" points="599,-87.5 599,-108.5 855,-108.5 855,-87.5 599,-87.5"/>
<text text-anchor="start" x="639.5" y="-94.3" font-family="Times,serif" font-size="14.00">[STRING] securityName (0..1) </text>
</a>
</g>
<g id="a_node9_51"><a xlink:href="/idmef_parser/IDMEF/SNMPService.html" xlink:title="The security level of the SNMP request; see RFC 3411 [15] Section 3.4.3.">
<polygon fill="#ffcccc" stroke="none" points="599,-66.5 599,-87.5 855,-87.5 855,-66.5 599,-66.5"/>
<polygon fill="none" stroke="black" points="599,-66.5 599,-87.5 855,-87.5 855,-66.5 599,-66.5"/>
<text text-anchor="start" x="636" y="-73.3" font-family="Times,serif" font-size="14.00">[INTEGER] securityLevel (0..1) </text>
</a>
</g>
<g id="a_node9_52"><a xlink:href="/idmef_parser/IDMEF/SNMPService.html" xlink:title="The object&#39;s context name; see RFC 3411 [15] Section 3.3.3.">
<polygon fill="#ffcccc" stroke="none" points="599,-45.5 599,-66.5 855,-66.5 855,-45.5 599,-45.5"/>
<polygon fill="none" stroke="black" points="599,-45.5 599,-66.5 855,-66.5 855,-45.5 599,-45.5"/>
<text text-anchor="start" x="641" y="-52.3" font-family="Times,serif" font-size="14.00">[STRING] contextName (0..1) </text>
</a>
</g>
<g id="a_node9_53"><a xlink:href="/idmef_parser/IDMEF/SNMPService.html" xlink:title="The object&#39;s context engine identifier; see RFC 3411 [15] Section 3.3.2.">
<polygon fill="#ffcccc" stroke="none" points="599,-24.5 599,-45.5 855,-45.5 855,-24.5 599,-24.5"/>
<polygon fill="none" stroke="black" points="599,-24.5 599,-45.5 855,-45.5 855,-24.5 599,-24.5"/>
<text text-anchor="start" x="631" y="-31.3" font-family="Times,serif" font-size="14.00">[STRING] contextEngineID (0..1) </text>
</a>
</g>
<g id="a_node9_54"><a xlink:href="/idmef_parser/IDMEF/SNMPService.html" xlink:title="The command sent to the SNMP server (GET, SET, etc.).">
<polygon fill="#ffcccc" stroke="none" points="599,-3.5 599,-24.5 855,-24.5 855,-3.5 599,-3.5"/>
<polygon fill="none" stroke="black" points="599,-3.5 599,-24.5 855,-24.5 855,-3.5 599,-3.5"/>
<text text-anchor="start" x="650" y="-10.3" font-family="Times,serif" font-size="14.00">[STRING] command (0..1) </text>
</a>
</g>
</g>
<!-- Service&#45;&gt;SNMPService -->
<g id="edge7" class="edge"><title>Service&#45;&gt;SNMPService</title>
<path fill="none" stroke="black" d="M543.679,-110.032C559.441,-109.035 575.403,-108.026 590.986,-107.04"/>
<polygon fill="none" stroke="black" points="533.134,-107.192 543.335,-110.054 533.576,-114.178 533.134,-107.192"/>
</g>
</g>
</svg>
