<?xml version="1.0" encoding="UTF-8" standalone="no"?>
<!DOCTYPE svg PUBLIC "-//W3C//DTD SVG 1.1//EN"
 "http://www.w3.org/Graphics/SVG/1.1/DTD/svg11.dtd">
<!-- Generated by graphviz version 2.26.3 (20100126.1600)
 -->
<!-- Title: Target Pages: 1 -->
<svg width="1468pt" height="988pt"
 viewBox="0.00 0.00 1468.00 988.00" xmlns="http://www.w3.org/2000/svg" xmlns:xlink="http://www.w3.org/1999/xlink">
<g id="graph1" class="graph" transform="scale(1 1) rotate(0) translate(4 984)">
<title>Target</title>
<polygon fill="white" stroke="white" points="-4,5 -4,-984 1465,-984 1465,5 -4,5"/>
<!-- Target -->
<g id="node1" class="node"><title>Target</title>
<a xlink:href="#" xlink:title="The Target class contains information about the possible target(s) of the event(s) that generated an alert. An event may have more than one target (e.g., in the case of a port sweep). ">
<polygon fill="#182f5f" stroke="#182f5f" points="9,-741 9,-762 224,-762 224,-741 9,-741"/>
<polygon fill="none" stroke="black" points="9,-741 9,-762 224,-762 224,-741 9,-741"/>
<text text-anchor="start" x="94.5" y="-748.233" font-family="Times Roman,serif" font-size="14.00">Target</text>
</a>
<a xlink:href="#" xlink:title="A unique identifier for this target, see Section 3.2.9.">
<polygon fill="#284f9f" stroke="#284f9f" points="9,-721 9,-741 224,-741 224,-721 9,-721"/>
<polygon fill="none" stroke="black" points="9,-721 9,-741 224,-741 224,-721 9,-721"/>
<text text-anchor="start" x="25" y="-727.733" font-family="Times Roman,serif" font-size="14.00">[STRING] ident (Optional) </text>
</a>
<a xlink:href="#" xlink:title="An indication of whether the target is, as far as the analyzer can determine, a decoy. &#160;The permitted values for this attribute are shown below. &#160;The default value is &quot;unknown&quot;. &#160;(See also Section 10.)">
<polygon fill="#284f9f" stroke="#284f9f" points="9,-701 9,-721 224,-721 224,-701 9,-701"/>
<polygon fill="none" stroke="black" points="9,-701 9,-721 224,-721 224,-701 9,-701"/>
<text text-anchor="start" x="29" y="-707.733" font-family="Times Roman,serif" font-size="14.00">[ENUM] decoy (Optional) </text>
</a>
<a xlink:href="#" xlink:title="May be used by a network&#45;based analyzer with multiple interfaces to indicate which interface this target was seen on.">
<polygon fill="#284f9f" stroke="#284f9f" points="9,-681 9,-701 224,-701 224,-681 9,-681"/>
<polygon fill="none" stroke="black" points="9,-681 9,-701 224,-701 224,-681 9,-681"/>
<text text-anchor="start" x="12.5" y="-687.733" font-family="Times Roman,serif" font-size="14.00">[STRING] interface (Optional) </text>
</a>
</g>
<!-- Node -->
<g id="node2" class="node"><title>Node</title>
<a xlink:href="#" xlink:title="The Node class is used to identify hosts and other network devices (routers, switches, etc.). ">
<polygon fill="#007a00" stroke="#007a00" points="362,-935 362,-956 565,-956 565,-935 362,-935"/>
<polygon fill="none" stroke="black" points="362,-935 362,-956 565,-956 565,-935 362,-935"/>
<text text-anchor="start" x="445.5" y="-942.233" font-family="Times Roman,serif" font-size="14.00">Node</text>
</a>
<a xlink:href="#" xlink:title="The location of the equipment.">
<polygon fill="#00cc00" stroke="#00cc00" points="362,-915 362,-935 565,-935 565,-915 362,-915"/>
<polygon fill="none" stroke="black" points="362,-915 362,-935 565,-935 565,-915 362,-915"/>
<text text-anchor="start" x="378.5" y="-921.733" font-family="Times Roman,serif" font-size="14.00">[STRING] location (0..1) </text>
</a>
<a xlink:href="#" xlink:title="The name of the equipment. &#160;This information MUST be provided if no Address information is given.">
<polygon fill="#00cc00" stroke="#00cc00" points="362,-895 362,-915 565,-915 565,-895 362,-895"/>
<polygon fill="none" stroke="black" points="362,-895 362,-915 565,-915 565,-895 362,-895"/>
<text text-anchor="start" x="386.5" y="-901.733" font-family="Times Roman,serif" font-size="14.00">[STRING] name (0..1) </text>
</a>
<a xlink:href="#" xlink:title="A unique identifier for the node; see Section 3.2.9.">
<polygon fill="#00cc00" stroke="#00cc00" points="362,-875 362,-895 565,-895 565,-875 362,-875"/>
<polygon fill="none" stroke="black" points="362,-875 362,-895 565,-895 565,-875 362,-875"/>
<text text-anchor="start" x="372" y="-881.733" font-family="Times Roman,serif" font-size="14.00">[STRING] ident (Optional) </text>
</a>
<a xlink:href="#" xlink:title="The &quot;domain&quot; from which the name information was obtained, if relevant. &#160;The permitted values for this attribute are shown in the table below. &#160;The default value is &quot;unknown&quot;. (See also Section 10 for extensions to the table.)">
<polygon fill="#00cc00" stroke="#00cc00" points="362,-855 362,-875 565,-875 565,-855 362,-855"/>
<polygon fill="none" stroke="black" points="362,-855 362,-875 565,-875 565,-855 362,-855"/>
<text text-anchor="start" x="365.5" y="-861.733" font-family="Times Roman,serif" font-size="14.00">[ENUM] category (Optional) </text>
</a>
</g>
<!-- Target&#45;&gt;Node -->
<g id="edge4" class="edge"><title>Target&#45;&gt;Node</title>
<path fill="none" stroke="black" d="M154.266,-766.276C179.146,-792.558 213.636,-824.623 250,-845 278.662,-861.061 311.909,-873.195 343.491,-882.235"/>
<polygon fill="black" stroke="black" points="342.66,-885.637 353.232,-884.942 344.535,-878.892 342.66,-885.637"/>
<text text-anchor="middle" x="264" y="-862.4" font-family="Times Roman,serif" font-size="14.00">0..1</text>
</g>
<!-- User -->
<g id="node6" class="node"><title>User</title>
<a xlink:href="#" xlink:title="The User class is used to describe users. It is primarily used as a &quot;container&quot; class for the UserId aggregate class, as shown in Figure 16. ">
<polygon fill="#3d7a99" stroke="#3d7a99" points="657,-818 657,-839 860,-839 860,-818 657,-818"/>
<polygon fill="none" stroke="black" points="657,-818 657,-839 860,-839 860,-818 657,-818"/>
<text text-anchor="start" x="742.5" y="-825.233" font-family="Times Roman,serif" font-size="14.00">User</text>
</a>
<a xlink:href="#" xlink:title="A unique identifier for the user; see Section 3.2.9.">
<polygon fill="#66ccff" stroke="#66ccff" points="657,-798 657,-818 860,-818 860,-798 657,-798"/>
<polygon fill="none" stroke="black" points="657,-798 657,-818 860,-818 860,-798 657,-798"/>
<text text-anchor="start" x="667" y="-804.733" font-family="Times Roman,serif" font-size="14.00">[STRING] ident (Optional) </text>
</a>
<a xlink:href="#" xlink:title="The type of user represented. &#160;The permitted values for this attribute are shown below. &#160;The default value is &quot;unknown&quot;. (See also Section 10.)">
<polygon fill="#66ccff" stroke="#66ccff" points="657,-778 657,-798 860,-798 860,-778 657,-778"/>
<polygon fill="none" stroke="black" points="657,-778 657,-798 860,-798 860,-778 657,-778"/>
<text text-anchor="start" x="660.5" y="-784.733" font-family="Times Roman,serif" font-size="14.00">[ENUM] category (Optional) </text>
</a>
</g>
<!-- Target&#45;&gt;User -->
<g id="edge8" class="edge"><title>Target&#45;&gt;User</title>
<path fill="none" stroke="black" d="M192.754,-766.102C223.775,-781.573 260.573,-797.065 296,-805 410.035,-830.543 543.908,-828.308 638.105,-821.64"/>
<polygon fill="black" stroke="black" points="638.524,-825.118 648.24,-820.894 638.011,-818.137 638.524,-825.118"/>
<text text-anchor="middle" x="264" y="-804.4" font-family="Times Roman,serif" font-size="14.00">0..1</text>
</g>
<!-- Process -->
<g id="node10" class="node"><title>Process</title>
<a xlink:href="#" xlink:title="The Process class is used to describe processes being executed on sources, targets, and analyzers. ">
<polygon fill="#997a3d" stroke="#997a3d" points="368,-771 368,-792 558,-792 558,-771 368,-771"/>
<polygon fill="none" stroke="black" points="368,-771 368,-792 558,-792 558,-771 368,-771"/>
<text text-anchor="start" x="437" y="-778.233" font-family="Times Roman,serif" font-size="14.00">Process</text>
</a>
<a xlink:href="#" xlink:title="The name of the program being executed. This is a short name; path and argument information are provided elsewhere.">
<polygon fill="#ffcc66" stroke="#ffcc66" points="368,-751 368,-771 558,-771 558,-751 368,-751"/>
<polygon fill="none" stroke="black" points="368,-751 368,-771 558,-771 558,-751 368,-751"/>
<text text-anchor="start" x="395" y="-757.733" font-family="Times Roman,serif" font-size="14.00">[STRING] name (1) </text>
</a>
<a xlink:href="#" xlink:title="The process identifier of the process.">
<polygon fill="#ffcc66" stroke="#ffcc66" points="368,-731 368,-751 558,-751 558,-731 368,-731"/>
<polygon fill="none" stroke="black" points="368,-731 368,-751 558,-751 558,-731 368,-731"/>
<text text-anchor="start" x="390.5" y="-737.733" font-family="Times Roman,serif" font-size="14.00">[INTEGER] pid (0..1) </text>
</a>
<a xlink:href="#" xlink:title="The full path of the program being executed.">
<polygon fill="#ffcc66" stroke="#ffcc66" points="368,-711 368,-731 558,-731 558,-711 368,-711"/>
<polygon fill="none" stroke="black" points="368,-711 368,-731 558,-731 558,-711 368,-711"/>
<text text-anchor="start" x="389" y="-717.733" font-family="Times Roman,serif" font-size="14.00">[STRING] path (0..1) </text>
</a>
<a xlink:href="#" xlink:title="A command&#45;line argument to the program. Multiple arguments may be specified (they are assumed to have occurred in the same order they are provided) with multiple uses of arg.">
<polygon fill="#ffcc66" stroke="#ffcc66" points="368,-691 368,-711 558,-711 558,-691 368,-691"/>
<polygon fill="none" stroke="black" points="368,-691 368,-711 558,-711 558,-691 368,-691"/>
<text text-anchor="start" x="394.5" y="-697.733" font-family="Times Roman,serif" font-size="14.00">[STRING] arg (0..*) </text>
</a>
<a xlink:href="#" xlink:title="An environment string associated with the process; generally of the format &quot;VARIABLE=value&quot;. &#160;Multiple environment strings may be specified with multiple uses of env.">
<polygon fill="#ffcc66" stroke="#ffcc66" points="368,-671 368,-691 558,-691 558,-671 368,-671"/>
<polygon fill="none" stroke="black" points="368,-671 368,-691 558,-691 558,-671 368,-671"/>
<text text-anchor="start" x="393" y="-677.733" font-family="Times Roman,serif" font-size="14.00">[STRING] env (0..*) </text>
</a>
<a xlink:href="#" xlink:title="A unique identifier for the process; see Section 3.2.9.">
<polygon fill="#ffcc66" stroke="#ffcc66" points="368,-651 368,-671 558,-671 558,-651 368,-651"/>
<polygon fill="none" stroke="black" points="368,-651 368,-671 558,-671 558,-651 368,-651"/>
<text text-anchor="start" x="371.5" y="-657.733" font-family="Times Roman,serif" font-size="14.00">[STRING] ident (Optional) </text>
</a>
</g>
<!-- Target&#45;&gt;Process -->
<g id="edge10" class="edge"><title>Target&#45;&gt;Process</title>
<path fill="none" stroke="black" d="M231.546,-722C269.642,-722 311.951,-722 349.865,-722"/>
<polygon fill="black" stroke="black" points="349.918,-725.5 359.918,-722 349.918,-718.5 349.918,-725.5"/>
<text text-anchor="middle" x="264" y="-726.4" font-family="Times Roman,serif" font-size="14.00">0..1</text>
</g>
<!-- Service -->
<g id="node12" class="node"><title>Service</title>
<a xlink:href="#" xlink:title="The Service class describes network services on sources and targets. It can identify services by name, port, and protocol. When Service occurs as an aggregate class of Source, it is understood that the service is one from which activity of interest is originating; and that the service is &quot;attached&quot; to the Node, Process, and User information also contained in Source. Likewise, when Service occurs as an aggregate class of Target, it is understood that the service is one to which activity of interest is being directed; and that the service is &quot;attached&quot; to the Node, Process, and User information also contained in Target. If Service occurs in both Source and Target, then information in both locations should be the same. If information is the same in both locations and implementers wish to carry it in only one location, they should specify it as an aggregate of the Target class. ">
<polygon fill="#997a7a" stroke="#997a7a" points="305,-605 305,-626 622,-626 622,-605 305,-605"/>
<polygon fill="none" stroke="black" points="305,-605 305,-626 622,-626 622,-605 305,-605"/>
<text text-anchor="start" x="438" y="-612.233" font-family="Times Roman,serif" font-size="14.00">Service</text>
</a>
<a xlink:href="#" xlink:title="The name of the service. &#160;Whenever possible, the name from the IANA list of well&#45;known ports SHOULD be used.">
<polygon fill="#ffcccc" stroke="#ffcccc" points="305,-585 305,-605 622,-605 622,-585 305,-585"/>
<polygon fill="none" stroke="black" points="305,-585 305,-605 622,-605 622,-585 305,-585"/>
<text text-anchor="start" x="386.5" y="-591.733" font-family="Times Roman,serif" font-size="14.00">[STRING] name (0..1) </text>
</a>
<a xlink:href="#" xlink:title="The port number being used.">
<polygon fill="#ffcccc" stroke="#ffcccc" points="305,-565 305,-585 622,-585 622,-565 305,-565"/>
<polygon fill="none" stroke="black" points="305,-565 305,-585 622,-585 622,-565 305,-565"/>
<text text-anchor="start" x="386.5" y="-571.733" font-family="Times Roman,serif" font-size="14.00">[INTEGER] port (0..1) </text>
</a>
<a xlink:href="#" xlink:title="A list of port numbers being used; see Section 3.2.8 for formatting rules. &#160;If a portlist is given, the iana_protocol_number and iana_protocol_name MUST apply to all the elements of the list.">
<polygon fill="#ffcccc" stroke="#ffcccc" points="305,-545 305,-565 622,-565 622,-545 305,-545"/>
<polygon fill="none" stroke="black" points="305,-545 305,-565 622,-565 622,-545 305,-545"/>
<text text-anchor="start" x="373.5" y="-551.733" font-family="Times Roman,serif" font-size="14.00">[PORTLIST] portlist (0..1) </text>
</a>
<a xlink:href="#" xlink:title="Additional information about the protocol being used. &#160;The intent of the protocol field is to carry additional information related to the protocol being used when the &lt;Service&gt; attributes iana_protocol_number or/and iana_protocol_name are filed.">
<polygon fill="#ffcccc" stroke="#ffcccc" points="305,-525 305,-545 622,-545 622,-525 305,-525"/>
<polygon fill="none" stroke="black" points="305,-525 305,-545 622,-545 622,-525 305,-525"/>
<text text-anchor="start" x="377.5" y="-531.733" font-family="Times Roman,serif" font-size="14.00">[STRING] protocol (0..1) </text>
</a>
<a xlink:href="#" xlink:title="A unique identifier for the service; see Section 3.2.9.">
<polygon fill="#ffcccc" stroke="#ffcccc" points="305,-505 305,-525 622,-525 622,-505 305,-505"/>
<polygon fill="none" stroke="black" points="305,-505 305,-525 622,-525 622,-505 305,-505"/>
<text text-anchor="start" x="372" y="-511.733" font-family="Times Roman,serif" font-size="14.00">[STRING] ident (Optional) </text>
</a>
<a xlink:href="#" xlink:title="The IP version number.">
<polygon fill="#ffcccc" stroke="#ffcccc" points="305,-485 305,-505 622,-505 622,-485 305,-485"/>
<polygon fill="none" stroke="black" points="305,-485 305,-505 622,-505 622,-485 305,-485"/>
<text text-anchor="start" x="350.5" y="-491.733" font-family="Times Roman,serif" font-size="14.00">[INTEGER] ip_version (Optional) </text>
</a>
<a xlink:href="#" xlink:title="The IANA protocol number.">
<polygon fill="#ffcccc" stroke="#ffcccc" points="305,-465 305,-485 622,-485 622,-465 305,-465"/>
<polygon fill="none" stroke="black" points="305,-465 305,-485 622,-485 622,-465 305,-465"/>
<text text-anchor="start" x="308.5" y="-471.733" font-family="Times Roman,serif" font-size="14.00">[INTEGER] iana_protocol_number (Optional) </text>
</a>
<a xlink:href="#" xlink:title="The IANA protocol name.">
<polygon fill="#ffcccc" stroke="#ffcccc" points="305,-445 305,-465 622,-465 622,-445 305,-445"/>
<polygon fill="none" stroke="black" points="305,-445 305,-465 622,-465 622,-445 305,-445"/>
<text text-anchor="start" x="320.5" y="-451.733" font-family="Times Roman,serif" font-size="14.00">[STRING] iana_protocol_name (Optional) </text>
</a>
</g>
<!-- Target&#45;&gt;Service -->
<g id="edge16" class="edge"><title>Target&#45;&gt;Service</title>
<path fill="none" stroke="black" d="M198.234,-677.921C225.14,-663.499 256.138,-646.883 287.234,-630.215"/>
<polygon fill="black" stroke="black" points="289.282,-633.088 296.442,-625.279 285.975,-626.919 289.282,-633.088"/>
<text text-anchor="middle" x="264" y="-650.4" font-family="Times Roman,serif" font-size="14.00">0..1</text>
</g>
<!-- File -->
<g id="node18" class="node"><title>File</title>
<a xlink:href="#" xlink:title="The File class provides specific information about a file or other file&#45;like object that has been created, deleted, or modified on the target. The description can provide either the file settings prior to the event or the file settings at the time of the event, as specified using the &quot;category&quot; attribute. ">
<polygon fill="#997a00" stroke="#997a00" points="351,-389 351,-410 575,-410 575,-389 351,-389"/>
<polygon fill="none" stroke="black" points="351,-389 351,-410 575,-410 575,-389 351,-389"/>
<text text-anchor="start" x="451" y="-396.233" font-family="Times Roman,serif" font-size="14.00">File</text>
</a>
<a xlink:href="#" xlink:title="The name of the file to which the alert applies, not including the path to the file.">
<polygon fill="#ffcc00" stroke="#ffcc00" points="351,-369 351,-389 575,-389 575,-369 351,-369"/>
<polygon fill="none" stroke="black" points="351,-369 351,-389 575,-389 575,-369 351,-369"/>
<text text-anchor="start" x="395" y="-375.733" font-family="Times Roman,serif" font-size="14.00">[STRING] name (1) </text>
</a>
<a xlink:href="#" xlink:title="The full path to the file, including the name. &#160;The path name should be represented in as &quot;universal&quot; a manner as possible, to facilitate processing of the alert.">
<polygon fill="#ffcc00" stroke="#ffcc00" points="351,-349 351,-369 575,-369 575,-349 351,-349"/>
<polygon fill="none" stroke="black" points="351,-349 351,-369 575,-369 575,-349 351,-349"/>
<text text-anchor="start" x="398" y="-355.733" font-family="Times Roman,serif" font-size="14.00">[STRING] path (1) </text>
</a>
<a xlink:href="#" xlink:title="Time the file was created. &#160;Note that this is *not* the Unix &quot;st_ctime&quot; file attribute (which is not file creation time). &#160;The Unix &quot;st_ctime&quot; attribute is contained in the &quot;Inode&quot; class.">
<polygon fill="#ffcc00" stroke="#ffcc00" points="351,-329 351,-349 575,-349 575,-329 351,-329"/>
<polygon fill="none" stroke="black" points="351,-329 351,-349 575,-349 575,-329 351,-329"/>
<text text-anchor="start" x="356" y="-335.733" font-family="Times Roman,serif" font-size="14.00">[DATETIME] create&#45;time (0..1) </text>
</a>
<a xlink:href="#" xlink:title="Time the file was last modified.">
<polygon fill="#ffcc00" stroke="#ffcc00" points="351,-309 351,-329 575,-329 575,-309 351,-309"/>
<polygon fill="none" stroke="black" points="351,-309 351,-329 575,-329 575,-309 351,-309"/>
<text text-anchor="start" x="354.5" y="-315.733" font-family="Times Roman,serif" font-size="14.00">[DATETIME] modify&#45;time (0..1) </text>
</a>
<a xlink:href="#" xlink:title="Time the file was last accessed.">
<polygon fill="#ffcc00" stroke="#ffcc00" points="351,-289 351,-309 575,-309 575,-289 351,-289"/>
<polygon fill="none" stroke="black" points="351,-289 351,-309 575,-309 575,-289 351,-289"/>
<text text-anchor="start" x="356" y="-295.733" font-family="Times Roman,serif" font-size="14.00">[DATETIME] access&#45;time (0..1) </text>
</a>
<a xlink:href="#" xlink:title="The size of the data, in bytes. &#160;Typically what is meant when referring to file size. &#160;On Unix UFS file systems, this value corresponds to stat.st_size. &#160;On Windows NTFS, this value corresponds to Valid Data Length (VDL).">
<polygon fill="#ffcc00" stroke="#ffcc00" points="351,-269 351,-289 575,-289 575,-269 351,-269"/>
<polygon fill="none" stroke="black" points="351,-269 351,-289 575,-289 575,-269 351,-269"/>
<text text-anchor="start" x="369" y="-275.733" font-family="Times Roman,serif" font-size="14.00">[INTEGER] data&#45;size (0..1) </text>
</a>
<a xlink:href="#" xlink:title="The physical space on disk consumed by the file, in bytes. &#160;On Unix UFS file systems, this value corresponds to 512 * stat.st_blocks. &#160;On Windows NTFS, this value corresponds to End of File (EOF).">
<polygon fill="#ffcc00" stroke="#ffcc00" points="351,-249 351,-269 575,-269 575,-249 351,-249"/>
<polygon fill="none" stroke="black" points="351,-249 351,-269 575,-269 575,-249 351,-249"/>
<text text-anchor="start" x="371" y="-255.733" font-family="Times Roman,serif" font-size="14.00">[INTEGER] disk&#45;size (0..1) </text>
</a>
<a xlink:href="#" xlink:title="A unique identifier for this file; see Section 3.2.9.">
<polygon fill="#ffcc00" stroke="#ffcc00" points="351,-229 351,-249 575,-249 575,-229 351,-229"/>
<polygon fill="none" stroke="black" points="351,-229 351,-249 575,-249 575,-229 351,-229"/>
<text text-anchor="start" x="387.5" y="-235.733" font-family="Times Roman,serif" font-size="14.00">[STRING] ident (0..1) </text>
</a>
<a xlink:href="#" xlink:title="The type of file system the file resides on. &#160;This attribute governs how path names and other attributes are interpreted.">
<polygon fill="#ffcc00" stroke="#ffcc00" points="351,-209 351,-229 575,-229 575,-209 351,-209"/>
<polygon fill="none" stroke="black" points="351,-209 351,-229 575,-229 575,-209 351,-209"/>
<text text-anchor="start" x="402" y="-215.733" font-family="Times Roman,serif" font-size="14.00">[] category (0..1) </text>
</a>
<a xlink:href="#" xlink:title="The type of file, as a mime&#45;type.">
<polygon fill="#ffcc00" stroke="#ffcc00" points="351,-189 351,-209 575,-209 575,-189 351,-189"/>
<polygon fill="none" stroke="black" points="351,-189 351,-209 575,-209 575,-189 351,-189"/>
<text text-anchor="start" x="404" y="-195.733" font-family="Times Roman,serif" font-size="14.00">[] file&#45;type (0..1) </text>
</a>
</g>
<!-- Target&#45;&gt;File -->
<g id="edge30" class="edge"><title>Target&#45;&gt;File</title>
<path fill="none" stroke="black" d="M137.348,-677.984C167.508,-618.457 226.708,-510.796 296,-433 307.856,-419.689 321.151,-406.685 334.927,-394.343"/>
<polygon fill="black" stroke="black" points="337.438,-396.796 342.623,-387.557 332.808,-391.545 337.438,-396.796"/>
<text text-anchor="middle" x="264" y="-488.4" font-family="Times Roman,serif" font-size="14.00">0..1</text>
</g>
<!-- Address -->
<g id="node3" class="node"><title>Address</title>
<a xlink:href="#" xlink:title="The Address class is used to represent network, hardware, and application addresses. ">
<polygon fill="#007a00" stroke="#007a00" points="933,-955 933,-976 1162,-976 1162,-955 933,-955"/>
<polygon fill="none" stroke="black" points="933,-955 933,-976 1162,-976 1162,-955 933,-955"/>
<text text-anchor="start" x="1020" y="-962.233" font-family="Times Roman,serif" font-size="14.00">Address</text>
</a>
<a xlink:href="#" xlink:title="The address information. &#160;The format of this data is governed by the category attribute.">
<polygon fill="#00cc00" stroke="#00cc00" points="933,-935 933,-955 1162,-955 1162,-935 933,-935"/>
<polygon fill="none" stroke="black" points="933,-935 933,-955 1162,-955 1162,-935 933,-935"/>
<text text-anchor="start" x="972" y="-941.733" font-family="Times Roman,serif" font-size="14.00">[STRING] address (1) </text>
</a>
<a xlink:href="#" xlink:title="The network mask for the address, if appropriate.">
<polygon fill="#00cc00" stroke="#00cc00" points="933,-915 933,-935 1162,-935 1162,-915 933,-915"/>
<polygon fill="none" stroke="black" points="933,-915 933,-935 1162,-935 1162,-915 933,-915"/>
<text text-anchor="start" x="960" y="-921.733" font-family="Times Roman,serif" font-size="14.00">[STRING] netmask (0..1) </text>
</a>
<a xlink:href="#" xlink:title="A unique identifier for the address; see Section 3.2.9.">
<polygon fill="#00cc00" stroke="#00cc00" points="933,-895 933,-915 1162,-915 1162,-895 933,-895"/>
<polygon fill="none" stroke="black" points="933,-895 933,-915 1162,-915 1162,-895 933,-895"/>
<text text-anchor="start" x="956" y="-901.733" font-family="Times Roman,serif" font-size="14.00">[STRING] ident (Optional) </text>
</a>
<a xlink:href="#" xlink:title="The type of address represented. &#160;The permitted values for this attribute are shown below. &#160;The default value is &quot;unknown&quot;. &#160;(See also Section 10.)">
<polygon fill="#00cc00" stroke="#00cc00" points="933,-875 933,-895 1162,-895 1162,-875 933,-875"/>
<polygon fill="none" stroke="black" points="933,-875 933,-895 1162,-895 1162,-875 933,-875"/>
<text text-anchor="start" x="949.5" y="-881.733" font-family="Times Roman,serif" font-size="14.00">[ENUM] category (Optional) </text>
</a>
<a xlink:href="#" xlink:title="The name of the Virtual LAN to which the address belongs.">
<polygon fill="#00cc00" stroke="#00cc00" points="933,-855 933,-875 1162,-875 1162,-855 933,-855"/>
<polygon fill="none" stroke="black" points="933,-855 933,-875 1162,-875 1162,-855 933,-855"/>
<text text-anchor="start" x="937.5" y="-861.733" font-family="Times Roman,serif" font-size="14.00">[STRING] vlan&#45;name (Optional) </text>
</a>
<a xlink:href="#" xlink:title="The number of the Virtual LAN to which the address belongs.">
<polygon fill="#00cc00" stroke="#00cc00" points="933,-835 933,-855 1162,-855 1162,-835 933,-835"/>
<polygon fill="none" stroke="black" points="933,-835 933,-855 1162,-855 1162,-835 933,-835"/>
<text text-anchor="start" x="936.5" y="-841.733" font-family="Times Roman,serif" font-size="14.00">[INTEGER] vlan&#45;num (Optional) </text>
</a>
</g>
<!-- Node&#45;&gt;Address -->
<g id="edge2" class="edge"><title>Node&#45;&gt;Address</title>
<path fill="none" stroke="black" d="M572.503,-906C669.352,-906 810.907,-906 914.191,-906"/>
<polygon fill="black" stroke="black" points="914.379,-909.5 924.379,-906 914.379,-902.5 914.379,-909.5"/>
<text text-anchor="middle" x="758" y="-910.4" font-family="Times Roman,serif" font-size="14.00">0..*</text>
</g>
<!-- UserId -->
<g id="node7" class="node"><title>UserId</title>
<a xlink:href="#" xlink:title="The UserId class provides specific information about a user. More than one UserId can be used within the User class to indicate attempts to transition from one user to another, or to provide complete information about a user&#39;s (or process&#39;) privileges. ">
<polygon fill="#3d7a99" stroke="#3d7a99" points="1262,-728 1262,-749 1452,-749 1452,-728 1262,-728"/>
<polygon fill="none" stroke="black" points="1262,-728 1262,-749 1452,-749 1452,-728 1262,-728"/>
<text text-anchor="start" x="1334.5" y="-735.233" font-family="Times Roman,serif" font-size="14.00">UserId</text>
</a>
<a xlink:href="#" xlink:title="A user or group name.">
<polygon fill="#66ccff" stroke="#66ccff" points="1262,-708 1262,-728 1452,-728 1452,-708 1262,-708"/>
<polygon fill="none" stroke="black" points="1262,-708 1262,-728 1452,-728 1452,-708 1262,-708"/>
<text text-anchor="start" x="1280" y="-714.733" font-family="Times Roman,serif" font-size="14.00">[STRING] name (0..1) </text>
</a>
<a xlink:href="#" xlink:title="A user or group number.">
<polygon fill="#66ccff" stroke="#66ccff" points="1262,-688 1262,-708 1452,-708 1452,-688 1262,-688"/>
<polygon fill="none" stroke="black" points="1262,-688 1262,-708 1452,-708 1452,-688 1262,-688"/>
<text text-anchor="start" x="1268" y="-694.733" font-family="Times Roman,serif" font-size="14.00">[INTEGER] number (0..1) </text>
</a>
<a xlink:href="#" xlink:title="A unique identifier for the user id, see Section 3.2.9.">
<polygon fill="#66ccff" stroke="#66ccff" points="1262,-668 1262,-688 1452,-688 1452,-668 1262,-668"/>
<polygon fill="none" stroke="black" points="1262,-668 1262,-688 1452,-688 1452,-668 1262,-668"/>
<text text-anchor="start" x="1265.5" y="-674.733" font-family="Times Roman,serif" font-size="14.00">[STRING] ident (Optional) </text>
</a>
<a xlink:href="#" xlink:title="The type of user information represented. &#160;The permitted values for this attribute are shown below. &#160;The default value is &quot;original&#45;user&quot;. &#160;(See also Section 10.)">
<polygon fill="#66ccff" stroke="#66ccff" points="1262,-648 1262,-668 1452,-668 1452,-648 1262,-648"/>
<polygon fill="none" stroke="black" points="1262,-648 1262,-668 1452,-668 1452,-648 1262,-648"/>
<text text-anchor="start" x="1274" y="-654.733" font-family="Times Roman,serif" font-size="14.00">[ENUM] type (Optional) </text>
</a>
<a xlink:href="#" xlink:title="The tty the user is using.">
<polygon fill="#66ccff" stroke="#66ccff" points="1262,-628 1262,-648 1452,-648 1452,-628 1262,-628"/>
<polygon fill="none" stroke="black" points="1262,-628 1262,-648 1452,-648 1452,-628 1262,-628"/>
<text text-anchor="start" x="1273" y="-634.733" font-family="Times Roman,serif" font-size="14.00">[STRING] tty (Optional) </text>
</a>
</g>
<!-- User&#45;&gt;UserId -->
<g id="edge6" class="edge"><title>User&#45;&gt;UserId</title>
<path fill="none" stroke="black" d="M867.705,-803.64C979.994,-797.283 1146.49,-785.199 1208,-767 1220.16,-763.402 1232.48,-758.78 1244.56,-753.585"/>
<polygon fill="black" stroke="black" points="1246.03,-756.765 1253.74,-749.509 1243.18,-750.367 1246.03,-756.765"/>
<text text-anchor="middle" x="1047" y="-806.4" font-family="Times Roman,serif" font-size="14.00">1..*</text>
</g>
<!-- WebService -->
<g id="node13" class="node"><title>WebService</title>
<a xlink:href="#" xlink:title="The WebService class carries additional information related to web traffic. ">
<polygon fill="#997a7a" stroke="#997a7a" points="942,-733 942,-754 1152,-754 1152,-733 942,-733"/>
<polygon fill="none" stroke="black" points="942,-733 942,-754 1152,-754 1152,-733 942,-733"/>
<text text-anchor="start" x="1006" y="-740.233" font-family="Times Roman,serif" font-size="14.00">WebService</text>
</a>
<a xlink:href="#" xlink:title="The URL in the request.">
<polygon fill="#ffcccc" stroke="#ffcccc" points="942,-713 942,-733 1152,-733 1152,-713 942,-713"/>
<polygon fill="none" stroke="black" points="942,-713 942,-733 1152,-733 1152,-713 942,-713"/>
<text text-anchor="start" x="988.5" y="-719.733" font-family="Times Roman,serif" font-size="14.00">[STRING] url (1) </text>
</a>
<a xlink:href="#" xlink:title="The CGI script in the request, without arguments.">
<polygon fill="#ffcccc" stroke="#ffcccc" points="942,-693 942,-713 1152,-713 1152,-693 942,-693"/>
<polygon fill="none" stroke="black" points="942,-693 942,-713 1152,-713 1152,-693 942,-693"/>
<text text-anchor="start" x="979.5" y="-699.733" font-family="Times Roman,serif" font-size="14.00">[STRING] cgi (0..1) </text>
</a>
<a xlink:href="#" xlink:title="The HTTP method (PUT, GET) used in the request.">
<polygon fill="#ffcccc" stroke="#ffcccc" points="942,-673 942,-693 1152,-693 1152,-673 942,-673"/>
<polygon fill="none" stroke="black" points="942,-673 942,-693 1152,-693 1152,-673 942,-673"/>
<text text-anchor="start" x="945.5" y="-679.733" font-family="Times Roman,serif" font-size="14.00">[STRING] http&#45;method (0..1) </text>
</a>
<a xlink:href="#" xlink:title="The arguments to the CGI script.">
<polygon fill="#ffcccc" stroke="#ffcccc" points="942,-653 942,-673 1152,-673 1152,-653 942,-653"/>
<polygon fill="none" stroke="black" points="942,-653 942,-673 1152,-673 1152,-653 942,-653"/>
<text text-anchor="start" x="978.5" y="-659.733" font-family="Times Roman,serif" font-size="14.00">[STRING] arg (0..*) </text>
</a>
</g>
<!-- Service&#45;&gt;WebService -->
<g id="edge12" class="edge"><title>Service&#45;&gt;WebService</title>
<path fill="none" stroke="black" d="M639.349,-586.73C734.962,-614.236 850.309,-647.418 933.868,-671.455"/>
<polygon fill="none" stroke="black" points="630.537,-580.554 639.18,-586.682 628.602,-587.281 630.537,-580.554"/>
</g>
<!-- SNMPService -->
<g id="node15" class="node"><title>SNMPService</title>
<a xlink:href="#" xlink:title="The SNMPService class carries additional information related to SNMP traffic. The aggregate classes composing SNMPService must be interpreted as described in RFC 3411 [15] and RFC 3584 [16]. ">
<polygon fill="#997a7a" stroke="#997a7a" points="895,-607 895,-628 1200,-628 1200,-607 895,-607"/>
<polygon fill="none" stroke="black" points="895,-607 895,-628 1200,-628 1200,-607 895,-607"/>
<text text-anchor="start" x="1002" y="-614.233" font-family="Times Roman,serif" font-size="14.00">SNMPService</text>
</a>
<a xlink:href="#" xlink:title="The object identifier in the request.">
<polygon fill="#ffcccc" stroke="#ffcccc" points="895,-587 895,-607 1200,-607 1200,-587 895,-587"/>
<polygon fill="none" stroke="black" points="895,-587 895,-607 1200,-607 1200,-587 895,-587"/>
<text text-anchor="start" x="979.5" y="-593.733" font-family="Times Roman,serif" font-size="14.00">[STRING] oid (0..1) </text>
</a>
<a xlink:href="#" xlink:title="The SNMP version, typically 0 for SNMPv1, 1 for SNMPv2c, 2 for SNMPv2u and SNMPv2*, and 3 for SNMPv3; see RFC 3411 [15] Section 5 for appropriate values.">
<polygon fill="#ffcccc" stroke="#ffcccc" points="895,-567 895,-587 1200,-587 1200,-567 895,-567"/>
<polygon fill="none" stroke="black" points="895,-567 895,-587 1200,-587 1200,-567 895,-567"/>
<text text-anchor="start" x="898.5" y="-573.733" font-family="Times Roman,serif" font-size="14.00">[INTEGER] messageProcessingModel (0..1) </text>
</a>
<a xlink:href="#" xlink:title="The identification of the security model in use, typically 0 for any, 1 for SNMPv1, 2 for SNMPv2c, and 3 for USM; see RFC 3411 [15] Section 5 for appropriate values.">
<polygon fill="#ffcccc" stroke="#ffcccc" points="895,-547 895,-567 1200,-567 1200,-547 895,-547"/>
<polygon fill="none" stroke="black" points="895,-547 895,-567 1200,-567 1200,-547 895,-547"/>
<text text-anchor="start" x="937.5" y="-553.733" font-family="Times Roman,serif" font-size="14.00">[INTEGER] securityModel (0..1) </text>
</a>
<a xlink:href="#" xlink:title="The object&#39;s security name; see RFC 3411 [15] Section 3.2.2.">
<polygon fill="#ffcccc" stroke="#ffcccc" points="895,-527 895,-547 1200,-547 1200,-527 895,-527"/>
<polygon fill="none" stroke="black" points="895,-527 895,-547 1200,-547 1200,-527 895,-527"/>
<text text-anchor="start" x="942" y="-533.733" font-family="Times Roman,serif" font-size="14.00">[STRING] securityName (0..1) </text>
</a>
<a xlink:href="#" xlink:title="The security level of the SNMP request; see RFC 3411 [15] Section 3.4.3.">
<polygon fill="#ffcccc" stroke="#ffcccc" points="895,-507 895,-527 1200,-527 1200,-507 895,-507"/>
<polygon fill="none" stroke="black" points="895,-507 895,-527 1200,-527 1200,-507 895,-507"/>
<text text-anchor="start" x="939" y="-513.733" font-family="Times Roman,serif" font-size="14.00">[INTEGER] securityLevel (0..1) </text>
</a>
<a xlink:href="#" xlink:title="The object&#39;s context name; see RFC 3411 [15] Section 3.3.3.">
<polygon fill="#ffcccc" stroke="#ffcccc" points="895,-487 895,-507 1200,-507 1200,-487 895,-487"/>
<polygon fill="none" stroke="black" points="895,-487 895,-507 1200,-507 1200,-487 895,-487"/>
<text text-anchor="start" x="943.5" y="-493.733" font-family="Times Roman,serif" font-size="14.00">[STRING] contextName (0..1) </text>
</a>
<a xlink:href="#" xlink:title="The object&#39;s context engine identifier; see RFC 3411 [15] Section 3.3.2.">
<polygon fill="#ffcccc" stroke="#ffcccc" points="895,-467 895,-487 1200,-487 1200,-467 895,-467"/>
<polygon fill="none" stroke="black" points="895,-467 895,-487 1200,-487 1200,-467 895,-467"/>
<text text-anchor="start" x="931.5" y="-473.733" font-family="Times Roman,serif" font-size="14.00">[STRING] contextEngineID (0..1) </text>
</a>
<a xlink:href="#" xlink:title="The command sent to the SNMP server (GET, SET, etc.).">
<polygon fill="#ffcccc" stroke="#ffcccc" points="895,-447 895,-467 1200,-467 1200,-447 895,-447"/>
<polygon fill="none" stroke="black" points="895,-447 895,-467 1200,-467 1200,-447 895,-447"/>
<text text-anchor="start" x="956.5" y="-453.733" font-family="Times Roman,serif" font-size="14.00">[STRING] command (0..1) </text>
</a>
</g>
<!-- Service&#45;&gt;SNMPService -->
<g id="edge14" class="edge"><title>Service&#45;&gt;SNMPService</title>
<path fill="none" stroke="black" d="M640.041,-536.606C718.391,-536.875 809.883,-537.188 886.25,-537.449"/>
<polygon fill="none" stroke="black" points="629.581,-533.07 639.569,-536.605 629.557,-540.07 629.581,-533.07"/>
</g>
<!-- FileAccess -->
<g id="node19" class="node"><title>FileAccess</title>
<a xlink:href="#" xlink:title="The FileAccess class represents the access permissions on a file. The representation is intended to be useful across operating systems. ">
<polygon fill="#997a00" stroke="#997a00" points="956,-401 956,-422 1139,-422 1139,-401 956,-401"/>
<polygon fill="none" stroke="black" points="956,-401 956,-422 1139,-422 1139,-401 956,-401"/>
<text text-anchor="start" x="1013" y="-408.233" font-family="Times Roman,serif" font-size="14.00">FileAccess</text>
</a>
<a xlink:href="#" xlink:title="Level of access allowed. &#160;The permitted values are shown below. &#160;There is no default value. &#160;(See also Section 10.)">
<polygon fill="#ffcc00" stroke="#ffcc00" points="956,-381 956,-401 1139,-401 1139,-381 956,-381"/>
<polygon fill="none" stroke="black" points="956,-381 956,-401 1139,-401 1139,-381 956,-381"/>
<text text-anchor="start" x="959.5" y="-387.733" font-family="Times Roman,serif" font-size="14.00">[ENUM] Permission (1..*) </text>
</a>
</g>
<!-- File&#45;&gt;FileAccess -->
<g id="edge20" class="edge"><title>File&#45;&gt;FileAccess</title>
<path fill="none" stroke="black" d="M583.297,-321.011C687.349,-339.184 836.515,-365.237 937.334,-382.846"/>
<polygon fill="black" stroke="black" points="936.789,-386.304 947.242,-384.576 937.993,-379.408 936.789,-386.304"/>
<text text-anchor="middle" x="758" y="-374.4" font-family="Times Roman,serif" font-size="14.00">0..*</text>
</g>
<!-- Linkage -->
<g id="node22" class="node"><title>Linkage</title>
<a xlink:href="#" xlink:title="The Linkage class represents file system connections between the file described in the &lt;File&gt; element and other objects in the file system. For example, if the &lt;File&gt; element is a symbolic link or shortcut, then the &lt;Linkage&gt; element should contain the name of the object the link points to. Further information can be provided about the object in the &lt;Linkage&gt; element with another &lt;File&gt; element, if appropriate. ">
<polygon fill="#997a00" stroke="#997a00" points="946,-335 946,-356 1149,-356 1149,-335 946,-335"/>
<polygon fill="none" stroke="black" points="946,-335 946,-356 1149,-356 1149,-335 946,-335"/>
<text text-anchor="start" x="1020" y="-342.233" font-family="Times Roman,serif" font-size="14.00">Linkage</text>
</a>
<a xlink:href="#" xlink:title="The name of the file system object, not including the path.">
<polygon fill="#ffcc00" stroke="#ffcc00" points="946,-315 946,-335 1149,-335 1149,-315 946,-315"/>
<polygon fill="none" stroke="black" points="946,-315 946,-335 1149,-335 1149,-315 946,-315"/>
<text text-anchor="start" x="979.5" y="-321.733" font-family="Times Roman,serif" font-size="14.00">[STRING] name (1) </text>
</a>
<a xlink:href="#" xlink:title="The full path to the file system object, including the name. &#160;The path name should be represented in as &quot;universal&quot; a manner as possible, to facilitate processing of the alert.">
<polygon fill="#ffcc00" stroke="#ffcc00" points="946,-295 946,-315 1149,-315 1149,-295 946,-295"/>
<polygon fill="none" stroke="black" points="946,-295 946,-315 1149,-315 1149,-295 946,-295"/>
<text text-anchor="start" x="982.5" y="-301.733" font-family="Times Roman,serif" font-size="14.00">[STRING] path (1) </text>
</a>
<a xlink:href="#" xlink:title="Section 10.)">
<polygon fill="#ffcc00" stroke="#ffcc00" points="946,-275 946,-295 1149,-295 1149,-275 946,-275"/>
<polygon fill="none" stroke="black" points="946,-275 946,-295 1149,-295 1149,-275 946,-275"/>
<text text-anchor="start" x="949.5" y="-281.733" font-family="Times Roman,serif" font-size="14.00">[ENUM] category (Optional) </text>
</a>
</g>
<!-- File&#45;&gt;Linkage -->
<g id="edge24" class="edge"><title>File&#45;&gt;Linkage</title>
<path fill="none" stroke="black" d="M583.297,-303.296C683.854,-306.051 826.547,-309.96 927.016,-312.713"/>
<polygon fill="black" stroke="black" points="927.123,-316.217 937.215,-312.992 927.315,-309.22 927.123,-316.217"/>
<text text-anchor="middle" x="758" y="-315.4" font-family="Times Roman,serif" font-size="14.00">0..*</text>
</g>
<!-- Inode -->
<g id="node25" class="node"><title>Inode</title>
<a xlink:href="#" xlink:title="The Inode class is used to represent the additional information contained in a Unix file system i&#45;node. ">
<polygon fill="#997a00" stroke="#997a00" points="931,-229 931,-250 1163,-250 1163,-229 931,-229"/>
<polygon fill="none" stroke="black" points="931,-229 931,-250 1163,-250 1163,-229 931,-229"/>
<text text-anchor="start" x="1027.5" y="-236.233" font-family="Times Roman,serif" font-size="14.00">Inode</text>
</a>
<a xlink:href="#" xlink:title="The time of the last inode change, given by the st_ctime element of &quot;struct stat&quot;.">
<polygon fill="#ffcc00" stroke="#ffcc00" points="931,-209 931,-229 1163,-229 1163,-209 931,-209"/>
<polygon fill="none" stroke="black" points="931,-209 931,-229 1163,-229 1163,-209 931,-209"/>
<text text-anchor="start" x="937" y="-215.733" font-family="Times Roman,serif" font-size="14.00">[DATETIME] change&#45;time (0..1) </text>
</a>
<a xlink:href="#" xlink:title="The inode number.">
<polygon fill="#ffcc00" stroke="#ffcc00" points="931,-189 931,-209 1163,-209 1163,-189 931,-189"/>
<polygon fill="none" stroke="black" points="931,-189 931,-209 1163,-209 1163,-189 931,-189"/>
<text text-anchor="start" x="958" y="-195.733" font-family="Times Roman,serif" font-size="14.00">[INTEGER] number (0..1) </text>
</a>
<a xlink:href="#" xlink:title="The major device number of the device the file resides on.">
<polygon fill="#ffcc00" stroke="#ffcc00" points="931,-169 931,-189 1163,-189 1163,-169 931,-169"/>
<polygon fill="none" stroke="black" points="931,-169 931,-189 1163,-189 1163,-169 931,-169"/>
<text text-anchor="start" x="941" y="-175.733" font-family="Times Roman,serif" font-size="14.00">[INTEGER] major&#45;device (0..1) </text>
</a>
<a xlink:href="#" xlink:title="The minor device number of the device the file resides on.">
<polygon fill="#ffcc00" stroke="#ffcc00" points="931,-149 931,-169 1163,-169 1163,-149 931,-149"/>
<polygon fill="none" stroke="black" points="931,-149 931,-169 1163,-169 1163,-149 931,-149"/>
<text text-anchor="start" x="940.5" y="-155.733" font-family="Times Roman,serif" font-size="14.00">[INTEGER] minor&#45;device (0..1) </text>
</a>
<a xlink:href="#" xlink:title="The major device of the file itself, if it is a character special device.">
<polygon fill="#ffcc00" stroke="#ffcc00" points="931,-129 931,-149 1163,-149 1163,-129 931,-129"/>
<polygon fill="none" stroke="black" points="931,-129 931,-149 1163,-149 1163,-129 931,-129"/>
<text text-anchor="start" x="935" y="-135.733" font-family="Times Roman,serif" font-size="14.00">[INTEGER] c&#45;major&#45;device (0..1) </text>
</a>
<a xlink:href="#" xlink:title="The minor device of the file itself, if it is a character special device.">
<polygon fill="#ffcc00" stroke="#ffcc00" points="931,-109 931,-129 1163,-129 1163,-109 931,-109"/>
<polygon fill="none" stroke="black" points="931,-109 931,-129 1163,-129 1163,-109 931,-109"/>
<text text-anchor="start" x="934.5" y="-115.733" font-family="Times Roman,serif" font-size="14.00">[INTEGER] c&#45;minor&#45;device (0..1) </text>
</a>
</g>
<!-- File&#45;&gt;Inode -->
<g id="edge26" class="edge"><title>File&#45;&gt;Inode</title>
<path fill="none" stroke="black" d="M583.386,-274.485C604.897,-269.965 627.107,-265.323 648,-261 736.284,-242.734 835.64,-222.562 913.121,-206.919"/>
<polygon fill="black" stroke="black" points="913.83,-210.346 922.939,-204.937 912.445,-203.484 913.83,-210.346"/>
<text text-anchor="middle" x="758" y="-265.4" font-family="Times Roman,serif" font-size="14.00">0..1</text>
</g>
<!-- Checksum -->
<g id="node27" class="node"><title>Checksum</title>
<a xlink:href="#" xlink:title="The Checksum class represents checksum information associated with the file. This checksum information can be provided by file integrity checkers, among others. ">
<polygon fill="#997a00" stroke="#997a00" points="942,-63 942,-84 1153,-84 1153,-63 942,-63"/>
<polygon fill="none" stroke="black" points="942,-63 942,-84 1153,-84 1153,-63 942,-63"/>
<text text-anchor="start" x="1012" y="-70.2333" font-family="Times Roman,serif" font-size="14.00">Checksum</text>
</a>
<a xlink:href="#" xlink:title="The value of the checksum.">
<polygon fill="#ffcc00" stroke="#ffcc00" points="942,-43 942,-63 1153,-63 1153,-43 942,-43"/>
<polygon fill="none" stroke="black" points="942,-43 942,-63 1153,-63 1153,-43 942,-43"/>
<text text-anchor="start" x="979.5" y="-49.7333" font-family="Times Roman,serif" font-size="14.00">[STRING] value (1) </text>
</a>
<a xlink:href="#" xlink:title="The key to the checksum, if appropriate.">
<polygon fill="#ffcc00" stroke="#ffcc00" points="942,-23 942,-43 1153,-43 1153,-23 942,-23"/>
<polygon fill="none" stroke="black" points="942,-23 942,-43 1153,-43 1153,-23 942,-23"/>
<text text-anchor="start" x="977.5" y="-29.7333" font-family="Times Roman,serif" font-size="14.00">[STRING] key (0..1) </text>
</a>
<a xlink:href="#" xlink:title="default value. &#160;(See also Section 10.)">
<polygon fill="#ffcc00" stroke="#ffcc00" points="942,-3 942,-23 1153,-23 1153,-3 942,-3"/>
<polygon fill="none" stroke="black" points="942,-3 942,-23 1153,-23 1153,-3 942,-3"/>
<text text-anchor="start" x="945.5" y="-9.73333" font-family="Times Roman,serif" font-size="14.00">[ENUM] algorithm (Required) </text>
</a>
</g>
<!-- File&#45;&gt;Checksum -->
<g id="edge28" class="edge"><title>File&#45;&gt;Checksum</title>
<path fill="none" stroke="black" d="M583.317,-229.672C604.636,-217.986 626.799,-206.324 648,-196 751.001,-145.842 778.623,-136.94 886,-97 898.088,-92.5036 910.756,-87.9934 923.451,-83.6058"/>
<polygon fill="black" stroke="black" points="924.832,-86.8324 933.156,-80.2768 922.561,-80.2111 924.832,-86.8324"/>
<text text-anchor="middle" x="758" y="-200.4" font-family="Times Roman,serif" font-size="14.00">0..*</text>
</g>
<!-- FileAccess&#45;&gt;UserId -->
<g id="edge18" class="edge"><title>FileAccess&#45;&gt;UserId</title>
<path fill="none" stroke="black" d="M1146.86,-409.084C1168.45,-414.132 1190.13,-422.213 1208,-435 1269.63,-479.112 1309.85,-557.312 1332.79,-615.328"/>
<polygon fill="black" stroke="black" points="1329.58,-616.755 1336.46,-624.82 1336.11,-614.23 1329.58,-616.755"/>
<text text-anchor="middle" x="1231" y="-460.4" font-family="Times Roman,serif" font-size="14.00">1</text>
</g>
<!-- Linkage&#45;&gt;File -->
<g id="edge22" class="edge"><title>Linkage&#45;&gt;File</title>
<path fill="none" stroke="black" d="M937.075,-294.625C914.326,-291.033 890.452,-287.868 868,-286 776.39,-278.376 672.791,-282.182 593.305,-287.736"/>
<polygon fill="black" stroke="black" points="592.966,-284.251 583.242,-288.457 593.466,-291.233 592.966,-284.251"/>
<text text-anchor="middle" x="758" y="-290.4" font-family="Times Roman,serif" font-size="14.00">1</text>
</g>
</g>
</svg>
