<?xml version="1.0" encoding="UTF-8" standalone="no"?>
<!DOCTYPE svg PUBLIC "-//W3C//DTD SVG 1.1//EN"
 "http://www.w3.org/Graphics/SVG/1.1/DTD/svg11.dtd">
<!-- Generated by graphviz version 2.26.3 (20100126.1600)
 -->
<!-- Title: ToolAlert Pages: 1 -->
<svg width="214pt" height="96pt"
 viewBox="0.00 0.00 214.00 96.00" xmlns="http://www.w3.org/2000/svg" xmlns:xlink="http://www.w3.org/1999/xlink">
<g id="graph1" class="graph" transform="scale(1 1) rotate(0) translate(4 92)">
<title>ToolAlert</title>
<polygon fill="white" stroke="white" points="-4,5 -4,-92 211,-92 211,5 -4,5"/>
<!-- ToolAlert -->
<g id="node1" class="node"><title>ToolAlert</title>
<a xlink:href="#" xlink:title="The ToolAlert class carries additional information related to the use of attack tools or malevolent programs such as Trojan horses and can be used by the analyzer when it is able to identify these tools. It is intended to group one or more previously&#45;sent alerts together, to say &quot;these alerts were all the result of someone using this tool&quot;. ">
<polygon fill="#737373" stroke="#737373" points="9,-63 9,-84 198,-84 198,-63 9,-63"/>
<polygon fill="none" stroke="black" points="9,-63 9,-84 198,-84 198,-63 9,-63"/>
<text text-anchor="start" x="73" y="-70.2333" font-family="Times Roman,serif" font-size="14.00">ToolAlert</text>
</a>
<a xlink:href="#" xlink:title="The reason for grouping the alerts together, for example, the name of a particular tool.">
<polygon fill="#bfbfbf" stroke="#bfbfbf" points="9,-43 9,-63 198,-63 198,-43 9,-43"/>
<polygon fill="none" stroke="black" points="9,-43 9,-63 198,-63 198,-43 9,-43"/>
<text text-anchor="start" x="35.5" y="-49.7333" font-family="Times Roman,serif" font-size="14.00">[STRING] name (1) </text>
</a>
<a xlink:href="#" xlink:title="The command or operation that the tool was asked to perform, for example, a BackOrifice ping.">
<polygon fill="#bfbfbf" stroke="#bfbfbf" points="9,-23 9,-43 198,-43 198,-23 9,-23"/>
<polygon fill="none" stroke="black" points="9,-23 9,-43 198,-43 198,-23 9,-23"/>
<text text-anchor="start" x="12.5" y="-29.7333" font-family="Times Roman,serif" font-size="14.00">[STRING] command (0..1) </text>
</a>
<a xlink:href="#" xlink:title="The list of alert identifiers that are related to this alert. &#160;Because alert identifiers are only unique across the alerts sent by a single analyzer, the optional &quot;analyzerid&quot; attribute of &quot;alertident&quot; should be used to identify the analyzer that a particular alert came from. &#160;If the &quot;analyzerid&quot; is not provided, the alert is assumed to have come from the same analyzer that is sending the ToolAlert.">
<polygon fill="#bfbfbf" stroke="#bfbfbf" points="9,-3 9,-23 198,-23 198,-3 9,-3"/>
<polygon fill="none" stroke="black" points="9,-3 9,-23 198,-23 198,-3 9,-3"/>
<text text-anchor="start" x="12.5" y="-9.73333" font-family="Times Roman,serif" font-size="14.00">[STRING] alertident (1..*) </text>
</a>
</g>
</g>
</svg>
