<?xml version="1.0" encoding="UTF-8" standalone="no"?>
<!DOCTYPE svg PUBLIC "-//W3C//DTD SVG 1.1//EN"
 "http://www.w3.org/Graphics/SVG/1.1/DTD/svg11.dtd">
<!-- Generated by graphviz version 2.26.3 (20100126.1600)
 -->
<!-- Title: User Pages: 1 -->
<svg width="492pt" height="136pt"
 viewBox="0.00 0.00 492.00 136.00" xmlns="http://www.w3.org/2000/svg" xmlns:xlink="http://www.w3.org/1999/xlink">
<g id="graph1" class="graph" transform="scale(1 1) rotate(0) translate(4 132)">
<title>User</title>
<polygon fill="white" stroke="white" points="-4,5 -4,-132 489,-132 489,5 -4,5"/>
<!-- User -->
<g id="node1" class="node"><title>User</title>
<a xlink:href="#" xlink:title="The User class is used to describe users. It is primarily used as a &quot;container&quot; class for the UserId aggregate class, as shown in Figure 16. ">
<polygon fill="#3d7a99" stroke="#3d7a99" points="9,-73 9,-94 212,-94 212,-73 9,-73"/>
<polygon fill="none" stroke="black" points="9,-73 9,-94 212,-94 212,-73 9,-73"/>
<text text-anchor="start" x="94.5" y="-80.2333" font-family="Times Roman,serif" font-size="14.00">User</text>
</a>
<a xlink:href="#" xlink:title="A unique identifier for the user; see Section 3.2.9.">
<polygon fill="#66ccff" stroke="#66ccff" points="9,-53 9,-73 212,-73 212,-53 9,-53"/>
<polygon fill="none" stroke="black" points="9,-53 9,-73 212,-73 212,-53 9,-53"/>
<text text-anchor="start" x="46" y="-59.7333" font-family="Times Roman,serif" font-size="14.00">[] ident (Optional) </text>
</a>
<a xlink:href="#" xlink:title="The type of user represented. &#160;The permitted values for this attribute are shown below. &#160;The default value is &quot;unknown&quot;. (See also Section 10.)">
<polygon fill="#66ccff" stroke="#66ccff" points="9,-33 9,-53 212,-53 212,-33 9,-33"/>
<polygon fill="none" stroke="black" points="9,-33 9,-53 212,-53 212,-33 9,-33"/>
<text text-anchor="start" x="12.5" y="-39.7333" font-family="Times Roman,serif" font-size="14.00">[ENUM] category (Optional) </text>
</a>
</g>
<!-- UserId -->
<g id="node2" class="node"><title>UserId</title>
<a xlink:href="#" xlink:title="The UserId class provides specific information about a user. More than one UserId can be used within the User class to indicate attempts to transition from one user to another, or to provide complete information about a user&#39;s (or process&#39;) privileges. ">
<polygon fill="#3d7a99" stroke="#3d7a99" points="291,-103 291,-124 476,-124 476,-103 291,-103"/>
<polygon fill="none" stroke="black" points="291,-103 291,-124 476,-124 476,-103 291,-103"/>
<text text-anchor="start" x="361" y="-110.233" font-family="Times Roman,serif" font-size="14.00">UserId</text>
</a>
<a xlink:href="#" xlink:title="A user or group name.">
<polygon fill="#66ccff" stroke="#66ccff" points="291,-83 291,-103 476,-103 476,-83 291,-83"/>
<polygon fill="none" stroke="black" points="291,-83 291,-103 476,-103 476,-83 291,-83"/>
<text text-anchor="start" x="306.5" y="-89.7333" font-family="Times Roman,serif" font-size="14.00">[STRING] name (0..1) </text>
</a>
<a xlink:href="#" xlink:title="A user or group number.">
<polygon fill="#66ccff" stroke="#66ccff" points="291,-63 291,-83 476,-83 476,-63 291,-63"/>
<polygon fill="none" stroke="black" points="291,-63 291,-83 476,-83 476,-63 291,-63"/>
<text text-anchor="start" x="294.5" y="-69.7333" font-family="Times Roman,serif" font-size="14.00">[INTEGER] number (0..1) </text>
</a>
<a xlink:href="#" xlink:title="A unique identifier for the user id, see Section 3.2.9.">
<polygon fill="#66ccff" stroke="#66ccff" points="291,-43 291,-63 476,-63 476,-43 291,-43"/>
<polygon fill="none" stroke="black" points="291,-43 291,-63 476,-63 476,-43 291,-43"/>
<text text-anchor="start" x="319" y="-49.7333" font-family="Times Roman,serif" font-size="14.00">[] ident (Optional) </text>
</a>
<a xlink:href="#" xlink:title="The type of user information represented. &#160;The permitted values for this attribute are shown below. &#160;The default value is &quot;original&#45;user&quot;. &#160;(See also Section 10.)">
<polygon fill="#66ccff" stroke="#66ccff" points="291,-23 291,-43 476,-43 476,-23 291,-23"/>
<polygon fill="none" stroke="black" points="291,-23 291,-43 476,-43 476,-23 291,-23"/>
<text text-anchor="start" x="300.5" y="-29.7333" font-family="Times Roman,serif" font-size="14.00">[ENUM] type (Optional) </text>
</a>
<a xlink:href="#" xlink:title="The tty the user is using.">
<polygon fill="#66ccff" stroke="#66ccff" points="291,-3 291,-23 476,-23 476,-3 291,-3"/>
<polygon fill="none" stroke="black" points="291,-3 291,-23 476,-23 476,-3 291,-3"/>
<text text-anchor="start" x="299.5" y="-9.73333" font-family="Times Roman,serif" font-size="14.00">[STRING] tty (Optional) </text>
</a>
</g>
<!-- User&#45;&gt;UserId -->
<g id="edge2" class="edge"><title>User&#45;&gt;UserId</title>
<path fill="none" stroke="black" d="M219.859,-64C237.075,-64 254.879,-64 272.118,-64"/>
<polygon fill="black" stroke="black" points="272.194,-67.5001 282.194,-64 272.194,-60.5001 272.194,-67.5001"/>
<text text-anchor="middle" x="251" y="-68.4" font-family="Times Roman,serif" font-size="14.00">1..*</text>
</g>
</g>
</svg>
