<?xml version="1.0" encoding="UTF-8" standalone="no"?>
<!DOCTYPE svg PUBLIC "-//W3C//DTD SVG 1.1//EN"
 "http://www.w3.org/Graphics/SVG/1.1/DTD/svg11.dtd">
<!-- Generated by graphviz version 2.38.0 (20140413.2041)
 -->
<!-- Title: UserId Pages: 1 -->
<svg width="183pt" height="142pt"
 viewBox="0.00 0.00 183.00 142.00" xmlns="http://www.w3.org/2000/svg" xmlns:xlink="http://www.w3.org/1999/xlink">
<g id="graph0" class="graph" transform="scale(1 1) rotate(0) translate(4 138)">
<title>UserId</title>
<polygon fill="white" stroke="none" points="-4,4 -4,-138 179,-138 179,4 -4,4"/>
<!-- UserId -->
<g id="node1" class="node"><title>UserId</title>
<g id="a_node1_0"><a xlink:href="/idmef_parser/IDMEF/UserId.html" xlink:title="The UserId class provides specific information about a user. More than one UserId can be used within the User class to indicate attempts to transition from one user to another, or to provide complete information about a user&#39;s (or process&#39;) privileges. ">
<polygon fill="#3d7a99" stroke="none" points="8.5,-109 8.5,-130 167.5,-130 167.5,-109 8.5,-109"/>
<polygon fill="none" stroke="black" points="8.5,-109 8.5,-130 167.5,-130 167.5,-109 8.5,-109"/>
<text text-anchor="start" x="69.5" y="-115.8" font-family="Times,serif" font-size="14.00">UserId</text>
</a>
</g>
<g id="a_node1_1"><a xlink:href="/idmef_parser/IDMEF/UserId.html" xlink:title="A user or group name.">
<polygon fill="#66ccff" stroke="none" points="8.5,-88 8.5,-109 167.5,-109 167.5,-88 8.5,-88"/>
<polygon fill="none" stroke="black" points="8.5,-88 8.5,-109 167.5,-109 167.5,-88 8.5,-88"/>
<text text-anchor="start" x="23" y="-94.8" font-family="Times,serif" font-size="14.00">[STRING] name (0..1) </text>
</a>
</g>
<g id="a_node1_2"><a xlink:href="/idmef_parser/IDMEF/UserId.html" xlink:title="A user or group number.">
<polygon fill="#66ccff" stroke="none" points="8.5,-67 8.5,-88 167.5,-88 167.5,-67 8.5,-67"/>
<polygon fill="none" stroke="black" points="8.5,-67 8.5,-88 167.5,-88 167.5,-67 8.5,-67"/>
<text text-anchor="start" x="12.5" y="-73.8" font-family="Times,serif" font-size="14.00">[INTEGER] number (0..1) </text>
</a>
</g>
<g id="a_node1_3"><a xlink:href="/idmef_parser/IDMEF/UserId.html" xlink:title="A unique identifier for the user id, see Section 3.2.9.">
<polygon fill="#66ccff" stroke="none" points="8.5,-46 8.5,-67 167.5,-67 167.5,-46 8.5,-46"/>
<polygon fill="none" stroke="black" points="8.5,-46 8.5,-67 167.5,-67 167.5,-46 8.5,-46"/>
<text text-anchor="start" x="11.5" y="-52.8" font-family="Times,serif" font-size="14.00">[STRING] ident (Optional) </text>
</a>
</g>
<g id="a_node1_4"><a xlink:href="/idmef_parser/IDMEF/UserId.html" xlink:title="The type of user information represented. &#160;The permitted values for this attribute are shown below. &#160;The default value is &quot;original&#45;user&quot;. &#160;(See also Section 10.)">
<polygon fill="#66ccff" stroke="none" points="8.5,-25 8.5,-46 167.5,-46 167.5,-25 8.5,-25"/>
<polygon fill="none" stroke="black" points="8.5,-25 8.5,-46 167.5,-46 167.5,-25 8.5,-25"/>
<text text-anchor="start" x="17.5" y="-31.8" font-family="Times,serif" font-size="14.00">[ENUM] type (Optional) </text>
</a>
</g>
<g id="a_node1_5"><a xlink:href="/idmef_parser/IDMEF/UserId.html" xlink:title="The tty the user is using.">
<polygon fill="#66ccff" stroke="none" points="8.5,-4 8.5,-25 167.5,-25 167.5,-4 8.5,-4"/>
<polygon fill="none" stroke="black" points="8.5,-4 8.5,-25 167.5,-25 167.5,-4 8.5,-4"/>
<text text-anchor="start" x="18" y="-10.8" font-family="Times,serif" font-size="14.00">[STRING] tty (Optional) </text>
</a>
</g>
</g>
</g>
</svg>
