<?xml version="1.0" encoding="UTF-8" standalone="no"?>
<!DOCTYPE svg PUBLIC "-//W3C//DTD SVG 1.1//EN"
 "http://www.w3.org/Graphics/SVG/1.1/DTD/svg11.dtd">
<!-- Generated by graphviz version 2.38.0 (20140413.2041)
 -->
<!-- Title: User Pages: 1 -->
<svg width="427pt" height="142pt"
 viewBox="0.00 0.00 427.00 142.00" xmlns="http://www.w3.org/2000/svg" xmlns:xlink="http://www.w3.org/1999/xlink">
<g id="graph0" class="graph" transform="scale(1 1) rotate(0) translate(4 138)">
<title>User</title>
<polygon fill="white" stroke="none" points="-4,4 -4,-138 423,-138 423,4 -4,4"/>
<!-- User -->
<g id="node1" class="node"><title>User</title>
<g id="a_node1_0"><a xlink:href="/idmef_parser/IDMEF/User.html" xlink:title="The User class is used to describe users. It is primarily used as a &quot;container&quot; class for the UserId aggregate class, as shown in Figure 16. ">
<polygon fill="#3d7a99" stroke="none" points="8,-77 8,-98 178,-98 178,-77 8,-77"/>
<polygon fill="none" stroke="black" points="8,-77 8,-98 178,-98 178,-77 8,-77"/>
<text text-anchor="start" x="80" y="-83.8" font-family="Times,serif" font-size="14.00">User</text>
</a>
</g>
<g id="a_node1_1"><a xlink:href="/idmef_parser/IDMEF/User.html" xlink:title="A unique identifier for the user; see Section 3.2.9.">
<polygon fill="#66ccff" stroke="none" points="8,-56 8,-77 178,-77 178,-56 8,-56"/>
<polygon fill="none" stroke="black" points="8,-56 8,-77 178,-77 178,-56 8,-56"/>
<text text-anchor="start" x="16.5" y="-62.8" font-family="Times,serif" font-size="14.00">[STRING] ident (Optional) </text>
</a>
</g>
<g id="a_node1_2"><a xlink:href="/idmef_parser/IDMEF/User.html" xlink:title="The type of user represented. &#160;The permitted values for this attribute are shown below. &#160;The default value is &quot;unknown&quot;. (See also Section 10.)">
<polygon fill="#66ccff" stroke="none" points="8,-35 8,-56 178,-56 178,-35 8,-35"/>
<polygon fill="none" stroke="black" points="8,-35 8,-56 178,-56 178,-35 8,-35"/>
<text text-anchor="start" x="11" y="-41.8" font-family="Times,serif" font-size="14.00">[ENUM] category (Optional) </text>
</a>
</g>
</g>
<!-- UserId -->
<g id="node2" class="node"><title>UserId</title>
<g id="a_node2_3"><a xlink:href="/idmef_parser/IDMEF/UserId.html" xlink:title="The UserId class provides specific information about a user. More than one UserId can be used within the User class to indicate attempts to transition from one user to another, or to provide complete information about a user&#39;s (or process&#39;) privileges. ">
<polygon fill="#3d7a99" stroke="none" points="252.5,-109 252.5,-130 411.5,-130 411.5,-109 252.5,-109"/>
<polygon fill="none" stroke="black" points="252.5,-109 252.5,-130 411.5,-130 411.5,-109 252.5,-109"/>
<text text-anchor="start" x="313.5" y="-115.8" font-family="Times,serif" font-size="14.00">UserId</text>
</a>
</g>
<g id="a_node2_4"><a xlink:href="/idmef_parser/IDMEF/UserId.html" xlink:title="A user or group name.">
<polygon fill="#66ccff" stroke="none" points="252.5,-88 252.5,-109 411.5,-109 411.5,-88 252.5,-88"/>
<polygon fill="none" stroke="black" points="252.5,-88 252.5,-109 411.5,-109 411.5,-88 252.5,-88"/>
<text text-anchor="start" x="267" y="-94.8" font-family="Times,serif" font-size="14.00">[STRING] name (0..1) </text>
</a>
</g>
<g id="a_node2_5"><a xlink:href="/idmef_parser/IDMEF/UserId.html" xlink:title="A user or group number.">
<polygon fill="#66ccff" stroke="none" points="252.5,-67 252.5,-88 411.5,-88 411.5,-67 252.5,-67"/>
<polygon fill="none" stroke="black" points="252.5,-67 252.5,-88 411.5,-88 411.5,-67 252.5,-67"/>
<text text-anchor="start" x="256.5" y="-73.8" font-family="Times,serif" font-size="14.00">[INTEGER] number (0..1) </text>
</a>
</g>
<g id="a_node2_6"><a xlink:href="/idmef_parser/IDMEF/UserId.html" xlink:title="A unique identifier for the user id, see Section 3.2.9.">
<polygon fill="#66ccff" stroke="none" points="252.5,-46 252.5,-67 411.5,-67 411.5,-46 252.5,-46"/>
<polygon fill="none" stroke="black" points="252.5,-46 252.5,-67 411.5,-67 411.5,-46 252.5,-46"/>
<text text-anchor="start" x="255.5" y="-52.8" font-family="Times,serif" font-size="14.00">[STRING] ident (Optional) </text>
</a>
</g>
<g id="a_node2_7"><a xlink:href="/idmef_parser/IDMEF/UserId.html" xlink:title="The type of user information represented. &#160;The permitted values for this attribute are shown below. &#160;The default value is &quot;original&#45;user&quot;. &#160;(See also Section 10.)">
<polygon fill="#66ccff" stroke="none" points="252.5,-25 252.5,-46 411.5,-46 411.5,-25 252.5,-25"/>
<polygon fill="none" stroke="black" points="252.5,-25 252.5,-46 411.5,-46 411.5,-25 252.5,-25"/>
<text text-anchor="start" x="261.5" y="-31.8" font-family="Times,serif" font-size="14.00">[ENUM] type (Optional) </text>
</a>
</g>
<g id="a_node2_8"><a xlink:href="/idmef_parser/IDMEF/UserId.html" xlink:title="The tty the user is using.">
<polygon fill="#66ccff" stroke="none" points="252.5,-4 252.5,-25 411.5,-25 411.5,-4 252.5,-4"/>
<polygon fill="none" stroke="black" points="252.5,-4 252.5,-25 411.5,-25 411.5,-4 252.5,-4"/>
<text text-anchor="start" x="262" y="-10.8" font-family="Times,serif" font-size="14.00">[STRING] tty (Optional) </text>
</a>
</g>
</g>
<!-- User&#45;&gt;UserId -->
<g id="edge1" class="edge"><title>User&#45;&gt;UserId</title>
<path fill="none" stroke="black" d="M186.114,-67C201.648,-67 217.814,-67 233.468,-67"/>
<polygon fill="black" stroke="black" points="233.669,-70.5001 243.669,-67 233.669,-63.5001 233.669,-70.5001"/>
<text text-anchor="middle" x="215" y="-70.8" font-family="Times,serif" font-size="14.00">1..*</text>
</g>
</g>
</svg>
