<?xml version="1.0" encoding="UTF-8" standalone="no"?>
<!DOCTYPE svg PUBLIC "-//W3C//DTD SVG 1.1//EN"
 "http://www.w3.org/Graphics/SVG/1.1/DTD/svg11.dtd">
<!-- Generated by graphviz version 2.26.3 (20100126.1600)
 -->
<!-- Title: WebService Pages: 1 -->
<svg width="234pt" height="116pt"
 viewBox="0.00 0.00 234.00 116.00" xmlns="http://www.w3.org/2000/svg" xmlns:xlink="http://www.w3.org/1999/xlink">
<g id="graph1" class="graph" transform="scale(1 1) rotate(0) translate(4 112)">
<title>WebService</title>
<polygon fill="white" stroke="white" points="-4,5 -4,-112 231,-112 231,5 -4,5"/>
<!-- WebService -->
<g id="node1" class="node"><title>WebService</title>
<a xlink:href="#" xlink:title="The WebService class carries additional information related to web traffic. ">
<polygon fill="#cecece" stroke="#cecece" points="8,-83 8,-104 218,-104 218,-83 8,-83"/>
<polygon fill="none" stroke="black" points="8,-83 8,-104 218,-104 218,-83 8,-83"/>
<text text-anchor="start" x="72" y="-90.2333" font-family="Times Roman,serif" font-size="14.00">WebService</text>
</a>
<a xlink:href="#" xlink:title="The URL in the request.">
<polygon fill="none" stroke="black" points="8,-63 8,-83 218,-83 218,-63 8,-63"/>
<text text-anchor="start" x="54.5" y="-69.7333" font-family="Times Roman,serif" font-size="14.00">[STRING] url (1) </text>
</a>
<a xlink:href="#" xlink:title="The CGI script in the request, without arguments.">
<polygon fill="none" stroke="black" points="8,-43 8,-63 218,-63 218,-43 8,-43"/>
<text text-anchor="start" x="45.5" y="-49.7333" font-family="Times Roman,serif" font-size="14.00">[STRING] cgi (0..1) </text>
</a>
<a xlink:href="#" xlink:title="The HTTP method (PUT, GET) used in the request.">
<polygon fill="none" stroke="black" points="8,-23 8,-43 218,-43 218,-23 8,-23"/>
<text text-anchor="start" x="11.5" y="-29.7333" font-family="Times Roman,serif" font-size="14.00">[STRING] http&#45;method (0..1) </text>
</a>
<a xlink:href="#" xlink:title="The arguments to the CGI script.">
<polygon fill="none" stroke="black" points="8,-3 8,-23 218,-23 218,-3 8,-3"/>
<text text-anchor="start" x="44.5" y="-9.73333" font-family="Times Roman,serif" font-size="14.00">[STRING] arg (0..*) </text>
</a>
</g>
</g>
</svg>
