<?xml version="1.0" encoding="UTF-8" standalone="no"?>
<!DOCTYPE svg PUBLIC "-//W3C//DTD SVG 1.1//EN"
 "http://www.w3.org/Graphics/SVG/1.1/DTD/svg11.dtd">
<!-- Generated by graphviz version 2.26.3 (20100126.1600)
 -->
<!-- Title: CorrelationAlert Pages: 1 -->
<svg width="214pt" height="76pt"
 viewBox="0.00 0.00 214.00 76.00" xmlns="http://www.w3.org/2000/svg" xmlns:xlink="http://www.w3.org/1999/xlink">
<g id="graph1" class="graph" transform="scale(1 1) rotate(0) translate(4 72)">
<title>CorrelationAlert</title>
<polygon fill="white" stroke="white" points="-4,5 -4,-72 211,-72 211,5 -4,5"/>
<!-- CorrelationAlert -->
<g id="node1" class="node"><title>CorrelationAlert</title>
<a xlink:href="#" xlink:title="The CorrelationAlert class carries additional information related to the correlation of alert information. It is intended to group one or more previously&#45;sent alerts together, to say &quot;these alerts are all related&quot;. ">
<polygon fill="#cecece" stroke="#cecece" points="9,-43 9,-64 198,-64 198,-43 9,-43"/>
<polygon fill="none" stroke="black" points="9,-43 9,-64 198,-64 198,-43 9,-43"/>
<text text-anchor="start" x="47.5" y="-50.2333" font-family="Times Roman,serif" font-size="14.00">CorrelationAlert</text>
</a>
<a xlink:href="#" xlink:title="The reason for grouping the alerts together, for example, a particular correlation method.">
<polygon fill="none" stroke="black" points="9,-23 9,-43 198,-43 198,-23 9,-23"/>
<text text-anchor="start" x="35.5" y="-29.7333" font-family="Times Roman,serif" font-size="14.00">[STRING] name (1) </text>
</a>
<a xlink:href="#" xlink:title="The list of alert identifiers that are related to this alert. &#160;Because alert identifiers are only unique across the alerts sent by a single analyzer, the optional &quot;analyzerid&quot; attribute of &quot;alertident&quot; should be used to identify the analyzer that a particular alert came from. &#160;If the &quot;analyzerid&quot; is not provided, the alert is assumed to have come from the same analyzer that is sending the CorrelationAlert.">
<polygon fill="none" stroke="black" points="9,-3 9,-23 198,-23 198,-3 9,-3"/>
<text text-anchor="start" x="12.5" y="-9.73333" font-family="Times Roman,serif" font-size="14.00">[STRING] alertident (1..*) </text>
</a>
</g>
</g>
</svg>
