<?xml version="1.0" encoding="UTF-8" standalone="no"?>
<!DOCTYPE svg PUBLIC "-//W3C//DTD SVG 1.1//EN"
 "http://www.w3.org/Graphics/SVG/1.1/DTD/svg11.dtd">
<!-- Generated by graphviz version 2.26.3 (20100126.1600)
 -->
<!-- Title: SNMPService Pages: 1 -->
<svg width="330pt" height="196pt"
 viewBox="0.00 0.00 330.00 196.00" xmlns="http://www.w3.org/2000/svg" xmlns:xlink="http://www.w3.org/1999/xlink">
<g id="graph1" class="graph" transform="scale(1 1) rotate(0) translate(4 192)">
<title>SNMPService</title>
<polygon fill="white" stroke="white" points="-4,5 -4,-192 327,-192 327,5 -4,5"/>
<!-- SNMPService -->
<g id="node1" class="node"><title>SNMPService</title>
<a xlink:href="#" xlink:title="The SNMPService class carries additional information related to SNMP traffic. The aggregate classes composing SNMPService must be interpreted as described in RFC 3411 [15] and RFC 3584 [16]. ">
<polygon fill="#cecece" stroke="#cecece" points="9,-163 9,-184 314,-184 314,-163 9,-163"/>
<polygon fill="none" stroke="black" points="9,-163 9,-184 314,-184 314,-163 9,-163"/>
<text text-anchor="start" x="116" y="-170.233" font-family="Times Roman,serif" font-size="14.00">SNMPService</text>
</a>
<a xlink:href="#" xlink:title="The object identifier in the request.">
<polygon fill="none" stroke="black" points="9,-143 9,-163 314,-163 314,-143 9,-143"/>
<text text-anchor="start" x="93.5" y="-149.733" font-family="Times Roman,serif" font-size="14.00">[STRING] oid (0..1) </text>
</a>
<a xlink:href="#" xlink:title="The SNMP version, typically 0 for SNMPv1, 1 for SNMPv2c, 2 for SNMPv2u and SNMPv2*, and 3 for SNMPv3; see RFC 3411 [15] Section 5 for appropriate values.">
<polygon fill="none" stroke="black" points="9,-123 9,-143 314,-143 314,-123 9,-123"/>
<text text-anchor="start" x="12.5" y="-129.733" font-family="Times Roman,serif" font-size="14.00">[INTEGER] messageProcessingModel (0..1) </text>
</a>
<a xlink:href="#" xlink:title="The identification of the security model in use, typically 0 for any, 1 for SNMPv1, 2 for SNMPv2c, and 3 for USM; see RFC 3411 [15] Section 5 for appropriate values.">
<polygon fill="none" stroke="black" points="9,-103 9,-123 314,-123 314,-103 9,-103"/>
<text text-anchor="start" x="51.5" y="-109.733" font-family="Times Roman,serif" font-size="14.00">[INTEGER] securityModel (0..1) </text>
</a>
<a xlink:href="#" xlink:title="The object&#39;s security name; see RFC 3411 [15] Section 3.2.2.">
<polygon fill="none" stroke="black" points="9,-83 9,-103 314,-103 314,-83 9,-83"/>
<text text-anchor="start" x="56" y="-89.7333" font-family="Times Roman,serif" font-size="14.00">[STRING] securityName (0..1) </text>
</a>
<a xlink:href="#" xlink:title="The security level of the SNMP request; see RFC 3411 [15] Section 3.4.3.">
<polygon fill="none" stroke="black" points="9,-63 9,-83 314,-83 314,-63 9,-63"/>
<text text-anchor="start" x="53" y="-69.7333" font-family="Times Roman,serif" font-size="14.00">[INTEGER] securityLevel (0..1) </text>
</a>
<a xlink:href="#" xlink:title="The object&#39;s context name; see RFC 3411 [15] Section 3.3.3.">
<polygon fill="none" stroke="black" points="9,-43 9,-63 314,-63 314,-43 9,-43"/>
<text text-anchor="start" x="57.5" y="-49.7333" font-family="Times Roman,serif" font-size="14.00">[STRING] contextName (0..1) </text>
</a>
<a xlink:href="#" xlink:title="The object&#39;s context engine identifier; see RFC 3411 [15] Section 3.3.2.">
<polygon fill="none" stroke="black" points="9,-23 9,-43 314,-43 314,-23 9,-23"/>
<text text-anchor="start" x="45.5" y="-29.7333" font-family="Times Roman,serif" font-size="14.00">[STRING] contextEngineID (0..1) </text>
</a>
<a xlink:href="#" xlink:title="The command sent to the SNMP server (GET, SET, etc.).">
<polygon fill="none" stroke="black" points="9,-3 9,-23 314,-23 314,-3 9,-3"/>
<text text-anchor="start" x="70.5" y="-9.73333" font-family="Times Roman,serif" font-size="14.00">[STRING] command (0..1) </text>
</a>
</g>
</g>
</svg>
