<?xml version="1.0" encoding="UTF-8" standalone="no"?>
<!DOCTYPE svg PUBLIC "-//W3C//DTD SVG 1.1//EN"
 "http://www.w3.org/Graphics/SVG/1.1/DTD/svg11.dtd">
<!-- Generated by graphviz version 2.26.3 (20100126.1600)
 -->
<!-- Title: Source Pages: 1 -->
<svg width="900pt" height="619pt"
 viewBox="0.00 0.00 900.00 619.00" xmlns="http://www.w3.org/2000/svg" xmlns:xlink="http://www.w3.org/1999/xlink">
<g id="graph1" class="graph" transform="scale(1 1) rotate(0) translate(4 615)">
<title>Source</title>
<polygon fill="white" stroke="white" points="-4,5 -4,-615 897,-615 897,5 -4,5"/>
<!-- Source -->
<g id="node1" class="node"><title>Source</title>
<a xlink:href="#" xlink:title="The Source class contains information about the possible source(s) of the event(s) that generated an alert. An event may have more than one source (e.g., in a distributed denial&#45;of&#45;service attack). ">
<polygon fill="#cecece" stroke="#cecece" points="9,-340 9,-361 204,-361 204,-340 9,-340"/>
<polygon fill="none" stroke="black" points="9,-340 9,-361 204,-361 204,-340 9,-340"/>
<text text-anchor="start" x="82.5" y="-347.233" font-family="Times Roman,serif" font-size="14.00">Source</text>
</a>
<a xlink:href="#" xlink:title="A unique identifier for this source; see Section 3.2.9.">
<polygon fill="none" stroke="black" points="9,-320 9,-340 204,-340 204,-320 9,-320"/>
<text text-anchor="start" x="42" y="-326.733" font-family="Times Roman,serif" font-size="14.00">[] ident (Optional) </text>
</a>
<a xlink:href="#" xlink:title="An indication of whether the source is, as far as the analyzer can determine, a spoofed address used for hiding the real origin of the attack. &#160;The permitted values for this attribute are shown below. &#160;The default value is &quot;unknown&quot;. &#160;(See also Section 10.)">
<polygon fill="none" stroke="black" points="9,-300 9,-320 204,-320 204,-300 9,-300"/>
<text text-anchor="start" x="12.5" y="-306.733" font-family="Times Roman,serif" font-size="14.00">[ENUM] spoofed (Optional) </text>
</a>
<a xlink:href="#" xlink:title="May be used by a network&#45;based analyzer with multiple interfaces to indicate which interface this source was seen on.">
<polygon fill="none" stroke="black" points="9,-280 9,-300 204,-300 204,-280 9,-280"/>
<text text-anchor="start" x="29.5" y="-286.733" font-family="Times Roman,serif" font-size="14.00">[] interface (Optional) </text>
</a>
</g>
<!-- Node -->
<g id="node2" class="node"><title>Node</title>
<a xlink:href="#" xlink:title="The Node class is used to identify hosts and other network devices (routers, switches, etc.). ">
<polygon fill="#cecece" stroke="#cecece" points="342,-554 342,-575 545,-575 545,-554 342,-554"/>
<polygon fill="none" stroke="black" points="342,-554 342,-575 545,-575 545,-554 342,-554"/>
<text text-anchor="start" x="425.5" y="-561.233" font-family="Times Roman,serif" font-size="14.00">Node</text>
</a>
<a xlink:href="#" xlink:title="The location of the equipment.">
<polygon fill="none" stroke="black" points="342,-534 342,-554 545,-554 545,-534 342,-534"/>
<text text-anchor="start" x="358.5" y="-540.733" font-family="Times Roman,serif" font-size="14.00">[STRING] location (0..1) </text>
</a>
<a xlink:href="#" xlink:title="The name of the equipment. &#160;This information MUST be provided if no Address information is given.">
<polygon fill="none" stroke="black" points="342,-514 342,-534 545,-534 545,-514 342,-514"/>
<text text-anchor="start" x="366.5" y="-520.733" font-family="Times Roman,serif" font-size="14.00">[STRING] name (0..1) </text>
</a>
<a xlink:href="#" xlink:title="A unique identifier for the node; see Section 3.2.9.">
<polygon fill="none" stroke="black" points="342,-494 342,-514 545,-514 545,-494 342,-494"/>
<text text-anchor="start" x="379" y="-500.733" font-family="Times Roman,serif" font-size="14.00">[] ident (Optional) </text>
</a>
<a xlink:href="#" xlink:title="The &quot;domain&quot; from which the name information was obtained, if relevant. &#160;The permitted values for this attribute are shown in the table below. &#160;The default value is &quot;unknown&quot;. (See also Section 10 for extensions to the table.)">
<polygon fill="none" stroke="black" points="342,-474 342,-494 545,-494 545,-474 342,-474"/>
<text text-anchor="start" x="345.5" y="-480.733" font-family="Times Roman,serif" font-size="14.00">[ENUM] category (Optional) </text>
</a>
</g>
<!-- Source&#45;&gt;Node -->
<g id="edge4" class="edge"><title>Source&#45;&gt;Node</title>
<path fill="none" stroke="black" d="M158.255,-365.065C190.855,-391.336 234.396,-424.274 276,-449 291.249,-458.063 307.766,-466.779 324.278,-474.87"/>
<polygon fill="black" stroke="black" points="322.916,-478.099 333.443,-479.3 325.962,-471.797 322.916,-478.099"/>
<text text-anchor="middle" x="244" y="-440.4" font-family="Times Roman,serif" font-size="14.00">0..1</text>
</g>
<!-- User -->
<g id="node6" class="node"><title>User</title>
<a xlink:href="#" xlink:title="The User class is used to describe users. It is primarily used as a &quot;container&quot; class for the UserId aggregate class, as shown in Figure 16. ">
<polygon fill="#cecece" stroke="#cecece" points="342,-415 342,-436 545,-436 545,-415 342,-415"/>
<polygon fill="none" stroke="black" points="342,-415 342,-436 545,-436 545,-415 342,-415"/>
<text text-anchor="start" x="427.5" y="-422.233" font-family="Times Roman,serif" font-size="14.00">User</text>
</a>
<a xlink:href="#" xlink:title="A unique identifier for the user; see Section 3.2.9.">
<polygon fill="none" stroke="black" points="342,-395 342,-415 545,-415 545,-395 342,-395"/>
<text text-anchor="start" x="379" y="-401.733" font-family="Times Roman,serif" font-size="14.00">[] ident (Optional) </text>
</a>
<a xlink:href="#" xlink:title="The type of user represented. &#160;The permitted values for this attribute are shown below. &#160;The default value is &quot;unknown&quot;. (See also Section 10.)">
<polygon fill="none" stroke="black" points="342,-375 342,-395 545,-395 545,-375 342,-375"/>
<text text-anchor="start" x="345.5" y="-381.733" font-family="Times Roman,serif" font-size="14.00">[ENUM] category (Optional) </text>
</a>
</g>
<!-- Source&#45;&gt;User -->
<g id="edge8" class="edge"><title>Source&#45;&gt;User</title>
<path fill="none" stroke="black" d="M211.704,-347.661C247.232,-356.622 287.106,-366.679 323.61,-375.887"/>
<polygon fill="black" stroke="black" points="322.758,-379.281 333.31,-378.333 324.47,-372.494 322.758,-379.281"/>
<text text-anchor="middle" x="244" y="-363.4" font-family="Times Roman,serif" font-size="14.00">0..1</text>
</g>
<!-- Process -->
<g id="node10" class="node"><title>Process</title>
<a xlink:href="#" xlink:title="The Process class is used to describe processes being executed on sources, targets, and analyzers. ">
<polygon fill="#cecece" stroke="#cecece" points="366,-329 366,-350 521,-350 521,-329 366,-329"/>
<polygon fill="none" stroke="black" points="366,-329 366,-350 521,-350 521,-329 366,-329"/>
<text text-anchor="start" x="417.5" y="-336.233" font-family="Times Roman,serif" font-size="14.00">Process</text>
</a>
<a xlink:href="#" xlink:title="The name of the program being executed. This is a short name; path and argument information are provided elsewhere.">
<polygon fill="none" stroke="black" points="366,-309 366,-329 521,-329 521,-309 366,-309"/>
<text text-anchor="start" x="375.5" y="-315.733" font-family="Times Roman,serif" font-size="14.00">[STRING] name (1) </text>
</a>
<a xlink:href="#" xlink:title="The process identifier of the process.">
<polygon fill="none" stroke="black" points="366,-289 366,-309 521,-309 521,-289 366,-289"/>
<text text-anchor="start" x="371" y="-295.733" font-family="Times Roman,serif" font-size="14.00">[INTEGER] pid (0..1) </text>
</a>
<a xlink:href="#" xlink:title="The full path of the program being executed.">
<polygon fill="none" stroke="black" points="366,-269 366,-289 521,-289 521,-269 366,-269"/>
<text text-anchor="start" x="369.5" y="-275.733" font-family="Times Roman,serif" font-size="14.00">[STRING] path (0..1) </text>
</a>
<a xlink:href="#" xlink:title="A command&#45;line argument to the program. Multiple arguments may be specified (they are assumed to have occurred in the same order they are provided) with multiple uses of arg.">
<polygon fill="none" stroke="black" points="366,-249 366,-269 521,-269 521,-249 366,-249"/>
<text text-anchor="start" x="375" y="-255.733" font-family="Times Roman,serif" font-size="14.00">[STRING] arg (0..*) </text>
</a>
<a xlink:href="#" xlink:title="An environment string associated with the process; generally of the format &quot;VARIABLE=value&quot;. &#160;Multiple environment strings may be specified with multiple uses of env.">
<polygon fill="none" stroke="black" points="366,-229 366,-249 521,-249 521,-229 366,-229"/>
<text text-anchor="start" x="373.5" y="-235.733" font-family="Times Roman,serif" font-size="14.00">[STRING] env (0..*) </text>
</a>
<a xlink:href="#" xlink:title="A unique identifier for the process; see Section 3.2.9.">
<polygon fill="none" stroke="black" points="366,-209 366,-229 521,-229 521,-209 366,-209"/>
<text text-anchor="start" x="379" y="-215.733" font-family="Times Roman,serif" font-size="14.00">[] ident (Optional) </text>
</a>
</g>
<!-- Source&#45;&gt;Process -->
<g id="edge10" class="edge"><title>Source&#45;&gt;Process</title>
<path fill="none" stroke="black" d="M211.704,-308.14C255.129,-302.857 305.047,-296.784 347.369,-291.635"/>
<polygon fill="black" stroke="black" points="347.89,-295.097 357.394,-290.415 347.044,-288.148 347.89,-295.097"/>
<text text-anchor="middle" x="244" y="-310.4" font-family="Times Roman,serif" font-size="14.00">0..1</text>
</g>
<!-- Service -->
<g id="node12" class="node"><title>Service</title>
<a xlink:href="#" xlink:title="The Service class describes network services on sources and targets. It can identify services by name, port, and protocol. When Service occurs as an aggregate class of Source, it is understood that the service is one from which activity of interest is originating; and that the service is &quot;attached&quot; to the Node, Process, and User information also contained in Source. Likewise, when Service occurs as an aggregate class of Target, it is understood that the service is one to which activity of interest is being directed; and that the service is &quot;attached&quot; to the Node, Process, and User information also contained in Target. If Service occurs in both Source and Target, then information in both locations should be the same. If information is the same in both locations and implementers wish to carry it in only one location, they should specify it as an aggregate of the Target class. ">
<polygon fill="#cecece" stroke="#cecece" points="285,-163 285,-184 602,-184 602,-163 285,-163"/>
<polygon fill="none" stroke="black" points="285,-163 285,-184 602,-184 602,-163 285,-163"/>
<text text-anchor="start" x="418" y="-170.233" font-family="Times Roman,serif" font-size="14.00">Service</text>
</a>
<a xlink:href="#" xlink:title="The name of the service. &#160;Whenever possible, the name from the IANA list of well&#45;known ports SHOULD be used.">
<polygon fill="none" stroke="black" points="285,-143 285,-163 602,-163 602,-143 285,-143"/>
<text text-anchor="start" x="366.5" y="-149.733" font-family="Times Roman,serif" font-size="14.00">[STRING] name (0..1) </text>
</a>
<a xlink:href="#" xlink:title="The port number being used.">
<polygon fill="none" stroke="black" points="285,-123 285,-143 602,-143 602,-123 285,-123"/>
<text text-anchor="start" x="366.5" y="-129.733" font-family="Times Roman,serif" font-size="14.00">[INTEGER] port (0..1) </text>
</a>
<a xlink:href="#" xlink:title="A list of port numbers being used; see Section 3.2.8 for formatting rules. &#160;If a portlist is given, the iana_protocol_number and iana_protocol_name MUST apply to all the elements of the list.">
<polygon fill="none" stroke="black" points="285,-103 285,-123 602,-123 602,-103 285,-103"/>
<text text-anchor="start" x="353.5" y="-109.733" font-family="Times Roman,serif" font-size="14.00">[PORTLIST] portlist (0..1) </text>
</a>
<a xlink:href="#" xlink:title="Additional information about the protocol being used. &#160;The intent of the protocol field is to carry additional information related to the protocol being used when the &lt;Service&gt; attributes iana_protocol_number or/and iana_protocol_name are filed.">
<polygon fill="none" stroke="black" points="285,-83 285,-103 602,-103 602,-83 285,-83"/>
<text text-anchor="start" x="357.5" y="-89.7333" font-family="Times Roman,serif" font-size="14.00">[STRING] protocol (0..1) </text>
</a>
<a xlink:href="#" xlink:title="A unique identifier for the service; see Section 3.2.9.">
<polygon fill="none" stroke="black" points="285,-63 285,-83 602,-83 602,-63 285,-63"/>
<text text-anchor="start" x="379" y="-69.7333" font-family="Times Roman,serif" font-size="14.00">[] ident (Optional) </text>
</a>
<a xlink:href="#" xlink:title="The IP version number.">
<polygon fill="none" stroke="black" points="285,-43 285,-63 602,-63 602,-43 285,-43"/>
<text text-anchor="start" x="330.5" y="-49.7333" font-family="Times Roman,serif" font-size="14.00">[INTEGER] ip_version (Optional) </text>
</a>
<a xlink:href="#" xlink:title="The IANA protocol number.">
<polygon fill="none" stroke="black" points="285,-23 285,-43 602,-43 602,-23 285,-23"/>
<text text-anchor="start" x="288.5" y="-29.7333" font-family="Times Roman,serif" font-size="14.00">[INTEGER] iana_protocol_number (Optional) </text>
</a>
<a xlink:href="#" xlink:title="The IANA protocol name.">
<polygon fill="none" stroke="black" points="285,-3 285,-23 602,-23 602,-3 285,-3"/>
<text text-anchor="start" x="300.5" y="-9.73333" font-family="Times Roman,serif" font-size="14.00">[STRING] iana_protocol_name (Optional) </text>
</a>
</g>
<!-- Source&#45;&gt;Service -->
<g id="edge12" class="edge"><title>Source&#45;&gt;Service</title>
<path fill="none" stroke="black" d="M164.209,-276.821C196.673,-252.62 238.092,-222.46 276,-197 277.644,-195.896 279.299,-194.789 280.964,-193.68"/>
<polygon fill="black" stroke="black" points="282.96,-196.556 289.368,-188.119 279.097,-190.719 282.96,-196.556"/>
<text text-anchor="middle" x="244" y="-231.4" font-family="Times Roman,serif" font-size="14.00">0..1</text>
</g>
<!-- Address -->
<g id="node3" class="node"><title>Address</title>
<a xlink:href="#" xlink:title="The Address class is used to represent network, hardware, and application addresses. ">
<polygon fill="#cecece" stroke="#cecece" points="681,-586 681,-607 884,-607 884,-586 681,-586"/>
<polygon fill="none" stroke="black" points="681,-586 681,-607 884,-607 884,-586 681,-586"/>
<text text-anchor="start" x="755" y="-593.233" font-family="Times Roman,serif" font-size="14.00">Address</text>
</a>
<a xlink:href="#" xlink:title="The address information. &#160;The format of this data is governed by the category attribute.">
<polygon fill="none" stroke="black" points="681,-566 681,-586 884,-586 884,-566 681,-566"/>
<text text-anchor="start" x="707" y="-572.733" font-family="Times Roman,serif" font-size="14.00">[STRING] address (1) </text>
</a>
<a xlink:href="#" xlink:title="The network mask for the address, if appropriate.">
<polygon fill="none" stroke="black" points="681,-546 681,-566 884,-566 884,-546 681,-546"/>
<text text-anchor="start" x="695" y="-552.733" font-family="Times Roman,serif" font-size="14.00">[STRING] netmask (0..1) </text>
</a>
<a xlink:href="#" xlink:title="A unique identifier for the address; see Section 3.2.9.">
<polygon fill="none" stroke="black" points="681,-526 681,-546 884,-546 884,-526 681,-526"/>
<text text-anchor="start" x="718" y="-532.733" font-family="Times Roman,serif" font-size="14.00">[] ident (Optional) </text>
</a>
<a xlink:href="#" xlink:title="The type of address represented. &#160;The permitted values for this attribute are shown below. &#160;The default value is &quot;unknown&quot;. &#160;(See also Section 10.)">
<polygon fill="none" stroke="black" points="681,-506 681,-526 884,-526 884,-506 681,-506"/>
<text text-anchor="start" x="684.5" y="-512.733" font-family="Times Roman,serif" font-size="14.00">[ENUM] category (Optional) </text>
</a>
<a xlink:href="#" xlink:title="The name of the Virtual LAN to which the address belongs.">
<polygon fill="none" stroke="black" points="681,-486 681,-506 884,-506 884,-486 681,-486"/>
<text text-anchor="start" x="699.5" y="-492.733" font-family="Times Roman,serif" font-size="14.00">[] vlan&#45;name (Optional) </text>
</a>
<a xlink:href="#" xlink:title="The number of the Virtual LAN to which the address belongs.">
<polygon fill="none" stroke="black" points="681,-466 681,-486 884,-486 884,-466 681,-466"/>
<text text-anchor="start" x="703" y="-472.733" font-family="Times Roman,serif" font-size="14.00">[] vlan&#45;num (Optional) </text>
</a>
</g>
<!-- Node&#45;&gt;Address -->
<g id="edge2" class="edge"><title>Node&#45;&gt;Address</title>
<path fill="none" stroke="black" d="M552.595,-528.879C587.694,-530.122 626.726,-531.504 662.496,-532.77"/>
<polygon fill="black" stroke="black" points="662.374,-536.268 672.492,-533.124 662.622,-529.272 662.374,-536.268"/>
<text text-anchor="middle" x="641" y="-536.4" font-family="Times Roman,serif" font-size="14.00">0..*</text>
</g>
<!-- UserId -->
<g id="node7" class="node"><title>UserId</title>
<a xlink:href="#" xlink:title="The UserId class provides specific information about a user. More than one UserId can be used within the User class to indicate attempts to transition from one user to another, or to provide complete information about a user&#39;s (or process&#39;) privileges. ">
<polygon fill="#cecece" stroke="#cecece" points="690,-420 690,-441 875,-441 875,-420 690,-420"/>
<polygon fill="none" stroke="black" points="690,-420 690,-441 875,-441 875,-420 690,-420"/>
<text text-anchor="start" x="760" y="-427.233" font-family="Times Roman,serif" font-size="14.00">UserId</text>
</a>
<a xlink:href="#" xlink:title="A user or group name.">
<polygon fill="none" stroke="black" points="690,-400 690,-420 875,-420 875,-400 690,-400"/>
<text text-anchor="start" x="705.5" y="-406.733" font-family="Times Roman,serif" font-size="14.00">[STRING] name (0..1) </text>
</a>
<a xlink:href="#" xlink:title="A user or group number.">
<polygon fill="none" stroke="black" points="690,-380 690,-400 875,-400 875,-380 690,-380"/>
<text text-anchor="start" x="693.5" y="-386.733" font-family="Times Roman,serif" font-size="14.00">[INTEGER] number (0..1) </text>
</a>
<a xlink:href="#" xlink:title="A unique identifier for the user id, see Section 3.2.9.">
<polygon fill="none" stroke="black" points="690,-360 690,-380 875,-380 875,-360 690,-360"/>
<text text-anchor="start" x="718" y="-366.733" font-family="Times Roman,serif" font-size="14.00">[] ident (Optional) </text>
</a>
<a xlink:href="#" xlink:title="The type of user information represented. &#160;The permitted values for this attribute are shown below. &#160;The default value is &quot;original&#45;user&quot;. &#160;(See also Section 10.)">
<polygon fill="none" stroke="black" points="690,-340 690,-360 875,-360 875,-340 690,-340"/>
<text text-anchor="start" x="699.5" y="-346.733" font-family="Times Roman,serif" font-size="14.00">[ENUM] type (Optional) </text>
</a>
<a xlink:href="#" xlink:title="The tty the user is using.">
<polygon fill="none" stroke="black" points="690,-320 690,-340 875,-340 875,-320 690,-320"/>
<text text-anchor="start" x="698.5" y="-326.733" font-family="Times Roman,serif" font-size="14.00">[STRING] tty (Optional) </text>
</a>
</g>
<!-- User&#45;&gt;UserId -->
<g id="edge6" class="edge"><title>User&#45;&gt;UserId</title>
<path fill="none" stroke="black" d="M552.595,-397.918C590.597,-395.115 633.208,-391.973 671.298,-389.164"/>
<polygon fill="black" stroke="black" points="671.679,-392.645 681.395,-388.419 671.164,-385.664 671.679,-392.645"/>
<text text-anchor="middle" x="641" y="-397.4" font-family="Times Roman,serif" font-size="14.00">1..*</text>
</g>
</g>
</svg>
