<?xml version="1.0" encoding="UTF-8" standalone="no"?>
<!DOCTYPE svg PUBLIC "-//W3C//DTD SVG 1.1//EN"
 "http://www.w3.org/Graphics/SVG/1.1/DTD/svg11.dtd">
<!-- Generated by graphviz version 2.26.3 (20100126.1600)
 -->
<!-- Title: Target Pages: 1 -->
<svg width="1356pt" height="906pt"
 viewBox="0.00 0.00 1356.00 906.00" xmlns="http://www.w3.org/2000/svg" xmlns:xlink="http://www.w3.org/1999/xlink">
<g id="graph1" class="graph" transform="scale(1 1) rotate(0) translate(4 902)">
<title>Target</title>
<polygon fill="white" stroke="white" points="-4,5 -4,-902 1353,-902 1353,5 -4,5"/>
<!-- Target -->
<g id="node1" class="node"><title>Target</title>
<a xlink:href="#" xlink:title="The Target class contains information about the possible target(s) of the event(s) that generated an alert. An event may have more than one target (e.g., in the case of a port sweep). ">
<polygon fill="#cecece" stroke="#cecece" points="8,-659 8,-680 190,-680 190,-659 8,-659"/>
<polygon fill="none" stroke="black" points="8,-659 8,-680 190,-680 190,-659 8,-659"/>
<text text-anchor="start" x="77" y="-666.233" font-family="Times Roman,serif" font-size="14.00">Target</text>
</a>
<a xlink:href="#" xlink:title="A unique identifier for this target, see Section 3.2.9.">
<polygon fill="none" stroke="black" points="8,-639 8,-659 190,-659 190,-639 8,-639"/>
<text text-anchor="start" x="34.5" y="-645.733" font-family="Times Roman,serif" font-size="14.00">[] ident (Optional) </text>
</a>
<a xlink:href="#" xlink:title="An indication of whether the target is, as far as the analyzer can determine, a decoy. &#160;The permitted values for this attribute are shown below. &#160;The default value is &quot;unknown&quot;. &#160;(See also Section 10.)">
<polygon fill="none" stroke="black" points="8,-619 8,-639 190,-639 190,-619 8,-619"/>
<text text-anchor="start" x="11.5" y="-625.733" font-family="Times Roman,serif" font-size="14.00">[ENUM] decoy (Optional) </text>
</a>
<a xlink:href="#" xlink:title="May be used by a network&#45;based analyzer with multiple interfaces to indicate which interface this target was seen on.">
<polygon fill="none" stroke="black" points="8,-599 8,-619 190,-619 190,-599 8,-599"/>
<text text-anchor="start" x="22" y="-605.733" font-family="Times Roman,serif" font-size="14.00">[] interface (Optional) </text>
</a>
</g>
<!-- Node -->
<g id="node2" class="node"><title>Node</title>
<a xlink:href="#" xlink:title="The Node class is used to identify hosts and other network devices (routers, switches, etc.). ">
<polygon fill="#cecece" stroke="#cecece" points="328,-853 328,-874 531,-874 531,-853 328,-853"/>
<polygon fill="none" stroke="black" points="328,-853 328,-874 531,-874 531,-853 328,-853"/>
<text text-anchor="start" x="411.5" y="-860.233" font-family="Times Roman,serif" font-size="14.00">Node</text>
</a>
<a xlink:href="#" xlink:title="The location of the equipment.">
<polygon fill="none" stroke="black" points="328,-833 328,-853 531,-853 531,-833 328,-833"/>
<text text-anchor="start" x="344.5" y="-839.733" font-family="Times Roman,serif" font-size="14.00">[STRING] location (0..1) </text>
</a>
<a xlink:href="#" xlink:title="The name of the equipment. &#160;This information MUST be provided if no Address information is given.">
<polygon fill="none" stroke="black" points="328,-813 328,-833 531,-833 531,-813 328,-813"/>
<text text-anchor="start" x="352.5" y="-819.733" font-family="Times Roman,serif" font-size="14.00">[STRING] name (0..1) </text>
</a>
<a xlink:href="#" xlink:title="A unique identifier for the node; see Section 3.2.9.">
<polygon fill="none" stroke="black" points="328,-793 328,-813 531,-813 531,-793 328,-793"/>
<text text-anchor="start" x="365" y="-799.733" font-family="Times Roman,serif" font-size="14.00">[] ident (Optional) </text>
</a>
<a xlink:href="#" xlink:title="The &quot;domain&quot; from which the name information was obtained, if relevant. &#160;The permitted values for this attribute are shown in the table below. &#160;The default value is &quot;unknown&quot;. (See also Section 10 for extensions to the table.)">
<polygon fill="none" stroke="black" points="328,-773 328,-793 531,-793 531,-773 328,-773"/>
<text text-anchor="start" x="331.5" y="-779.733" font-family="Times Roman,serif" font-size="14.00">[ENUM] category (Optional) </text>
</a>
</g>
<!-- Target&#45;&gt;Node -->
<g id="edge4" class="edge"><title>Target&#45;&gt;Node</title>
<path fill="none" stroke="black" d="M131.097,-684.132C152.431,-710.528 182.6,-742.767 216,-763 244.325,-780.159 277.688,-792.675 309.498,-801.732"/>
<polygon fill="black" stroke="black" points="308.743,-805.154 319.313,-804.432 310.6,-798.405 308.743,-805.154"/>
<text text-anchor="middle" x="230" y="-781.4" font-family="Times Roman,serif" font-size="14.00">0..1</text>
</g>
<!-- User -->
<g id="node6" class="node"><title>User</title>
<a xlink:href="#" xlink:title="The User class is used to describe users. It is primarily used as a &quot;container&quot; class for the UserId aggregate class, as shown in Figure 16. ">
<polygon fill="#cecece" stroke="#cecece" points="623,-697 623,-718 826,-718 826,-697 623,-697"/>
<polygon fill="none" stroke="black" points="623,-697 623,-718 826,-718 826,-697 623,-697"/>
<text text-anchor="start" x="708.5" y="-704.233" font-family="Times Roman,serif" font-size="14.00">User</text>
</a>
<a xlink:href="#" xlink:title="A unique identifier for the user; see Section 3.2.9.">
<polygon fill="none" stroke="black" points="623,-677 623,-697 826,-697 826,-677 623,-677"/>
<text text-anchor="start" x="660" y="-683.733" font-family="Times Roman,serif" font-size="14.00">[] ident (Optional) </text>
</a>
<a xlink:href="#" xlink:title="The type of user represented. &#160;The permitted values for this attribute are shown below. &#160;The default value is &quot;unknown&quot;. (See also Section 10.)">
<polygon fill="none" stroke="black" points="623,-657 623,-677 826,-677 826,-657 623,-657"/>
<text text-anchor="start" x="626.5" y="-663.733" font-family="Times Roman,serif" font-size="14.00">[ENUM] category (Optional) </text>
</a>
</g>
<!-- Target&#45;&gt;User -->
<g id="edge8" class="edge"><title>Target&#45;&gt;User</title>
<path fill="none" stroke="black" d="M167.591,-684.005C195.696,-699.566 229.268,-715.146 262,-723 406.347,-757.635 448.876,-742.752 596,-723 598.742,-722.632 601.508,-722.221 604.29,-721.773"/>
<polygon fill="black" stroke="black" points="605.176,-725.171 614.42,-719.994 603.965,-718.277 605.176,-725.171"/>
<text text-anchor="middle" x="230" y="-722.4" font-family="Times Roman,serif" font-size="14.00">0..1</text>
</g>
<!-- Process -->
<g id="node10" class="node"><title>Process</title>
<a xlink:href="#" xlink:title="The Process class is used to describe processes being executed on sources, targets, and analyzers. ">
<polygon fill="#cecece" stroke="#cecece" points="352,-689 352,-710 507,-710 507,-689 352,-689"/>
<polygon fill="none" stroke="black" points="352,-689 352,-710 507,-710 507,-689 352,-689"/>
<text text-anchor="start" x="403.5" y="-696.233" font-family="Times Roman,serif" font-size="14.00">Process</text>
</a>
<a xlink:href="#" xlink:title="The name of the program being executed. This is a short name; path and argument information are provided elsewhere.">
<polygon fill="none" stroke="black" points="352,-669 352,-689 507,-689 507,-669 352,-669"/>
<text text-anchor="start" x="361.5" y="-675.733" font-family="Times Roman,serif" font-size="14.00">[STRING] name (1) </text>
</a>
<a xlink:href="#" xlink:title="The process identifier of the process.">
<polygon fill="none" stroke="black" points="352,-649 352,-669 507,-669 507,-649 352,-649"/>
<text text-anchor="start" x="357" y="-655.733" font-family="Times Roman,serif" font-size="14.00">[INTEGER] pid (0..1) </text>
</a>
<a xlink:href="#" xlink:title="The full path of the program being executed.">
<polygon fill="none" stroke="black" points="352,-629 352,-649 507,-649 507,-629 352,-629"/>
<text text-anchor="start" x="355.5" y="-635.733" font-family="Times Roman,serif" font-size="14.00">[STRING] path (0..1) </text>
</a>
<a xlink:href="#" xlink:title="A command&#45;line argument to the program. Multiple arguments may be specified (they are assumed to have occurred in the same order they are provided) with multiple uses of arg.">
<polygon fill="none" stroke="black" points="352,-609 352,-629 507,-629 507,-609 352,-609"/>
<text text-anchor="start" x="361" y="-615.733" font-family="Times Roman,serif" font-size="14.00">[STRING] arg (0..*) </text>
</a>
<a xlink:href="#" xlink:title="An environment string associated with the process; generally of the format &quot;VARIABLE=value&quot;. &#160;Multiple environment strings may be specified with multiple uses of env.">
<polygon fill="none" stroke="black" points="352,-589 352,-609 507,-609 507,-589 352,-589"/>
<text text-anchor="start" x="359.5" y="-595.733" font-family="Times Roman,serif" font-size="14.00">[STRING] env (0..*) </text>
</a>
<a xlink:href="#" xlink:title="A unique identifier for the process; see Section 3.2.9.">
<polygon fill="none" stroke="black" points="352,-569 352,-589 507,-589 507,-569 352,-569"/>
<text text-anchor="start" x="365" y="-575.733" font-family="Times Roman,serif" font-size="14.00">[] ident (Optional) </text>
</a>
</g>
<!-- Target&#45;&gt;Process -->
<g id="edge10" class="edge"><title>Target&#45;&gt;Process</title>
<path fill="none" stroke="black" d="M198.011,-640C240.896,-640 290.903,-640 333.399,-640"/>
<polygon fill="black" stroke="black" points="333.467,-643.5 343.467,-640 333.467,-636.5 333.467,-643.5"/>
<text text-anchor="middle" x="230" y="-644.4" font-family="Times Roman,serif" font-size="14.00">0..1</text>
</g>
<!-- Service -->
<g id="node12" class="node"><title>Service</title>
<a xlink:href="#" xlink:title="The Service class describes network services on sources and targets. It can identify services by name, port, and protocol. When Service occurs as an aggregate class of Source, it is understood that the service is one from which activity of interest is originating; and that the service is &quot;attached&quot; to the Node, Process, and User information also contained in Source. Likewise, when Service occurs as an aggregate class of Target, it is understood that the service is one to which activity of interest is being directed; and that the service is &quot;attached&quot; to the Node, Process, and User information also contained in Target. If Service occurs in both Source and Target, then information in both locations should be the same. If information is the same in both locations and implementers wish to carry it in only one location, they should specify it as an aggregate of the Target class. ">
<polygon fill="#cecece" stroke="#cecece" points="271,-523 271,-544 588,-544 588,-523 271,-523"/>
<polygon fill="none" stroke="black" points="271,-523 271,-544 588,-544 588,-523 271,-523"/>
<text text-anchor="start" x="404" y="-530.233" font-family="Times Roman,serif" font-size="14.00">Service</text>
</a>
<a xlink:href="#" xlink:title="The name of the service. &#160;Whenever possible, the name from the IANA list of well&#45;known ports SHOULD be used.">
<polygon fill="none" stroke="black" points="271,-503 271,-523 588,-523 588,-503 271,-503"/>
<text text-anchor="start" x="352.5" y="-509.733" font-family="Times Roman,serif" font-size="14.00">[STRING] name (0..1) </text>
</a>
<a xlink:href="#" xlink:title="The port number being used.">
<polygon fill="none" stroke="black" points="271,-483 271,-503 588,-503 588,-483 271,-483"/>
<text text-anchor="start" x="352.5" y="-489.733" font-family="Times Roman,serif" font-size="14.00">[INTEGER] port (0..1) </text>
</a>
<a xlink:href="#" xlink:title="A list of port numbers being used; see Section 3.2.8 for formatting rules. &#160;If a portlist is given, the iana_protocol_number and iana_protocol_name MUST apply to all the elements of the list.">
<polygon fill="none" stroke="black" points="271,-463 271,-483 588,-483 588,-463 271,-463"/>
<text text-anchor="start" x="339.5" y="-469.733" font-family="Times Roman,serif" font-size="14.00">[PORTLIST] portlist (0..1) </text>
</a>
<a xlink:href="#" xlink:title="Additional information about the protocol being used. &#160;The intent of the protocol field is to carry additional information related to the protocol being used when the &lt;Service&gt; attributes iana_protocol_number or/and iana_protocol_name are filed.">
<polygon fill="none" stroke="black" points="271,-443 271,-463 588,-463 588,-443 271,-443"/>
<text text-anchor="start" x="343.5" y="-449.733" font-family="Times Roman,serif" font-size="14.00">[STRING] protocol (0..1) </text>
</a>
<a xlink:href="#" xlink:title="A unique identifier for the service; see Section 3.2.9.">
<polygon fill="none" stroke="black" points="271,-423 271,-443 588,-443 588,-423 271,-423"/>
<text text-anchor="start" x="365" y="-429.733" font-family="Times Roman,serif" font-size="14.00">[] ident (Optional) </text>
</a>
<a xlink:href="#" xlink:title="The IP version number.">
<polygon fill="none" stroke="black" points="271,-403 271,-423 588,-423 588,-403 271,-403"/>
<text text-anchor="start" x="316.5" y="-409.733" font-family="Times Roman,serif" font-size="14.00">[INTEGER] ip_version (Optional) </text>
</a>
<a xlink:href="#" xlink:title="The IANA protocol number.">
<polygon fill="none" stroke="black" points="271,-383 271,-403 588,-403 588,-383 271,-383"/>
<text text-anchor="start" x="274.5" y="-389.733" font-family="Times Roman,serif" font-size="14.00">[INTEGER] iana_protocol_number (Optional) </text>
</a>
<a xlink:href="#" xlink:title="The IANA protocol name.">
<polygon fill="none" stroke="black" points="271,-363 271,-383 588,-383 588,-363 271,-363"/>
<text text-anchor="start" x="286.5" y="-369.733" font-family="Times Roman,serif" font-size="14.00">[STRING] iana_protocol_name (Optional) </text>
</a>
</g>
<!-- Target&#45;&gt;Service -->
<g id="edge12" class="edge"><title>Target&#45;&gt;Service</title>
<path fill="none" stroke="black" d="M177.205,-595.921C200.323,-582.891 226.618,-568.07 253.287,-553.038"/>
<polygon fill="black" stroke="black" points="255.349,-555.894 262.342,-547.934 251.912,-549.796 255.349,-555.894"/>
<text text-anchor="middle" x="230" y="-574.4" font-family="Times Roman,serif" font-size="14.00">0..1</text>
</g>
<!-- File -->
<g id="node14" class="node"><title>File</title>
<a xlink:href="#" xlink:title="The File class provides specific information about a file or other file&#45;like object that has been created, deleted, or modified on the target. The description can provide either the file settings prior to the event or the file settings at the time of the event, as specified using the &quot;category&quot; attribute. ">
<polygon fill="#cecece" stroke="#cecece" points="317,-317 317,-338 541,-338 541,-317 317,-317"/>
<polygon fill="none" stroke="black" points="317,-317 317,-338 541,-338 541,-317 317,-317"/>
<text text-anchor="start" x="417" y="-324.233" font-family="Times Roman,serif" font-size="14.00">File</text>
</a>
<a xlink:href="#" xlink:title="The name of the file to which the alert applies, not including the path to the file.">
<polygon fill="none" stroke="black" points="317,-297 317,-317 541,-317 541,-297 317,-297"/>
<text text-anchor="start" x="361" y="-303.733" font-family="Times Roman,serif" font-size="14.00">[STRING] name (1) </text>
</a>
<a xlink:href="#" xlink:title="The full path to the file, including the name. &#160;The path name should be represented in as &quot;universal&quot; a manner as possible, to facilitate processing of the alert.">
<polygon fill="none" stroke="black" points="317,-277 317,-297 541,-297 541,-277 317,-277"/>
<text text-anchor="start" x="364" y="-283.733" font-family="Times Roman,serif" font-size="14.00">[STRING] path (1) </text>
</a>
<a xlink:href="#" xlink:title="Time the file was created. &#160;Note that this is *not* the Unix &quot;st_ctime&quot; file attribute (which is not file creation time). &#160;The Unix &quot;st_ctime&quot; attribute is contained in the &quot;Inode&quot; class.">
<polygon fill="none" stroke="black" points="317,-257 317,-277 541,-277 541,-257 317,-257"/>
<text text-anchor="start" x="322" y="-263.733" font-family="Times Roman,serif" font-size="14.00">[DATETIME] create&#45;time (0..1) </text>
</a>
<a xlink:href="#" xlink:title="Time the file was last modified.">
<polygon fill="none" stroke="black" points="317,-237 317,-257 541,-257 541,-237 317,-237"/>
<text text-anchor="start" x="320.5" y="-243.733" font-family="Times Roman,serif" font-size="14.00">[DATETIME] modify&#45;time (0..1) </text>
</a>
<a xlink:href="#" xlink:title="Time the file was last accessed.">
<polygon fill="none" stroke="black" points="317,-217 317,-237 541,-237 541,-217 317,-217"/>
<text text-anchor="start" x="322" y="-223.733" font-family="Times Roman,serif" font-size="14.00">[DATETIME] access&#45;time (0..1) </text>
</a>
<a xlink:href="#" xlink:title="The size of the data, in bytes. &#160;Typically what is meant when referring to file size. &#160;On Unix UFS file systems, this value corresponds to stat.st_size. &#160;On Windows NTFS, this value corresponds to Valid Data Length (VDL).">
<polygon fill="none" stroke="black" points="317,-197 317,-217 541,-217 541,-197 317,-197"/>
<text text-anchor="start" x="335" y="-203.733" font-family="Times Roman,serif" font-size="14.00">[INTEGER] data&#45;size (0..1) </text>
</a>
<a xlink:href="#" xlink:title="The physical space on disk consumed by the file, in bytes. &#160;On Unix UFS file systems, this value corresponds to 512 * stat.st_blocks. &#160;On Windows NTFS, this value corresponds to End of File (EOF).">
<polygon fill="none" stroke="black" points="317,-177 317,-197 541,-197 541,-177 317,-177"/>
<text text-anchor="start" x="337" y="-183.733" font-family="Times Roman,serif" font-size="14.00">[INTEGER] disk&#45;size (0..1) </text>
</a>
<a xlink:href="#" xlink:title="A unique identifier for this file; see Section 3.2.9.">
<polygon fill="none" stroke="black" points="317,-157 317,-177 541,-177 541,-157 317,-157"/>
<text text-anchor="start" x="380.5" y="-163.733" font-family="Times Roman,serif" font-size="14.00">[] ident (0..1) </text>
</a>
<a xlink:href="#" xlink:title="The type of file system the file resides on. &#160;This attribute governs how path names and other attributes are interpreted.">
<polygon fill="none" stroke="black" points="317,-137 317,-157 541,-157 541,-137 317,-137"/>
<text text-anchor="start" x="347" y="-143.733" font-family="Times Roman,serif" font-size="14.00">[ENUM] category (0..1) </text>
</a>
<a xlink:href="#" xlink:title="The type of file, as a mime&#45;type.">
<polygon fill="none" stroke="black" points="317,-117 317,-137 541,-137 541,-117 317,-117"/>
<text text-anchor="start" x="370" y="-123.733" font-family="Times Roman,serif" font-size="14.00">[] file&#45;type (0..1) </text>
</a>
</g>
<!-- Target&#45;&gt;File -->
<g id="edge26" class="edge"><title>Target&#45;&gt;File</title>
<path fill="none" stroke="black" d="M116.785,-595.975C142.508,-535.958 194.502,-427.225 262,-351 273.682,-337.807 287.001,-325.164 300.903,-313.342"/>
<polygon fill="black" stroke="black" points="303.239,-315.951 308.68,-306.86 298.757,-310.574 303.239,-315.951"/>
<text text-anchor="middle" x="230" y="-413.4" font-family="Times Roman,serif" font-size="14.00">0..1</text>
</g>
<!-- Address -->
<g id="node3" class="node"><title>Address</title>
<a xlink:href="#" xlink:title="The Address class is used to represent network, hardware, and application addresses. ">
<polygon fill="#cecece" stroke="#cecece" points="875,-873 875,-894 1078,-894 1078,-873 875,-873"/>
<polygon fill="none" stroke="black" points="875,-873 875,-894 1078,-894 1078,-873 875,-873"/>
<text text-anchor="start" x="949" y="-880.233" font-family="Times Roman,serif" font-size="14.00">Address</text>
</a>
<a xlink:href="#" xlink:title="The address information. &#160;The format of this data is governed by the category attribute.">
<polygon fill="none" stroke="black" points="875,-853 875,-873 1078,-873 1078,-853 875,-853"/>
<text text-anchor="start" x="901" y="-859.733" font-family="Times Roman,serif" font-size="14.00">[STRING] address (1) </text>
</a>
<a xlink:href="#" xlink:title="The network mask for the address, if appropriate.">
<polygon fill="none" stroke="black" points="875,-833 875,-853 1078,-853 1078,-833 875,-833"/>
<text text-anchor="start" x="889" y="-839.733" font-family="Times Roman,serif" font-size="14.00">[STRING] netmask (0..1) </text>
</a>
<a xlink:href="#" xlink:title="A unique identifier for the address; see Section 3.2.9.">
<polygon fill="none" stroke="black" points="875,-813 875,-833 1078,-833 1078,-813 875,-813"/>
<text text-anchor="start" x="912" y="-819.733" font-family="Times Roman,serif" font-size="14.00">[] ident (Optional) </text>
</a>
<a xlink:href="#" xlink:title="The type of address represented. &#160;The permitted values for this attribute are shown below. &#160;The default value is &quot;unknown&quot;. &#160;(See also Section 10.)">
<polygon fill="none" stroke="black" points="875,-793 875,-813 1078,-813 1078,-793 875,-793"/>
<text text-anchor="start" x="878.5" y="-799.733" font-family="Times Roman,serif" font-size="14.00">[ENUM] category (Optional) </text>
</a>
<a xlink:href="#" xlink:title="The name of the Virtual LAN to which the address belongs.">
<polygon fill="none" stroke="black" points="875,-773 875,-793 1078,-793 1078,-773 875,-773"/>
<text text-anchor="start" x="893.5" y="-779.733" font-family="Times Roman,serif" font-size="14.00">[] vlan&#45;name (Optional) </text>
</a>
<a xlink:href="#" xlink:title="The number of the Virtual LAN to which the address belongs.">
<polygon fill="none" stroke="black" points="875,-753 875,-773 1078,-773 1078,-753 875,-753"/>
<text text-anchor="start" x="897" y="-759.733" font-family="Times Roman,serif" font-size="14.00">[] vlan&#45;num (Optional) </text>
</a>
</g>
<!-- Node&#45;&gt;Address -->
<g id="edge2" class="edge"><title>Node&#45;&gt;Address</title>
<path fill="none" stroke="black" d="M538.707,-824C630.636,-824 761.651,-824 856.28,-824"/>
<polygon fill="black" stroke="black" points="856.475,-827.5 866.475,-824 856.475,-820.5 856.475,-827.5"/>
<text text-anchor="middle" x="724" y="-828.4" font-family="Times Roman,serif" font-size="14.00">0..*</text>
</g>
<!-- UserId -->
<g id="node7" class="node"><title>UserId</title>
<a xlink:href="#" xlink:title="The UserId class provides specific information about a user. More than one UserId can be used within the User class to indicate attempts to transition from one user to another, or to provide complete information about a user&#39;s (or process&#39;) privileges. ">
<polygon fill="#cecece" stroke="#cecece" points="1155,-671 1155,-692 1340,-692 1340,-671 1155,-671"/>
<polygon fill="none" stroke="black" points="1155,-671 1155,-692 1340,-692 1340,-671 1155,-671"/>
<text text-anchor="start" x="1225" y="-678.233" font-family="Times Roman,serif" font-size="14.00">UserId</text>
</a>
<a xlink:href="#" xlink:title="A user or group name.">
<polygon fill="none" stroke="black" points="1155,-651 1155,-671 1340,-671 1340,-651 1155,-651"/>
<text text-anchor="start" x="1170.5" y="-657.733" font-family="Times Roman,serif" font-size="14.00">[STRING] name (0..1) </text>
</a>
<a xlink:href="#" xlink:title="A user or group number.">
<polygon fill="none" stroke="black" points="1155,-631 1155,-651 1340,-651 1340,-631 1155,-631"/>
<text text-anchor="start" x="1158.5" y="-637.733" font-family="Times Roman,serif" font-size="14.00">[INTEGER] number (0..1) </text>
</a>
<a xlink:href="#" xlink:title="A unique identifier for the user id, see Section 3.2.9.">
<polygon fill="none" stroke="black" points="1155,-611 1155,-631 1340,-631 1340,-611 1155,-611"/>
<text text-anchor="start" x="1183" y="-617.733" font-family="Times Roman,serif" font-size="14.00">[] ident (Optional) </text>
</a>
<a xlink:href="#" xlink:title="The type of user information represented. &#160;The permitted values for this attribute are shown below. &#160;The default value is &quot;original&#45;user&quot;. &#160;(See also Section 10.)">
<polygon fill="none" stroke="black" points="1155,-591 1155,-611 1340,-611 1340,-591 1155,-591"/>
<text text-anchor="start" x="1164.5" y="-597.733" font-family="Times Roman,serif" font-size="14.00">[ENUM] type (Optional) </text>
</a>
<a xlink:href="#" xlink:title="The tty the user is using.">
<polygon fill="none" stroke="black" points="1155,-571 1155,-591 1340,-591 1340,-571 1155,-571"/>
<text text-anchor="start" x="1163.5" y="-577.733" font-family="Times Roman,serif" font-size="14.00">[STRING] tty (Optional) </text>
</a>
</g>
<!-- User&#45;&gt;UserId -->
<g id="edge6" class="edge"><title>User&#45;&gt;UserId</title>
<path fill="none" stroke="black" d="M833.638,-676.261C922.47,-666.749 1047.08,-653.406 1136.22,-643.862"/>
<polygon fill="black" stroke="black" points="1136.79,-647.32 1146.36,-642.776 1136.05,-640.36 1136.79,-647.32"/>
<text text-anchor="middle" x="976" y="-678.4" font-family="Times Roman,serif" font-size="14.00">1..*</text>
</g>
<!-- FileAccess -->
<g id="node15" class="node"><title>FileAccess</title>
<a xlink:href="#" xlink:title="The FileAccess class represents the access permissions on a file. The representation is intended to be useful across operating systems. ">
<polygon fill="#cecece" stroke="#cecece" points="885,-533 885,-554 1068,-554 1068,-533 885,-533"/>
<polygon fill="none" stroke="black" points="885,-533 885,-554 1068,-554 1068,-533 885,-533"/>
<text text-anchor="start" x="942" y="-540.233" font-family="Times Roman,serif" font-size="14.00">FileAccess</text>
</a>
<a xlink:href="#" xlink:title="Level of access allowed. &#160;The permitted values are shown below. &#160;There is no default value. &#160;(See also Section 10.)">
<polygon fill="none" stroke="black" points="885,-513 885,-533 1068,-533 1068,-513 885,-513"/>
<text text-anchor="start" x="888.5" y="-519.733" font-family="Times Roman,serif" font-size="14.00">[ENUM] Permission (1..*) </text>
</a>
</g>
<!-- File&#45;&gt;FileAccess -->
<g id="edge16" class="edge"><title>File&#45;&gt;FileAccess</title>
<path fill="none" stroke="black" d="M549.041,-295.153C666.133,-360.656 838.709,-457.197 924.154,-504.996"/>
<polygon fill="black" stroke="black" points="922.455,-508.057 932.891,-509.884 925.873,-501.948 922.455,-508.057"/>
<text text-anchor="middle" x="724" y="-456.4" font-family="Times Roman,serif" font-size="14.00">0..*</text>
</g>
<!-- Linkage -->
<g id="node18" class="node"><title>Linkage</title>
<a xlink:href="#" xlink:title="The Linkage class represents file system connections between the file described in the &lt;File&gt; element and other objects in the file system. For example, if the &lt;File&gt; element is a symbolic link or shortcut, then the &lt;Linkage&gt; element should contain the name of the object the link points to. Further information can be provided about the object in the &lt;Linkage&gt; element with another &lt;File&gt; element, if appropriate. ">
<polygon fill="#cecece" stroke="#cecece" points="904,-335 904,-356 1048,-356 1048,-335 904,-335"/>
<polygon fill="none" stroke="black" points="904,-335 904,-356 1048,-356 1048,-335 904,-335"/>
<text text-anchor="start" x="948.5" y="-342.233" font-family="Times Roman,serif" font-size="14.00">Linkage</text>
</a>
<a xlink:href="#" xlink:title="The name of the file system object, not including the path.">
<polygon fill="none" stroke="black" points="904,-315 904,-335 1048,-335 1048,-315 904,-315"/>
<text text-anchor="start" x="908" y="-321.733" font-family="Times Roman,serif" font-size="14.00">[STRING] name (1) </text>
</a>
<a xlink:href="#" xlink:title="The full path to the file system object, including the name. &#160;The path name should be represented in as &quot;universal&quot; a manner as possible, to facilitate processing of the alert.">
<polygon fill="none" stroke="black" points="904,-295 904,-315 1048,-315 1048,-295 904,-295"/>
<text text-anchor="start" x="911" y="-301.733" font-family="Times Roman,serif" font-size="14.00">[STRING] path (1) </text>
</a>
<a xlink:href="#" xlink:title="Section 10.)">
<polygon fill="none" stroke="black" points="904,-275 904,-295 1048,-295 1048,-275 904,-275"/>
<text text-anchor="start" x="907.5" y="-281.733" font-family="Times Roman,serif" font-size="14.00">[ENUM] category () </text>
</a>
</g>
<!-- File&#45;&gt;Linkage -->
<g id="edge20" class="edge"><title>File&#45;&gt;Linkage</title>
<path fill="none" stroke="black" d="M549.071,-257.034C570.616,-261.736 592.918,-266.277 614,-270 706.058,-286.259 812.262,-299.058 885.719,-306.983"/>
<polygon fill="black" stroke="black" points="885.547,-310.485 895.862,-308.069 886.292,-303.524 885.547,-310.485"/>
<text text-anchor="middle" x="724" y="-305.4" font-family="Times Roman,serif" font-size="14.00">0..*</text>
</g>
<!-- Inode -->
<g id="node21" class="node"><title>Inode</title>
<a xlink:href="#" xlink:title="The Inode class is used to represent the additional information contained in a Unix file system i&#45;node. ">
<polygon fill="#cecece" stroke="#cecece" points="860,-229 860,-250 1092,-250 1092,-229 860,-229"/>
<polygon fill="none" stroke="black" points="860,-229 860,-250 1092,-250 1092,-229 860,-229"/>
<text text-anchor="start" x="956.5" y="-236.233" font-family="Times Roman,serif" font-size="14.00">Inode</text>
</a>
<a xlink:href="#" xlink:title="The time of the last inode change, given by the st_ctime element of &quot;struct stat&quot;.">
<polygon fill="none" stroke="black" points="860,-209 860,-229 1092,-229 1092,-209 860,-209"/>
<text text-anchor="start" x="866" y="-215.733" font-family="Times Roman,serif" font-size="14.00">[DATETIME] change&#45;time (0..1) </text>
</a>
<a xlink:href="#" xlink:title="The inode number.">
<polygon fill="none" stroke="black" points="860,-189 860,-209 1092,-209 1092,-189 860,-189"/>
<text text-anchor="start" x="887" y="-195.733" font-family="Times Roman,serif" font-size="14.00">[INTEGER] number (0..1) </text>
</a>
<a xlink:href="#" xlink:title="The major device number of the device the file resides on.">
<polygon fill="none" stroke="black" points="860,-169 860,-189 1092,-189 1092,-169 860,-169"/>
<text text-anchor="start" x="870" y="-175.733" font-family="Times Roman,serif" font-size="14.00">[INTEGER] major&#45;device (0..1) </text>
</a>
<a xlink:href="#" xlink:title="The minor device number of the device the file resides on.">
<polygon fill="none" stroke="black" points="860,-149 860,-169 1092,-169 1092,-149 860,-149"/>
<text text-anchor="start" x="869.5" y="-155.733" font-family="Times Roman,serif" font-size="14.00">[INTEGER] minor&#45;device (0..1) </text>
</a>
<a xlink:href="#" xlink:title="The major device of the file itself, if it is a character special device.">
<polygon fill="none" stroke="black" points="860,-129 860,-149 1092,-149 1092,-129 860,-129"/>
<text text-anchor="start" x="864" y="-135.733" font-family="Times Roman,serif" font-size="14.00">[INTEGER] c&#45;major&#45;device (0..1) </text>
</a>
<a xlink:href="#" xlink:title="The minor device of the file itself, if it is a character special device.">
<polygon fill="none" stroke="black" points="860,-109 860,-129 1092,-129 1092,-109 860,-109"/>
<text text-anchor="start" x="863.5" y="-115.733" font-family="Times Roman,serif" font-size="14.00">[INTEGER] c&#45;minor&#45;device (0..1) </text>
</a>
</g>
<!-- File&#45;&gt;Inode -->
<g id="edge22" class="edge"><title>File&#45;&gt;Inode</title>
<path fill="none" stroke="black" d="M549.225,-208.906C570.753,-205.929 593.011,-203.136 614,-201 689.06,-193.36 773.18,-188.271 841.426,-185.019"/>
<polygon fill="black" stroke="black" points="841.982,-188.497 851.807,-184.532 841.654,-181.504 841.982,-188.497"/>
<text text-anchor="middle" x="724" y="-205.4" font-family="Times Roman,serif" font-size="14.00">0..1</text>
</g>
<!-- Checksum -->
<g id="node23" class="node"><title>Checksum</title>
<a xlink:href="#" xlink:title="The Checksum class represents checksum information associated with the file. This checksum information can be provided by file integrity checkers, among others. ">
<polygon fill="#cecece" stroke="#cecece" points="901,-63 901,-84 1051,-84 1051,-63 901,-63"/>
<polygon fill="none" stroke="black" points="901,-63 901,-84 1051,-84 1051,-63 901,-63"/>
<text text-anchor="start" x="940.5" y="-70.2333" font-family="Times Roman,serif" font-size="14.00">Checksum</text>
</a>
<a xlink:href="#" xlink:title="The value of the checksum.">
<polygon fill="none" stroke="black" points="901,-43 901,-63 1051,-63 1051,-43 901,-43"/>
<text text-anchor="start" x="908" y="-49.7333" font-family="Times Roman,serif" font-size="14.00">[STRING] value (1) </text>
</a>
<a xlink:href="#" xlink:title="The key to the checksum, if appropriate.">
<polygon fill="none" stroke="black" points="901,-23 901,-43 1051,-43 1051,-23 901,-23"/>
<text text-anchor="start" x="906" y="-29.7333" font-family="Times Roman,serif" font-size="14.00">[STRING] key (0..1) </text>
</a>
<a xlink:href="#" xlink:title="default value. &#160;(See also Section 10.)">
<polygon fill="none" stroke="black" points="901,-3 901,-23 1051,-23 1051,-3 901,-3"/>
<text text-anchor="start" x="904.5" y="-9.73333" font-family="Times Roman,serif" font-size="14.00">[ENUM] algorithm () </text>
</a>
</g>
<!-- File&#45;&gt;Checksum -->
<g id="edge24" class="edge"><title>File&#45;&gt;Checksum</title>
<path fill="none" stroke="black" d="M549.38,-186.896C570.892,-179.582 593.103,-172.05 614,-165 705.487,-134.133 810.102,-99.2044 883.264,-74.8374"/>
<polygon fill="black" stroke="black" points="884.542,-78.1008 892.924,-71.6205 882.331,-71.4593 884.542,-78.1008"/>
<text text-anchor="middle" x="724" y="-169.4" font-family="Times Roman,serif" font-size="14.00">0..*</text>
</g>
<!-- FileAccess&#45;&gt;UserId -->
<g id="edge14" class="edge"><title>FileAccess&#45;&gt;UserId</title>
<path fill="none" stroke="black" d="M1042.64,-558.099C1071.1,-568.39 1105.07,-580.676 1137.07,-592.248"/>
<polygon fill="black" stroke="black" points="1135.89,-595.542 1146.48,-595.651 1138.27,-588.959 1135.89,-595.542"/>
<text text-anchor="middle" x="1123" y="-593.4" font-family="Times Roman,serif" font-size="14.00">1</text>
</g>
<!-- Linkage&#45;&gt;File -->
<g id="edge18" class="edge"><title>Linkage&#45;&gt;File</title>
<path fill="none" stroke="black" d="M895.738,-283.13C881.066,-276.716 865.981,-269.849 852,-263 843.781,-258.974 842.784,-255.568 834,-253 744.84,-226.939 640.08,-221.092 559.445,-221.55"/>
<polygon fill="black" stroke="black" points="559.202,-218.052 549.234,-221.642 559.265,-225.052 559.202,-218.052"/>
<text text-anchor="middle" x="724" y="-257.4" font-family="Times Roman,serif" font-size="14.00">1</text>
</g>
</g>
</svg>
