<?xml version="1.0" encoding="UTF-8" standalone="no"?>
<!DOCTYPE svg PUBLIC "-//W3C//DTD SVG 1.1//EN"
 "http://www.w3.org/Graphics/SVG/1.1/DTD/svg11.dtd">
<!-- Generated by graphviz version 2.38.0 (20140413.2041)
 -->
<!-- Title: Address Pages: 1 -->
<svg width="223pt" height="121pt"
 viewBox="0.00 0.00 223.00 121.00" xmlns="http://www.w3.org/2000/svg" xmlns:xlink="http://www.w3.org/1999/xlink">
<g id="graph0" class="graph" transform="scale(1 1) rotate(0) translate(4 117)">
<title>Address</title>
<polygon fill="white" stroke="none" points="-4,4 -4,-117 219,-117 219,4 -4,4"/>
<!-- Address -->
<g id="node1" class="node"><title>Address</title>
<g id="a_node1_0"><a xlink:href="/idmef_parser/IODEF/Address.html" xlink:title="The Address class represents a hardware (layer&#45;2), network (layer&#45;3), or application (layer&#45;7) address. ">
<polygon fill="#182f5f" stroke="none" points="8.5,-87.5 8.5,-108.5 207.5,-108.5 207.5,-87.5 8.5,-87.5"/>
<polygon fill="none" stroke="black" points="8.5,-87.5 8.5,-108.5 207.5,-108.5 207.5,-87.5 8.5,-87.5"/>
<text text-anchor="start" x="85.5" y="-94.3" font-family="Times,serif" font-size="14.00">Address</text>
</a>
</g>
<g id="a_node1_1"><a xlink:href="/idmef_parser/IODEF/Address.html" xlink:title="The type of address represented. &#160;The permitted values for this attribute are shown below. &#160;The default value is &quot;ipv4&#45;addr&quot;.">
<polygon fill="#284f9f" stroke="none" points="8.5,-66.5 8.5,-87.5 207.5,-87.5 207.5,-66.5 8.5,-66.5"/>
<polygon fill="none" stroke="black" points="8.5,-66.5 8.5,-87.5 207.5,-87.5 207.5,-66.5 8.5,-66.5"/>
<text text-anchor="start" x="25" y="-73.3" font-family="Times,serif" font-size="14.00">[ENUM] category (Required) </text>
</a>
</g>
<g id="a_node1_2"><a xlink:href="/idmef_parser/IODEF/Address.html" xlink:title="A means by which to extend the category attribute. &#160;See Section 5.1.">
<polygon fill="#284f9f" stroke="none" points="8.5,-45.5 8.5,-66.5 207.5,-66.5 207.5,-45.5 8.5,-45.5"/>
<polygon fill="none" stroke="black" points="8.5,-45.5 8.5,-66.5 207.5,-66.5 207.5,-45.5 8.5,-45.5"/>
<text text-anchor="start" x="11.5" y="-52.3" font-family="Times,serif" font-size="14.00">[STRING] ext&#45;category (Optional) </text>
</a>
</g>
<g id="a_node1_3"><a xlink:href="/idmef_parser/IODEF/Address.html" xlink:title="The name of the Virtual LAN to which the address belongs.">
<polygon fill="#284f9f" stroke="none" points="8.5,-24.5 8.5,-45.5 207.5,-45.5 207.5,-24.5 8.5,-24.5"/>
<polygon fill="none" stroke="black" points="8.5,-24.5 8.5,-45.5 207.5,-45.5 207.5,-24.5 8.5,-24.5"/>
<text text-anchor="start" x="16" y="-31.3" font-family="Times,serif" font-size="14.00">[STRING] vlan&#45;name (Optional) </text>
</a>
</g>
<g id="a_node1_4"><a xlink:href="/idmef_parser/IODEF/Address.html" xlink:title="The number of the Virtual LAN to which the address belongs.">
<polygon fill="#284f9f" stroke="none" points="8.5,-3.5 8.5,-24.5 207.5,-24.5 207.5,-3.5 8.5,-3.5"/>
<polygon fill="none" stroke="black" points="8.5,-3.5 8.5,-24.5 207.5,-24.5 207.5,-3.5 8.5,-3.5"/>
<text text-anchor="start" x="19" y="-10.3" font-family="Times,serif" font-size="14.00">[STRING] vlan&#45;num (Optional) </text>
</a>
</g>
</g>
</g>
</svg>
