<?xml version="1.0" encoding="UTF-8" standalone="no"?>
<!DOCTYPE svg PUBLIC "-//W3C//DTD SVG 1.1//EN"
 "http://www.w3.org/Graphics/SVG/1.1/DTD/svg11.dtd">
<!-- Generated by graphviz version 2.26.3 (20100126.1600)
 -->
<!-- Title: Application Pages: 1 -->
<svg width="232pt" height="196pt"
 viewBox="0.00 0.00 232.00 196.00" xmlns="http://www.w3.org/2000/svg" xmlns:xlink="http://www.w3.org/1999/xlink">
<g id="graph1" class="graph" transform="scale(1 1) rotate(0) translate(4 192)">
<title>Application</title>
<polygon fill="white" stroke="white" points="-4,5 -4,-192 229,-192 229,5 -4,5"/>
<!-- Application -->
<g id="node1" class="node"><title>Application</title>
<a xlink:href="/idmef_parser/IODEF/Application.html" xlink:title="The Application class describes an application running on a System providing a Service. ">
<polygon fill="#182f5f" stroke="#182f5f" points="9,-163 9,-184 216,-184 216,-163 9,-163"/>
<polygon fill="none" stroke="black" points="9,-163 9,-184 216,-184 216,-163 9,-163"/>
<text text-anchor="start" x="74.5" y="-170.233" font-family="Times Roman,serif" font-size="14.00">Application</text>
</a>
<a xlink:href="/idmef_parser/IODEF/Application.html" xlink:title="A URL describing the application.">
<polygon fill="#284f9f" stroke="#284f9f" points="9,-143 9,-163 216,-163 216,-143 9,-143"/>
<polygon fill="none" stroke="black" points="9,-143 9,-163 216,-163 216,-143 9,-143"/>
<text text-anchor="start" x="53" y="-149.733" font-family="Times Roman,serif" font-size="14.00">[URL] URL (0..1) </text>
</a>
<a xlink:href="/idmef_parser/IODEF/Application.html" xlink:title="An identifier that can be used to reference this software.">
<polygon fill="#284f9f" stroke="#284f9f" points="9,-123 9,-143 216,-143 216,-123 9,-123"/>
<polygon fill="none" stroke="black" points="9,-123 9,-143 216,-143 216,-123 9,-123"/>
<text text-anchor="start" x="23" y="-129.733" font-family="Times Roman,serif" font-size="14.00">[STRING] swid (Optional) </text>
</a>
<a xlink:href="/idmef_parser/IODEF/Application.html" xlink:title="An identifier that can be used to reference a particular configuration of this software.">
<polygon fill="#284f9f" stroke="#284f9f" points="9,-103 9,-123 216,-123 216,-103 9,-103"/>
<polygon fill="none" stroke="black" points="9,-103 9,-123 216,-123 216,-103 9,-103"/>
<text text-anchor="start" x="12.5" y="-109.733" font-family="Times Roman,serif" font-size="14.00">[STRING] configid (Optional) </text>
</a>
<a xlink:href="/idmef_parser/IODEF/Application.html" xlink:title="Vendor name of the software.">
<polygon fill="#284f9f" stroke="#284f9f" points="9,-83 9,-103 216,-103 216,-83 9,-83"/>
<polygon fill="none" stroke="black" points="9,-83 9,-103 216,-103 216,-83 9,-83"/>
<text text-anchor="start" x="14.5" y="-89.7333" font-family="Times Roman,serif" font-size="14.00">[STRING] vendor (Optional) </text>
</a>
<a xlink:href="/idmef_parser/IODEF/Application.html" xlink:title="Family of the software.">
<polygon fill="#284f9f" stroke="#284f9f" points="9,-63 9,-83 216,-83 216,-63 9,-63"/>
<polygon fill="none" stroke="black" points="9,-63 9,-83 216,-83 216,-63 9,-63"/>
<text text-anchor="start" x="18" y="-69.7333" font-family="Times Roman,serif" font-size="14.00">[STRING] family (Optional) </text>
</a>
<a xlink:href="/idmef_parser/IODEF/Application.html" xlink:title="Name of the software.">
<polygon fill="#284f9f" stroke="#284f9f" points="9,-43 9,-63 216,-63 216,-43 9,-43"/>
<polygon fill="none" stroke="black" points="9,-43 9,-63 216,-63 216,-43 9,-43"/>
<text text-anchor="start" x="19.5" y="-49.7333" font-family="Times Roman,serif" font-size="14.00">[STRING] name (Optional) </text>
</a>
<a xlink:href="/idmef_parser/IODEF/Application.html" xlink:title="Version of the software.">
<polygon fill="#284f9f" stroke="#284f9f" points="9,-23 9,-43 216,-43 216,-23 9,-23"/>
<polygon fill="none" stroke="black" points="9,-23 9,-43 216,-43 216,-23 9,-23"/>
<text text-anchor="start" x="13.5" y="-29.7333" font-family="Times Roman,serif" font-size="14.00">[STRING] version (Optional) </text>
</a>
<a xlink:href="/idmef_parser/IODEF/Application.html" xlink:title="Patch or service pack level of the software.">
<polygon fill="#284f9f" stroke="#284f9f" points="9,-3 9,-23 216,-23 216,-3 9,-3"/>
<polygon fill="none" stroke="black" points="9,-3 9,-23 216,-23 216,-3 9,-3"/>
<text text-anchor="start" x="19.5" y="-9.73333" font-family="Times Roman,serif" font-size="14.00">[STRING] patch (Optional) </text>
</a>
</g>
</g>
</svg>
