<?xml version="1.0" encoding="UTF-8" standalone="no"?>
<!DOCTYPE svg PUBLIC "-//W3C//DTD SVG 1.1//EN"
 "http://www.w3.org/Graphics/SVG/1.1/DTD/svg11.dtd">
<!-- Generated by graphviz version 2.26.3 (20100126.1600)
 -->
<!-- Title: Contact Pages: 1 -->
<svg width="586pt" height="374pt"
 viewBox="0.00 0.00 586.00 374.00" xmlns="http://www.w3.org/2000/svg" xmlns:xlink="http://www.w3.org/1999/xlink">
<g id="graph1" class="graph" transform="scale(1 1) rotate(0) translate(4 370)">
<title>Contact</title>
<polygon fill="white" stroke="white" points="-4,5 -4,-370 583,-370 583,5 -4,5"/>
<!-- Contact -->
<g id="node1" class="node"><title>Contact</title>
<a xlink:href="/idmef_parser/IODEF/Contact.html" xlink:title="The Contact class describes contact information for organizations and personnel involved in the incident. This class allows for the naming of the involved party, specifying contact information for them, and identifying their role in the incident. ">
<polygon fill="#7a993d" stroke="#7a993d" points="9,-297 9,-318 254,-318 254,-297 9,-297"/>
<polygon fill="none" stroke="black" points="9,-297 9,-318 254,-318 254,-297 9,-297"/>
<text text-anchor="start" x="104" y="-304.233" font-family="Times Roman,serif" font-size="14.00">Contact</text>
</a>
<a xlink:href="/idmef_parser/IODEF/Contact.html" xlink:title="The name of the contact. &#160;The contact may either be an organization or a person. &#160;The type attribute disambiguates the semantics.">
<polygon fill="#ccff66" stroke="#ccff66" points="9,-277 9,-297 254,-297 254,-277 9,-277"/>
<polygon fill="none" stroke="black" points="9,-277 9,-297 254,-297 254,-277 9,-277"/>
<text text-anchor="start" x="12.5" y="-283.733" font-family="Times Roman,serif" font-size="14.00">[ML_STRING] ContactName (0..1) </text>
</a>
<a xlink:href="/idmef_parser/IODEF/Contact.html" xlink:title="A free&#45;form description of this contact. &#160;In the case of a person, this is often the organizational title of the individual.">
<polygon fill="#ccff66" stroke="#ccff66" points="9,-257 9,-277 254,-277 254,-257 9,-257"/>
<polygon fill="none" stroke="black" points="9,-257 9,-277 254,-277 254,-257 9,-257"/>
<text text-anchor="start" x="21.5" y="-263.733" font-family="Times Roman,serif" font-size="14.00">[ML_STRING] Description (0..*) </text>
</a>
<a xlink:href="/idmef_parser/IODEF/Contact.html" xlink:title="The telephone number of the contact.">
<polygon fill="#ccff66" stroke="#ccff66" points="9,-237 9,-257 254,-257 254,-237 9,-237"/>
<polygon fill="none" stroke="black" points="9,-237 9,-257 254,-257 254,-237 9,-237"/>
<text text-anchor="start" x="66.5" y="-243.733" font-family="Times Roman,serif" font-size="14.00">[] Telephone (0..*) </text>
</a>
<a xlink:href="/idmef_parser/IODEF/Contact.html" xlink:title="The facsimile telephone number of the contact.">
<polygon fill="#ccff66" stroke="#ccff66" points="9,-217 9,-237 254,-237 254,-217 9,-217"/>
<polygon fill="none" stroke="black" points="9,-217 9,-237 254,-237 254,-217 9,-217"/>
<text text-anchor="start" x="89" y="-223.733" font-family="Times Roman,serif" font-size="14.00">[] Fax (0..1) </text>
</a>
<a xlink:href="/idmef_parser/IODEF/Contact.html" xlink:title="The timezone in which the contact resides formatted according to Section 2.9.">
<polygon fill="#ccff66" stroke="#ccff66" points="9,-197 9,-217 254,-217 254,-197 9,-197"/>
<polygon fill="none" stroke="black" points="9,-197 9,-217 254,-217 254,-197 9,-197"/>
<text text-anchor="start" x="29.5" y="-203.733" font-family="Times Roman,serif" font-size="14.00">[TIMEZONE] Timezone (0..1) </text>
</a>
<a xlink:href="/idmef_parser/IODEF/Contact.html" xlink:title="Indicates the role the contact fulfills. &#160;This attribute is defined as an enumerated list:">
<polygon fill="#ccff66" stroke="#ccff66" points="9,-177 9,-197 254,-197 254,-177 9,-177"/>
<polygon fill="none" stroke="black" points="9,-177 9,-197 254,-197 254,-177 9,-177"/>
<text text-anchor="start" x="49.5" y="-183.733" font-family="Times Roman,serif" font-size="14.00">[ENUM] role (Required) </text>
</a>
<a xlink:href="/idmef_parser/IODEF/Contact.html" xlink:title="A means by which to extend the role attribute. See Section 5.1.">
<polygon fill="#ccff66" stroke="#ccff66" points="9,-157 9,-177 254,-177 254,-157 9,-157"/>
<polygon fill="none" stroke="black" points="9,-157 9,-177 254,-177 254,-157 9,-157"/>
<text text-anchor="start" x="30.5" y="-163.733" font-family="Times Roman,serif" font-size="14.00">[STRING] ext&#45;role (Optional) </text>
</a>
<a xlink:href="/idmef_parser/IODEF/Contact.html" xlink:title="Indicates the type of contact being described. This attribute is defined as an enumerated list:">
<polygon fill="#ccff66" stroke="#ccff66" points="9,-137 9,-157 254,-157 254,-137 9,-137"/>
<polygon fill="none" stroke="black" points="9,-137 9,-157 254,-157 254,-137 9,-137"/>
<text text-anchor="start" x="47" y="-143.733" font-family="Times Roman,serif" font-size="14.00">[ENUM] type (Required) </text>
</a>
<a xlink:href="/idmef_parser/IODEF/Contact.html" xlink:title="A means by which to extend the type attribute. See Section 5.1.">
<polygon fill="#ccff66" stroke="#ccff66" points="9,-117 9,-137 254,-137 254,-117 9,-117"/>
<polygon fill="none" stroke="black" points="9,-117 9,-137 254,-137 254,-117 9,-117"/>
<text text-anchor="start" x="28.5" y="-123.733" font-family="Times Roman,serif" font-size="14.00">[STRING] ext&#45;type (Optional) </text>
</a>
<a xlink:href="/idmef_parser/IODEF/Contact.html" xlink:title="This attribute is defined in Section 3.2.">
<polygon fill="#ccff66" stroke="#ccff66" points="9,-97 9,-117 254,-117 254,-97 9,-97"/>
<polygon fill="none" stroke="black" points="9,-97 9,-117 254,-117 254,-97 9,-97"/>
<text text-anchor="start" x="28.5" y="-103.733" font-family="Times Roman,serif" font-size="14.00">[ENUM] restriction (Optional) </text>
</a>
</g>
<!-- Contact&#45;&gt;Contact -->
<g id="edge8" class="edge"><title>Contact&#45;&gt;Contact</title>
<path fill="none" stroke="black" d="M106.439,-322.054C111.422,-333.039 119.609,-340 131,-340 139.009,-340 145.434,-336.559 150.276,-330.697"/>
<polygon fill="black" stroke="black" points="153.33,-332.411 155.561,-322.054 147.358,-328.759 153.33,-332.411"/>
<text text-anchor="middle" x="131" y="-344.4" font-family="Times Roman,serif" font-size="14.00">0..*</text>
</g>
<!-- RegistryHandle -->
<g id="node2" class="node"><title>RegistryHandle</title>
<a xlink:href="/idmef_parser/IODEF/RegistryHandle.html" xlink:title="The RegistryHandle class represents a handle into an Internet registry or community&#45;specific database. The handle is specified in the element content and the type attribute specifies the database. ">
<polygon fill="#7a993d" stroke="#7a993d" points="334,-341 334,-362 570,-362 570,-341 334,-341"/>
<polygon fill="none" stroke="black" points="334,-341 334,-362 570,-362 570,-341 334,-341"/>
<text text-anchor="start" x="399.5" y="-348.233" font-family="Times Roman,serif" font-size="14.00">RegistryHandle</text>
</a>
<a xlink:href="/idmef_parser/IODEF/RegistryHandle.html" xlink:title="The database to which the handle belongs. &#160;The default value is &#39;local&#39;. &#160;The possible values are:">
<polygon fill="#ccff66" stroke="#ccff66" points="334,-321 334,-341 570,-341 570,-321 334,-321"/>
<polygon fill="none" stroke="black" points="334,-321 334,-341 570,-341 570,-321 334,-321"/>
<text text-anchor="start" x="356.5" y="-327.733" font-family="Times Roman,serif" font-size="14.00">[ENUM] registry (Required) </text>
</a>
<a xlink:href="/idmef_parser/IODEF/RegistryHandle.html" xlink:title="A means by which to extend the registry attribute. &#160;See Section 5.1.">
<polygon fill="#ccff66" stroke="#ccff66" points="334,-301 334,-321 570,-321 570,-301 334,-301"/>
<polygon fill="none" stroke="black" points="334,-301 334,-321 570,-321 570,-301 334,-301"/>
<text text-anchor="start" x="337.5" y="-307.733" font-family="Times Roman,serif" font-size="14.00">[STRING] ext&#45;registry (Optional) </text>
</a>
</g>
<!-- Contact&#45;&gt;RegistryHandle -->
<g id="edge2" class="edge"><title>Contact&#45;&gt;RegistryHandle</title>
<path fill="none" stroke="black" d="M261.65,-263.636C283.061,-272.359 305.082,-281.096 326,-289 330.809,-290.817 335.734,-292.643 340.717,-294.463"/>
<polygon fill="black" stroke="black" points="339.765,-297.84 350.359,-297.95 342.146,-291.258 339.765,-297.84"/>
<text text-anchor="middle" x="294" y="-284.4" font-family="Times Roman,serif" font-size="14.00">0..*</text>
</g>
<!-- PostalAddress -->
<g id="node4" class="node"><title>PostalAddress</title>
<a xlink:href="/idmef_parser/IODEF/PostalAddress.html" xlink:title="The PostalAddress class specifies a postal address formatted according to the POSTAL data type (Section 2.11). ">
<polygon fill="#7a993d" stroke="#7a993d" points="351,-255 351,-276 553,-276 553,-255 351,-255"/>
<polygon fill="none" stroke="black" points="351,-255 351,-276 553,-276 553,-255 351,-255"/>
<text text-anchor="start" x="404" y="-262.233" font-family="Times Roman,serif" font-size="14.00">PostalAddress</text>
</a>
<a xlink:href="/idmef_parser/IODEF/PostalAddress.html" xlink:title="A free&#45;form description of the element content.">
<polygon fill="#ccff66" stroke="#ccff66" points="351,-235 351,-255 553,-255 553,-235 351,-235"/>
<polygon fill="none" stroke="black" points="351,-235 351,-255 553,-255 553,-235 351,-235"/>
<text text-anchor="start" x="354.5" y="-241.733" font-family="Times Roman,serif" font-size="14.00">[ENUM] meaning (Optional) </text>
</a>
<a xlink:href="/idmef_parser/IODEF/PostalAddress.html" xlink:title="A valid language code per RFC 4646 [7] constrained by the definition of &quot;xs:language&quot;. &#160;The interpretation of this code is described in Section 6.">
<polygon fill="#ccff66" stroke="#ccff66" points="351,-215 351,-235 553,-235 553,-215 351,-215"/>
<polygon fill="none" stroke="black" points="351,-215 351,-235 553,-235 553,-215 351,-215"/>
<text text-anchor="start" x="368.5" y="-221.733" font-family="Times Roman,serif" font-size="14.00">[ENUM] lang (Required) </text>
</a>
</g>
<!-- Contact&#45;&gt;PostalAddress -->
<g id="edge4" class="edge"><title>Contact&#45;&gt;PostalAddress</title>
<path fill="none" stroke="black" d="M261.563,-223.456C285.075,-226.239 309.475,-229.128 332.648,-231.871"/>
<polygon fill="black" stroke="black" points="332.506,-235.379 342.848,-233.079 333.329,-228.427 332.506,-235.379"/>
<text text-anchor="middle" x="294" y="-232.4" font-family="Times Roman,serif" font-size="14.00">0..1</text>
</g>
<!-- Email -->
<g id="node6" class="node"><title>Email</title>
<a xlink:href="/idmef_parser/IODEF/Email.html" xlink:title="The Email class specifies an email address formatted according to EMAIL data type (Section 2.14). ">
<polygon fill="#7a993d" stroke="#7a993d" points="351,-169 351,-190 553,-190 553,-169 351,-169"/>
<polygon fill="none" stroke="black" points="351,-169 351,-190 553,-190 553,-169 351,-169"/>
<text text-anchor="start" x="433" y="-176.233" font-family="Times Roman,serif" font-size="14.00">Email</text>
</a>
<a xlink:href="/idmef_parser/IODEF/Email.html" xlink:title="A free&#45;form description of the element content (e.g., hours of coverage for a given number).">
<polygon fill="#ccff66" stroke="#ccff66" points="351,-149 351,-169 553,-169 553,-149 351,-149"/>
<polygon fill="none" stroke="black" points="351,-149 351,-169 553,-169 553,-149 351,-149"/>
<text text-anchor="start" x="354.5" y="-155.733" font-family="Times Roman,serif" font-size="14.00">[ENUM] meaning (Optional) </text>
</a>
</g>
<!-- Contact&#45;&gt;Email -->
<g id="edge6" class="edge"><title>Contact&#45;&gt;Email</title>
<path fill="none" stroke="black" d="M261.563,-192.544C285.075,-189.761 309.475,-186.872 332.648,-184.129"/>
<polygon fill="black" stroke="black" points="333.329,-187.573 342.848,-182.921 332.506,-180.621 333.329,-187.573"/>
<text text-anchor="middle" x="294" y="-194.4" font-family="Times Roman,serif" font-size="14.00">0..*</text>
</g>
<!-- AdditionalData -->
<g id="node9" class="node"><title>AdditionalData</title>
<a xlink:href="/idmef_parser/IODEF/AdditionalData.html" xlink:title="The AdditionalData class serves as an extension mechanism for information not otherwise represented in the data model. For relatively simple information, atomic data types (e.g., integers, strings) are provided with a mechanism to annotate their meaning. The class can also be used to extend the data model (and the associated Schema) to support proprietary extensions by encapsulating entire XML documents conforming to another Schema (e.g., IDMEF). A detailed discussion for extending the data model and the schema can be found in Section 5. ">
<polygon fill="#997a3d" stroke="#997a3d" points="342,-103 342,-124 563,-124 563,-103 342,-103"/>
<polygon fill="none" stroke="black" points="342,-103 342,-124 563,-124 563,-103 342,-103"/>
<text text-anchor="start" x="401" y="-110.233" font-family="Times Roman,serif" font-size="14.00">AdditionalData</text>
</a>
<a xlink:href="/idmef_parser/IODEF/AdditionalData.html" xlink:title="The data type of the element content. &#160;The permitted values for this attribute are shown below. &#160;The default value is &quot;string&quot;.">
<polygon fill="#ffcc66" stroke="#ffcc66" points="342,-83 342,-103 563,-103 563,-83 342,-83"/>
<polygon fill="none" stroke="black" points="342,-83 342,-103 563,-103 563,-83 342,-83"/>
<text text-anchor="start" x="364" y="-89.7333" font-family="Times Roman,serif" font-size="14.00">[ENUM] dtype (Required) </text>
</a>
<a xlink:href="/idmef_parser/IODEF/AdditionalData.html" xlink:title="A means by which to extend the dtype attribute. &#160;See Section 5.1.">
<polygon fill="#ffcc66" stroke="#ffcc66" points="342,-63 342,-83 563,-83 563,-63 342,-63"/>
<polygon fill="none" stroke="black" points="342,-63 342,-83 563,-83 563,-63 342,-63"/>
<text text-anchor="start" x="345.5" y="-69.7333" font-family="Times Roman,serif" font-size="14.00">[STRING] ext&#45;dtype (Optional) </text>
</a>
<a xlink:href="/idmef_parser/IODEF/AdditionalData.html" xlink:title="A free&#45;form description of the element content.">
<polygon fill="#ffcc66" stroke="#ffcc66" points="342,-43 342,-63 563,-63 563,-43 342,-43"/>
<polygon fill="none" stroke="black" points="342,-43 342,-63 563,-63 563,-43 342,-43"/>
<text text-anchor="start" x="349" y="-49.7333" font-family="Times Roman,serif" font-size="14.00">[STRING] meaning (Optional) </text>
</a>
<a xlink:href="/idmef_parser/IODEF/AdditionalData.html" xlink:title="An identifier referencing the format and semantics of the element content.">
<polygon fill="#ffcc66" stroke="#ffcc66" points="342,-23 342,-43 563,-43 563,-23 342,-23"/>
<polygon fill="none" stroke="black" points="342,-23 342,-43 563,-43 563,-23 342,-23"/>
<text text-anchor="start" x="350" y="-29.7333" font-family="Times Roman,serif" font-size="14.00">[STRING] formatid (Optional) </text>
</a>
<a xlink:href="/idmef_parser/IODEF/AdditionalData.html" xlink:title="This attribute has been defined in Section 3.2.">
<polygon fill="#ffcc66" stroke="#ffcc66" points="342,-3 342,-23 563,-23 563,-3 342,-3"/>
<polygon fill="none" stroke="black" points="342,-3 342,-23 563,-23 563,-3 342,-3"/>
<text text-anchor="start" x="349.5" y="-9.73333" font-family="Times Roman,serif" font-size="14.00">[ENUM] restriction (Optional) </text>
</a>
</g>
<!-- Contact&#45;&gt;AdditionalData -->
<g id="edge10" class="edge"><title>Contact&#45;&gt;AdditionalData</title>
<path fill="none" stroke="black" d="M261.563,-149.43C282.185,-140.179 303.49,-130.621 324.051,-121.398"/>
<polygon fill="black" stroke="black" points="325.749,-124.472 333.44,-117.186 322.884,-118.085 325.749,-124.472"/>
<text text-anchor="middle" x="294" y="-144.4" font-family="Times Roman,serif" font-size="14.00">0..*</text>
</g>
</g>
</svg>
