<?xml version="1.0" encoding="UTF-8" standalone="no"?>
<!DOCTYPE svg PUBLIC "-//W3C//DTD SVG 1.1//EN"
 "http://www.w3.org/Graphics/SVG/1.1/DTD/svg11.dtd">
<!-- Generated by graphviz version 2.38.0 (20140413.2041)
 -->
<!-- Title: Email Pages: 1 -->
<svg width="195pt" height="58pt"
 viewBox="0.00 0.00 195.00 58.00" xmlns="http://www.w3.org/2000/svg" xmlns:xlink="http://www.w3.org/1999/xlink">
<g id="graph0" class="graph" transform="scale(1 1) rotate(0) translate(4 54)">
<title>Email</title>
<polygon fill="white" stroke="none" points="-4,4 -4,-54 191,-54 191,4 -4,4"/>
<!-- Email -->
<g id="node1" class="node"><title>Email</title>
<g id="a_node1_0"><a xlink:href="/idmef_parser/IODEF/Email.html" xlink:title="The Email class specifies an email address formatted according to EMAIL data type (Section 2.14). ">
<polygon fill="#7a993d" stroke="none" points="8.5,-25 8.5,-46 179.5,-46 179.5,-25 8.5,-25"/>
<polygon fill="none" stroke="black" points="8.5,-25 8.5,-46 179.5,-46 179.5,-25 8.5,-25"/>
<text text-anchor="start" x="77" y="-31.8" font-family="Times,serif" font-size="14.00">Email</text>
</a>
</g>
<g id="a_node1_1"><a xlink:href="/idmef_parser/IODEF/Email.html" xlink:title="A free&#45;form description of the element content (e.g., hours of coverage for a given number).">
<polygon fill="#ccff66" stroke="none" points="8.5,-4 8.5,-25 179.5,-25 179.5,-4 8.5,-4"/>
<polygon fill="none" stroke="black" points="8.5,-4 8.5,-25 179.5,-25 179.5,-4 8.5,-4"/>
<text text-anchor="start" x="11.5" y="-10.8" font-family="Times,serif" font-size="14.00">[ENUM] meaning (Optional) </text>
</a>
</g>
</g>
</g>
</svg>
