<?xml version="1.0" encoding="UTF-8" standalone="no"?>
<!DOCTYPE svg PUBLIC "-//W3C//DTD SVG 1.1//EN"
 "http://www.w3.org/Graphics/SVG/1.1/DTD/svg11.dtd">
<!-- Generated by graphviz version 2.38.0 (20140413.2041)
 -->
<!-- Title: Expectation Pages: 1 -->
<svg width="770pt" height="389pt"
 viewBox="0.00 0.00 770.00 388.50" xmlns="http://www.w3.org/2000/svg" xmlns:xlink="http://www.w3.org/1999/xlink">
<g id="graph0" class="graph" transform="scale(1 1) rotate(0) translate(4 384.5)">
<title>Expectation</title>
<polygon fill="white" stroke="none" points="-4,4 -4,-384.5 766,-384.5 766,4 -4,4"/>
<!-- Expectation -->
<g id="node1" class="node"><title>Expectation</title>
<g id="a_node1_0"><a xlink:href="/idmef_parser/IODEF/Expectation.html" xlink:title="The Expectation class conveys to the recipient of the IODEF document the actions the sender is requesting. The scope of the requested action is limited to purview of the EventData class in which this class is aggregated. ">
<polygon fill="#737373" stroke="none" points="8,-279 8,-300 204,-300 204,-279 8,-279"/>
<polygon fill="none" stroke="black" points="8,-279 8,-300 204,-300 204,-279 8,-279"/>
<text text-anchor="start" x="73.5" y="-285.8" font-family="Times,serif" font-size="14.00">Expectation</text>
</a>
</g>
<g id="a_node1_1"><a xlink:href="/idmef_parser/IODEF/Expectation.html" xlink:title="A free&#45;form description of the desired action(s).">
<polygon fill="#bfbfbf" stroke="none" points="8,-258 8,-279 204,-279 204,-258 8,-258"/>
<polygon fill="none" stroke="black" points="8,-258 8,-279 204,-279 204,-258 8,-258"/>
<text text-anchor="start" x="11" y="-264.8" font-family="Times,serif" font-size="14.00">[ML_STRING] Description (0..*) </text>
</a>
</g>
<g id="a_node1_2"><a xlink:href="/idmef_parser/IODEF/Expectation.html" xlink:title="The time at which the action should be performed. &#160;A timestamp that is earlier than the ReportTime specified in the Incident class denotes that the expectation should be fulfilled as soon as possible. &#160;The absence of this element leaves the execution of the expectation to the discretion of the recipient.">
<polygon fill="#bfbfbf" stroke="none" points="8,-237 8,-258 204,-258 204,-237 8,-237"/>
<polygon fill="none" stroke="black" points="8,-237 8,-258 204,-258 204,-237 8,-237"/>
<text text-anchor="start" x="53" y="-243.8" font-family="Times,serif" font-size="14.00">[] StartTime (0..1) </text>
</a>
</g>
<g id="a_node1_3"><a xlink:href="/idmef_parser/IODEF/Expectation.html" xlink:title="The time by which the action should be completed. If the action is not carried out by this time, it should no longer be performed.">
<polygon fill="#bfbfbf" stroke="none" points="8,-216 8,-237 204,-237 204,-216 8,-216"/>
<polygon fill="none" stroke="black" points="8,-216 8,-237 204,-237 204,-216 8,-216"/>
<text text-anchor="start" x="55" y="-222.8" font-family="Times,serif" font-size="14.00">[] EndTime (0..1) </text>
</a>
</g>
<g id="a_node1_4"><a xlink:href="/idmef_parser/IODEF/Expectation.html" xlink:title="This attribute is defined in Section 3.2.">
<polygon fill="#bfbfbf" stroke="none" points="8,-195 8,-216 204,-216 204,-195 8,-195"/>
<polygon fill="none" stroke="black" points="8,-195 8,-216 204,-216 204,-195 8,-195"/>
<text text-anchor="start" x="20" y="-201.8" font-family="Times,serif" font-size="14.00">[ENUM] restriction (Optional) </text>
</a>
</g>
<g id="a_node1_5"><a xlink:href="/idmef_parser/IODEF/Expectation.html" xlink:title="Indicates the desired priority of the action. This attribute is an enumerated list with no default value, and the semantics of these relative measures are context dependent.">
<polygon fill="#bfbfbf" stroke="none" points="8,-174 8,-195 204,-195 204,-174 8,-174"/>
<polygon fill="none" stroke="black" points="8,-174 8,-195 204,-195 204,-174 8,-174"/>
<text text-anchor="start" x="26" y="-180.8" font-family="Times,serif" font-size="14.00">[ENUM] severity (Optional) </text>
</a>
</g>
<g id="a_node1_6"><a xlink:href="/idmef_parser/IODEF/Expectation.html" xlink:title="Classifies the type of action requested. &#160;This attribute is an enumerated list with no default value.">
<polygon fill="#bfbfbf" stroke="none" points="8,-153 8,-174 204,-174 204,-153 8,-153"/>
<polygon fill="none" stroke="black" points="8,-153 8,-174 204,-174 204,-153 8,-153"/>
<text text-anchor="start" x="30.5" y="-159.8" font-family="Times,serif" font-size="14.00">[ENUM] action (Optional) </text>
</a>
</g>
<g id="a_node1_7"><a xlink:href="/idmef_parser/IODEF/Expectation.html" xlink:title="A means by which to extend the action attribute. &#160;See Section 5.1.">
<polygon fill="#bfbfbf" stroke="none" points="8,-132 8,-153 204,-153 204,-132 8,-132"/>
<polygon fill="none" stroke="black" points="8,-132 8,-153 204,-153 204,-132 8,-132"/>
<text text-anchor="start" x="16" y="-138.8" font-family="Times,serif" font-size="14.00">[STRING] ext&#45;action (Optional) </text>
</a>
</g>
</g>
<!-- Contact -->
<g id="node2" class="node"><title>Contact</title>
<g id="a_node2_8"><a xlink:href="/idmef_parser/IODEF/Contact.html" xlink:title="The Contact class describes contact information for organizations and personnel involved in the incident. This class allows for the naming of the involved party, specifying contact information for them, and identifying their role in the incident. ">
<polygon fill="#7a993d" stroke="none" points="278,-310 278,-331 486,-331 486,-310 278,-310"/>
<polygon fill="none" stroke="black" points="278,-310 278,-331 486,-331 486,-310 278,-310"/>
<text text-anchor="start" x="360.5" y="-316.8" font-family="Times,serif" font-size="14.00">Contact</text>
</a>
</g>
<g id="a_node2_9"><a xlink:href="/idmef_parser/IODEF/Contact.html" xlink:title="The name of the contact. &#160;The contact may either be an organization or a person. &#160;The type attribute disambiguates the semantics.">
<polygon fill="#ccff66" stroke="none" points="278,-289 278,-310 486,-310 486,-289 278,-289"/>
<polygon fill="none" stroke="black" points="278,-289 278,-310 486,-310 486,-289 278,-289"/>
<text text-anchor="start" x="281" y="-295.8" font-family="Times,serif" font-size="14.00">[ML_STRING] ContactName (0..1) </text>
</a>
</g>
<g id="a_node2_10"><a xlink:href="/idmef_parser/IODEF/Contact.html" xlink:title="A free&#45;form description of this contact. &#160;In the case of a person, this is often the organizational title of the individual.">
<polygon fill="#ccff66" stroke="none" points="278,-268 278,-289 486,-289 486,-268 278,-268"/>
<polygon fill="none" stroke="black" points="278,-268 278,-289 486,-289 486,-268 278,-268"/>
<text text-anchor="start" x="287" y="-274.8" font-family="Times,serif" font-size="14.00">[ML_STRING] Description (0..*) </text>
</a>
</g>
<g id="a_node2_11"><a xlink:href="/idmef_parser/IODEF/Contact.html" xlink:title="The telephone number of the contact.">
<polygon fill="#ccff66" stroke="none" points="278,-247 278,-268 486,-268 486,-247 278,-247"/>
<polygon fill="none" stroke="black" points="278,-247 278,-268 486,-268 486,-247 278,-247"/>
<text text-anchor="start" x="328" y="-253.8" font-family="Times,serif" font-size="14.00">[] Telephone (0..*) </text>
</a>
</g>
<g id="a_node2_12"><a xlink:href="/idmef_parser/IODEF/Contact.html" xlink:title="The facsimile telephone number of the contact.">
<polygon fill="#ccff66" stroke="none" points="278,-226 278,-247 486,-247 486,-226 278,-226"/>
<polygon fill="none" stroke="black" points="278,-226 278,-247 486,-247 486,-226 278,-226"/>
<text text-anchor="start" x="346.5" y="-232.8" font-family="Times,serif" font-size="14.00">[] Fax (0..1) </text>
</a>
</g>
<g id="a_node2_13"><a xlink:href="/idmef_parser/IODEF/Contact.html" xlink:title="The timezone in which the contact resides formatted according to Section 2.9.">
<polygon fill="#ccff66" stroke="none" points="278,-205 278,-226 486,-226 486,-205 278,-205"/>
<polygon fill="none" stroke="black" points="278,-205 278,-226 486,-226 486,-205 278,-205"/>
<text text-anchor="start" x="294.5" y="-211.8" font-family="Times,serif" font-size="14.00">[TIMEZONE] Timezone (0..1) </text>
</a>
</g>
<g id="a_node2_14"><a xlink:href="/idmef_parser/IODEF/Contact.html" xlink:title="Indicates the role the contact fulfills. &#160;This attribute is defined as an enumerated list:">
<polygon fill="#ccff66" stroke="none" points="278,-184 278,-205 486,-205 486,-184 278,-184"/>
<polygon fill="none" stroke="black" points="278,-184 278,-205 486,-205 486,-184 278,-184"/>
<text text-anchor="start" x="311.5" y="-190.8" font-family="Times,serif" font-size="14.00">[ENUM] role (Required) </text>
</a>
</g>
<g id="a_node2_15"><a xlink:href="/idmef_parser/IODEF/Contact.html" xlink:title="A means by which to extend the role attribute. See Section 5.1.">
<polygon fill="#ccff66" stroke="none" points="278,-163 278,-184 486,-184 486,-163 278,-163"/>
<polygon fill="none" stroke="black" points="278,-163 278,-184 486,-184 486,-163 278,-163"/>
<text text-anchor="start" x="298" y="-169.8" font-family="Times,serif" font-size="14.00">[STRING] ext&#45;role (Optional) </text>
</a>
</g>
<g id="a_node2_16"><a xlink:href="/idmef_parser/IODEF/Contact.html" xlink:title="Indicates the type of contact being described. This attribute is defined as an enumerated list:">
<polygon fill="#ccff66" stroke="none" points="278,-142 278,-163 486,-163 486,-142 278,-142"/>
<polygon fill="none" stroke="black" points="278,-142 278,-163 486,-163 486,-142 278,-142"/>
<text text-anchor="start" x="310.5" y="-148.8" font-family="Times,serif" font-size="14.00">[ENUM] type (Required) </text>
</a>
</g>
<g id="a_node2_17"><a xlink:href="/idmef_parser/IODEF/Contact.html" xlink:title="A means by which to extend the type attribute. See Section 5.1.">
<polygon fill="#ccff66" stroke="none" points="278,-121 278,-142 486,-142 486,-121 278,-121"/>
<polygon fill="none" stroke="black" points="278,-121 278,-142 486,-142 486,-121 278,-121"/>
<text text-anchor="start" x="297" y="-127.8" font-family="Times,serif" font-size="14.00">[STRING] ext&#45;type (Optional) </text>
</a>
</g>
<g id="a_node2_18"><a xlink:href="/idmef_parser/IODEF/Contact.html" xlink:title="This attribute is defined in Section 3.2.">
<polygon fill="#ccff66" stroke="none" points="278,-100 278,-121 486,-121 486,-100 278,-100"/>
<polygon fill="none" stroke="black" points="278,-100 278,-121 486,-121 486,-100 278,-100"/>
<text text-anchor="start" x="296" y="-106.8" font-family="Times,serif" font-size="14.00">[ENUM] restriction (Optional) </text>
</a>
</g>
</g>
<!-- Expectation&#45;&gt;Contact -->
<g id="edge6" class="edge"><title>Expectation&#45;&gt;Contact</title>
<path fill="none" stroke="black" d="M212.152,-216C227.627,-216 243.676,-216 259.448,-216"/>
<polygon fill="black" stroke="black" points="259.764,-219.5 269.764,-216 259.764,-212.5 259.764,-219.5"/>
<text text-anchor="middle" x="241" y="-219.8" font-family="Times,serif" font-size="14.00">0..1</text>
</g>
<!-- Contact&#45;&gt;Contact -->
<g id="edge4" class="edge"><title>Contact&#45;&gt;Contact</title>
<path fill="none" stroke="black" d="M361.14,-335.75C365.476,-346.646 372.43,-353.5 382,-353.5 388.58,-353.5 393.922,-350.261 398.028,-344.695"/>
<polygon fill="black" stroke="black" points="401.187,-346.212 402.86,-335.75 395.028,-342.885 401.187,-346.212"/>
<text text-anchor="middle" x="382" y="-357.3" font-family="Times,serif" font-size="14.00">0..*</text>
</g>
<!-- RegistryHandle -->
<g id="node3" class="node"><title>RegistryHandle</title>
<g id="a_node3_19"><a xlink:href="/idmef_parser/IODEF/RegistryHandle.html" xlink:title="The RegistryHandle class represents a handle into an Internet registry or community&#45;specific database. The handle is specified in the element content and the type attribute specifies the database. ">
<polygon fill="#7a993d" stroke="none" points="560,-355 560,-376 754,-376 754,-355 560,-355"/>
<polygon fill="none" stroke="black" points="560,-355 560,-376 754,-376 754,-355 560,-355"/>
<text text-anchor="start" x="614.5" y="-361.8" font-family="Times,serif" font-size="14.00">RegistryHandle</text>
</a>
</g>
<g id="a_node3_20"><a xlink:href="/idmef_parser/IODEF/RegistryHandle.html" xlink:title="The database to which the handle belongs. &#160;The default value is &#39;local&#39;. &#160;The possible values are:">
<polygon fill="#ccff66" stroke="none" points="560,-334 560,-355 754,-355 754,-334 560,-334"/>
<polygon fill="none" stroke="black" points="560,-334 560,-355 754,-355 754,-334 560,-334"/>
<text text-anchor="start" x="576.5" y="-340.8" font-family="Times,serif" font-size="14.00">[ENUM] registry (Required) </text>
</a>
</g>
<g id="a_node3_21"><a xlink:href="/idmef_parser/IODEF/RegistryHandle.html" xlink:title="A means by which to extend the registry attribute. &#160;See Section 5.1.">
<polygon fill="#ccff66" stroke="none" points="560,-313 560,-334 754,-334 754,-313 560,-313"/>
<polygon fill="none" stroke="black" points="560,-313 560,-334 754,-334 754,-313 560,-313"/>
<text text-anchor="start" x="563" y="-319.8" font-family="Times,serif" font-size="14.00">[STRING] ext&#45;registry (Optional) </text>
</a>
</g>
</g>
<!-- Contact&#45;&gt;RegistryHandle -->
<g id="edge1" class="edge"><title>Contact&#45;&gt;RegistryHandle</title>
<path fill="none" stroke="black" d="M494.31,-273.283C513.448,-282.758 533.22,-292.316 552,-301 555.12,-302.443 558.3,-303.894 561.517,-305.346"/>
<polygon fill="black" stroke="black" points="560.108,-308.55 570.666,-309.434 562.964,-302.159 560.108,-308.55"/>
<text text-anchor="middle" x="523" y="-295.8" font-family="Times,serif" font-size="14.00">0..*</text>
</g>
<!-- PostalAddress -->
<g id="node4" class="node"><title>PostalAddress</title>
<g id="a_node4_22"><a xlink:href="/idmef_parser/IODEF/PostalAddress.html" xlink:title="The PostalAddress class specifies a postal address formatted according to the POSTAL data type (Section 2.11). ">
<polygon fill="#7a993d" stroke="none" points="572,-266 572,-287 743,-287 743,-266 572,-266"/>
<polygon fill="none" stroke="black" points="572,-266 572,-287 743,-287 743,-266 572,-266"/>
<text text-anchor="start" x="618.5" y="-272.8" font-family="Times,serif" font-size="14.00">PostalAddress</text>
</a>
</g>
<g id="a_node4_23"><a xlink:href="/idmef_parser/IODEF/PostalAddress.html" xlink:title="A free&#45;form description of the element content.">
<polygon fill="#ccff66" stroke="none" points="572,-245 572,-266 743,-266 743,-245 572,-245"/>
<polygon fill="none" stroke="black" points="572,-245 572,-266 743,-266 743,-245 572,-245"/>
<text text-anchor="start" x="575" y="-251.8" font-family="Times,serif" font-size="14.00">[ENUM] meaning (Optional) </text>
</a>
</g>
<g id="a_node4_24"><a xlink:href="/idmef_parser/IODEF/PostalAddress.html" xlink:title="A valid language code per RFC 4646 [7] constrained by the definition of &quot;xs:language&quot;. &#160;The interpretation of this code is described in Section 6.">
<polygon fill="#ccff66" stroke="none" points="572,-224 572,-245 743,-245 743,-224 572,-224"/>
<polygon fill="none" stroke="black" points="572,-224 572,-245 743,-245 743,-224 572,-224"/>
<text text-anchor="start" x="586" y="-230.8" font-family="Times,serif" font-size="14.00">[ENUM] lang (Required) </text>
</a>
</g>
</g>
<!-- Contact&#45;&gt;PostalAddress -->
<g id="edge2" class="edge"><title>Contact&#45;&gt;PostalAddress</title>
<path fill="none" stroke="black" d="M494.04,-232.27C513.65,-235.143 533.987,-238.123 553.354,-240.96"/>
<polygon fill="black" stroke="black" points="552.982,-244.443 563.384,-242.43 553.997,-237.517 552.982,-244.443"/>
<text text-anchor="middle" x="523" y="-240.8" font-family="Times,serif" font-size="14.00">0..1</text>
</g>
<!-- Email -->
<g id="node5" class="node"><title>Email</title>
<g id="a_node5_25"><a xlink:href="/idmef_parser/IODEF/Email.html" xlink:title="The Email class specifies an email address formatted according to EMAIL data type (Section 2.14). ">
<polygon fill="#7a993d" stroke="none" points="572,-177 572,-198 743,-198 743,-177 572,-177"/>
<polygon fill="none" stroke="black" points="572,-177 572,-198 743,-198 743,-177 572,-177"/>
<text text-anchor="start" x="640.5" y="-183.8" font-family="Times,serif" font-size="14.00">Email</text>
</a>
</g>
<g id="a_node5_26"><a xlink:href="/idmef_parser/IODEF/Email.html" xlink:title="A free&#45;form description of the element content (e.g., hours of coverage for a given number).">
<polygon fill="#ccff66" stroke="none" points="572,-156 572,-177 743,-177 743,-156 572,-156"/>
<polygon fill="none" stroke="black" points="572,-156 572,-177 743,-177 743,-156 572,-156"/>
<text text-anchor="start" x="575" y="-162.8" font-family="Times,serif" font-size="14.00">[ENUM] meaning (Optional) </text>
</a>
</g>
</g>
<!-- Contact&#45;&gt;Email -->
<g id="edge3" class="edge"><title>Contact&#45;&gt;Email</title>
<path fill="none" stroke="black" d="M494.04,-200.137C513.65,-197.336 533.987,-194.43 553.354,-191.664"/>
<polygon fill="black" stroke="black" points="553.98,-195.11 563.384,-190.231 552.99,-188.18 553.98,-195.11"/>
<text text-anchor="middle" x="523" y="-199.8" font-family="Times,serif" font-size="14.00">0..*</text>
</g>
<!-- AdditionalData -->
<g id="node6" class="node"><title>AdditionalData</title>
<g id="a_node6_27"><a xlink:href="/idmef_parser/IODEF/AdditionalData.html" xlink:title="The AdditionalData class serves as an extension mechanism for information not otherwise represented in the data model. For relatively simple information, atomic data types (e.g., integers, strings) are provided with a mechanism to annotate their meaning. The class can also be used to extend the data model (and the associated Schema) to support proprietary extensions by encapsulating entire XML documents conforming to another Schema (e.g., IDMEF). A detailed discussion for extending the data model and the schema can be found in Section 5. ">
<polygon fill="#997a3d" stroke="none" points="566,-109 566,-130 749,-130 749,-109 566,-109"/>
<polygon fill="none" stroke="black" points="566,-109 566,-130 749,-130 749,-109 566,-109"/>
<text text-anchor="start" x="615.5" y="-115.8" font-family="Times,serif" font-size="14.00">AdditionalData</text>
</a>
</g>
<g id="a_node6_28"><a xlink:href="/idmef_parser/IODEF/AdditionalData.html" xlink:title="The data type of the element content. &#160;The permitted values for this attribute are shown below. &#160;The default value is &quot;string&quot;.">
<polygon fill="#ffcc66" stroke="none" points="566,-88 566,-109 749,-109 749,-88 566,-88"/>
<polygon fill="none" stroke="black" points="566,-88 566,-109 749,-109 749,-88 566,-88"/>
<text text-anchor="start" x="582.5" y="-94.8" font-family="Times,serif" font-size="14.00">[ENUM] dtype (Required) </text>
</a>
</g>
<g id="a_node6_29"><a xlink:href="/idmef_parser/IODEF/AdditionalData.html" xlink:title="A means by which to extend the dtype attribute. &#160;See Section 5.1.">
<polygon fill="#ffcc66" stroke="none" points="566,-67 566,-88 749,-88 749,-67 566,-67"/>
<polygon fill="none" stroke="black" points="566,-67 566,-88 749,-88 749,-67 566,-67"/>
<text text-anchor="start" x="569" y="-73.8" font-family="Times,serif" font-size="14.00">[STRING] ext&#45;dtype (Optional) </text>
</a>
</g>
<g id="a_node6_30"><a xlink:href="/idmef_parser/IODEF/AdditionalData.html" xlink:title="A free&#45;form description of the element content.">
<polygon fill="#ffcc66" stroke="none" points="566,-46 566,-67 749,-67 749,-46 566,-46"/>
<polygon fill="none" stroke="black" points="566,-46 566,-67 749,-67 749,-46 566,-46"/>
<text text-anchor="start" x="571" y="-52.8" font-family="Times,serif" font-size="14.00">[STRING] meaning (Optional) </text>
</a>
</g>
<g id="a_node6_31"><a xlink:href="/idmef_parser/IODEF/AdditionalData.html" xlink:title="An identifier referencing the format and semantics of the element content.">
<polygon fill="#ffcc66" stroke="none" points="566,-25 566,-46 749,-46 749,-25 566,-25"/>
<polygon fill="none" stroke="black" points="566,-25 566,-46 749,-46 749,-25 566,-25"/>
<text text-anchor="start" x="571" y="-31.8" font-family="Times,serif" font-size="14.00">[STRING] formatid (Optional) </text>
</a>
</g>
<g id="a_node6_32"><a xlink:href="/idmef_parser/IODEF/AdditionalData.html" xlink:title="This attribute has been defined in Section 3.2.">
<polygon fill="#ffcc66" stroke="none" points="566,-4 566,-25 749,-25 749,-4 566,-4"/>
<polygon fill="none" stroke="black" points="566,-4 566,-25 749,-25 749,-4 566,-4"/>
<text text-anchor="start" x="571.5" y="-10.8" font-family="Times,serif" font-size="14.00">[ENUM] restriction (Optional) </text>
</a>
</g>
</g>
<!-- Contact&#45;&gt;AdditionalData -->
<g id="edge5" class="edge"><title>Contact&#45;&gt;AdditionalData</title>
<path fill="none" stroke="black" d="M494.04,-155.396C511.89,-145.653 530.343,-135.582 548.118,-125.881"/>
<polygon fill="black" stroke="black" points="550.243,-128.708 557.344,-120.845 546.89,-122.564 550.243,-128.708"/>
<text text-anchor="middle" x="523" y="-145.8" font-family="Times,serif" font-size="14.00">0..*</text>
</g>
</g>
</svg>
