<?xml version="1.0" encoding="UTF-8" standalone="no"?>
<!DOCTYPE svg PUBLIC "-//W3C//DTD SVG 1.1//EN"
 "http://www.w3.org/Graphics/SVG/1.1/DTD/svg11.dtd">
<!-- Generated by graphviz version 2.26.3 (20100126.1600)
 -->
<!-- Title: Flow Pages: 1 -->
<svg width="1028pt" height="830pt"
 viewBox="0.00 0.00 1028.00 830.00" xmlns="http://www.w3.org/2000/svg" xmlns:xlink="http://www.w3.org/1999/xlink">
<g id="graph1" class="graph" transform="scale(1 1) rotate(0) translate(4 826)">
<title>Flow</title>
<polygon fill="white" stroke="white" points="-4,5 -4,-826 1025,-826 1025,5 -4,5"/>
<!-- Flow -->
<g id="node1" class="node"><title>Flow</title>
<a xlink:href="#" xlink:title="The Flow class groups related the source and target hosts. ">
<polygon fill="#182f5f" stroke="#182f5f" points="9,-415 9,-436 50,-436 50,-415 9,-415"/>
<polygon fill="none" stroke="black" points="9,-415 9,-436 50,-436 50,-415 9,-415"/>
<text text-anchor="start" x="12.5" y="-422.233" font-family="Times Roman,serif" font-size="14.00">Flow</text>
</a>
</g>
<!-- System -->
<g id="node2" class="node"><title>System</title>
<a xlink:href="#" xlink:title="The System class describes a system or network involved in an event. The systems or networks represented by this class are categorized according to the role they played in the incident through the category attribute. The value of this category attribute dictates the semantics of the aggregated classes in the System class. If the category attribute has a value of &quot;source&quot;, then the aggregated classes denote the machine and service from which the activity is originating. With a category attribute value of &quot;target&quot; or &quot;intermediary&quot;, then the machine or service is the one targeted in the activity. A value of &quot;sensor&quot; dictates that this System was part of an instrumentation to monitor the network. ">
<polygon fill="#182f5f" stroke="#182f5f" points="128,-475 128,-496 370,-496 370,-475 128,-475"/>
<polygon fill="none" stroke="black" points="128,-475 128,-496 370,-496 370,-475 128,-475"/>
<text text-anchor="start" x="223" y="-482.233" font-family="Times Roman,serif" font-size="14.00">System</text>
</a>
<a xlink:href="#" xlink:title="A free&#45;form text description of the System.">
<polygon fill="#284f9f" stroke="#284f9f" points="128,-455 128,-475 370,-475 370,-455 128,-455"/>
<polygon fill="none" stroke="black" points="128,-455 128,-475 370,-475 370,-455 128,-455"/>
<text text-anchor="start" x="139" y="-461.733" font-family="Times Roman,serif" font-size="14.00">[ML_STRING] Description (0..*) </text>
</a>
<a xlink:href="#" xlink:title="This attribute is defined in Section 3.2.">
<polygon fill="#284f9f" stroke="#284f9f" points="128,-435 128,-455 370,-455 370,-435 128,-435"/>
<polygon fill="none" stroke="black" points="128,-435 128,-455 370,-455 370,-435 128,-435"/>
<text text-anchor="start" x="146" y="-441.733" font-family="Times Roman,serif" font-size="14.00">[ENUM] restriction (Optional) </text>
</a>
<a xlink:href="#" xlink:title="Classifies the role the host or network played in the incident. &#160;The possible values are:">
<polygon fill="#284f9f" stroke="#284f9f" points="128,-415 128,-435 370,-435 370,-415 128,-415"/>
<polygon fill="none" stroke="black" points="128,-415 128,-435 370,-435 370,-415 128,-415"/>
<text text-anchor="start" x="150" y="-421.733" font-family="Times Roman,serif" font-size="14.00">[ENUM] category (Required) </text>
</a>
<a xlink:href="#" xlink:title="A means by which to extend the category attribute. &#160;See Section 5.1.">
<polygon fill="#284f9f" stroke="#284f9f" points="128,-395 128,-415 370,-415 370,-395 128,-395"/>
<polygon fill="none" stroke="black" points="128,-395 128,-415 370,-415 370,-395 128,-395"/>
<text text-anchor="start" x="131.5" y="-401.733" font-family="Times Roman,serif" font-size="14.00">[STRING] ext&#45;category (Optional) </text>
</a>
<a xlink:href="#" xlink:title="Specifies the interface on which the event(s) on this System originated. &#160;If the Node class specifies a network rather than a host, this attribute has no meaning.">
<polygon fill="#284f9f" stroke="#284f9f" points="128,-375 128,-395 370,-395 370,-375 128,-375"/>
<polygon fill="none" stroke="black" points="128,-375 128,-395 370,-395 370,-375 128,-375"/>
<text text-anchor="start" x="145" y="-381.733" font-family="Times Roman,serif" font-size="14.00">[STRING] interface (Optional) </text>
</a>
<a xlink:href="#" xlink:title="An indication of confidence in whether this System was the true target or attacking host. &#160;The permitted values for this attribute are shown below. &#160;The default value is &quot;unknown&quot;.">
<polygon fill="#284f9f" stroke="#284f9f" points="128,-355 128,-375 370,-375 370,-355 128,-355"/>
<polygon fill="none" stroke="black" points="128,-355 128,-375 370,-375 370,-355 128,-355"/>
<text text-anchor="start" x="155" y="-361.733" font-family="Times Roman,serif" font-size="14.00">[ENUM] spoofed (Optional) </text>
</a>
</g>
<!-- Flow&#45;&gt;System -->
<g id="edge20" class="edge"><title>Flow&#45;&gt;System</title>
<path fill="none" stroke="black" d="M57.7612,-426C71.9098,-426 90.1098,-426 109.642,-426"/>
<polygon fill="black" stroke="black" points="109.643,-429.5 119.643,-426 109.643,-422.5 109.643,-429.5"/>
<text text-anchor="middle" x="89" y="-430.4" font-family="Times Roman,serif" font-size="14.00">1..*</text>
</g>
<!-- Node -->
<g id="node3" class="node"><title>Node</title>
<a xlink:href="#" xlink:title="The Node class names a system (e.g., PC, router) or network. ">
<polygon fill="#182f5f" stroke="#182f5f" points="459,-653 459,-674 683,-674 683,-653 459,-653"/>
<polygon fill="none" stroke="black" points="459,-653 459,-674 683,-674 683,-653 459,-653"/>
<text text-anchor="start" x="553" y="-660.233" font-family="Times Roman,serif" font-size="14.00">Node</text>
</a>
<a xlink:href="#" xlink:title="The name of the Node (e.g., fully qualified domain name). &#160;This information MUST be provided if no Address information is given.">
<polygon fill="#284f9f" stroke="#284f9f" points="459,-633 459,-653 683,-653 683,-633 459,-633"/>
<polygon fill="none" stroke="black" points="459,-633 459,-653 683,-653 683,-633 459,-633"/>
<text text-anchor="start" x="462.5" y="-639.733" font-family="Times Roman,serif" font-size="14.00">[ML_STRING] NodeName (0..*) </text>
</a>
<a xlink:href="#" xlink:title="A free&#45;from description of the physical location of the equipment.">
<polygon fill="#284f9f" stroke="#284f9f" points="459,-613 459,-633 683,-633 683,-613 459,-613"/>
<polygon fill="none" stroke="black" points="459,-613 459,-633 683,-633 683,-613 459,-613"/>
<text text-anchor="start" x="470" y="-619.733" font-family="Times Roman,serif" font-size="14.00">[ML_STRING] Location (0..1) </text>
</a>
<a xlink:href="#" xlink:title="A timestamp of when the resolution between the name and address was performed. &#160;This information SHOULD be provided if both an Address and NodeName are specified.">
<polygon fill="#284f9f" stroke="#284f9f" points="459,-593 459,-613 683,-613 683,-593 459,-593"/>
<polygon fill="none" stroke="black" points="459,-593 459,-613 683,-613 683,-593 459,-593"/>
<text text-anchor="start" x="506.5" y="-599.733" font-family="Times Roman,serif" font-size="14.00">[] DateTime (0..1) </text>
</a>
</g>
<!-- System&#45;&gt;Node -->
<g id="edge8" class="edge"><title>System&#45;&gt;Node</title>
<path fill="none" stroke="black" d="M329.328,-500.023C350.237,-517.505 373.292,-535.312 396,-550 415.561,-562.652 437.317,-574.596 458.657,-585.291"/>
<polygon fill="black" stroke="black" points="457.255,-588.502 467.77,-589.797 460.357,-582.227 457.255,-588.502"/>
<text text-anchor="middle" x="410" y="-570.4" font-family="Times Roman,serif" font-size="14.00">1..1</text>
</g>
<!-- Counter -->
<g id="node8" class="node"><title>Counter</title>
<a xlink:href="#" xlink:title="The Counter class summarize multiple occurrences of some event, or conveys counts or rates on various features (e.g., packets, sessions, events). ">
<polygon fill="#993016" stroke="#993016" points="771,-565 771,-586 1012,-586 1012,-565 771,-565"/>
<polygon fill="none" stroke="black" points="771,-565 771,-586 1012,-586 1012,-565 771,-565"/>
<text text-anchor="start" x="863" y="-572.233" font-family="Times Roman,serif" font-size="14.00">Counter</text>
</a>
<a xlink:href="#" xlink:title="Specifies the units of the element content.">
<polygon fill="#ff5024" stroke="#ff5024" points="771,-545 771,-565 1012,-565 1012,-545 771,-545"/>
<polygon fill="none" stroke="black" points="771,-545 771,-565 1012,-565 1012,-545 771,-545"/>
<text text-anchor="start" x="807" y="-551.733" font-family="Times Roman,serif" font-size="14.00">[ENUM] type (Required) </text>
</a>
<a xlink:href="#" xlink:title="A means by which to extend the type attribute. See Section 5.1.">
<polygon fill="#ff5024" stroke="#ff5024" points="771,-525 771,-545 1012,-545 1012,-525 771,-525"/>
<polygon fill="none" stroke="black" points="771,-525 771,-545 1012,-545 1012,-525 771,-525"/>
<text text-anchor="start" x="788.5" y="-531.733" font-family="Times Roman,serif" font-size="14.00">[STRING] ext&#45;type (Optional) </text>
</a>
<a xlink:href="#" xlink:title="If present, the Counter class represents a rate rather than a count over the entire event. &#160;In that case, this attribute specifies the denominator of the rate (where the type attribute specified the nominator). &#160;The possible values of this attribute are defined in Section 3.10.2">
<polygon fill="#ff5024" stroke="#ff5024" points="771,-505 771,-525 1012,-525 1012,-505 771,-505"/>
<polygon fill="none" stroke="black" points="771,-505 771,-525 1012,-525 1012,-505 771,-505"/>
<text text-anchor="start" x="794.5" y="-511.733" font-family="Times Roman,serif" font-size="14.00">[ENUM] duration (Optional) </text>
</a>
<a xlink:href="#" xlink:title="A means by which to extend the duration attribute. &#160;See Section 5.1.">
<polygon fill="#ff5024" stroke="#ff5024" points="771,-485 771,-505 1012,-505 1012,-485 771,-485"/>
<polygon fill="none" stroke="black" points="771,-485 771,-505 1012,-505 1012,-485 771,-485"/>
<text text-anchor="start" x="774.5" y="-491.733" font-family="Times Roman,serif" font-size="14.00">[STRING] ext&#45;duration (Optional) </text>
</a>
</g>
<!-- System&#45;&gt;Counter -->
<g id="edge16" class="edge"><title>System&#45;&gt;Counter</title>
<path fill="none" stroke="black" d="M378.247,-488.772C399.159,-496.82 420.885,-503.987 442,-509 543.876,-533.187 662.207,-539.445 751.808,-539.919"/>
<polygon fill="black" stroke="black" points="752.027,-543.419 762.037,-539.949 752.047,-536.419 752.027,-543.419"/>
<text text-anchor="middle" x="571" y="-542.4" font-family="Times Roman,serif" font-size="14.00">0..*</text>
</g>
<!-- Service -->
<g id="node11" class="node"><title>Service</title>
<a xlink:href="#" xlink:title="The Service class describes a network service of a host or network. The service is identified by specific port or list of ports, along with the application listening on that port. ">
<polygon fill="#182f5f" stroke="#182f5f" points="451,-475 451,-496 692,-496 692,-475 451,-475"/>
<polygon fill="none" stroke="black" points="451,-475 451,-496 692,-496 692,-475 451,-475"/>
<text text-anchor="start" x="546" y="-482.233" font-family="Times Roman,serif" font-size="14.00">Service</text>
</a>
<a xlink:href="#" xlink:title="A port number.">
<polygon fill="#284f9f" stroke="#284f9f" points="451,-455 451,-475 692,-475 692,-455 451,-455"/>
<polygon fill="none" stroke="black" points="451,-455 451,-475 692,-475 692,-455 451,-455"/>
<text text-anchor="start" x="494.5" y="-461.733" font-family="Times Roman,serif" font-size="14.00">[INTEGER] Port (0..1) </text>
</a>
<a xlink:href="#" xlink:title="A list of port numbers formatted according to Section 2.10.">
<polygon fill="#284f9f" stroke="#284f9f" points="451,-435 451,-455 692,-455 692,-435 451,-435"/>
<polygon fill="none" stroke="black" points="451,-435 451,-455 692,-455 692,-435 451,-435"/>
<text text-anchor="start" x="481.5" y="-441.733" font-family="Times Roman,serif" font-size="14.00">[PORTLIST] Portlist (0..1) </text>
</a>
<a xlink:href="#" xlink:title="A layer&#45;4 protocol&#45;specific code field (e.g., ICMP code field).">
<polygon fill="#284f9f" stroke="#284f9f" points="451,-415 451,-435 692,-435 692,-415 451,-415"/>
<polygon fill="none" stroke="black" points="451,-415 451,-435 692,-435 692,-415 451,-415"/>
<text text-anchor="start" x="473" y="-421.733" font-family="Times Roman,serif" font-size="14.00">[INTEGER] ProtoCode (0..1) </text>
</a>
<a xlink:href="#" xlink:title="A layer&#45;4 protocol specific type field (e.g., ICMP type field).">
<polygon fill="#284f9f" stroke="#284f9f" points="451,-395 451,-415 692,-415 692,-395 451,-395"/>
<polygon fill="none" stroke="black" points="451,-395 451,-415 692,-415 692,-395 451,-395"/>
<text text-anchor="start" x="474.5" y="-401.733" font-family="Times Roman,serif" font-size="14.00">[INTEGER] ProtoType (0..1) </text>
</a>
<a xlink:href="#" xlink:title="A layer&#45;4 protocol specific flag field (e.g., TCP flag field).">
<polygon fill="#284f9f" stroke="#284f9f" points="451,-375 451,-395 692,-395 692,-375 451,-375"/>
<polygon fill="none" stroke="black" points="451,-375 451,-395 692,-395 692,-375 451,-375"/>
<text text-anchor="start" x="472.5" y="-381.733" font-family="Times Roman,serif" font-size="14.00">[INTEGER] ProtoFlags (0..1) </text>
</a>
<a xlink:href="#" xlink:title="The IANA protocol number.">
<polygon fill="#284f9f" stroke="#284f9f" points="451,-355 451,-375 692,-375 692,-355 451,-355"/>
<polygon fill="none" stroke="black" points="451,-355 451,-375 692,-375 692,-355 451,-355"/>
<text text-anchor="start" x="454.5" y="-361.733" font-family="Times Roman,serif" font-size="14.00">[INTEGER] ip_protocol (Required) </text>
</a>
</g>
<!-- System&#45;&gt;Service -->
<g id="edge12" class="edge"><title>System&#45;&gt;Service</title>
<path fill="none" stroke="black" d="M378.114,-426C395.895,-426 414.215,-426 432.162,-426"/>
<polygon fill="black" stroke="black" points="432.381,-429.5 442.381,-426 432.381,-422.5 432.381,-429.5"/>
<text text-anchor="middle" x="410" y="-430.4" font-family="Times Roman,serif" font-size="14.00">0..*</text>
</g>
<!-- OperatingSystem -->
<g id="node15" class="node"><title>OperatingSystem</title>
<a xlink:href="#" xlink:title="The OperatingSystem class describes the operating system running on a System. The definition is identical to the Application class (Section 3.17.1). ">
<polygon fill="#182f5f" stroke="#182f5f" points="468,-309 468,-330 675,-330 675,-309 468,-309"/>
<polygon fill="none" stroke="black" points="468,-309 468,-330 675,-330 675,-309 468,-309"/>
<text text-anchor="start" x="511" y="-316.233" font-family="Times Roman,serif" font-size="14.00">OperatingSystem</text>
</a>
<a xlink:href="#" xlink:title="A URL describing the application.">
<polygon fill="#284f9f" stroke="#284f9f" points="468,-289 468,-309 675,-309 675,-289 468,-289"/>
<polygon fill="none" stroke="black" points="468,-289 468,-309 675,-309 675,-289 468,-289"/>
<text text-anchor="start" x="512" y="-295.733" font-family="Times Roman,serif" font-size="14.00">[URL] URL (0..1) </text>
</a>
<a xlink:href="#" xlink:title="An identifier that can be used to reference this software.">
<polygon fill="#284f9f" stroke="#284f9f" points="468,-269 468,-289 675,-289 675,-269 468,-269"/>
<polygon fill="none" stroke="black" points="468,-269 468,-289 675,-289 675,-269 468,-269"/>
<text text-anchor="start" x="482" y="-275.733" font-family="Times Roman,serif" font-size="14.00">[STRING] swid (Optional) </text>
</a>
<a xlink:href="#" xlink:title="An identifier that can be used to reference a particular configuration of this software.">
<polygon fill="#284f9f" stroke="#284f9f" points="468,-249 468,-269 675,-269 675,-249 468,-249"/>
<polygon fill="none" stroke="black" points="468,-249 468,-269 675,-269 675,-249 468,-249"/>
<text text-anchor="start" x="471.5" y="-255.733" font-family="Times Roman,serif" font-size="14.00">[STRING] configid (Optional) </text>
</a>
<a xlink:href="#" xlink:title="Vendor name of the software.">
<polygon fill="#284f9f" stroke="#284f9f" points="468,-229 468,-249 675,-249 675,-229 468,-229"/>
<polygon fill="none" stroke="black" points="468,-229 468,-249 675,-249 675,-229 468,-229"/>
<text text-anchor="start" x="473.5" y="-235.733" font-family="Times Roman,serif" font-size="14.00">[STRING] vendor (Optional) </text>
</a>
<a xlink:href="#" xlink:title="Family of the software.">
<polygon fill="#284f9f" stroke="#284f9f" points="468,-209 468,-229 675,-229 675,-209 468,-209"/>
<polygon fill="none" stroke="black" points="468,-209 468,-229 675,-229 675,-209 468,-209"/>
<text text-anchor="start" x="477" y="-215.733" font-family="Times Roman,serif" font-size="14.00">[STRING] family (Optional) </text>
</a>
<a xlink:href="#" xlink:title="Name of the software.">
<polygon fill="#284f9f" stroke="#284f9f" points="468,-189 468,-209 675,-209 675,-189 468,-189"/>
<polygon fill="none" stroke="black" points="468,-189 468,-209 675,-209 675,-189 468,-189"/>
<text text-anchor="start" x="478.5" y="-195.733" font-family="Times Roman,serif" font-size="14.00">[STRING] name (Optional) </text>
</a>
<a xlink:href="#" xlink:title="Version of the software.">
<polygon fill="#284f9f" stroke="#284f9f" points="468,-169 468,-189 675,-189 675,-169 468,-169"/>
<polygon fill="none" stroke="black" points="468,-169 468,-189 675,-189 675,-169 468,-169"/>
<text text-anchor="start" x="472.5" y="-175.733" font-family="Times Roman,serif" font-size="14.00">[STRING] version (Optional) </text>
</a>
<a xlink:href="#" xlink:title="Patch or service pack level of the software.">
<polygon fill="#284f9f" stroke="#284f9f" points="468,-149 468,-169 675,-169 675,-149 468,-149"/>
<polygon fill="none" stroke="black" points="468,-149 468,-169 675,-169 675,-149 468,-149"/>
<text text-anchor="start" x="478.5" y="-155.733" font-family="Times Roman,serif" font-size="14.00">[STRING] patch (Optional) </text>
</a>
</g>
<!-- System&#45;&gt;OperatingSystem -->
<g id="edge14" class="edge"><title>System&#45;&gt;OperatingSystem</title>
<path fill="none" stroke="black" d="M377.188,-351.953C401.399,-337.968 426.644,-323.386 450.605,-309.545"/>
<polygon fill="black" stroke="black" points="452.462,-312.515 459.37,-304.482 448.96,-306.453 452.462,-312.515"/>
<text text-anchor="middle" x="410" y="-343.4" font-family="Times Roman,serif" font-size="14.00">0..1</text>
</g>
<!-- AdditionalData -->
<g id="node18" class="node"><title>AdditionalData</title>
<a xlink:href="#" xlink:title="The AdditionalData class serves as an extension mechanism for information not otherwise represented in the data model. For relatively simple information, atomic data types (e.g., integers, strings) are provided with a mechanism to annotate their meaning. The class can also be used to extend the data model (and the associated Schema) to support proprietary extensions by encapsulating entire XML documents conforming to another Schema (e.g., IDMEF). A detailed discussion for extending the data model and the schema can be found in Section 5. ">
<polygon fill="#997a3d" stroke="#997a3d" points="461,-103 461,-124 682,-124 682,-103 461,-103"/>
<polygon fill="none" stroke="black" points="461,-103 461,-124 682,-124 682,-103 461,-103"/>
<text text-anchor="start" x="520" y="-110.233" font-family="Times Roman,serif" font-size="14.00">AdditionalData</text>
</a>
<a xlink:href="#" xlink:title="The data type of the element content. &#160;The permitted values for this attribute are shown below. &#160;The default value is &quot;string&quot;.">
<polygon fill="#ffcc66" stroke="#ffcc66" points="461,-83 461,-103 682,-103 682,-83 461,-83"/>
<polygon fill="none" stroke="black" points="461,-83 461,-103 682,-103 682,-83 461,-83"/>
<text text-anchor="start" x="483" y="-89.7333" font-family="Times Roman,serif" font-size="14.00">[ENUM] dtype (Required) </text>
</a>
<a xlink:href="#" xlink:title="A means by which to extend the dtype attribute. &#160;See Section 5.1.">
<polygon fill="#ffcc66" stroke="#ffcc66" points="461,-63 461,-83 682,-83 682,-63 461,-63"/>
<polygon fill="none" stroke="black" points="461,-63 461,-83 682,-83 682,-63 461,-63"/>
<text text-anchor="start" x="464.5" y="-69.7333" font-family="Times Roman,serif" font-size="14.00">[STRING] ext&#45;dtype (Optional) </text>
</a>
<a xlink:href="#" xlink:title="A free&#45;form description of the element content.">
<polygon fill="#ffcc66" stroke="#ffcc66" points="461,-43 461,-63 682,-63 682,-43 461,-43"/>
<polygon fill="none" stroke="black" points="461,-43 461,-63 682,-63 682,-43 461,-43"/>
<text text-anchor="start" x="468" y="-49.7333" font-family="Times Roman,serif" font-size="14.00">[STRING] meaning (Optional) </text>
</a>
<a xlink:href="#" xlink:title="An identifier referencing the format and semantics of the element content.">
<polygon fill="#ffcc66" stroke="#ffcc66" points="461,-23 461,-43 682,-43 682,-23 461,-23"/>
<polygon fill="none" stroke="black" points="461,-23 461,-43 682,-43 682,-23 461,-23"/>
<text text-anchor="start" x="469" y="-29.7333" font-family="Times Roman,serif" font-size="14.00">[STRING] formatid (Optional) </text>
</a>
<a xlink:href="#" xlink:title="This attribute has been defined in Section 3.2.">
<polygon fill="#ffcc66" stroke="#ffcc66" points="461,-3 461,-23 682,-23 682,-3 461,-3"/>
<polygon fill="none" stroke="black" points="461,-3 461,-23 682,-23 682,-3 461,-3"/>
<text text-anchor="start" x="468.5" y="-9.73333" font-family="Times Roman,serif" font-size="14.00">[ENUM] restriction (Optional) </text>
</a>
</g>
<!-- System&#45;&gt;AdditionalData -->
<g id="edge18" class="edge"><title>System&#45;&gt;AdditionalData</title>
<path fill="none" stroke="black" d="M285.743,-351.942C319.728,-288.998 375.025,-199.203 442,-137 442.825,-136.234 443.659,-135.473 444.503,-134.716"/>
<polygon fill="black" stroke="black" points="446.985,-137.199 452.318,-128.043 442.44,-131.875 446.985,-137.199"/>
<text text-anchor="middle" x="410" y="-190.4" font-family="Times Roman,serif" font-size="14.00">0..*</text>
</g>
<!-- Address -->
<g id="node4" class="node"><title>Address</title>
<a xlink:href="#" xlink:title="The Address class represents a hardware (layer&#45;2), network (layer&#45;3), or application (layer&#45;7) address. ">
<polygon fill="#182f5f" stroke="#182f5f" points="770,-797 770,-818 1012,-818 1012,-797 770,-797"/>
<polygon fill="none" stroke="black" points="770,-797 770,-818 1012,-818 1012,-797 770,-797"/>
<text text-anchor="start" x="863.5" y="-804.233" font-family="Times Roman,serif" font-size="14.00">Address</text>
</a>
<a xlink:href="#" xlink:title="The type of address represented. &#160;The permitted values for this attribute are shown below. &#160;The default value is &quot;ipv4&#45;addr&quot;.">
<polygon fill="#284f9f" stroke="#284f9f" points="770,-777 770,-797 1012,-797 1012,-777 770,-777"/>
<polygon fill="none" stroke="black" points="770,-777 770,-797 1012,-797 1012,-777 770,-777"/>
<text text-anchor="start" x="792" y="-783.733" font-family="Times Roman,serif" font-size="14.00">[ENUM] category (Required) </text>
</a>
<a xlink:href="#" xlink:title="A means by which to extend the category attribute. &#160;See Section 5.1.">
<polygon fill="#284f9f" stroke="#284f9f" points="770,-757 770,-777 1012,-777 1012,-757 770,-757"/>
<polygon fill="none" stroke="black" points="770,-757 770,-777 1012,-777 1012,-757 770,-757"/>
<text text-anchor="start" x="773.5" y="-763.733" font-family="Times Roman,serif" font-size="14.00">[STRING] ext&#45;category (Optional) </text>
</a>
<a xlink:href="#" xlink:title="The name of the Virtual LAN to which the address belongs.">
<polygon fill="#284f9f" stroke="#284f9f" points="770,-737 770,-757 1012,-757 1012,-737 770,-737"/>
<polygon fill="none" stroke="black" points="770,-737 770,-757 1012,-757 1012,-737 770,-737"/>
<text text-anchor="start" x="781" y="-743.733" font-family="Times Roman,serif" font-size="14.00">[STRING] vlan&#45;name (Optional) </text>
</a>
<a xlink:href="#" xlink:title="The number of the Virtual LAN to which the address belongs.">
<polygon fill="#284f9f" stroke="#284f9f" points="770,-717 770,-737 1012,-737 1012,-717 770,-717"/>
<polygon fill="none" stroke="black" points="770,-717 770,-737 1012,-737 1012,-717 770,-717"/>
<text text-anchor="start" x="784.5" y="-723.733" font-family="Times Roman,serif" font-size="14.00">[STRING] vlan&#45;num (Optional) </text>
</a>
</g>
<!-- Node&#45;&gt;Address -->
<g id="edge2" class="edge"><title>Node&#45;&gt;Address</title>
<path fill="none" stroke="black" d="M676.223,-678.062C700.64,-688.287 726.993,-699.322 752.594,-710.043"/>
<polygon fill="black" stroke="black" points="751.411,-713.342 761.987,-713.976 754.115,-706.885 751.411,-713.342"/>
<text text-anchor="middle" x="731" y="-709.4" font-family="Times Roman,serif" font-size="14.00">0..*</text>
</g>
<!-- NodeRole -->
<g id="node6" class="node"><title>NodeRole</title>
<a xlink:href="#" xlink:title="The NodeRole class describes the intended function performed by a particular host. ">
<polygon fill="#182f5f" stroke="#182f5f" points="770,-671 770,-692 1012,-692 1012,-671 770,-671"/>
<polygon fill="none" stroke="black" points="770,-671 770,-692 1012,-692 1012,-671 770,-671"/>
<text text-anchor="start" x="858.5" y="-678.233" font-family="Times Roman,serif" font-size="14.00">NodeRole</text>
</a>
<a xlink:href="#" xlink:title="Functionality provided by a node.">
<polygon fill="#284f9f" stroke="#284f9f" points="770,-651 770,-671 1012,-671 1012,-651 770,-651"/>
<polygon fill="none" stroke="black" points="770,-651 770,-671 1012,-671 1012,-651 770,-651"/>
<text text-anchor="start" x="792" y="-657.733" font-family="Times Roman,serif" font-size="14.00">[ENUM] category (Required) </text>
</a>
<a xlink:href="#" xlink:title="A means by which to extend the category attribute. &#160;See Section 5.1.">
<polygon fill="#284f9f" stroke="#284f9f" points="770,-631 770,-651 1012,-651 1012,-631 770,-631"/>
<polygon fill="none" stroke="black" points="770,-631 770,-651 1012,-651 1012,-631 770,-631"/>
<text text-anchor="start" x="773.5" y="-637.733" font-family="Times Roman,serif" font-size="14.00">[STRING] ext&#45;category (Optional) </text>
</a>
<a xlink:href="#" xlink:title="A valid language code per RFC 4646 [7] constrained by the definition of &quot;xs:language&quot;. &#160;The interpretation of this code is described in Section 6.">
<polygon fill="#284f9f" stroke="#284f9f" points="770,-611 770,-631 1012,-631 1012,-611 770,-611"/>
<polygon fill="none" stroke="black" points="770,-611 770,-631 1012,-631 1012,-611 770,-611"/>
<text text-anchor="start" x="807.5" y="-617.733" font-family="Times Roman,serif" font-size="14.00">[ENUM] lang (Required) </text>
</a>
</g>
<!-- Node&#45;&gt;NodeRole -->
<g id="edge4" class="edge"><title>Node&#45;&gt;NodeRole</title>
<path fill="none" stroke="black" d="M691.067,-640.754C710.865,-641.867 731.536,-643.03 751.756,-644.168"/>
<polygon fill="black" stroke="black" points="751.779,-647.674 761.96,-644.741 752.172,-640.685 751.779,-647.674"/>
<text text-anchor="middle" x="731" y="-647.4" font-family="Times Roman,serif" font-size="14.00">0..*</text>
</g>
<!-- Node&#45;&gt;Counter -->
<g id="edge6" class="edge"><title>Node&#45;&gt;Counter</title>
<path fill="none" stroke="black" d="M691.067,-597.23C711.199,-591.064 732.233,-584.622 752.779,-578.33"/>
<polygon fill="black" stroke="black" points="753.961,-581.629 762.498,-575.354 751.911,-574.936 753.961,-581.629"/>
<text text-anchor="middle" x="731" y="-591.4" font-family="Times Roman,serif" font-size="14.00">0..*</text>
</g>
<!-- Application -->
<g id="node12" class="node"><title>Application</title>
<a xlink:href="#" xlink:title="The Application class describes an application running on a System providing a Service. ">
<polygon fill="#182f5f" stroke="#182f5f" points="788,-439 788,-460 995,-460 995,-439 788,-439"/>
<polygon fill="none" stroke="black" points="788,-439 788,-460 995,-460 995,-439 788,-439"/>
<text text-anchor="start" x="853.5" y="-446.233" font-family="Times Roman,serif" font-size="14.00">Application</text>
</a>
<a xlink:href="#" xlink:title="A URL describing the application.">
<polygon fill="#284f9f" stroke="#284f9f" points="788,-419 788,-439 995,-439 995,-419 788,-419"/>
<polygon fill="none" stroke="black" points="788,-419 788,-439 995,-439 995,-419 788,-419"/>
<text text-anchor="start" x="832" y="-425.733" font-family="Times Roman,serif" font-size="14.00">[URL] URL (0..1) </text>
</a>
<a xlink:href="#" xlink:title="An identifier that can be used to reference this software.">
<polygon fill="#284f9f" stroke="#284f9f" points="788,-399 788,-419 995,-419 995,-399 788,-399"/>
<polygon fill="none" stroke="black" points="788,-399 788,-419 995,-419 995,-399 788,-399"/>
<text text-anchor="start" x="802" y="-405.733" font-family="Times Roman,serif" font-size="14.00">[STRING] swid (Optional) </text>
</a>
<a xlink:href="#" xlink:title="An identifier that can be used to reference a particular configuration of this software.">
<polygon fill="#284f9f" stroke="#284f9f" points="788,-379 788,-399 995,-399 995,-379 788,-379"/>
<polygon fill="none" stroke="black" points="788,-379 788,-399 995,-399 995,-379 788,-379"/>
<text text-anchor="start" x="791.5" y="-385.733" font-family="Times Roman,serif" font-size="14.00">[STRING] configid (Optional) </text>
</a>
<a xlink:href="#" xlink:title="Vendor name of the software.">
<polygon fill="#284f9f" stroke="#284f9f" points="788,-359 788,-379 995,-379 995,-359 788,-359"/>
<polygon fill="none" stroke="black" points="788,-359 788,-379 995,-379 995,-359 788,-359"/>
<text text-anchor="start" x="793.5" y="-365.733" font-family="Times Roman,serif" font-size="14.00">[STRING] vendor (Optional) </text>
</a>
<a xlink:href="#" xlink:title="Family of the software.">
<polygon fill="#284f9f" stroke="#284f9f" points="788,-339 788,-359 995,-359 995,-339 788,-339"/>
<polygon fill="none" stroke="black" points="788,-339 788,-359 995,-359 995,-339 788,-339"/>
<text text-anchor="start" x="797" y="-345.733" font-family="Times Roman,serif" font-size="14.00">[STRING] family (Optional) </text>
</a>
<a xlink:href="#" xlink:title="Name of the software.">
<polygon fill="#284f9f" stroke="#284f9f" points="788,-319 788,-339 995,-339 995,-319 788,-319"/>
<polygon fill="none" stroke="black" points="788,-319 788,-339 995,-339 995,-319 788,-319"/>
<text text-anchor="start" x="798.5" y="-325.733" font-family="Times Roman,serif" font-size="14.00">[STRING] name (Optional) </text>
</a>
<a xlink:href="#" xlink:title="Version of the software.">
<polygon fill="#284f9f" stroke="#284f9f" points="788,-299 788,-319 995,-319 995,-299 788,-299"/>
<polygon fill="none" stroke="black" points="788,-299 788,-319 995,-319 995,-299 788,-299"/>
<text text-anchor="start" x="792.5" y="-305.733" font-family="Times Roman,serif" font-size="14.00">[STRING] version (Optional) </text>
</a>
<a xlink:href="#" xlink:title="Patch or service pack level of the software.">
<polygon fill="#284f9f" stroke="#284f9f" points="788,-279 788,-299 995,-299 995,-279 788,-279"/>
<polygon fill="none" stroke="black" points="788,-279 788,-299 995,-299 995,-279 788,-279"/>
<text text-anchor="start" x="798.5" y="-285.733" font-family="Times Roman,serif" font-size="14.00">[STRING] patch (Optional) </text>
</a>
</g>
<!-- Service&#45;&gt;Application -->
<g id="edge10" class="edge"><title>Service&#45;&gt;Application</title>
<path fill="none" stroke="black" d="M699.773,-403.465C722.768,-399.441 746.659,-395.26 769.443,-391.272"/>
<polygon fill="black" stroke="black" points="770.233,-394.688 779.48,-389.516 769.026,-387.792 770.233,-394.688"/>
<text text-anchor="middle" x="731" y="-404.4" font-family="Times Roman,serif" font-size="14.00">0..*</text>
</g>
</g>
</svg>
