<?xml version="1.0" encoding="UTF-8" standalone="no"?>
<!DOCTYPE svg PUBLIC "-//W3C//DTD SVG 1.1//EN"
 "http://www.w3.org/Graphics/SVG/1.1/DTD/svg11.dtd">
<!-- Generated by graphviz version 2.26.3 (20100126.1600)
 -->
<!-- Title: Flow Pages: 1 -->
<svg width="1028pt" height="678pt"
 viewBox="0.00 0.00 1028.00 678.00" xmlns="http://www.w3.org/2000/svg" xmlns:xlink="http://www.w3.org/1999/xlink">
<g id="graph1" class="graph" transform="scale(1 1) rotate(0) translate(4 674)">
<title>Flow</title>
<polygon fill="white" stroke="white" points="-4,5 -4,-674 1025,-674 1025,5 -4,5"/>
<!-- Flow -->
<g id="node1" class="node"><title>Flow</title>
<a xlink:href="#" xlink:title="The Flow class groups related the source and target hosts. ">
<polygon fill="#cecece" stroke="#cecece" points="9,-263 9,-284 50,-284 50,-263 9,-263"/>
<polygon fill="none" stroke="black" points="9,-263 9,-284 50,-284 50,-263 9,-263"/>
<text text-anchor="start" x="12.5" y="-270.233" font-family="Times Roman,serif" font-size="14.00">Flow</text>
</a>
</g>
<!-- System -->
<g id="node2" class="node"><title>System</title>
<a xlink:href="#" xlink:title="The System class describes a system or network involved in an event. The systems or networks represented by this class are categorized according to the role they played in the incident through the category attribute. The value of this category attribute dictates the semantics of the aggregated classes in the System class. If the category attribute has a value of &quot;source&quot;, then the aggregated classes denote the machine and service from which the activity is originating. With a category attribute value of &quot;target&quot; or &quot;intermediary&quot;, then the machine or service is the one targeted in the activity. A value of &quot;sensor&quot; dictates that this System was part of an instrumentation to monitor the network. ">
<polygon fill="#cecece" stroke="#cecece" points="128,-323 128,-344 370,-344 370,-323 128,-323"/>
<polygon fill="none" stroke="black" points="128,-323 128,-344 370,-344 370,-323 128,-323"/>
<text text-anchor="start" x="223" y="-330.233" font-family="Times Roman,serif" font-size="14.00">System</text>
</a>
<a xlink:href="#" xlink:title="A free&#45;form text description of the System.">
<polygon fill="none" stroke="black" points="128,-303 128,-323 370,-323 370,-303 128,-303"/>
<text text-anchor="start" x="139" y="-309.733" font-family="Times Roman,serif" font-size="14.00">[ML_STRING] Description (0..*) </text>
</a>
<a xlink:href="#" xlink:title="This attribute is defined in Section 3.2.">
<polygon fill="none" stroke="black" points="128,-283 128,-303 370,-303 370,-283 128,-283"/>
<text text-anchor="start" x="146" y="-289.733" font-family="Times Roman,serif" font-size="14.00">[ENUM] restriction (Optional) </text>
</a>
<a xlink:href="#" xlink:title="Classifies the role the host or network played in the incident. &#160;The possible values are:">
<polygon fill="none" stroke="black" points="128,-263 128,-283 370,-283 370,-263 128,-263"/>
<text text-anchor="start" x="150" y="-269.733" font-family="Times Roman,serif" font-size="14.00">[ENUM] category (Required) </text>
</a>
<a xlink:href="#" xlink:title="A means by which to extend the category attribute. &#160;See Section 5.1.">
<polygon fill="none" stroke="black" points="128,-243 128,-263 370,-263 370,-243 128,-243"/>
<text text-anchor="start" x="131.5" y="-249.733" font-family="Times Roman,serif" font-size="14.00">[STRING] ext&#45;category (Optional) </text>
</a>
<a xlink:href="#" xlink:title="Specifies the interface on which the event(s) on this System originated. &#160;If the Node class specifies a network rather than a host, this attribute has no meaning.">
<polygon fill="none" stroke="black" points="128,-223 128,-243 370,-243 370,-223 128,-223"/>
<text text-anchor="start" x="145" y="-229.733" font-family="Times Roman,serif" font-size="14.00">[STRING] interface (Optional) </text>
</a>
<a xlink:href="#" xlink:title="An indication of confidence in whether this System was the true target or attacking host. &#160;The permitted values for this attribute are shown below. &#160;The default value is &quot;unknown&quot;.">
<polygon fill="none" stroke="black" points="128,-203 128,-223 370,-223 370,-203 128,-203"/>
<text text-anchor="start" x="155" y="-209.733" font-family="Times Roman,serif" font-size="14.00">[ENUM] spoofed (Optional) </text>
</a>
</g>
<!-- Flow&#45;&gt;System -->
<g id="edge20" class="edge"><title>Flow&#45;&gt;System</title>
<path fill="none" stroke="black" d="M57.7612,-274C71.9098,-274 90.1098,-274 109.642,-274"/>
<polygon fill="black" stroke="black" points="109.643,-277.5 119.643,-274 109.643,-270.5 109.643,-277.5"/>
<text text-anchor="middle" x="89" y="-278.4" font-family="Times Roman,serif" font-size="14.00">1..*</text>
</g>
<!-- Node -->
<g id="node3" class="node"><title>Node</title>
<a xlink:href="#" xlink:title="The Node class names a system (e.g., PC, router) or network. ">
<polygon fill="#cecece" stroke="#cecece" points="459,-501 459,-522 683,-522 683,-501 459,-501"/>
<polygon fill="none" stroke="black" points="459,-501 459,-522 683,-522 683,-501 459,-501"/>
<text text-anchor="start" x="553" y="-508.233" font-family="Times Roman,serif" font-size="14.00">Node</text>
</a>
<a xlink:href="#" xlink:title="The name of the Node (e.g., fully qualified domain name). &#160;This information MUST be provided if no Address information is given.">
<polygon fill="none" stroke="black" points="459,-481 459,-501 683,-501 683,-481 459,-481"/>
<text text-anchor="start" x="462.5" y="-487.733" font-family="Times Roman,serif" font-size="14.00">[ML_STRING] NodeName (0..*) </text>
</a>
<a xlink:href="#" xlink:title="A free&#45;from description of the physical location of the equipment.">
<polygon fill="none" stroke="black" points="459,-461 459,-481 683,-481 683,-461 459,-461"/>
<text text-anchor="start" x="470" y="-467.733" font-family="Times Roman,serif" font-size="14.00">[ML_STRING] Location (0..1) </text>
</a>
<a xlink:href="#" xlink:title="A timestamp of when the resolution between the name and address was performed. &#160;This information SHOULD be provided if both an Address and NodeName are specified.">
<polygon fill="none" stroke="black" points="459,-441 459,-461 683,-461 683,-441 459,-441"/>
<text text-anchor="start" x="506.5" y="-447.733" font-family="Times Roman,serif" font-size="14.00">[] DateTime (0..1) </text>
</a>
</g>
<!-- System&#45;&gt;Node -->
<g id="edge8" class="edge"><title>System&#45;&gt;Node</title>
<path fill="none" stroke="black" d="M329.328,-348.023C350.237,-365.505 373.292,-383.312 396,-398 415.561,-410.652 437.317,-422.596 458.657,-433.291"/>
<polygon fill="black" stroke="black" points="457.255,-436.502 467.77,-437.797 460.357,-430.227 457.255,-436.502"/>
<text text-anchor="middle" x="410" y="-418.4" font-family="Times Roman,serif" font-size="14.00">1..1</text>
</g>
<!-- Counter -->
<g id="node8" class="node"><title>Counter</title>
<a xlink:href="#" xlink:title="The Counter class summarize multiple occurrences of some event, or conveys counts or rates on various features (e.g., packets, sessions, events). ">
<polygon fill="#cecece" stroke="#cecece" points="771,-413 771,-434 1012,-434 1012,-413 771,-413"/>
<polygon fill="none" stroke="black" points="771,-413 771,-434 1012,-434 1012,-413 771,-413"/>
<text text-anchor="start" x="863" y="-420.233" font-family="Times Roman,serif" font-size="14.00">Counter</text>
</a>
<a xlink:href="#" xlink:title="Specifies the units of the element content.">
<polygon fill="none" stroke="black" points="771,-393 771,-413 1012,-413 1012,-393 771,-393"/>
<text text-anchor="start" x="807" y="-399.733" font-family="Times Roman,serif" font-size="14.00">[ENUM] type (Required) </text>
</a>
<a xlink:href="#" xlink:title="A means by which to extend the type attribute. See Section 5.1.">
<polygon fill="none" stroke="black" points="771,-373 771,-393 1012,-393 1012,-373 771,-373"/>
<text text-anchor="start" x="788.5" y="-379.733" font-family="Times Roman,serif" font-size="14.00">[STRING] ext&#45;type (Optional) </text>
</a>
<a xlink:href="#" xlink:title="If present, the Counter class represents a rate rather than a count over the entire event. &#160;In that case, this attribute specifies the denominator of the rate (where the type attribute specified the nominator). &#160;The possible values of this attribute are defined in Section 3.10.2">
<polygon fill="none" stroke="black" points="771,-353 771,-373 1012,-373 1012,-353 771,-353"/>
<text text-anchor="start" x="794.5" y="-359.733" font-family="Times Roman,serif" font-size="14.00">[ENUM] duration (Optional) </text>
</a>
<a xlink:href="#" xlink:title="A means by which to extend the duration attribute. &#160;See Section 5.1.">
<polygon fill="none" stroke="black" points="771,-333 771,-353 1012,-353 1012,-333 771,-333"/>
<text text-anchor="start" x="774.5" y="-339.733" font-family="Times Roman,serif" font-size="14.00">[STRING] ext&#45;duration (Optional) </text>
</a>
</g>
<!-- System&#45;&gt;Counter -->
<g id="edge16" class="edge"><title>System&#45;&gt;Counter</title>
<path fill="none" stroke="black" d="M378.247,-336.772C399.159,-344.82 420.885,-351.987 442,-357 543.876,-381.187 662.207,-387.445 751.808,-387.919"/>
<polygon fill="black" stroke="black" points="752.027,-391.419 762.037,-387.949 752.047,-384.419 752.027,-391.419"/>
<text text-anchor="middle" x="571" y="-390.4" font-family="Times Roman,serif" font-size="14.00">0..*</text>
</g>
<!-- Service -->
<g id="node11" class="node"><title>Service</title>
<a xlink:href="#" xlink:title="The Service class describes a network service of a host or network. The service is identified by specific port or list of ports, along with the application listening on that port. ">
<polygon fill="#cecece" stroke="#cecece" points="451,-323 451,-344 692,-344 692,-323 451,-323"/>
<polygon fill="none" stroke="black" points="451,-323 451,-344 692,-344 692,-323 451,-323"/>
<text text-anchor="start" x="546" y="-330.233" font-family="Times Roman,serif" font-size="14.00">Service</text>
</a>
<a xlink:href="#" xlink:title="A port number.">
<polygon fill="none" stroke="black" points="451,-303 451,-323 692,-323 692,-303 451,-303"/>
<text text-anchor="start" x="494.5" y="-309.733" font-family="Times Roman,serif" font-size="14.00">[INTEGER] Port (0..1) </text>
</a>
<a xlink:href="#" xlink:title="A list of port numbers formatted according to Section 2.10.">
<polygon fill="none" stroke="black" points="451,-283 451,-303 692,-303 692,-283 451,-283"/>
<text text-anchor="start" x="481.5" y="-289.733" font-family="Times Roman,serif" font-size="14.00">[PORTLIST] Portlist (0..1) </text>
</a>
<a xlink:href="#" xlink:title="A layer&#45;4 protocol&#45;specific code field (e.g., ICMP code field).">
<polygon fill="none" stroke="black" points="451,-263 451,-283 692,-283 692,-263 451,-263"/>
<text text-anchor="start" x="473" y="-269.733" font-family="Times Roman,serif" font-size="14.00">[INTEGER] ProtoCode (0..1) </text>
</a>
<a xlink:href="#" xlink:title="A layer&#45;4 protocol specific type field (e.g., ICMP type field).">
<polygon fill="none" stroke="black" points="451,-243 451,-263 692,-263 692,-243 451,-243"/>
<text text-anchor="start" x="474.5" y="-249.733" font-family="Times Roman,serif" font-size="14.00">[INTEGER] ProtoType (0..1) </text>
</a>
<a xlink:href="#" xlink:title="A layer&#45;4 protocol specific flag field (e.g., TCP flag field).">
<polygon fill="none" stroke="black" points="451,-223 451,-243 692,-243 692,-223 451,-223"/>
<text text-anchor="start" x="472.5" y="-229.733" font-family="Times Roman,serif" font-size="14.00">[INTEGER] ProtoFlags (0..1) </text>
</a>
<a xlink:href="#" xlink:title="The IANA protocol number.">
<polygon fill="none" stroke="black" points="451,-203 451,-223 692,-223 692,-203 451,-203"/>
<text text-anchor="start" x="454.5" y="-209.733" font-family="Times Roman,serif" font-size="14.00">[INTEGER] ip_protocol (Required) </text>
</a>
</g>
<!-- System&#45;&gt;Service -->
<g id="edge12" class="edge"><title>System&#45;&gt;Service</title>
<path fill="none" stroke="black" d="M378.114,-274C395.895,-274 414.215,-274 432.162,-274"/>
<polygon fill="black" stroke="black" points="432.381,-277.5 442.381,-274 432.381,-270.5 432.381,-277.5"/>
<text text-anchor="middle" x="410" y="-278.4" font-family="Times Roman,serif" font-size="14.00">0..*</text>
</g>
<!-- OperatingSystem -->
<g id="node15" class="node"><title>OperatingSystem</title>
<a xlink:href="#" xlink:title="The OperatingSystem class describes the operating system running on a System. The definition is identical to the Application class (Section 3.17.1). ">
<polygon fill="#cecece" stroke="#cecece" points="507,-153 507,-174 635,-174 635,-153 507,-153"/>
<polygon fill="none" stroke="black" points="507,-153 507,-174 635,-174 635,-153 507,-153"/>
<text text-anchor="start" x="510.5" y="-160.233" font-family="Times Roman,serif" font-size="14.00">OperatingSystem</text>
</a>
</g>
<!-- System&#45;&gt;OperatingSystem -->
<g id="edge14" class="edge"><title>System&#45;&gt;OperatingSystem</title>
<path fill="none" stroke="black" d="M378.208,-214.249C399.266,-205.729 421.047,-197.625 442,-191 456.854,-186.303 472.932,-182.195 488.531,-178.695"/>
<polygon fill="black" stroke="black" points="489.669,-182.029 498.696,-176.482 488.18,-175.189 489.669,-182.029"/>
<text text-anchor="middle" x="410" y="-211.4" font-family="Times Roman,serif" font-size="14.00">0..1</text>
</g>
<!-- AdditionalData -->
<g id="node18" class="node"><title>AdditionalData</title>
<a xlink:href="#" xlink:title="The AdditionalData class serves as an extension mechanism for information not otherwise represented in the data model. For relatively simple information, atomic data types (e.g., integers, strings) are provided with a mechanism to annotate their meaning. The class can also be used to extend the data model (and the associated Schema) to support proprietary extensions by encapsulating entire XML documents conforming to another Schema (e.g., IDMEF). A detailed discussion for extending the data model and the schema can be found in Section 5. ">
<polygon fill="#cecece" stroke="#cecece" points="461,-103 461,-124 682,-124 682,-103 461,-103"/>
<polygon fill="none" stroke="black" points="461,-103 461,-124 682,-124 682,-103 461,-103"/>
<text text-anchor="start" x="520" y="-110.233" font-family="Times Roman,serif" font-size="14.00">AdditionalData</text>
</a>
<a xlink:href="#" xlink:title="The data type of the element content. &#160;The permitted values for this attribute are shown below. &#160;The default value is &quot;string&quot;.">
<polygon fill="none" stroke="black" points="461,-83 461,-103 682,-103 682,-83 461,-83"/>
<text text-anchor="start" x="483" y="-89.7333" font-family="Times Roman,serif" font-size="14.00">[ENUM] dtype (Required) </text>
</a>
<a xlink:href="#" xlink:title="A means by which to extend the dtype attribute. &#160;See Section 5.1.">
<polygon fill="none" stroke="black" points="461,-63 461,-83 682,-83 682,-63 461,-63"/>
<text text-anchor="start" x="464.5" y="-69.7333" font-family="Times Roman,serif" font-size="14.00">[STRING] ext&#45;dtype (Optional) </text>
</a>
<a xlink:href="#" xlink:title="A free&#45;form description of the element content.">
<polygon fill="none" stroke="black" points="461,-43 461,-63 682,-63 682,-43 461,-43"/>
<text text-anchor="start" x="468" y="-49.7333" font-family="Times Roman,serif" font-size="14.00">[STRING] meaning (Optional) </text>
</a>
<a xlink:href="#" xlink:title="An identifier referencing the format and semantics of the element content.">
<polygon fill="none" stroke="black" points="461,-23 461,-43 682,-43 682,-23 461,-23"/>
<text text-anchor="start" x="469" y="-29.7333" font-family="Times Roman,serif" font-size="14.00">[STRING] formatid (Optional) </text>
</a>
<a xlink:href="#" xlink:title="This attribute has been defined in Section 3.2.">
<polygon fill="none" stroke="black" points="461,-3 461,-23 682,-23 682,-3 461,-3"/>
<text text-anchor="start" x="468.5" y="-9.73333" font-family="Times Roman,serif" font-size="14.00">[ENUM] restriction (Optional) </text>
</a>
</g>
<!-- System&#45;&gt;AdditionalData -->
<g id="edge18" class="edge"><title>System&#45;&gt;AdditionalData</title>
<path fill="none" stroke="black" d="M349.334,-199.849C378.772,-178.897 411.309,-156.505 442,-137 443.897,-135.794 445.815,-134.586 447.749,-133.377"/>
<polygon fill="black" stroke="black" points="449.665,-136.307 456.331,-128.072 445.985,-130.353 449.665,-136.307"/>
<text text-anchor="middle" x="410" y="-170.4" font-family="Times Roman,serif" font-size="14.00">0..*</text>
</g>
<!-- Address -->
<g id="node4" class="node"><title>Address</title>
<a xlink:href="#" xlink:title="The Address class represents a hardware (layer&#45;2), network (layer&#45;3), or application (layer&#45;7) address. ">
<polygon fill="#cecece" stroke="#cecece" points="770,-645 770,-666 1012,-666 1012,-645 770,-645"/>
<polygon fill="none" stroke="black" points="770,-645 770,-666 1012,-666 1012,-645 770,-645"/>
<text text-anchor="start" x="863.5" y="-652.233" font-family="Times Roman,serif" font-size="14.00">Address</text>
</a>
<a xlink:href="#" xlink:title="The type of address represented. &#160;The permitted values for this attribute are shown below. &#160;The default value is &quot;ipv4&#45;addr&quot;.">
<polygon fill="none" stroke="black" points="770,-625 770,-645 1012,-645 1012,-625 770,-625"/>
<text text-anchor="start" x="792" y="-631.733" font-family="Times Roman,serif" font-size="14.00">[ENUM] category (Required) </text>
</a>
<a xlink:href="#" xlink:title="A means by which to extend the category attribute. &#160;See Section 5.1.">
<polygon fill="none" stroke="black" points="770,-605 770,-625 1012,-625 1012,-605 770,-605"/>
<text text-anchor="start" x="773.5" y="-611.733" font-family="Times Roman,serif" font-size="14.00">[STRING] ext&#45;category (Optional) </text>
</a>
<a xlink:href="#" xlink:title="The name of the Virtual LAN to which the address belongs.">
<polygon fill="none" stroke="black" points="770,-585 770,-605 1012,-605 1012,-585 770,-585"/>
<text text-anchor="start" x="781" y="-591.733" font-family="Times Roman,serif" font-size="14.00">[STRING] vlan&#45;name (Optional) </text>
</a>
<a xlink:href="#" xlink:title="The number of the Virtual LAN to which the address belongs.">
<polygon fill="none" stroke="black" points="770,-565 770,-585 1012,-585 1012,-565 770,-565"/>
<text text-anchor="start" x="784.5" y="-571.733" font-family="Times Roman,serif" font-size="14.00">[STRING] vlan&#45;num (Optional) </text>
</a>
</g>
<!-- Node&#45;&gt;Address -->
<g id="edge2" class="edge"><title>Node&#45;&gt;Address</title>
<path fill="none" stroke="black" d="M676.223,-526.062C700.64,-536.287 726.993,-547.322 752.594,-558.043"/>
<polygon fill="black" stroke="black" points="751.411,-561.342 761.987,-561.976 754.115,-554.885 751.411,-561.342"/>
<text text-anchor="middle" x="731" y="-557.4" font-family="Times Roman,serif" font-size="14.00">0..*</text>
</g>
<!-- NodeRole -->
<g id="node6" class="node"><title>NodeRole</title>
<a xlink:href="#" xlink:title="The NodeRole class describes the intended function performed by a particular host. ">
<polygon fill="#cecece" stroke="#cecece" points="770,-519 770,-540 1012,-540 1012,-519 770,-519"/>
<polygon fill="none" stroke="black" points="770,-519 770,-540 1012,-540 1012,-519 770,-519"/>
<text text-anchor="start" x="858.5" y="-526.233" font-family="Times Roman,serif" font-size="14.00">NodeRole</text>
</a>
<a xlink:href="#" xlink:title="Functionality provided by a node.">
<polygon fill="none" stroke="black" points="770,-499 770,-519 1012,-519 1012,-499 770,-499"/>
<text text-anchor="start" x="792" y="-505.733" font-family="Times Roman,serif" font-size="14.00">[ENUM] category (Required) </text>
</a>
<a xlink:href="#" xlink:title="A means by which to extend the category attribute. &#160;See Section 5.1.">
<polygon fill="none" stroke="black" points="770,-479 770,-499 1012,-499 1012,-479 770,-479"/>
<text text-anchor="start" x="773.5" y="-485.733" font-family="Times Roman,serif" font-size="14.00">[STRING] ext&#45;category (Optional) </text>
</a>
<a xlink:href="#" xlink:title="A valid language code per RFC 4646 [7] constrained by the definition of &quot;xs:language&quot;. &#160;The interpretation of this code is described in Section 6.">
<polygon fill="none" stroke="black" points="770,-459 770,-479 1012,-479 1012,-459 770,-459"/>
<text text-anchor="start" x="807.5" y="-465.733" font-family="Times Roman,serif" font-size="14.00">[ENUM] lang (Required) </text>
</a>
</g>
<!-- Node&#45;&gt;NodeRole -->
<g id="edge4" class="edge"><title>Node&#45;&gt;NodeRole</title>
<path fill="none" stroke="black" d="M691.067,-488.754C710.865,-489.867 731.536,-491.03 751.756,-492.168"/>
<polygon fill="black" stroke="black" points="751.779,-495.674 761.96,-492.741 752.172,-488.685 751.779,-495.674"/>
<text text-anchor="middle" x="731" y="-495.4" font-family="Times Roman,serif" font-size="14.00">0..*</text>
</g>
<!-- Node&#45;&gt;Counter -->
<g id="edge6" class="edge"><title>Node&#45;&gt;Counter</title>
<path fill="none" stroke="black" d="M691.067,-445.23C711.199,-439.064 732.233,-432.622 752.779,-426.33"/>
<polygon fill="black" stroke="black" points="753.961,-429.629 762.498,-423.354 751.911,-422.936 753.961,-429.629"/>
<text text-anchor="middle" x="731" y="-439.4" font-family="Times Roman,serif" font-size="14.00">0..*</text>
</g>
<!-- Application -->
<g id="node12" class="node"><title>Application</title>
<a xlink:href="#" xlink:title="The Application class describes an application running on a System providing a Service. ">
<polygon fill="#cecece" stroke="#cecece" points="788,-287 788,-308 995,-308 995,-287 788,-287"/>
<polygon fill="none" stroke="black" points="788,-287 788,-308 995,-308 995,-287 788,-287"/>
<text text-anchor="start" x="853.5" y="-294.233" font-family="Times Roman,serif" font-size="14.00">Application</text>
</a>
<a xlink:href="#" xlink:title="A URL describing the application.">
<polygon fill="none" stroke="black" points="788,-267 788,-287 995,-287 995,-267 788,-267"/>
<text text-anchor="start" x="832" y="-273.733" font-family="Times Roman,serif" font-size="14.00">[URL] URL (0..1) </text>
</a>
<a xlink:href="#" xlink:title="An identifier that can be used to reference this software.">
<polygon fill="none" stroke="black" points="788,-247 788,-267 995,-267 995,-247 788,-247"/>
<text text-anchor="start" x="802" y="-253.733" font-family="Times Roman,serif" font-size="14.00">[STRING] swid (Optional) </text>
</a>
<a xlink:href="#" xlink:title="An identifier that can be used to reference a particular configuration of this software.">
<polygon fill="none" stroke="black" points="788,-227 788,-247 995,-247 995,-227 788,-227"/>
<text text-anchor="start" x="791.5" y="-233.733" font-family="Times Roman,serif" font-size="14.00">[STRING] configid (Optional) </text>
</a>
<a xlink:href="#" xlink:title="Vendor name of the software.">
<polygon fill="none" stroke="black" points="788,-207 788,-227 995,-227 995,-207 788,-207"/>
<text text-anchor="start" x="793.5" y="-213.733" font-family="Times Roman,serif" font-size="14.00">[STRING] vendor (Optional) </text>
</a>
<a xlink:href="#" xlink:title="Family of the software.">
<polygon fill="none" stroke="black" points="788,-187 788,-207 995,-207 995,-187 788,-187"/>
<text text-anchor="start" x="797" y="-193.733" font-family="Times Roman,serif" font-size="14.00">[STRING] family (Optional) </text>
</a>
<a xlink:href="#" xlink:title="Name of the software.">
<polygon fill="none" stroke="black" points="788,-167 788,-187 995,-187 995,-167 788,-167"/>
<text text-anchor="start" x="798.5" y="-173.733" font-family="Times Roman,serif" font-size="14.00">[STRING] name (Optional) </text>
</a>
<a xlink:href="#" xlink:title="Version of the software.">
<polygon fill="none" stroke="black" points="788,-147 788,-167 995,-167 995,-147 788,-147"/>
<text text-anchor="start" x="792.5" y="-153.733" font-family="Times Roman,serif" font-size="14.00">[STRING] version (Optional) </text>
</a>
<a xlink:href="#" xlink:title="Patch or service pack level of the software.">
<polygon fill="none" stroke="black" points="788,-127 788,-147 995,-147 995,-127 788,-127"/>
<text text-anchor="start" x="798.5" y="-133.733" font-family="Times Roman,serif" font-size="14.00">[STRING] patch (Optional) </text>
</a>
</g>
<!-- Service&#45;&gt;Application -->
<g id="edge10" class="edge"><title>Service&#45;&gt;Application</title>
<path fill="none" stroke="black" d="M699.773,-251.465C722.768,-247.441 746.659,-243.26 769.443,-239.272"/>
<polygon fill="black" stroke="black" points="770.233,-242.688 779.48,-237.516 769.026,-235.792 770.233,-242.688"/>
<text text-anchor="middle" x="731" y="-252.4" font-family="Times Roman,serif" font-size="14.00">0..*</text>
</g>
</g>
</svg>
