<?xml version="1.0" encoding="UTF-8" standalone="no"?>
<!DOCTYPE svg PUBLIC "-//W3C//DTD SVG 1.1//EN"
 "http://www.w3.org/Graphics/SVG/1.1/DTD/svg11.dtd">
<!-- Generated by graphviz version 2.26.3 (20100126.1600)
 -->
<!-- Title: HistoryItem Pages: 1 -->
<svg width="894pt" height="476pt"
 viewBox="0.00 0.00 894.00 476.00" xmlns="http://www.w3.org/2000/svg" xmlns:xlink="http://www.w3.org/1999/xlink">
<g id="graph1" class="graph" transform="scale(1 1) rotate(0) translate(4 472)">
<title>HistoryItem</title>
<polygon fill="white" stroke="white" points="-4,5 -4,-472 891,-472 891,5 -4,5"/>
<!-- HistoryItem -->
<g id="node1" class="node"><title>HistoryItem</title>
<a xlink:href="#" xlink:title="The HistoryItem class is an entry in the History (Section 3.11) log that documents a particular action or event that occurred in the course of handling the incident. The details of the entry are a free&#45;form description, but each can be categorized with the type attribute. ">
<polygon fill="#cecece" stroke="#cecece" points="9,-252 9,-273 236,-273 236,-252 9,-252"/>
<polygon fill="none" stroke="black" points="9,-252 9,-273 236,-273 236,-252 9,-252"/>
<text text-anchor="start" x="81.5" y="-259.233" font-family="Times Roman,serif" font-size="14.00">HistoryItem</text>
</a>
<a xlink:href="#" xlink:title="Timestamp of this entry in the history log (e.g., when the action described in the Description was taken).">
<polygon fill="none" stroke="black" points="9,-232 9,-252 236,-252 236,-232 9,-232"/>
<text text-anchor="start" x="58" y="-238.733" font-family="Times Roman,serif" font-size="14.00">[] DateTime (1..1) </text>
</a>
<a xlink:href="#" xlink:title="A free&#45;form textual description of the action or event.">
<polygon fill="none" stroke="black" points="9,-212 9,-232 236,-232 236,-212 9,-212"/>
<text text-anchor="start" x="12.5" y="-218.733" font-family="Times Roman,serif" font-size="14.00">[ML_STRING] Description (0..*) </text>
</a>
<a xlink:href="#" xlink:title="This attribute has been defined in Section 3.2.">
<polygon fill="none" stroke="black" points="9,-192 9,-212 236,-212 236,-192 9,-192"/>
<text text-anchor="start" x="19.5" y="-198.733" font-family="Times Roman,serif" font-size="14.00">[ENUM] restriction (Optional) </text>
</a>
<a xlink:href="#" xlink:title="Classifies a performed action or occurrence documented in this history log entry. &#160;As activity will likely have been instigated either through a previously conveyed expectation or internal investigation, this attribute is identical to the category attribute of the Expectation class. &#160;The difference is only one of tense. &#160;When an action is in this class, it has been completed. &#160;See Section 3.13.">
<polygon fill="none" stroke="black" points="9,-172 9,-192 236,-192 236,-172 9,-172"/>
<text text-anchor="start" x="32.5" y="-178.733" font-family="Times Roman,serif" font-size="14.00">[ENUM] action (Required) </text>
</a>
<a xlink:href="#" xlink:title="A means by which to extend the action attribute. &#160;See Section 5.1.">
<polygon fill="none" stroke="black" points="9,-152 9,-172 236,-172 236,-152 9,-152"/>
<text text-anchor="start" x="14" y="-158.733" font-family="Times Roman,serif" font-size="14.00">[STRING] ext&#45;action (Optional) </text>
</a>
</g>
<!-- IncidentID -->
<g id="node2" class="node"><title>IncidentID</title>
<a xlink:href="#" xlink:title="The IncidentID class represents an incident tracking number that is unique in the context of the CSIRT and identifies the activity characterized in an IODEF Document. This identifier would serve as an index into the CSIRT incident handling system. The combination of the name attribute and the string in the element content MUST be a globally unique identifier describing the activity. Documents generated by a given CSIRT MUST NOT reuse the same value unless they are referencing the same incident. ">
<polygon fill="#cecece" stroke="#cecece" points="333,-443 333,-464 546,-464 546,-443 333,-443"/>
<polygon fill="none" stroke="black" points="333,-443 333,-464 546,-464 546,-443 333,-443"/>
<text text-anchor="start" x="403.5" y="-450.233" font-family="Times Roman,serif" font-size="14.00">IncidentID</text>
</a>
<a xlink:href="#" xlink:title="An identifier describing the CSIRT that created the document. &#160;In order to have a globally unique CSIRT name, the fully qualified domain name associated with the CSIRT MUST be used.">
<polygon fill="none" stroke="black" points="333,-423 333,-443 546,-443 546,-423 333,-423"/>
<text text-anchor="start" x="345.5" y="-429.733" font-family="Times Roman,serif" font-size="14.00">[STRING] name (Required) </text>
</a>
<a xlink:href="#" xlink:title="An identifier referencing a subset of the named incident.">
<polygon fill="none" stroke="black" points="333,-403 333,-423 546,-423 546,-403 333,-403"/>
<text text-anchor="start" x="337" y="-409.733" font-family="Times Roman,serif" font-size="14.00">[STRING] instance (Optional) </text>
</a>
<a xlink:href="#" xlink:title="This attribute has been defined in Section 3.2.">
<polygon fill="none" stroke="black" points="333,-383 333,-403 546,-403 546,-383 333,-383"/>
<text text-anchor="start" x="336.5" y="-389.733" font-family="Times Roman,serif" font-size="14.00">[ENUM] restriction (Optional) </text>
</a>
</g>
<!-- HistoryItem&#45;&gt;IncidentID -->
<g id="edge2" class="edge"><title>HistoryItem&#45;&gt;IncidentID</title>
<path fill="none" stroke="black" d="M186.88,-277.105C220.917,-308.309 264.504,-344.672 308,-371 310.46,-372.489 312.968,-373.952 315.517,-375.39"/>
<polygon fill="black" stroke="black" points="313.863,-378.475 324.321,-380.176 317.207,-372.325 313.863,-378.475"/>
<text text-anchor="middle" x="276" y="-360.4" font-family="Times Roman,serif" font-size="14.00">0..1</text>
</g>
<!-- Contact -->
<g id="node4" class="node"><title>Contact</title>
<a xlink:href="#" xlink:title="The Contact class describes contact information for organizations and personnel involved in the incident. This class allows for the naming of the involved party, specifying contact information for them, and identifying their role in the incident. ">
<polygon fill="#cecece" stroke="#cecece" points="317,-302 317,-323 562,-323 562,-302 317,-302"/>
<polygon fill="none" stroke="black" points="317,-302 317,-323 562,-323 562,-302 317,-302"/>
<text text-anchor="start" x="412" y="-309.233" font-family="Times Roman,serif" font-size="14.00">Contact</text>
</a>
<a xlink:href="#" xlink:title="The name of the contact. &#160;The contact may either be an organization or a person. &#160;The type attribute disambiguates the semantics.">
<polygon fill="none" stroke="black" points="317,-282 317,-302 562,-302 562,-282 317,-282"/>
<text text-anchor="start" x="320.5" y="-288.733" font-family="Times Roman,serif" font-size="14.00">[ML_STRING] ContactName (0..1) </text>
</a>
<a xlink:href="#" xlink:title="A free&#45;form description of this contact. &#160;In the case of a person, this is often the organizational title of the individual.">
<polygon fill="none" stroke="black" points="317,-262 317,-282 562,-282 562,-262 317,-262"/>
<text text-anchor="start" x="329.5" y="-268.733" font-family="Times Roman,serif" font-size="14.00">[ML_STRING] Description (0..*) </text>
</a>
<a xlink:href="#" xlink:title="The telephone number of the contact.">
<polygon fill="none" stroke="black" points="317,-242 317,-262 562,-262 562,-242 317,-242"/>
<text text-anchor="start" x="374.5" y="-248.733" font-family="Times Roman,serif" font-size="14.00">[] Telephone (0..*) </text>
</a>
<a xlink:href="#" xlink:title="The facsimile telephone number of the contact.">
<polygon fill="none" stroke="black" points="317,-222 317,-242 562,-242 562,-222 317,-222"/>
<text text-anchor="start" x="397" y="-228.733" font-family="Times Roman,serif" font-size="14.00">[] Fax (0..1) </text>
</a>
<a xlink:href="#" xlink:title="The timezone in which the contact resides formatted according to Section 2.9.">
<polygon fill="none" stroke="black" points="317,-202 317,-222 562,-222 562,-202 317,-202"/>
<text text-anchor="start" x="337.5" y="-208.733" font-family="Times Roman,serif" font-size="14.00">[TIMEZONE] Timezone (0..1) </text>
</a>
<a xlink:href="#" xlink:title="Indicates the role the contact fulfills. &#160;This attribute is defined as an enumerated list:">
<polygon fill="none" stroke="black" points="317,-182 317,-202 562,-202 562,-182 317,-182"/>
<text text-anchor="start" x="357.5" y="-188.733" font-family="Times Roman,serif" font-size="14.00">[ENUM] role (Required) </text>
</a>
<a xlink:href="#" xlink:title="A means by which to extend the role attribute. See Section 5.1.">
<polygon fill="none" stroke="black" points="317,-162 317,-182 562,-182 562,-162 317,-162"/>
<text text-anchor="start" x="338.5" y="-168.733" font-family="Times Roman,serif" font-size="14.00">[STRING] ext&#45;role (Optional) </text>
</a>
<a xlink:href="#" xlink:title="Indicates the type of contact being described. This attribute is defined as an enumerated list:">
<polygon fill="none" stroke="black" points="317,-142 317,-162 562,-162 562,-142 317,-142"/>
<text text-anchor="start" x="355" y="-148.733" font-family="Times Roman,serif" font-size="14.00">[ENUM] type (Required) </text>
</a>
<a xlink:href="#" xlink:title="A means by which to extend the type attribute. See Section 5.1.">
<polygon fill="none" stroke="black" points="317,-122 317,-142 562,-142 562,-122 317,-122"/>
<text text-anchor="start" x="336.5" y="-128.733" font-family="Times Roman,serif" font-size="14.00">[STRING] ext&#45;type (Optional) </text>
</a>
<a xlink:href="#" xlink:title="This attribute is defined in Section 3.2.">
<polygon fill="none" stroke="black" points="317,-102 317,-122 562,-122 562,-102 317,-102"/>
<text text-anchor="start" x="336.5" y="-108.733" font-family="Times Roman,serif" font-size="14.00">[ENUM] restriction (Optional) </text>
</a>
</g>
<!-- HistoryItem&#45;&gt;Contact -->
<g id="edge14" class="edge"><title>HistoryItem&#45;&gt;Contact</title>
<path fill="none" stroke="black" d="M243.654,-213C261.553,-213 280.116,-213 298.36,-213"/>
<polygon fill="black" stroke="black" points="298.456,-216.5 308.456,-213 298.456,-209.5 298.456,-216.5"/>
<text text-anchor="middle" x="276" y="-217.4" font-family="Times Roman,serif" font-size="14.00">0..1</text>
</g>
<!-- AdditionalData -->
<g id="node12" class="node"><title>AdditionalData</title>
<a xlink:href="#" xlink:title="The AdditionalData class serves as an extension mechanism for information not otherwise represented in the data model. For relatively simple information, atomic data types (e.g., integers, strings) are provided with a mechanism to annotate their meaning. The class can also be used to extend the data model (and the associated Schema) to support proprietary extensions by encapsulating entire XML documents conforming to another Schema (e.g., IDMEF). A detailed discussion for extending the data model and the schema can be found in Section 5. ">
<polygon fill="#cecece" stroke="#cecece" points="650,-103 650,-124 871,-124 871,-103 650,-103"/>
<polygon fill="none" stroke="black" points="650,-103 650,-124 871,-124 871,-103 650,-103"/>
<text text-anchor="start" x="709" y="-110.233" font-family="Times Roman,serif" font-size="14.00">AdditionalData</text>
</a>
<a xlink:href="#" xlink:title="The data type of the element content. &#160;The permitted values for this attribute are shown below. &#160;The default value is &quot;string&quot;.">
<polygon fill="none" stroke="black" points="650,-83 650,-103 871,-103 871,-83 650,-83"/>
<text text-anchor="start" x="672" y="-89.7333" font-family="Times Roman,serif" font-size="14.00">[ENUM] dtype (Required) </text>
</a>
<a xlink:href="#" xlink:title="A means by which to extend the dtype attribute. &#160;See Section 5.1.">
<polygon fill="none" stroke="black" points="650,-63 650,-83 871,-83 871,-63 650,-63"/>
<text text-anchor="start" x="653.5" y="-69.7333" font-family="Times Roman,serif" font-size="14.00">[STRING] ext&#45;dtype (Optional) </text>
</a>
<a xlink:href="#" xlink:title="A free&#45;form description of the element content.">
<polygon fill="none" stroke="black" points="650,-43 650,-63 871,-63 871,-43 650,-43"/>
<text text-anchor="start" x="657" y="-49.7333" font-family="Times Roman,serif" font-size="14.00">[STRING] meaning (Optional) </text>
</a>
<a xlink:href="#" xlink:title="An identifier referencing the format and semantics of the element content.">
<polygon fill="none" stroke="black" points="650,-23 650,-43 871,-43 871,-23 650,-23"/>
<text text-anchor="start" x="658" y="-29.7333" font-family="Times Roman,serif" font-size="14.00">[STRING] formatid (Optional) </text>
</a>
<a xlink:href="#" xlink:title="This attribute has been defined in Section 3.2.">
<polygon fill="none" stroke="black" points="650,-3 650,-23 871,-23 871,-3 650,-3"/>
<text text-anchor="start" x="657.5" y="-9.73333" font-family="Times Roman,serif" font-size="14.00">[ENUM] restriction (Optional) </text>
</a>
</g>
<!-- HistoryItem&#45;&gt;AdditionalData -->
<g id="edge16" class="edge"><title>HistoryItem&#45;&gt;AdditionalData</title>
<path fill="none" stroke="black" d="M186.155,-148.753C219.517,-119.794 262.73,-88.6358 308,-73 412.506,-36.9046 538.861,-37.808 631.376,-45.9213"/>
<polygon fill="black" stroke="black" points="631.074,-49.4082 641.352,-46.8355 631.713,-42.4374 631.074,-49.4082"/>
<text text-anchor="middle" x="439" y="-77.4" font-family="Times Roman,serif" font-size="14.00">0..*</text>
</g>
<!-- Contact&#45;&gt;Contact -->
<g id="edge10" class="edge"><title>Contact&#45;&gt;Contact</title>
<path fill="none" stroke="black" d="M414.439,-327.054C419.422,-338.039 427.609,-345 439,-345 447.009,-345 453.434,-341.559 458.276,-335.697"/>
<polygon fill="black" stroke="black" points="461.33,-337.411 463.561,-327.054 455.358,-333.759 461.33,-337.411"/>
<text text-anchor="middle" x="439" y="-349.4" font-family="Times Roman,serif" font-size="14.00">0..*</text>
</g>
<!-- RegistryHandle -->
<g id="node5" class="node"><title>RegistryHandle</title>
<a xlink:href="#" xlink:title="The RegistryHandle class represents a handle into an Internet registry or community&#45;specific database. The handle is specified in the element content and the type attribute specifies the database. ">
<polygon fill="#cecece" stroke="#cecece" points="642,-341 642,-362 878,-362 878,-341 642,-341"/>
<polygon fill="none" stroke="black" points="642,-341 642,-362 878,-362 878,-341 642,-341"/>
<text text-anchor="start" x="707.5" y="-348.233" font-family="Times Roman,serif" font-size="14.00">RegistryHandle</text>
</a>
<a xlink:href="#" xlink:title="The database to which the handle belongs. &#160;The default value is &#39;local&#39;. &#160;The possible values are:">
<polygon fill="none" stroke="black" points="642,-321 642,-341 878,-341 878,-321 642,-321"/>
<text text-anchor="start" x="664.5" y="-327.733" font-family="Times Roman,serif" font-size="14.00">[ENUM] registry (Required) </text>
</a>
<a xlink:href="#" xlink:title="A means by which to extend the registry attribute. &#160;See Section 5.1.">
<polygon fill="none" stroke="black" points="642,-301 642,-321 878,-321 878,-301 642,-301"/>
<text text-anchor="start" x="645.5" y="-307.733" font-family="Times Roman,serif" font-size="14.00">[STRING] ext&#45;registry (Optional) </text>
</a>
</g>
<!-- Contact&#45;&gt;RegistryHandle -->
<g id="edge4" class="edge"><title>Contact&#45;&gt;RegistryHandle</title>
<path fill="none" stroke="black" d="M569.561,-264.772C591.033,-273.031 613.096,-281.364 634,-289 639.088,-290.859 644.301,-292.738 649.573,-294.618"/>
<polygon fill="black" stroke="black" points="648.517,-297.957 659.112,-297.998 650.855,-291.359 648.517,-297.957"/>
<text text-anchor="middle" x="602" y="-285.4" font-family="Times Roman,serif" font-size="14.00">0..*</text>
</g>
<!-- PostalAddress -->
<g id="node7" class="node"><title>PostalAddress</title>
<a xlink:href="#" xlink:title="The PostalAddress class specifies a postal address formatted according to the POSTAL data type (Section 2.11). ">
<polygon fill="#cecece" stroke="#cecece" points="659,-255 659,-276 861,-276 861,-255 659,-255"/>
<polygon fill="none" stroke="black" points="659,-255 659,-276 861,-276 861,-255 659,-255"/>
<text text-anchor="start" x="712" y="-262.233" font-family="Times Roman,serif" font-size="14.00">PostalAddress</text>
</a>
<a xlink:href="#" xlink:title="A free&#45;form description of the element content.">
<polygon fill="none" stroke="black" points="659,-235 659,-255 861,-255 861,-235 659,-235"/>
<text text-anchor="start" x="662.5" y="-241.733" font-family="Times Roman,serif" font-size="14.00">[ENUM] meaning (Optional) </text>
</a>
<a xlink:href="#" xlink:title="A valid language code per RFC 4646 [7] constrained by the definition of &quot;xs:language&quot;. &#160;The interpretation of this code is described in Section 6.">
<polygon fill="none" stroke="black" points="659,-215 659,-235 861,-235 861,-215 659,-215"/>
<text text-anchor="start" x="676.5" y="-221.733" font-family="Times Roman,serif" font-size="14.00">[ENUM] lang (Required) </text>
</a>
</g>
<!-- Contact&#45;&gt;PostalAddress -->
<g id="edge6" class="edge"><title>Contact&#45;&gt;PostalAddress</title>
<path fill="none" stroke="black" d="M569.563,-226.422C593.075,-228.839 617.475,-231.348 640.648,-233.73"/>
<polygon fill="black" stroke="black" points="640.543,-237.238 650.848,-234.779 641.259,-230.274 640.543,-237.238"/>
<text text-anchor="middle" x="602" y="-234.4" font-family="Times Roman,serif" font-size="14.00">0..1</text>
</g>
<!-- Email -->
<g id="node9" class="node"><title>Email</title>
<a xlink:href="#" xlink:title="The Email class specifies an email address formatted according to EMAIL data type (Section 2.14). ">
<polygon fill="#cecece" stroke="#cecece" points="659,-169 659,-190 861,-190 861,-169 659,-169"/>
<polygon fill="none" stroke="black" points="659,-169 659,-190 861,-190 861,-169 659,-169"/>
<text text-anchor="start" x="741" y="-176.233" font-family="Times Roman,serif" font-size="14.00">Email</text>
</a>
<a xlink:href="#" xlink:title="A free&#45;form description of the element content (e.g., hours of coverage for a given number).">
<polygon fill="none" stroke="black" points="659,-149 659,-169 861,-169 861,-149 659,-149"/>
<text text-anchor="start" x="662.5" y="-155.733" font-family="Times Roman,serif" font-size="14.00">[ENUM] meaning (Optional) </text>
</a>
</g>
<!-- Contact&#45;&gt;Email -->
<g id="edge8" class="edge"><title>Contact&#45;&gt;Email</title>
<path fill="none" stroke="black" d="M569.563,-195.51C593.075,-192.361 617.475,-189.092 640.648,-185.988"/>
<polygon fill="black" stroke="black" points="641.401,-189.418 650.848,-184.622 640.472,-182.48 641.401,-189.418"/>
<text text-anchor="middle" x="602" y="-196.4" font-family="Times Roman,serif" font-size="14.00">0..*</text>
</g>
<!-- Contact&#45;&gt;AdditionalData -->
<g id="edge12" class="edge"><title>Contact&#45;&gt;AdditionalData</title>
<path fill="none" stroke="black" d="M569.563,-152.396C590.277,-142.781 611.682,-132.846 632.329,-123.262"/>
<polygon fill="black" stroke="black" points="633.844,-126.417 641.44,-119.032 630.896,-120.068 633.844,-126.417"/>
<text text-anchor="middle" x="602" y="-146.4" font-family="Times Roman,serif" font-size="14.00">0..*</text>
</g>
</g>
</svg>
