<?xml version="1.0" encoding="UTF-8" standalone="no"?>
<!DOCTYPE svg PUBLIC "-//W3C//DTD SVG 1.1//EN"
 "http://www.w3.org/Graphics/SVG/1.1/DTD/svg11.dtd">
<!-- Generated by graphviz version 2.38.0 (20140413.2041)
 -->
<!-- Title: History Pages: 1 -->
<svg width="1022pt" height="491pt"
 viewBox="0.00 0.00 1022.00 491.00" xmlns="http://www.w3.org/2000/svg" xmlns:xlink="http://www.w3.org/1999/xlink">
<g id="graph0" class="graph" transform="scale(1 1) rotate(0) translate(4 487)">
<title>History</title>
<polygon fill="white" stroke="none" points="-4,4 -4,-487 1018,-487 1018,4 -4,4"/>
<!-- History -->
<g id="node1" class="node"><title>History</title>
<g id="a_node1_0"><a xlink:href="/idmef_parser/IODEF/History.html" xlink:title="The History class is a log of the significant events or actions performed by the involved parties during the course of handling the incident. ">
<polygon fill="#006a30" stroke="none" points="8,-220 8,-241 186,-241 186,-220 8,-220"/>
<polygon fill="none" stroke="black" points="8,-220 8,-241 186,-241 186,-220 8,-220"/>
<text text-anchor="start" x="76.5" y="-226.8" font-family="Times,serif" font-size="14.00">History</text>
</a>
</g>
<g id="a_node1_1"><a xlink:href="/idmef_parser/IODEF/History.html" xlink:title="This attribute is defined in Section 3.2.">
<polygon fill="#00b050" stroke="none" points="8,-199 8,-220 186,-220 186,-199 8,-199"/>
<polygon fill="none" stroke="black" points="8,-199 8,-220 186,-220 186,-199 8,-199"/>
<text text-anchor="start" x="11" y="-205.8" font-family="Times,serif" font-size="14.00">[ENUM] restriction (Optional) </text>
</a>
</g>
</g>
<!-- HistoryItem -->
<g id="node2" class="node"><title>HistoryItem</title>
<g id="a_node2_2"><a xlink:href="/idmef_parser/IODEF/HistoryItem.html" xlink:title="The HistoryItem class is an entry in the History (Section 3.11) log that documents a particular action or event that occurred in the course of handling the incident. The details of the entry are a free&#45;form description, but each can be categorized with the type attribute. ">
<polygon fill="#006a30" stroke="none" points="260,-262 260,-283 456,-283 456,-262 260,-262"/>
<polygon fill="none" stroke="black" points="260,-262 260,-283 456,-283 456,-262 260,-262"/>
<text text-anchor="start" x="324.5" y="-268.8" font-family="Times,serif" font-size="14.00">HistoryItem</text>
</a>
</g>
<g id="a_node2_3"><a xlink:href="/idmef_parser/IODEF/HistoryItem.html" xlink:title="Timestamp of this entry in the history log (e.g., when the action described in the Description was taken).">
<polygon fill="#00b050" stroke="none" points="260,-241 260,-262 456,-262 456,-241 260,-241"/>
<polygon fill="none" stroke="black" points="260,-241 260,-262 456,-262 456,-241 260,-241"/>
<text text-anchor="start" x="305" y="-247.8" font-family="Times,serif" font-size="14.00">[] DateTime (1..1) </text>
</a>
</g>
<g id="a_node2_4"><a xlink:href="/idmef_parser/IODEF/HistoryItem.html" xlink:title="A free&#45;form textual description of the action or event.">
<polygon fill="#00b050" stroke="none" points="260,-220 260,-241 456,-241 456,-220 260,-220"/>
<polygon fill="none" stroke="black" points="260,-220 260,-241 456,-241 456,-220 260,-220"/>
<text text-anchor="start" x="263" y="-226.8" font-family="Times,serif" font-size="14.00">[ML_STRING] Description (0..*) </text>
</a>
</g>
<g id="a_node2_5"><a xlink:href="/idmef_parser/IODEF/HistoryItem.html" xlink:title="This attribute has been defined in Section 3.2.">
<polygon fill="#00b050" stroke="none" points="260,-199 260,-220 456,-220 456,-199 260,-199"/>
<polygon fill="none" stroke="black" points="260,-199 260,-220 456,-220 456,-199 260,-199"/>
<text text-anchor="start" x="272" y="-205.8" font-family="Times,serif" font-size="14.00">[ENUM] restriction (Optional) </text>
</a>
</g>
<g id="a_node2_6"><a xlink:href="/idmef_parser/IODEF/HistoryItem.html" xlink:title="Classifies a performed action or occurrence documented in this history log entry. &#160;As activity will likely have been instigated either through a previously conveyed expectation or internal investigation, this attribute is identical to the category attribute of the Expectation class. &#160;The difference is only one of tense. &#160;When an action is in this class, it has been completed. &#160;See Section 3.13.">
<polygon fill="#00b050" stroke="none" points="260,-178 260,-199 456,-199 456,-178 260,-178"/>
<polygon fill="none" stroke="black" points="260,-178 260,-199 456,-199 456,-178 260,-178"/>
<text text-anchor="start" x="281.5" y="-184.8" font-family="Times,serif" font-size="14.00">[ENUM] action (Required) </text>
</a>
</g>
<g id="a_node2_7"><a xlink:href="/idmef_parser/IODEF/HistoryItem.html" xlink:title="A means by which to extend the action attribute. &#160;See Section 5.1.">
<polygon fill="#00b050" stroke="none" points="260,-157 260,-178 456,-178 456,-157 260,-157"/>
<polygon fill="none" stroke="black" points="260,-157 260,-178 456,-178 456,-157 260,-157"/>
<text text-anchor="start" x="268" y="-163.8" font-family="Times,serif" font-size="14.00">[STRING] ext&#45;action (Optional) </text>
</a>
</g>
</g>
<!-- History&#45;&gt;HistoryItem -->
<g id="edge9" class="edge"><title>History&#45;&gt;HistoryItem</title>
<path fill="none" stroke="black" d="M194.074,-220C209.544,-220 225.698,-220 241.566,-220"/>
<polygon fill="black" stroke="black" points="241.943,-223.5 251.943,-220 241.943,-216.5 241.943,-223.5"/>
<text text-anchor="middle" x="223" y="-223.8" font-family="Times,serif" font-size="14.00">1..*</text>
</g>
<!-- IncidentID -->
<g id="node3" class="node"><title>IncidentID</title>
<g id="a_node3_8"><a xlink:href="/idmef_parser/IODEF/IncidentID.html" xlink:title="The IncidentID class represents an incident tracking number that is unique in the context of the CSIRT and identifies the activity characterized in an IODEF Document. This identifier would serve as an index into the CSIRT incident handling system. The combination of the name attribute and the string in the element content MUST be a globally unique identifier describing the activity. Documents generated by a given CSIRT MUST NOT reuse the same value unless they are referencing the same incident. ">
<polygon fill="#5c7a00" stroke="none" points="545,-458 545,-479 723,-479 723,-458 545,-458"/>
<polygon fill="none" stroke="black" points="545,-458 545,-479 723,-479 723,-458 545,-458"/>
<text text-anchor="start" x="604.5" y="-464.8" font-family="Times,serif" font-size="14.00">IncidentID</text>
</a>
</g>
<g id="a_node3_9"><a xlink:href="/idmef_parser/IODEF/IncidentID.html" xlink:title="An identifier describing the CSIRT that created the document. &#160;In order to have a globally unique CSIRT name, the fully qualified domain name associated with the CSIRT MUST be used.">
<polygon fill="#99cc00" stroke="none" points="545,-437 545,-458 723,-458 723,-437 545,-437"/>
<polygon fill="none" stroke="black" points="545,-437 545,-458 723,-458 723,-437 545,-437"/>
<text text-anchor="start" x="555" y="-443.8" font-family="Times,serif" font-size="14.00">[STRING] name (Required) </text>
</a>
</g>
<g id="a_node3_10"><a xlink:href="/idmef_parser/IODEF/IncidentID.html" xlink:title="An identifier referencing a subset of the named incident.">
<polygon fill="#99cc00" stroke="none" points="545,-416 545,-437 723,-437 723,-416 545,-416"/>
<polygon fill="none" stroke="black" points="545,-416 545,-437 723,-437 723,-416 545,-416"/>
<text text-anchor="start" x="549" y="-422.8" font-family="Times,serif" font-size="14.00">[STRING] instance (Optional) </text>
</a>
</g>
<g id="a_node3_11"><a xlink:href="/idmef_parser/IODEF/IncidentID.html" xlink:title="This attribute has been defined in Section 3.2.">
<polygon fill="#99cc00" stroke="none" points="545,-395 545,-416 723,-416 723,-395 545,-395"/>
<polygon fill="none" stroke="black" points="545,-395 545,-416 723,-416 723,-395 545,-395"/>
<text text-anchor="start" x="548" y="-401.8" font-family="Times,serif" font-size="14.00">[ENUM] restriction (Optional) </text>
</a>
</g>
</g>
<!-- HistoryItem&#45;&gt;IncidentID -->
<g id="edge1" class="edge"><title>HistoryItem&#45;&gt;IncidentID</title>
<path fill="none" stroke="black" d="M417.406,-287.387C446.731,-318.659 484.04,-354.832 522,-382 524.066,-383.479 526.177,-384.938 528.326,-386.376"/>
<polygon fill="black" stroke="black" points="526.477,-389.348 536.779,-391.819 530.266,-383.463 526.477,-389.348"/>
<text text-anchor="middle" x="493" y="-369.8" font-family="Times,serif" font-size="14.00">0..1</text>
</g>
<!-- Contact -->
<g id="node4" class="node"><title>Contact</title>
<g id="a_node4_12"><a xlink:href="/idmef_parser/IODEF/Contact.html" xlink:title="The Contact class describes contact information for organizations and personnel involved in the incident. This class allows for the naming of the involved party, specifying contact information for them, and identifying their role in the incident. ">
<polygon fill="#7a993d" stroke="none" points="530,-314 530,-335 738,-335 738,-314 530,-314"/>
<polygon fill="none" stroke="black" points="530,-314 530,-335 738,-335 738,-314 530,-314"/>
<text text-anchor="start" x="612.5" y="-320.8" font-family="Times,serif" font-size="14.00">Contact</text>
</a>
</g>
<g id="a_node4_13"><a xlink:href="/idmef_parser/IODEF/Contact.html" xlink:title="The name of the contact. &#160;The contact may either be an organization or a person. &#160;The type attribute disambiguates the semantics.">
<polygon fill="#ccff66" stroke="none" points="530,-293 530,-314 738,-314 738,-293 530,-293"/>
<polygon fill="none" stroke="black" points="530,-293 530,-314 738,-314 738,-293 530,-293"/>
<text text-anchor="start" x="533" y="-299.8" font-family="Times,serif" font-size="14.00">[ML_STRING] ContactName (0..1) </text>
</a>
</g>
<g id="a_node4_14"><a xlink:href="/idmef_parser/IODEF/Contact.html" xlink:title="A free&#45;form description of this contact. &#160;In the case of a person, this is often the organizational title of the individual.">
<polygon fill="#ccff66" stroke="none" points="530,-272 530,-293 738,-293 738,-272 530,-272"/>
<polygon fill="none" stroke="black" points="530,-272 530,-293 738,-293 738,-272 530,-272"/>
<text text-anchor="start" x="539" y="-278.8" font-family="Times,serif" font-size="14.00">[ML_STRING] Description (0..*) </text>
</a>
</g>
<g id="a_node4_15"><a xlink:href="/idmef_parser/IODEF/Contact.html" xlink:title="The telephone number of the contact.">
<polygon fill="#ccff66" stroke="none" points="530,-251 530,-272 738,-272 738,-251 530,-251"/>
<polygon fill="none" stroke="black" points="530,-251 530,-272 738,-272 738,-251 530,-251"/>
<text text-anchor="start" x="580" y="-257.8" font-family="Times,serif" font-size="14.00">[] Telephone (0..*) </text>
</a>
</g>
<g id="a_node4_16"><a xlink:href="/idmef_parser/IODEF/Contact.html" xlink:title="The facsimile telephone number of the contact.">
<polygon fill="#ccff66" stroke="none" points="530,-230 530,-251 738,-251 738,-230 530,-230"/>
<polygon fill="none" stroke="black" points="530,-230 530,-251 738,-251 738,-230 530,-230"/>
<text text-anchor="start" x="598.5" y="-236.8" font-family="Times,serif" font-size="14.00">[] Fax (0..1) </text>
</a>
</g>
<g id="a_node4_17"><a xlink:href="/idmef_parser/IODEF/Contact.html" xlink:title="The timezone in which the contact resides formatted according to Section 2.9.">
<polygon fill="#ccff66" stroke="none" points="530,-209 530,-230 738,-230 738,-209 530,-209"/>
<polygon fill="none" stroke="black" points="530,-209 530,-230 738,-230 738,-209 530,-209"/>
<text text-anchor="start" x="546.5" y="-215.8" font-family="Times,serif" font-size="14.00">[TIMEZONE] Timezone (0..1) </text>
</a>
</g>
<g id="a_node4_18"><a xlink:href="/idmef_parser/IODEF/Contact.html" xlink:title="Indicates the role the contact fulfills. &#160;This attribute is defined as an enumerated list:">
<polygon fill="#ccff66" stroke="none" points="530,-188 530,-209 738,-209 738,-188 530,-188"/>
<polygon fill="none" stroke="black" points="530,-188 530,-209 738,-209 738,-188 530,-188"/>
<text text-anchor="start" x="563.5" y="-194.8" font-family="Times,serif" font-size="14.00">[ENUM] role (Required) </text>
</a>
</g>
<g id="a_node4_19"><a xlink:href="/idmef_parser/IODEF/Contact.html" xlink:title="A means by which to extend the role attribute. See Section 5.1.">
<polygon fill="#ccff66" stroke="none" points="530,-167 530,-188 738,-188 738,-167 530,-167"/>
<polygon fill="none" stroke="black" points="530,-167 530,-188 738,-188 738,-167 530,-167"/>
<text text-anchor="start" x="550" y="-173.8" font-family="Times,serif" font-size="14.00">[STRING] ext&#45;role (Optional) </text>
</a>
</g>
<g id="a_node4_20"><a xlink:href="/idmef_parser/IODEF/Contact.html" xlink:title="Indicates the type of contact being described. This attribute is defined as an enumerated list:">
<polygon fill="#ccff66" stroke="none" points="530,-146 530,-167 738,-167 738,-146 530,-146"/>
<polygon fill="none" stroke="black" points="530,-146 530,-167 738,-167 738,-146 530,-146"/>
<text text-anchor="start" x="562.5" y="-152.8" font-family="Times,serif" font-size="14.00">[ENUM] type (Required) </text>
</a>
</g>
<g id="a_node4_21"><a xlink:href="/idmef_parser/IODEF/Contact.html" xlink:title="A means by which to extend the type attribute. See Section 5.1.">
<polygon fill="#ccff66" stroke="none" points="530,-125 530,-146 738,-146 738,-125 530,-125"/>
<polygon fill="none" stroke="black" points="530,-125 530,-146 738,-146 738,-125 530,-125"/>
<text text-anchor="start" x="549" y="-131.8" font-family="Times,serif" font-size="14.00">[STRING] ext&#45;type (Optional) </text>
</a>
</g>
<g id="a_node4_22"><a xlink:href="/idmef_parser/IODEF/Contact.html" xlink:title="This attribute is defined in Section 3.2.">
<polygon fill="#ccff66" stroke="none" points="530,-104 530,-125 738,-125 738,-104 530,-104"/>
<polygon fill="none" stroke="black" points="530,-104 530,-125 738,-125 738,-104 530,-104"/>
<text text-anchor="start" x="548" y="-110.8" font-family="Times,serif" font-size="14.00">[ENUM] restriction (Optional) </text>
</a>
</g>
</g>
<!-- HistoryItem&#45;&gt;Contact -->
<g id="edge7" class="edge"><title>HistoryItem&#45;&gt;Contact</title>
<path fill="none" stroke="black" d="M464.152,-220C479.627,-220 495.676,-220 511.448,-220"/>
<polygon fill="black" stroke="black" points="511.764,-223.5 521.764,-220 511.764,-216.5 511.764,-223.5"/>
<text text-anchor="middle" x="493" y="-223.8" font-family="Times,serif" font-size="14.00">0..1</text>
</g>
<!-- AdditionalData -->
<g id="node8" class="node"><title>AdditionalData</title>
<g id="a_node8_23"><a xlink:href="/idmef_parser/IODEF/AdditionalData.html" xlink:title="The AdditionalData class serves as an extension mechanism for information not otherwise represented in the data model. For relatively simple information, atomic data types (e.g., integers, strings) are provided with a mechanism to annotate their meaning. The class can also be used to extend the data model (and the associated Schema) to support proprietary extensions by encapsulating entire XML documents conforming to another Schema (e.g., IDMEF). A detailed discussion for extending the data model and the schema can be found in Section 5. ">
<polygon fill="#997a3d" stroke="none" points="818,-109 818,-130 1001,-130 1001,-109 818,-109"/>
<polygon fill="none" stroke="black" points="818,-109 818,-130 1001,-130 1001,-109 818,-109"/>
<text text-anchor="start" x="867.5" y="-115.8" font-family="Times,serif" font-size="14.00">AdditionalData</text>
</a>
</g>
<g id="a_node8_24"><a xlink:href="/idmef_parser/IODEF/AdditionalData.html" xlink:title="The data type of the element content. &#160;The permitted values for this attribute are shown below. &#160;The default value is &quot;string&quot;.">
<polygon fill="#ffcc66" stroke="none" points="818,-88 818,-109 1001,-109 1001,-88 818,-88"/>
<polygon fill="none" stroke="black" points="818,-88 818,-109 1001,-109 1001,-88 818,-88"/>
<text text-anchor="start" x="834.5" y="-94.8" font-family="Times,serif" font-size="14.00">[ENUM] dtype (Required) </text>
</a>
</g>
<g id="a_node8_25"><a xlink:href="/idmef_parser/IODEF/AdditionalData.html" xlink:title="A means by which to extend the dtype attribute. &#160;See Section 5.1.">
<polygon fill="#ffcc66" stroke="none" points="818,-67 818,-88 1001,-88 1001,-67 818,-67"/>
<polygon fill="none" stroke="black" points="818,-67 818,-88 1001,-88 1001,-67 818,-67"/>
<text text-anchor="start" x="821" y="-73.8" font-family="Times,serif" font-size="14.00">[STRING] ext&#45;dtype (Optional) </text>
</a>
</g>
<g id="a_node8_26"><a xlink:href="/idmef_parser/IODEF/AdditionalData.html" xlink:title="A free&#45;form description of the element content.">
<polygon fill="#ffcc66" stroke="none" points="818,-46 818,-67 1001,-67 1001,-46 818,-46"/>
<polygon fill="none" stroke="black" points="818,-46 818,-67 1001,-67 1001,-46 818,-46"/>
<text text-anchor="start" x="823" y="-52.8" font-family="Times,serif" font-size="14.00">[STRING] meaning (Optional) </text>
</a>
</g>
<g id="a_node8_27"><a xlink:href="/idmef_parser/IODEF/AdditionalData.html" xlink:title="An identifier referencing the format and semantics of the element content.">
<polygon fill="#ffcc66" stroke="none" points="818,-25 818,-46 1001,-46 1001,-25 818,-25"/>
<polygon fill="none" stroke="black" points="818,-25 818,-46 1001,-46 1001,-25 818,-25"/>
<text text-anchor="start" x="823" y="-31.8" font-family="Times,serif" font-size="14.00">[STRING] formatid (Optional) </text>
</a>
</g>
<g id="a_node8_28"><a xlink:href="/idmef_parser/IODEF/AdditionalData.html" xlink:title="This attribute has been defined in Section 3.2.">
<polygon fill="#ffcc66" stroke="none" points="818,-4 818,-25 1001,-25 1001,-4 818,-4"/>
<polygon fill="none" stroke="black" points="818,-4 818,-25 1001,-25 1001,-4 818,-4"/>
<text text-anchor="start" x="823.5" y="-10.8" font-family="Times,serif" font-size="14.00">[ENUM] restriction (Optional) </text>
</a>
</g>
</g>
<!-- HistoryItem&#45;&gt;AdditionalData -->
<g id="edge8" class="edge"><title>HistoryItem&#45;&gt;AdditionalData</title>
<path fill="none" stroke="black" d="M415.442,-152.753C444.055,-123.767 481.335,-92.9139 522,-77 610.602,-42.3269 719.606,-43.0265 799.156,-50.5342"/>
<polygon fill="black" stroke="black" points="798.9,-54.0259 809.197,-51.5326 799.593,-47.0603 798.9,-54.0259"/>
<text text-anchor="middle" x="634" y="-80.8" font-family="Times,serif" font-size="14.00">0..*</text>
</g>
<!-- Contact&#45;&gt;Contact -->
<g id="edge5" class="edge"><title>Contact&#45;&gt;Contact</title>
<path fill="none" stroke="black" d="M613.14,-339.75C617.476,-350.646 624.43,-357.5 634,-357.5 640.58,-357.5 645.922,-354.261 650.028,-348.695"/>
<polygon fill="black" stroke="black" points="653.187,-350.212 654.86,-339.75 647.028,-346.885 653.187,-350.212"/>
<text text-anchor="middle" x="634" y="-361.3" font-family="Times,serif" font-size="14.00">0..*</text>
</g>
<!-- RegistryHandle -->
<g id="node5" class="node"><title>RegistryHandle</title>
<g id="a_node5_29"><a xlink:href="/idmef_parser/IODEF/RegistryHandle.html" xlink:title="The RegistryHandle class represents a handle into an Internet registry or community&#45;specific database. The handle is specified in the element content and the type attribute specifies the database. ">
<polygon fill="#7a993d" stroke="none" points="812,-355 812,-376 1006,-376 1006,-355 812,-355"/>
<polygon fill="none" stroke="black" points="812,-355 812,-376 1006,-376 1006,-355 812,-355"/>
<text text-anchor="start" x="866.5" y="-361.8" font-family="Times,serif" font-size="14.00">RegistryHandle</text>
</a>
</g>
<g id="a_node5_30"><a xlink:href="/idmef_parser/IODEF/RegistryHandle.html" xlink:title="The database to which the handle belongs. &#160;The default value is &#39;local&#39;. &#160;The possible values are:">
<polygon fill="#ccff66" stroke="none" points="812,-334 812,-355 1006,-355 1006,-334 812,-334"/>
<polygon fill="none" stroke="black" points="812,-334 812,-355 1006,-355 1006,-334 812,-334"/>
<text text-anchor="start" x="828.5" y="-340.8" font-family="Times,serif" font-size="14.00">[ENUM] registry (Required) </text>
</a>
</g>
<g id="a_node5_31"><a xlink:href="/idmef_parser/IODEF/RegistryHandle.html" xlink:title="A means by which to extend the registry attribute. &#160;See Section 5.1.">
<polygon fill="#ccff66" stroke="none" points="812,-313 812,-334 1006,-334 1006,-313 812,-313"/>
<polygon fill="none" stroke="black" points="812,-313 812,-334 1006,-334 1006,-313 812,-313"/>
<text text-anchor="start" x="815" y="-319.8" font-family="Times,serif" font-size="14.00">[STRING] ext&#45;registry (Optional) </text>
</a>
</g>
</g>
<!-- Contact&#45;&gt;RegistryHandle -->
<g id="edge2" class="edge"><title>Contact&#45;&gt;RegistryHandle</title>
<path fill="none" stroke="black" d="M746.015,-274.116C765.277,-283.245 785.166,-292.508 804,-301 807.179,-302.434 810.419,-303.88 813.695,-305.331"/>
<polygon fill="black" stroke="black" points="812.442,-308.604 823.005,-309.426 815.26,-302.196 812.442,-308.604"/>
<text text-anchor="middle" x="775" y="-295.8" font-family="Times,serif" font-size="14.00">0..*</text>
</g>
<!-- PostalAddress -->
<g id="node6" class="node"><title>PostalAddress</title>
<g id="a_node6_32"><a xlink:href="/idmef_parser/IODEF/PostalAddress.html" xlink:title="The PostalAddress class specifies a postal address formatted according to the POSTAL data type (Section 2.11). ">
<polygon fill="#7a993d" stroke="none" points="824,-266 824,-287 995,-287 995,-266 824,-266"/>
<polygon fill="none" stroke="black" points="824,-266 824,-287 995,-287 995,-266 824,-266"/>
<text text-anchor="start" x="870.5" y="-272.8" font-family="Times,serif" font-size="14.00">PostalAddress</text>
</a>
</g>
<g id="a_node6_33"><a xlink:href="/idmef_parser/IODEF/PostalAddress.html" xlink:title="A free&#45;form description of the element content.">
<polygon fill="#ccff66" stroke="none" points="824,-245 824,-266 995,-266 995,-245 824,-245"/>
<polygon fill="none" stroke="black" points="824,-245 824,-266 995,-266 995,-245 824,-245"/>
<text text-anchor="start" x="827" y="-251.8" font-family="Times,serif" font-size="14.00">[ENUM] meaning (Optional) </text>
</a>
</g>
<g id="a_node6_34"><a xlink:href="/idmef_parser/IODEF/PostalAddress.html" xlink:title="A valid language code per RFC 4646 [7] constrained by the definition of &quot;xs:language&quot;. &#160;The interpretation of this code is described in Section 6.">
<polygon fill="#ccff66" stroke="none" points="824,-224 824,-245 995,-245 995,-224 824,-224"/>
<polygon fill="none" stroke="black" points="824,-224 824,-245 995,-245 995,-224 824,-224"/>
<text text-anchor="start" x="838" y="-230.8" font-family="Times,serif" font-size="14.00">[ENUM] lang (Required) </text>
</a>
</g>
</g>
<!-- Contact&#45;&gt;PostalAddress -->
<g id="edge3" class="edge"><title>Contact&#45;&gt;PostalAddress</title>
<path fill="none" stroke="black" d="M746.04,-234.643C765.65,-237.229 785.987,-239.91 805.354,-242.464"/>
<polygon fill="black" stroke="black" points="805.012,-245.949 815.384,-243.787 805.928,-239.01 805.012,-245.949"/>
<text text-anchor="middle" x="775" y="-242.8" font-family="Times,serif" font-size="14.00">0..1</text>
</g>
<!-- Email -->
<g id="node7" class="node"><title>Email</title>
<g id="a_node7_35"><a xlink:href="/idmef_parser/IODEF/Email.html" xlink:title="The Email class specifies an email address formatted according to EMAIL data type (Section 2.14). ">
<polygon fill="#7a993d" stroke="none" points="824,-177 824,-198 995,-198 995,-177 824,-177"/>
<polygon fill="none" stroke="black" points="824,-177 824,-198 995,-198 995,-177 824,-177"/>
<text text-anchor="start" x="892.5" y="-183.8" font-family="Times,serif" font-size="14.00">Email</text>
</a>
</g>
<g id="a_node7_36"><a xlink:href="/idmef_parser/IODEF/Email.html" xlink:title="A free&#45;form description of the element content (e.g., hours of coverage for a given number).">
<polygon fill="#ccff66" stroke="none" points="824,-156 824,-177 995,-177 995,-156 824,-156"/>
<polygon fill="none" stroke="black" points="824,-156 824,-177 995,-177 995,-156 824,-156"/>
<text text-anchor="start" x="827" y="-162.8" font-family="Times,serif" font-size="14.00">[ENUM] meaning (Optional) </text>
</a>
</g>
</g>
<!-- Contact&#45;&gt;Email -->
<g id="edge4" class="edge"><title>Contact&#45;&gt;Email</title>
<path fill="none" stroke="black" d="M746.04,-202.51C765.65,-199.421 785.987,-196.218 805.354,-193.168"/>
<polygon fill="black" stroke="black" points="806.051,-196.601 815.384,-191.588 804.961,-189.686 806.051,-196.601"/>
<text text-anchor="middle" x="775" y="-202.8" font-family="Times,serif" font-size="14.00">0..*</text>
</g>
<!-- Contact&#45;&gt;AdditionalData -->
<g id="edge6" class="edge"><title>Contact&#45;&gt;AdditionalData</title>
<path fill="none" stroke="black" d="M746.04,-157.769C764.054,-147.673 782.681,-137.233 800.607,-127.187"/>
<polygon fill="black" stroke="black" points="802.332,-130.233 809.344,-122.291 798.91,-124.126 802.332,-130.233"/>
<text text-anchor="middle" x="775" y="-147.8" font-family="Times,serif" font-size="14.00">0..*</text>
</g>
</g>
</svg>
