<?xml version="1.0" encoding="UTF-8" standalone="no"?>
<!DOCTYPE svg PUBLIC "-//W3C//DTD SVG 1.1//EN"
 "http://www.w3.org/Graphics/SVG/1.1/DTD/svg11.dtd">
<!-- Generated by graphviz version 2.38.0 (20140413.2041)
 -->
<!-- Title: Impact Pages: 1 -->
<svg width="209pt" height="142pt"
 viewBox="0.00 0.00 209.00 142.00" xmlns="http://www.w3.org/2000/svg" xmlns:xlink="http://www.w3.org/1999/xlink">
<g id="graph0" class="graph" transform="scale(1 1) rotate(0) translate(4 138)">
<title>Impact</title>
<polygon fill="white" stroke="none" points="-4,4 -4,-138 205,-138 205,4 -4,4"/>
<!-- Impact -->
<g id="node1" class="node"><title>Impact</title>
<g id="a_node1_0"><a xlink:href="/idmef_parser/IODEF/Impact.html" xlink:title="The Impact class allows for categorizing and describing the technical impact of the incident on the network of an organization. ">
<polygon fill="#993016" stroke="none" points="8.5,-109 8.5,-130 193.5,-130 193.5,-109 8.5,-109"/>
<polygon fill="none" stroke="black" points="8.5,-109 8.5,-130 193.5,-130 193.5,-109 8.5,-109"/>
<text text-anchor="start" x="81.5" y="-115.8" font-family="Times,serif" font-size="14.00">Impact</text>
</a>
</g>
<g id="a_node1_1"><a xlink:href="/idmef_parser/IODEF/Impact.html" xlink:title="A valid language code per RFC 4646 [7] constrained by the definition of &quot;xs:language&quot;. &#160;The interpretation of this code is described in Section 6.">
<polygon fill="#ff5024" stroke="none" points="8.5,-88 8.5,-109 193.5,-109 193.5,-88 8.5,-88"/>
<polygon fill="none" stroke="black" points="8.5,-88 8.5,-109 193.5,-109 193.5,-88 8.5,-88"/>
<text text-anchor="start" x="29.5" y="-94.8" font-family="Times,serif" font-size="14.00">[ENUM] lang (Required) </text>
</a>
</g>
<g id="a_node1_2"><a xlink:href="/idmef_parser/IODEF/Impact.html" xlink:title="An estimate of the relative severity of the activity. &#160;The permitted values are shown below. &#160;There is no default value.">
<polygon fill="#ff5024" stroke="none" points="8.5,-67 8.5,-88 193.5,-88 193.5,-67 8.5,-67"/>
<polygon fill="none" stroke="black" points="8.5,-67 8.5,-88 193.5,-88 193.5,-67 8.5,-67"/>
<text text-anchor="start" x="21" y="-73.8" font-family="Times,serif" font-size="14.00">[ENUM] severity (Optional) </text>
</a>
</g>
<g id="a_node1_3"><a xlink:href="/idmef_parser/IODEF/Impact.html" xlink:title="An indication whether the described activity was successful. &#160;The permitted values are shown below. &#160;There is no default value.">
<polygon fill="#ff5024" stroke="none" points="8.5,-46 8.5,-67 193.5,-67 193.5,-46 8.5,-46"/>
<polygon fill="none" stroke="black" points="8.5,-46 8.5,-67 193.5,-67 193.5,-46 8.5,-46"/>
<text text-anchor="start" x="11.5" y="-52.8" font-family="Times,serif" font-size="14.00">[ENUM] completion (Optional) </text>
</a>
</g>
<g id="a_node1_4"><a xlink:href="/idmef_parser/IODEF/Impact.html" xlink:title="Classifies the malicious activity into incident categories. &#160;The permitted values are shown below. &#160;The default value is &quot;other&quot;.">
<polygon fill="#ff5024" stroke="none" points="8.5,-25 8.5,-46 193.5,-46 193.5,-25 8.5,-25"/>
<polygon fill="none" stroke="black" points="8.5,-25 8.5,-46 193.5,-46 193.5,-25 8.5,-25"/>
<text text-anchor="start" x="29.5" y="-31.8" font-family="Times,serif" font-size="14.00">[ENUM] type (Required) </text>
</a>
</g>
<g id="a_node1_5"><a xlink:href="/idmef_parser/IODEF/Impact.html" xlink:title="A means by which to extend the type attribute. See Section 5.1.">
<polygon fill="#ff5024" stroke="none" points="8.5,-4 8.5,-25 193.5,-25 193.5,-4 8.5,-4"/>
<polygon fill="none" stroke="black" points="8.5,-4 8.5,-25 193.5,-25 193.5,-4 8.5,-4"/>
<text text-anchor="start" x="16" y="-10.8" font-family="Times,serif" font-size="14.00">[STRING] ext&#45;type (Optional) </text>
</a>
</g>
</g>
</g>
</svg>
