<?xml version="1.0" encoding="UTF-8" standalone="no"?>
<!DOCTYPE svg PUBLIC "-//W3C//DTD SVG 1.1//EN"
 "http://www.w3.org/Graphics/SVG/1.1/DTD/svg11.dtd">
<!-- Generated by graphviz version 2.38.0 (20140413.2041)
 -->
<!-- Title: Node Pages: 1 -->
<svg width="493pt" height="363pt"
 viewBox="0.00 0.00 493.00 363.00" xmlns="http://www.w3.org/2000/svg" xmlns:xlink="http://www.w3.org/1999/xlink">
<g id="graph0" class="graph" transform="scale(1 1) rotate(0) translate(4 359)">
<title>Node</title>
<polygon fill="white" stroke="none" points="-4,4 -4,-359 489,-359 489,4 -4,4"/>
<!-- Node -->
<g id="node1" class="node"><title>Node</title>
<g id="a_node1_0"><a xlink:href="/idmef_parser/IODEF/Node.html" xlink:title="The Node class names a system (e.g., PC, router) or network. ">
<polygon fill="#182f5f" stroke="none" points="8,-198.5 8,-219.5 204,-219.5 204,-198.5 8,-198.5"/>
<polygon fill="none" stroke="black" points="8,-198.5 8,-219.5 204,-219.5 204,-198.5 8,-198.5"/>
<text text-anchor="start" x="91" y="-205.3" font-family="Times,serif" font-size="14.00">Node</text>
</a>
</g>
<g id="a_node1_1"><a xlink:href="/idmef_parser/IODEF/Node.html" xlink:title="The name of the Node (e.g., fully qualified domain name). &#160;This information MUST be provided if no Address information is given.">
<polygon fill="#284f9f" stroke="none" points="8,-177.5 8,-198.5 204,-198.5 204,-177.5 8,-177.5"/>
<polygon fill="none" stroke="black" points="8,-177.5 8,-198.5 204,-198.5 204,-177.5 8,-177.5"/>
<text text-anchor="start" x="11" y="-184.3" font-family="Times,serif" font-size="14.00">[ML_STRING] NodeName (0..*) </text>
</a>
</g>
<g id="a_node1_2"><a xlink:href="/idmef_parser/IODEF/Node.html" xlink:title="A free&#45;from description of the physical location of the equipment.">
<polygon fill="#284f9f" stroke="none" points="8,-156.5 8,-177.5 204,-177.5 204,-156.5 8,-156.5"/>
<polygon fill="none" stroke="black" points="8,-156.5 8,-177.5 204,-177.5 204,-156.5 8,-156.5"/>
<text text-anchor="start" x="18.5" y="-163.3" font-family="Times,serif" font-size="14.00">[ML_STRING] Location (0..1) </text>
</a>
</g>
<g id="a_node1_3"><a xlink:href="/idmef_parser/IODEF/Node.html" xlink:title="A timestamp of when the resolution between the name and address was performed. &#160;This information SHOULD be provided if both an Address and NodeName are specified.">
<polygon fill="#284f9f" stroke="none" points="8,-135.5 8,-156.5 204,-156.5 204,-135.5 8,-135.5"/>
<polygon fill="none" stroke="black" points="8,-135.5 8,-156.5 204,-156.5 204,-135.5 8,-135.5"/>
<text text-anchor="start" x="53" y="-142.3" font-family="Times,serif" font-size="14.00">[] DateTime (0..1) </text>
</a>
</g>
</g>
<!-- Address -->
<g id="node2" class="node"><title>Address</title>
<g id="a_node2_4"><a xlink:href="/idmef_parser/IODEF/Address.html" xlink:title="The Address class represents a hardware (layer&#45;2), network (layer&#45;3), or application (layer&#45;7) address. ">
<polygon fill="#182f5f" stroke="none" points="278.5,-329.5 278.5,-350.5 477.5,-350.5 477.5,-329.5 278.5,-329.5"/>
<polygon fill="none" stroke="black" points="278.5,-329.5 278.5,-350.5 477.5,-350.5 477.5,-329.5 278.5,-329.5"/>
<text text-anchor="start" x="355.5" y="-336.3" font-family="Times,serif" font-size="14.00">Address</text>
</a>
</g>
<g id="a_node2_5"><a xlink:href="/idmef_parser/IODEF/Address.html" xlink:title="The type of address represented. &#160;The permitted values for this attribute are shown below. &#160;The default value is &quot;ipv4&#45;addr&quot;.">
<polygon fill="#284f9f" stroke="none" points="278.5,-308.5 278.5,-329.5 477.5,-329.5 477.5,-308.5 278.5,-308.5"/>
<polygon fill="none" stroke="black" points="278.5,-308.5 278.5,-329.5 477.5,-329.5 477.5,-308.5 278.5,-308.5"/>
<text text-anchor="start" x="295" y="-315.3" font-family="Times,serif" font-size="14.00">[ENUM] category (Required) </text>
</a>
</g>
<g id="a_node2_6"><a xlink:href="/idmef_parser/IODEF/Address.html" xlink:title="A means by which to extend the category attribute. &#160;See Section 5.1.">
<polygon fill="#284f9f" stroke="none" points="278.5,-287.5 278.5,-308.5 477.5,-308.5 477.5,-287.5 278.5,-287.5"/>
<polygon fill="none" stroke="black" points="278.5,-287.5 278.5,-308.5 477.5,-308.5 477.5,-287.5 278.5,-287.5"/>
<text text-anchor="start" x="281.5" y="-294.3" font-family="Times,serif" font-size="14.00">[STRING] ext&#45;category (Optional) </text>
</a>
</g>
<g id="a_node2_7"><a xlink:href="/idmef_parser/IODEF/Address.html" xlink:title="The name of the Virtual LAN to which the address belongs.">
<polygon fill="#284f9f" stroke="none" points="278.5,-266.5 278.5,-287.5 477.5,-287.5 477.5,-266.5 278.5,-266.5"/>
<polygon fill="none" stroke="black" points="278.5,-266.5 278.5,-287.5 477.5,-287.5 477.5,-266.5 278.5,-266.5"/>
<text text-anchor="start" x="286" y="-273.3" font-family="Times,serif" font-size="14.00">[STRING] vlan&#45;name (Optional) </text>
</a>
</g>
<g id="a_node2_8"><a xlink:href="/idmef_parser/IODEF/Address.html" xlink:title="The number of the Virtual LAN to which the address belongs.">
<polygon fill="#284f9f" stroke="none" points="278.5,-245.5 278.5,-266.5 477.5,-266.5 477.5,-245.5 278.5,-245.5"/>
<polygon fill="none" stroke="black" points="278.5,-245.5 278.5,-266.5 477.5,-266.5 477.5,-245.5 278.5,-245.5"/>
<text text-anchor="start" x="289" y="-252.3" font-family="Times,serif" font-size="14.00">[STRING] vlan&#45;num (Optional) </text>
</a>
</g>
</g>
<!-- Node&#45;&gt;Address -->
<g id="edge1" class="edge"><title>Node&#45;&gt;Address</title>
<path fill="none" stroke="black" d="M209.655,-223.59C226.222,-231.028 243.477,-238.775 260.335,-246.344"/>
<polygon fill="black" stroke="black" points="259.098,-249.625 269.654,-250.528 261.965,-243.239 259.098,-249.625"/>
<text text-anchor="middle" x="241" y="-245.3" font-family="Times,serif" font-size="14.00">0..*</text>
</g>
<!-- NodeRole -->
<g id="node3" class="node"><title>NodeRole</title>
<g id="a_node3_9"><a xlink:href="/idmef_parser/IODEF/NodeRole.html" xlink:title="The NodeRole class describes the intended function performed by a particular host. ">
<polygon fill="#182f5f" stroke="none" points="278.5,-198.5 278.5,-219.5 477.5,-219.5 477.5,-198.5 278.5,-198.5"/>
<polygon fill="none" stroke="black" points="278.5,-198.5 278.5,-219.5 477.5,-219.5 477.5,-198.5 278.5,-198.5"/>
<text text-anchor="start" x="350.5" y="-205.3" font-family="Times,serif" font-size="14.00">NodeRole</text>
</a>
</g>
<g id="a_node3_10"><a xlink:href="/idmef_parser/IODEF/NodeRole.html" xlink:title="Functionality provided by a node.">
<polygon fill="#284f9f" stroke="none" points="278.5,-177.5 278.5,-198.5 477.5,-198.5 477.5,-177.5 278.5,-177.5"/>
<polygon fill="none" stroke="black" points="278.5,-177.5 278.5,-198.5 477.5,-198.5 477.5,-177.5 278.5,-177.5"/>
<text text-anchor="start" x="295" y="-184.3" font-family="Times,serif" font-size="14.00">[ENUM] category (Required) </text>
</a>
</g>
<g id="a_node3_11"><a xlink:href="/idmef_parser/IODEF/NodeRole.html" xlink:title="A means by which to extend the category attribute. &#160;See Section 5.1.">
<polygon fill="#284f9f" stroke="none" points="278.5,-156.5 278.5,-177.5 477.5,-177.5 477.5,-156.5 278.5,-156.5"/>
<polygon fill="none" stroke="black" points="278.5,-156.5 278.5,-177.5 477.5,-177.5 477.5,-156.5 278.5,-156.5"/>
<text text-anchor="start" x="281.5" y="-163.3" font-family="Times,serif" font-size="14.00">[STRING] ext&#45;category (Optional) </text>
</a>
</g>
<g id="a_node3_12"><a xlink:href="/idmef_parser/IODEF/NodeRole.html" xlink:title="A valid language code per RFC 4646 [7] constrained by the definition of &quot;xs:language&quot;. &#160;The interpretation of this code is described in Section 6.">
<polygon fill="#284f9f" stroke="none" points="278.5,-135.5 278.5,-156.5 477.5,-156.5 477.5,-135.5 278.5,-135.5"/>
<polygon fill="none" stroke="black" points="278.5,-135.5 278.5,-156.5 477.5,-156.5 477.5,-135.5 278.5,-135.5"/>
<text text-anchor="start" x="306.5" y="-142.3" font-family="Times,serif" font-size="14.00">[ENUM] lang (Required) </text>
</a>
</g>
</g>
<!-- Node&#45;&gt;NodeRole -->
<g id="edge2" class="edge"><title>Node&#45;&gt;NodeRole</title>
<path fill="none" stroke="black" d="M212.354,-177.5C227.855,-177.5 243.902,-177.5 259.618,-177.5"/>
<polygon fill="black" stroke="black" points="259.89,-181 269.89,-177.5 259.89,-174 259.89,-181"/>
<text text-anchor="middle" x="241" y="-181.3" font-family="Times,serif" font-size="14.00">0..*</text>
</g>
<!-- Counter -->
<g id="node4" class="node"><title>Counter</title>
<g id="a_node4_13"><a xlink:href="/idmef_parser/IODEF/Counter.html" xlink:title="The Counter class summarize multiple occurrences of some event, or conveys counts or rates on various features (e.g., packets, sessions, events). ">
<polygon fill="#993016" stroke="none" points="278.5,-87.5 278.5,-108.5 476.5,-108.5 476.5,-87.5 278.5,-87.5"/>
<polygon fill="none" stroke="black" points="278.5,-87.5 278.5,-108.5 476.5,-108.5 476.5,-87.5 278.5,-87.5"/>
<text text-anchor="start" x="355.5" y="-94.3" font-family="Times,serif" font-size="14.00">Counter</text>
</a>
</g>
<g id="a_node4_14"><a xlink:href="/idmef_parser/IODEF/Counter.html" xlink:title="Specifies the units of the element content.">
<polygon fill="#ff5024" stroke="none" points="278.5,-66.5 278.5,-87.5 476.5,-87.5 476.5,-66.5 278.5,-66.5"/>
<polygon fill="none" stroke="black" points="278.5,-66.5 278.5,-87.5 476.5,-87.5 476.5,-66.5 278.5,-66.5"/>
<text text-anchor="start" x="306" y="-73.3" font-family="Times,serif" font-size="14.00">[ENUM] type (Required) </text>
</a>
</g>
<g id="a_node4_15"><a xlink:href="/idmef_parser/IODEF/Counter.html" xlink:title="A means by which to extend the type attribute. See Section 5.1.">
<polygon fill="#ff5024" stroke="none" points="278.5,-45.5 278.5,-66.5 476.5,-66.5 476.5,-45.5 278.5,-45.5"/>
<polygon fill="none" stroke="black" points="278.5,-45.5 278.5,-66.5 476.5,-66.5 476.5,-45.5 278.5,-45.5"/>
<text text-anchor="start" x="292.5" y="-52.3" font-family="Times,serif" font-size="14.00">[STRING] ext&#45;type (Optional) </text>
</a>
</g>
<g id="a_node4_16"><a xlink:href="/idmef_parser/IODEF/Counter.html" xlink:title="If present, the Counter class represents a rate rather than a count over the entire event. &#160;In that case, this attribute specifies the denominator of the rate (where the type attribute specified the nominator). &#160;The possible values of this attribute are defined in Section 3.10.2">
<polygon fill="#ff5024" stroke="none" points="278.5,-24.5 278.5,-45.5 476.5,-45.5 476.5,-24.5 278.5,-24.5"/>
<polygon fill="none" stroke="black" points="278.5,-24.5 278.5,-45.5 476.5,-45.5 476.5,-24.5 278.5,-24.5"/>
<text text-anchor="start" x="296" y="-31.3" font-family="Times,serif" font-size="14.00">[ENUM] duration (Optional) </text>
</a>
</g>
<g id="a_node4_17"><a xlink:href="/idmef_parser/IODEF/Counter.html" xlink:title="A means by which to extend the duration attribute. &#160;See Section 5.1.">
<polygon fill="#ff5024" stroke="none" points="278.5,-3.5 278.5,-24.5 476.5,-24.5 476.5,-3.5 278.5,-3.5"/>
<polygon fill="none" stroke="black" points="278.5,-3.5 278.5,-24.5 476.5,-24.5 476.5,-3.5 278.5,-3.5"/>
<text text-anchor="start" x="281.5" y="-10.3" font-family="Times,serif" font-size="14.00">[STRING] ext&#45;duration (Optional) </text>
</a>
</g>
</g>
<!-- Node&#45;&gt;Counter -->
<g id="edge3" class="edge"><title>Node&#45;&gt;Counter</title>
<path fill="none" stroke="black" d="M209.655,-131.41C226.348,-123.915 243.738,-116.107 260.719,-108.484"/>
<polygon fill="black" stroke="black" points="262.414,-111.559 270.103,-104.27 259.547,-105.173 262.414,-111.559"/>
<text text-anchor="middle" x="241" y="-125.3" font-family="Times,serif" font-size="14.00">0..*</text>
</g>
</g>
</svg>
