<?xml version="1.0" encoding="UTF-8" standalone="no"?>
<!DOCTYPE svg PUBLIC "-//W3C//DTD SVG 1.1//EN"
 "http://www.w3.org/Graphics/SVG/1.1/DTD/svg11.dtd">
<!-- Generated by graphviz version 2.38.0 (20140413.2041)
 -->
<!-- Title: NodeRole Pages: 1 -->
<svg width="223pt" height="100pt"
 viewBox="0.00 0.00 223.00 100.00" xmlns="http://www.w3.org/2000/svg" xmlns:xlink="http://www.w3.org/1999/xlink">
<g id="graph0" class="graph" transform="scale(1 1) rotate(0) translate(4 96)">
<title>NodeRole</title>
<polygon fill="white" stroke="none" points="-4,4 -4,-96 219,-96 219,4 -4,4"/>
<!-- NodeRole -->
<g id="node1" class="node"><title>NodeRole</title>
<g id="a_node1_0"><a xlink:href="/idmef_parser/IODEF/NodeRole.html" xlink:title="The NodeRole class describes the intended function performed by a particular host. ">
<polygon fill="#182f5f" stroke="none" points="8.5,-67 8.5,-88 207.5,-88 207.5,-67 8.5,-67"/>
<polygon fill="none" stroke="black" points="8.5,-67 8.5,-88 207.5,-88 207.5,-67 8.5,-67"/>
<text text-anchor="start" x="80.5" y="-73.8" font-family="Times,serif" font-size="14.00">NodeRole</text>
</a>
</g>
<g id="a_node1_1"><a xlink:href="/idmef_parser/IODEF/NodeRole.html" xlink:title="Functionality provided by a node.">
<polygon fill="#284f9f" stroke="none" points="8.5,-46 8.5,-67 207.5,-67 207.5,-46 8.5,-46"/>
<polygon fill="none" stroke="black" points="8.5,-46 8.5,-67 207.5,-67 207.5,-46 8.5,-46"/>
<text text-anchor="start" x="25" y="-52.8" font-family="Times,serif" font-size="14.00">[ENUM] category (Required) </text>
</a>
</g>
<g id="a_node1_2"><a xlink:href="/idmef_parser/IODEF/NodeRole.html" xlink:title="A means by which to extend the category attribute. &#160;See Section 5.1.">
<polygon fill="#284f9f" stroke="none" points="8.5,-25 8.5,-46 207.5,-46 207.5,-25 8.5,-25"/>
<polygon fill="none" stroke="black" points="8.5,-25 8.5,-46 207.5,-46 207.5,-25 8.5,-25"/>
<text text-anchor="start" x="11.5" y="-31.8" font-family="Times,serif" font-size="14.00">[STRING] ext&#45;category (Optional) </text>
</a>
</g>
<g id="a_node1_3"><a xlink:href="/idmef_parser/IODEF/NodeRole.html" xlink:title="A valid language code per RFC 4646 [7] constrained by the definition of &quot;xs:language&quot;. &#160;The interpretation of this code is described in Section 6.">
<polygon fill="#284f9f" stroke="none" points="8.5,-4 8.5,-25 207.5,-25 207.5,-4 8.5,-4"/>
<polygon fill="none" stroke="black" points="8.5,-4 8.5,-25 207.5,-25 207.5,-4 8.5,-4"/>
<text text-anchor="start" x="36.5" y="-10.8" font-family="Times,serif" font-size="14.00">[ENUM] lang (Required) </text>
</a>
</g>
</g>
</g>
</svg>
