<?xml version="1.0" encoding="UTF-8" standalone="no"?>
<!DOCTYPE svg PUBLIC "-//W3C//DTD SVG 1.1//EN"
 "http://www.w3.org/Graphics/SVG/1.1/DTD/svg11.dtd">
<!-- Generated by graphviz version 2.26.3 (20100126.1600)
 -->
<!-- Title: RecordData Pages: 1 -->
<svg width="582pt" height="562pt"
 viewBox="0.00 0.00 582.00 562.00" xmlns="http://www.w3.org/2000/svg" xmlns:xlink="http://www.w3.org/1999/xlink">
<g id="graph1" class="graph" transform="scale(1 1) rotate(0) translate(4 558)">
<title>RecordData</title>
<polygon fill="white" stroke="white" points="-4,5 -4,-558 579,-558 579,5 -4,5"/>
<!-- RecordData -->
<g id="node1" class="node"><title>RecordData</title>
<a xlink:href="#" xlink:title="The RecordData class groups log or audit data from a given sensor (e.g., IDS, firewall log) and provides a way to annotate the output. ">
<polygon fill="#cecece" stroke="#cecece" points="9,-238 9,-259 236,-259 236,-238 9,-238"/>
<polygon fill="none" stroke="black" points="9,-238 9,-259 236,-259 236,-238 9,-238"/>
<text text-anchor="start" x="82" y="-245.233" font-family="Times Roman,serif" font-size="14.00">RecordData</text>
</a>
<a xlink:href="#" xlink:title="Timestamp of the RecordItem data.">
<polygon fill="none" stroke="black" points="9,-218 9,-238 236,-238 236,-218 9,-218"/>
<text text-anchor="start" x="58" y="-224.733" font-family="Times Roman,serif" font-size="14.00">[] DateTime (0..1) </text>
</a>
<a xlink:href="#" xlink:title="Free&#45;form textual description of the provided RecordItem data. &#160;At minimum, this description should convey the significance of the provided RecordItem data.">
<polygon fill="none" stroke="black" points="9,-198 9,-218 236,-218 236,-198 9,-198"/>
<text text-anchor="start" x="12.5" y="-204.733" font-family="Times Roman,serif" font-size="14.00">[ML_STRING] Description (0..*) </text>
</a>
<a xlink:href="#" xlink:title="This attribute has been defined in Section 3.2.">
<polygon fill="none" stroke="black" points="9,-178 9,-198 236,-198 236,-178 9,-178"/>
<text text-anchor="start" x="19.5" y="-184.733" font-family="Times Roman,serif" font-size="14.00">[ENUM] restriction (Optional) </text>
</a>
</g>
<!-- Application -->
<g id="node2" class="node"><title>Application</title>
<a xlink:href="#" xlink:title="The Application class describes an application running on a System providing a Service. ">
<polygon fill="#cecece" stroke="#cecece" points="338,-529 338,-550 545,-550 545,-529 338,-529"/>
<polygon fill="none" stroke="black" points="338,-529 338,-550 545,-550 545,-529 338,-529"/>
<text text-anchor="start" x="403.5" y="-536.233" font-family="Times Roman,serif" font-size="14.00">Application</text>
</a>
<a xlink:href="#" xlink:title="A URL describing the application.">
<polygon fill="none" stroke="black" points="338,-509 338,-529 545,-529 545,-509 338,-509"/>
<text text-anchor="start" x="382" y="-515.733" font-family="Times Roman,serif" font-size="14.00">[URL] URL (0..1) </text>
</a>
<a xlink:href="#" xlink:title="An identifier that can be used to reference this software.">
<polygon fill="none" stroke="black" points="338,-489 338,-509 545,-509 545,-489 338,-489"/>
<text text-anchor="start" x="352" y="-495.733" font-family="Times Roman,serif" font-size="14.00">[STRING] swid (Optional) </text>
</a>
<a xlink:href="#" xlink:title="An identifier that can be used to reference a particular configuration of this software.">
<polygon fill="none" stroke="black" points="338,-469 338,-489 545,-489 545,-469 338,-469"/>
<text text-anchor="start" x="341.5" y="-475.733" font-family="Times Roman,serif" font-size="14.00">[STRING] configid (Optional) </text>
</a>
<a xlink:href="#" xlink:title="Vendor name of the software.">
<polygon fill="none" stroke="black" points="338,-449 338,-469 545,-469 545,-449 338,-449"/>
<text text-anchor="start" x="343.5" y="-455.733" font-family="Times Roman,serif" font-size="14.00">[STRING] vendor (Optional) </text>
</a>
<a xlink:href="#" xlink:title="Family of the software.">
<polygon fill="none" stroke="black" points="338,-429 338,-449 545,-449 545,-429 338,-429"/>
<text text-anchor="start" x="347" y="-435.733" font-family="Times Roman,serif" font-size="14.00">[STRING] family (Optional) </text>
</a>
<a xlink:href="#" xlink:title="Name of the software.">
<polygon fill="none" stroke="black" points="338,-409 338,-429 545,-429 545,-409 338,-409"/>
<text text-anchor="start" x="348.5" y="-415.733" font-family="Times Roman,serif" font-size="14.00">[STRING] name (Optional) </text>
</a>
<a xlink:href="#" xlink:title="Version of the software.">
<polygon fill="none" stroke="black" points="338,-389 338,-409 545,-409 545,-389 338,-389"/>
<text text-anchor="start" x="342.5" y="-395.733" font-family="Times Roman,serif" font-size="14.00">[STRING] version (Optional) </text>
</a>
<a xlink:href="#" xlink:title="Patch or service pack level of the software.">
<polygon fill="none" stroke="black" points="338,-369 338,-389 545,-389 545,-369 338,-369"/>
<text text-anchor="start" x="348.5" y="-375.733" font-family="Times Roman,serif" font-size="14.00">[STRING] patch (Optional) </text>
</a>
</g>
<!-- RecordData&#45;&gt;Application -->
<g id="edge2" class="edge"><title>RecordData&#45;&gt;Application</title>
<path fill="none" stroke="black" d="M180.51,-263.203C219.868,-292.938 273.164,-333.202 321.295,-369.565"/>
<polygon fill="black" stroke="black" points="319.193,-372.363 329.282,-375.599 323.413,-366.778 319.193,-372.363"/>
<text text-anchor="middle" x="276" y="-343.4" font-family="Times Roman,serif" font-size="14.00">0..1</text>
</g>
<!-- RecordPattern -->
<g id="node4" class="node"><title>RecordPattern</title>
<a xlink:href="#" xlink:title="The RecordPattern class describes where in the content of the RecordItem relevant information can be found. It provides a way to reference subsets of information, identified by a pattern, in a large log file, audit trail, or forensic data. ">
<polygon fill="#cecece" stroke="#cecece" points="317,-323 317,-344 566,-344 566,-323 317,-323"/>
<polygon fill="none" stroke="black" points="317,-323 317,-344 566,-344 566,-323 317,-323"/>
<text text-anchor="start" x="392" y="-330.233" font-family="Times Roman,serif" font-size="14.00">RecordPattern</text>
</a>
<a xlink:href="#" xlink:title="Describes the type of pattern being specified in the element content. &#160;The default is &quot;regex&quot;.">
<polygon fill="none" stroke="black" points="317,-303 317,-323 566,-323 566,-303 317,-303"/>
<text text-anchor="start" x="357" y="-309.733" font-family="Times Roman,serif" font-size="14.00">[ENUM] type (Required) </text>
</a>
<a xlink:href="#" xlink:title="A means by which to extend the type attribute. See Section 5.1.">
<polygon fill="none" stroke="black" points="317,-283 317,-303 566,-303 566,-283 317,-283"/>
<text text-anchor="start" x="338.5" y="-289.733" font-family="Times Roman,serif" font-size="14.00">[STRING] ext&#45;type (Optional) </text>
</a>
<a xlink:href="#" xlink:title="Amount of units (determined by the offsetunit attribute) to seek into the RecordItem data before matching the pattern.">
<polygon fill="none" stroke="black" points="317,-263 317,-283 566,-283 566,-263 317,-263"/>
<text text-anchor="start" x="343.5" y="-269.733" font-family="Times Roman,serif" font-size="14.00">[INTEGER] offset (Optional) </text>
</a>
<a xlink:href="#" xlink:title="Describes the units of the offset attribute. The default is &quot;line&quot;.">
<polygon fill="none" stroke="black" points="317,-243 317,-263 566,-263 566,-243 317,-243"/>
<text text-anchor="start" x="340.5" y="-249.733" font-family="Times Roman,serif" font-size="14.00">[ENUM] offsetunit (Optional) </text>
</a>
<a xlink:href="#" xlink:title="A means by which to extend the offsetunit attribute. &#160;See Section 5.1.">
<polygon fill="none" stroke="black" points="317,-223 317,-243 566,-243 566,-223 317,-223"/>
<text text-anchor="start" x="320.5" y="-229.733" font-family="Times Roman,serif" font-size="14.00">[STRING] ext&#45;offsetunit (Optional) </text>
</a>
<a xlink:href="#" xlink:title="Number of types to apply the specified pattern.">
<polygon fill="none" stroke="black" points="317,-203 317,-223 566,-223 566,-203 317,-203"/>
<text text-anchor="start" x="334.5" y="-209.733" font-family="Times Roman,serif" font-size="14.00">[INTEGER] instance (Optional) </text>
</a>
</g>
<!-- RecordData&#45;&gt;RecordPattern -->
<g id="edge4" class="edge"><title>RecordData&#45;&gt;RecordPattern</title>
<path fill="none" stroke="black" d="M243.51,-239.95C261.495,-243.051 280.163,-246.27 298.528,-249.436"/>
<polygon fill="black" stroke="black" points="297.944,-252.887 308.394,-251.137 299.134,-245.989 297.944,-252.887"/>
<text text-anchor="middle" x="276" y="-250.4" font-family="Times Roman,serif" font-size="14.00">0..*</text>
</g>
<!-- RecordItem -->
<g id="node6" class="node"><title>RecordItem</title>
<a xlink:href="#" xlink:title="The RecordItem class provides a way to incorporate relevant logs, audit trails, or forensic data to support the conclusions made during the course of analyzing the incident. The class supports both the direct encapsulation of the data, as well as, provides primitives to reference data stored elsewhere. ">
<polygon fill="#cecece" stroke="#cecece" points="398,-153 398,-174 484,-174 484,-153 398,-153"/>
<polygon fill="none" stroke="black" points="398,-153 398,-174 484,-174 484,-153 398,-153"/>
<text text-anchor="start" x="401.5" y="-160.233" font-family="Times Roman,serif" font-size="14.00">RecordItem</text>
</a>
</g>
<!-- RecordData&#45;&gt;RecordItem -->
<g id="edge6" class="edge"><title>RecordData&#45;&gt;RecordItem</title>
<path fill="none" stroke="black" d="M243.51,-198.05C290.059,-190.024 341.192,-181.208 379.764,-174.558"/>
<polygon fill="black" stroke="black" points="380.531,-177.977 389.791,-172.829 379.342,-171.079 380.531,-177.977"/>
<text text-anchor="middle" x="276" y="-198.4" font-family="Times Roman,serif" font-size="14.00">1..*</text>
</g>
<!-- AdditionalData -->
<g id="node8" class="node"><title>AdditionalData</title>
<a xlink:href="#" xlink:title="The AdditionalData class serves as an extension mechanism for information not otherwise represented in the data model. For relatively simple information, atomic data types (e.g., integers, strings) are provided with a mechanism to annotate their meaning. The class can also be used to extend the data model (and the associated Schema) to support proprietary extensions by encapsulating entire XML documents conforming to another Schema (e.g., IDMEF). A detailed discussion for extending the data model and the schema can be found in Section 5. ">
<polygon fill="#cecece" stroke="#cecece" points="331,-103 331,-124 552,-124 552,-103 331,-103"/>
<polygon fill="none" stroke="black" points="331,-103 331,-124 552,-124 552,-103 331,-103"/>
<text text-anchor="start" x="390" y="-110.233" font-family="Times Roman,serif" font-size="14.00">AdditionalData</text>
</a>
<a xlink:href="#" xlink:title="The data type of the element content. &#160;The permitted values for this attribute are shown below. &#160;The default value is &quot;string&quot;.">
<polygon fill="none" stroke="black" points="331,-83 331,-103 552,-103 552,-83 331,-83"/>
<text text-anchor="start" x="353" y="-89.7333" font-family="Times Roman,serif" font-size="14.00">[ENUM] dtype (Required) </text>
</a>
<a xlink:href="#" xlink:title="A means by which to extend the dtype attribute. &#160;See Section 5.1.">
<polygon fill="none" stroke="black" points="331,-63 331,-83 552,-83 552,-63 331,-63"/>
<text text-anchor="start" x="334.5" y="-69.7333" font-family="Times Roman,serif" font-size="14.00">[STRING] ext&#45;dtype (Optional) </text>
</a>
<a xlink:href="#" xlink:title="A free&#45;form description of the element content.">
<polygon fill="none" stroke="black" points="331,-43 331,-63 552,-63 552,-43 331,-43"/>
<text text-anchor="start" x="338" y="-49.7333" font-family="Times Roman,serif" font-size="14.00">[STRING] meaning (Optional) </text>
</a>
<a xlink:href="#" xlink:title="An identifier referencing the format and semantics of the element content.">
<polygon fill="none" stroke="black" points="331,-23 331,-43 552,-43 552,-23 331,-23"/>
<text text-anchor="start" x="339" y="-29.7333" font-family="Times Roman,serif" font-size="14.00">[STRING] formatid (Optional) </text>
</a>
<a xlink:href="#" xlink:title="This attribute has been defined in Section 3.2.">
<polygon fill="none" stroke="black" points="331,-3 331,-23 552,-23 552,-3 331,-3"/>
<text text-anchor="start" x="338.5" y="-9.73333" font-family="Times Roman,serif" font-size="14.00">[ENUM] restriction (Optional) </text>
</a>
</g>
<!-- RecordData&#45;&gt;AdditionalData -->
<g id="edge8" class="edge"><title>RecordData&#45;&gt;AdditionalData</title>
<path fill="none" stroke="black" d="M212.559,-174.998C243.925,-159.757 279.696,-142.376 313.472,-125.965"/>
<polygon fill="black" stroke="black" points="315.01,-129.109 322.475,-121.591 311.951,-122.813 315.01,-129.109"/>
<text text-anchor="middle" x="276" y="-154.4" font-family="Times Roman,serif" font-size="14.00">0..1</text>
</g>
</g>
</svg>
