<?xml version="1.0" encoding="UTF-8" standalone="no"?>
<!DOCTYPE svg PUBLIC "-//W3C//DTD SVG 1.1//EN"
 "http://www.w3.org/Graphics/SVG/1.1/DTD/svg11.dtd">
<!-- Generated by graphviz version 2.26.3 (20100126.1600)
 -->
<!-- Title: Record Pages: 1 -->
<svg width="874pt" height="562pt"
 viewBox="0.00 0.00 874.00 562.00" xmlns="http://www.w3.org/2000/svg" xmlns:xlink="http://www.w3.org/1999/xlink">
<g id="graph1" class="graph" transform="scale(1 1) rotate(0) translate(4 558)">
<title>Record</title>
<polygon fill="white" stroke="white" points="-4,5 -4,-558 871,-558 871,5 -4,5"/>
<!-- Record -->
<g id="node1" class="node"><title>Record</title>
<a xlink:href="#" xlink:title="The Record class is a container class for log and audit data that provides supportive information about the incident. The source of this data will often be the output of monitoring tools. These logs should substantiate the activity described in the document. ">
<polygon fill="#cecece" stroke="#cecece" points="9,-218 9,-239 222,-239 222,-218 9,-218"/>
<polygon fill="none" stroke="black" points="9,-218 9,-239 222,-239 222,-218 9,-218"/>
<text text-anchor="start" x="92" y="-225.233" font-family="Times Roman,serif" font-size="14.00">Record</text>
</a>
<a xlink:href="#" xlink:title="This attribute has been defined in Section 3.2.">
<polygon fill="none" stroke="black" points="9,-198 9,-218 222,-218 222,-198 9,-198"/>
<text text-anchor="start" x="12.5" y="-204.733" font-family="Times Roman,serif" font-size="14.00">[ENUM] restriction (Optional) </text>
</a>
</g>
<!-- RecordData -->
<g id="node2" class="node"><title>RecordData</title>
<a xlink:href="#" xlink:title="The RecordData class groups log or audit data from a given sensor (e.g., IDS, firewall log) and provides a way to annotate the output. ">
<polygon fill="#cecece" stroke="#cecece" points="301,-238 301,-259 528,-259 528,-238 301,-238"/>
<polygon fill="none" stroke="black" points="301,-238 301,-259 528,-259 528,-238 301,-238"/>
<text text-anchor="start" x="374" y="-245.233" font-family="Times Roman,serif" font-size="14.00">RecordData</text>
</a>
<a xlink:href="#" xlink:title="Timestamp of the RecordItem data.">
<polygon fill="none" stroke="black" points="301,-218 301,-238 528,-238 528,-218 301,-218"/>
<text text-anchor="start" x="350" y="-224.733" font-family="Times Roman,serif" font-size="14.00">[] DateTime (0..1) </text>
</a>
<a xlink:href="#" xlink:title="Free&#45;form textual description of the provided RecordItem data. &#160;At minimum, this description should convey the significance of the provided RecordItem data.">
<polygon fill="none" stroke="black" points="301,-198 301,-218 528,-218 528,-198 301,-198"/>
<text text-anchor="start" x="304.5" y="-204.733" font-family="Times Roman,serif" font-size="14.00">[ML_STRING] Description (0..*) </text>
</a>
<a xlink:href="#" xlink:title="This attribute has been defined in Section 3.2.">
<polygon fill="none" stroke="black" points="301,-178 301,-198 528,-198 528,-178 301,-178"/>
<text text-anchor="start" x="311.5" y="-184.733" font-family="Times Roman,serif" font-size="14.00">[ENUM] restriction (Optional) </text>
</a>
</g>
<!-- Record&#45;&gt;RecordData -->
<g id="edge10" class="edge"><title>Record&#45;&gt;RecordData</title>
<path fill="none" stroke="black" d="M229.746,-219C246.817,-219 264.528,-219 281.92,-219"/>
<polygon fill="black" stroke="black" points="282.116,-222.5 292.116,-219 282.116,-215.5 282.116,-222.5"/>
<text text-anchor="middle" x="261" y="-223.4" font-family="Times Roman,serif" font-size="14.00">1..*</text>
</g>
<!-- Application -->
<g id="node3" class="node"><title>Application</title>
<a xlink:href="#" xlink:title="The Application class describes an application running on a System providing a Service. ">
<polygon fill="#cecece" stroke="#cecece" points="630,-529 630,-550 837,-550 837,-529 630,-529"/>
<polygon fill="none" stroke="black" points="630,-529 630,-550 837,-550 837,-529 630,-529"/>
<text text-anchor="start" x="695.5" y="-536.233" font-family="Times Roman,serif" font-size="14.00">Application</text>
</a>
<a xlink:href="#" xlink:title="A URL describing the application.">
<polygon fill="none" stroke="black" points="630,-509 630,-529 837,-529 837,-509 630,-509"/>
<text text-anchor="start" x="674" y="-515.733" font-family="Times Roman,serif" font-size="14.00">[URL] URL (0..1) </text>
</a>
<a xlink:href="#" xlink:title="An identifier that can be used to reference this software.">
<polygon fill="none" stroke="black" points="630,-489 630,-509 837,-509 837,-489 630,-489"/>
<text text-anchor="start" x="644" y="-495.733" font-family="Times Roman,serif" font-size="14.00">[STRING] swid (Optional) </text>
</a>
<a xlink:href="#" xlink:title="An identifier that can be used to reference a particular configuration of this software.">
<polygon fill="none" stroke="black" points="630,-469 630,-489 837,-489 837,-469 630,-469"/>
<text text-anchor="start" x="633.5" y="-475.733" font-family="Times Roman,serif" font-size="14.00">[STRING] configid (Optional) </text>
</a>
<a xlink:href="#" xlink:title="Vendor name of the software.">
<polygon fill="none" stroke="black" points="630,-449 630,-469 837,-469 837,-449 630,-449"/>
<text text-anchor="start" x="635.5" y="-455.733" font-family="Times Roman,serif" font-size="14.00">[STRING] vendor (Optional) </text>
</a>
<a xlink:href="#" xlink:title="Family of the software.">
<polygon fill="none" stroke="black" points="630,-429 630,-449 837,-449 837,-429 630,-429"/>
<text text-anchor="start" x="639" y="-435.733" font-family="Times Roman,serif" font-size="14.00">[STRING] family (Optional) </text>
</a>
<a xlink:href="#" xlink:title="Name of the software.">
<polygon fill="none" stroke="black" points="630,-409 630,-429 837,-429 837,-409 630,-409"/>
<text text-anchor="start" x="640.5" y="-415.733" font-family="Times Roman,serif" font-size="14.00">[STRING] name (Optional) </text>
</a>
<a xlink:href="#" xlink:title="Version of the software.">
<polygon fill="none" stroke="black" points="630,-389 630,-409 837,-409 837,-389 630,-389"/>
<text text-anchor="start" x="634.5" y="-395.733" font-family="Times Roman,serif" font-size="14.00">[STRING] version (Optional) </text>
</a>
<a xlink:href="#" xlink:title="Patch or service pack level of the software.">
<polygon fill="none" stroke="black" points="630,-369 630,-389 837,-389 837,-369 630,-369"/>
<text text-anchor="start" x="640.5" y="-375.733" font-family="Times Roman,serif" font-size="14.00">[STRING] patch (Optional) </text>
</a>
</g>
<!-- RecordData&#45;&gt;Application -->
<g id="edge2" class="edge"><title>RecordData&#45;&gt;Application</title>
<path fill="none" stroke="black" d="M472.51,-263.203C511.868,-292.938 565.164,-333.202 613.295,-369.565"/>
<polygon fill="black" stroke="black" points="611.193,-372.363 621.282,-375.599 615.413,-366.778 611.193,-372.363"/>
<text text-anchor="middle" x="568" y="-343.4" font-family="Times Roman,serif" font-size="14.00">0..1</text>
</g>
<!-- RecordPattern -->
<g id="node5" class="node"><title>RecordPattern</title>
<a xlink:href="#" xlink:title="The RecordPattern class describes where in the content of the RecordItem relevant information can be found. It provides a way to reference subsets of information, identified by a pattern, in a large log file, audit trail, or forensic data. ">
<polygon fill="#cecece" stroke="#cecece" points="609,-323 609,-344 858,-344 858,-323 609,-323"/>
<polygon fill="none" stroke="black" points="609,-323 609,-344 858,-344 858,-323 609,-323"/>
<text text-anchor="start" x="684" y="-330.233" font-family="Times Roman,serif" font-size="14.00">RecordPattern</text>
</a>
<a xlink:href="#" xlink:title="Describes the type of pattern being specified in the element content. &#160;The default is &quot;regex&quot;.">
<polygon fill="none" stroke="black" points="609,-303 609,-323 858,-323 858,-303 609,-303"/>
<text text-anchor="start" x="649" y="-309.733" font-family="Times Roman,serif" font-size="14.00">[ENUM] type (Required) </text>
</a>
<a xlink:href="#" xlink:title="A means by which to extend the type attribute. See Section 5.1.">
<polygon fill="none" stroke="black" points="609,-283 609,-303 858,-303 858,-283 609,-283"/>
<text text-anchor="start" x="630.5" y="-289.733" font-family="Times Roman,serif" font-size="14.00">[STRING] ext&#45;type (Optional) </text>
</a>
<a xlink:href="#" xlink:title="Amount of units (determined by the offsetunit attribute) to seek into the RecordItem data before matching the pattern.">
<polygon fill="none" stroke="black" points="609,-263 609,-283 858,-283 858,-263 609,-263"/>
<text text-anchor="start" x="635.5" y="-269.733" font-family="Times Roman,serif" font-size="14.00">[INTEGER] offset (Optional) </text>
</a>
<a xlink:href="#" xlink:title="Describes the units of the offset attribute. The default is &quot;line&quot;.">
<polygon fill="none" stroke="black" points="609,-243 609,-263 858,-263 858,-243 609,-243"/>
<text text-anchor="start" x="632.5" y="-249.733" font-family="Times Roman,serif" font-size="14.00">[ENUM] offsetunit (Optional) </text>
</a>
<a xlink:href="#" xlink:title="A means by which to extend the offsetunit attribute. &#160;See Section 5.1.">
<polygon fill="none" stroke="black" points="609,-223 609,-243 858,-243 858,-223 609,-223"/>
<text text-anchor="start" x="612.5" y="-229.733" font-family="Times Roman,serif" font-size="14.00">[STRING] ext&#45;offsetunit (Optional) </text>
</a>
<a xlink:href="#" xlink:title="Number of types to apply the specified pattern.">
<polygon fill="none" stroke="black" points="609,-203 609,-223 858,-223 858,-203 609,-203"/>
<text text-anchor="start" x="626.5" y="-209.733" font-family="Times Roman,serif" font-size="14.00">[INTEGER] instance (Optional) </text>
</a>
</g>
<!-- RecordData&#45;&gt;RecordPattern -->
<g id="edge4" class="edge"><title>RecordData&#45;&gt;RecordPattern</title>
<path fill="none" stroke="black" d="M535.51,-239.95C553.495,-243.051 572.163,-246.27 590.528,-249.436"/>
<polygon fill="black" stroke="black" points="589.944,-252.887 600.394,-251.137 591.134,-245.989 589.944,-252.887"/>
<text text-anchor="middle" x="568" y="-250.4" font-family="Times Roman,serif" font-size="14.00">0..*</text>
</g>
<!-- RecordItem -->
<g id="node7" class="node"><title>RecordItem</title>
<a xlink:href="#" xlink:title="The RecordItem class provides a way to incorporate relevant logs, audit trails, or forensic data to support the conclusions made during the course of analyzing the incident. The class supports both the direct encapsulation of the data, as well as, provides primitives to reference data stored elsewhere. ">
<polygon fill="#cecece" stroke="#cecece" points="690,-153 690,-174 776,-174 776,-153 690,-153"/>
<polygon fill="none" stroke="black" points="690,-153 690,-174 776,-174 776,-153 690,-153"/>
<text text-anchor="start" x="693.5" y="-160.233" font-family="Times Roman,serif" font-size="14.00">RecordItem</text>
</a>
</g>
<!-- RecordData&#45;&gt;RecordItem -->
<g id="edge6" class="edge"><title>RecordData&#45;&gt;RecordItem</title>
<path fill="none" stroke="black" d="M535.51,-198.05C582.059,-190.024 633.192,-181.208 671.764,-174.558"/>
<polygon fill="black" stroke="black" points="672.531,-177.977 681.791,-172.829 671.342,-171.079 672.531,-177.977"/>
<text text-anchor="middle" x="568" y="-198.4" font-family="Times Roman,serif" font-size="14.00">1..*</text>
</g>
<!-- AdditionalData -->
<g id="node9" class="node"><title>AdditionalData</title>
<a xlink:href="#" xlink:title="The AdditionalData class serves as an extension mechanism for information not otherwise represented in the data model. For relatively simple information, atomic data types (e.g., integers, strings) are provided with a mechanism to annotate their meaning. The class can also be used to extend the data model (and the associated Schema) to support proprietary extensions by encapsulating entire XML documents conforming to another Schema (e.g., IDMEF). A detailed discussion for extending the data model and the schema can be found in Section 5. ">
<polygon fill="#cecece" stroke="#cecece" points="623,-103 623,-124 844,-124 844,-103 623,-103"/>
<polygon fill="none" stroke="black" points="623,-103 623,-124 844,-124 844,-103 623,-103"/>
<text text-anchor="start" x="682" y="-110.233" font-family="Times Roman,serif" font-size="14.00">AdditionalData</text>
</a>
<a xlink:href="#" xlink:title="The data type of the element content. &#160;The permitted values for this attribute are shown below. &#160;The default value is &quot;string&quot;.">
<polygon fill="none" stroke="black" points="623,-83 623,-103 844,-103 844,-83 623,-83"/>
<text text-anchor="start" x="645" y="-89.7333" font-family="Times Roman,serif" font-size="14.00">[ENUM] dtype (Required) </text>
</a>
<a xlink:href="#" xlink:title="A means by which to extend the dtype attribute. &#160;See Section 5.1.">
<polygon fill="none" stroke="black" points="623,-63 623,-83 844,-83 844,-63 623,-63"/>
<text text-anchor="start" x="626.5" y="-69.7333" font-family="Times Roman,serif" font-size="14.00">[STRING] ext&#45;dtype (Optional) </text>
</a>
<a xlink:href="#" xlink:title="A free&#45;form description of the element content.">
<polygon fill="none" stroke="black" points="623,-43 623,-63 844,-63 844,-43 623,-43"/>
<text text-anchor="start" x="630" y="-49.7333" font-family="Times Roman,serif" font-size="14.00">[STRING] meaning (Optional) </text>
</a>
<a xlink:href="#" xlink:title="An identifier referencing the format and semantics of the element content.">
<polygon fill="none" stroke="black" points="623,-23 623,-43 844,-43 844,-23 623,-23"/>
<text text-anchor="start" x="631" y="-29.7333" font-family="Times Roman,serif" font-size="14.00">[STRING] formatid (Optional) </text>
</a>
<a xlink:href="#" xlink:title="This attribute has been defined in Section 3.2.">
<polygon fill="none" stroke="black" points="623,-3 623,-23 844,-23 844,-3 623,-3"/>
<text text-anchor="start" x="630.5" y="-9.73333" font-family="Times Roman,serif" font-size="14.00">[ENUM] restriction (Optional) </text>
</a>
</g>
<!-- RecordData&#45;&gt;AdditionalData -->
<g id="edge8" class="edge"><title>RecordData&#45;&gt;AdditionalData</title>
<path fill="none" stroke="black" d="M504.559,-174.998C535.925,-159.757 571.696,-142.376 605.472,-125.965"/>
<polygon fill="black" stroke="black" points="607.01,-129.109 614.475,-121.591 603.951,-122.813 607.01,-129.109"/>
<text text-anchor="middle" x="568" y="-154.4" font-family="Times Roman,serif" font-size="14.00">0..1</text>
</g>
</g>
</svg>
