<?xml version="1.0" encoding="UTF-8" standalone="no"?>
<!DOCTYPE svg PUBLIC "-//W3C//DTD SVG 1.1//EN"
 "http://www.w3.org/Graphics/SVG/1.1/DTD/svg11.dtd">
<!-- Generated by graphviz version 2.38.0 (20140413.2041)
 -->
<!-- Title: RecordItem Pages: 1 -->
<svg width="207pt" height="142pt"
 viewBox="0.00 0.00 207.00 142.00" xmlns="http://www.w3.org/2000/svg" xmlns:xlink="http://www.w3.org/1999/xlink">
<g id="graph0" class="graph" transform="scale(1 1) rotate(0) translate(4 138)">
<title>RecordItem</title>
<polygon fill="white" stroke="none" points="-4,4 -4,-138 203,-138 203,4 -4,4"/>
<!-- RecordItem -->
<g id="node1" class="node"><title>RecordItem</title>
<g id="a_node1_0"><a xlink:href="/idmef_parser/IODEF/RecordItem.html" xlink:title="The RecordItem class provides a way to incorporate relevant logs, audit trails, or forensic data to support the conclusions made during the course of analyzing the incident. The class supports both the direct encapsulation of the data, as well as, provides primitives to reference data stored elsewhere. ">
<polygon fill="#997a00" stroke="none" points="8.5,-109 8.5,-130 191.5,-130 191.5,-109 8.5,-109"/>
<polygon fill="none" stroke="black" points="8.5,-109 8.5,-130 191.5,-130 191.5,-109 8.5,-109"/>
<text text-anchor="start" x="67.5" y="-115.8" font-family="Times,serif" font-size="14.00">RecordItem</text>
</a>
</g>
<g id="a_node1_1"><a xlink:href="/idmef_parser/IODEF/RecordItem.html" xlink:title="The data type of the element content. &#160;The permitted values for this attribute are shown below. &#160;The default value is &quot;string&quot;.">
<polygon fill="#ffcc00" stroke="none" points="8.5,-88 8.5,-109 191.5,-109 191.5,-88 8.5,-88"/>
<polygon fill="none" stroke="black" points="8.5,-88 8.5,-109 191.5,-109 191.5,-88 8.5,-88"/>
<text text-anchor="start" x="25" y="-94.8" font-family="Times,serif" font-size="14.00">[ENUM] dtype (Required) </text>
</a>
</g>
<g id="a_node1_2"><a xlink:href="/idmef_parser/IODEF/RecordItem.html" xlink:title="A means by which to extend the dtype attribute. &#160;See Section 5.1.">
<polygon fill="#ffcc00" stroke="none" points="8.5,-67 8.5,-88 191.5,-88 191.5,-67 8.5,-67"/>
<polygon fill="none" stroke="black" points="8.5,-67 8.5,-88 191.5,-88 191.5,-67 8.5,-67"/>
<text text-anchor="start" x="11.5" y="-73.8" font-family="Times,serif" font-size="14.00">[STRING] ext&#45;dtype (Optional) </text>
</a>
</g>
<g id="a_node1_3"><a xlink:href="/idmef_parser/IODEF/RecordItem.html" xlink:title="A free&#45;form description of the element content.">
<polygon fill="#ffcc00" stroke="none" points="8.5,-46 8.5,-67 191.5,-67 191.5,-46 8.5,-46"/>
<polygon fill="none" stroke="black" points="8.5,-46 8.5,-67 191.5,-67 191.5,-46 8.5,-46"/>
<text text-anchor="start" x="13.5" y="-52.8" font-family="Times,serif" font-size="14.00">[STRING] meaning (Optional) </text>
</a>
</g>
<g id="a_node1_4"><a xlink:href="/idmef_parser/IODEF/RecordItem.html" xlink:title="An identifier referencing the format and semantics of the element content.">
<polygon fill="#ffcc00" stroke="none" points="8.5,-25 8.5,-46 191.5,-46 191.5,-25 8.5,-25"/>
<polygon fill="none" stroke="black" points="8.5,-25 8.5,-46 191.5,-46 191.5,-25 8.5,-25"/>
<text text-anchor="start" x="13.5" y="-31.8" font-family="Times,serif" font-size="14.00">[STRING] formatid (Optional) </text>
</a>
</g>
<g id="a_node1_5"><a xlink:href="/idmef_parser/IODEF/RecordItem.html" xlink:title="This attribute has been defined in Section 3.2.">
<polygon fill="#ffcc00" stroke="none" points="8.5,-4 8.5,-25 191.5,-25 191.5,-4 8.5,-4"/>
<polygon fill="none" stroke="black" points="8.5,-4 8.5,-25 191.5,-25 191.5,-4 8.5,-4"/>
<text text-anchor="start" x="14" y="-10.8" font-family="Times,serif" font-size="14.00">[ENUM] restriction (Optional) </text>
</a>
</g>
</g>
</g>
</svg>
