<?xml version="1.0" encoding="UTF-8" standalone="no"?>
<!DOCTYPE svg PUBLIC "-//W3C//DTD SVG 1.1//EN"
 "http://www.w3.org/Graphics/SVG/1.1/DTD/svg11.dtd">
<!-- Generated by graphviz version 2.38.0 (20140413.2041)
 -->
<!-- Title: RecordPattern Pages: 1 -->
<svg width="229pt" height="163pt"
 viewBox="0.00 0.00 229.00 163.00" xmlns="http://www.w3.org/2000/svg" xmlns:xlink="http://www.w3.org/1999/xlink">
<g id="graph0" class="graph" transform="scale(1 1) rotate(0) translate(4 159)">
<title>RecordPattern</title>
<polygon fill="white" stroke="none" points="-4,4 -4,-159 225,-159 225,4 -4,4"/>
<!-- RecordPattern -->
<g id="node1" class="node"><title>RecordPattern</title>
<g id="a_node1_0"><a xlink:href="/idmef_parser/IODEF/RecordPattern.html" xlink:title="The RecordPattern class describes where in the content of the RecordItem relevant information can be found. It provides a way to reference subsets of information, identified by a pattern, in a large log file, audit trail, or forensic data. ">
<polygon fill="#997a00" stroke="none" points="8.5,-129.5 8.5,-150.5 213.5,-150.5 213.5,-129.5 8.5,-129.5"/>
<polygon fill="none" stroke="black" points="8.5,-129.5 8.5,-150.5 213.5,-150.5 213.5,-129.5 8.5,-129.5"/>
<text text-anchor="start" x="72" y="-136.3" font-family="Times,serif" font-size="14.00">RecordPattern</text>
</a>
</g>
<g id="a_node1_1"><a xlink:href="/idmef_parser/IODEF/RecordPattern.html" xlink:title="Describes the type of pattern being specified in the element content. &#160;The default is &quot;regex&quot;.">
<polygon fill="#ffcc00" stroke="none" points="8.5,-108.5 8.5,-129.5 213.5,-129.5 213.5,-108.5 8.5,-108.5"/>
<polygon fill="none" stroke="black" points="8.5,-108.5 8.5,-129.5 213.5,-129.5 213.5,-108.5 8.5,-108.5"/>
<text text-anchor="start" x="39.5" y="-115.3" font-family="Times,serif" font-size="14.00">[ENUM] type (Required) </text>
</a>
</g>
<g id="a_node1_2"><a xlink:href="/idmef_parser/IODEF/RecordPattern.html" xlink:title="A means by which to extend the type attribute. See Section 5.1.">
<polygon fill="#ffcc00" stroke="none" points="8.5,-87.5 8.5,-108.5 213.5,-108.5 213.5,-87.5 8.5,-87.5"/>
<polygon fill="none" stroke="black" points="8.5,-87.5 8.5,-108.5 213.5,-108.5 213.5,-87.5 8.5,-87.5"/>
<text text-anchor="start" x="26" y="-94.3" font-family="Times,serif" font-size="14.00">[STRING] ext&#45;type (Optional) </text>
</a>
</g>
<g id="a_node1_3"><a xlink:href="/idmef_parser/IODEF/RecordPattern.html" xlink:title="Amount of units (determined by the offsetunit attribute) to seek into the RecordItem data before matching the pattern.">
<polygon fill="#ffcc00" stroke="none" points="8.5,-66.5 8.5,-87.5 213.5,-87.5 213.5,-66.5 8.5,-66.5"/>
<polygon fill="none" stroke="black" points="8.5,-66.5 8.5,-87.5 213.5,-87.5 213.5,-66.5 8.5,-66.5"/>
<text text-anchor="start" x="28" y="-73.3" font-family="Times,serif" font-size="14.00">[INTEGER] offset (Optional) </text>
</a>
</g>
<g id="a_node1_4"><a xlink:href="/idmef_parser/IODEF/RecordPattern.html" xlink:title="Describes the units of the offset attribute. The default is &quot;line&quot;.">
<polygon fill="#ffcc00" stroke="none" points="8.5,-45.5 8.5,-66.5 213.5,-66.5 213.5,-45.5 8.5,-45.5"/>
<polygon fill="none" stroke="black" points="8.5,-45.5 8.5,-66.5 213.5,-66.5 213.5,-45.5 8.5,-45.5"/>
<text text-anchor="start" x="26.5" y="-52.3" font-family="Times,serif" font-size="14.00">[ENUM] offsetunit (Optional) </text>
</a>
</g>
<g id="a_node1_5"><a xlink:href="/idmef_parser/IODEF/RecordPattern.html" xlink:title="A means by which to extend the offsetunit attribute. &#160;See Section 5.1.">
<polygon fill="#ffcc00" stroke="none" points="8.5,-24.5 8.5,-45.5 213.5,-45.5 213.5,-24.5 8.5,-24.5"/>
<polygon fill="none" stroke="black" points="8.5,-24.5 8.5,-45.5 213.5,-45.5 213.5,-24.5 8.5,-24.5"/>
<text text-anchor="start" x="11.5" y="-31.3" font-family="Times,serif" font-size="14.00">[STRING] ext&#45;offsetunit (Optional) </text>
</a>
</g>
<g id="a_node1_6"><a xlink:href="/idmef_parser/IODEF/RecordPattern.html" xlink:title="Number of types to apply the specified pattern.">
<polygon fill="#ffcc00" stroke="none" points="8.5,-3.5 8.5,-24.5 213.5,-24.5 213.5,-3.5 8.5,-3.5"/>
<polygon fill="none" stroke="black" points="8.5,-3.5 8.5,-24.5 213.5,-24.5 213.5,-3.5 8.5,-3.5"/>
<text text-anchor="start" x="21.5" y="-10.3" font-family="Times,serif" font-size="14.00">[INTEGER] instance (Optional) </text>
</a>
</g>
</g>
</g>
</svg>
