<?xml version="1.0" encoding="UTF-8" standalone="no"?>
<!DOCTYPE svg PUBLIC "-//W3C//DTD SVG 1.1//EN"
 "http://www.w3.org/Graphics/SVG/1.1/DTD/svg11.dtd">
<!-- Generated by graphviz version 2.26.3 (20100126.1600)
 -->
<!-- Title: Reference Pages: 1 -->
<svg width="284pt" height="96pt"
 viewBox="0.00 0.00 284.00 96.00" xmlns="http://www.w3.org/2000/svg" xmlns:xlink="http://www.w3.org/1999/xlink">
<g id="graph1" class="graph" transform="scale(1 1) rotate(0) translate(4 92)">
<title>Reference</title>
<polygon fill="white" stroke="white" points="-4,5 -4,-92 281,-92 281,5 -4,5"/>
<!-- Reference -->
<g id="node1" class="node"><title>Reference</title>
<a xlink:href="#" xlink:title="The Reference class is a reference to a vulnerability, IDS alert, malware sample, advisory, or attack technique. A reference consists of a name, a URL to this reference, and an optional description. ">
<polygon fill="#cecece" stroke="#cecece" points="9,-63 9,-84 268,-84 268,-63 9,-63"/>
<polygon fill="none" stroke="black" points="9,-63 9,-84 268,-84 268,-63 9,-63"/>
<text text-anchor="start" x="104" y="-70.2333" font-family="Times Roman,serif" font-size="14.00">Reference</text>
</a>
<a xlink:href="#" xlink:title="Name of the reference.">
<polygon fill="none" stroke="black" points="9,-43 9,-63 268,-63 268,-43 9,-43"/>
<text text-anchor="start" x="12.5" y="-49.7333" font-family="Times Roman,serif" font-size="14.00">[ML_STRING] ReferenceName (1..1) </text>
</a>
<a xlink:href="#" xlink:title="A URL associated with the reference.">
<polygon fill="none" stroke="black" points="9,-23 9,-43 268,-43 268,-23 9,-23"/>
<text text-anchor="start" x="79.5" y="-29.7333" font-family="Times Roman,serif" font-size="14.00">[URL] URL (0..*) </text>
</a>
<a xlink:href="#" xlink:title="A free&#45;form text description of this reference.">
<polygon fill="none" stroke="black" points="9,-3 9,-23 268,-23 268,-3 9,-3"/>
<text text-anchor="start" x="28.5" y="-9.73333" font-family="Times Roman,serif" font-size="14.00">[ML_STRING] Description (0..*) </text>
</a>
</g>
</g>
</svg>
