<?xml version="1.0" encoding="UTF-8" standalone="no"?>
<!DOCTYPE svg PUBLIC "-//W3C//DTD SVG 1.1//EN"
 "http://www.w3.org/Graphics/SVG/1.1/DTD/svg11.dtd">
<!-- Generated by graphviz version 2.26.3 (20100126.1600)
 -->
<!-- Title: RegistryHandle Pages: 1 -->
<svg width="260pt" height="76pt"
 viewBox="0.00 0.00 260.00 76.00" xmlns="http://www.w3.org/2000/svg" xmlns:xlink="http://www.w3.org/1999/xlink">
<g id="graph1" class="graph" transform="scale(1 1) rotate(0) translate(4 72)">
<title>RegistryHandle</title>
<polygon fill="white" stroke="white" points="-4,5 -4,-72 257,-72 257,5 -4,5"/>
<!-- RegistryHandle -->
<g id="node1" class="node"><title>RegistryHandle</title>
<a xlink:href="#" xlink:title="The RegistryHandle class represents a handle into an Internet registry or community&#45;specific database. The handle is specified in the element content and the type attribute specifies the database. ">
<polygon fill="#cecece" stroke="#cecece" points="8,-43 8,-64 244,-64 244,-43 8,-43"/>
<polygon fill="none" stroke="black" points="8,-43 8,-64 244,-64 244,-43 8,-43"/>
<text text-anchor="start" x="73.5" y="-50.2333" font-family="Times Roman,serif" font-size="14.00">RegistryHandle</text>
</a>
<a xlink:href="#" xlink:title="The database to which the handle belongs. &#160;The default value is &#39;local&#39;. &#160;The possible values are:">
<polygon fill="none" stroke="black" points="8,-23 8,-43 244,-43 244,-23 8,-23"/>
<text text-anchor="start" x="30.5" y="-29.7333" font-family="Times Roman,serif" font-size="14.00">[ENUM] registry (Required) </text>
</a>
<a xlink:href="#" xlink:title="A means by which to extend the registry attribute. &#160;See Section 5.1.">
<polygon fill="none" stroke="black" points="8,-3 8,-23 244,-23 244,-3 8,-3"/>
<text text-anchor="start" x="11.5" y="-9.73333" font-family="Times Roman,serif" font-size="14.00">[STRING] ext&#45;registry (Optional) </text>
</a>
</g>
</g>
</svg>
