<?xml version="1.0" encoding="UTF-8" standalone="no"?>
<!DOCTYPE svg PUBLIC "-//W3C//DTD SVG 1.1//EN"
 "http://www.w3.org/Graphics/SVG/1.1/DTD/svg11.dtd">
<!-- Generated by graphviz version 2.38.0 (20140413.2041)
 -->
<!-- Title: RegistryHandle Pages: 1 -->
<svg width="218pt" height="79pt"
 viewBox="0.00 0.00 218.00 79.00" xmlns="http://www.w3.org/2000/svg" xmlns:xlink="http://www.w3.org/1999/xlink">
<g id="graph0" class="graph" transform="scale(1 1) rotate(0) translate(4 75)">
<title>RegistryHandle</title>
<polygon fill="white" stroke="none" points="-4,4 -4,-75 214,-75 214,4 -4,4"/>
<!-- RegistryHandle -->
<g id="node1" class="node"><title>RegistryHandle</title>
<g id="a_node1_0"><a xlink:href="/idmef_parser/IODEF/RegistryHandle.html" xlink:title="The RegistryHandle class represents a handle into an Internet registry or community&#45;specific database. The handle is specified in the element content and the type attribute specifies the database. ">
<polygon fill="#7a993d" stroke="none" points="8,-45.5 8,-66.5 202,-66.5 202,-45.5 8,-45.5"/>
<polygon fill="none" stroke="black" points="8,-45.5 8,-66.5 202,-66.5 202,-45.5 8,-45.5"/>
<text text-anchor="start" x="62.5" y="-52.3" font-family="Times,serif" font-size="14.00">RegistryHandle</text>
</a>
</g>
<g id="a_node1_1"><a xlink:href="/idmef_parser/IODEF/RegistryHandle.html" xlink:title="The database to which the handle belongs. &#160;The default value is &#39;local&#39;. &#160;The possible values are:">
<polygon fill="#ccff66" stroke="none" points="8,-24.5 8,-45.5 202,-45.5 202,-24.5 8,-24.5"/>
<polygon fill="none" stroke="black" points="8,-24.5 8,-45.5 202,-45.5 202,-24.5 8,-24.5"/>
<text text-anchor="start" x="24.5" y="-31.3" font-family="Times,serif" font-size="14.00">[ENUM] registry (Required) </text>
</a>
</g>
<g id="a_node1_2"><a xlink:href="/idmef_parser/IODEF/RegistryHandle.html" xlink:title="A means by which to extend the registry attribute. &#160;See Section 5.1.">
<polygon fill="#ccff66" stroke="none" points="8,-3.5 8,-24.5 202,-24.5 202,-3.5 8,-3.5"/>
<polygon fill="none" stroke="black" points="8,-3.5 8,-24.5 202,-24.5 202,-3.5 8,-3.5"/>
<text text-anchor="start" x="11" y="-10.3" font-family="Times,serif" font-size="14.00">[STRING] ext&#45;registry (Optional) </text>
</a>
</g>
</g>
</g>
</svg>
