<?xml version="1.0" encoding="UTF-8" standalone="no"?>
<!DOCTYPE svg PUBLIC "-//W3C//DTD SVG 1.1//EN"
 "http://www.w3.org/Graphics/SVG/1.1/DTD/svg11.dtd">
<!-- Generated by graphviz version 2.26.3 (20100126.1600)
 -->
<!-- Title: Service Pages: 1 -->
<svg width="552pt" height="196pt"
 viewBox="0.00 0.00 552.00 196.00" xmlns="http://www.w3.org/2000/svg" xmlns:xlink="http://www.w3.org/1999/xlink">
<g id="graph1" class="graph" transform="scale(1 1) rotate(0) translate(4 192)">
<title>Service</title>
<polygon fill="white" stroke="white" points="-4,5 -4,-192 549,-192 549,5 -4,5"/>
<!-- Service -->
<g id="node1" class="node"><title>Service</title>
<a xlink:href="/idmef_parser/IODEF/Service.html" xlink:title="The Service class describes a network service of a host or network. The service is identified by specific port or list of ports, along with the application listening on that port. ">
<polygon fill="#182f5f" stroke="#182f5f" points="9,-143 9,-164 250,-164 250,-143 9,-143"/>
<polygon fill="none" stroke="black" points="9,-143 9,-164 250,-164 250,-143 9,-143"/>
<text text-anchor="start" x="104" y="-150.233" font-family="Times Roman,serif" font-size="14.00">Service</text>
</a>
<a xlink:href="/idmef_parser/IODEF/Service.html" xlink:title="A port number.">
<polygon fill="#284f9f" stroke="#284f9f" points="9,-123 9,-143 250,-143 250,-123 9,-123"/>
<polygon fill="none" stroke="black" points="9,-123 9,-143 250,-143 250,-123 9,-123"/>
<text text-anchor="start" x="52.5" y="-129.733" font-family="Times Roman,serif" font-size="14.00">[INTEGER] Port (0..1) </text>
</a>
<a xlink:href="/idmef_parser/IODEF/Service.html" xlink:title="A list of port numbers formatted according to Section 2.10.">
<polygon fill="#284f9f" stroke="#284f9f" points="9,-103 9,-123 250,-123 250,-103 9,-103"/>
<polygon fill="none" stroke="black" points="9,-103 9,-123 250,-123 250,-103 9,-103"/>
<text text-anchor="start" x="39.5" y="-109.733" font-family="Times Roman,serif" font-size="14.00">[PORTLIST] Portlist (0..1) </text>
</a>
<a xlink:href="/idmef_parser/IODEF/Service.html" xlink:title="A layer&#45;4 protocol&#45;specific code field (e.g., ICMP code field).">
<polygon fill="#284f9f" stroke="#284f9f" points="9,-83 9,-103 250,-103 250,-83 9,-83"/>
<polygon fill="none" stroke="black" points="9,-83 9,-103 250,-103 250,-83 9,-83"/>
<text text-anchor="start" x="31" y="-89.7333" font-family="Times Roman,serif" font-size="14.00">[INTEGER] ProtoCode (0..1) </text>
</a>
<a xlink:href="/idmef_parser/IODEF/Service.html" xlink:title="A layer&#45;4 protocol specific type field (e.g., ICMP type field).">
<polygon fill="#284f9f" stroke="#284f9f" points="9,-63 9,-83 250,-83 250,-63 9,-63"/>
<polygon fill="none" stroke="black" points="9,-63 9,-83 250,-83 250,-63 9,-63"/>
<text text-anchor="start" x="32.5" y="-69.7333" font-family="Times Roman,serif" font-size="14.00">[INTEGER] ProtoType (0..1) </text>
</a>
<a xlink:href="/idmef_parser/IODEF/Service.html" xlink:title="A layer&#45;4 protocol specific flag field (e.g., TCP flag field).">
<polygon fill="#284f9f" stroke="#284f9f" points="9,-43 9,-63 250,-63 250,-43 9,-43"/>
<polygon fill="none" stroke="black" points="9,-43 9,-63 250,-63 250,-43 9,-43"/>
<text text-anchor="start" x="30.5" y="-49.7333" font-family="Times Roman,serif" font-size="14.00">[INTEGER] ProtoFlags (0..1) </text>
</a>
<a xlink:href="/idmef_parser/IODEF/Service.html" xlink:title="The IANA protocol number.">
<polygon fill="#284f9f" stroke="#284f9f" points="9,-23 9,-43 250,-43 250,-23 9,-23"/>
<polygon fill="none" stroke="black" points="9,-23 9,-43 250,-43 250,-23 9,-23"/>
<text text-anchor="start" x="12.5" y="-29.7333" font-family="Times Roman,serif" font-size="14.00">[INTEGER] ip_protocol (Required) </text>
</a>
</g>
<!-- Application -->
<g id="node2" class="node"><title>Application</title>
<a xlink:href="/idmef_parser/IODEF/Application.html" xlink:title="The Application class describes an application running on a System providing a Service. ">
<polygon fill="#182f5f" stroke="#182f5f" points="329,-163 329,-184 536,-184 536,-163 329,-163"/>
<polygon fill="none" stroke="black" points="329,-163 329,-184 536,-184 536,-163 329,-163"/>
<text text-anchor="start" x="394.5" y="-170.233" font-family="Times Roman,serif" font-size="14.00">Application</text>
</a>
<a xlink:href="/idmef_parser/IODEF/Application.html" xlink:title="A URL describing the application.">
<polygon fill="#284f9f" stroke="#284f9f" points="329,-143 329,-163 536,-163 536,-143 329,-143"/>
<polygon fill="none" stroke="black" points="329,-143 329,-163 536,-163 536,-143 329,-143"/>
<text text-anchor="start" x="373" y="-149.733" font-family="Times Roman,serif" font-size="14.00">[URL] URL (0..1) </text>
</a>
<a xlink:href="/idmef_parser/IODEF/Application.html" xlink:title="An identifier that can be used to reference this software.">
<polygon fill="#284f9f" stroke="#284f9f" points="329,-123 329,-143 536,-143 536,-123 329,-123"/>
<polygon fill="none" stroke="black" points="329,-123 329,-143 536,-143 536,-123 329,-123"/>
<text text-anchor="start" x="343" y="-129.733" font-family="Times Roman,serif" font-size="14.00">[STRING] swid (Optional) </text>
</a>
<a xlink:href="/idmef_parser/IODEF/Application.html" xlink:title="An identifier that can be used to reference a particular configuration of this software.">
<polygon fill="#284f9f" stroke="#284f9f" points="329,-103 329,-123 536,-123 536,-103 329,-103"/>
<polygon fill="none" stroke="black" points="329,-103 329,-123 536,-123 536,-103 329,-103"/>
<text text-anchor="start" x="332.5" y="-109.733" font-family="Times Roman,serif" font-size="14.00">[STRING] configid (Optional) </text>
</a>
<a xlink:href="/idmef_parser/IODEF/Application.html" xlink:title="Vendor name of the software.">
<polygon fill="#284f9f" stroke="#284f9f" points="329,-83 329,-103 536,-103 536,-83 329,-83"/>
<polygon fill="none" stroke="black" points="329,-83 329,-103 536,-103 536,-83 329,-83"/>
<text text-anchor="start" x="334.5" y="-89.7333" font-family="Times Roman,serif" font-size="14.00">[STRING] vendor (Optional) </text>
</a>
<a xlink:href="/idmef_parser/IODEF/Application.html" xlink:title="Family of the software.">
<polygon fill="#284f9f" stroke="#284f9f" points="329,-63 329,-83 536,-83 536,-63 329,-63"/>
<polygon fill="none" stroke="black" points="329,-63 329,-83 536,-83 536,-63 329,-63"/>
<text text-anchor="start" x="338" y="-69.7333" font-family="Times Roman,serif" font-size="14.00">[STRING] family (Optional) </text>
</a>
<a xlink:href="/idmef_parser/IODEF/Application.html" xlink:title="Name of the software.">
<polygon fill="#284f9f" stroke="#284f9f" points="329,-43 329,-63 536,-63 536,-43 329,-43"/>
<polygon fill="none" stroke="black" points="329,-43 329,-63 536,-63 536,-43 329,-43"/>
<text text-anchor="start" x="339.5" y="-49.7333" font-family="Times Roman,serif" font-size="14.00">[STRING] name (Optional) </text>
</a>
<a xlink:href="/idmef_parser/IODEF/Application.html" xlink:title="Version of the software.">
<polygon fill="#284f9f" stroke="#284f9f" points="329,-23 329,-43 536,-43 536,-23 329,-23"/>
<polygon fill="none" stroke="black" points="329,-23 329,-43 536,-43 536,-23 329,-23"/>
<text text-anchor="start" x="333.5" y="-29.7333" font-family="Times Roman,serif" font-size="14.00">[STRING] version (Optional) </text>
</a>
<a xlink:href="/idmef_parser/IODEF/Application.html" xlink:title="Patch or service pack level of the software.">
<polygon fill="#284f9f" stroke="#284f9f" points="329,-3 329,-23 536,-23 536,-3 329,-3"/>
<polygon fill="none" stroke="black" points="329,-3 329,-23 536,-23 536,-3 329,-3"/>
<text text-anchor="start" x="339.5" y="-9.73333" font-family="Times Roman,serif" font-size="14.00">[STRING] patch (Optional) </text>
</a>
</g>
<!-- Service&#45;&gt;Application -->
<g id="edge2" class="edge"><title>Service&#45;&gt;Application</title>
<path fill="none" stroke="black" d="M257.939,-94C275.308,-94 293.082,-94 310.32,-94"/>
<polygon fill="black" stroke="black" points="310.4,-97.5001 320.4,-94 310.4,-90.5001 310.4,-97.5001"/>
<text text-anchor="middle" x="289" y="-98.4" font-family="Times Roman,serif" font-size="14.00">0..*</text>
</g>
</g>
</svg>
