<?xml version="1.0" encoding="UTF-8" standalone="no"?>
<!DOCTYPE svg PUBLIC "-//W3C//DTD SVG 1.1//EN"
 "http://www.w3.org/Graphics/SVG/1.1/DTD/svg11.dtd">
<!-- Generated by graphviz version 2.26.3 (20100126.1600)
 -->
<!-- Title: System Pages: 1 -->
<svg width="908pt" height="678pt"
 viewBox="0.00 0.00 908.00 678.00" xmlns="http://www.w3.org/2000/svg" xmlns:xlink="http://www.w3.org/1999/xlink">
<g id="graph1" class="graph" transform="scale(1 1) rotate(0) translate(4 674)">
<title>System</title>
<polygon fill="white" stroke="white" points="-4,5 -4,-674 905,-674 905,5 -4,5"/>
<!-- System -->
<g id="node1" class="node"><title>System</title>
<a xlink:href="#" xlink:title="The System class describes a system or network involved in an event. The systems or networks represented by this class are categorized according to the role they played in the incident through the category attribute. The value of this category attribute dictates the semantics of the aggregated classes in the System class. If the category attribute has a value of &quot;source&quot;, then the aggregated classes denote the machine and service from which the activity is originating. With a category attribute value of &quot;target&quot; or &quot;intermediary&quot;, then the machine or service is the one targeted in the activity. A value of &quot;sensor&quot; dictates that this System was part of an instrumentation to monitor the network. ">
<polygon fill="#cecece" stroke="#cecece" points="8,-323 8,-344 250,-344 250,-323 8,-323"/>
<polygon fill="none" stroke="black" points="8,-323 8,-344 250,-344 250,-323 8,-323"/>
<text text-anchor="start" x="103" y="-330.233" font-family="Times Roman,serif" font-size="14.00">System</text>
</a>
<a xlink:href="#" xlink:title="A free&#45;form text description of the System.">
<polygon fill="none" stroke="black" points="8,-303 8,-323 250,-323 250,-303 8,-303"/>
<text text-anchor="start" x="19" y="-309.733" font-family="Times Roman,serif" font-size="14.00">[ML_STRING] Description (0..*) </text>
</a>
<a xlink:href="#" xlink:title="This attribute is defined in Section 3.2.">
<polygon fill="none" stroke="black" points="8,-283 8,-303 250,-303 250,-283 8,-283"/>
<text text-anchor="start" x="26" y="-289.733" font-family="Times Roman,serif" font-size="14.00">[ENUM] restriction (Optional) </text>
</a>
<a xlink:href="#" xlink:title="Classifies the role the host or network played in the incident. &#160;The possible values are:">
<polygon fill="none" stroke="black" points="8,-263 8,-283 250,-283 250,-263 8,-263"/>
<text text-anchor="start" x="30" y="-269.733" font-family="Times Roman,serif" font-size="14.00">[ENUM] category (Required) </text>
</a>
<a xlink:href="#" xlink:title="A means by which to extend the category attribute. &#160;See Section 5.1.">
<polygon fill="none" stroke="black" points="8,-243 8,-263 250,-263 250,-243 8,-243"/>
<text text-anchor="start" x="11.5" y="-249.733" font-family="Times Roman,serif" font-size="14.00">[STRING] ext&#45;category (Optional) </text>
</a>
<a xlink:href="#" xlink:title="Specifies the interface on which the event(s) on this System originated. &#160;If the Node class specifies a network rather than a host, this attribute has no meaning.">
<polygon fill="none" stroke="black" points="8,-223 8,-243 250,-243 250,-223 8,-223"/>
<text text-anchor="start" x="25" y="-229.733" font-family="Times Roman,serif" font-size="14.00">[STRING] interface (Optional) </text>
</a>
<a xlink:href="#" xlink:title="An indication of confidence in whether this System was the true target or attacking host. &#160;The permitted values for this attribute are shown below. &#160;The default value is &quot;unknown&quot;.">
<polygon fill="none" stroke="black" points="8,-203 8,-223 250,-223 250,-203 8,-203"/>
<text text-anchor="start" x="35" y="-209.733" font-family="Times Roman,serif" font-size="14.00">[ENUM] spoofed (Optional) </text>
</a>
</g>
<!-- Node -->
<g id="node2" class="node"><title>Node</title>
<a xlink:href="#" xlink:title="The Node class names a system (e.g., PC, router) or network. ">
<polygon fill="#cecece" stroke="#cecece" points="339,-501 339,-522 563,-522 563,-501 339,-501"/>
<polygon fill="none" stroke="black" points="339,-501 339,-522 563,-522 563,-501 339,-501"/>
<text text-anchor="start" x="433" y="-508.233" font-family="Times Roman,serif" font-size="14.00">Node</text>
</a>
<a xlink:href="#" xlink:title="The name of the Node (e.g., fully qualified domain name). &#160;This information MUST be provided if no Address information is given.">
<polygon fill="none" stroke="black" points="339,-481 339,-501 563,-501 563,-481 339,-481"/>
<text text-anchor="start" x="342.5" y="-487.733" font-family="Times Roman,serif" font-size="14.00">[ML_STRING] NodeName (0..*) </text>
</a>
<a xlink:href="#" xlink:title="A free&#45;from description of the physical location of the equipment.">
<polygon fill="none" stroke="black" points="339,-461 339,-481 563,-481 563,-461 339,-461"/>
<text text-anchor="start" x="350" y="-467.733" font-family="Times Roman,serif" font-size="14.00">[ML_STRING] Location (0..1) </text>
</a>
<a xlink:href="#" xlink:title="A timestamp of when the resolution between the name and address was performed. &#160;This information SHOULD be provided if both an Address and NodeName are specified.">
<polygon fill="none" stroke="black" points="339,-441 339,-461 563,-461 563,-441 339,-441"/>
<text text-anchor="start" x="386.5" y="-447.733" font-family="Times Roman,serif" font-size="14.00">[] DateTime (0..1) </text>
</a>
</g>
<!-- System&#45;&gt;Node -->
<g id="edge8" class="edge"><title>System&#45;&gt;Node</title>
<path fill="none" stroke="black" d="M209.328,-348.023C230.237,-365.505 253.292,-383.312 276,-398 295.561,-410.652 317.317,-422.596 338.657,-433.291"/>
<polygon fill="black" stroke="black" points="337.255,-436.502 347.77,-437.797 340.357,-430.227 337.255,-436.502"/>
<text text-anchor="middle" x="290" y="-418.4" font-family="Times Roman,serif" font-size="14.00">1..1</text>
</g>
<!-- Counter -->
<g id="node7" class="node"><title>Counter</title>
<a xlink:href="#" xlink:title="The Counter class summarize multiple occurrences of some event, or conveys counts or rates on various features (e.g., packets, sessions, events). ">
<polygon fill="#cecece" stroke="#cecece" points="651,-413 651,-434 892,-434 892,-413 651,-413"/>
<polygon fill="none" stroke="black" points="651,-413 651,-434 892,-434 892,-413 651,-413"/>
<text text-anchor="start" x="743" y="-420.233" font-family="Times Roman,serif" font-size="14.00">Counter</text>
</a>
<a xlink:href="#" xlink:title="Specifies the units of the element content.">
<polygon fill="none" stroke="black" points="651,-393 651,-413 892,-413 892,-393 651,-393"/>
<text text-anchor="start" x="687" y="-399.733" font-family="Times Roman,serif" font-size="14.00">[ENUM] type (Required) </text>
</a>
<a xlink:href="#" xlink:title="A means by which to extend the type attribute. See Section 5.1.">
<polygon fill="none" stroke="black" points="651,-373 651,-393 892,-393 892,-373 651,-373"/>
<text text-anchor="start" x="668.5" y="-379.733" font-family="Times Roman,serif" font-size="14.00">[STRING] ext&#45;type (Optional) </text>
</a>
<a xlink:href="#" xlink:title="If present, the Counter class represents a rate rather than a count over the entire event. &#160;In that case, this attribute specifies the denominator of the rate (where the type attribute specified the nominator). &#160;The possible values of this attribute are defined in Section 3.10.2">
<polygon fill="none" stroke="black" points="651,-353 651,-373 892,-373 892,-353 651,-353"/>
<text text-anchor="start" x="674.5" y="-359.733" font-family="Times Roman,serif" font-size="14.00">[ENUM] duration (Optional) </text>
</a>
<a xlink:href="#" xlink:title="A means by which to extend the duration attribute. &#160;See Section 5.1.">
<polygon fill="none" stroke="black" points="651,-333 651,-353 892,-353 892,-333 651,-333"/>
<text text-anchor="start" x="654.5" y="-339.733" font-family="Times Roman,serif" font-size="14.00">[STRING] ext&#45;duration (Optional) </text>
</a>
</g>
<!-- System&#45;&gt;Counter -->
<g id="edge16" class="edge"><title>System&#45;&gt;Counter</title>
<path fill="none" stroke="black" d="M258.247,-336.772C279.159,-344.82 300.885,-351.987 322,-357 423.876,-381.187 542.207,-387.445 631.808,-387.919"/>
<polygon fill="black" stroke="black" points="632.027,-391.419 642.037,-387.949 632.047,-384.419 632.027,-391.419"/>
<text text-anchor="middle" x="451" y="-390.4" font-family="Times Roman,serif" font-size="14.00">0..*</text>
</g>
<!-- Service -->
<g id="node10" class="node"><title>Service</title>
<a xlink:href="#" xlink:title="The Service class describes a network service of a host or network. The service is identified by specific port or list of ports, along with the application listening on that port. ">
<polygon fill="#cecece" stroke="#cecece" points="331,-323 331,-344 572,-344 572,-323 331,-323"/>
<polygon fill="none" stroke="black" points="331,-323 331,-344 572,-344 572,-323 331,-323"/>
<text text-anchor="start" x="426" y="-330.233" font-family="Times Roman,serif" font-size="14.00">Service</text>
</a>
<a xlink:href="#" xlink:title="A port number.">
<polygon fill="none" stroke="black" points="331,-303 331,-323 572,-323 572,-303 331,-303"/>
<text text-anchor="start" x="374.5" y="-309.733" font-family="Times Roman,serif" font-size="14.00">[INTEGER] Port (0..1) </text>
</a>
<a xlink:href="#" xlink:title="A list of port numbers formatted according to Section 2.10.">
<polygon fill="none" stroke="black" points="331,-283 331,-303 572,-303 572,-283 331,-283"/>
<text text-anchor="start" x="361.5" y="-289.733" font-family="Times Roman,serif" font-size="14.00">[PORTLIST] Portlist (0..1) </text>
</a>
<a xlink:href="#" xlink:title="A layer&#45;4 protocol&#45;specific code field (e.g., ICMP code field).">
<polygon fill="none" stroke="black" points="331,-263 331,-283 572,-283 572,-263 331,-263"/>
<text text-anchor="start" x="353" y="-269.733" font-family="Times Roman,serif" font-size="14.00">[INTEGER] ProtoCode (0..1) </text>
</a>
<a xlink:href="#" xlink:title="A layer&#45;4 protocol specific type field (e.g., ICMP type field).">
<polygon fill="none" stroke="black" points="331,-243 331,-263 572,-263 572,-243 331,-243"/>
<text text-anchor="start" x="354.5" y="-249.733" font-family="Times Roman,serif" font-size="14.00">[INTEGER] ProtoType (0..1) </text>
</a>
<a xlink:href="#" xlink:title="A layer&#45;4 protocol specific flag field (e.g., TCP flag field).">
<polygon fill="none" stroke="black" points="331,-223 331,-243 572,-243 572,-223 331,-223"/>
<text text-anchor="start" x="352.5" y="-229.733" font-family="Times Roman,serif" font-size="14.00">[INTEGER] ProtoFlags (0..1) </text>
</a>
<a xlink:href="#" xlink:title="The IANA protocol number.">
<polygon fill="none" stroke="black" points="331,-203 331,-223 572,-223 572,-203 331,-203"/>
<text text-anchor="start" x="334.5" y="-209.733" font-family="Times Roman,serif" font-size="14.00">[INTEGER] ip_protocol (Required) </text>
</a>
</g>
<!-- System&#45;&gt;Service -->
<g id="edge12" class="edge"><title>System&#45;&gt;Service</title>
<path fill="none" stroke="black" d="M258.114,-274C275.895,-274 294.215,-274 312.162,-274"/>
<polygon fill="black" stroke="black" points="312.381,-277.5 322.381,-274 312.381,-270.5 312.381,-277.5"/>
<text text-anchor="middle" x="290" y="-278.4" font-family="Times Roman,serif" font-size="14.00">0..*</text>
</g>
<!-- OperatingSystem -->
<g id="node14" class="node"><title>OperatingSystem</title>
<a xlink:href="#" xlink:title="The OperatingSystem class describes the operating system running on a System. The definition is identical to the Application class (Section 3.17.1). ">
<polygon fill="#cecece" stroke="#cecece" points="387,-153 387,-174 515,-174 515,-153 387,-153"/>
<polygon fill="none" stroke="black" points="387,-153 387,-174 515,-174 515,-153 387,-153"/>
<text text-anchor="start" x="390.5" y="-160.233" font-family="Times Roman,serif" font-size="14.00">OperatingSystem</text>
</a>
</g>
<!-- System&#45;&gt;OperatingSystem -->
<g id="edge14" class="edge"><title>System&#45;&gt;OperatingSystem</title>
<path fill="none" stroke="black" d="M258.208,-214.249C279.266,-205.729 301.047,-197.625 322,-191 336.854,-186.303 352.932,-182.195 368.531,-178.695"/>
<polygon fill="black" stroke="black" points="369.669,-182.029 378.696,-176.482 368.18,-175.189 369.669,-182.029"/>
<text text-anchor="middle" x="290" y="-211.4" font-family="Times Roman,serif" font-size="14.00">0..1</text>
</g>
<!-- AdditionalData -->
<g id="node17" class="node"><title>AdditionalData</title>
<a xlink:href="#" xlink:title="The AdditionalData class serves as an extension mechanism for information not otherwise represented in the data model. For relatively simple information, atomic data types (e.g., integers, strings) are provided with a mechanism to annotate their meaning. The class can also be used to extend the data model (and the associated Schema) to support proprietary extensions by encapsulating entire XML documents conforming to another Schema (e.g., IDMEF). A detailed discussion for extending the data model and the schema can be found in Section 5. ">
<polygon fill="#cecece" stroke="#cecece" points="341,-103 341,-124 562,-124 562,-103 341,-103"/>
<polygon fill="none" stroke="black" points="341,-103 341,-124 562,-124 562,-103 341,-103"/>
<text text-anchor="start" x="400" y="-110.233" font-family="Times Roman,serif" font-size="14.00">AdditionalData</text>
</a>
<a xlink:href="#" xlink:title="The data type of the element content. &#160;The permitted values for this attribute are shown below. &#160;The default value is &quot;string&quot;.">
<polygon fill="none" stroke="black" points="341,-83 341,-103 562,-103 562,-83 341,-83"/>
<text text-anchor="start" x="363" y="-89.7333" font-family="Times Roman,serif" font-size="14.00">[ENUM] dtype (Required) </text>
</a>
<a xlink:href="#" xlink:title="A means by which to extend the dtype attribute. &#160;See Section 5.1.">
<polygon fill="none" stroke="black" points="341,-63 341,-83 562,-83 562,-63 341,-63"/>
<text text-anchor="start" x="344.5" y="-69.7333" font-family="Times Roman,serif" font-size="14.00">[STRING] ext&#45;dtype (Optional) </text>
</a>
<a xlink:href="#" xlink:title="A free&#45;form description of the element content.">
<polygon fill="none" stroke="black" points="341,-43 341,-63 562,-63 562,-43 341,-43"/>
<text text-anchor="start" x="348" y="-49.7333" font-family="Times Roman,serif" font-size="14.00">[STRING] meaning (Optional) </text>
</a>
<a xlink:href="#" xlink:title="An identifier referencing the format and semantics of the element content.">
<polygon fill="none" stroke="black" points="341,-23 341,-43 562,-43 562,-23 341,-23"/>
<text text-anchor="start" x="349" y="-29.7333" font-family="Times Roman,serif" font-size="14.00">[STRING] formatid (Optional) </text>
</a>
<a xlink:href="#" xlink:title="This attribute has been defined in Section 3.2.">
<polygon fill="none" stroke="black" points="341,-3 341,-23 562,-23 562,-3 341,-3"/>
<text text-anchor="start" x="348.5" y="-9.73333" font-family="Times Roman,serif" font-size="14.00">[ENUM] restriction (Optional) </text>
</a>
</g>
<!-- System&#45;&gt;AdditionalData -->
<g id="edge18" class="edge"><title>System&#45;&gt;AdditionalData</title>
<path fill="none" stroke="black" d="M229.334,-199.849C258.772,-178.897 291.309,-156.505 322,-137 323.897,-135.794 325.815,-134.586 327.749,-133.377"/>
<polygon fill="black" stroke="black" points="329.665,-136.307 336.331,-128.072 325.985,-130.353 329.665,-136.307"/>
<text text-anchor="middle" x="290" y="-170.4" font-family="Times Roman,serif" font-size="14.00">0..*</text>
</g>
<!-- Address -->
<g id="node3" class="node"><title>Address</title>
<a xlink:href="#" xlink:title="The Address class represents a hardware (layer&#45;2), network (layer&#45;3), or application (layer&#45;7) address. ">
<polygon fill="#cecece" stroke="#cecece" points="650,-645 650,-666 892,-666 892,-645 650,-645"/>
<polygon fill="none" stroke="black" points="650,-645 650,-666 892,-666 892,-645 650,-645"/>
<text text-anchor="start" x="743.5" y="-652.233" font-family="Times Roman,serif" font-size="14.00">Address</text>
</a>
<a xlink:href="#" xlink:title="The type of address represented. &#160;The permitted values for this attribute are shown below. &#160;The default value is &quot;ipv4&#45;addr&quot;.">
<polygon fill="none" stroke="black" points="650,-625 650,-645 892,-645 892,-625 650,-625"/>
<text text-anchor="start" x="672" y="-631.733" font-family="Times Roman,serif" font-size="14.00">[ENUM] category (Required) </text>
</a>
<a xlink:href="#" xlink:title="A means by which to extend the category attribute. &#160;See Section 5.1.">
<polygon fill="none" stroke="black" points="650,-605 650,-625 892,-625 892,-605 650,-605"/>
<text text-anchor="start" x="653.5" y="-611.733" font-family="Times Roman,serif" font-size="14.00">[STRING] ext&#45;category (Optional) </text>
</a>
<a xlink:href="#" xlink:title="The name of the Virtual LAN to which the address belongs.">
<polygon fill="none" stroke="black" points="650,-585 650,-605 892,-605 892,-585 650,-585"/>
<text text-anchor="start" x="661" y="-591.733" font-family="Times Roman,serif" font-size="14.00">[STRING] vlan&#45;name (Optional) </text>
</a>
<a xlink:href="#" xlink:title="The number of the Virtual LAN to which the address belongs.">
<polygon fill="none" stroke="black" points="650,-565 650,-585 892,-585 892,-565 650,-565"/>
<text text-anchor="start" x="664.5" y="-571.733" font-family="Times Roman,serif" font-size="14.00">[STRING] vlan&#45;num (Optional) </text>
</a>
</g>
<!-- Node&#45;&gt;Address -->
<g id="edge2" class="edge"><title>Node&#45;&gt;Address</title>
<path fill="none" stroke="black" d="M556.223,-526.062C580.64,-536.287 606.993,-547.322 632.594,-558.043"/>
<polygon fill="black" stroke="black" points="631.411,-561.342 641.987,-561.976 634.115,-554.885 631.411,-561.342"/>
<text text-anchor="middle" x="611" y="-557.4" font-family="Times Roman,serif" font-size="14.00">0..*</text>
</g>
<!-- NodeRole -->
<g id="node5" class="node"><title>NodeRole</title>
<a xlink:href="#" xlink:title="The NodeRole class describes the intended function performed by a particular host. ">
<polygon fill="#cecece" stroke="#cecece" points="650,-519 650,-540 892,-540 892,-519 650,-519"/>
<polygon fill="none" stroke="black" points="650,-519 650,-540 892,-540 892,-519 650,-519"/>
<text text-anchor="start" x="738.5" y="-526.233" font-family="Times Roman,serif" font-size="14.00">NodeRole</text>
</a>
<a xlink:href="#" xlink:title="Functionality provided by a node.">
<polygon fill="none" stroke="black" points="650,-499 650,-519 892,-519 892,-499 650,-499"/>
<text text-anchor="start" x="672" y="-505.733" font-family="Times Roman,serif" font-size="14.00">[ENUM] category (Required) </text>
</a>
<a xlink:href="#" xlink:title="A means by which to extend the category attribute. &#160;See Section 5.1.">
<polygon fill="none" stroke="black" points="650,-479 650,-499 892,-499 892,-479 650,-479"/>
<text text-anchor="start" x="653.5" y="-485.733" font-family="Times Roman,serif" font-size="14.00">[STRING] ext&#45;category (Optional) </text>
</a>
<a xlink:href="#" xlink:title="A valid language code per RFC 4646 [7] constrained by the definition of &quot;xs:language&quot;. &#160;The interpretation of this code is described in Section 6.">
<polygon fill="none" stroke="black" points="650,-459 650,-479 892,-479 892,-459 650,-459"/>
<text text-anchor="start" x="687.5" y="-465.733" font-family="Times Roman,serif" font-size="14.00">[ENUM] lang (Required) </text>
</a>
</g>
<!-- Node&#45;&gt;NodeRole -->
<g id="edge4" class="edge"><title>Node&#45;&gt;NodeRole</title>
<path fill="none" stroke="black" d="M571.067,-488.754C590.865,-489.867 611.536,-491.03 631.756,-492.168"/>
<polygon fill="black" stroke="black" points="631.779,-495.674 641.96,-492.741 632.172,-488.685 631.779,-495.674"/>
<text text-anchor="middle" x="611" y="-495.4" font-family="Times Roman,serif" font-size="14.00">0..*</text>
</g>
<!-- Node&#45;&gt;Counter -->
<g id="edge6" class="edge"><title>Node&#45;&gt;Counter</title>
<path fill="none" stroke="black" d="M571.067,-445.23C591.199,-439.064 612.233,-432.622 632.779,-426.33"/>
<polygon fill="black" stroke="black" points="633.961,-429.629 642.498,-423.354 631.911,-422.936 633.961,-429.629"/>
<text text-anchor="middle" x="611" y="-439.4" font-family="Times Roman,serif" font-size="14.00">0..*</text>
</g>
<!-- Application -->
<g id="node11" class="node"><title>Application</title>
<a xlink:href="#" xlink:title="The Application class describes an application running on a System providing a Service. ">
<polygon fill="#cecece" stroke="#cecece" points="668,-287 668,-308 875,-308 875,-287 668,-287"/>
<polygon fill="none" stroke="black" points="668,-287 668,-308 875,-308 875,-287 668,-287"/>
<text text-anchor="start" x="733.5" y="-294.233" font-family="Times Roman,serif" font-size="14.00">Application</text>
</a>
<a xlink:href="#" xlink:title="A URL describing the application.">
<polygon fill="none" stroke="black" points="668,-267 668,-287 875,-287 875,-267 668,-267"/>
<text text-anchor="start" x="712" y="-273.733" font-family="Times Roman,serif" font-size="14.00">[URL] URL (0..1) </text>
</a>
<a xlink:href="#" xlink:title="An identifier that can be used to reference this software.">
<polygon fill="none" stroke="black" points="668,-247 668,-267 875,-267 875,-247 668,-247"/>
<text text-anchor="start" x="682" y="-253.733" font-family="Times Roman,serif" font-size="14.00">[STRING] swid (Optional) </text>
</a>
<a xlink:href="#" xlink:title="An identifier that can be used to reference a particular configuration of this software.">
<polygon fill="none" stroke="black" points="668,-227 668,-247 875,-247 875,-227 668,-227"/>
<text text-anchor="start" x="671.5" y="-233.733" font-family="Times Roman,serif" font-size="14.00">[STRING] configid (Optional) </text>
</a>
<a xlink:href="#" xlink:title="Vendor name of the software.">
<polygon fill="none" stroke="black" points="668,-207 668,-227 875,-227 875,-207 668,-207"/>
<text text-anchor="start" x="673.5" y="-213.733" font-family="Times Roman,serif" font-size="14.00">[STRING] vendor (Optional) </text>
</a>
<a xlink:href="#" xlink:title="Family of the software.">
<polygon fill="none" stroke="black" points="668,-187 668,-207 875,-207 875,-187 668,-187"/>
<text text-anchor="start" x="677" y="-193.733" font-family="Times Roman,serif" font-size="14.00">[STRING] family (Optional) </text>
</a>
<a xlink:href="#" xlink:title="Name of the software.">
<polygon fill="none" stroke="black" points="668,-167 668,-187 875,-187 875,-167 668,-167"/>
<text text-anchor="start" x="678.5" y="-173.733" font-family="Times Roman,serif" font-size="14.00">[STRING] name (Optional) </text>
</a>
<a xlink:href="#" xlink:title="Version of the software.">
<polygon fill="none" stroke="black" points="668,-147 668,-167 875,-167 875,-147 668,-147"/>
<text text-anchor="start" x="672.5" y="-153.733" font-family="Times Roman,serif" font-size="14.00">[STRING] version (Optional) </text>
</a>
<a xlink:href="#" xlink:title="Patch or service pack level of the software.">
<polygon fill="none" stroke="black" points="668,-127 668,-147 875,-147 875,-127 668,-127"/>
<text text-anchor="start" x="678.5" y="-133.733" font-family="Times Roman,serif" font-size="14.00">[STRING] patch (Optional) </text>
</a>
</g>
<!-- Service&#45;&gt;Application -->
<g id="edge10" class="edge"><title>Service&#45;&gt;Application</title>
<path fill="none" stroke="black" d="M579.773,-251.465C602.768,-247.441 626.659,-243.26 649.443,-239.272"/>
<polygon fill="black" stroke="black" points="650.233,-242.688 659.48,-237.516 649.026,-235.792 650.233,-242.688"/>
<text text-anchor="middle" x="611" y="-252.4" font-family="Times Roman,serif" font-size="14.00">0..*</text>
</g>
</g>
</svg>
