<?xml version="1.0" encoding="UTF-8" standalone="no"?>
<!DOCTYPE svg PUBLIC "-//W3C//DTD SVG 1.1//EN"
 "http://www.w3.org/Graphics/SVG/1.1/DTD/svg11.dtd">
<!-- Generated by graphviz version 2.38.0 (20140413.2041)
 -->
<!-- Title: System Pages: 1 -->
<svg width="775pt" height="866pt"
 viewBox="0.00 0.00 775.00 865.50" xmlns="http://www.w3.org/2000/svg" xmlns:xlink="http://www.w3.org/1999/xlink">
<g id="graph0" class="graph" transform="scale(1 1) rotate(0) translate(4 861.5)">
<title>System</title>
<polygon fill="white" stroke="none" points="-4,4 -4,-861.5 771,-861.5 771,4 -4,4"/>
<!-- System -->
<g id="node1" class="node"><title>System</title>
<g id="a_node1_0"><a xlink:href="/idmef_parser/IODEF/System.html" xlink:title="The System class describes a system or network involved in an event. The systems or networks represented by this class are categorized according to the role they played in the incident through the category attribute. The value of this category attribute dictates the semantics of the aggregated classes in the System class. If the category attribute has a value of &quot;source&quot;, then the aggregated classes denote the machine and service from which the activity is originating. With a category attribute value of &quot;target&quot; or &quot;intermediary&quot;, then the machine or service is the one targeted in the activity. A value of &quot;sensor&quot; dictates that this System was part of an instrumentation to monitor the network. ">
<polygon fill="#182f5f" stroke="none" points="8.5,-497 8.5,-518 207.5,-518 207.5,-497 8.5,-497"/>
<polygon fill="none" stroke="black" points="8.5,-497 8.5,-518 207.5,-518 207.5,-497 8.5,-497"/>
<text text-anchor="start" x="87.5" y="-503.8" font-family="Times,serif" font-size="14.00">System</text>
</a>
</g>
<g id="a_node1_1"><a xlink:href="/idmef_parser/IODEF/System.html" xlink:title="A free&#45;form text description of the System.">
<polygon fill="#284f9f" stroke="none" points="8.5,-476 8.5,-497 207.5,-497 207.5,-476 8.5,-476"/>
<polygon fill="none" stroke="black" points="8.5,-476 8.5,-497 207.5,-497 207.5,-476 8.5,-476"/>
<text text-anchor="start" x="13" y="-482.8" font-family="Times,serif" font-size="14.00">[ML_STRING] Description (0..*) </text>
</a>
</g>
<g id="a_node1_2"><a xlink:href="/idmef_parser/IODEF/System.html" xlink:title="This attribute is defined in Section 3.2.">
<polygon fill="#284f9f" stroke="none" points="8.5,-455 8.5,-476 207.5,-476 207.5,-455 8.5,-455"/>
<polygon fill="none" stroke="black" points="8.5,-455 8.5,-476 207.5,-476 207.5,-455 8.5,-455"/>
<text text-anchor="start" x="22" y="-461.8" font-family="Times,serif" font-size="14.00">[ENUM] restriction (Optional) </text>
</a>
</g>
<g id="a_node1_3"><a xlink:href="/idmef_parser/IODEF/System.html" xlink:title="Classifies the role the host or network played in the incident. &#160;The possible values are:">
<polygon fill="#284f9f" stroke="none" points="8.5,-434 8.5,-455 207.5,-455 207.5,-434 8.5,-434"/>
<polygon fill="none" stroke="black" points="8.5,-434 8.5,-455 207.5,-455 207.5,-434 8.5,-434"/>
<text text-anchor="start" x="25" y="-440.8" font-family="Times,serif" font-size="14.00">[ENUM] category (Required) </text>
</a>
</g>
<g id="a_node1_4"><a xlink:href="/idmef_parser/IODEF/System.html" xlink:title="A means by which to extend the category attribute. &#160;See Section 5.1.">
<polygon fill="#284f9f" stroke="none" points="8.5,-413 8.5,-434 207.5,-434 207.5,-413 8.5,-413"/>
<polygon fill="none" stroke="black" points="8.5,-413 8.5,-434 207.5,-434 207.5,-413 8.5,-413"/>
<text text-anchor="start" x="11.5" y="-419.8" font-family="Times,serif" font-size="14.00">[STRING] ext&#45;category (Optional) </text>
</a>
</g>
<g id="a_node1_5"><a xlink:href="/idmef_parser/IODEF/System.html" xlink:title="Specifies the interface on which the event(s) on this System originated. &#160;If the Node class specifies a network rather than a host, this attribute has no meaning.">
<polygon fill="#284f9f" stroke="none" points="8.5,-392 8.5,-413 207.5,-413 207.5,-392 8.5,-392"/>
<polygon fill="none" stroke="black" points="8.5,-392 8.5,-413 207.5,-413 207.5,-392 8.5,-392"/>
<text text-anchor="start" x="21.5" y="-398.8" font-family="Times,serif" font-size="14.00">[STRING] interface (Optional) </text>
</a>
</g>
<g id="a_node1_6"><a xlink:href="/idmef_parser/IODEF/System.html" xlink:title="An indication of confidence in whether this System was the true target or attacking host. &#160;The permitted values for this attribute are shown below. &#160;The default value is &quot;unknown&quot;.">
<polygon fill="#284f9f" stroke="none" points="8.5,-371 8.5,-392 207.5,-392 207.5,-371 8.5,-371"/>
<polygon fill="none" stroke="black" points="8.5,-371 8.5,-392 207.5,-392 207.5,-371 8.5,-371"/>
<text text-anchor="start" x="28" y="-377.8" font-family="Times,serif" font-size="14.00">[ENUM] spoofed (Optional) </text>
</a>
</g>
</g>
<!-- Node -->
<g id="node2" class="node"><title>Node</title>
<g id="a_node2_7"><a xlink:href="/idmef_parser/IODEF/Node.html" xlink:title="The Node class names a system (e.g., PC, router) or network. ">
<polygon fill="#182f5f" stroke="none" points="285.5,-680 285.5,-701 481.5,-701 481.5,-680 285.5,-680"/>
<polygon fill="none" stroke="black" points="285.5,-680 285.5,-701 481.5,-701 481.5,-680 285.5,-680"/>
<text text-anchor="start" x="368.5" y="-686.8" font-family="Times,serif" font-size="14.00">Node</text>
</a>
</g>
<g id="a_node2_8"><a xlink:href="/idmef_parser/IODEF/Node.html" xlink:title="The name of the Node (e.g., fully qualified domain name). &#160;This information MUST be provided if no Address information is given.">
<polygon fill="#284f9f" stroke="none" points="285.5,-659 285.5,-680 481.5,-680 481.5,-659 285.5,-659"/>
<polygon fill="none" stroke="black" points="285.5,-659 285.5,-680 481.5,-680 481.5,-659 285.5,-659"/>
<text text-anchor="start" x="288.5" y="-665.8" font-family="Times,serif" font-size="14.00">[ML_STRING] NodeName (0..*) </text>
</a>
</g>
<g id="a_node2_9"><a xlink:href="/idmef_parser/IODEF/Node.html" xlink:title="A free&#45;from description of the physical location of the equipment.">
<polygon fill="#284f9f" stroke="none" points="285.5,-638 285.5,-659 481.5,-659 481.5,-638 285.5,-638"/>
<polygon fill="none" stroke="black" points="285.5,-638 285.5,-659 481.5,-659 481.5,-638 285.5,-638"/>
<text text-anchor="start" x="296" y="-644.8" font-family="Times,serif" font-size="14.00">[ML_STRING] Location (0..1) </text>
</a>
</g>
<g id="a_node2_10"><a xlink:href="/idmef_parser/IODEF/Node.html" xlink:title="A timestamp of when the resolution between the name and address was performed. &#160;This information SHOULD be provided if both an Address and NodeName are specified.">
<polygon fill="#284f9f" stroke="none" points="285.5,-617 285.5,-638 481.5,-638 481.5,-617 285.5,-617"/>
<polygon fill="none" stroke="black" points="285.5,-617 285.5,-638 481.5,-638 481.5,-617 285.5,-617"/>
<text text-anchor="start" x="330.5" y="-623.8" font-family="Times,serif" font-size="14.00">[] DateTime (0..1) </text>
</a>
</g>
</g>
<!-- System&#45;&gt;Node -->
<g id="edge4" class="edge"><title>System&#45;&gt;Node</title>
<path fill="none" stroke="black" d="M177.347,-522.738C194.648,-540.257 213.785,-558.067 233,-573 248.848,-585.316 266.647,-597.079 284.288,-607.733"/>
<polygon fill="black" stroke="black" points="282.542,-610.767 292.926,-612.872 286.121,-604.751 282.542,-610.767"/>
<text text-anchor="middle" x="244" y="-589.8" font-family="Times,serif" font-size="14.00">1..1</text>
</g>
<!-- Counter -->
<g id="node5" class="node"><title>Counter</title>
<g id="a_node5_11"><a xlink:href="/idmef_parser/IODEF/Counter.html" xlink:title="The Counter class summarize multiple occurrences of some event, or conveys counts or rates on various features (e.g., packets, sessions, events). ">
<polygon fill="#993016" stroke="none" points="560.5,-590 560.5,-611 758.5,-611 758.5,-590 560.5,-590"/>
<polygon fill="none" stroke="black" points="560.5,-590 560.5,-611 758.5,-611 758.5,-590 560.5,-590"/>
<text text-anchor="start" x="637.5" y="-596.8" font-family="Times,serif" font-size="14.00">Counter</text>
</a>
</g>
<g id="a_node5_12"><a xlink:href="/idmef_parser/IODEF/Counter.html" xlink:title="Specifies the units of the element content.">
<polygon fill="#ff5024" stroke="none" points="560.5,-569 560.5,-590 758.5,-590 758.5,-569 560.5,-569"/>
<polygon fill="none" stroke="black" points="560.5,-569 560.5,-590 758.5,-590 758.5,-569 560.5,-569"/>
<text text-anchor="start" x="588" y="-575.8" font-family="Times,serif" font-size="14.00">[ENUM] type (Required) </text>
</a>
</g>
<g id="a_node5_13"><a xlink:href="/idmef_parser/IODEF/Counter.html" xlink:title="A means by which to extend the type attribute. See Section 5.1.">
<polygon fill="#ff5024" stroke="none" points="560.5,-548 560.5,-569 758.5,-569 758.5,-548 560.5,-548"/>
<polygon fill="none" stroke="black" points="560.5,-548 560.5,-569 758.5,-569 758.5,-548 560.5,-548"/>
<text text-anchor="start" x="574.5" y="-554.8" font-family="Times,serif" font-size="14.00">[STRING] ext&#45;type (Optional) </text>
</a>
</g>
<g id="a_node5_14"><a xlink:href="/idmef_parser/IODEF/Counter.html" xlink:title="If present, the Counter class represents a rate rather than a count over the entire event. &#160;In that case, this attribute specifies the denominator of the rate (where the type attribute specified the nominator). &#160;The possible values of this attribute are defined in Section 3.10.2">
<polygon fill="#ff5024" stroke="none" points="560.5,-527 560.5,-548 758.5,-548 758.5,-527 560.5,-527"/>
<polygon fill="none" stroke="black" points="560.5,-527 560.5,-548 758.5,-548 758.5,-527 560.5,-527"/>
<text text-anchor="start" x="578" y="-533.8" font-family="Times,serif" font-size="14.00">[ENUM] duration (Optional) </text>
</a>
</g>
<g id="a_node5_15"><a xlink:href="/idmef_parser/IODEF/Counter.html" xlink:title="A means by which to extend the duration attribute. &#160;See Section 5.1.">
<polygon fill="#ff5024" stroke="none" points="560.5,-506 560.5,-527 758.5,-527 758.5,-506 560.5,-506"/>
<polygon fill="none" stroke="black" points="560.5,-506 560.5,-527 758.5,-527 758.5,-506 560.5,-506"/>
<text text-anchor="start" x="563.5" y="-512.8" font-family="Times,serif" font-size="14.00">[STRING] ext&#45;duration (Optional) </text>
</a>
</g>
</g>
<!-- System&#45;&gt;Counter -->
<g id="edge8" class="edge"><title>System&#45;&gt;Counter</title>
<path fill="none" stroke="black" d="M215.168,-508.68C233.908,-517.544 253.627,-525.49 273,-531 360.868,-555.992 464.3,-562.322 541.894,-562.77"/>
<polygon fill="black" stroke="black" points="542.177,-566.271 552.186,-562.796 542.195,-559.271 542.177,-566.271"/>
<text text-anchor="middle" x="383.5" y="-565.8" font-family="Times,serif" font-size="14.00">0..*</text>
</g>
<!-- Service -->
<g id="node6" class="node"><title>Service</title>
<g id="a_node6_16"><a xlink:href="/idmef_parser/IODEF/Service.html" xlink:title="The Service class describes a network service of a host or network. The service is identified by specific port or list of ports, along with the application listening on that port. ">
<polygon fill="#182f5f" stroke="none" points="281.5,-497 281.5,-518 486.5,-518 486.5,-497 281.5,-497"/>
<polygon fill="none" stroke="black" points="281.5,-497 281.5,-518 486.5,-518 486.5,-497 281.5,-497"/>
<text text-anchor="start" x="363.5" y="-503.8" font-family="Times,serif" font-size="14.00">Service</text>
</a>
</g>
<g id="a_node6_17"><a xlink:href="/idmef_parser/IODEF/Service.html" xlink:title="A port number.">
<polygon fill="#284f9f" stroke="none" points="281.5,-476 281.5,-497 486.5,-497 486.5,-476 281.5,-476"/>
<polygon fill="none" stroke="black" points="281.5,-476 281.5,-497 486.5,-497 486.5,-476 281.5,-476"/>
<text text-anchor="start" x="318.5" y="-482.8" font-family="Times,serif" font-size="14.00">[INTEGER] Port (0..1) </text>
</a>
</g>
<g id="a_node6_18"><a xlink:href="/idmef_parser/IODEF/Service.html" xlink:title="A list of port numbers formatted according to Section 2.10.">
<polygon fill="#284f9f" stroke="none" points="281.5,-455 281.5,-476 486.5,-476 486.5,-455 281.5,-455"/>
<polygon fill="none" stroke="black" points="281.5,-455 281.5,-476 486.5,-476 486.5,-455 281.5,-455"/>
<text text-anchor="start" x="307.5" y="-461.8" font-family="Times,serif" font-size="14.00">[PORTLIST] Portlist (0..1) </text>
</a>
</g>
<g id="a_node6_19"><a xlink:href="/idmef_parser/IODEF/Service.html" xlink:title="A layer&#45;4 protocol&#45;specific code field (e.g., ICMP code field).">
<polygon fill="#284f9f" stroke="none" points="281.5,-434 281.5,-455 486.5,-455 486.5,-434 281.5,-434"/>
<polygon fill="none" stroke="black" points="281.5,-434 281.5,-455 486.5,-455 486.5,-434 281.5,-434"/>
<text text-anchor="start" x="301" y="-440.8" font-family="Times,serif" font-size="14.00">[INTEGER] ProtoCode (0..1) </text>
</a>
</g>
<g id="a_node6_20"><a xlink:href="/idmef_parser/IODEF/Service.html" xlink:title="A layer&#45;4 protocol specific type field (e.g., ICMP type field).">
<polygon fill="#284f9f" stroke="none" points="281.5,-413 281.5,-434 486.5,-434 486.5,-413 281.5,-413"/>
<polygon fill="none" stroke="black" points="281.5,-413 281.5,-434 486.5,-434 486.5,-413 281.5,-413"/>
<text text-anchor="start" x="301" y="-419.8" font-family="Times,serif" font-size="14.00">[INTEGER] ProtoType (0..1) </text>
</a>
</g>
<g id="a_node6_21"><a xlink:href="/idmef_parser/IODEF/Service.html" xlink:title="A layer&#45;4 protocol specific flag field (e.g., TCP flag field).">
<polygon fill="#284f9f" stroke="none" points="281.5,-392 281.5,-413 486.5,-413 486.5,-392 281.5,-392"/>
<polygon fill="none" stroke="black" points="281.5,-392 281.5,-413 486.5,-413 486.5,-392 281.5,-392"/>
<text text-anchor="start" x="300.5" y="-398.8" font-family="Times,serif" font-size="14.00">[INTEGER] ProtoFlags (0..1) </text>
</a>
</g>
<g id="a_node6_22"><a xlink:href="/idmef_parser/IODEF/Service.html" xlink:title="The IANA protocol number.">
<polygon fill="#284f9f" stroke="none" points="281.5,-371 281.5,-392 486.5,-392 486.5,-371 281.5,-371"/>
<polygon fill="none" stroke="black" points="281.5,-371 281.5,-392 486.5,-392 486.5,-371 281.5,-371"/>
<text text-anchor="start" x="284.5" y="-377.8" font-family="Times,serif" font-size="14.00">[INTEGER] ip_protocol (Required) </text>
</a>
</g>
</g>
<!-- System&#45;&gt;Service -->
<g id="edge6" class="edge"><title>System&#45;&gt;Service</title>
<path fill="none" stroke="black" d="M215.22,-445C230.751,-445 246.829,-445 262.599,-445"/>
<polygon fill="black" stroke="black" points="262.91,-448.5 272.91,-445 262.91,-441.5 262.91,-448.5"/>
<text text-anchor="middle" x="244" y="-448.8" font-family="Times,serif" font-size="14.00">0..*</text>
</g>
<!-- OperatingSystem -->
<g id="node8" class="node"><title>OperatingSystem</title>
<g id="a_node8_23"><a xlink:href="/idmef_parser/IODEF/OperatingSystem.html" xlink:title="The OperatingSystem class describes the operating system running on a System. The definition is identical to the Application class (Section 3.17.1). ">
<polygon fill="#182f5f" stroke="none" points="295.5,-324 295.5,-345 472.5,-345 472.5,-324 295.5,-324"/>
<polygon fill="none" stroke="black" points="295.5,-324 295.5,-345 472.5,-345 472.5,-324 295.5,-324"/>
<text text-anchor="start" x="336.5" y="-330.8" font-family="Times,serif" font-size="14.00">OperatingSystem</text>
</a>
</g>
<g id="a_node8_24"><a xlink:href="/idmef_parser/IODEF/OperatingSystem.html" xlink:title="A URL describing the application.">
<polygon fill="#284f9f" stroke="none" points="295.5,-303 295.5,-324 472.5,-324 472.5,-303 295.5,-303"/>
<polygon fill="none" stroke="black" points="295.5,-303 295.5,-324 472.5,-324 472.5,-303 295.5,-303"/>
<text text-anchor="start" x="331.5" y="-309.8" font-family="Times,serif" font-size="14.00">[URL] URL (0..1) </text>
</a>
</g>
<g id="a_node8_25"><a xlink:href="/idmef_parser/IODEF/OperatingSystem.html" xlink:title="An identifier that can be used to reference this software.">
<polygon fill="#284f9f" stroke="none" points="295.5,-282 295.5,-303 472.5,-303 472.5,-282 295.5,-282"/>
<polygon fill="none" stroke="black" points="295.5,-282 295.5,-303 472.5,-303 472.5,-282 295.5,-282"/>
<text text-anchor="start" x="308.5" y="-288.8" font-family="Times,serif" font-size="14.00">[STRING] swid (Optional) </text>
</a>
</g>
<g id="a_node8_26"><a xlink:href="/idmef_parser/IODEF/OperatingSystem.html" xlink:title="An identifier that can be used to reference a particular configuration of this software.">
<polygon fill="#284f9f" stroke="none" points="295.5,-261 295.5,-282 472.5,-282 472.5,-261 295.5,-261"/>
<polygon fill="none" stroke="black" points="295.5,-261 295.5,-282 472.5,-282 472.5,-261 295.5,-261"/>
<text text-anchor="start" x="298.5" y="-267.8" font-family="Times,serif" font-size="14.00">[STRING] configid (Optional) </text>
</a>
</g>
<g id="a_node8_27"><a xlink:href="/idmef_parser/IODEF/OperatingSystem.html" xlink:title="Vendor name of the software.">
<polygon fill="#284f9f" stroke="none" points="295.5,-240 295.5,-261 472.5,-261 472.5,-240 295.5,-240"/>
<polygon fill="none" stroke="black" points="295.5,-240 295.5,-261 472.5,-261 472.5,-240 295.5,-240"/>
<text text-anchor="start" x="302.5" y="-246.8" font-family="Times,serif" font-size="14.00">[STRING] vendor (Optional) </text>
</a>
</g>
<g id="a_node8_28"><a xlink:href="/idmef_parser/IODEF/OperatingSystem.html" xlink:title="Family of the software.">
<polygon fill="#284f9f" stroke="none" points="295.5,-219 295.5,-240 472.5,-240 472.5,-219 295.5,-219"/>
<polygon fill="none" stroke="black" points="295.5,-219 295.5,-240 472.5,-240 472.5,-219 295.5,-219"/>
<text text-anchor="start" x="303" y="-225.8" font-family="Times,serif" font-size="14.00">[STRING] family (Optional) </text>
</a>
</g>
<g id="a_node8_29"><a xlink:href="/idmef_parser/IODEF/OperatingSystem.html" xlink:title="Name of the software.">
<polygon fill="#284f9f" stroke="none" points="295.5,-198 295.5,-219 472.5,-219 472.5,-198 295.5,-198"/>
<polygon fill="none" stroke="black" points="295.5,-198 295.5,-219 472.5,-219 472.5,-198 295.5,-198"/>
<text text-anchor="start" x="306" y="-204.8" font-family="Times,serif" font-size="14.00">[STRING] name (Optional) </text>
</a>
</g>
<g id="a_node8_30"><a xlink:href="/idmef_parser/IODEF/OperatingSystem.html" xlink:title="Version of the software.">
<polygon fill="#284f9f" stroke="none" points="295.5,-177 295.5,-198 472.5,-198 472.5,-177 295.5,-177"/>
<polygon fill="none" stroke="black" points="295.5,-177 295.5,-198 472.5,-198 472.5,-177 295.5,-177"/>
<text text-anchor="start" x="301" y="-183.8" font-family="Times,serif" font-size="14.00">[STRING] version (Optional) </text>
</a>
</g>
<g id="a_node8_31"><a xlink:href="/idmef_parser/IODEF/OperatingSystem.html" xlink:title="Patch or service pack level of the software.">
<polygon fill="#284f9f" stroke="none" points="295.5,-156 295.5,-177 472.5,-177 472.5,-156 295.5,-156"/>
<polygon fill="none" stroke="black" points="295.5,-156 295.5,-177 472.5,-177 472.5,-156 295.5,-156"/>
<text text-anchor="start" x="306.5" y="-162.8" font-family="Times,serif" font-size="14.00">[STRING] patch (Optional) </text>
</a>
</g>
</g>
<!-- System&#45;&gt;OperatingSystem -->
<g id="edge7" class="edge"><title>System&#45;&gt;OperatingSystem</title>
<path fill="none" stroke="black" d="M215.22,-369.439C236.047,-354.693 257.856,-339.251 278.59,-324.571"/>
<polygon fill="black" stroke="black" points="280.646,-327.404 286.785,-318.769 276.601,-321.691 280.646,-327.404"/>
<text text-anchor="middle" x="244" y="-357.8" font-family="Times,serif" font-size="14.00">0..1</text>
</g>
<!-- AdditionalData -->
<g id="node9" class="node"><title>AdditionalData</title>
<g id="a_node9_32"><a xlink:href="/idmef_parser/IODEF/AdditionalData.html" xlink:title="The AdditionalData class serves as an extension mechanism for information not otherwise represented in the data model. For relatively simple information, atomic data types (e.g., integers, strings) are provided with a mechanism to annotate their meaning. The class can also be used to extend the data model (and the associated Schema) to support proprietary extensions by encapsulating entire XML documents conforming to another Schema (e.g., IDMEF). A detailed discussion for extending the data model and the schema can be found in Section 5. ">
<polygon fill="#997a3d" stroke="none" points="292.5,-109 292.5,-130 475.5,-130 475.5,-109 292.5,-109"/>
<polygon fill="none" stroke="black" points="292.5,-109 292.5,-130 475.5,-130 475.5,-109 292.5,-109"/>
<text text-anchor="start" x="342" y="-115.8" font-family="Times,serif" font-size="14.00">AdditionalData</text>
</a>
</g>
<g id="a_node9_33"><a xlink:href="/idmef_parser/IODEF/AdditionalData.html" xlink:title="The data type of the element content. &#160;The permitted values for this attribute are shown below. &#160;The default value is &quot;string&quot;.">
<polygon fill="#ffcc66" stroke="none" points="292.5,-88 292.5,-109 475.5,-109 475.5,-88 292.5,-88"/>
<polygon fill="none" stroke="black" points="292.5,-88 292.5,-109 475.5,-109 475.5,-88 292.5,-88"/>
<text text-anchor="start" x="309" y="-94.8" font-family="Times,serif" font-size="14.00">[ENUM] dtype (Required) </text>
</a>
</g>
<g id="a_node9_34"><a xlink:href="/idmef_parser/IODEF/AdditionalData.html" xlink:title="A means by which to extend the dtype attribute. &#160;See Section 5.1.">
<polygon fill="#ffcc66" stroke="none" points="292.5,-67 292.5,-88 475.5,-88 475.5,-67 292.5,-67"/>
<polygon fill="none" stroke="black" points="292.5,-67 292.5,-88 475.5,-88 475.5,-67 292.5,-67"/>
<text text-anchor="start" x="295.5" y="-73.8" font-family="Times,serif" font-size="14.00">[STRING] ext&#45;dtype (Optional) </text>
</a>
</g>
<g id="a_node9_35"><a xlink:href="/idmef_parser/IODEF/AdditionalData.html" xlink:title="A free&#45;form description of the element content.">
<polygon fill="#ffcc66" stroke="none" points="292.5,-46 292.5,-67 475.5,-67 475.5,-46 292.5,-46"/>
<polygon fill="none" stroke="black" points="292.5,-46 292.5,-67 475.5,-67 475.5,-46 292.5,-46"/>
<text text-anchor="start" x="297.5" y="-52.8" font-family="Times,serif" font-size="14.00">[STRING] meaning (Optional) </text>
</a>
</g>
<g id="a_node9_36"><a xlink:href="/idmef_parser/IODEF/AdditionalData.html" xlink:title="An identifier referencing the format and semantics of the element content.">
<polygon fill="#ffcc66" stroke="none" points="292.5,-25 292.5,-46 475.5,-46 475.5,-25 292.5,-25"/>
<polygon fill="none" stroke="black" points="292.5,-25 292.5,-46 475.5,-46 475.5,-25 292.5,-25"/>
<text text-anchor="start" x="297.5" y="-31.8" font-family="Times,serif" font-size="14.00">[STRING] formatid (Optional) </text>
</a>
</g>
<g id="a_node9_37"><a xlink:href="/idmef_parser/IODEF/AdditionalData.html" xlink:title="This attribute has been defined in Section 3.2.">
<polygon fill="#ffcc66" stroke="none" points="292.5,-4 292.5,-25 475.5,-25 475.5,-4 292.5,-4"/>
<polygon fill="none" stroke="black" points="292.5,-4 292.5,-25 475.5,-25 475.5,-4 292.5,-4"/>
<text text-anchor="start" x="298" y="-10.8" font-family="Times,serif" font-size="14.00">[ENUM] restriction (Optional) </text>
</a>
</g>
</g>
<!-- System&#45;&gt;AdditionalData -->
<g id="edge9" class="edge"><title>System&#45;&gt;AdditionalData</title>
<path fill="none" stroke="black" d="M138.708,-367.476C166.68,-302.493 212.984,-209.873 273,-143 274.169,-141.698 275.364,-140.406 276.584,-139.125"/>
<polygon fill="black" stroke="black" points="279.203,-141.456 283.81,-131.916 274.259,-136.501 279.203,-141.456"/>
<text text-anchor="middle" x="244" y="-190.8" font-family="Times,serif" font-size="14.00">0..*</text>
</g>
<!-- Address -->
<g id="node3" class="node"><title>Address</title>
<g id="a_node3_38"><a xlink:href="/idmef_parser/IODEF/Address.html" xlink:title="The Address class represents a hardware (layer&#45;2), network (layer&#45;3), or application (layer&#45;7) address. ">
<polygon fill="#182f5f" stroke="none" points="560.5,-832 560.5,-853 759.5,-853 759.5,-832 560.5,-832"/>
<polygon fill="none" stroke="black" points="560.5,-832 560.5,-853 759.5,-853 759.5,-832 560.5,-832"/>
<text text-anchor="start" x="637.5" y="-838.8" font-family="Times,serif" font-size="14.00">Address</text>
</a>
</g>
<g id="a_node3_39"><a xlink:href="/idmef_parser/IODEF/Address.html" xlink:title="The type of address represented. &#160;The permitted values for this attribute are shown below. &#160;The default value is &quot;ipv4&#45;addr&quot;.">
<polygon fill="#284f9f" stroke="none" points="560.5,-811 560.5,-832 759.5,-832 759.5,-811 560.5,-811"/>
<polygon fill="none" stroke="black" points="560.5,-811 560.5,-832 759.5,-832 759.5,-811 560.5,-811"/>
<text text-anchor="start" x="577" y="-817.8" font-family="Times,serif" font-size="14.00">[ENUM] category (Required) </text>
</a>
</g>
<g id="a_node3_40"><a xlink:href="/idmef_parser/IODEF/Address.html" xlink:title="A means by which to extend the category attribute. &#160;See Section 5.1.">
<polygon fill="#284f9f" stroke="none" points="560.5,-790 560.5,-811 759.5,-811 759.5,-790 560.5,-790"/>
<polygon fill="none" stroke="black" points="560.5,-790 560.5,-811 759.5,-811 759.5,-790 560.5,-790"/>
<text text-anchor="start" x="563.5" y="-796.8" font-family="Times,serif" font-size="14.00">[STRING] ext&#45;category (Optional) </text>
</a>
</g>
<g id="a_node3_41"><a xlink:href="/idmef_parser/IODEF/Address.html" xlink:title="The name of the Virtual LAN to which the address belongs.">
<polygon fill="#284f9f" stroke="none" points="560.5,-769 560.5,-790 759.5,-790 759.5,-769 560.5,-769"/>
<polygon fill="none" stroke="black" points="560.5,-769 560.5,-790 759.5,-790 759.5,-769 560.5,-769"/>
<text text-anchor="start" x="568" y="-775.8" font-family="Times,serif" font-size="14.00">[STRING] vlan&#45;name (Optional) </text>
</a>
</g>
<g id="a_node3_42"><a xlink:href="/idmef_parser/IODEF/Address.html" xlink:title="The number of the Virtual LAN to which the address belongs.">
<polygon fill="#284f9f" stroke="none" points="560.5,-748 560.5,-769 759.5,-769 759.5,-748 560.5,-748"/>
<polygon fill="none" stroke="black" points="560.5,-748 560.5,-769 759.5,-769 759.5,-748 560.5,-748"/>
<text text-anchor="start" x="571" y="-754.8" font-family="Times,serif" font-size="14.00">[STRING] vlan&#45;num (Optional) </text>
</a>
</g>
</g>
<!-- Node&#45;&gt;Address -->
<g id="edge1" class="edge"><title>Node&#45;&gt;Address</title>
<path fill="none" stroke="black" d="M473.46,-705.103C495.532,-716.542 519.509,-728.968 542.66,-740.966"/>
<polygon fill="black" stroke="black" points="541.34,-744.224 551.829,-745.718 544.561,-738.009 541.34,-744.224"/>
<text text-anchor="middle" x="523" y="-737.8" font-family="Times,serif" font-size="14.00">0..*</text>
</g>
<!-- NodeRole -->
<g id="node4" class="node"><title>NodeRole</title>
<g id="a_node4_43"><a xlink:href="/idmef_parser/IODEF/NodeRole.html" xlink:title="The NodeRole class describes the intended function performed by a particular host. ">
<polygon fill="#182f5f" stroke="none" points="560.5,-701 560.5,-722 759.5,-722 759.5,-701 560.5,-701"/>
<polygon fill="none" stroke="black" points="560.5,-701 560.5,-722 759.5,-722 759.5,-701 560.5,-701"/>
<text text-anchor="start" x="632.5" y="-707.8" font-family="Times,serif" font-size="14.00">NodeRole</text>
</a>
</g>
<g id="a_node4_44"><a xlink:href="/idmef_parser/IODEF/NodeRole.html" xlink:title="Functionality provided by a node.">
<polygon fill="#284f9f" stroke="none" points="560.5,-680 560.5,-701 759.5,-701 759.5,-680 560.5,-680"/>
<polygon fill="none" stroke="black" points="560.5,-680 560.5,-701 759.5,-701 759.5,-680 560.5,-680"/>
<text text-anchor="start" x="577" y="-686.8" font-family="Times,serif" font-size="14.00">[ENUM] category (Required) </text>
</a>
</g>
<g id="a_node4_45"><a xlink:href="/idmef_parser/IODEF/NodeRole.html" xlink:title="A means by which to extend the category attribute. &#160;See Section 5.1.">
<polygon fill="#284f9f" stroke="none" points="560.5,-659 560.5,-680 759.5,-680 759.5,-659 560.5,-659"/>
<polygon fill="none" stroke="black" points="560.5,-659 560.5,-680 759.5,-680 759.5,-659 560.5,-659"/>
<text text-anchor="start" x="563.5" y="-665.8" font-family="Times,serif" font-size="14.00">[STRING] ext&#45;category (Optional) </text>
</a>
</g>
<g id="a_node4_46"><a xlink:href="/idmef_parser/IODEF/NodeRole.html" xlink:title="A valid language code per RFC 4646 [7] constrained by the definition of &quot;xs:language&quot;. &#160;The interpretation of this code is described in Section 6.">
<polygon fill="#284f9f" stroke="none" points="560.5,-638 560.5,-659 759.5,-659 759.5,-638 560.5,-638"/>
<polygon fill="none" stroke="black" points="560.5,-638 560.5,-659 759.5,-659 759.5,-638 560.5,-638"/>
<text text-anchor="start" x="588.5" y="-644.8" font-family="Times,serif" font-size="14.00">[ENUM] lang (Required) </text>
</a>
</g>
</g>
<!-- Node&#45;&gt;NodeRole -->
<g id="edge2" class="edge"><title>Node&#45;&gt;NodeRole</title>
<path fill="none" stroke="black" d="M489.652,-667.059C506.683,-668.364 524.41,-669.723 541.697,-671.048"/>
<polygon fill="black" stroke="black" points="541.578,-674.549 551.817,-671.824 542.113,-667.57 541.578,-674.549"/>
<text text-anchor="middle" x="523" y="-673.8" font-family="Times,serif" font-size="14.00">0..*</text>
</g>
<!-- Node&#45;&gt;Counter -->
<g id="edge3" class="edge"><title>Node&#45;&gt;Counter</title>
<path fill="none" stroke="black" d="M489.652,-620.623C506.97,-614.303 525.006,-607.72 542.569,-601.31"/>
<polygon fill="black" stroke="black" points="544.076,-604.486 552.27,-597.77 541.676,-597.911 544.076,-604.486"/>
<text text-anchor="middle" x="523" y="-614.8" font-family="Times,serif" font-size="14.00">0..*</text>
</g>
<!-- Application -->
<g id="node7" class="node"><title>Application</title>
<g id="a_node7_47"><a xlink:href="/idmef_parser/IODEF/Application.html" xlink:title="The Application class describes an application running on a System providing a Service. ">
<polygon fill="#182f5f" stroke="none" points="571.5,-459 571.5,-480 748.5,-480 748.5,-459 571.5,-459"/>
<polygon fill="none" stroke="black" points="571.5,-459 571.5,-480 748.5,-480 748.5,-459 571.5,-459"/>
<text text-anchor="start" x="628" y="-465.8" font-family="Times,serif" font-size="14.00">Application</text>
</a>
</g>
<g id="a_node7_48"><a xlink:href="/idmef_parser/IODEF/Application.html" xlink:title="A URL describing the application.">
<polygon fill="#284f9f" stroke="none" points="571.5,-438 571.5,-459 748.5,-459 748.5,-438 571.5,-438"/>
<polygon fill="none" stroke="black" points="571.5,-438 571.5,-459 748.5,-459 748.5,-438 571.5,-438"/>
<text text-anchor="start" x="607.5" y="-444.8" font-family="Times,serif" font-size="14.00">[URL] URL (0..1) </text>
</a>
</g>
<g id="a_node7_49"><a xlink:href="/idmef_parser/IODEF/Application.html" xlink:title="An identifier that can be used to reference this software.">
<polygon fill="#284f9f" stroke="none" points="571.5,-417 571.5,-438 748.5,-438 748.5,-417 571.5,-417"/>
<polygon fill="none" stroke="black" points="571.5,-417 571.5,-438 748.5,-438 748.5,-417 571.5,-417"/>
<text text-anchor="start" x="584.5" y="-423.8" font-family="Times,serif" font-size="14.00">[STRING] swid (Optional) </text>
</a>
</g>
<g id="a_node7_50"><a xlink:href="/idmef_parser/IODEF/Application.html" xlink:title="An identifier that can be used to reference a particular configuration of this software.">
<polygon fill="#284f9f" stroke="none" points="571.5,-396 571.5,-417 748.5,-417 748.5,-396 571.5,-396"/>
<polygon fill="none" stroke="black" points="571.5,-396 571.5,-417 748.5,-417 748.5,-396 571.5,-396"/>
<text text-anchor="start" x="574.5" y="-402.8" font-family="Times,serif" font-size="14.00">[STRING] configid (Optional) </text>
</a>
</g>
<g id="a_node7_51"><a xlink:href="/idmef_parser/IODEF/Application.html" xlink:title="Vendor name of the software.">
<polygon fill="#284f9f" stroke="none" points="571.5,-375 571.5,-396 748.5,-396 748.5,-375 571.5,-375"/>
<polygon fill="none" stroke="black" points="571.5,-375 571.5,-396 748.5,-396 748.5,-375 571.5,-375"/>
<text text-anchor="start" x="578.5" y="-381.8" font-family="Times,serif" font-size="14.00">[STRING] vendor (Optional) </text>
</a>
</g>
<g id="a_node7_52"><a xlink:href="/idmef_parser/IODEF/Application.html" xlink:title="Family of the software.">
<polygon fill="#284f9f" stroke="none" points="571.5,-354 571.5,-375 748.5,-375 748.5,-354 571.5,-354"/>
<polygon fill="none" stroke="black" points="571.5,-354 571.5,-375 748.5,-375 748.5,-354 571.5,-354"/>
<text text-anchor="start" x="579" y="-360.8" font-family="Times,serif" font-size="14.00">[STRING] family (Optional) </text>
</a>
</g>
<g id="a_node7_53"><a xlink:href="/idmef_parser/IODEF/Application.html" xlink:title="Name of the software.">
<polygon fill="#284f9f" stroke="none" points="571.5,-333 571.5,-354 748.5,-354 748.5,-333 571.5,-333"/>
<polygon fill="none" stroke="black" points="571.5,-333 571.5,-354 748.5,-354 748.5,-333 571.5,-333"/>
<text text-anchor="start" x="582" y="-339.8" font-family="Times,serif" font-size="14.00">[STRING] name (Optional) </text>
</a>
</g>
<g id="a_node7_54"><a xlink:href="/idmef_parser/IODEF/Application.html" xlink:title="Version of the software.">
<polygon fill="#284f9f" stroke="none" points="571.5,-312 571.5,-333 748.5,-333 748.5,-312 571.5,-312"/>
<polygon fill="none" stroke="black" points="571.5,-312 571.5,-333 748.5,-333 748.5,-312 571.5,-312"/>
<text text-anchor="start" x="577" y="-318.8" font-family="Times,serif" font-size="14.00">[STRING] version (Optional) </text>
</a>
</g>
<g id="a_node7_55"><a xlink:href="/idmef_parser/IODEF/Application.html" xlink:title="Patch or service pack level of the software.">
<polygon fill="#284f9f" stroke="none" points="571.5,-291 571.5,-312 748.5,-312 748.5,-291 571.5,-291"/>
<polygon fill="none" stroke="black" points="571.5,-291 571.5,-312 748.5,-312 748.5,-291 571.5,-291"/>
<text text-anchor="start" x="582.5" y="-297.8" font-family="Times,serif" font-size="14.00">[STRING] patch (Optional) </text>
</a>
</g>
</g>
<!-- Service&#45;&gt;Application -->
<g id="edge5" class="edge"><title>Service&#45;&gt;Application</title>
<path fill="none" stroke="black" d="M494.368,-421.342C513.639,-417.193 533.656,-412.882 552.811,-408.758"/>
<polygon fill="black" stroke="black" points="553.701,-412.146 562.74,-406.62 552.228,-405.303 553.701,-412.146"/>
<text text-anchor="middle" x="523" y="-421.8" font-family="Times,serif" font-size="14.00">0..*</text>
</g>
</g>
</svg>
