<?xml version="1.0" encoding="UTF-8" standalone="no"?>
<!DOCTYPE svg PUBLIC "-//W3C//DTD SVG 1.1//EN"
 "http://www.w3.org/Graphics/SVG/1.1/DTD/svg11.dtd">
<!-- Generated by graphviz version 2.26.3 (20100126.1600)
 -->
<!-- Title: System Pages: 1 -->
<svg width="908pt" height="830pt"
 viewBox="0.00 0.00 908.00 830.00" xmlns="http://www.w3.org/2000/svg" xmlns:xlink="http://www.w3.org/1999/xlink">
<g id="graph1" class="graph" transform="scale(1 1) rotate(0) translate(4 826)">
<title>System</title>
<polygon fill="white" stroke="white" points="-4,5 -4,-826 905,-826 905,5 -4,5"/>
<!-- System -->
<g id="node1" class="node"><title>System</title>
<a xlink:href="/idmef_parser/IODEF/System.html" xlink:title="The System class describes a system or network involved in an event. The systems or networks represented by this class are categorized according to the role they played in the incident through the category attribute. The value of this category attribute dictates the semantics of the aggregated classes in the System class. If the category attribute has a value of &quot;source&quot;, then the aggregated classes denote the machine and service from which the activity is originating. With a category attribute value of &quot;target&quot; or &quot;intermediary&quot;, then the machine or service is the one targeted in the activity. A value of &quot;sensor&quot; dictates that this System was part of an instrumentation to monitor the network. ">
<polygon fill="#182f5f" stroke="#182f5f" points="8,-475 8,-496 250,-496 250,-475 8,-475"/>
<polygon fill="none" stroke="black" points="8,-475 8,-496 250,-496 250,-475 8,-475"/>
<text text-anchor="start" x="103" y="-482.233" font-family="Times Roman,serif" font-size="14.00">System</text>
</a>
<a xlink:href="/idmef_parser/IODEF/System.html" xlink:title="A free&#45;form text description of the System.">
<polygon fill="#284f9f" stroke="#284f9f" points="8,-455 8,-475 250,-475 250,-455 8,-455"/>
<polygon fill="none" stroke="black" points="8,-455 8,-475 250,-475 250,-455 8,-455"/>
<text text-anchor="start" x="19" y="-461.733" font-family="Times Roman,serif" font-size="14.00">[ML_STRING] Description (0..*) </text>
</a>
<a xlink:href="/idmef_parser/IODEF/System.html" xlink:title="This attribute is defined in Section 3.2.">
<polygon fill="#284f9f" stroke="#284f9f" points="8,-435 8,-455 250,-455 250,-435 8,-435"/>
<polygon fill="none" stroke="black" points="8,-435 8,-455 250,-455 250,-435 8,-435"/>
<text text-anchor="start" x="26" y="-441.733" font-family="Times Roman,serif" font-size="14.00">[ENUM] restriction (Optional) </text>
</a>
<a xlink:href="/idmef_parser/IODEF/System.html" xlink:title="Classifies the role the host or network played in the incident. &#160;The possible values are:">
<polygon fill="#284f9f" stroke="#284f9f" points="8,-415 8,-435 250,-435 250,-415 8,-415"/>
<polygon fill="none" stroke="black" points="8,-415 8,-435 250,-435 250,-415 8,-415"/>
<text text-anchor="start" x="30" y="-421.733" font-family="Times Roman,serif" font-size="14.00">[ENUM] category (Required) </text>
</a>
<a xlink:href="/idmef_parser/IODEF/System.html" xlink:title="A means by which to extend the category attribute. &#160;See Section 5.1.">
<polygon fill="#284f9f" stroke="#284f9f" points="8,-395 8,-415 250,-415 250,-395 8,-395"/>
<polygon fill="none" stroke="black" points="8,-395 8,-415 250,-415 250,-395 8,-395"/>
<text text-anchor="start" x="11.5" y="-401.733" font-family="Times Roman,serif" font-size="14.00">[STRING] ext&#45;category (Optional) </text>
</a>
<a xlink:href="/idmef_parser/IODEF/System.html" xlink:title="Specifies the interface on which the event(s) on this System originated. &#160;If the Node class specifies a network rather than a host, this attribute has no meaning.">
<polygon fill="#284f9f" stroke="#284f9f" points="8,-375 8,-395 250,-395 250,-375 8,-375"/>
<polygon fill="none" stroke="black" points="8,-375 8,-395 250,-395 250,-375 8,-375"/>
<text text-anchor="start" x="25" y="-381.733" font-family="Times Roman,serif" font-size="14.00">[STRING] interface (Optional) </text>
</a>
<a xlink:href="/idmef_parser/IODEF/System.html" xlink:title="An indication of confidence in whether this System was the true target or attacking host. &#160;The permitted values for this attribute are shown below. &#160;The default value is &quot;unknown&quot;.">
<polygon fill="#284f9f" stroke="#284f9f" points="8,-355 8,-375 250,-375 250,-355 8,-355"/>
<polygon fill="none" stroke="black" points="8,-355 8,-375 250,-375 250,-355 8,-355"/>
<text text-anchor="start" x="35" y="-361.733" font-family="Times Roman,serif" font-size="14.00">[ENUM] spoofed (Optional) </text>
</a>
</g>
<!-- Node -->
<g id="node2" class="node"><title>Node</title>
<a xlink:href="/idmef_parser/IODEF/Node.html" xlink:title="The Node class names a system (e.g., PC, router) or network. ">
<polygon fill="#182f5f" stroke="#182f5f" points="339,-653 339,-674 563,-674 563,-653 339,-653"/>
<polygon fill="none" stroke="black" points="339,-653 339,-674 563,-674 563,-653 339,-653"/>
<text text-anchor="start" x="433" y="-660.233" font-family="Times Roman,serif" font-size="14.00">Node</text>
</a>
<a xlink:href="/idmef_parser/IODEF/Node.html" xlink:title="The name of the Node (e.g., fully qualified domain name). &#160;This information MUST be provided if no Address information is given.">
<polygon fill="#284f9f" stroke="#284f9f" points="339,-633 339,-653 563,-653 563,-633 339,-633"/>
<polygon fill="none" stroke="black" points="339,-633 339,-653 563,-653 563,-633 339,-633"/>
<text text-anchor="start" x="342.5" y="-639.733" font-family="Times Roman,serif" font-size="14.00">[ML_STRING] NodeName (0..*) </text>
</a>
<a xlink:href="/idmef_parser/IODEF/Node.html" xlink:title="A free&#45;from description of the physical location of the equipment.">
<polygon fill="#284f9f" stroke="#284f9f" points="339,-613 339,-633 563,-633 563,-613 339,-613"/>
<polygon fill="none" stroke="black" points="339,-613 339,-633 563,-633 563,-613 339,-613"/>
<text text-anchor="start" x="350" y="-619.733" font-family="Times Roman,serif" font-size="14.00">[ML_STRING] Location (0..1) </text>
</a>
<a xlink:href="/idmef_parser/IODEF/Node.html" xlink:title="A timestamp of when the resolution between the name and address was performed. &#160;This information SHOULD be provided if both an Address and NodeName are specified.">
<polygon fill="#284f9f" stroke="#284f9f" points="339,-593 339,-613 563,-613 563,-593 339,-593"/>
<polygon fill="none" stroke="black" points="339,-593 339,-613 563,-613 563,-593 339,-593"/>
<text text-anchor="start" x="386.5" y="-599.733" font-family="Times Roman,serif" font-size="14.00">[] DateTime (0..1) </text>
</a>
</g>
<!-- System&#45;&gt;Node -->
<g id="edge8" class="edge"><title>System&#45;&gt;Node</title>
<path fill="none" stroke="black" d="M209.328,-500.023C230.237,-517.505 253.292,-535.312 276,-550 295.561,-562.652 317.317,-574.596 338.657,-585.291"/>
<polygon fill="black" stroke="black" points="337.255,-588.502 347.77,-589.797 340.357,-582.227 337.255,-588.502"/>
<text text-anchor="middle" x="290" y="-570.4" font-family="Times Roman,serif" font-size="14.00">1..1</text>
</g>
<!-- Counter -->
<g id="node7" class="node"><title>Counter</title>
<a xlink:href="/idmef_parser/IODEF/Counter.html" xlink:title="The Counter class summarize multiple occurrences of some event, or conveys counts or rates on various features (e.g., packets, sessions, events). ">
<polygon fill="#993016" stroke="#993016" points="651,-565 651,-586 892,-586 892,-565 651,-565"/>
<polygon fill="none" stroke="black" points="651,-565 651,-586 892,-586 892,-565 651,-565"/>
<text text-anchor="start" x="743" y="-572.233" font-family="Times Roman,serif" font-size="14.00">Counter</text>
</a>
<a xlink:href="/idmef_parser/IODEF/Counter.html" xlink:title="Specifies the units of the element content.">
<polygon fill="#ff5024" stroke="#ff5024" points="651,-545 651,-565 892,-565 892,-545 651,-545"/>
<polygon fill="none" stroke="black" points="651,-545 651,-565 892,-565 892,-545 651,-545"/>
<text text-anchor="start" x="687" y="-551.733" font-family="Times Roman,serif" font-size="14.00">[ENUM] type (Required) </text>
</a>
<a xlink:href="/idmef_parser/IODEF/Counter.html" xlink:title="A means by which to extend the type attribute. See Section 5.1.">
<polygon fill="#ff5024" stroke="#ff5024" points="651,-525 651,-545 892,-545 892,-525 651,-525"/>
<polygon fill="none" stroke="black" points="651,-525 651,-545 892,-545 892,-525 651,-525"/>
<text text-anchor="start" x="668.5" y="-531.733" font-family="Times Roman,serif" font-size="14.00">[STRING] ext&#45;type (Optional) </text>
</a>
<a xlink:href="/idmef_parser/IODEF/Counter.html" xlink:title="If present, the Counter class represents a rate rather than a count over the entire event. &#160;In that case, this attribute specifies the denominator of the rate (where the type attribute specified the nominator). &#160;The possible values of this attribute are defined in Section 3.10.2">
<polygon fill="#ff5024" stroke="#ff5024" points="651,-505 651,-525 892,-525 892,-505 651,-505"/>
<polygon fill="none" stroke="black" points="651,-505 651,-525 892,-525 892,-505 651,-505"/>
<text text-anchor="start" x="674.5" y="-511.733" font-family="Times Roman,serif" font-size="14.00">[ENUM] duration (Optional) </text>
</a>
<a xlink:href="/idmef_parser/IODEF/Counter.html" xlink:title="A means by which to extend the duration attribute. &#160;See Section 5.1.">
<polygon fill="#ff5024" stroke="#ff5024" points="651,-485 651,-505 892,-505 892,-485 651,-485"/>
<polygon fill="none" stroke="black" points="651,-485 651,-505 892,-505 892,-485 651,-485"/>
<text text-anchor="start" x="654.5" y="-491.733" font-family="Times Roman,serif" font-size="14.00">[STRING] ext&#45;duration (Optional) </text>
</a>
</g>
<!-- System&#45;&gt;Counter -->
<g id="edge16" class="edge"><title>System&#45;&gt;Counter</title>
<path fill="none" stroke="black" d="M258.247,-488.772C279.159,-496.82 300.885,-503.987 322,-509 423.876,-533.187 542.207,-539.445 631.808,-539.919"/>
<polygon fill="black" stroke="black" points="632.027,-543.419 642.037,-539.949 632.047,-536.419 632.027,-543.419"/>
<text text-anchor="middle" x="451" y="-542.4" font-family="Times Roman,serif" font-size="14.00">0..*</text>
</g>
<!-- Service -->
<g id="node10" class="node"><title>Service</title>
<a xlink:href="/idmef_parser/IODEF/Service.html" xlink:title="The Service class describes a network service of a host or network. The service is identified by specific port or list of ports, along with the application listening on that port. ">
<polygon fill="#182f5f" stroke="#182f5f" points="331,-475 331,-496 572,-496 572,-475 331,-475"/>
<polygon fill="none" stroke="black" points="331,-475 331,-496 572,-496 572,-475 331,-475"/>
<text text-anchor="start" x="426" y="-482.233" font-family="Times Roman,serif" font-size="14.00">Service</text>
</a>
<a xlink:href="/idmef_parser/IODEF/Service.html" xlink:title="A port number.">
<polygon fill="#284f9f" stroke="#284f9f" points="331,-455 331,-475 572,-475 572,-455 331,-455"/>
<polygon fill="none" stroke="black" points="331,-455 331,-475 572,-475 572,-455 331,-455"/>
<text text-anchor="start" x="374.5" y="-461.733" font-family="Times Roman,serif" font-size="14.00">[INTEGER] Port (0..1) </text>
</a>
<a xlink:href="/idmef_parser/IODEF/Service.html" xlink:title="A list of port numbers formatted according to Section 2.10.">
<polygon fill="#284f9f" stroke="#284f9f" points="331,-435 331,-455 572,-455 572,-435 331,-435"/>
<polygon fill="none" stroke="black" points="331,-435 331,-455 572,-455 572,-435 331,-435"/>
<text text-anchor="start" x="361.5" y="-441.733" font-family="Times Roman,serif" font-size="14.00">[PORTLIST] Portlist (0..1) </text>
</a>
<a xlink:href="/idmef_parser/IODEF/Service.html" xlink:title="A layer&#45;4 protocol&#45;specific code field (e.g., ICMP code field).">
<polygon fill="#284f9f" stroke="#284f9f" points="331,-415 331,-435 572,-435 572,-415 331,-415"/>
<polygon fill="none" stroke="black" points="331,-415 331,-435 572,-435 572,-415 331,-415"/>
<text text-anchor="start" x="353" y="-421.733" font-family="Times Roman,serif" font-size="14.00">[INTEGER] ProtoCode (0..1) </text>
</a>
<a xlink:href="/idmef_parser/IODEF/Service.html" xlink:title="A layer&#45;4 protocol specific type field (e.g., ICMP type field).">
<polygon fill="#284f9f" stroke="#284f9f" points="331,-395 331,-415 572,-415 572,-395 331,-395"/>
<polygon fill="none" stroke="black" points="331,-395 331,-415 572,-415 572,-395 331,-395"/>
<text text-anchor="start" x="354.5" y="-401.733" font-family="Times Roman,serif" font-size="14.00">[INTEGER] ProtoType (0..1) </text>
</a>
<a xlink:href="/idmef_parser/IODEF/Service.html" xlink:title="A layer&#45;4 protocol specific flag field (e.g., TCP flag field).">
<polygon fill="#284f9f" stroke="#284f9f" points="331,-375 331,-395 572,-395 572,-375 331,-375"/>
<polygon fill="none" stroke="black" points="331,-375 331,-395 572,-395 572,-375 331,-375"/>
<text text-anchor="start" x="352.5" y="-381.733" font-family="Times Roman,serif" font-size="14.00">[INTEGER] ProtoFlags (0..1) </text>
</a>
<a xlink:href="/idmef_parser/IODEF/Service.html" xlink:title="The IANA protocol number.">
<polygon fill="#284f9f" stroke="#284f9f" points="331,-355 331,-375 572,-375 572,-355 331,-355"/>
<polygon fill="none" stroke="black" points="331,-355 331,-375 572,-375 572,-355 331,-355"/>
<text text-anchor="start" x="334.5" y="-361.733" font-family="Times Roman,serif" font-size="14.00">[INTEGER] ip_protocol (Required) </text>
</a>
</g>
<!-- System&#45;&gt;Service -->
<g id="edge12" class="edge"><title>System&#45;&gt;Service</title>
<path fill="none" stroke="black" d="M258.114,-426C275.895,-426 294.215,-426 312.162,-426"/>
<polygon fill="black" stroke="black" points="312.381,-429.5 322.381,-426 312.381,-422.5 312.381,-429.5"/>
<text text-anchor="middle" x="290" y="-430.4" font-family="Times Roman,serif" font-size="14.00">0..*</text>
</g>
<!-- OperatingSystem -->
<g id="node14" class="node"><title>OperatingSystem</title>
<a xlink:href="/idmef_parser/IODEF/OperatingSystem.html" xlink:title="The OperatingSystem class describes the operating system running on a System. The definition is identical to the Application class (Section 3.17.1). ">
<polygon fill="#182f5f" stroke="#182f5f" points="348,-309 348,-330 555,-330 555,-309 348,-309"/>
<polygon fill="none" stroke="black" points="348,-309 348,-330 555,-330 555,-309 348,-309"/>
<text text-anchor="start" x="391" y="-316.233" font-family="Times Roman,serif" font-size="14.00">OperatingSystem</text>
</a>
<a xlink:href="/idmef_parser/IODEF/OperatingSystem.html" xlink:title="A URL describing the application.">
<polygon fill="#284f9f" stroke="#284f9f" points="348,-289 348,-309 555,-309 555,-289 348,-289"/>
<polygon fill="none" stroke="black" points="348,-289 348,-309 555,-309 555,-289 348,-289"/>
<text text-anchor="start" x="392" y="-295.733" font-family="Times Roman,serif" font-size="14.00">[URL] URL (0..1) </text>
</a>
<a xlink:href="/idmef_parser/IODEF/OperatingSystem.html" xlink:title="An identifier that can be used to reference this software.">
<polygon fill="#284f9f" stroke="#284f9f" points="348,-269 348,-289 555,-289 555,-269 348,-269"/>
<polygon fill="none" stroke="black" points="348,-269 348,-289 555,-289 555,-269 348,-269"/>
<text text-anchor="start" x="362" y="-275.733" font-family="Times Roman,serif" font-size="14.00">[STRING] swid (Optional) </text>
</a>
<a xlink:href="/idmef_parser/IODEF/OperatingSystem.html" xlink:title="An identifier that can be used to reference a particular configuration of this software.">
<polygon fill="#284f9f" stroke="#284f9f" points="348,-249 348,-269 555,-269 555,-249 348,-249"/>
<polygon fill="none" stroke="black" points="348,-249 348,-269 555,-269 555,-249 348,-249"/>
<text text-anchor="start" x="351.5" y="-255.733" font-family="Times Roman,serif" font-size="14.00">[STRING] configid (Optional) </text>
</a>
<a xlink:href="/idmef_parser/IODEF/OperatingSystem.html" xlink:title="Vendor name of the software.">
<polygon fill="#284f9f" stroke="#284f9f" points="348,-229 348,-249 555,-249 555,-229 348,-229"/>
<polygon fill="none" stroke="black" points="348,-229 348,-249 555,-249 555,-229 348,-229"/>
<text text-anchor="start" x="353.5" y="-235.733" font-family="Times Roman,serif" font-size="14.00">[STRING] vendor (Optional) </text>
</a>
<a xlink:href="/idmef_parser/IODEF/OperatingSystem.html" xlink:title="Family of the software.">
<polygon fill="#284f9f" stroke="#284f9f" points="348,-209 348,-229 555,-229 555,-209 348,-209"/>
<polygon fill="none" stroke="black" points="348,-209 348,-229 555,-229 555,-209 348,-209"/>
<text text-anchor="start" x="357" y="-215.733" font-family="Times Roman,serif" font-size="14.00">[STRING] family (Optional) </text>
</a>
<a xlink:href="/idmef_parser/IODEF/OperatingSystem.html" xlink:title="Name of the software.">
<polygon fill="#284f9f" stroke="#284f9f" points="348,-189 348,-209 555,-209 555,-189 348,-189"/>
<polygon fill="none" stroke="black" points="348,-189 348,-209 555,-209 555,-189 348,-189"/>
<text text-anchor="start" x="358.5" y="-195.733" font-family="Times Roman,serif" font-size="14.00">[STRING] name (Optional) </text>
</a>
<a xlink:href="/idmef_parser/IODEF/OperatingSystem.html" xlink:title="Version of the software.">
<polygon fill="#284f9f" stroke="#284f9f" points="348,-169 348,-189 555,-189 555,-169 348,-169"/>
<polygon fill="none" stroke="black" points="348,-169 348,-189 555,-189 555,-169 348,-169"/>
<text text-anchor="start" x="352.5" y="-175.733" font-family="Times Roman,serif" font-size="14.00">[STRING] version (Optional) </text>
</a>
<a xlink:href="/idmef_parser/IODEF/OperatingSystem.html" xlink:title="Patch or service pack level of the software.">
<polygon fill="#284f9f" stroke="#284f9f" points="348,-149 348,-169 555,-169 555,-149 348,-149"/>
<polygon fill="none" stroke="black" points="348,-149 348,-169 555,-169 555,-149 348,-149"/>
<text text-anchor="start" x="358.5" y="-155.733" font-family="Times Roman,serif" font-size="14.00">[STRING] patch (Optional) </text>
</a>
</g>
<!-- System&#45;&gt;OperatingSystem -->
<g id="edge14" class="edge"><title>System&#45;&gt;OperatingSystem</title>
<path fill="none" stroke="black" d="M257.188,-351.953C281.399,-337.968 306.644,-323.386 330.605,-309.545"/>
<polygon fill="black" stroke="black" points="332.462,-312.515 339.37,-304.482 328.96,-306.453 332.462,-312.515"/>
<text text-anchor="middle" x="290" y="-343.4" font-family="Times Roman,serif" font-size="14.00">0..1</text>
</g>
<!-- AdditionalData -->
<g id="node17" class="node"><title>AdditionalData</title>
<a xlink:href="/idmef_parser/IODEF/AdditionalData.html" xlink:title="The AdditionalData class serves as an extension mechanism for information not otherwise represented in the data model. For relatively simple information, atomic data types (e.g., integers, strings) are provided with a mechanism to annotate their meaning. The class can also be used to extend the data model (and the associated Schema) to support proprietary extensions by encapsulating entire XML documents conforming to another Schema (e.g., IDMEF). A detailed discussion for extending the data model and the schema can be found in Section 5. ">
<polygon fill="#997a3d" stroke="#997a3d" points="341,-103 341,-124 562,-124 562,-103 341,-103"/>
<polygon fill="none" stroke="black" points="341,-103 341,-124 562,-124 562,-103 341,-103"/>
<text text-anchor="start" x="400" y="-110.233" font-family="Times Roman,serif" font-size="14.00">AdditionalData</text>
</a>
<a xlink:href="/idmef_parser/IODEF/AdditionalData.html" xlink:title="The data type of the element content. &#160;The permitted values for this attribute are shown below. &#160;The default value is &quot;string&quot;.">
<polygon fill="#ffcc66" stroke="#ffcc66" points="341,-83 341,-103 562,-103 562,-83 341,-83"/>
<polygon fill="none" stroke="black" points="341,-83 341,-103 562,-103 562,-83 341,-83"/>
<text text-anchor="start" x="363" y="-89.7333" font-family="Times Roman,serif" font-size="14.00">[ENUM] dtype (Required) </text>
</a>
<a xlink:href="/idmef_parser/IODEF/AdditionalData.html" xlink:title="A means by which to extend the dtype attribute. &#160;See Section 5.1.">
<polygon fill="#ffcc66" stroke="#ffcc66" points="341,-63 341,-83 562,-83 562,-63 341,-63"/>
<polygon fill="none" stroke="black" points="341,-63 341,-83 562,-83 562,-63 341,-63"/>
<text text-anchor="start" x="344.5" y="-69.7333" font-family="Times Roman,serif" font-size="14.00">[STRING] ext&#45;dtype (Optional) </text>
</a>
<a xlink:href="/idmef_parser/IODEF/AdditionalData.html" xlink:title="A free&#45;form description of the element content.">
<polygon fill="#ffcc66" stroke="#ffcc66" points="341,-43 341,-63 562,-63 562,-43 341,-43"/>
<polygon fill="none" stroke="black" points="341,-43 341,-63 562,-63 562,-43 341,-43"/>
<text text-anchor="start" x="348" y="-49.7333" font-family="Times Roman,serif" font-size="14.00">[STRING] meaning (Optional) </text>
</a>
<a xlink:href="/idmef_parser/IODEF/AdditionalData.html" xlink:title="An identifier referencing the format and semantics of the element content.">
<polygon fill="#ffcc66" stroke="#ffcc66" points="341,-23 341,-43 562,-43 562,-23 341,-23"/>
<polygon fill="none" stroke="black" points="341,-23 341,-43 562,-43 562,-23 341,-23"/>
<text text-anchor="start" x="349" y="-29.7333" font-family="Times Roman,serif" font-size="14.00">[STRING] formatid (Optional) </text>
</a>
<a xlink:href="/idmef_parser/IODEF/AdditionalData.html" xlink:title="This attribute has been defined in Section 3.2.">
<polygon fill="#ffcc66" stroke="#ffcc66" points="341,-3 341,-23 562,-23 562,-3 341,-3"/>
<polygon fill="none" stroke="black" points="341,-3 341,-23 562,-23 562,-3 341,-3"/>
<text text-anchor="start" x="348.5" y="-9.73333" font-family="Times Roman,serif" font-size="14.00">[ENUM] restriction (Optional) </text>
</a>
</g>
<!-- System&#45;&gt;AdditionalData -->
<g id="edge18" class="edge"><title>System&#45;&gt;AdditionalData</title>
<path fill="none" stroke="black" d="M165.743,-351.942C199.728,-288.998 255.025,-199.203 322,-137 322.825,-136.234 323.659,-135.473 324.503,-134.716"/>
<polygon fill="black" stroke="black" points="326.985,-137.199 332.318,-128.043 322.44,-131.875 326.985,-137.199"/>
<text text-anchor="middle" x="290" y="-190.4" font-family="Times Roman,serif" font-size="14.00">0..*</text>
</g>
<!-- Address -->
<g id="node3" class="node"><title>Address</title>
<a xlink:href="/idmef_parser/IODEF/Address.html" xlink:title="The Address class represents a hardware (layer&#45;2), network (layer&#45;3), or application (layer&#45;7) address. ">
<polygon fill="#182f5f" stroke="#182f5f" points="650,-797 650,-818 892,-818 892,-797 650,-797"/>
<polygon fill="none" stroke="black" points="650,-797 650,-818 892,-818 892,-797 650,-797"/>
<text text-anchor="start" x="743.5" y="-804.233" font-family="Times Roman,serif" font-size="14.00">Address</text>
</a>
<a xlink:href="/idmef_parser/IODEF/Address.html" xlink:title="The type of address represented. &#160;The permitted values for this attribute are shown below. &#160;The default value is &quot;ipv4&#45;addr&quot;.">
<polygon fill="#284f9f" stroke="#284f9f" points="650,-777 650,-797 892,-797 892,-777 650,-777"/>
<polygon fill="none" stroke="black" points="650,-777 650,-797 892,-797 892,-777 650,-777"/>
<text text-anchor="start" x="672" y="-783.733" font-family="Times Roman,serif" font-size="14.00">[ENUM] category (Required) </text>
</a>
<a xlink:href="/idmef_parser/IODEF/Address.html" xlink:title="A means by which to extend the category attribute. &#160;See Section 5.1.">
<polygon fill="#284f9f" stroke="#284f9f" points="650,-757 650,-777 892,-777 892,-757 650,-757"/>
<polygon fill="none" stroke="black" points="650,-757 650,-777 892,-777 892,-757 650,-757"/>
<text text-anchor="start" x="653.5" y="-763.733" font-family="Times Roman,serif" font-size="14.00">[STRING] ext&#45;category (Optional) </text>
</a>
<a xlink:href="/idmef_parser/IODEF/Address.html" xlink:title="The name of the Virtual LAN to which the address belongs.">
<polygon fill="#284f9f" stroke="#284f9f" points="650,-737 650,-757 892,-757 892,-737 650,-737"/>
<polygon fill="none" stroke="black" points="650,-737 650,-757 892,-757 892,-737 650,-737"/>
<text text-anchor="start" x="661" y="-743.733" font-family="Times Roman,serif" font-size="14.00">[STRING] vlan&#45;name (Optional) </text>
</a>
<a xlink:href="/idmef_parser/IODEF/Address.html" xlink:title="The number of the Virtual LAN to which the address belongs.">
<polygon fill="#284f9f" stroke="#284f9f" points="650,-717 650,-737 892,-737 892,-717 650,-717"/>
<polygon fill="none" stroke="black" points="650,-717 650,-737 892,-737 892,-717 650,-717"/>
<text text-anchor="start" x="664.5" y="-723.733" font-family="Times Roman,serif" font-size="14.00">[STRING] vlan&#45;num (Optional) </text>
</a>
</g>
<!-- Node&#45;&gt;Address -->
<g id="edge2" class="edge"><title>Node&#45;&gt;Address</title>
<path fill="none" stroke="black" d="M556.223,-678.062C580.64,-688.287 606.993,-699.322 632.594,-710.043"/>
<polygon fill="black" stroke="black" points="631.411,-713.342 641.987,-713.976 634.115,-706.885 631.411,-713.342"/>
<text text-anchor="middle" x="611" y="-709.4" font-family="Times Roman,serif" font-size="14.00">0..*</text>
</g>
<!-- NodeRole -->
<g id="node5" class="node"><title>NodeRole</title>
<a xlink:href="/idmef_parser/IODEF/NodeRole.html" xlink:title="The NodeRole class describes the intended function performed by a particular host. ">
<polygon fill="#182f5f" stroke="#182f5f" points="650,-671 650,-692 892,-692 892,-671 650,-671"/>
<polygon fill="none" stroke="black" points="650,-671 650,-692 892,-692 892,-671 650,-671"/>
<text text-anchor="start" x="738.5" y="-678.233" font-family="Times Roman,serif" font-size="14.00">NodeRole</text>
</a>
<a xlink:href="/idmef_parser/IODEF/NodeRole.html" xlink:title="Functionality provided by a node.">
<polygon fill="#284f9f" stroke="#284f9f" points="650,-651 650,-671 892,-671 892,-651 650,-651"/>
<polygon fill="none" stroke="black" points="650,-651 650,-671 892,-671 892,-651 650,-651"/>
<text text-anchor="start" x="672" y="-657.733" font-family="Times Roman,serif" font-size="14.00">[ENUM] category (Required) </text>
</a>
<a xlink:href="/idmef_parser/IODEF/NodeRole.html" xlink:title="A means by which to extend the category attribute. &#160;See Section 5.1.">
<polygon fill="#284f9f" stroke="#284f9f" points="650,-631 650,-651 892,-651 892,-631 650,-631"/>
<polygon fill="none" stroke="black" points="650,-631 650,-651 892,-651 892,-631 650,-631"/>
<text text-anchor="start" x="653.5" y="-637.733" font-family="Times Roman,serif" font-size="14.00">[STRING] ext&#45;category (Optional) </text>
</a>
<a xlink:href="/idmef_parser/IODEF/NodeRole.html" xlink:title="A valid language code per RFC 4646 [7] constrained by the definition of &quot;xs:language&quot;. &#160;The interpretation of this code is described in Section 6.">
<polygon fill="#284f9f" stroke="#284f9f" points="650,-611 650,-631 892,-631 892,-611 650,-611"/>
<polygon fill="none" stroke="black" points="650,-611 650,-631 892,-631 892,-611 650,-611"/>
<text text-anchor="start" x="687.5" y="-617.733" font-family="Times Roman,serif" font-size="14.00">[ENUM] lang (Required) </text>
</a>
</g>
<!-- Node&#45;&gt;NodeRole -->
<g id="edge4" class="edge"><title>Node&#45;&gt;NodeRole</title>
<path fill="none" stroke="black" d="M571.067,-640.754C590.865,-641.867 611.536,-643.03 631.756,-644.168"/>
<polygon fill="black" stroke="black" points="631.779,-647.674 641.96,-644.741 632.172,-640.685 631.779,-647.674"/>
<text text-anchor="middle" x="611" y="-647.4" font-family="Times Roman,serif" font-size="14.00">0..*</text>
</g>
<!-- Node&#45;&gt;Counter -->
<g id="edge6" class="edge"><title>Node&#45;&gt;Counter</title>
<path fill="none" stroke="black" d="M571.067,-597.23C591.199,-591.064 612.233,-584.622 632.779,-578.33"/>
<polygon fill="black" stroke="black" points="633.961,-581.629 642.498,-575.354 631.911,-574.936 633.961,-581.629"/>
<text text-anchor="middle" x="611" y="-591.4" font-family="Times Roman,serif" font-size="14.00">0..*</text>
</g>
<!-- Application -->
<g id="node11" class="node"><title>Application</title>
<a xlink:href="/idmef_parser/IODEF/Application.html" xlink:title="The Application class describes an application running on a System providing a Service. ">
<polygon fill="#182f5f" stroke="#182f5f" points="668,-439 668,-460 875,-460 875,-439 668,-439"/>
<polygon fill="none" stroke="black" points="668,-439 668,-460 875,-460 875,-439 668,-439"/>
<text text-anchor="start" x="733.5" y="-446.233" font-family="Times Roman,serif" font-size="14.00">Application</text>
</a>
<a xlink:href="/idmef_parser/IODEF/Application.html" xlink:title="A URL describing the application.">
<polygon fill="#284f9f" stroke="#284f9f" points="668,-419 668,-439 875,-439 875,-419 668,-419"/>
<polygon fill="none" stroke="black" points="668,-419 668,-439 875,-439 875,-419 668,-419"/>
<text text-anchor="start" x="712" y="-425.733" font-family="Times Roman,serif" font-size="14.00">[URL] URL (0..1) </text>
</a>
<a xlink:href="/idmef_parser/IODEF/Application.html" xlink:title="An identifier that can be used to reference this software.">
<polygon fill="#284f9f" stroke="#284f9f" points="668,-399 668,-419 875,-419 875,-399 668,-399"/>
<polygon fill="none" stroke="black" points="668,-399 668,-419 875,-419 875,-399 668,-399"/>
<text text-anchor="start" x="682" y="-405.733" font-family="Times Roman,serif" font-size="14.00">[STRING] swid (Optional) </text>
</a>
<a xlink:href="/idmef_parser/IODEF/Application.html" xlink:title="An identifier that can be used to reference a particular configuration of this software.">
<polygon fill="#284f9f" stroke="#284f9f" points="668,-379 668,-399 875,-399 875,-379 668,-379"/>
<polygon fill="none" stroke="black" points="668,-379 668,-399 875,-399 875,-379 668,-379"/>
<text text-anchor="start" x="671.5" y="-385.733" font-family="Times Roman,serif" font-size="14.00">[STRING] configid (Optional) </text>
</a>
<a xlink:href="/idmef_parser/IODEF/Application.html" xlink:title="Vendor name of the software.">
<polygon fill="#284f9f" stroke="#284f9f" points="668,-359 668,-379 875,-379 875,-359 668,-359"/>
<polygon fill="none" stroke="black" points="668,-359 668,-379 875,-379 875,-359 668,-359"/>
<text text-anchor="start" x="673.5" y="-365.733" font-family="Times Roman,serif" font-size="14.00">[STRING] vendor (Optional) </text>
</a>
<a xlink:href="/idmef_parser/IODEF/Application.html" xlink:title="Family of the software.">
<polygon fill="#284f9f" stroke="#284f9f" points="668,-339 668,-359 875,-359 875,-339 668,-339"/>
<polygon fill="none" stroke="black" points="668,-339 668,-359 875,-359 875,-339 668,-339"/>
<text text-anchor="start" x="677" y="-345.733" font-family="Times Roman,serif" font-size="14.00">[STRING] family (Optional) </text>
</a>
<a xlink:href="/idmef_parser/IODEF/Application.html" xlink:title="Name of the software.">
<polygon fill="#284f9f" stroke="#284f9f" points="668,-319 668,-339 875,-339 875,-319 668,-319"/>
<polygon fill="none" stroke="black" points="668,-319 668,-339 875,-339 875,-319 668,-319"/>
<text text-anchor="start" x="678.5" y="-325.733" font-family="Times Roman,serif" font-size="14.00">[STRING] name (Optional) </text>
</a>
<a xlink:href="/idmef_parser/IODEF/Application.html" xlink:title="Version of the software.">
<polygon fill="#284f9f" stroke="#284f9f" points="668,-299 668,-319 875,-319 875,-299 668,-299"/>
<polygon fill="none" stroke="black" points="668,-299 668,-319 875,-319 875,-299 668,-299"/>
<text text-anchor="start" x="672.5" y="-305.733" font-family="Times Roman,serif" font-size="14.00">[STRING] version (Optional) </text>
</a>
<a xlink:href="/idmef_parser/IODEF/Application.html" xlink:title="Patch or service pack level of the software.">
<polygon fill="#284f9f" stroke="#284f9f" points="668,-279 668,-299 875,-299 875,-279 668,-279"/>
<polygon fill="none" stroke="black" points="668,-279 668,-299 875,-299 875,-279 668,-279"/>
<text text-anchor="start" x="678.5" y="-285.733" font-family="Times Roman,serif" font-size="14.00">[STRING] patch (Optional) </text>
</a>
</g>
<!-- Service&#45;&gt;Application -->
<g id="edge10" class="edge"><title>Service&#45;&gt;Application</title>
<path fill="none" stroke="black" d="M579.773,-403.465C602.768,-399.441 626.659,-395.26 649.443,-391.272"/>
<polygon fill="black" stroke="black" points="650.233,-394.688 659.48,-389.516 649.026,-387.792 650.233,-394.688"/>
<text text-anchor="middle" x="611" y="-404.4" font-family="Times Roman,serif" font-size="14.00">0..*</text>
</g>
</g>
</svg>
