<?xml version="1.0" encoding="UTF-8" standalone="no"?>
<!DOCTYPE svg PUBLIC "-//W3C//DTD SVG 1.1//EN"
 "http://www.w3.org/Graphics/SVG/1.1/DTD/svg11.dtd">
<!-- Generated by graphviz version 2.26.3 (20100126.1600)
 -->
<!-- Title: Action Pages: 1 -->
<svg width="168pt" height="56pt"
 viewBox="0.00 0.00 168.00 56.00" xmlns="http://www.w3.org/2000/svg" xmlns:xlink="http://www.w3.org/1999/xlink">
<g id="graph1" class="graph" transform="scale(1 1) rotate(0) translate(4 52)">
<title>Action</title>
<polygon fill="white" stroke="white" points="-4,5 -4,-52 165,-52 165,5 -4,5"/>
<!-- Action -->
<g id="node1" class="node"><title>Action</title>
<a xlink:href="#" xlink:title="The Action class is used to describe any actions taken by the analyzer in response to the event. Is is represented in the IDMEF DTD as follows: ">
<polygon fill="#993016" stroke="#993016" points="8,-23 8,-44 152,-44 152,-23 8,-23"/>
<polygon fill="none" stroke="black" points="8,-23 8,-44 152,-44 152,-23 8,-23"/>
<text text-anchor="start" x="58" y="-30.2333" font-family="Times Roman,serif" font-size="14.00">Action</text>
</a>
<a xlink:href="#" xlink:title="The default value is &quot;other&quot;. &#160;(See also Section 10.)">
<polygon fill="#ff5024" stroke="#ff5024" points="8,-3 8,-23 152,-23 152,-3 8,-3"/>
<polygon fill="none" stroke="black" points="8,-3 8,-23 152,-23 152,-3 8,-3"/>
<text text-anchor="start" x="11.5" y="-9.73333" font-family="Times Roman,serif" font-size="14.00">[ENUM] category () </text>
</a>
</g>
</g>
</svg>
