<?xml version="1.0" encoding="UTF-8" standalone="no"?>
<!DOCTYPE svg PUBLIC "-//W3C//DTD SVG 1.1//EN"
 "http://www.w3.org/Graphics/SVG/1.1/DTD/svg11.dtd">
<!-- Generated by graphviz version 2.26.3 (20100126.1600)
 -->
<!-- Title: Impact Pages: 1 -->
<svg width="242pt" height="96pt"
 viewBox="0.00 0.00 242.00 96.00" xmlns="http://www.w3.org/2000/svg" xmlns:xlink="http://www.w3.org/1999/xlink">
<g id="graph1" class="graph" transform="scale(1 1) rotate(0) translate(4 92)">
<title>Impact</title>
<polygon fill="white" stroke="white" points="-4,5 -4,-92 239,-92 239,5 -4,5"/>
<!-- Impact -->
<g id="node1" class="node"><title>Impact</title>
<a xlink:href="#" xlink:title="The Impact class is used to provide the analyzer&#39;s assessment of the impact of the event on the target(s). It is represented in the IDMEF DTD as follows: ">
<polygon fill="#993016" stroke="#993016" points="8,-63 8,-84 226,-84 226,-63 8,-63"/>
<polygon fill="none" stroke="black" points="8,-63 8,-84 226,-84 226,-63 8,-63"/>
<text text-anchor="start" x="93.5" y="-70.2333" font-family="Times Roman,serif" font-size="14.00">Impact</text>
</a>
<a xlink:href="#" xlink:title="Section 10.)">
<polygon fill="#ff5024" stroke="#ff5024" points="8,-43 8,-63 226,-63 226,-43 8,-43"/>
<polygon fill="none" stroke="black" points="8,-43 8,-63 226,-63 226,-43 8,-43"/>
<text text-anchor="start" x="21.5" y="-49.7333" font-family="Times Roman,serif" font-size="14.00">[ENUM] severity (Optional) </text>
</a>
<a xlink:href="#" xlink:title="Section 10.)">
<polygon fill="#ff5024" stroke="#ff5024" points="8,-23 8,-43 226,-43 226,-23 8,-23"/>
<polygon fill="none" stroke="black" points="8,-23 8,-43 226,-43 226,-23 8,-23"/>
<text text-anchor="start" x="11.5" y="-29.7333" font-family="Times Roman,serif" font-size="14.00">[ENUM] completion (Optional) </text>
</a>
<a xlink:href="#" xlink:title="value is &quot;other&quot;. &#160;(See also Section 10.)">
<polygon fill="#ff5024" stroke="#ff5024" points="8,-3 8,-23 226,-23 226,-3 8,-3"/>
<polygon fill="none" stroke="black" points="8,-3 8,-23 226,-23 226,-3 8,-3"/>
<text text-anchor="start" x="34" y="-9.73333" font-family="Times Roman,serif" font-size="14.00">[ENUM] type (Optional) </text>
</a>
</g>
</g>
</svg>
