<?xml version="1.0" encoding="UTF-8" standalone="no"?>
<!DOCTYPE svg PUBLIC "-//W3C//DTD SVG 1.1//EN"
 "http://www.w3.org/Graphics/SVG/1.1/DTD/svg11.dtd">
<!-- Generated by graphviz version 2.26.3 (20100126.1600)
 -->
<!-- Title: Node Pages: 1 -->
<svg width="536pt" height="156pt"
 viewBox="0.00 0.00 536.00 156.00" xmlns="http://www.w3.org/2000/svg" xmlns:xlink="http://www.w3.org/1999/xlink">
<g id="graph1" class="graph" transform="scale(1 1) rotate(0) translate(4 152)">
<title>Node</title>
<polygon fill="white" stroke="white" points="-4,5 -4,-152 533,-152 533,5 -4,5"/>
<!-- Node -->
<g id="node1" class="node"><title>Node</title>
<a xlink:href="#" xlink:title="The Node class is used to identify hosts and other network devices (routers, switches, etc.). ">
<polygon fill="#007a00" stroke="#007a00" points="9,-103 9,-124 212,-124 212,-103 9,-103"/>
<polygon fill="none" stroke="black" points="9,-103 9,-124 212,-124 212,-103 9,-103"/>
<text text-anchor="start" x="92.5" y="-110.233" font-family="Times Roman,serif" font-size="14.00">Node</text>
</a>
<a xlink:href="#" xlink:title="The location of the equipment.">
<polygon fill="#00cc00" stroke="#00cc00" points="9,-83 9,-103 212,-103 212,-83 9,-83"/>
<polygon fill="none" stroke="black" points="9,-83 9,-103 212,-103 212,-83 9,-83"/>
<text text-anchor="start" x="25.5" y="-89.7333" font-family="Times Roman,serif" font-size="14.00">[STRING] location (0..1) </text>
</a>
<a xlink:href="#" xlink:title="The name of the equipment. &#160;This information MUST be provided if no Address information is given.">
<polygon fill="#00cc00" stroke="#00cc00" points="9,-63 9,-83 212,-83 212,-63 9,-63"/>
<polygon fill="none" stroke="black" points="9,-63 9,-83 212,-83 212,-63 9,-63"/>
<text text-anchor="start" x="33.5" y="-69.7333" font-family="Times Roman,serif" font-size="14.00">[STRING] name (0..1) </text>
</a>
<a xlink:href="#" xlink:title="A unique identifier for the node; see Section 3.2.9.">
<polygon fill="#00cc00" stroke="#00cc00" points="9,-43 9,-63 212,-63 212,-43 9,-43"/>
<polygon fill="none" stroke="black" points="9,-43 9,-63 212,-63 212,-43 9,-43"/>
<text text-anchor="start" x="19" y="-49.7333" font-family="Times Roman,serif" font-size="14.00">[STRING] ident (Optional) </text>
</a>
<a xlink:href="#" xlink:title="The &quot;domain&quot; from which the name information was obtained, if relevant. &#160;The permitted values for this attribute are shown in the table below. &#160;The default value is &quot;unknown&quot;. (See also Section 10 for extensions to the table.)">
<polygon fill="#00cc00" stroke="#00cc00" points="9,-23 9,-43 212,-43 212,-23 9,-23"/>
<polygon fill="none" stroke="black" points="9,-23 9,-43 212,-43 212,-23 9,-23"/>
<text text-anchor="start" x="12.5" y="-29.7333" font-family="Times Roman,serif" font-size="14.00">[ENUM] category (Optional) </text>
</a>
</g>
<!-- Address -->
<g id="node2" class="node"><title>Address</title>
<a xlink:href="#" xlink:title="The Address class is used to represent network, hardware, and application addresses. ">
<polygon fill="#007a00" stroke="#007a00" points="291,-123 291,-144 520,-144 520,-123 291,-123"/>
<polygon fill="none" stroke="black" points="291,-123 291,-144 520,-144 520,-123 291,-123"/>
<text text-anchor="start" x="378" y="-130.233" font-family="Times Roman,serif" font-size="14.00">Address</text>
</a>
<a xlink:href="#" xlink:title="The address information. &#160;The format of this data is governed by the category attribute.">
<polygon fill="#00cc00" stroke="#00cc00" points="291,-103 291,-123 520,-123 520,-103 291,-103"/>
<polygon fill="none" stroke="black" points="291,-103 291,-123 520,-123 520,-103 291,-103"/>
<text text-anchor="start" x="330" y="-109.733" font-family="Times Roman,serif" font-size="14.00">[STRING] address (1) </text>
</a>
<a xlink:href="#" xlink:title="The network mask for the address, if appropriate.">
<polygon fill="#00cc00" stroke="#00cc00" points="291,-83 291,-103 520,-103 520,-83 291,-83"/>
<polygon fill="none" stroke="black" points="291,-83 291,-103 520,-103 520,-83 291,-83"/>
<text text-anchor="start" x="318" y="-89.7333" font-family="Times Roman,serif" font-size="14.00">[STRING] netmask (0..1) </text>
</a>
<a xlink:href="#" xlink:title="A unique identifier for the address; see Section 3.2.9.">
<polygon fill="#00cc00" stroke="#00cc00" points="291,-63 291,-83 520,-83 520,-63 291,-63"/>
<polygon fill="none" stroke="black" points="291,-63 291,-83 520,-83 520,-63 291,-63"/>
<text text-anchor="start" x="314" y="-69.7333" font-family="Times Roman,serif" font-size="14.00">[STRING] ident (Optional) </text>
</a>
<a xlink:href="#" xlink:title="The type of address represented. &#160;The permitted values for this attribute are shown below. &#160;The default value is &quot;unknown&quot;. &#160;(See also Section 10.)">
<polygon fill="#00cc00" stroke="#00cc00" points="291,-43 291,-63 520,-63 520,-43 291,-43"/>
<polygon fill="none" stroke="black" points="291,-43 291,-63 520,-63 520,-43 291,-43"/>
<text text-anchor="start" x="307.5" y="-49.7333" font-family="Times Roman,serif" font-size="14.00">[ENUM] category (Optional) </text>
</a>
<a xlink:href="#" xlink:title="The name of the Virtual LAN to which the address belongs.">
<polygon fill="#00cc00" stroke="#00cc00" points="291,-23 291,-43 520,-43 520,-23 291,-23"/>
<polygon fill="none" stroke="black" points="291,-23 291,-43 520,-43 520,-23 291,-23"/>
<text text-anchor="start" x="295.5" y="-29.7333" font-family="Times Roman,serif" font-size="14.00">[STRING] vlan&#45;name (Optional) </text>
</a>
<a xlink:href="#" xlink:title="The number of the Virtual LAN to which the address belongs.">
<polygon fill="#00cc00" stroke="#00cc00" points="291,-3 291,-23 520,-23 520,-3 291,-3"/>
<polygon fill="none" stroke="black" points="291,-3 291,-23 520,-23 520,-3 291,-3"/>
<text text-anchor="start" x="294.5" y="-9.73333" font-family="Times Roman,serif" font-size="14.00">[INTEGER] vlan&#45;num (Optional) </text>
</a>
</g>
<!-- Node&#45;&gt;Address -->
<g id="edge2" class="edge"><title>Node&#45;&gt;Address</title>
<path fill="none" stroke="black" d="M219.847,-74C236.827,-74 254.521,-74 271.944,-74"/>
<polygon fill="black" stroke="black" points="272.163,-77.5001 282.163,-74 272.163,-70.5001 272.163,-77.5001"/>
<text text-anchor="middle" x="251" y="-78.4" font-family="Times Roman,serif" font-size="14.00">0..*</text>
</g>
</g>
</svg>
