<?xml version="1.0" encoding="UTF-8" standalone="no"?>
<!DOCTYPE svg PUBLIC "-//W3C//DTD SVG 1.1//EN"
 "http://www.w3.org/Graphics/SVG/1.1/DTD/svg11.dtd">
<!-- Generated by graphviz version 2.26.3 (20100126.1600)
 -->
<!-- Title: Process Pages: 1 -->
<svg width="214pt" height="156pt"
 viewBox="0.00 0.00 214.00 156.00" xmlns="http://www.w3.org/2000/svg" xmlns:xlink="http://www.w3.org/1999/xlink">
<g id="graph1" class="graph" transform="scale(1 1) rotate(0) translate(4 152)">
<title>Process</title>
<polygon fill="white" stroke="white" points="-4,5 -4,-152 211,-152 211,5 -4,5"/>
<!-- Process -->
<g id="node1" class="node"><title>Process</title>
<a xlink:href="#" xlink:title="The Process class is used to describe processes being executed on sources, targets, and analyzers. ">
<polygon fill="#997a3d" stroke="#997a3d" points="8,-123 8,-144 198,-144 198,-123 8,-123"/>
<polygon fill="none" stroke="black" points="8,-123 8,-144 198,-144 198,-123 8,-123"/>
<text text-anchor="start" x="77" y="-130.233" font-family="Times Roman,serif" font-size="14.00">Process</text>
</a>
<a xlink:href="#" xlink:title="The name of the program being executed. This is a short name; path and argument information are provided elsewhere.">
<polygon fill="#ffcc66" stroke="#ffcc66" points="8,-103 8,-123 198,-123 198,-103 8,-103"/>
<polygon fill="none" stroke="black" points="8,-103 8,-123 198,-123 198,-103 8,-103"/>
<text text-anchor="start" x="35" y="-109.733" font-family="Times Roman,serif" font-size="14.00">[STRING] name (1) </text>
</a>
<a xlink:href="#" xlink:title="The process identifier of the process.">
<polygon fill="#ffcc66" stroke="#ffcc66" points="8,-83 8,-103 198,-103 198,-83 8,-83"/>
<polygon fill="none" stroke="black" points="8,-83 8,-103 198,-103 198,-83 8,-83"/>
<text text-anchor="start" x="30.5" y="-89.7333" font-family="Times Roman,serif" font-size="14.00">[INTEGER] pid (0..1) </text>
</a>
<a xlink:href="#" xlink:title="The full path of the program being executed.">
<polygon fill="#ffcc66" stroke="#ffcc66" points="8,-63 8,-83 198,-83 198,-63 8,-63"/>
<polygon fill="none" stroke="black" points="8,-63 8,-83 198,-83 198,-63 8,-63"/>
<text text-anchor="start" x="29" y="-69.7333" font-family="Times Roman,serif" font-size="14.00">[STRING] path (0..1) </text>
</a>
<a xlink:href="#" xlink:title="A command&#45;line argument to the program. Multiple arguments may be specified (they are assumed to have occurred in the same order they are provided) with multiple uses of arg.">
<polygon fill="#ffcc66" stroke="#ffcc66" points="8,-43 8,-63 198,-63 198,-43 8,-43"/>
<polygon fill="none" stroke="black" points="8,-43 8,-63 198,-63 198,-43 8,-43"/>
<text text-anchor="start" x="34.5" y="-49.7333" font-family="Times Roman,serif" font-size="14.00">[STRING] arg (0..*) </text>
</a>
<a xlink:href="#" xlink:title="An environment string associated with the process; generally of the format &quot;VARIABLE=value&quot;. &#160;Multiple environment strings may be specified with multiple uses of env.">
<polygon fill="#ffcc66" stroke="#ffcc66" points="8,-23 8,-43 198,-43 198,-23 8,-23"/>
<polygon fill="none" stroke="black" points="8,-23 8,-43 198,-43 198,-23 8,-23"/>
<text text-anchor="start" x="33" y="-29.7333" font-family="Times Roman,serif" font-size="14.00">[STRING] env (0..*) </text>
</a>
<a xlink:href="#" xlink:title="A unique identifier for the process; see Section 3.2.9.">
<polygon fill="#ffcc66" stroke="#ffcc66" points="8,-3 8,-23 198,-23 198,-3 8,-3"/>
<polygon fill="none" stroke="black" points="8,-3 8,-23 198,-23 198,-3 8,-3"/>
<text text-anchor="start" x="11.5" y="-9.73333" font-family="Times Roman,serif" font-size="14.00">[STRING] ident (Optional) </text>
</a>
</g>
</g>
</svg>
