<?xml version="1.0" encoding="UTF-8" standalone="no"?>
<!DOCTYPE svg PUBLIC "-//W3C//DTD SVG 1.1//EN"
 "http://www.w3.org/Graphics/SVG/1.1/DTD/svg11.dtd">
<!-- Generated by graphviz version 2.26.3 (20100126.1600)
 -->
<!-- Title: Service Pages: 1 -->
<svg width="700pt" height="322pt"
 viewBox="0.00 0.00 700.00 322.00" xmlns="http://www.w3.org/2000/svg" xmlns:xlink="http://www.w3.org/1999/xlink">
<g id="graph1" class="graph" transform="scale(1 1) rotate(0) translate(4 318)">
<title>Service</title>
<polygon fill="white" stroke="white" points="-4,5 -4,-318 697,-318 697,5 -4,5"/>
<!-- Service -->
<g id="node1" class="node"><title>Service</title>
<a xlink:href="#" xlink:title="The Service class describes network services on sources and targets. It can identify services by name, port, and protocol. When Service occurs as an aggregate class of Source, it is understood that the service is one from which activity of interest is originating; and that the service is &quot;attached&quot; to the Node, Process, and User information also contained in Source. Likewise, when Service occurs as an aggregate class of Target, it is understood that the service is one to which activity of interest is being directed; and that the service is &quot;attached&quot; to the Node, Process, and User information also contained in Target. If Service occurs in both Source and Target, then information in both locations should be the same. If information is the same in both locations and implementers wish to carry it in only one location, they should specify it as an aggregate of the Target class. ">
<polygon fill="#997a7a" stroke="#997a7a" points="9,-246 9,-267 326,-267 326,-246 9,-246"/>
<polygon fill="none" stroke="black" points="9,-246 9,-267 326,-267 326,-246 9,-246"/>
<text text-anchor="start" x="142" y="-253.233" font-family="Times Roman,serif" font-size="14.00">Service</text>
</a>
<a xlink:href="#" xlink:title="The name of the service. &#160;Whenever possible, the name from the IANA list of well&#45;known ports SHOULD be used.">
<polygon fill="#ffcccc" stroke="#ffcccc" points="9,-226 9,-246 326,-246 326,-226 9,-226"/>
<polygon fill="none" stroke="black" points="9,-226 9,-246 326,-246 326,-226 9,-226"/>
<text text-anchor="start" x="90.5" y="-232.733" font-family="Times Roman,serif" font-size="14.00">[STRING] name (0..1) </text>
</a>
<a xlink:href="#" xlink:title="The port number being used.">
<polygon fill="#ffcccc" stroke="#ffcccc" points="9,-206 9,-226 326,-226 326,-206 9,-206"/>
<polygon fill="none" stroke="black" points="9,-206 9,-226 326,-226 326,-206 9,-206"/>
<text text-anchor="start" x="90.5" y="-212.733" font-family="Times Roman,serif" font-size="14.00">[INTEGER] port (0..1) </text>
</a>
<a xlink:href="#" xlink:title="A list of port numbers being used; see Section 3.2.8 for formatting rules. &#160;If a portlist is given, the iana_protocol_number and iana_protocol_name MUST apply to all the elements of the list.">
<polygon fill="#ffcccc" stroke="#ffcccc" points="9,-186 9,-206 326,-206 326,-186 9,-186"/>
<polygon fill="none" stroke="black" points="9,-186 9,-206 326,-206 326,-186 9,-186"/>
<text text-anchor="start" x="77.5" y="-192.733" font-family="Times Roman,serif" font-size="14.00">[PORTLIST] portlist (0..1) </text>
</a>
<a xlink:href="#" xlink:title="Additional information about the protocol being used. &#160;The intent of the protocol field is to carry additional information related to the protocol being used when the &lt;Service&gt; attributes iana_protocol_number or/and iana_protocol_name are filed.">
<polygon fill="#ffcccc" stroke="#ffcccc" points="9,-166 9,-186 326,-186 326,-166 9,-166"/>
<polygon fill="none" stroke="black" points="9,-166 9,-186 326,-186 326,-166 9,-166"/>
<text text-anchor="start" x="81.5" y="-172.733" font-family="Times Roman,serif" font-size="14.00">[STRING] protocol (0..1) </text>
</a>
<a xlink:href="#" xlink:title="A unique identifier for the service; see Section 3.2.9.">
<polygon fill="#ffcccc" stroke="#ffcccc" points="9,-146 9,-166 326,-166 326,-146 9,-146"/>
<polygon fill="none" stroke="black" points="9,-146 9,-166 326,-166 326,-146 9,-146"/>
<text text-anchor="start" x="76" y="-152.733" font-family="Times Roman,serif" font-size="14.00">[STRING] ident (Optional) </text>
</a>
<a xlink:href="#" xlink:title="The IP version number.">
<polygon fill="#ffcccc" stroke="#ffcccc" points="9,-126 9,-146 326,-146 326,-126 9,-126"/>
<polygon fill="none" stroke="black" points="9,-126 9,-146 326,-146 326,-126 9,-126"/>
<text text-anchor="start" x="54.5" y="-132.733" font-family="Times Roman,serif" font-size="14.00">[INTEGER] ip_version (Optional) </text>
</a>
<a xlink:href="#" xlink:title="The IANA protocol number.">
<polygon fill="#ffcccc" stroke="#ffcccc" points="9,-106 9,-126 326,-126 326,-106 9,-106"/>
<polygon fill="none" stroke="black" points="9,-106 9,-126 326,-126 326,-106 9,-106"/>
<text text-anchor="start" x="12.5" y="-112.733" font-family="Times Roman,serif" font-size="14.00">[INTEGER] iana_protocol_number (Optional) </text>
</a>
<a xlink:href="#" xlink:title="The IANA protocol name.">
<polygon fill="#ffcccc" stroke="#ffcccc" points="9,-86 9,-106 326,-106 326,-86 9,-86"/>
<polygon fill="none" stroke="black" points="9,-86 9,-106 326,-106 326,-86 9,-86"/>
<text text-anchor="start" x="24.5" y="-92.7333" font-family="Times Roman,serif" font-size="14.00">[STRING] iana_protocol_name (Optional) </text>
</a>
</g>
<!-- WebService -->
<g id="node2" class="node"><title>WebService</title>
<a xlink:href="#" xlink:title="The WebService class carries additional information related to web traffic. ">
<polygon fill="#997a7a" stroke="#997a7a" points="426,-289 426,-310 636,-310 636,-289 426,-289"/>
<polygon fill="none" stroke="black" points="426,-289 426,-310 636,-310 636,-289 426,-289"/>
<text text-anchor="start" x="490" y="-296.233" font-family="Times Roman,serif" font-size="14.00">WebService</text>
</a>
<a xlink:href="#" xlink:title="The URL in the request.">
<polygon fill="#ffcccc" stroke="#ffcccc" points="426,-269 426,-289 636,-289 636,-269 426,-269"/>
<polygon fill="none" stroke="black" points="426,-269 426,-289 636,-289 636,-269 426,-269"/>
<text text-anchor="start" x="472.5" y="-275.733" font-family="Times Roman,serif" font-size="14.00">[STRING] url (1) </text>
</a>
<a xlink:href="#" xlink:title="The CGI script in the request, without arguments.">
<polygon fill="#ffcccc" stroke="#ffcccc" points="426,-249 426,-269 636,-269 636,-249 426,-249"/>
<polygon fill="none" stroke="black" points="426,-249 426,-269 636,-269 636,-249 426,-249"/>
<text text-anchor="start" x="463.5" y="-255.733" font-family="Times Roman,serif" font-size="14.00">[STRING] cgi (0..1) </text>
</a>
<a xlink:href="#" xlink:title="The HTTP method (PUT, GET) used in the request.">
<polygon fill="#ffcccc" stroke="#ffcccc" points="426,-229 426,-249 636,-249 636,-229 426,-229"/>
<polygon fill="none" stroke="black" points="426,-229 426,-249 636,-249 636,-229 426,-229"/>
<text text-anchor="start" x="429.5" y="-235.733" font-family="Times Roman,serif" font-size="14.00">[STRING] http&#45;method (0..1) </text>
</a>
<a xlink:href="#" xlink:title="The arguments to the CGI script.">
<polygon fill="#ffcccc" stroke="#ffcccc" points="426,-209 426,-229 636,-229 636,-209 426,-209"/>
<polygon fill="none" stroke="black" points="426,-209 426,-229 636,-229 636,-209 426,-209"/>
<text text-anchor="start" x="462.5" y="-215.733" font-family="Times Roman,serif" font-size="14.00">[STRING] arg (0..*) </text>
</a>
</g>
<!-- Service&#45;&gt;WebService -->
<g id="edge2" class="edge"><title>Service&#45;&gt;WebService</title>
<path fill="none" stroke="black" d="M343.606,-217.27C368.88,-223.033 394.293,-228.828 417.892,-234.209"/>
<polygon fill="none" stroke="black" points="334.332,-211.565 343.303,-217.201 332.776,-218.39 334.332,-211.565"/>
</g>
<!-- SNMPService -->
<g id="node4" class="node"><title>SNMPService</title>
<a xlink:href="#" xlink:title="The SNMPService class carries additional information related to SNMP traffic. The aggregate classes composing SNMPService must be interpreted as described in RFC 3411 [15] and RFC 3584 [16]. ">
<polygon fill="#997a7a" stroke="#997a7a" points="379,-163 379,-184 684,-184 684,-163 379,-163"/>
<polygon fill="none" stroke="black" points="379,-163 379,-184 684,-184 684,-163 379,-163"/>
<text text-anchor="start" x="486" y="-170.233" font-family="Times Roman,serif" font-size="14.00">SNMPService</text>
</a>
<a xlink:href="#" xlink:title="The object identifier in the request.">
<polygon fill="#ffcccc" stroke="#ffcccc" points="379,-143 379,-163 684,-163 684,-143 379,-143"/>
<polygon fill="none" stroke="black" points="379,-143 379,-163 684,-163 684,-143 379,-143"/>
<text text-anchor="start" x="463.5" y="-149.733" font-family="Times Roman,serif" font-size="14.00">[STRING] oid (0..1) </text>
</a>
<a xlink:href="#" xlink:title="The SNMP version, typically 0 for SNMPv1, 1 for SNMPv2c, 2 for SNMPv2u and SNMPv2*, and 3 for SNMPv3; see RFC 3411 [15] Section 5 for appropriate values.">
<polygon fill="#ffcccc" stroke="#ffcccc" points="379,-123 379,-143 684,-143 684,-123 379,-123"/>
<polygon fill="none" stroke="black" points="379,-123 379,-143 684,-143 684,-123 379,-123"/>
<text text-anchor="start" x="382.5" y="-129.733" font-family="Times Roman,serif" font-size="14.00">[INTEGER] messageProcessingModel (0..1) </text>
</a>
<a xlink:href="#" xlink:title="The identification of the security model in use, typically 0 for any, 1 for SNMPv1, 2 for SNMPv2c, and 3 for USM; see RFC 3411 [15] Section 5 for appropriate values.">
<polygon fill="#ffcccc" stroke="#ffcccc" points="379,-103 379,-123 684,-123 684,-103 379,-103"/>
<polygon fill="none" stroke="black" points="379,-103 379,-123 684,-123 684,-103 379,-103"/>
<text text-anchor="start" x="421.5" y="-109.733" font-family="Times Roman,serif" font-size="14.00">[INTEGER] securityModel (0..1) </text>
</a>
<a xlink:href="#" xlink:title="The object&#39;s security name; see RFC 3411 [15] Section 3.2.2.">
<polygon fill="#ffcccc" stroke="#ffcccc" points="379,-83 379,-103 684,-103 684,-83 379,-83"/>
<polygon fill="none" stroke="black" points="379,-83 379,-103 684,-103 684,-83 379,-83"/>
<text text-anchor="start" x="426" y="-89.7333" font-family="Times Roman,serif" font-size="14.00">[STRING] securityName (0..1) </text>
</a>
<a xlink:href="#" xlink:title="The security level of the SNMP request; see RFC 3411 [15] Section 3.4.3.">
<polygon fill="#ffcccc" stroke="#ffcccc" points="379,-63 379,-83 684,-83 684,-63 379,-63"/>
<polygon fill="none" stroke="black" points="379,-63 379,-83 684,-83 684,-63 379,-63"/>
<text text-anchor="start" x="423" y="-69.7333" font-family="Times Roman,serif" font-size="14.00">[INTEGER] securityLevel (0..1) </text>
</a>
<a xlink:href="#" xlink:title="The object&#39;s context name; see RFC 3411 [15] Section 3.3.3.">
<polygon fill="#ffcccc" stroke="#ffcccc" points="379,-43 379,-63 684,-63 684,-43 379,-43"/>
<polygon fill="none" stroke="black" points="379,-43 379,-63 684,-63 684,-43 379,-43"/>
<text text-anchor="start" x="427.5" y="-49.7333" font-family="Times Roman,serif" font-size="14.00">[STRING] contextName (0..1) </text>
</a>
<a xlink:href="#" xlink:title="The object&#39;s context engine identifier; see RFC 3411 [15] Section 3.3.2.">
<polygon fill="#ffcccc" stroke="#ffcccc" points="379,-23 379,-43 684,-43 684,-23 379,-23"/>
<polygon fill="none" stroke="black" points="379,-23 379,-43 684,-43 684,-23 379,-23"/>
<text text-anchor="start" x="415.5" y="-29.7333" font-family="Times Roman,serif" font-size="14.00">[STRING] contextEngineID (0..1) </text>
</a>
<a xlink:href="#" xlink:title="The command sent to the SNMP server (GET, SET, etc.).">
<polygon fill="#ffcccc" stroke="#ffcccc" points="379,-3 379,-23 684,-23 684,-3 379,-3"/>
<polygon fill="none" stroke="black" points="379,-3 379,-23 684,-23 684,-3 379,-3"/>
<text text-anchor="start" x="440.5" y="-9.73333" font-family="Times Roman,serif" font-size="14.00">[STRING] command (0..1) </text>
</a>
</g>
<!-- Service&#45;&gt;SNMPService -->
<g id="edge4" class="edge"><title>Service&#45;&gt;SNMPService</title>
<path fill="none" stroke="black" d="M343.34,-136.791C352.37,-134.732 361.418,-132.668 370.396,-130.621"/>
<polygon fill="none" stroke="black" points="332.776,-135.61 343.303,-136.799 334.332,-142.435 332.776,-135.61"/>
</g>
</g>
</svg>
