<?xml version="1.0" encoding="UTF-8" standalone="no"?>
<!DOCTYPE svg PUBLIC "-//W3C//DTD SVG 1.1//EN"
 "http://www.w3.org/Graphics/SVG/1.1/DTD/svg11.dtd">
<!-- Generated by graphviz version 2.26.3 (20100126.1600)
 -->
<!-- Title: Linkage Pages: 1 -->
<svg width="1094pt" height="474pt"
 viewBox="0.00 0.00 1094.00 474.00" xmlns="http://www.w3.org/2000/svg" xmlns:xlink="http://www.w3.org/1999/xlink">
<g id="graph1" class="graph" transform="scale(1 1) rotate(0) translate(4 470)">
<title>Linkage</title>
<polygon fill="white" stroke="white" points="-4,5 -4,-470 1091,-470 1091,5 -4,5"/>
<!-- Linkage -->
<g id="node1" class="node"><title>Linkage</title>
<a xlink:href="#" xlink:title="The Linkage class represents file system connections between the file described in the &lt;File&gt; element and other objects in the file system. For example, if the &lt;File&gt; element is a symbolic link or shortcut, then the &lt;Linkage&gt; element should contain the name of the object the link points to. Further information can be provided about the object in the &lt;Linkage&gt; element with another &lt;File&gt; element, if appropriate. ">
<polygon fill="#997a00" stroke="#997a00" points="9,-237 9,-258 212,-258 212,-237 9,-237"/>
<polygon fill="none" stroke="black" points="9,-237 9,-258 212,-258 212,-237 9,-237"/>
<text text-anchor="start" x="83" y="-244.233" font-family="Times Roman,serif" font-size="14.00">Linkage</text>
</a>
<a xlink:href="#" xlink:title="The name of the file system object, not including the path.">
<polygon fill="#ffcc00" stroke="#ffcc00" points="9,-217 9,-237 212,-237 212,-217 9,-217"/>
<polygon fill="none" stroke="black" points="9,-217 9,-237 212,-237 212,-217 9,-217"/>
<text text-anchor="start" x="42.5" y="-223.733" font-family="Times Roman,serif" font-size="14.00">[STRING] name (1) </text>
</a>
<a xlink:href="#" xlink:title="The full path to the file system object, including the name. &#160;The path name should be represented in as &quot;universal&quot; a manner as possible, to facilitate processing of the alert.">
<polygon fill="#ffcc00" stroke="#ffcc00" points="9,-197 9,-217 212,-217 212,-197 9,-197"/>
<polygon fill="none" stroke="black" points="9,-197 9,-217 212,-217 212,-197 9,-197"/>
<text text-anchor="start" x="45.5" y="-203.733" font-family="Times Roman,serif" font-size="14.00">[STRING] path (1) </text>
</a>
<a xlink:href="#" xlink:title="Section 10.)">
<polygon fill="#ffcc00" stroke="#ffcc00" points="9,-177 9,-197 212,-197 212,-177 9,-177"/>
<polygon fill="none" stroke="black" points="9,-177 9,-197 212,-197 212,-177 9,-177"/>
<text text-anchor="start" x="12.5" y="-183.733" font-family="Times Roman,serif" font-size="14.00">[ENUM] category (Optional) </text>
</a>
</g>
<!-- File -->
<g id="node2" class="node"><title>File</title>
<a xlink:href="#" xlink:title="The File class provides specific information about a file or other file&#45;like object that has been created, deleted, or modified on the target. The description can provide either the file settings prior to the event or the file settings at the time of the event, as specified using the &quot;category&quot; attribute. ">
<polygon fill="#997a00" stroke="#997a00" points="290,-307 290,-328 514,-328 514,-307 290,-307"/>
<polygon fill="none" stroke="black" points="290,-307 290,-328 514,-328 514,-307 290,-307"/>
<text text-anchor="start" x="390" y="-314.233" font-family="Times Roman,serif" font-size="14.00">File</text>
</a>
<a xlink:href="#" xlink:title="The name of the file to which the alert applies, not including the path to the file.">
<polygon fill="#ffcc00" stroke="#ffcc00" points="290,-287 290,-307 514,-307 514,-287 290,-287"/>
<polygon fill="none" stroke="black" points="290,-287 290,-307 514,-307 514,-287 290,-287"/>
<text text-anchor="start" x="334" y="-293.733" font-family="Times Roman,serif" font-size="14.00">[STRING] name (1) </text>
</a>
<a xlink:href="#" xlink:title="The full path to the file, including the name. &#160;The path name should be represented in as &quot;universal&quot; a manner as possible, to facilitate processing of the alert.">
<polygon fill="#ffcc00" stroke="#ffcc00" points="290,-267 290,-287 514,-287 514,-267 290,-267"/>
<polygon fill="none" stroke="black" points="290,-267 290,-287 514,-287 514,-267 290,-267"/>
<text text-anchor="start" x="337" y="-273.733" font-family="Times Roman,serif" font-size="14.00">[STRING] path (1) </text>
</a>
<a xlink:href="#" xlink:title="Time the file was created. &#160;Note that this is *not* the Unix &quot;st_ctime&quot; file attribute (which is not file creation time). &#160;The Unix &quot;st_ctime&quot; attribute is contained in the &quot;Inode&quot; class.">
<polygon fill="#ffcc00" stroke="#ffcc00" points="290,-247 290,-267 514,-267 514,-247 290,-247"/>
<polygon fill="none" stroke="black" points="290,-247 290,-267 514,-267 514,-247 290,-247"/>
<text text-anchor="start" x="295" y="-253.733" font-family="Times Roman,serif" font-size="14.00">[DATETIME] create&#45;time (0..1) </text>
</a>
<a xlink:href="#" xlink:title="Time the file was last modified.">
<polygon fill="#ffcc00" stroke="#ffcc00" points="290,-227 290,-247 514,-247 514,-227 290,-227"/>
<polygon fill="none" stroke="black" points="290,-227 290,-247 514,-247 514,-227 290,-227"/>
<text text-anchor="start" x="293.5" y="-233.733" font-family="Times Roman,serif" font-size="14.00">[DATETIME] modify&#45;time (0..1) </text>
</a>
<a xlink:href="#" xlink:title="Time the file was last accessed.">
<polygon fill="#ffcc00" stroke="#ffcc00" points="290,-207 290,-227 514,-227 514,-207 290,-207"/>
<polygon fill="none" stroke="black" points="290,-207 290,-227 514,-227 514,-207 290,-207"/>
<text text-anchor="start" x="295" y="-213.733" font-family="Times Roman,serif" font-size="14.00">[DATETIME] access&#45;time (0..1) </text>
</a>
<a xlink:href="#" xlink:title="The size of the data, in bytes. &#160;Typically what is meant when referring to file size. &#160;On Unix UFS file systems, this value corresponds to stat.st_size. &#160;On Windows NTFS, this value corresponds to Valid Data Length (VDL).">
<polygon fill="#ffcc00" stroke="#ffcc00" points="290,-187 290,-207 514,-207 514,-187 290,-187"/>
<polygon fill="none" stroke="black" points="290,-187 290,-207 514,-207 514,-187 290,-187"/>
<text text-anchor="start" x="308" y="-193.733" font-family="Times Roman,serif" font-size="14.00">[INTEGER] data&#45;size (0..1) </text>
</a>
<a xlink:href="#" xlink:title="The physical space on disk consumed by the file, in bytes. &#160;On Unix UFS file systems, this value corresponds to 512 * stat.st_blocks. &#160;On Windows NTFS, this value corresponds to End of File (EOF).">
<polygon fill="#ffcc00" stroke="#ffcc00" points="290,-167 290,-187 514,-187 514,-167 290,-167"/>
<polygon fill="none" stroke="black" points="290,-167 290,-187 514,-187 514,-167 290,-167"/>
<text text-anchor="start" x="310" y="-173.733" font-family="Times Roman,serif" font-size="14.00">[INTEGER] disk&#45;size (0..1) </text>
</a>
<a xlink:href="#" xlink:title="A unique identifier for this file; see Section 3.2.9.">
<polygon fill="#ffcc00" stroke="#ffcc00" points="290,-147 290,-167 514,-167 514,-147 290,-147"/>
<polygon fill="none" stroke="black" points="290,-147 290,-167 514,-167 514,-147 290,-147"/>
<text text-anchor="start" x="326.5" y="-153.733" font-family="Times Roman,serif" font-size="14.00">[STRING] ident (0..1) </text>
</a>
<a xlink:href="#" xlink:title="The type of file system the file resides on. &#160;This attribute governs how path names and other attributes are interpreted.">
<polygon fill="#ffcc00" stroke="#ffcc00" points="290,-127 290,-147 514,-147 514,-127 290,-127"/>
<polygon fill="none" stroke="black" points="290,-127 290,-147 514,-147 514,-127 290,-127"/>
<text text-anchor="start" x="320" y="-133.733" font-family="Times Roman,serif" font-size="14.00">[ENUM] category (0..1) </text>
</a>
<a xlink:href="#" xlink:title="The type of file, as a mime&#45;type.">
<polygon fill="#ffcc00" stroke="#ffcc00" points="290,-107 290,-127 514,-127 514,-107 290,-107"/>
<polygon fill="none" stroke="black" points="290,-107 290,-127 514,-127 514,-107 290,-107"/>
<text text-anchor="start" x="316" y="-113.733" font-family="Times Roman,serif" font-size="14.00">[STRING] file&#45;type (0..1) </text>
</a>
</g>
<!-- Linkage&#45;&gt;File -->
<g id="edge14" class="edge"><title>Linkage&#45;&gt;File</title>
<path fill="none" stroke="black" d="M219.561,-218C236.471,-218 254.077,-218 271.392,-218"/>
<polygon fill="black" stroke="black" points="271.545,-221.5 281.545,-218 271.545,-214.5 271.545,-221.5"/>
<text text-anchor="middle" x="251" y="-222.4" font-family="Times Roman,serif" font-size="14.00">1</text>
</g>
<!-- File&#45;&gt;Linkage -->
<g id="edge6" class="edge"><title>File&#45;&gt;Linkage</title>
<path fill="none" stroke="black" d="M281.644,-198.818C266.959,-198.025 252.15,-197.956 238,-199 235.259,-199.202 232.487,-199.429 229.695,-199.676"/>
<polygon fill="black" stroke="black" points="229.124,-196.215 219.507,-200.661 229.798,-203.183 229.124,-196.215"/>
<text text-anchor="middle" x="251" y="-203.4" font-family="Times Roman,serif" font-size="14.00">0..*</text>
</g>
<!-- FileAccess -->
<g id="node3" class="node"><title>FileAccess</title>
<a xlink:href="#" xlink:title="The FileAccess class represents the access permissions on a file. The representation is intended to be useful across operating systems. ">
<polygon fill="#997a00" stroke="#997a00" points="619,-401 619,-422 802,-422 802,-401 619,-401"/>
<polygon fill="none" stroke="black" points="619,-401 619,-422 802,-422 802,-401 619,-401"/>
<text text-anchor="start" x="676" y="-408.233" font-family="Times Roman,serif" font-size="14.00">FileAccess</text>
</a>
<a xlink:href="#" xlink:title="Level of access allowed. &#160;The permitted values are shown below. &#160;There is no default value. &#160;(See also Section 10.)">
<polygon fill="#ffcc00" stroke="#ffcc00" points="619,-381 619,-401 802,-401 802,-381 619,-381"/>
<polygon fill="none" stroke="black" points="619,-381 619,-401 802,-401 802,-381 619,-381"/>
<text text-anchor="start" x="622.5" y="-387.733" font-family="Times Roman,serif" font-size="14.00">[ENUM] Permission (1..*) </text>
</a>
</g>
<!-- File&#45;&gt;FileAccess -->
<g id="edge4" class="edge"><title>File&#45;&gt;FileAccess</title>
<path fill="none" stroke="black" d="M522.126,-328.497C542.47,-343.625 564.119,-357.784 586,-369 590.832,-371.477 595.868,-373.781 601.026,-375.923"/>
<polygon fill="black" stroke="black" points="599.835,-379.216 610.423,-379.607 602.39,-372.699 599.835,-379.216"/>
<text text-anchor="middle" x="554" y="-361.4" font-family="Times Roman,serif" font-size="14.00">0..*</text>
</g>
<!-- Inode -->
<g id="node8" class="node"><title>Inode</title>
<a xlink:href="#" xlink:title="The Inode class is used to represent the additional information contained in a Unix file system i&#45;node. ">
<polygon fill="#997a00" stroke="#997a00" points="594,-335 594,-356 826,-356 826,-335 594,-335"/>
<polygon fill="none" stroke="black" points="594,-335 594,-356 826,-356 826,-335 594,-335"/>
<text text-anchor="start" x="690.5" y="-342.233" font-family="Times Roman,serif" font-size="14.00">Inode</text>
</a>
<a xlink:href="#" xlink:title="The time of the last inode change, given by the st_ctime element of &quot;struct stat&quot;.">
<polygon fill="#ffcc00" stroke="#ffcc00" points="594,-315 594,-335 826,-335 826,-315 594,-315"/>
<polygon fill="none" stroke="black" points="594,-315 594,-335 826,-335 826,-315 594,-315"/>
<text text-anchor="start" x="600" y="-321.733" font-family="Times Roman,serif" font-size="14.00">[DATETIME] change&#45;time (0..1) </text>
</a>
<a xlink:href="#" xlink:title="The inode number.">
<polygon fill="#ffcc00" stroke="#ffcc00" points="594,-295 594,-315 826,-315 826,-295 594,-295"/>
<polygon fill="none" stroke="black" points="594,-295 594,-315 826,-315 826,-295 594,-295"/>
<text text-anchor="start" x="621" y="-301.733" font-family="Times Roman,serif" font-size="14.00">[INTEGER] number (0..1) </text>
</a>
<a xlink:href="#" xlink:title="The major device number of the device the file resides on.">
<polygon fill="#ffcc00" stroke="#ffcc00" points="594,-275 594,-295 826,-295 826,-275 594,-275"/>
<polygon fill="none" stroke="black" points="594,-275 594,-295 826,-295 826,-275 594,-275"/>
<text text-anchor="start" x="604" y="-281.733" font-family="Times Roman,serif" font-size="14.00">[INTEGER] major&#45;device (0..1) </text>
</a>
<a xlink:href="#" xlink:title="The minor device number of the device the file resides on.">
<polygon fill="#ffcc00" stroke="#ffcc00" points="594,-255 594,-275 826,-275 826,-255 594,-255"/>
<polygon fill="none" stroke="black" points="594,-255 594,-275 826,-275 826,-255 594,-255"/>
<text text-anchor="start" x="603.5" y="-261.733" font-family="Times Roman,serif" font-size="14.00">[INTEGER] minor&#45;device (0..1) </text>
</a>
<a xlink:href="#" xlink:title="The major device of the file itself, if it is a character special device.">
<polygon fill="#ffcc00" stroke="#ffcc00" points="594,-235 594,-255 826,-255 826,-235 594,-235"/>
<polygon fill="none" stroke="black" points="594,-235 594,-255 826,-255 826,-235 594,-235"/>
<text text-anchor="start" x="598" y="-241.733" font-family="Times Roman,serif" font-size="14.00">[INTEGER] c&#45;major&#45;device (0..1) </text>
</a>
<a xlink:href="#" xlink:title="The minor device of the file itself, if it is a character special device.">
<polygon fill="#ffcc00" stroke="#ffcc00" points="594,-215 594,-235 826,-235 826,-215 594,-215"/>
<polygon fill="none" stroke="black" points="594,-215 594,-235 826,-235 826,-215 594,-215"/>
<text text-anchor="start" x="597.5" y="-221.733" font-family="Times Roman,serif" font-size="14.00">[INTEGER] c&#45;minor&#45;device (0..1) </text>
</a>
</g>
<!-- File&#45;&gt;Inode -->
<g id="edge8" class="edge"><title>File&#45;&gt;Inode</title>
<path fill="none" stroke="black" d="M522.404,-244.583C539.985,-248.464 558.181,-252.481 576.012,-256.418"/>
<polygon fill="black" stroke="black" points="575.355,-259.857 585.875,-258.596 576.864,-253.022 575.355,-259.857"/>
<text text-anchor="middle" x="554" y="-259.4" font-family="Times Roman,serif" font-size="14.00">0..1</text>
</g>
<!-- Checksum -->
<g id="node10" class="node"><title>Checksum</title>
<a xlink:href="#" xlink:title="The Checksum class represents checksum information associated with the file. This checksum information can be provided by file integrity checkers, among others. ">
<polygon fill="#997a00" stroke="#997a00" points="605,-169 605,-190 816,-190 816,-169 605,-169"/>
<polygon fill="none" stroke="black" points="605,-169 605,-190 816,-190 816,-169 605,-169"/>
<text text-anchor="start" x="675" y="-176.233" font-family="Times Roman,serif" font-size="14.00">Checksum</text>
</a>
<a xlink:href="#" xlink:title="The value of the checksum.">
<polygon fill="#ffcc00" stroke="#ffcc00" points="605,-149 605,-169 816,-169 816,-149 605,-149"/>
<polygon fill="none" stroke="black" points="605,-149 605,-169 816,-169 816,-149 605,-149"/>
<text text-anchor="start" x="642.5" y="-155.733" font-family="Times Roman,serif" font-size="14.00">[STRING] value (1) </text>
</a>
<a xlink:href="#" xlink:title="The key to the checksum, if appropriate.">
<polygon fill="#ffcc00" stroke="#ffcc00" points="605,-129 605,-149 816,-149 816,-129 605,-129"/>
<polygon fill="none" stroke="black" points="605,-129 605,-149 816,-149 816,-129 605,-129"/>
<text text-anchor="start" x="640.5" y="-135.733" font-family="Times Roman,serif" font-size="14.00">[STRING] key (0..1) </text>
</a>
<a xlink:href="#" xlink:title="default value. &#160;(See also Section 10.)">
<polygon fill="#ffcc00" stroke="#ffcc00" points="605,-109 605,-129 816,-129 816,-109 605,-109"/>
<polygon fill="none" stroke="black" points="605,-109 605,-129 816,-129 816,-109 605,-109"/>
<text text-anchor="start" x="608.5" y="-115.733" font-family="Times Roman,serif" font-size="14.00">[ENUM] algorithm (Required) </text>
</a>
</g>
<!-- File&#45;&gt;Checksum -->
<g id="edge10" class="edge"><title>File&#45;&gt;Checksum</title>
<path fill="none" stroke="black" d="M522.404,-191.417C543.451,-186.771 565.378,-181.93 586.507,-177.265"/>
<polygon fill="black" stroke="black" points="587.469,-180.637 596.479,-175.063 585.959,-173.801 587.469,-180.637"/>
<text text-anchor="middle" x="554" y="-191.4" font-family="Times Roman,serif" font-size="14.00">0..*</text>
</g>
<!-- Stream -->
<g id="node12" class="node"><title>Stream</title>
<a xlink:href="#" xlink:title="The Stram class contains specific information about the content of a file">
<polygon fill="#cecece" stroke="#cecece" points="606,-63 606,-84 815,-84 815,-63 606,-63"/>
<polygon fill="none" stroke="black" points="606,-63 606,-84 815,-84 815,-63 606,-63"/>
<text text-anchor="start" x="685" y="-70.2333" font-family="Times Roman,serif" font-size="14.00">Stream</text>
</a>
<a xlink:href="#" xlink:title="&lt;TABLE&gt;">
<polygon fill="none" stroke="black" points="606,-43 606,-63 815,-63 815,-43 606,-43"/>
<text text-anchor="start" x="609.5" y="-49.7333" font-family="Times Roman,serif" font-size="14.00">[ENUM] offsetunit (Optional) </text>
</a>
<a xlink:href="#" xlink:title="Amount of units (determined by the offsetunit attribute) to seek into the File">
<polygon fill="none" stroke="black" points="606,-23 606,-43 815,-43 815,-23 606,-23"/>
<text text-anchor="start" x="612.5" y="-29.7333" font-family="Times Roman,serif" font-size="14.00">[INTEGER] offset (Optional) </text>
</a>
<a xlink:href="#" xlink:title="Content of the file">
<polygon fill="none" stroke="black" points="606,-3 606,-23 815,-23 815,-3 606,-3"/>
<text text-anchor="start" x="626.5" y="-9.73333" font-family="Times Roman,serif" font-size="14.00">[DATA] Data (Required) </text>
</a>
</g>
<!-- File&#45;&gt;Stream -->
<g id="edge12" class="edge"><title>File&#45;&gt;Stream</title>
<path fill="none" stroke="black" d="M522.371,-134.491C543.208,-121.302 564.948,-108.305 586,-97 588.747,-95.5246 591.545,-94.0593 594.379,-92.6069"/>
<polygon fill="black" stroke="black" points="596.169,-95.6249 603.542,-88.0165 593.034,-89.3664 596.169,-95.6249"/>
<text text-anchor="middle" x="554" y="-125.4" font-family="Times Roman,serif" font-size="14.00">0..1</text>
</g>
<!-- UserId -->
<g id="node4" class="node"><title>UserId</title>
<a xlink:href="#" xlink:title="The UserId class provides specific information about a user. More than one UserId can be used within the User class to indicate attempts to transition from one user to another, or to provide complete information about a user&#39;s (or process&#39;) privileges. ">
<polygon fill="#3d7a99" stroke="#3d7a99" points="888,-441 888,-462 1078,-462 1078,-441 888,-441"/>
<polygon fill="none" stroke="black" points="888,-441 888,-462 1078,-462 1078,-441 888,-441"/>
<text text-anchor="start" x="960.5" y="-448.233" font-family="Times Roman,serif" font-size="14.00">UserId</text>
</a>
<a xlink:href="#" xlink:title="A user or group name.">
<polygon fill="#66ccff" stroke="#66ccff" points="888,-421 888,-441 1078,-441 1078,-421 888,-421"/>
<polygon fill="none" stroke="black" points="888,-421 888,-441 1078,-441 1078,-421 888,-421"/>
<text text-anchor="start" x="906" y="-427.733" font-family="Times Roman,serif" font-size="14.00">[STRING] name (0..1) </text>
</a>
<a xlink:href="#" xlink:title="A user or group number.">
<polygon fill="#66ccff" stroke="#66ccff" points="888,-401 888,-421 1078,-421 1078,-401 888,-401"/>
<polygon fill="none" stroke="black" points="888,-401 888,-421 1078,-421 1078,-401 888,-401"/>
<text text-anchor="start" x="894" y="-407.733" font-family="Times Roman,serif" font-size="14.00">[INTEGER] number (0..1) </text>
</a>
<a xlink:href="#" xlink:title="A unique identifier for the user id, see Section 3.2.9.">
<polygon fill="#66ccff" stroke="#66ccff" points="888,-381 888,-401 1078,-401 1078,-381 888,-381"/>
<polygon fill="none" stroke="black" points="888,-381 888,-401 1078,-401 1078,-381 888,-381"/>
<text text-anchor="start" x="891.5" y="-387.733" font-family="Times Roman,serif" font-size="14.00">[STRING] ident (Optional) </text>
</a>
<a xlink:href="#" xlink:title="The type of user information represented. &#160;The permitted values for this attribute are shown below. &#160;The default value is &quot;original&#45;user&quot;. &#160;(See also Section 10.)">
<polygon fill="#66ccff" stroke="#66ccff" points="888,-361 888,-381 1078,-381 1078,-361 888,-361"/>
<polygon fill="none" stroke="black" points="888,-361 888,-381 1078,-381 1078,-361 888,-361"/>
<text text-anchor="start" x="900" y="-367.733" font-family="Times Roman,serif" font-size="14.00">[ENUM] type (Optional) </text>
</a>
<a xlink:href="#" xlink:title="The tty the user is using.">
<polygon fill="#66ccff" stroke="#66ccff" points="888,-341 888,-361 1078,-361 1078,-341 888,-341"/>
<polygon fill="none" stroke="black" points="888,-341 888,-361 1078,-361 1078,-341 888,-341"/>
<text text-anchor="start" x="899" y="-347.733" font-family="Times Roman,serif" font-size="14.00">[STRING] tty (Optional) </text>
</a>
</g>
<!-- FileAccess&#45;&gt;UserId -->
<g id="edge2" class="edge"><title>FileAccess&#45;&gt;UserId</title>
<path fill="none" stroke="black" d="M809.718,-402C829.263,-402 849.896,-402 869.843,-402"/>
<polygon fill="black" stroke="black" points="869.886,-405.5 879.886,-402 869.886,-398.5 869.886,-405.5"/>
<text text-anchor="middle" x="857" y="-406.4" font-family="Times Roman,serif" font-size="14.00">1</text>
</g>
</g>
</svg>
