<?xml version="1.0" encoding="UTF-8" standalone="no"?>
<!DOCTYPE svg PUBLIC "-//W3C//DTD SVG 1.1//EN"
 "http://www.w3.org/Graphics/SVG/1.1/DTD/svg11.dtd">
<!-- Generated by graphviz version 2.26.3 (20100126.1600)
 -->
<!-- Title: Stream Pages: 1 -->
<svg width="234pt" height="96pt"
 viewBox="0.00 0.00 234.00 96.00" xmlns="http://www.w3.org/2000/svg" xmlns:xlink="http://www.w3.org/1999/xlink">
<g id="graph1" class="graph" transform="scale(1 1) rotate(0) translate(4 92)">
<title>Stream</title>
<polygon fill="white" stroke="white" points="-4,5 -4,-92 231,-92 231,5 -4,5"/>
<!-- Stream -->
<g id="node1" class="node"><title>Stream</title>
<a xlink:href="#" xlink:title="The Stram class contains specific information about the content of a file">
<polygon fill="#cecece" stroke="#cecece" points="9,-63 9,-84 218,-84 218,-63 9,-63"/>
<polygon fill="none" stroke="black" points="9,-63 9,-84 218,-84 218,-63 9,-63"/>
<text text-anchor="start" x="88" y="-70.2333" font-family="Times Roman,serif" font-size="14.00">Stream</text>
</a>
<a xlink:href="#" xlink:title="&lt;TABLE&gt;">
<polygon fill="none" stroke="black" points="9,-43 9,-63 218,-63 218,-43 9,-43"/>
<text text-anchor="start" x="12.5" y="-49.7333" font-family="Times Roman,serif" font-size="14.00">[ENUM] offsetunit (Optional) </text>
</a>
<a xlink:href="#" xlink:title="Amount of units (determined by the offsetunit attribute) to seek into the File">
<polygon fill="none" stroke="black" points="9,-23 9,-43 218,-43 218,-23 9,-23"/>
<text text-anchor="start" x="15.5" y="-29.7333" font-family="Times Roman,serif" font-size="14.00">[INTEGER] offset (Optional) </text>
</a>
<a xlink:href="#" xlink:title="Content of the file">
<polygon fill="none" stroke="black" points="9,-3 9,-23 218,-23 218,-3 9,-3"/>
<text text-anchor="start" x="29.5" y="-9.73333" font-family="Times Roman,serif" font-size="14.00">[DATA] Data (Required) </text>
</a>
</g>
</g>
</svg>
