<?xml version="1.0" encoding="UTF-8" standalone="no"?>
<!DOCTYPE svg PUBLIC "-//W3C//DTD SVG 1.1//EN"
 "http://www.w3.org/Graphics/SVG/1.1/DTD/svg11.dtd">
<!-- Generated by graphviz version 2.26.3 (20100126.1600)
 -->
<!-- Title: Target Pages: 1 -->
<svg width="1468pt" height="1094pt"
 viewBox="0.00 0.00 1468.00 1094.00" xmlns="http://www.w3.org/2000/svg" xmlns:xlink="http://www.w3.org/1999/xlink">
<g id="graph1" class="graph" transform="scale(1 1) rotate(0) translate(4 1090)">
<title>Target</title>
<polygon fill="white" stroke="white" points="-4,5 -4,-1090 1465,-1090 1465,5 -4,5"/>
<!-- Target -->
<g id="node1" class="node"><title>Target</title>
<a xlink:href="#" xlink:title="The Target class contains information about the possible target(s) of the event(s) that generated an alert. An event may have more than one target (e.g., in the case of a port sweep). ">
<polygon fill="#182f5f" stroke="#182f5f" points="9,-847 9,-868 224,-868 224,-847 9,-847"/>
<polygon fill="none" stroke="black" points="9,-847 9,-868 224,-868 224,-847 9,-847"/>
<text text-anchor="start" x="94.5" y="-854.233" font-family="Times Roman,serif" font-size="14.00">Target</text>
</a>
<a xlink:href="#" xlink:title="A unique identifier for this target, see Section 3.2.9.">
<polygon fill="#284f9f" stroke="#284f9f" points="9,-827 9,-847 224,-847 224,-827 9,-827"/>
<polygon fill="none" stroke="black" points="9,-827 9,-847 224,-847 224,-827 9,-827"/>
<text text-anchor="start" x="25" y="-833.733" font-family="Times Roman,serif" font-size="14.00">[STRING] ident (Optional) </text>
</a>
<a xlink:href="#" xlink:title="An indication of whether the target is, as far as the analyzer can determine, a decoy. &#160;The permitted values for this attribute are shown below. &#160;The default value is &quot;unknown&quot;. &#160;(See also Section 10.)">
<polygon fill="#284f9f" stroke="#284f9f" points="9,-807 9,-827 224,-827 224,-807 9,-807"/>
<polygon fill="none" stroke="black" points="9,-807 9,-827 224,-827 224,-807 9,-807"/>
<text text-anchor="start" x="29" y="-813.733" font-family="Times Roman,serif" font-size="14.00">[ENUM] decoy (Optional) </text>
</a>
<a xlink:href="#" xlink:title="May be used by a network&#45;based analyzer with multiple interfaces to indicate which interface this target was seen on.">
<polygon fill="#284f9f" stroke="#284f9f" points="9,-787 9,-807 224,-807 224,-787 9,-787"/>
<polygon fill="none" stroke="black" points="9,-787 9,-807 224,-807 224,-787 9,-787"/>
<text text-anchor="start" x="12.5" y="-793.733" font-family="Times Roman,serif" font-size="14.00">[STRING] interface (Optional) </text>
</a>
</g>
<!-- Node -->
<g id="node2" class="node"><title>Node</title>
<a xlink:href="#" xlink:title="The Node class is used to identify hosts and other network devices (routers, switches, etc.). ">
<polygon fill="#007a00" stroke="#007a00" points="362,-1041 362,-1062 565,-1062 565,-1041 362,-1041"/>
<polygon fill="none" stroke="black" points="362,-1041 362,-1062 565,-1062 565,-1041 362,-1041"/>
<text text-anchor="start" x="445.5" y="-1048.23" font-family="Times Roman,serif" font-size="14.00">Node</text>
</a>
<a xlink:href="#" xlink:title="The location of the equipment.">
<polygon fill="#00cc00" stroke="#00cc00" points="362,-1021 362,-1041 565,-1041 565,-1021 362,-1021"/>
<polygon fill="none" stroke="black" points="362,-1021 362,-1041 565,-1041 565,-1021 362,-1021"/>
<text text-anchor="start" x="378.5" y="-1027.73" font-family="Times Roman,serif" font-size="14.00">[STRING] location (0..1) </text>
</a>
<a xlink:href="#" xlink:title="The name of the equipment. &#160;This information MUST be provided if no Address information is given.">
<polygon fill="#00cc00" stroke="#00cc00" points="362,-1001 362,-1021 565,-1021 565,-1001 362,-1001"/>
<polygon fill="none" stroke="black" points="362,-1001 362,-1021 565,-1021 565,-1001 362,-1001"/>
<text text-anchor="start" x="386.5" y="-1007.73" font-family="Times Roman,serif" font-size="14.00">[STRING] name (0..1) </text>
</a>
<a xlink:href="#" xlink:title="A unique identifier for the node; see Section 3.2.9.">
<polygon fill="#00cc00" stroke="#00cc00" points="362,-981 362,-1001 565,-1001 565,-981 362,-981"/>
<polygon fill="none" stroke="black" points="362,-981 362,-1001 565,-1001 565,-981 362,-981"/>
<text text-anchor="start" x="372" y="-987.733" font-family="Times Roman,serif" font-size="14.00">[STRING] ident (Optional) </text>
</a>
<a xlink:href="#" xlink:title="The &quot;domain&quot; from which the name information was obtained, if relevant. &#160;The permitted values for this attribute are shown in the table below. &#160;The default value is &quot;unknown&quot;. (See also Section 10 for extensions to the table.)">
<polygon fill="#00cc00" stroke="#00cc00" points="362,-961 362,-981 565,-981 565,-961 362,-961"/>
<polygon fill="none" stroke="black" points="362,-961 362,-981 565,-981 565,-961 362,-961"/>
<text text-anchor="start" x="365.5" y="-967.733" font-family="Times Roman,serif" font-size="14.00">[ENUM] category (Optional) </text>
</a>
</g>
<!-- Target&#45;&gt;Node -->
<g id="edge4" class="edge"><title>Target&#45;&gt;Node</title>
<path fill="none" stroke="black" d="M154.266,-872.276C179.146,-898.558 213.636,-930.623 250,-951 278.662,-967.061 311.909,-979.195 343.491,-988.235"/>
<polygon fill="black" stroke="black" points="342.66,-991.637 353.232,-990.942 344.535,-984.892 342.66,-991.637"/>
<text text-anchor="middle" x="264" y="-968.4" font-family="Times Roman,serif" font-size="14.00">0..1</text>
</g>
<!-- User -->
<g id="node6" class="node"><title>User</title>
<a xlink:href="#" xlink:title="The User class is used to describe users. It is primarily used as a &quot;container&quot; class for the UserId aggregate class, as shown in Figure 16. ">
<polygon fill="#3d7a99" stroke="#3d7a99" points="657,-926 657,-947 860,-947 860,-926 657,-926"/>
<polygon fill="none" stroke="black" points="657,-926 657,-947 860,-947 860,-926 657,-926"/>
<text text-anchor="start" x="742.5" y="-933.233" font-family="Times Roman,serif" font-size="14.00">User</text>
</a>
<a xlink:href="#" xlink:title="A unique identifier for the user; see Section 3.2.9.">
<polygon fill="#66ccff" stroke="#66ccff" points="657,-906 657,-926 860,-926 860,-906 657,-906"/>
<polygon fill="none" stroke="black" points="657,-906 657,-926 860,-926 860,-906 657,-906"/>
<text text-anchor="start" x="667" y="-912.733" font-family="Times Roman,serif" font-size="14.00">[STRING] ident (Optional) </text>
</a>
<a xlink:href="#" xlink:title="The type of user represented. &#160;The permitted values for this attribute are shown below. &#160;The default value is &quot;unknown&quot;. (See also Section 10.)">
<polygon fill="#66ccff" stroke="#66ccff" points="657,-886 657,-906 860,-906 860,-886 657,-886"/>
<polygon fill="none" stroke="black" points="657,-886 657,-906 860,-906 860,-886 657,-886"/>
<text text-anchor="start" x="660.5" y="-892.733" font-family="Times Roman,serif" font-size="14.00">[ENUM] category (Optional) </text>
</a>
</g>
<!-- Target&#45;&gt;User -->
<g id="edge8" class="edge"><title>Target&#45;&gt;User</title>
<path fill="none" stroke="black" d="M192.772,-872.022C223.796,-887.483 260.59,-902.988 296,-911 409.985,-936.791 543.865,-935.17 638.077,-928.984"/>
<polygon fill="black" stroke="black" points="638.476,-932.465 648.214,-928.291 637.999,-925.481 638.476,-932.465"/>
<text text-anchor="middle" x="264" y="-910.4" font-family="Times Roman,serif" font-size="14.00">0..1</text>
</g>
<!-- Process -->
<g id="node10" class="node"><title>Process</title>
<a xlink:href="#" xlink:title="The Process class is used to describe processes being executed on sources, targets, and analyzers. ">
<polygon fill="#997a3d" stroke="#997a3d" points="368,-877 368,-898 558,-898 558,-877 368,-877"/>
<polygon fill="none" stroke="black" points="368,-877 368,-898 558,-898 558,-877 368,-877"/>
<text text-anchor="start" x="437" y="-884.233" font-family="Times Roman,serif" font-size="14.00">Process</text>
</a>
<a xlink:href="#" xlink:title="The name of the program being executed. This is a short name; path and argument information are provided elsewhere.">
<polygon fill="#ffcc66" stroke="#ffcc66" points="368,-857 368,-877 558,-877 558,-857 368,-857"/>
<polygon fill="none" stroke="black" points="368,-857 368,-877 558,-877 558,-857 368,-857"/>
<text text-anchor="start" x="395" y="-863.733" font-family="Times Roman,serif" font-size="14.00">[STRING] name (1) </text>
</a>
<a xlink:href="#" xlink:title="The process identifier of the process.">
<polygon fill="#ffcc66" stroke="#ffcc66" points="368,-837 368,-857 558,-857 558,-837 368,-837"/>
<polygon fill="none" stroke="black" points="368,-837 368,-857 558,-857 558,-837 368,-837"/>
<text text-anchor="start" x="390.5" y="-843.733" font-family="Times Roman,serif" font-size="14.00">[INTEGER] pid (0..1) </text>
</a>
<a xlink:href="#" xlink:title="The full path of the program being executed.">
<polygon fill="#ffcc66" stroke="#ffcc66" points="368,-817 368,-837 558,-837 558,-817 368,-817"/>
<polygon fill="none" stroke="black" points="368,-817 368,-837 558,-837 558,-817 368,-817"/>
<text text-anchor="start" x="389" y="-823.733" font-family="Times Roman,serif" font-size="14.00">[STRING] path (0..1) </text>
</a>
<a xlink:href="#" xlink:title="A command&#45;line argument to the program. Multiple arguments may be specified (they are assumed to have occurred in the same order they are provided) with multiple uses of arg.">
<polygon fill="#ffcc66" stroke="#ffcc66" points="368,-797 368,-817 558,-817 558,-797 368,-797"/>
<polygon fill="none" stroke="black" points="368,-797 368,-817 558,-817 558,-797 368,-797"/>
<text text-anchor="start" x="394.5" y="-803.733" font-family="Times Roman,serif" font-size="14.00">[STRING] arg (0..*) </text>
</a>
<a xlink:href="#" xlink:title="An environment string associated with the process; generally of the format &quot;VARIABLE=value&quot;. &#160;Multiple environment strings may be specified with multiple uses of env.">
<polygon fill="#ffcc66" stroke="#ffcc66" points="368,-777 368,-797 558,-797 558,-777 368,-777"/>
<polygon fill="none" stroke="black" points="368,-777 368,-797 558,-797 558,-777 368,-777"/>
<text text-anchor="start" x="393" y="-783.733" font-family="Times Roman,serif" font-size="14.00">[STRING] env (0..*) </text>
</a>
<a xlink:href="#" xlink:title="A unique identifier for the process; see Section 3.2.9.">
<polygon fill="#ffcc66" stroke="#ffcc66" points="368,-757 368,-777 558,-777 558,-757 368,-757"/>
<polygon fill="none" stroke="black" points="368,-757 368,-777 558,-777 558,-757 368,-757"/>
<text text-anchor="start" x="371.5" y="-763.733" font-family="Times Roman,serif" font-size="14.00">[STRING] ident (Optional) </text>
</a>
</g>
<!-- Target&#45;&gt;Process -->
<g id="edge10" class="edge"><title>Target&#45;&gt;Process</title>
<path fill="none" stroke="black" d="M231.546,-828C269.642,-828 311.951,-828 349.865,-828"/>
<polygon fill="black" stroke="black" points="349.918,-831.5 359.918,-828 349.918,-824.5 349.918,-831.5"/>
<text text-anchor="middle" x="264" y="-832.4" font-family="Times Roman,serif" font-size="14.00">0..1</text>
</g>
<!-- Service -->
<g id="node12" class="node"><title>Service</title>
<a xlink:href="#" xlink:title="The Service class describes network services on sources and targets. It can identify services by name, port, and protocol. When Service occurs as an aggregate class of Source, it is understood that the service is one from which activity of interest is originating; and that the service is &quot;attached&quot; to the Node, Process, and User information also contained in Source. Likewise, when Service occurs as an aggregate class of Target, it is understood that the service is one to which activity of interest is being directed; and that the service is &quot;attached&quot; to the Node, Process, and User information also contained in Target. If Service occurs in both Source and Target, then information in both locations should be the same. If information is the same in both locations and implementers wish to carry it in only one location, they should specify it as an aggregate of the Target class. ">
<polygon fill="#997a7a" stroke="#997a7a" points="305,-711 305,-732 622,-732 622,-711 305,-711"/>
<polygon fill="none" stroke="black" points="305,-711 305,-732 622,-732 622,-711 305,-711"/>
<text text-anchor="start" x="438" y="-718.233" font-family="Times Roman,serif" font-size="14.00">Service</text>
</a>
<a xlink:href="#" xlink:title="The name of the service. &#160;Whenever possible, the name from the IANA list of well&#45;known ports SHOULD be used.">
<polygon fill="#ffcccc" stroke="#ffcccc" points="305,-691 305,-711 622,-711 622,-691 305,-691"/>
<polygon fill="none" stroke="black" points="305,-691 305,-711 622,-711 622,-691 305,-691"/>
<text text-anchor="start" x="386.5" y="-697.733" font-family="Times Roman,serif" font-size="14.00">[STRING] name (0..1) </text>
</a>
<a xlink:href="#" xlink:title="The port number being used.">
<polygon fill="#ffcccc" stroke="#ffcccc" points="305,-671 305,-691 622,-691 622,-671 305,-671"/>
<polygon fill="none" stroke="black" points="305,-671 305,-691 622,-691 622,-671 305,-671"/>
<text text-anchor="start" x="386.5" y="-677.733" font-family="Times Roman,serif" font-size="14.00">[INTEGER] port (0..1) </text>
</a>
<a xlink:href="#" xlink:title="A list of port numbers being used; see Section 3.2.8 for formatting rules. &#160;If a portlist is given, the iana_protocol_number and iana_protocol_name MUST apply to all the elements of the list.">
<polygon fill="#ffcccc" stroke="#ffcccc" points="305,-651 305,-671 622,-671 622,-651 305,-651"/>
<polygon fill="none" stroke="black" points="305,-651 305,-671 622,-671 622,-651 305,-651"/>
<text text-anchor="start" x="373.5" y="-657.733" font-family="Times Roman,serif" font-size="14.00">[PORTLIST] portlist (0..1) </text>
</a>
<a xlink:href="#" xlink:title="Additional information about the protocol being used. &#160;The intent of the protocol field is to carry additional information related to the protocol being used when the &lt;Service&gt; attributes iana_protocol_number or/and iana_protocol_name are filed.">
<polygon fill="#ffcccc" stroke="#ffcccc" points="305,-631 305,-651 622,-651 622,-631 305,-631"/>
<polygon fill="none" stroke="black" points="305,-631 305,-651 622,-651 622,-631 305,-631"/>
<text text-anchor="start" x="377.5" y="-637.733" font-family="Times Roman,serif" font-size="14.00">[STRING] protocol (0..1) </text>
</a>
<a xlink:href="#" xlink:title="A unique identifier for the service; see Section 3.2.9.">
<polygon fill="#ffcccc" stroke="#ffcccc" points="305,-611 305,-631 622,-631 622,-611 305,-611"/>
<polygon fill="none" stroke="black" points="305,-611 305,-631 622,-631 622,-611 305,-611"/>
<text text-anchor="start" x="372" y="-617.733" font-family="Times Roman,serif" font-size="14.00">[STRING] ident (Optional) </text>
</a>
<a xlink:href="#" xlink:title="The IP version number.">
<polygon fill="#ffcccc" stroke="#ffcccc" points="305,-591 305,-611 622,-611 622,-591 305,-591"/>
<polygon fill="none" stroke="black" points="305,-591 305,-611 622,-611 622,-591 305,-591"/>
<text text-anchor="start" x="350.5" y="-597.733" font-family="Times Roman,serif" font-size="14.00">[INTEGER] ip_version (Optional) </text>
</a>
<a xlink:href="#" xlink:title="The IANA protocol number.">
<polygon fill="#ffcccc" stroke="#ffcccc" points="305,-571 305,-591 622,-591 622,-571 305,-571"/>
<polygon fill="none" stroke="black" points="305,-571 305,-591 622,-591 622,-571 305,-571"/>
<text text-anchor="start" x="308.5" y="-577.733" font-family="Times Roman,serif" font-size="14.00">[INTEGER] iana_protocol_number (Optional) </text>
</a>
<a xlink:href="#" xlink:title="The IANA protocol name.">
<polygon fill="#ffcccc" stroke="#ffcccc" points="305,-551 305,-571 622,-571 622,-551 305,-551"/>
<polygon fill="none" stroke="black" points="305,-551 305,-571 622,-571 622,-551 305,-551"/>
<text text-anchor="start" x="320.5" y="-557.733" font-family="Times Roman,serif" font-size="14.00">[STRING] iana_protocol_name (Optional) </text>
</a>
</g>
<!-- Target&#45;&gt;Service -->
<g id="edge16" class="edge"><title>Target&#45;&gt;Service</title>
<path fill="none" stroke="black" d="M198.234,-783.921C225.14,-769.499 256.138,-752.883 287.234,-736.215"/>
<polygon fill="black" stroke="black" points="289.282,-739.088 296.442,-731.279 285.975,-732.919 289.282,-739.088"/>
<text text-anchor="middle" x="264" y="-756.4" font-family="Times Roman,serif" font-size="14.00">0..1</text>
</g>
<!-- File -->
<g id="node18" class="node"><title>File</title>
<a xlink:href="#" xlink:title="The File class provides specific information about a file or other file&#45;like object that has been created, deleted, or modified on the target. The description can provide either the file settings prior to the event or the file settings at the time of the event, as specified using the &quot;category&quot; attribute. ">
<polygon fill="#997a00" stroke="#997a00" points="351,-471 351,-492 575,-492 575,-471 351,-471"/>
<polygon fill="none" stroke="black" points="351,-471 351,-492 575,-492 575,-471 351,-471"/>
<text text-anchor="start" x="451" y="-478.233" font-family="Times Roman,serif" font-size="14.00">File</text>
</a>
<a xlink:href="#" xlink:title="The name of the file to which the alert applies, not including the path to the file.">
<polygon fill="#ffcc00" stroke="#ffcc00" points="351,-451 351,-471 575,-471 575,-451 351,-451"/>
<polygon fill="none" stroke="black" points="351,-451 351,-471 575,-471 575,-451 351,-451"/>
<text text-anchor="start" x="395" y="-457.733" font-family="Times Roman,serif" font-size="14.00">[STRING] name (1) </text>
</a>
<a xlink:href="#" xlink:title="The full path to the file, including the name. &#160;The path name should be represented in as &quot;universal&quot; a manner as possible, to facilitate processing of the alert.">
<polygon fill="#ffcc00" stroke="#ffcc00" points="351,-431 351,-451 575,-451 575,-431 351,-431"/>
<polygon fill="none" stroke="black" points="351,-431 351,-451 575,-451 575,-431 351,-431"/>
<text text-anchor="start" x="398" y="-437.733" font-family="Times Roman,serif" font-size="14.00">[STRING] path (1) </text>
</a>
<a xlink:href="#" xlink:title="Time the file was created. &#160;Note that this is *not* the Unix &quot;st_ctime&quot; file attribute (which is not file creation time). &#160;The Unix &quot;st_ctime&quot; attribute is contained in the &quot;Inode&quot; class.">
<polygon fill="#ffcc00" stroke="#ffcc00" points="351,-411 351,-431 575,-431 575,-411 351,-411"/>
<polygon fill="none" stroke="black" points="351,-411 351,-431 575,-431 575,-411 351,-411"/>
<text text-anchor="start" x="356" y="-417.733" font-family="Times Roman,serif" font-size="14.00">[DATETIME] create&#45;time (0..1) </text>
</a>
<a xlink:href="#" xlink:title="Time the file was last modified.">
<polygon fill="#ffcc00" stroke="#ffcc00" points="351,-391 351,-411 575,-411 575,-391 351,-391"/>
<polygon fill="none" stroke="black" points="351,-391 351,-411 575,-411 575,-391 351,-391"/>
<text text-anchor="start" x="354.5" y="-397.733" font-family="Times Roman,serif" font-size="14.00">[DATETIME] modify&#45;time (0..1) </text>
</a>
<a xlink:href="#" xlink:title="Time the file was last accessed.">
<polygon fill="#ffcc00" stroke="#ffcc00" points="351,-371 351,-391 575,-391 575,-371 351,-371"/>
<polygon fill="none" stroke="black" points="351,-371 351,-391 575,-391 575,-371 351,-371"/>
<text text-anchor="start" x="356" y="-377.733" font-family="Times Roman,serif" font-size="14.00">[DATETIME] access&#45;time (0..1) </text>
</a>
<a xlink:href="#" xlink:title="The size of the data, in bytes. &#160;Typically what is meant when referring to file size. &#160;On Unix UFS file systems, this value corresponds to stat.st_size. &#160;On Windows NTFS, this value corresponds to Valid Data Length (VDL).">
<polygon fill="#ffcc00" stroke="#ffcc00" points="351,-351 351,-371 575,-371 575,-351 351,-351"/>
<polygon fill="none" stroke="black" points="351,-351 351,-371 575,-371 575,-351 351,-351"/>
<text text-anchor="start" x="369" y="-357.733" font-family="Times Roman,serif" font-size="14.00">[INTEGER] data&#45;size (0..1) </text>
</a>
<a xlink:href="#" xlink:title="The physical space on disk consumed by the file, in bytes. &#160;On Unix UFS file systems, this value corresponds to 512 * stat.st_blocks. &#160;On Windows NTFS, this value corresponds to End of File (EOF).">
<polygon fill="#ffcc00" stroke="#ffcc00" points="351,-331 351,-351 575,-351 575,-331 351,-331"/>
<polygon fill="none" stroke="black" points="351,-331 351,-351 575,-351 575,-331 351,-331"/>
<text text-anchor="start" x="371" y="-337.733" font-family="Times Roman,serif" font-size="14.00">[INTEGER] disk&#45;size (0..1) </text>
</a>
<a xlink:href="#" xlink:title="A unique identifier for this file; see Section 3.2.9.">
<polygon fill="#ffcc00" stroke="#ffcc00" points="351,-311 351,-331 575,-331 575,-311 351,-311"/>
<polygon fill="none" stroke="black" points="351,-311 351,-331 575,-331 575,-311 351,-311"/>
<text text-anchor="start" x="387.5" y="-317.733" font-family="Times Roman,serif" font-size="14.00">[STRING] ident (0..1) </text>
</a>
<a xlink:href="#" xlink:title="The type of file system the file resides on. &#160;This attribute governs how path names and other attributes are interpreted.">
<polygon fill="#ffcc00" stroke="#ffcc00" points="351,-291 351,-311 575,-311 575,-291 351,-291"/>
<polygon fill="none" stroke="black" points="351,-291 351,-311 575,-311 575,-291 351,-291"/>
<text text-anchor="start" x="381" y="-297.733" font-family="Times Roman,serif" font-size="14.00">[ENUM] category (0..1) </text>
</a>
<a xlink:href="#" xlink:title="The type of file, as a mime&#45;type.">
<polygon fill="#ffcc00" stroke="#ffcc00" points="351,-271 351,-291 575,-291 575,-271 351,-271"/>
<polygon fill="none" stroke="black" points="351,-271 351,-291 575,-291 575,-271 351,-271"/>
<text text-anchor="start" x="377" y="-277.733" font-family="Times Roman,serif" font-size="14.00">[STRING] file&#45;type (0..1) </text>
</a>
</g>
<!-- Target&#45;&gt;File -->
<g id="edge32" class="edge"><title>Target&#45;&gt;File</title>
<path fill="none" stroke="black" d="M138.828,-783.79C170.217,-724.976 230.33,-619.114 296,-539 308.138,-524.193 321.612,-509.406 335.491,-495.155"/>
<polygon fill="black" stroke="black" points="338.257,-497.334 342.781,-487.754 333.27,-492.422 338.257,-497.334"/>
<text text-anchor="middle" x="264" y="-603.4" font-family="Times Roman,serif" font-size="14.00">0..1</text>
</g>
<!-- Address -->
<g id="node3" class="node"><title>Address</title>
<a xlink:href="#" xlink:title="The Address class is used to represent network, hardware, and application addresses. ">
<polygon fill="#007a00" stroke="#007a00" points="933,-1061 933,-1082 1162,-1082 1162,-1061 933,-1061"/>
<polygon fill="none" stroke="black" points="933,-1061 933,-1082 1162,-1082 1162,-1061 933,-1061"/>
<text text-anchor="start" x="1020" y="-1068.23" font-family="Times Roman,serif" font-size="14.00">Address</text>
</a>
<a xlink:href="#" xlink:title="The address information. &#160;The format of this data is governed by the category attribute.">
<polygon fill="#00cc00" stroke="#00cc00" points="933,-1041 933,-1061 1162,-1061 1162,-1041 933,-1041"/>
<polygon fill="none" stroke="black" points="933,-1041 933,-1061 1162,-1061 1162,-1041 933,-1041"/>
<text text-anchor="start" x="972" y="-1047.73" font-family="Times Roman,serif" font-size="14.00">[STRING] address (1) </text>
</a>
<a xlink:href="#" xlink:title="The network mask for the address, if appropriate.">
<polygon fill="#00cc00" stroke="#00cc00" points="933,-1021 933,-1041 1162,-1041 1162,-1021 933,-1021"/>
<polygon fill="none" stroke="black" points="933,-1021 933,-1041 1162,-1041 1162,-1021 933,-1021"/>
<text text-anchor="start" x="960" y="-1027.73" font-family="Times Roman,serif" font-size="14.00">[STRING] netmask (0..1) </text>
</a>
<a xlink:href="#" xlink:title="A unique identifier for the address; see Section 3.2.9.">
<polygon fill="#00cc00" stroke="#00cc00" points="933,-1001 933,-1021 1162,-1021 1162,-1001 933,-1001"/>
<polygon fill="none" stroke="black" points="933,-1001 933,-1021 1162,-1021 1162,-1001 933,-1001"/>
<text text-anchor="start" x="956" y="-1007.73" font-family="Times Roman,serif" font-size="14.00">[STRING] ident (Optional) </text>
</a>
<a xlink:href="#" xlink:title="The type of address represented. &#160;The permitted values for this attribute are shown below. &#160;The default value is &quot;unknown&quot;. &#160;(See also Section 10.)">
<polygon fill="#00cc00" stroke="#00cc00" points="933,-981 933,-1001 1162,-1001 1162,-981 933,-981"/>
<polygon fill="none" stroke="black" points="933,-981 933,-1001 1162,-1001 1162,-981 933,-981"/>
<text text-anchor="start" x="949.5" y="-987.733" font-family="Times Roman,serif" font-size="14.00">[ENUM] category (Optional) </text>
</a>
<a xlink:href="#" xlink:title="The name of the Virtual LAN to which the address belongs.">
<polygon fill="#00cc00" stroke="#00cc00" points="933,-961 933,-981 1162,-981 1162,-961 933,-961"/>
<polygon fill="none" stroke="black" points="933,-961 933,-981 1162,-981 1162,-961 933,-961"/>
<text text-anchor="start" x="937.5" y="-967.733" font-family="Times Roman,serif" font-size="14.00">[STRING] vlan&#45;name (Optional) </text>
</a>
<a xlink:href="#" xlink:title="The number of the Virtual LAN to which the address belongs.">
<polygon fill="#00cc00" stroke="#00cc00" points="933,-941 933,-961 1162,-961 1162,-941 933,-941"/>
<polygon fill="none" stroke="black" points="933,-941 933,-961 1162,-961 1162,-941 933,-941"/>
<text text-anchor="start" x="936.5" y="-947.733" font-family="Times Roman,serif" font-size="14.00">[INTEGER] vlan&#45;num (Optional) </text>
</a>
</g>
<!-- Node&#45;&gt;Address -->
<g id="edge2" class="edge"><title>Node&#45;&gt;Address</title>
<path fill="none" stroke="black" d="M572.503,-1012C669.352,-1012 810.907,-1012 914.191,-1012"/>
<polygon fill="black" stroke="black" points="914.379,-1015.5 924.379,-1012 914.379,-1008.5 914.379,-1015.5"/>
<text text-anchor="middle" x="758" y="-1016.4" font-family="Times Roman,serif" font-size="14.00">0..*</text>
</g>
<!-- UserId -->
<g id="node7" class="node"><title>UserId</title>
<a xlink:href="#" xlink:title="The UserId class provides specific information about a user. More than one UserId can be used within the User class to indicate attempts to transition from one user to another, or to provide complete information about a user&#39;s (or process&#39;) privileges. ">
<polygon fill="#3d7a99" stroke="#3d7a99" points="1262,-834 1262,-855 1452,-855 1452,-834 1262,-834"/>
<polygon fill="none" stroke="black" points="1262,-834 1262,-855 1452,-855 1452,-834 1262,-834"/>
<text text-anchor="start" x="1334.5" y="-841.233" font-family="Times Roman,serif" font-size="14.00">UserId</text>
</a>
<a xlink:href="#" xlink:title="A user or group name.">
<polygon fill="#66ccff" stroke="#66ccff" points="1262,-814 1262,-834 1452,-834 1452,-814 1262,-814"/>
<polygon fill="none" stroke="black" points="1262,-814 1262,-834 1452,-834 1452,-814 1262,-814"/>
<text text-anchor="start" x="1280" y="-820.733" font-family="Times Roman,serif" font-size="14.00">[STRING] name (0..1) </text>
</a>
<a xlink:href="#" xlink:title="A user or group number.">
<polygon fill="#66ccff" stroke="#66ccff" points="1262,-794 1262,-814 1452,-814 1452,-794 1262,-794"/>
<polygon fill="none" stroke="black" points="1262,-794 1262,-814 1452,-814 1452,-794 1262,-794"/>
<text text-anchor="start" x="1268" y="-800.733" font-family="Times Roman,serif" font-size="14.00">[INTEGER] number (0..1) </text>
</a>
<a xlink:href="#" xlink:title="A unique identifier for the user id, see Section 3.2.9.">
<polygon fill="#66ccff" stroke="#66ccff" points="1262,-774 1262,-794 1452,-794 1452,-774 1262,-774"/>
<polygon fill="none" stroke="black" points="1262,-774 1262,-794 1452,-794 1452,-774 1262,-774"/>
<text text-anchor="start" x="1265.5" y="-780.733" font-family="Times Roman,serif" font-size="14.00">[STRING] ident (Optional) </text>
</a>
<a xlink:href="#" xlink:title="The type of user information represented. &#160;The permitted values for this attribute are shown below. &#160;The default value is &quot;original&#45;user&quot;. &#160;(See also Section 10.)">
<polygon fill="#66ccff" stroke="#66ccff" points="1262,-754 1262,-774 1452,-774 1452,-754 1262,-754"/>
<polygon fill="none" stroke="black" points="1262,-754 1262,-774 1452,-774 1452,-754 1262,-754"/>
<text text-anchor="start" x="1274" y="-760.733" font-family="Times Roman,serif" font-size="14.00">[ENUM] type (Optional) </text>
</a>
<a xlink:href="#" xlink:title="The tty the user is using.">
<polygon fill="#66ccff" stroke="#66ccff" points="1262,-734 1262,-754 1452,-754 1452,-734 1262,-734"/>
<polygon fill="none" stroke="black" points="1262,-734 1262,-754 1452,-754 1452,-734 1262,-734"/>
<text text-anchor="start" x="1273" y="-740.733" font-family="Times Roman,serif" font-size="14.00">[STRING] tty (Optional) </text>
</a>
</g>
<!-- User&#45;&gt;UserId -->
<g id="edge6" class="edge"><title>User&#45;&gt;UserId</title>
<path fill="none" stroke="black" d="M867.711,-911.102C980.005,-904.202 1146.51,-891.342 1208,-873 1220.15,-869.376 1232.47,-864.736 1244.54,-859.53"/>
<polygon fill="black" stroke="black" points="1246.01,-862.708 1253.73,-855.446 1243.17,-856.313 1246.01,-862.708"/>
<text text-anchor="middle" x="1047" y="-913.4" font-family="Times Roman,serif" font-size="14.00">1..*</text>
</g>
<!-- WebService -->
<g id="node13" class="node"><title>WebService</title>
<a xlink:href="#" xlink:title="The WebService class carries additional information related to web traffic. ">
<polygon fill="#997a7a" stroke="#997a7a" points="942,-839 942,-860 1152,-860 1152,-839 942,-839"/>
<polygon fill="none" stroke="black" points="942,-839 942,-860 1152,-860 1152,-839 942,-839"/>
<text text-anchor="start" x="1006" y="-846.233" font-family="Times Roman,serif" font-size="14.00">WebService</text>
</a>
<a xlink:href="#" xlink:title="The URL in the request.">
<polygon fill="#ffcccc" stroke="#ffcccc" points="942,-819 942,-839 1152,-839 1152,-819 942,-819"/>
<polygon fill="none" stroke="black" points="942,-819 942,-839 1152,-839 1152,-819 942,-819"/>
<text text-anchor="start" x="988.5" y="-825.733" font-family="Times Roman,serif" font-size="14.00">[STRING] url (1) </text>
</a>
<a xlink:href="#" xlink:title="The CGI script in the request, without arguments.">
<polygon fill="#ffcccc" stroke="#ffcccc" points="942,-799 942,-819 1152,-819 1152,-799 942,-799"/>
<polygon fill="none" stroke="black" points="942,-799 942,-819 1152,-819 1152,-799 942,-799"/>
<text text-anchor="start" x="979.5" y="-805.733" font-family="Times Roman,serif" font-size="14.00">[STRING] cgi (0..1) </text>
</a>
<a xlink:href="#" xlink:title="The HTTP method (PUT, GET) used in the request.">
<polygon fill="#ffcccc" stroke="#ffcccc" points="942,-779 942,-799 1152,-799 1152,-779 942,-779"/>
<polygon fill="none" stroke="black" points="942,-779 942,-799 1152,-799 1152,-779 942,-779"/>
<text text-anchor="start" x="945.5" y="-785.733" font-family="Times Roman,serif" font-size="14.00">[STRING] http&#45;method (0..1) </text>
</a>
<a xlink:href="#" xlink:title="The arguments to the CGI script.">
<polygon fill="#ffcccc" stroke="#ffcccc" points="942,-759 942,-779 1152,-779 1152,-759 942,-759"/>
<polygon fill="none" stroke="black" points="942,-759 942,-779 1152,-779 1152,-759 942,-759"/>
<text text-anchor="start" x="978.5" y="-765.733" font-family="Times Roman,serif" font-size="14.00">[STRING] arg (0..*) </text>
</a>
</g>
<!-- Service&#45;&gt;WebService -->
<g id="edge12" class="edge"><title>Service&#45;&gt;WebService</title>
<path fill="none" stroke="black" d="M639.349,-692.73C734.962,-720.236 850.309,-753.418 933.868,-777.455"/>
<polygon fill="none" stroke="black" points="630.537,-686.554 639.18,-692.682 628.602,-693.281 630.537,-686.554"/>
</g>
<!-- SNMPService -->
<g id="node15" class="node"><title>SNMPService</title>
<a xlink:href="#" xlink:title="The SNMPService class carries additional information related to SNMP traffic. The aggregate classes composing SNMPService must be interpreted as described in RFC 3411 [15] and RFC 3584 [16]. ">
<polygon fill="#997a7a" stroke="#997a7a" points="895,-713 895,-734 1200,-734 1200,-713 895,-713"/>
<polygon fill="none" stroke="black" points="895,-713 895,-734 1200,-734 1200,-713 895,-713"/>
<text text-anchor="start" x="1002" y="-720.233" font-family="Times Roman,serif" font-size="14.00">SNMPService</text>
</a>
<a xlink:href="#" xlink:title="The object identifier in the request.">
<polygon fill="#ffcccc" stroke="#ffcccc" points="895,-693 895,-713 1200,-713 1200,-693 895,-693"/>
<polygon fill="none" stroke="black" points="895,-693 895,-713 1200,-713 1200,-693 895,-693"/>
<text text-anchor="start" x="979.5" y="-699.733" font-family="Times Roman,serif" font-size="14.00">[STRING] oid (0..1) </text>
</a>
<a xlink:href="#" xlink:title="The SNMP version, typically 0 for SNMPv1, 1 for SNMPv2c, 2 for SNMPv2u and SNMPv2*, and 3 for SNMPv3; see RFC 3411 [15] Section 5 for appropriate values.">
<polygon fill="#ffcccc" stroke="#ffcccc" points="895,-673 895,-693 1200,-693 1200,-673 895,-673"/>
<polygon fill="none" stroke="black" points="895,-673 895,-693 1200,-693 1200,-673 895,-673"/>
<text text-anchor="start" x="898.5" y="-679.733" font-family="Times Roman,serif" font-size="14.00">[INTEGER] messageProcessingModel (0..1) </text>
</a>
<a xlink:href="#" xlink:title="The identification of the security model in use, typically 0 for any, 1 for SNMPv1, 2 for SNMPv2c, and 3 for USM; see RFC 3411 [15] Section 5 for appropriate values.">
<polygon fill="#ffcccc" stroke="#ffcccc" points="895,-653 895,-673 1200,-673 1200,-653 895,-653"/>
<polygon fill="none" stroke="black" points="895,-653 895,-673 1200,-673 1200,-653 895,-653"/>
<text text-anchor="start" x="937.5" y="-659.733" font-family="Times Roman,serif" font-size="14.00">[INTEGER] securityModel (0..1) </text>
</a>
<a xlink:href="#" xlink:title="The object&#39;s security name; see RFC 3411 [15] Section 3.2.2.">
<polygon fill="#ffcccc" stroke="#ffcccc" points="895,-633 895,-653 1200,-653 1200,-633 895,-633"/>
<polygon fill="none" stroke="black" points="895,-633 895,-653 1200,-653 1200,-633 895,-633"/>
<text text-anchor="start" x="942" y="-639.733" font-family="Times Roman,serif" font-size="14.00">[STRING] securityName (0..1) </text>
</a>
<a xlink:href="#" xlink:title="The security level of the SNMP request; see RFC 3411 [15] Section 3.4.3.">
<polygon fill="#ffcccc" stroke="#ffcccc" points="895,-613 895,-633 1200,-633 1200,-613 895,-613"/>
<polygon fill="none" stroke="black" points="895,-613 895,-633 1200,-633 1200,-613 895,-613"/>
<text text-anchor="start" x="939" y="-619.733" font-family="Times Roman,serif" font-size="14.00">[INTEGER] securityLevel (0..1) </text>
</a>
<a xlink:href="#" xlink:title="The object&#39;s context name; see RFC 3411 [15] Section 3.3.3.">
<polygon fill="#ffcccc" stroke="#ffcccc" points="895,-593 895,-613 1200,-613 1200,-593 895,-593"/>
<polygon fill="none" stroke="black" points="895,-593 895,-613 1200,-613 1200,-593 895,-593"/>
<text text-anchor="start" x="943.5" y="-599.733" font-family="Times Roman,serif" font-size="14.00">[STRING] contextName (0..1) </text>
</a>
<a xlink:href="#" xlink:title="The object&#39;s context engine identifier; see RFC 3411 [15] Section 3.3.2.">
<polygon fill="#ffcccc" stroke="#ffcccc" points="895,-573 895,-593 1200,-593 1200,-573 895,-573"/>
<polygon fill="none" stroke="black" points="895,-573 895,-593 1200,-593 1200,-573 895,-573"/>
<text text-anchor="start" x="931.5" y="-579.733" font-family="Times Roman,serif" font-size="14.00">[STRING] contextEngineID (0..1) </text>
</a>
<a xlink:href="#" xlink:title="The command sent to the SNMP server (GET, SET, etc.).">
<polygon fill="#ffcccc" stroke="#ffcccc" points="895,-553 895,-573 1200,-573 1200,-553 895,-553"/>
<polygon fill="none" stroke="black" points="895,-553 895,-573 1200,-573 1200,-553 895,-553"/>
<text text-anchor="start" x="956.5" y="-559.733" font-family="Times Roman,serif" font-size="14.00">[STRING] command (0..1) </text>
</a>
</g>
<!-- Service&#45;&gt;SNMPService -->
<g id="edge14" class="edge"><title>Service&#45;&gt;SNMPService</title>
<path fill="none" stroke="black" d="M640.041,-642.606C718.391,-642.875 809.883,-643.188 886.25,-643.449"/>
<polygon fill="none" stroke="black" points="629.581,-639.07 639.569,-642.605 629.557,-646.07 629.581,-639.07"/>
</g>
<!-- FileAccess -->
<g id="node19" class="node"><title>FileAccess</title>
<a xlink:href="#" xlink:title="The FileAccess class represents the access permissions on a file. The representation is intended to be useful across operating systems. ">
<polygon fill="#997a00" stroke="#997a00" points="956,-507 956,-528 1139,-528 1139,-507 956,-507"/>
<polygon fill="none" stroke="black" points="956,-507 956,-528 1139,-528 1139,-507 956,-507"/>
<text text-anchor="start" x="1013" y="-514.233" font-family="Times Roman,serif" font-size="14.00">FileAccess</text>
</a>
<a xlink:href="#" xlink:title="Level of access allowed. &#160;The permitted values are shown below. &#160;There is no default value. &#160;(See also Section 10.)">
<polygon fill="#ffcc00" stroke="#ffcc00" points="956,-487 956,-507 1139,-507 1139,-487 956,-487"/>
<polygon fill="none" stroke="black" points="956,-487 956,-507 1139,-507 1139,-487 956,-487"/>
<text text-anchor="start" x="959.5" y="-493.733" font-family="Times Roman,serif" font-size="14.00">[ENUM] Permission (1..*) </text>
</a>
</g>
<!-- File&#45;&gt;FileAccess -->
<g id="edge20" class="edge"><title>File&#45;&gt;FileAccess</title>
<path fill="none" stroke="black" d="M583.463,-418.355C604.865,-424.286 627.018,-430.088 648,-435 744.987,-457.707 856.611,-477.608 937.086,-490.871"/>
<polygon fill="black" stroke="black" points="936.803,-494.372 947.237,-492.536 937.936,-487.464 936.803,-494.372"/>
<text text-anchor="middle" x="758" y="-483.4" font-family="Times Roman,serif" font-size="14.00">0..*</text>
</g>
<!-- Linkage -->
<g id="node22" class="node"><title>Linkage</title>
<a xlink:href="#" xlink:title="The Linkage class represents file system connections between the file described in the &lt;File&gt; element and other objects in the file system. For example, if the &lt;File&gt; element is a symbolic link or shortcut, then the &lt;Linkage&gt; element should contain the name of the object the link points to. Further information can be provided about the object in the &lt;Linkage&gt; element with another &lt;File&gt; element, if appropriate. ">
<polygon fill="#997a00" stroke="#997a00" points="946,-441 946,-462 1149,-462 1149,-441 946,-441"/>
<polygon fill="none" stroke="black" points="946,-441 946,-462 1149,-462 1149,-441 946,-441"/>
<text text-anchor="start" x="1020" y="-448.233" font-family="Times Roman,serif" font-size="14.00">Linkage</text>
</a>
<a xlink:href="#" xlink:title="The name of the file system object, not including the path.">
<polygon fill="#ffcc00" stroke="#ffcc00" points="946,-421 946,-441 1149,-441 1149,-421 946,-421"/>
<polygon fill="none" stroke="black" points="946,-421 946,-441 1149,-441 1149,-421 946,-421"/>
<text text-anchor="start" x="979.5" y="-427.733" font-family="Times Roman,serif" font-size="14.00">[STRING] name (1) </text>
</a>
<a xlink:href="#" xlink:title="The full path to the file system object, including the name. &#160;The path name should be represented in as &quot;universal&quot; a manner as possible, to facilitate processing of the alert.">
<polygon fill="#ffcc00" stroke="#ffcc00" points="946,-401 946,-421 1149,-421 1149,-401 946,-401"/>
<polygon fill="none" stroke="black" points="946,-401 946,-421 1149,-421 1149,-401 946,-401"/>
<text text-anchor="start" x="982.5" y="-407.733" font-family="Times Roman,serif" font-size="14.00">[STRING] path (1) </text>
</a>
<a xlink:href="#" xlink:title="Section 10.)">
<polygon fill="#ffcc00" stroke="#ffcc00" points="946,-381 946,-401 1149,-401 1149,-381 946,-381"/>
<polygon fill="none" stroke="black" points="946,-381 946,-401 1149,-401 1149,-381 946,-381"/>
<text text-anchor="start" x="949.5" y="-387.733" font-family="Times Roman,serif" font-size="14.00">[ENUM] category (Optional) </text>
</a>
</g>
<!-- File&#45;&gt;Linkage -->
<g id="edge24" class="edge"><title>File&#45;&gt;Linkage</title>
<path fill="none" stroke="black" d="M583.35,-394.447C604.865,-396.462 627.085,-398.407 648,-400 741.703,-407.139 847.955,-412.882 927.241,-416.708"/>
<polygon fill="black" stroke="black" points="927.107,-420.206 937.263,-417.189 927.442,-413.214 927.107,-420.206"/>
<text text-anchor="middle" x="758" y="-418.4" font-family="Times Roman,serif" font-size="14.00">0..*</text>
</g>
<!-- Inode -->
<g id="node25" class="node"><title>Inode</title>
<a xlink:href="#" xlink:title="The Inode class is used to represent the additional information contained in a Unix file system i&#45;node. ">
<polygon fill="#997a00" stroke="#997a00" points="931,-335 931,-356 1163,-356 1163,-335 931,-335"/>
<polygon fill="none" stroke="black" points="931,-335 931,-356 1163,-356 1163,-335 931,-335"/>
<text text-anchor="start" x="1027.5" y="-342.233" font-family="Times Roman,serif" font-size="14.00">Inode</text>
</a>
<a xlink:href="#" xlink:title="The time of the last inode change, given by the st_ctime element of &quot;struct stat&quot;.">
<polygon fill="#ffcc00" stroke="#ffcc00" points="931,-315 931,-335 1163,-335 1163,-315 931,-315"/>
<polygon fill="none" stroke="black" points="931,-315 931,-335 1163,-335 1163,-315 931,-315"/>
<text text-anchor="start" x="937" y="-321.733" font-family="Times Roman,serif" font-size="14.00">[DATETIME] change&#45;time (0..1) </text>
</a>
<a xlink:href="#" xlink:title="The inode number.">
<polygon fill="#ffcc00" stroke="#ffcc00" points="931,-295 931,-315 1163,-315 1163,-295 931,-295"/>
<polygon fill="none" stroke="black" points="931,-295 931,-315 1163,-315 1163,-295 931,-295"/>
<text text-anchor="start" x="958" y="-301.733" font-family="Times Roman,serif" font-size="14.00">[INTEGER] number (0..1) </text>
</a>
<a xlink:href="#" xlink:title="The major device number of the device the file resides on.">
<polygon fill="#ffcc00" stroke="#ffcc00" points="931,-275 931,-295 1163,-295 1163,-275 931,-275"/>
<polygon fill="none" stroke="black" points="931,-275 931,-295 1163,-295 1163,-275 931,-275"/>
<text text-anchor="start" x="941" y="-281.733" font-family="Times Roman,serif" font-size="14.00">[INTEGER] major&#45;device (0..1) </text>
</a>
<a xlink:href="#" xlink:title="The minor device number of the device the file resides on.">
<polygon fill="#ffcc00" stroke="#ffcc00" points="931,-255 931,-275 1163,-275 1163,-255 931,-255"/>
<polygon fill="none" stroke="black" points="931,-255 931,-275 1163,-275 1163,-255 931,-255"/>
<text text-anchor="start" x="940.5" y="-261.733" font-family="Times Roman,serif" font-size="14.00">[INTEGER] minor&#45;device (0..1) </text>
</a>
<a xlink:href="#" xlink:title="The major device of the file itself, if it is a character special device.">
<polygon fill="#ffcc00" stroke="#ffcc00" points="931,-235 931,-255 1163,-255 1163,-235 931,-235"/>
<polygon fill="none" stroke="black" points="931,-235 931,-255 1163,-255 1163,-235 931,-235"/>
<text text-anchor="start" x="935" y="-241.733" font-family="Times Roman,serif" font-size="14.00">[INTEGER] c&#45;major&#45;device (0..1) </text>
</a>
<a xlink:href="#" xlink:title="The minor device of the file itself, if it is a character special device.">
<polygon fill="#ffcc00" stroke="#ffcc00" points="931,-215 931,-235 1163,-235 1163,-215 931,-215"/>
<polygon fill="none" stroke="black" points="931,-215 931,-235 1163,-235 1163,-215 931,-215"/>
<text text-anchor="start" x="934.5" y="-221.733" font-family="Times Roman,serif" font-size="14.00">[INTEGER] c&#45;minor&#45;device (0..1) </text>
</a>
</g>
<!-- File&#45;&gt;Inode -->
<g id="edge26" class="edge"><title>File&#45;&gt;Inode</title>
<path fill="none" stroke="black" d="M583.297,-362.225C679.174,-346.465 813.354,-324.408 912.72,-308.073"/>
<polygon fill="black" stroke="black" points="913.532,-311.487 922.832,-306.411 912.396,-304.58 913.532,-311.487"/>
<text text-anchor="middle" x="758" y="-355.4" font-family="Times Roman,serif" font-size="14.00">0..1</text>
</g>
<!-- Checksum -->
<g id="node27" class="node"><title>Checksum</title>
<a xlink:href="#" xlink:title="The Checksum class represents checksum information associated with the file. This checksum information can be provided by file integrity checkers, among others. ">
<polygon fill="#997a00" stroke="#997a00" points="942,-169 942,-190 1153,-190 1153,-169 942,-169"/>
<polygon fill="none" stroke="black" points="942,-169 942,-190 1153,-190 1153,-169 942,-169"/>
<text text-anchor="start" x="1012" y="-176.233" font-family="Times Roman,serif" font-size="14.00">Checksum</text>
</a>
<a xlink:href="#" xlink:title="The value of the checksum.">
<polygon fill="#ffcc00" stroke="#ffcc00" points="942,-149 942,-169 1153,-169 1153,-149 942,-149"/>
<polygon fill="none" stroke="black" points="942,-149 942,-169 1153,-169 1153,-149 942,-149"/>
<text text-anchor="start" x="979.5" y="-155.733" font-family="Times Roman,serif" font-size="14.00">[STRING] value (1) </text>
</a>
<a xlink:href="#" xlink:title="The key to the checksum, if appropriate.">
<polygon fill="#ffcc00" stroke="#ffcc00" points="942,-129 942,-149 1153,-149 1153,-129 942,-129"/>
<polygon fill="none" stroke="black" points="942,-129 942,-149 1153,-149 1153,-129 942,-129"/>
<text text-anchor="start" x="977.5" y="-135.733" font-family="Times Roman,serif" font-size="14.00">[STRING] key (0..1) </text>
</a>
<a xlink:href="#" xlink:title="default value. &#160;(See also Section 10.)">
<polygon fill="#ffcc00" stroke="#ffcc00" points="942,-109 942,-129 1153,-129 1153,-109 942,-109"/>
<polygon fill="none" stroke="black" points="942,-109 942,-129 1153,-129 1153,-109 942,-109"/>
<text text-anchor="start" x="945.5" y="-115.733" font-family="Times Roman,serif" font-size="14.00">[ENUM] algorithm (Required) </text>
</a>
</g>
<!-- File&#45;&gt;Checksum -->
<g id="edge28" class="edge"><title>File&#45;&gt;Checksum</title>
<path fill="none" stroke="black" d="M583.487,-325.493C604.886,-315.786 627.032,-305.95 648,-297 752.599,-252.354 779.053,-241.686 886,-203 898.128,-198.613 910.823,-194.174 923.534,-189.831"/>
<polygon fill="black" stroke="black" points="924.906,-193.061 933.249,-186.53 922.654,-186.433 924.906,-193.061"/>
<text text-anchor="middle" x="758" y="-301.4" font-family="Times Roman,serif" font-size="14.00">0..*</text>
</g>
<!-- Stream -->
<g id="node29" class="node"><title>Stream</title>
<a xlink:href="#" xlink:title="The Stram class contains specific information about the content of a file">
<polygon fill="#cecece" stroke="#cecece" points="943,-63 943,-84 1152,-84 1152,-63 943,-63"/>
<polygon fill="none" stroke="black" points="943,-63 943,-84 1152,-84 1152,-63 943,-63"/>
<text text-anchor="start" x="1022" y="-70.2333" font-family="Times Roman,serif" font-size="14.00">Stream</text>
</a>
<a xlink:href="#" xlink:title="&lt;TABLE&gt;">
<polygon fill="none" stroke="black" points="943,-43 943,-63 1152,-63 1152,-43 943,-43"/>
<text text-anchor="start" x="946.5" y="-49.7333" font-family="Times Roman,serif" font-size="14.00">[ENUM] offsetunit (Optional) </text>
</a>
<a xlink:href="#" xlink:title="Amount of units (determined by the offsetunit attribute) to seek into the File">
<polygon fill="none" stroke="black" points="943,-23 943,-43 1152,-43 1152,-23 943,-23"/>
<text text-anchor="start" x="949.5" y="-29.7333" font-family="Times Roman,serif" font-size="14.00">[INTEGER] offset (Optional) </text>
</a>
<a xlink:href="#" xlink:title="Content of the file">
<polygon fill="none" stroke="black" points="943,-3 943,-23 1152,-23 1152,-3 943,-3"/>
<text text-anchor="start" x="963.5" y="-9.73333" font-family="Times Roman,serif" font-size="14.00">[DATA] Data (Required) </text>
</a>
</g>
<!-- File&#45;&gt;Stream -->
<g id="edge30" class="edge"><title>File&#45;&gt;Stream</title>
<path fill="none" stroke="black" d="M556.41,-267.982C583.742,-239.5 615.167,-210.875 648,-189 732.518,-132.69 841.65,-94.989 924.412,-72.1783"/>
<polygon fill="black" stroke="black" points="925.385,-75.5409 934.116,-69.5386 923.548,-68.7864 925.385,-75.5409"/>
<text text-anchor="middle" x="758" y="-193.4" font-family="Times Roman,serif" font-size="14.00">0..1</text>
</g>
<!-- FileAccess&#45;&gt;UserId -->
<g id="edge18" class="edge"><title>FileAccess&#45;&gt;UserId</title>
<path fill="none" stroke="black" d="M1146.86,-515.084C1168.45,-520.132 1190.13,-528.213 1208,-541 1269.63,-585.112 1309.85,-663.312 1332.79,-721.328"/>
<polygon fill="black" stroke="black" points="1329.58,-722.755 1336.46,-730.82 1336.11,-720.23 1329.58,-722.755"/>
<text text-anchor="middle" x="1231" y="-566.4" font-family="Times Roman,serif" font-size="14.00">1</text>
</g>
<!-- Linkage&#45;&gt;File -->
<g id="edge22" class="edge"><title>Linkage&#45;&gt;File</title>
<path fill="none" stroke="black" d="M937.317,-394.265C914.549,-389.592 890.607,-385.462 868,-383 776.668,-373.052 673.063,-372.998 593.505,-375.33"/>
<polygon fill="black" stroke="black" points="593.319,-371.834 583.432,-375.642 593.535,-378.831 593.319,-371.834"/>
<text text-anchor="middle" x="758" y="-387.4" font-family="Times Roman,serif" font-size="14.00">1</text>
</g>
</g>
</svg>
