<?xml version="1.0" encoding="UTF-8" standalone="no"?>
<!DOCTYPE svg PUBLIC "-//W3C//DTD SVG 1.1//EN"
 "http://www.w3.org/Graphics/SVG/1.1/DTD/svg11.dtd">
<!-- Generated by graphviz version 2.26.3 (20100126.1600)
 -->
<!-- Title: Transaction Pages: 1 -->
<svg width="1090pt" height="474pt"
 viewBox="0.00 0.00 1090.00 474.00" xmlns="http://www.w3.org/2000/svg" xmlns:xlink="http://www.w3.org/1999/xlink">
<g id="graph1" class="graph" transform="scale(1 1) rotate(0) translate(4 470)">
<title>Transaction</title>
<polygon fill="white" stroke="white" points="-4,5 -4,-470 1087,-470 1087,5 -4,5"/>
<!-- Transaction -->
<g id="node1" class="node"><title>Transaction</title>
<a xlink:href="#" xlink:title="The Transaction class contains specific information about the data exchange during the attack.">
<polygon fill="#cecece" stroke="#cecece" points="8,-275 8,-296 208,-296 208,-275 8,-275"/>
<polygon fill="none" stroke="black" points="8,-275 8,-296 208,-296 208,-275 8,-275"/>
<text text-anchor="start" x="68.5" y="-282.233" font-family="Times Roman,serif" font-size="14.00">Transaction</text>
</a>
<a xlink:href="#" xlink:title="Direction of the attack source &lt;&#45;&gt; target">
<polygon fill="none" stroke="black" points="8,-255 8,-275 208,-275 208,-255 8,-255"/>
<text text-anchor="start" x="11.5" y="-261.733" font-family="Times Roman,serif" font-size="14.00">[Enum] direction (Optional) </text>
</a>
</g>
<!-- File -->
<g id="node2" class="node"><title>File</title>
<a xlink:href="#" xlink:title="The File class provides specific information about a file or other file&#45;like object that has been created, deleted, or modified on the target. The description can provide either the file settings prior to the event or the file settings at the time of the event, as specified using the &quot;category&quot; attribute. ">
<polygon fill="#997a00" stroke="#997a00" points="286,-365 286,-386 510,-386 510,-365 286,-365"/>
<polygon fill="none" stroke="black" points="286,-365 286,-386 510,-386 510,-365 286,-365"/>
<text text-anchor="start" x="386" y="-372.233" font-family="Times Roman,serif" font-size="14.00">File</text>
</a>
<a xlink:href="#" xlink:title="The name of the file to which the alert applies, not including the path to the file.">
<polygon fill="#ffcc00" stroke="#ffcc00" points="286,-345 286,-365 510,-365 510,-345 286,-345"/>
<polygon fill="none" stroke="black" points="286,-345 286,-365 510,-365 510,-345 286,-345"/>
<text text-anchor="start" x="330" y="-351.733" font-family="Times Roman,serif" font-size="14.00">[STRING] name (1) </text>
</a>
<a xlink:href="#" xlink:title="The full path to the file, including the name. &#160;The path name should be represented in as &quot;universal&quot; a manner as possible, to facilitate processing of the alert.">
<polygon fill="#ffcc00" stroke="#ffcc00" points="286,-325 286,-345 510,-345 510,-325 286,-325"/>
<polygon fill="none" stroke="black" points="286,-325 286,-345 510,-345 510,-325 286,-325"/>
<text text-anchor="start" x="333" y="-331.733" font-family="Times Roman,serif" font-size="14.00">[STRING] path (1) </text>
</a>
<a xlink:href="#" xlink:title="Time the file was created. &#160;Note that this is *not* the Unix &quot;st_ctime&quot; file attribute (which is not file creation time). &#160;The Unix &quot;st_ctime&quot; attribute is contained in the &quot;Inode&quot; class.">
<polygon fill="#ffcc00" stroke="#ffcc00" points="286,-305 286,-325 510,-325 510,-305 286,-305"/>
<polygon fill="none" stroke="black" points="286,-305 286,-325 510,-325 510,-305 286,-305"/>
<text text-anchor="start" x="291" y="-311.733" font-family="Times Roman,serif" font-size="14.00">[DATETIME] create&#45;time (0..1) </text>
</a>
<a xlink:href="#" xlink:title="Time the file was last modified.">
<polygon fill="#ffcc00" stroke="#ffcc00" points="286,-285 286,-305 510,-305 510,-285 286,-285"/>
<polygon fill="none" stroke="black" points="286,-285 286,-305 510,-305 510,-285 286,-285"/>
<text text-anchor="start" x="289.5" y="-291.733" font-family="Times Roman,serif" font-size="14.00">[DATETIME] modify&#45;time (0..1) </text>
</a>
<a xlink:href="#" xlink:title="Time the file was last accessed.">
<polygon fill="#ffcc00" stroke="#ffcc00" points="286,-265 286,-285 510,-285 510,-265 286,-265"/>
<polygon fill="none" stroke="black" points="286,-265 286,-285 510,-285 510,-265 286,-265"/>
<text text-anchor="start" x="291" y="-271.733" font-family="Times Roman,serif" font-size="14.00">[DATETIME] access&#45;time (0..1) </text>
</a>
<a xlink:href="#" xlink:title="The size of the data, in bytes. &#160;Typically what is meant when referring to file size. &#160;On Unix UFS file systems, this value corresponds to stat.st_size. &#160;On Windows NTFS, this value corresponds to Valid Data Length (VDL).">
<polygon fill="#ffcc00" stroke="#ffcc00" points="286,-245 286,-265 510,-265 510,-245 286,-245"/>
<polygon fill="none" stroke="black" points="286,-245 286,-265 510,-265 510,-245 286,-245"/>
<text text-anchor="start" x="304" y="-251.733" font-family="Times Roman,serif" font-size="14.00">[INTEGER] data&#45;size (0..1) </text>
</a>
<a xlink:href="#" xlink:title="The physical space on disk consumed by the file, in bytes. &#160;On Unix UFS file systems, this value corresponds to 512 * stat.st_blocks. &#160;On Windows NTFS, this value corresponds to End of File (EOF).">
<polygon fill="#ffcc00" stroke="#ffcc00" points="286,-225 286,-245 510,-245 510,-225 286,-225"/>
<polygon fill="none" stroke="black" points="286,-225 286,-245 510,-245 510,-225 286,-225"/>
<text text-anchor="start" x="306" y="-231.733" font-family="Times Roman,serif" font-size="14.00">[INTEGER] disk&#45;size (0..1) </text>
</a>
<a xlink:href="#" xlink:title="A unique identifier for this file; see Section 3.2.9.">
<polygon fill="#ffcc00" stroke="#ffcc00" points="286,-205 286,-225 510,-225 510,-205 286,-205"/>
<polygon fill="none" stroke="black" points="286,-205 286,-225 510,-225 510,-205 286,-205"/>
<text text-anchor="start" x="322.5" y="-211.733" font-family="Times Roman,serif" font-size="14.00">[STRING] ident (0..1) </text>
</a>
<a xlink:href="#" xlink:title="The type of file system the file resides on. &#160;This attribute governs how path names and other attributes are interpreted.">
<polygon fill="#ffcc00" stroke="#ffcc00" points="286,-185 286,-205 510,-205 510,-185 286,-185"/>
<polygon fill="none" stroke="black" points="286,-185 286,-205 510,-205 510,-185 286,-185"/>
<text text-anchor="start" x="316" y="-191.733" font-family="Times Roman,serif" font-size="14.00">[ENUM] category (0..1) </text>
</a>
<a xlink:href="#" xlink:title="The type of file, as a mime&#45;type.">
<polygon fill="#ffcc00" stroke="#ffcc00" points="286,-165 286,-185 510,-185 510,-165 286,-165"/>
<polygon fill="none" stroke="black" points="286,-165 286,-185 510,-185 510,-165 286,-165"/>
<text text-anchor="start" x="312" y="-171.733" font-family="Times Roman,serif" font-size="14.00">[STRING] file&#45;type (0..1) </text>
</a>
</g>
<!-- Transaction&#45;&gt;File -->
<g id="edge14" class="edge"><title>Transaction&#45;&gt;File</title>
<path fill="none" stroke="black" d="M216.398,-276C233.074,-276 250.441,-276 267.536,-276"/>
<polygon fill="black" stroke="black" points="267.563,-279.5 277.563,-276 267.563,-272.5 267.563,-279.5"/>
<text text-anchor="middle" x="247" y="-280.4" font-family="Times Roman,serif" font-size="14.00">0..*</text>
</g>
<!-- FileAccess -->
<g id="node3" class="node"><title>FileAccess</title>
<a xlink:href="#" xlink:title="The FileAccess class represents the access permissions on a file. The representation is intended to be useful across operating systems. ">
<polygon fill="#997a00" stroke="#997a00" points="615,-401 615,-422 798,-422 798,-401 615,-401"/>
<polygon fill="none" stroke="black" points="615,-401 615,-422 798,-422 798,-401 615,-401"/>
<text text-anchor="start" x="672" y="-408.233" font-family="Times Roman,serif" font-size="14.00">FileAccess</text>
</a>
<a xlink:href="#" xlink:title="Level of access allowed. &#160;The permitted values are shown below. &#160;There is no default value. &#160;(See also Section 10.)">
<polygon fill="#ffcc00" stroke="#ffcc00" points="615,-381 615,-401 798,-401 798,-381 615,-381"/>
<polygon fill="none" stroke="black" points="615,-381 615,-401 798,-401 798,-381 615,-381"/>
<text text-anchor="start" x="618.5" y="-387.733" font-family="Times Roman,serif" font-size="14.00">[ENUM] Permission (1..*) </text>
</a>
</g>
<!-- File&#45;&gt;FileAccess -->
<g id="edge4" class="edge"><title>File&#45;&gt;FileAccess</title>
<path fill="none" stroke="black" d="M518.124,-341.185C539.084,-351.262 560.928,-360.971 582,-369 587.204,-370.983 592.575,-372.893 598.029,-374.726"/>
<polygon fill="black" stroke="black" points="597.328,-378.179 607.92,-377.941 599.492,-371.522 597.328,-378.179"/>
<text text-anchor="middle" x="550" y="-365.4" font-family="Times Roman,serif" font-size="14.00">0..*</text>
</g>
<!-- Linkage -->
<g id="node7" class="node"><title>Linkage</title>
<a xlink:href="#" xlink:title="The Linkage class represents file system connections between the file described in the &lt;File&gt; element and other objects in the file system. For example, if the &lt;File&gt; element is a symbolic link or shortcut, then the &lt;Linkage&gt; element should contain the name of the object the link points to. Further information can be provided about the object in the &lt;Linkage&gt; element with another &lt;File&gt; element, if appropriate. ">
<polygon fill="#997a00" stroke="#997a00" points="605,-335 605,-356 808,-356 808,-335 605,-335"/>
<polygon fill="none" stroke="black" points="605,-335 605,-356 808,-356 808,-335 605,-335"/>
<text text-anchor="start" x="679" y="-342.233" font-family="Times Roman,serif" font-size="14.00">Linkage</text>
</a>
<a xlink:href="#" xlink:title="The name of the file system object, not including the path.">
<polygon fill="#ffcc00" stroke="#ffcc00" points="605,-315 605,-335 808,-335 808,-315 605,-315"/>
<polygon fill="none" stroke="black" points="605,-315 605,-335 808,-335 808,-315 605,-315"/>
<text text-anchor="start" x="638.5" y="-321.733" font-family="Times Roman,serif" font-size="14.00">[STRING] name (1) </text>
</a>
<a xlink:href="#" xlink:title="The full path to the file system object, including the name. &#160;The path name should be represented in as &quot;universal&quot; a manner as possible, to facilitate processing of the alert.">
<polygon fill="#ffcc00" stroke="#ffcc00" points="605,-295 605,-315 808,-315 808,-295 605,-295"/>
<polygon fill="none" stroke="black" points="605,-295 605,-315 808,-315 808,-295 605,-295"/>
<text text-anchor="start" x="641.5" y="-301.733" font-family="Times Roman,serif" font-size="14.00">[STRING] path (1) </text>
</a>
<a xlink:href="#" xlink:title="Section 10.)">
<polygon fill="#ffcc00" stroke="#ffcc00" points="605,-275 605,-295 808,-295 808,-275 605,-275"/>
<polygon fill="none" stroke="black" points="605,-275 605,-295 808,-295 808,-275 605,-275"/>
<text text-anchor="start" x="608.5" y="-281.733" font-family="Times Roman,serif" font-size="14.00">[ENUM] category (Optional) </text>
</a>
</g>
<!-- File&#45;&gt;Linkage -->
<g id="edge8" class="edge"><title>File&#45;&gt;Linkage</title>
<path fill="none" stroke="black" d="M518.049,-291.666C524.119,-292.456 530.13,-293.237 536,-294 552.13,-296.096 569.122,-298.299 585.872,-300.469"/>
<polygon fill="black" stroke="black" points="585.893,-304.001 596.26,-301.815 586.792,-297.059 585.893,-304.001"/>
<text text-anchor="middle" x="550" y="-302.4" font-family="Times Roman,serif" font-size="14.00">0..*</text>
</g>
<!-- Inode -->
<g id="node10" class="node"><title>Inode</title>
<a xlink:href="#" xlink:title="The Inode class is used to represent the additional information contained in a Unix file system i&#45;node. ">
<polygon fill="#997a00" stroke="#997a00" points="590,-229 590,-250 822,-250 822,-229 590,-229"/>
<polygon fill="none" stroke="black" points="590,-229 590,-250 822,-250 822,-229 590,-229"/>
<text text-anchor="start" x="686.5" y="-236.233" font-family="Times Roman,serif" font-size="14.00">Inode</text>
</a>
<a xlink:href="#" xlink:title="The time of the last inode change, given by the st_ctime element of &quot;struct stat&quot;.">
<polygon fill="#ffcc00" stroke="#ffcc00" points="590,-209 590,-229 822,-229 822,-209 590,-209"/>
<polygon fill="none" stroke="black" points="590,-209 590,-229 822,-229 822,-209 590,-209"/>
<text text-anchor="start" x="596" y="-215.733" font-family="Times Roman,serif" font-size="14.00">[DATETIME] change&#45;time (0..1) </text>
</a>
<a xlink:href="#" xlink:title="The inode number.">
<polygon fill="#ffcc00" stroke="#ffcc00" points="590,-189 590,-209 822,-209 822,-189 590,-189"/>
<polygon fill="none" stroke="black" points="590,-189 590,-209 822,-209 822,-189 590,-189"/>
<text text-anchor="start" x="617" y="-195.733" font-family="Times Roman,serif" font-size="14.00">[INTEGER] number (0..1) </text>
</a>
<a xlink:href="#" xlink:title="The major device number of the device the file resides on.">
<polygon fill="#ffcc00" stroke="#ffcc00" points="590,-169 590,-189 822,-189 822,-169 590,-169"/>
<polygon fill="none" stroke="black" points="590,-169 590,-189 822,-189 822,-169 590,-169"/>
<text text-anchor="start" x="600" y="-175.733" font-family="Times Roman,serif" font-size="14.00">[INTEGER] major&#45;device (0..1) </text>
</a>
<a xlink:href="#" xlink:title="The minor device number of the device the file resides on.">
<polygon fill="#ffcc00" stroke="#ffcc00" points="590,-149 590,-169 822,-169 822,-149 590,-149"/>
<polygon fill="none" stroke="black" points="590,-149 590,-169 822,-169 822,-149 590,-149"/>
<text text-anchor="start" x="599.5" y="-155.733" font-family="Times Roman,serif" font-size="14.00">[INTEGER] minor&#45;device (0..1) </text>
</a>
<a xlink:href="#" xlink:title="The major device of the file itself, if it is a character special device.">
<polygon fill="#ffcc00" stroke="#ffcc00" points="590,-129 590,-149 822,-149 822,-129 590,-129"/>
<polygon fill="none" stroke="black" points="590,-129 590,-149 822,-149 822,-129 590,-129"/>
<text text-anchor="start" x="594" y="-135.733" font-family="Times Roman,serif" font-size="14.00">[INTEGER] c&#45;major&#45;device (0..1) </text>
</a>
<a xlink:href="#" xlink:title="The minor device of the file itself, if it is a character special device.">
<polygon fill="#ffcc00" stroke="#ffcc00" points="590,-109 590,-129 822,-129 822,-109 590,-109"/>
<polygon fill="none" stroke="black" points="590,-109 590,-129 822,-129 822,-109 590,-109"/>
<text text-anchor="start" x="593.5" y="-115.733" font-family="Times Roman,serif" font-size="14.00">[INTEGER] c&#45;minor&#45;device (0..1) </text>
</a>
</g>
<!-- File&#45;&gt;Inode -->
<g id="edge10" class="edge"><title>File&#45;&gt;Inode</title>
<path fill="none" stroke="black" d="M518.404,-238.471C535.985,-232.992 554.181,-227.32 572.012,-221.763"/>
<polygon fill="black" stroke="black" points="573.369,-225.006 581.875,-218.688 571.286,-218.323 573.369,-225.006"/>
<text text-anchor="middle" x="550" y="-235.4" font-family="Times Roman,serif" font-size="14.00">0..1</text>
</g>
<!-- Checksum -->
<g id="node12" class="node"><title>Checksum</title>
<a xlink:href="#" xlink:title="The Checksum class represents checksum information associated with the file. This checksum information can be provided by file integrity checkers, among others. ">
<polygon fill="#997a00" stroke="#997a00" points="601,-63 601,-84 812,-84 812,-63 601,-63"/>
<polygon fill="none" stroke="black" points="601,-63 601,-84 812,-84 812,-63 601,-63"/>
<text text-anchor="start" x="671" y="-70.2333" font-family="Times Roman,serif" font-size="14.00">Checksum</text>
</a>
<a xlink:href="#" xlink:title="The value of the checksum.">
<polygon fill="#ffcc00" stroke="#ffcc00" points="601,-43 601,-63 812,-63 812,-43 601,-43"/>
<polygon fill="none" stroke="black" points="601,-43 601,-63 812,-63 812,-43 601,-43"/>
<text text-anchor="start" x="638.5" y="-49.7333" font-family="Times Roman,serif" font-size="14.00">[STRING] value (1) </text>
</a>
<a xlink:href="#" xlink:title="The key to the checksum, if appropriate.">
<polygon fill="#ffcc00" stroke="#ffcc00" points="601,-23 601,-43 812,-43 812,-23 601,-23"/>
<polygon fill="none" stroke="black" points="601,-23 601,-43 812,-43 812,-23 601,-23"/>
<text text-anchor="start" x="636.5" y="-29.7333" font-family="Times Roman,serif" font-size="14.00">[STRING] key (0..1) </text>
</a>
<a xlink:href="#" xlink:title="default value. &#160;(See also Section 10.)">
<polygon fill="#ffcc00" stroke="#ffcc00" points="601,-3 601,-23 812,-23 812,-3 601,-3"/>
<polygon fill="none" stroke="black" points="601,-3 601,-23 812,-23 812,-3 601,-3"/>
<text text-anchor="start" x="604.5" y="-9.73333" font-family="Times Roman,serif" font-size="14.00">[ENUM] algorithm (Required) </text>
</a>
</g>
<!-- File&#45;&gt;Checksum -->
<g id="edge12" class="edge"><title>File&#45;&gt;Checksum</title>
<path fill="none" stroke="black" d="M502.161,-161.885C526.874,-138.573 554.184,-115.534 582,-97 583.9,-95.7343 585.834,-94.488 587.799,-93.2617"/>
<polygon fill="black" stroke="black" points="589.795,-96.146 596.586,-88.0133 586.206,-90.1363 589.795,-96.146"/>
<text text-anchor="middle" x="550" y="-135.4" font-family="Times Roman,serif" font-size="14.00">0..*</text>
</g>
<!-- UserId -->
<g id="node4" class="node"><title>UserId</title>
<a xlink:href="#" xlink:title="The UserId class provides specific information about a user. More than one UserId can be used within the User class to indicate attempts to transition from one user to another, or to provide complete information about a user&#39;s (or process&#39;) privileges. ">
<polygon fill="#3d7a99" stroke="#3d7a99" points="884,-441 884,-462 1074,-462 1074,-441 884,-441"/>
<polygon fill="none" stroke="black" points="884,-441 884,-462 1074,-462 1074,-441 884,-441"/>
<text text-anchor="start" x="956.5" y="-448.233" font-family="Times Roman,serif" font-size="14.00">UserId</text>
</a>
<a xlink:href="#" xlink:title="A user or group name.">
<polygon fill="#66ccff" stroke="#66ccff" points="884,-421 884,-441 1074,-441 1074,-421 884,-421"/>
<polygon fill="none" stroke="black" points="884,-421 884,-441 1074,-441 1074,-421 884,-421"/>
<text text-anchor="start" x="902" y="-427.733" font-family="Times Roman,serif" font-size="14.00">[STRING] name (0..1) </text>
</a>
<a xlink:href="#" xlink:title="A user or group number.">
<polygon fill="#66ccff" stroke="#66ccff" points="884,-401 884,-421 1074,-421 1074,-401 884,-401"/>
<polygon fill="none" stroke="black" points="884,-401 884,-421 1074,-421 1074,-401 884,-401"/>
<text text-anchor="start" x="890" y="-407.733" font-family="Times Roman,serif" font-size="14.00">[INTEGER] number (0..1) </text>
</a>
<a xlink:href="#" xlink:title="A unique identifier for the user id, see Section 3.2.9.">
<polygon fill="#66ccff" stroke="#66ccff" points="884,-381 884,-401 1074,-401 1074,-381 884,-381"/>
<polygon fill="none" stroke="black" points="884,-381 884,-401 1074,-401 1074,-381 884,-381"/>
<text text-anchor="start" x="887.5" y="-387.733" font-family="Times Roman,serif" font-size="14.00">[STRING] ident (Optional) </text>
</a>
<a xlink:href="#" xlink:title="The type of user information represented. &#160;The permitted values for this attribute are shown below. &#160;The default value is &quot;original&#45;user&quot;. &#160;(See also Section 10.)">
<polygon fill="#66ccff" stroke="#66ccff" points="884,-361 884,-381 1074,-381 1074,-361 884,-361"/>
<polygon fill="none" stroke="black" points="884,-361 884,-381 1074,-381 1074,-361 884,-361"/>
<text text-anchor="start" x="896" y="-367.733" font-family="Times Roman,serif" font-size="14.00">[ENUM] type (Optional) </text>
</a>
<a xlink:href="#" xlink:title="The tty the user is using.">
<polygon fill="#66ccff" stroke="#66ccff" points="884,-341 884,-361 1074,-361 1074,-341 884,-341"/>
<polygon fill="none" stroke="black" points="884,-341 884,-361 1074,-361 1074,-341 884,-341"/>
<text text-anchor="start" x="895" y="-347.733" font-family="Times Roman,serif" font-size="14.00">[STRING] tty (Optional) </text>
</a>
</g>
<!-- FileAccess&#45;&gt;UserId -->
<g id="edge2" class="edge"><title>FileAccess&#45;&gt;UserId</title>
<path fill="none" stroke="black" d="M805.718,-402C825.263,-402 845.896,-402 865.843,-402"/>
<polygon fill="black" stroke="black" points="865.886,-405.5 875.886,-402 865.886,-398.5 865.886,-405.5"/>
<text text-anchor="middle" x="853" y="-406.4" font-family="Times Roman,serif" font-size="14.00">1</text>
</g>
<!-- Linkage&#45;&gt;File -->
<g id="edge6" class="edge"><title>Linkage&#45;&gt;File</title>
<path fill="none" stroke="black" d="M596.122,-282.795C585.345,-280.454 574.51,-278.449 564,-277 552.513,-275.416 540.537,-274.305 528.508,-273.558"/>
<polygon fill="black" stroke="black" points="528.575,-270.057 518.401,-273.013 528.199,-277.047 528.575,-270.057"/>
<text text-anchor="middle" x="550" y="-281.4" font-family="Times Roman,serif" font-size="14.00">1</text>
</g>
</g>
</svg>
