<?xml version="1.0" encoding="UTF-8" standalone="no"?>
<!DOCTYPE svg PUBLIC "-//W3C//DTD SVG 1.1//EN"
 "http://www.w3.org/Graphics/SVG/1.1/DTD/svg11.dtd">
<!-- Generated by graphviz version 2.26.3 (20100126.1600)
 -->
<!-- Title: User Pages: 1 -->
<svg width="496pt" height="136pt"
 viewBox="0.00 0.00 496.00 136.00" xmlns="http://www.w3.org/2000/svg" xmlns:xlink="http://www.w3.org/1999/xlink">
<g id="graph1" class="graph" transform="scale(1 1) rotate(0) translate(4 132)">
<title>User</title>
<polygon fill="white" stroke="white" points="-4,5 -4,-132 493,-132 493,5 -4,5"/>
<!-- User -->
<g id="node1" class="node"><title>User</title>
<a xlink:href="#" xlink:title="The User class is used to describe users. It is primarily used as a &quot;container&quot; class for the UserId aggregate class, as shown in Figure 16. ">
<polygon fill="#3d7a99" stroke="#3d7a99" points="9,-73 9,-94 212,-94 212,-73 9,-73"/>
<polygon fill="none" stroke="black" points="9,-73 9,-94 212,-94 212,-73 9,-73"/>
<text text-anchor="start" x="94.5" y="-80.2333" font-family="Times Roman,serif" font-size="14.00">User</text>
</a>
<a xlink:href="#" xlink:title="A unique identifier for the user; see Section 3.2.9.">
<polygon fill="#66ccff" stroke="#66ccff" points="9,-53 9,-73 212,-73 212,-53 9,-53"/>
<polygon fill="none" stroke="black" points="9,-53 9,-73 212,-73 212,-53 9,-53"/>
<text text-anchor="start" x="19" y="-59.7333" font-family="Times Roman,serif" font-size="14.00">[STRING] ident (Optional) </text>
</a>
<a xlink:href="#" xlink:title="The type of user represented. &#160;The permitted values for this attribute are shown below. &#160;The default value is &quot;unknown&quot;. (See also Section 10.)">
<polygon fill="#66ccff" stroke="#66ccff" points="9,-33 9,-53 212,-53 212,-33 9,-33"/>
<polygon fill="none" stroke="black" points="9,-33 9,-53 212,-53 212,-33 9,-33"/>
<text text-anchor="start" x="12.5" y="-39.7333" font-family="Times Roman,serif" font-size="14.00">[ENUM] category (Optional) </text>
</a>
</g>
<!-- UserId -->
<g id="node2" class="node"><title>UserId</title>
<a xlink:href="#" xlink:title="The UserId class provides specific information about a user. More than one UserId can be used within the User class to indicate attempts to transition from one user to another, or to provide complete information about a user&#39;s (or process&#39;) privileges. ">
<polygon fill="#3d7a99" stroke="#3d7a99" points="290,-103 290,-124 480,-124 480,-103 290,-103"/>
<polygon fill="none" stroke="black" points="290,-103 290,-124 480,-124 480,-103 290,-103"/>
<text text-anchor="start" x="362.5" y="-110.233" font-family="Times Roman,serif" font-size="14.00">UserId</text>
</a>
<a xlink:href="#" xlink:title="A user or group name.">
<polygon fill="#66ccff" stroke="#66ccff" points="290,-83 290,-103 480,-103 480,-83 290,-83"/>
<polygon fill="none" stroke="black" points="290,-83 290,-103 480,-103 480,-83 290,-83"/>
<text text-anchor="start" x="308" y="-89.7333" font-family="Times Roman,serif" font-size="14.00">[STRING] name (0..1) </text>
</a>
<a xlink:href="#" xlink:title="A user or group number.">
<polygon fill="#66ccff" stroke="#66ccff" points="290,-63 290,-83 480,-83 480,-63 290,-63"/>
<polygon fill="none" stroke="black" points="290,-63 290,-83 480,-83 480,-63 290,-63"/>
<text text-anchor="start" x="296" y="-69.7333" font-family="Times Roman,serif" font-size="14.00">[INTEGER] number (0..1) </text>
</a>
<a xlink:href="#" xlink:title="A unique identifier for the user id, see Section 3.2.9.">
<polygon fill="#66ccff" stroke="#66ccff" points="290,-43 290,-63 480,-63 480,-43 290,-43"/>
<polygon fill="none" stroke="black" points="290,-43 290,-63 480,-63 480,-43 290,-43"/>
<text text-anchor="start" x="293.5" y="-49.7333" font-family="Times Roman,serif" font-size="14.00">[STRING] ident (Optional) </text>
</a>
<a xlink:href="#" xlink:title="The type of user information represented. &#160;The permitted values for this attribute are shown below. &#160;The default value is &quot;original&#45;user&quot;. &#160;(See also Section 10.)">
<polygon fill="#66ccff" stroke="#66ccff" points="290,-23 290,-43 480,-43 480,-23 290,-23"/>
<polygon fill="none" stroke="black" points="290,-23 290,-43 480,-43 480,-23 290,-23"/>
<text text-anchor="start" x="302" y="-29.7333" font-family="Times Roman,serif" font-size="14.00">[ENUM] type (Optional) </text>
</a>
<a xlink:href="#" xlink:title="The tty the user is using.">
<polygon fill="#66ccff" stroke="#66ccff" points="290,-3 290,-23 480,-23 480,-3 290,-3"/>
<polygon fill="none" stroke="black" points="290,-3 290,-23 480,-23 480,-3 290,-3"/>
<text text-anchor="start" x="301" y="-9.73333" font-family="Times Roman,serif" font-size="14.00">[STRING] tty (Optional) </text>
</a>
</g>
<!-- User&#45;&gt;UserId -->
<g id="edge2" class="edge"><title>User&#45;&gt;UserId</title>
<path fill="none" stroke="black" d="M219.873,-64C237.006,-64 254.737,-64 271.94,-64"/>
<polygon fill="black" stroke="black" points="271.999,-67.5001 281.999,-64 271.999,-60.5001 271.999,-67.5001"/>
<text text-anchor="middle" x="251" y="-68.4" font-family="Times Roman,serif" font-size="14.00">1..*</text>
</g>
</g>
</svg>
