<?xml version="1.0" encoding="UTF-8" standalone="no"?>
<!DOCTYPE svg PUBLIC "-//W3C//DTD SVG 1.1//EN"
 "http://www.w3.org/Graphics/SVG/1.1/DTD/svg11.dtd">
<!-- Generated by graphviz version 2.26.3 (20100126.1600)
 -->
<!-- Title: File Pages: 1 -->
<svg width="812pt" height="580pt"
 viewBox="0.00 0.00 812.00 580.00" xmlns="http://www.w3.org/2000/svg" xmlns:xlink="http://www.w3.org/1999/xlink">
<g id="graph1" class="graph" transform="scale(1 1) rotate(0) translate(4 576)">
<title>File</title>
<polygon fill="white" stroke="white" points="-4,5 -4,-576 809,-576 809,5 -4,5"/>
<!-- File -->
<g id="node1" class="node"><title>File</title>
<a xlink:href="#" xlink:title="The File class provides specific information about a file or other file&#45;like object that has been created, deleted, or modified on the target. The description can provide either the file settings prior to the event or the file settings at the time of the event, as specified using the &quot;category&quot; attribute. ">
<polygon fill="#997a00" stroke="#997a00" points="8,-409 8,-430 232,-430 232,-409 8,-409"/>
<polygon fill="none" stroke="black" points="8,-409 8,-430 232,-430 232,-409 8,-409"/>
<text text-anchor="start" x="108" y="-416.233" font-family="Times Roman,serif" font-size="14.00">File</text>
</a>
<a xlink:href="#" xlink:title="The name of the file to which the alert applies, not including the path to the file.">
<polygon fill="#ffcc00" stroke="#ffcc00" points="8,-389 8,-409 232,-409 232,-389 8,-389"/>
<polygon fill="none" stroke="black" points="8,-389 8,-409 232,-409 232,-389 8,-389"/>
<text text-anchor="start" x="52" y="-395.733" font-family="Times Roman,serif" font-size="14.00">[STRING] name (1) </text>
</a>
<a xlink:href="#" xlink:title="The full path to the file, including the name. &#160;The path name should be represented in as &quot;universal&quot; a manner as possible, to facilitate processing of the alert.">
<polygon fill="#ffcc00" stroke="#ffcc00" points="8,-369 8,-389 232,-389 232,-369 8,-369"/>
<polygon fill="none" stroke="black" points="8,-369 8,-389 232,-389 232,-369 8,-369"/>
<text text-anchor="start" x="55" y="-375.733" font-family="Times Roman,serif" font-size="14.00">[STRING] path (1) </text>
</a>
<a xlink:href="#" xlink:title="Time the file was created. &#160;Note that this is *not* the Unix &quot;st_ctime&quot; file attribute (which is not file creation time). &#160;The Unix &quot;st_ctime&quot; attribute is contained in the &quot;Inode&quot; class.">
<polygon fill="#ffcc00" stroke="#ffcc00" points="8,-349 8,-369 232,-369 232,-349 8,-349"/>
<polygon fill="none" stroke="black" points="8,-349 8,-369 232,-369 232,-349 8,-349"/>
<text text-anchor="start" x="13" y="-355.733" font-family="Times Roman,serif" font-size="14.00">[DATETIME] create&#45;time (0..1) </text>
</a>
<a xlink:href="#" xlink:title="Time the file was last modified.">
<polygon fill="#ffcc00" stroke="#ffcc00" points="8,-329 8,-349 232,-349 232,-329 8,-329"/>
<polygon fill="none" stroke="black" points="8,-329 8,-349 232,-349 232,-329 8,-329"/>
<text text-anchor="start" x="11.5" y="-335.733" font-family="Times Roman,serif" font-size="14.00">[DATETIME] modify&#45;time (0..1) </text>
</a>
<a xlink:href="#" xlink:title="Time the file was last accessed.">
<polygon fill="#ffcc00" stroke="#ffcc00" points="8,-309 8,-329 232,-329 232,-309 8,-309"/>
<polygon fill="none" stroke="black" points="8,-309 8,-329 232,-329 232,-309 8,-309"/>
<text text-anchor="start" x="13" y="-315.733" font-family="Times Roman,serif" font-size="14.00">[DATETIME] access&#45;time (0..1) </text>
</a>
<a xlink:href="#" xlink:title="The size of the data, in bytes. &#160;Typically what is meant when referring to file size. &#160;On Unix UFS file systems, this value corresponds to stat.st_size. &#160;On Windows NTFS, this value corresponds to Valid Data Length (VDL).">
<polygon fill="#ffcc00" stroke="#ffcc00" points="8,-289 8,-309 232,-309 232,-289 8,-289"/>
<polygon fill="none" stroke="black" points="8,-289 8,-309 232,-309 232,-289 8,-289"/>
<text text-anchor="start" x="26" y="-295.733" font-family="Times Roman,serif" font-size="14.00">[INTEGER] data&#45;size (0..1) </text>
</a>
<a xlink:href="#" xlink:title="The physical space on disk consumed by the file, in bytes. &#160;On Unix UFS file systems, this value corresponds to 512 * stat.st_blocks. &#160;On Windows NTFS, this value corresponds to End of File (EOF).">
<polygon fill="#ffcc00" stroke="#ffcc00" points="8,-269 8,-289 232,-289 232,-269 8,-269"/>
<polygon fill="none" stroke="black" points="8,-269 8,-289 232,-289 232,-269 8,-269"/>
<text text-anchor="start" x="28" y="-275.733" font-family="Times Roman,serif" font-size="14.00">[INTEGER] disk&#45;size (0..1) </text>
</a>
<a xlink:href="#" xlink:title="A unique identifier for this file; see Section 3.2.9.">
<polygon fill="#ffcc00" stroke="#ffcc00" points="8,-249 8,-269 232,-269 232,-249 8,-249"/>
<polygon fill="none" stroke="black" points="8,-249 8,-269 232,-269 232,-249 8,-249"/>
<text text-anchor="start" x="44.5" y="-255.733" font-family="Times Roman,serif" font-size="14.00">[STRING] ident (0..1) </text>
</a>
<a xlink:href="#" xlink:title="The type of file system the file resides on. &#160;This attribute governs how path names and other attributes are interpreted.">
<polygon fill="#ffcc00" stroke="#ffcc00" points="8,-229 8,-249 232,-249 232,-229 8,-229"/>
<polygon fill="none" stroke="black" points="8,-229 8,-249 232,-249 232,-229 8,-229"/>
<text text-anchor="start" x="38" y="-235.733" font-family="Times Roman,serif" font-size="14.00">[ENUM] category (0..1) </text>
</a>
<a xlink:href="#" xlink:title="The type of file, as a mime&#45;type.">
<polygon fill="#ffcc00" stroke="#ffcc00" points="8,-209 8,-229 232,-229 232,-209 8,-209"/>
<polygon fill="none" stroke="black" points="8,-209 8,-229 232,-229 232,-209 8,-209"/>
<text text-anchor="start" x="34" y="-215.733" font-family="Times Roman,serif" font-size="14.00">[STRING] file&#45;type (0..1) </text>
</a>
</g>
<!-- FileAccess -->
<g id="node2" class="node"><title>FileAccess</title>
<a xlink:href="#" xlink:title="The FileAccess class represents the access permissions on a file. The representation is intended to be useful across operating systems. ">
<polygon fill="#997a00" stroke="#997a00" points="337,-507 337,-528 520,-528 520,-507 337,-507"/>
<polygon fill="none" stroke="black" points="337,-507 337,-528 520,-528 520,-507 337,-507"/>
<text text-anchor="start" x="394" y="-514.233" font-family="Times Roman,serif" font-size="14.00">FileAccess</text>
</a>
<a xlink:href="#" xlink:title="Level of access allowed. &#160;The permitted values are shown below. &#160;There is no default value. &#160;(See also Section 10.)">
<polygon fill="#ffcc00" stroke="#ffcc00" points="337,-487 337,-507 520,-507 520,-487 337,-487"/>
<polygon fill="none" stroke="black" points="337,-487 337,-507 520,-507 520,-487 337,-487"/>
<text text-anchor="start" x="340.5" y="-493.733" font-family="Times Roman,serif" font-size="14.00">[ENUM] Permission (1..*) </text>
</a>
</g>
<!-- File&#45;&gt;FileAccess -->
<g id="edge4" class="edge"><title>File&#45;&gt;FileAccess</title>
<path fill="none" stroke="black" d="M240.097,-433.681C260.404,-449.128 282.05,-463.57 304,-475 308.816,-477.508 313.839,-479.837 318.987,-482"/>
<polygon fill="black" stroke="black" points="317.781,-485.287 328.367,-485.714 320.358,-478.778 317.781,-485.287"/>
<text text-anchor="middle" x="272" y="-467.4" font-family="Times Roman,serif" font-size="14.00">0..*</text>
</g>
<!-- Linkage -->
<g id="node6" class="node"><title>Linkage</title>
<a xlink:href="#" xlink:title="The Linkage class represents file system connections between the file described in the &lt;File&gt; element and other objects in the file system. For example, if the &lt;File&gt; element is a symbolic link or shortcut, then the &lt;Linkage&gt; element should contain the name of the object the link points to. Further information can be provided about the object in the &lt;Linkage&gt; element with another &lt;File&gt; element, if appropriate. ">
<polygon fill="#997a00" stroke="#997a00" points="327,-441 327,-462 530,-462 530,-441 327,-441"/>
<polygon fill="none" stroke="black" points="327,-441 327,-462 530,-462 530,-441 327,-441"/>
<text text-anchor="start" x="401" y="-448.233" font-family="Times Roman,serif" font-size="14.00">Linkage</text>
</a>
<a xlink:href="#" xlink:title="The name of the file system object, not including the path.">
<polygon fill="#ffcc00" stroke="#ffcc00" points="327,-421 327,-441 530,-441 530,-421 327,-421"/>
<polygon fill="none" stroke="black" points="327,-421 327,-441 530,-441 530,-421 327,-421"/>
<text text-anchor="start" x="360.5" y="-427.733" font-family="Times Roman,serif" font-size="14.00">[STRING] name (1) </text>
</a>
<a xlink:href="#" xlink:title="The full path to the file system object, including the name. &#160;The path name should be represented in as &quot;universal&quot; a manner as possible, to facilitate processing of the alert.">
<polygon fill="#ffcc00" stroke="#ffcc00" points="327,-401 327,-421 530,-421 530,-401 327,-401"/>
<polygon fill="none" stroke="black" points="327,-401 327,-421 530,-421 530,-401 327,-401"/>
<text text-anchor="start" x="363.5" y="-407.733" font-family="Times Roman,serif" font-size="14.00">[STRING] path (1) </text>
</a>
<a xlink:href="#" xlink:title="Section 10.)">
<polygon fill="#ffcc00" stroke="#ffcc00" points="327,-381 327,-401 530,-401 530,-381 327,-381"/>
<polygon fill="none" stroke="black" points="327,-381 327,-401 530,-401 530,-381 327,-381"/>
<text text-anchor="start" x="330.5" y="-387.733" font-family="Times Roman,serif" font-size="14.00">[ENUM] category (Optional) </text>
</a>
</g>
<!-- File&#45;&gt;Linkage -->
<g id="edge8" class="edge"><title>File&#45;&gt;Linkage</title>
<path fill="none" stroke="black" d="M240.102,-379.467C246.103,-381.798 252.091,-383.993 258,-386 273.999,-391.434 291.135,-396.213 308.144,-400.364"/>
<polygon fill="black" stroke="black" points="307.596,-403.831 318.134,-402.736 309.213,-397.02 307.596,-403.831"/>
<text text-anchor="middle" x="272" y="-399.4" font-family="Times Roman,serif" font-size="14.00">0..*</text>
</g>
<!-- Inode -->
<g id="node9" class="node"><title>Inode</title>
<a xlink:href="#" xlink:title="The Inode class is used to represent the additional information contained in a Unix file system i&#45;node. ">
<polygon fill="#997a00" stroke="#997a00" points="312,-335 312,-356 544,-356 544,-335 312,-335"/>
<polygon fill="none" stroke="black" points="312,-335 312,-356 544,-356 544,-335 312,-335"/>
<text text-anchor="start" x="408.5" y="-342.233" font-family="Times Roman,serif" font-size="14.00">Inode</text>
</a>
<a xlink:href="#" xlink:title="The time of the last inode change, given by the st_ctime element of &quot;struct stat&quot;.">
<polygon fill="#ffcc00" stroke="#ffcc00" points="312,-315 312,-335 544,-335 544,-315 312,-315"/>
<polygon fill="none" stroke="black" points="312,-315 312,-335 544,-335 544,-315 312,-315"/>
<text text-anchor="start" x="318" y="-321.733" font-family="Times Roman,serif" font-size="14.00">[DATETIME] change&#45;time (0..1) </text>
</a>
<a xlink:href="#" xlink:title="The inode number.">
<polygon fill="#ffcc00" stroke="#ffcc00" points="312,-295 312,-315 544,-315 544,-295 312,-295"/>
<polygon fill="none" stroke="black" points="312,-295 312,-315 544,-315 544,-295 312,-295"/>
<text text-anchor="start" x="339" y="-301.733" font-family="Times Roman,serif" font-size="14.00">[INTEGER] number (0..1) </text>
</a>
<a xlink:href="#" xlink:title="The major device number of the device the file resides on.">
<polygon fill="#ffcc00" stroke="#ffcc00" points="312,-275 312,-295 544,-295 544,-275 312,-275"/>
<polygon fill="none" stroke="black" points="312,-275 312,-295 544,-295 544,-275 312,-275"/>
<text text-anchor="start" x="322" y="-281.733" font-family="Times Roman,serif" font-size="14.00">[INTEGER] major&#45;device (0..1) </text>
</a>
<a xlink:href="#" xlink:title="The minor device number of the device the file resides on.">
<polygon fill="#ffcc00" stroke="#ffcc00" points="312,-255 312,-275 544,-275 544,-255 312,-255"/>
<polygon fill="none" stroke="black" points="312,-255 312,-275 544,-275 544,-255 312,-255"/>
<text text-anchor="start" x="321.5" y="-261.733" font-family="Times Roman,serif" font-size="14.00">[INTEGER] minor&#45;device (0..1) </text>
</a>
<a xlink:href="#" xlink:title="The major device of the file itself, if it is a character special device.">
<polygon fill="#ffcc00" stroke="#ffcc00" points="312,-235 312,-255 544,-255 544,-235 312,-235"/>
<polygon fill="none" stroke="black" points="312,-235 312,-255 544,-255 544,-235 312,-235"/>
<text text-anchor="start" x="316" y="-241.733" font-family="Times Roman,serif" font-size="14.00">[INTEGER] c&#45;major&#45;device (0..1) </text>
</a>
<a xlink:href="#" xlink:title="The minor device of the file itself, if it is a character special device.">
<polygon fill="#ffcc00" stroke="#ffcc00" points="312,-215 312,-235 544,-235 544,-215 312,-215"/>
<polygon fill="none" stroke="black" points="312,-215 312,-235 544,-235 544,-215 312,-215"/>
<text text-anchor="start" x="315.5" y="-221.733" font-family="Times Roman,serif" font-size="14.00">[INTEGER] c&#45;minor&#45;device (0..1) </text>
</a>
</g>
<!-- File&#45;&gt;Inode -->
<g id="edge10" class="edge"><title>File&#45;&gt;Inode</title>
<path fill="none" stroke="black" d="M240.404,-306.709C257.823,-304.786 275.844,-302.796 293.517,-300.846"/>
<polygon fill="black" stroke="black" points="294.319,-304.278 303.875,-299.702 293.551,-297.321 294.319,-304.278"/>
<text text-anchor="middle" x="272" y="-309.4" font-family="Times Roman,serif" font-size="14.00">0..1</text>
</g>
<!-- Checksum -->
<g id="node11" class="node"><title>Checksum</title>
<a xlink:href="#" xlink:title="The Checksum class represents checksum information associated with the file. This checksum information can be provided by file integrity checkers, among others. ">
<polygon fill="#997a00" stroke="#997a00" points="323,-169 323,-190 534,-190 534,-169 323,-169"/>
<polygon fill="none" stroke="black" points="323,-169 323,-190 534,-190 534,-169 323,-169"/>
<text text-anchor="start" x="393" y="-176.233" font-family="Times Roman,serif" font-size="14.00">Checksum</text>
</a>
<a xlink:href="#" xlink:title="The value of the checksum.">
<polygon fill="#ffcc00" stroke="#ffcc00" points="323,-149 323,-169 534,-169 534,-149 323,-149"/>
<polygon fill="none" stroke="black" points="323,-149 323,-169 534,-169 534,-149 323,-149"/>
<text text-anchor="start" x="360.5" y="-155.733" font-family="Times Roman,serif" font-size="14.00">[STRING] value (1) </text>
</a>
<a xlink:href="#" xlink:title="The key to the checksum, if appropriate.">
<polygon fill="#ffcc00" stroke="#ffcc00" points="323,-129 323,-149 534,-149 534,-129 323,-129"/>
<polygon fill="none" stroke="black" points="323,-129 323,-149 534,-149 534,-129 323,-129"/>
<text text-anchor="start" x="358.5" y="-135.733" font-family="Times Roman,serif" font-size="14.00">[STRING] key (0..1) </text>
</a>
<a xlink:href="#" xlink:title="default value. &#160;(See also Section 10.)">
<polygon fill="#ffcc00" stroke="#ffcc00" points="323,-109 323,-129 534,-129 534,-109 323,-109"/>
<polygon fill="none" stroke="black" points="323,-109 323,-129 534,-129 534,-109 323,-109"/>
<text text-anchor="start" x="326.5" y="-115.733" font-family="Times Roman,serif" font-size="14.00">[ENUM] algorithm (Required) </text>
</a>
</g>
<!-- File&#45;&gt;Checksum -->
<g id="edge12" class="edge"><title>File&#45;&gt;Checksum</title>
<path fill="none" stroke="black" d="M240.081,-239.734C261.046,-226.855 282.903,-214.122 304,-203 306.759,-201.546 309.566,-200.099 312.409,-198.664"/>
<polygon fill="black" stroke="black" points="314.185,-201.69 321.598,-194.121 311.082,-195.416 314.185,-201.69"/>
<text text-anchor="middle" x="272" y="-231.4" font-family="Times Roman,serif" font-size="14.00">0..*</text>
</g>
<!-- Stream -->
<g id="node13" class="node"><title>Stream</title>
<a xlink:href="#" xlink:title="The Stram class contains specific information about the content of a file">
<polygon fill="#cecece" stroke="#cecece" points="324,-63 324,-84 533,-84 533,-63 324,-63"/>
<polygon fill="none" stroke="black" points="324,-63 324,-84 533,-84 533,-63 324,-63"/>
<text text-anchor="start" x="403" y="-70.2333" font-family="Times Roman,serif" font-size="14.00">Stream</text>
</a>
<a xlink:href="#" xlink:title="&lt;TABLE&gt;">
<polygon fill="none" stroke="black" points="324,-43 324,-63 533,-63 533,-43 324,-43"/>
<text text-anchor="start" x="327.5" y="-49.7333" font-family="Times Roman,serif" font-size="14.00">[ENUM] offsetunit (Optional) </text>
</a>
<a xlink:href="#" xlink:title="Amount of units (determined by the offsetunit attribute) to seek into the File">
<polygon fill="none" stroke="black" points="324,-23 324,-43 533,-43 533,-23 324,-23"/>
<text text-anchor="start" x="330.5" y="-29.7333" font-family="Times Roman,serif" font-size="14.00">[INTEGER] offset (Optional) </text>
</a>
<a xlink:href="#" xlink:title="Content of the file">
<polygon fill="none" stroke="black" points="324,-3 324,-23 533,-23 533,-3 324,-3"/>
<text text-anchor="start" x="344.5" y="-9.73333" font-family="Times Roman,serif" font-size="14.00">[DATA] Data (Required) </text>
</a>
</g>
<!-- File&#45;&gt;Stream -->
<g id="edge14" class="edge"><title>File&#45;&gt;Stream</title>
<path fill="none" stroke="black" d="M196.937,-205.999C226.946,-167.678 263.813,-127.072 304,-97 305.418,-95.9392 306.86,-94.8949 308.323,-93.8669"/>
<polygon fill="black" stroke="black" points="310.529,-96.6037 316.926,-88.1581 306.659,-90.771 310.529,-96.6037"/>
<text text-anchor="middle" x="272" y="-137.4" font-family="Times Roman,serif" font-size="14.00">0..1</text>
</g>
<!-- UserId -->
<g id="node3" class="node"><title>UserId</title>
<a xlink:href="#" xlink:title="The UserId class provides specific information about a user. More than one UserId can be used within the User class to indicate attempts to transition from one user to another, or to provide complete information about a user&#39;s (or process&#39;) privileges. ">
<polygon fill="#3d7a99" stroke="#3d7a99" points="606,-547 606,-568 796,-568 796,-547 606,-547"/>
<polygon fill="none" stroke="black" points="606,-547 606,-568 796,-568 796,-547 606,-547"/>
<text text-anchor="start" x="678.5" y="-554.233" font-family="Times Roman,serif" font-size="14.00">UserId</text>
</a>
<a xlink:href="#" xlink:title="A user or group name.">
<polygon fill="#66ccff" stroke="#66ccff" points="606,-527 606,-547 796,-547 796,-527 606,-527"/>
<polygon fill="none" stroke="black" points="606,-527 606,-547 796,-547 796,-527 606,-527"/>
<text text-anchor="start" x="624" y="-533.733" font-family="Times Roman,serif" font-size="14.00">[STRING] name (0..1) </text>
</a>
<a xlink:href="#" xlink:title="A user or group number.">
<polygon fill="#66ccff" stroke="#66ccff" points="606,-507 606,-527 796,-527 796,-507 606,-507"/>
<polygon fill="none" stroke="black" points="606,-507 606,-527 796,-527 796,-507 606,-507"/>
<text text-anchor="start" x="612" y="-513.733" font-family="Times Roman,serif" font-size="14.00">[INTEGER] number (0..1) </text>
</a>
<a xlink:href="#" xlink:title="A unique identifier for the user id, see Section 3.2.9.">
<polygon fill="#66ccff" stroke="#66ccff" points="606,-487 606,-507 796,-507 796,-487 606,-487"/>
<polygon fill="none" stroke="black" points="606,-487 606,-507 796,-507 796,-487 606,-487"/>
<text text-anchor="start" x="609.5" y="-493.733" font-family="Times Roman,serif" font-size="14.00">[STRING] ident (Optional) </text>
</a>
<a xlink:href="#" xlink:title="The type of user information represented. &#160;The permitted values for this attribute are shown below. &#160;The default value is &quot;original&#45;user&quot;. &#160;(See also Section 10.)">
<polygon fill="#66ccff" stroke="#66ccff" points="606,-467 606,-487 796,-487 796,-467 606,-467"/>
<polygon fill="none" stroke="black" points="606,-467 606,-487 796,-487 796,-467 606,-467"/>
<text text-anchor="start" x="618" y="-473.733" font-family="Times Roman,serif" font-size="14.00">[ENUM] type (Optional) </text>
</a>
<a xlink:href="#" xlink:title="The tty the user is using.">
<polygon fill="#66ccff" stroke="#66ccff" points="606,-447 606,-467 796,-467 796,-447 606,-447"/>
<polygon fill="none" stroke="black" points="606,-447 606,-467 796,-467 796,-447 606,-447"/>
<text text-anchor="start" x="617" y="-453.733" font-family="Times Roman,serif" font-size="14.00">[STRING] tty (Optional) </text>
</a>
</g>
<!-- FileAccess&#45;&gt;UserId -->
<g id="edge2" class="edge"><title>FileAccess&#45;&gt;UserId</title>
<path fill="none" stroke="black" d="M527.718,-508C547.263,-508 567.896,-508 587.843,-508"/>
<polygon fill="black" stroke="black" points="587.886,-511.5 597.886,-508 587.886,-504.5 587.886,-511.5"/>
<text text-anchor="middle" x="575" y="-512.4" font-family="Times Roman,serif" font-size="14.00">1</text>
</g>
<!-- Linkage&#45;&gt;File -->
<g id="edge6" class="edge"><title>Linkage&#45;&gt;File</title>
<path fill="none" stroke="black" d="M318.189,-380.147C307.349,-376.276 296.483,-372.499 286,-369 274.417,-365.134 262.329,-361.261 250.187,-357.48"/>
<polygon fill="black" stroke="black" points="251.035,-354.079 240.447,-354.47 248.968,-360.767 251.035,-354.079"/>
<text text-anchor="middle" x="272" y="-373.4" font-family="Times Roman,serif" font-size="14.00">1</text>
</g>
</g>
</svg>
