<?xml version="1.0" encoding="UTF-8" standalone="no"?>
<!DOCTYPE svg PUBLIC "-//W3C//DTD SVG 1.1//EN"
 "http://www.w3.org/Graphics/SVG/1.1/DTD/svg11.dtd">
<!-- Generated by graphviz version 2.26.3 (20100126.1600)
 -->
<!-- Title: Transaction Pages: 1 -->
<svg width="1090pt" height="580pt"
 viewBox="0.00 0.00 1090.00 580.00" xmlns="http://www.w3.org/2000/svg" xmlns:xlink="http://www.w3.org/1999/xlink">
<g id="graph1" class="graph" transform="scale(1 1) rotate(0) translate(4 576)">
<title>Transaction</title>
<polygon fill="white" stroke="white" points="-4,5 -4,-576 1087,-576 1087,5 -4,5"/>
<!-- Transaction -->
<g id="node1" class="node"><title>Transaction</title>
<a xlink:href="#" xlink:title="The Transaction class contains specific information about the data exchange during the attack.">
<polygon fill="#cecece" stroke="#cecece" points="8,-319 8,-340 208,-340 208,-319 8,-319"/>
<polygon fill="none" stroke="black" points="8,-319 8,-340 208,-340 208,-319 8,-319"/>
<text text-anchor="start" x="68.5" y="-326.233" font-family="Times Roman,serif" font-size="14.00">Transaction</text>
</a>
<a xlink:href="#" xlink:title="Direction of the attack source &lt;&#45;&gt; target">
<polygon fill="none" stroke="black" points="8,-299 8,-319 208,-319 208,-299 8,-299"/>
<text text-anchor="start" x="11.5" y="-305.733" font-family="Times Roman,serif" font-size="14.00">[Enum] direction (Optional) </text>
</a>
</g>
<!-- File -->
<g id="node2" class="node"><title>File</title>
<a xlink:href="#" xlink:title="The File class provides specific information about a file or other file&#45;like object that has been created, deleted, or modified on the target. The description can provide either the file settings prior to the event or the file settings at the time of the event, as specified using the &quot;category&quot; attribute. ">
<polygon fill="#997a00" stroke="#997a00" points="286,-409 286,-430 510,-430 510,-409 286,-409"/>
<polygon fill="none" stroke="black" points="286,-409 286,-430 510,-430 510,-409 286,-409"/>
<text text-anchor="start" x="386" y="-416.233" font-family="Times Roman,serif" font-size="14.00">File</text>
</a>
<a xlink:href="#" xlink:title="The name of the file to which the alert applies, not including the path to the file.">
<polygon fill="#ffcc00" stroke="#ffcc00" points="286,-389 286,-409 510,-409 510,-389 286,-389"/>
<polygon fill="none" stroke="black" points="286,-389 286,-409 510,-409 510,-389 286,-389"/>
<text text-anchor="start" x="330" y="-395.733" font-family="Times Roman,serif" font-size="14.00">[STRING] name (1) </text>
</a>
<a xlink:href="#" xlink:title="The full path to the file, including the name. &#160;The path name should be represented in as &quot;universal&quot; a manner as possible, to facilitate processing of the alert.">
<polygon fill="#ffcc00" stroke="#ffcc00" points="286,-369 286,-389 510,-389 510,-369 286,-369"/>
<polygon fill="none" stroke="black" points="286,-369 286,-389 510,-389 510,-369 286,-369"/>
<text text-anchor="start" x="333" y="-375.733" font-family="Times Roman,serif" font-size="14.00">[STRING] path (1) </text>
</a>
<a xlink:href="#" xlink:title="Time the file was created. &#160;Note that this is *not* the Unix &quot;st_ctime&quot; file attribute (which is not file creation time). &#160;The Unix &quot;st_ctime&quot; attribute is contained in the &quot;Inode&quot; class.">
<polygon fill="#ffcc00" stroke="#ffcc00" points="286,-349 286,-369 510,-369 510,-349 286,-349"/>
<polygon fill="none" stroke="black" points="286,-349 286,-369 510,-369 510,-349 286,-349"/>
<text text-anchor="start" x="291" y="-355.733" font-family="Times Roman,serif" font-size="14.00">[DATETIME] create&#45;time (0..1) </text>
</a>
<a xlink:href="#" xlink:title="Time the file was last modified.">
<polygon fill="#ffcc00" stroke="#ffcc00" points="286,-329 286,-349 510,-349 510,-329 286,-329"/>
<polygon fill="none" stroke="black" points="286,-329 286,-349 510,-349 510,-329 286,-329"/>
<text text-anchor="start" x="289.5" y="-335.733" font-family="Times Roman,serif" font-size="14.00">[DATETIME] modify&#45;time (0..1) </text>
</a>
<a xlink:href="#" xlink:title="Time the file was last accessed.">
<polygon fill="#ffcc00" stroke="#ffcc00" points="286,-309 286,-329 510,-329 510,-309 286,-309"/>
<polygon fill="none" stroke="black" points="286,-309 286,-329 510,-329 510,-309 286,-309"/>
<text text-anchor="start" x="291" y="-315.733" font-family="Times Roman,serif" font-size="14.00">[DATETIME] access&#45;time (0..1) </text>
</a>
<a xlink:href="#" xlink:title="The size of the data, in bytes. &#160;Typically what is meant when referring to file size. &#160;On Unix UFS file systems, this value corresponds to stat.st_size. &#160;On Windows NTFS, this value corresponds to Valid Data Length (VDL).">
<polygon fill="#ffcc00" stroke="#ffcc00" points="286,-289 286,-309 510,-309 510,-289 286,-289"/>
<polygon fill="none" stroke="black" points="286,-289 286,-309 510,-309 510,-289 286,-289"/>
<text text-anchor="start" x="304" y="-295.733" font-family="Times Roman,serif" font-size="14.00">[INTEGER] data&#45;size (0..1) </text>
</a>
<a xlink:href="#" xlink:title="The physical space on disk consumed by the file, in bytes. &#160;On Unix UFS file systems, this value corresponds to 512 * stat.st_blocks. &#160;On Windows NTFS, this value corresponds to End of File (EOF).">
<polygon fill="#ffcc00" stroke="#ffcc00" points="286,-269 286,-289 510,-289 510,-269 286,-269"/>
<polygon fill="none" stroke="black" points="286,-269 286,-289 510,-289 510,-269 286,-269"/>
<text text-anchor="start" x="306" y="-275.733" font-family="Times Roman,serif" font-size="14.00">[INTEGER] disk&#45;size (0..1) </text>
</a>
<a xlink:href="#" xlink:title="A unique identifier for this file; see Section 3.2.9.">
<polygon fill="#ffcc00" stroke="#ffcc00" points="286,-249 286,-269 510,-269 510,-249 286,-249"/>
<polygon fill="none" stroke="black" points="286,-249 286,-269 510,-269 510,-249 286,-249"/>
<text text-anchor="start" x="322.5" y="-255.733" font-family="Times Roman,serif" font-size="14.00">[STRING] ident (0..1) </text>
</a>
<a xlink:href="#" xlink:title="The type of file system the file resides on. &#160;This attribute governs how path names and other attributes are interpreted.">
<polygon fill="#ffcc00" stroke="#ffcc00" points="286,-229 286,-249 510,-249 510,-229 286,-229"/>
<polygon fill="none" stroke="black" points="286,-229 286,-249 510,-249 510,-229 286,-229"/>
<text text-anchor="start" x="316" y="-235.733" font-family="Times Roman,serif" font-size="14.00">[ENUM] category (0..1) </text>
</a>
<a xlink:href="#" xlink:title="The type of file, as a mime&#45;type.">
<polygon fill="#ffcc00" stroke="#ffcc00" points="286,-209 286,-229 510,-229 510,-209 286,-209"/>
<polygon fill="none" stroke="black" points="286,-209 286,-229 510,-229 510,-209 286,-209"/>
<text text-anchor="start" x="312" y="-215.733" font-family="Times Roman,serif" font-size="14.00">[STRING] file&#45;type (0..1) </text>
</a>
</g>
<!-- Transaction&#45;&gt;File -->
<g id="edge16" class="edge"><title>Transaction&#45;&gt;File</title>
<path fill="none" stroke="black" d="M216.398,-320C233.074,-320 250.441,-320 267.536,-320"/>
<polygon fill="black" stroke="black" points="267.563,-323.5 277.563,-320 267.563,-316.5 267.563,-323.5"/>
<text text-anchor="middle" x="247" y="-324.4" font-family="Times Roman,serif" font-size="14.00">0..*</text>
</g>
<!-- FileAccess -->
<g id="node3" class="node"><title>FileAccess</title>
<a xlink:href="#" xlink:title="The FileAccess class represents the access permissions on a file. The representation is intended to be useful across operating systems. ">
<polygon fill="#997a00" stroke="#997a00" points="615,-507 615,-528 798,-528 798,-507 615,-507"/>
<polygon fill="none" stroke="black" points="615,-507 615,-528 798,-528 798,-507 615,-507"/>
<text text-anchor="start" x="672" y="-514.233" font-family="Times Roman,serif" font-size="14.00">FileAccess</text>
</a>
<a xlink:href="#" xlink:title="Level of access allowed. &#160;The permitted values are shown below. &#160;There is no default value. &#160;(See also Section 10.)">
<polygon fill="#ffcc00" stroke="#ffcc00" points="615,-487 615,-507 798,-507 798,-487 615,-487"/>
<polygon fill="none" stroke="black" points="615,-487 615,-507 798,-507 798,-487 615,-487"/>
<text text-anchor="start" x="618.5" y="-493.733" font-family="Times Roman,serif" font-size="14.00">[ENUM] Permission (1..*) </text>
</a>
</g>
<!-- File&#45;&gt;FileAccess -->
<g id="edge4" class="edge"><title>File&#45;&gt;FileAccess</title>
<path fill="none" stroke="black" d="M518.097,-433.681C538.404,-449.128 560.05,-463.57 582,-475 586.816,-477.508 591.839,-479.837 596.987,-482"/>
<polygon fill="black" stroke="black" points="595.781,-485.287 606.367,-485.714 598.358,-478.778 595.781,-485.287"/>
<text text-anchor="middle" x="550" y="-467.4" font-family="Times Roman,serif" font-size="14.00">0..*</text>
</g>
<!-- Linkage -->
<g id="node7" class="node"><title>Linkage</title>
<a xlink:href="#" xlink:title="The Linkage class represents file system connections between the file described in the &lt;File&gt; element and other objects in the file system. For example, if the &lt;File&gt; element is a symbolic link or shortcut, then the &lt;Linkage&gt; element should contain the name of the object the link points to. Further information can be provided about the object in the &lt;Linkage&gt; element with another &lt;File&gt; element, if appropriate. ">
<polygon fill="#997a00" stroke="#997a00" points="605,-441 605,-462 808,-462 808,-441 605,-441"/>
<polygon fill="none" stroke="black" points="605,-441 605,-462 808,-462 808,-441 605,-441"/>
<text text-anchor="start" x="679" y="-448.233" font-family="Times Roman,serif" font-size="14.00">Linkage</text>
</a>
<a xlink:href="#" xlink:title="The name of the file system object, not including the path.">
<polygon fill="#ffcc00" stroke="#ffcc00" points="605,-421 605,-441 808,-441 808,-421 605,-421"/>
<polygon fill="none" stroke="black" points="605,-421 605,-441 808,-441 808,-421 605,-421"/>
<text text-anchor="start" x="638.5" y="-427.733" font-family="Times Roman,serif" font-size="14.00">[STRING] name (1) </text>
</a>
<a xlink:href="#" xlink:title="The full path to the file system object, including the name. &#160;The path name should be represented in as &quot;universal&quot; a manner as possible, to facilitate processing of the alert.">
<polygon fill="#ffcc00" stroke="#ffcc00" points="605,-401 605,-421 808,-421 808,-401 605,-401"/>
<polygon fill="none" stroke="black" points="605,-401 605,-421 808,-421 808,-401 605,-401"/>
<text text-anchor="start" x="641.5" y="-407.733" font-family="Times Roman,serif" font-size="14.00">[STRING] path (1) </text>
</a>
<a xlink:href="#" xlink:title="Section 10.)">
<polygon fill="#ffcc00" stroke="#ffcc00" points="605,-381 605,-401 808,-401 808,-381 605,-381"/>
<polygon fill="none" stroke="black" points="605,-381 605,-401 808,-401 808,-381 605,-381"/>
<text text-anchor="start" x="608.5" y="-387.733" font-family="Times Roman,serif" font-size="14.00">[ENUM] category (Optional) </text>
</a>
</g>
<!-- File&#45;&gt;Linkage -->
<g id="edge8" class="edge"><title>File&#45;&gt;Linkage</title>
<path fill="none" stroke="black" d="M518.102,-379.467C524.103,-381.798 530.091,-383.993 536,-386 551.999,-391.434 569.135,-396.213 586.144,-400.364"/>
<polygon fill="black" stroke="black" points="585.596,-403.831 596.134,-402.736 587.213,-397.02 585.596,-403.831"/>
<text text-anchor="middle" x="550" y="-399.4" font-family="Times Roman,serif" font-size="14.00">0..*</text>
</g>
<!-- Inode -->
<g id="node10" class="node"><title>Inode</title>
<a xlink:href="#" xlink:title="The Inode class is used to represent the additional information contained in a Unix file system i&#45;node. ">
<polygon fill="#997a00" stroke="#997a00" points="590,-335 590,-356 822,-356 822,-335 590,-335"/>
<polygon fill="none" stroke="black" points="590,-335 590,-356 822,-356 822,-335 590,-335"/>
<text text-anchor="start" x="686.5" y="-342.233" font-family="Times Roman,serif" font-size="14.00">Inode</text>
</a>
<a xlink:href="#" xlink:title="The time of the last inode change, given by the st_ctime element of &quot;struct stat&quot;.">
<polygon fill="#ffcc00" stroke="#ffcc00" points="590,-315 590,-335 822,-335 822,-315 590,-315"/>
<polygon fill="none" stroke="black" points="590,-315 590,-335 822,-335 822,-315 590,-315"/>
<text text-anchor="start" x="596" y="-321.733" font-family="Times Roman,serif" font-size="14.00">[DATETIME] change&#45;time (0..1) </text>
</a>
<a xlink:href="#" xlink:title="The inode number.">
<polygon fill="#ffcc00" stroke="#ffcc00" points="590,-295 590,-315 822,-315 822,-295 590,-295"/>
<polygon fill="none" stroke="black" points="590,-295 590,-315 822,-315 822,-295 590,-295"/>
<text text-anchor="start" x="617" y="-301.733" font-family="Times Roman,serif" font-size="14.00">[INTEGER] number (0..1) </text>
</a>
<a xlink:href="#" xlink:title="The major device number of the device the file resides on.">
<polygon fill="#ffcc00" stroke="#ffcc00" points="590,-275 590,-295 822,-295 822,-275 590,-275"/>
<polygon fill="none" stroke="black" points="590,-275 590,-295 822,-295 822,-275 590,-275"/>
<text text-anchor="start" x="600" y="-281.733" font-family="Times Roman,serif" font-size="14.00">[INTEGER] major&#45;device (0..1) </text>
</a>
<a xlink:href="#" xlink:title="The minor device number of the device the file resides on.">
<polygon fill="#ffcc00" stroke="#ffcc00" points="590,-255 590,-275 822,-275 822,-255 590,-255"/>
<polygon fill="none" stroke="black" points="590,-255 590,-275 822,-275 822,-255 590,-255"/>
<text text-anchor="start" x="599.5" y="-261.733" font-family="Times Roman,serif" font-size="14.00">[INTEGER] minor&#45;device (0..1) </text>
</a>
<a xlink:href="#" xlink:title="The major device of the file itself, if it is a character special device.">
<polygon fill="#ffcc00" stroke="#ffcc00" points="590,-235 590,-255 822,-255 822,-235 590,-235"/>
<polygon fill="none" stroke="black" points="590,-235 590,-255 822,-255 822,-235 590,-235"/>
<text text-anchor="start" x="594" y="-241.733" font-family="Times Roman,serif" font-size="14.00">[INTEGER] c&#45;major&#45;device (0..1) </text>
</a>
<a xlink:href="#" xlink:title="The minor device of the file itself, if it is a character special device.">
<polygon fill="#ffcc00" stroke="#ffcc00" points="590,-215 590,-235 822,-235 822,-215 590,-215"/>
<polygon fill="none" stroke="black" points="590,-215 590,-235 822,-235 822,-215 590,-215"/>
<text text-anchor="start" x="593.5" y="-221.733" font-family="Times Roman,serif" font-size="14.00">[INTEGER] c&#45;minor&#45;device (0..1) </text>
</a>
</g>
<!-- File&#45;&gt;Inode -->
<g id="edge10" class="edge"><title>File&#45;&gt;Inode</title>
<path fill="none" stroke="black" d="M518.404,-306.709C535.823,-304.786 553.844,-302.796 571.517,-300.846"/>
<polygon fill="black" stroke="black" points="572.319,-304.278 581.875,-299.702 571.551,-297.321 572.319,-304.278"/>
<text text-anchor="middle" x="550" y="-309.4" font-family="Times Roman,serif" font-size="14.00">0..1</text>
</g>
<!-- Checksum -->
<g id="node12" class="node"><title>Checksum</title>
<a xlink:href="#" xlink:title="The Checksum class represents checksum information associated with the file. This checksum information can be provided by file integrity checkers, among others. ">
<polygon fill="#997a00" stroke="#997a00" points="601,-169 601,-190 812,-190 812,-169 601,-169"/>
<polygon fill="none" stroke="black" points="601,-169 601,-190 812,-190 812,-169 601,-169"/>
<text text-anchor="start" x="671" y="-176.233" font-family="Times Roman,serif" font-size="14.00">Checksum</text>
</a>
<a xlink:href="#" xlink:title="The value of the checksum.">
<polygon fill="#ffcc00" stroke="#ffcc00" points="601,-149 601,-169 812,-169 812,-149 601,-149"/>
<polygon fill="none" stroke="black" points="601,-149 601,-169 812,-169 812,-149 601,-149"/>
<text text-anchor="start" x="638.5" y="-155.733" font-family="Times Roman,serif" font-size="14.00">[STRING] value (1) </text>
</a>
<a xlink:href="#" xlink:title="The key to the checksum, if appropriate.">
<polygon fill="#ffcc00" stroke="#ffcc00" points="601,-129 601,-149 812,-149 812,-129 601,-129"/>
<polygon fill="none" stroke="black" points="601,-129 601,-149 812,-149 812,-129 601,-129"/>
<text text-anchor="start" x="636.5" y="-135.733" font-family="Times Roman,serif" font-size="14.00">[STRING] key (0..1) </text>
</a>
<a xlink:href="#" xlink:title="default value. &#160;(See also Section 10.)">
<polygon fill="#ffcc00" stroke="#ffcc00" points="601,-109 601,-129 812,-129 812,-109 601,-109"/>
<polygon fill="none" stroke="black" points="601,-109 601,-129 812,-129 812,-109 601,-109"/>
<text text-anchor="start" x="604.5" y="-115.733" font-family="Times Roman,serif" font-size="14.00">[ENUM] algorithm (Required) </text>
</a>
</g>
<!-- File&#45;&gt;Checksum -->
<g id="edge12" class="edge"><title>File&#45;&gt;Checksum</title>
<path fill="none" stroke="black" d="M518.081,-239.734C539.046,-226.855 560.903,-214.122 582,-203 584.759,-201.546 587.566,-200.099 590.409,-198.664"/>
<polygon fill="black" stroke="black" points="592.185,-201.69 599.598,-194.121 589.082,-195.416 592.185,-201.69"/>
<text text-anchor="middle" x="550" y="-231.4" font-family="Times Roman,serif" font-size="14.00">0..*</text>
</g>
<!-- Stream -->
<g id="node14" class="node"><title>Stream</title>
<a xlink:href="#" xlink:title="The Stram class contains specific information about the content of a file">
<polygon fill="#cecece" stroke="#cecece" points="602,-63 602,-84 811,-84 811,-63 602,-63"/>
<polygon fill="none" stroke="black" points="602,-63 602,-84 811,-84 811,-63 602,-63"/>
<text text-anchor="start" x="681" y="-70.2333" font-family="Times Roman,serif" font-size="14.00">Stream</text>
</a>
<a xlink:href="#" xlink:title="&lt;TABLE&gt;">
<polygon fill="none" stroke="black" points="602,-43 602,-63 811,-63 811,-43 602,-43"/>
<text text-anchor="start" x="605.5" y="-49.7333" font-family="Times Roman,serif" font-size="14.00">[ENUM] offsetunit (Optional) </text>
</a>
<a xlink:href="#" xlink:title="Amount of units (determined by the offsetunit attribute) to seek into the File">
<polygon fill="none" stroke="black" points="602,-23 602,-43 811,-43 811,-23 602,-23"/>
<text text-anchor="start" x="608.5" y="-29.7333" font-family="Times Roman,serif" font-size="14.00">[INTEGER] offset (Optional) </text>
</a>
<a xlink:href="#" xlink:title="Content of the file">
<polygon fill="none" stroke="black" points="602,-3 602,-23 811,-23 811,-3 602,-3"/>
<text text-anchor="start" x="622.5" y="-9.73333" font-family="Times Roman,serif" font-size="14.00">[DATA] Data (Required) </text>
</a>
</g>
<!-- File&#45;&gt;Stream -->
<g id="edge14" class="edge"><title>File&#45;&gt;Stream</title>
<path fill="none" stroke="black" d="M474.937,-205.999C504.946,-167.678 541.813,-127.072 582,-97 583.418,-95.9392 584.86,-94.8949 586.323,-93.8669"/>
<polygon fill="black" stroke="black" points="588.529,-96.6037 594.926,-88.1581 584.659,-90.771 588.529,-96.6037"/>
<text text-anchor="middle" x="550" y="-137.4" font-family="Times Roman,serif" font-size="14.00">0..1</text>
</g>
<!-- UserId -->
<g id="node4" class="node"><title>UserId</title>
<a xlink:href="#" xlink:title="The UserId class provides specific information about a user. More than one UserId can be used within the User class to indicate attempts to transition from one user to another, or to provide complete information about a user&#39;s (or process&#39;) privileges. ">
<polygon fill="#3d7a99" stroke="#3d7a99" points="884,-547 884,-568 1074,-568 1074,-547 884,-547"/>
<polygon fill="none" stroke="black" points="884,-547 884,-568 1074,-568 1074,-547 884,-547"/>
<text text-anchor="start" x="956.5" y="-554.233" font-family="Times Roman,serif" font-size="14.00">UserId</text>
</a>
<a xlink:href="#" xlink:title="A user or group name.">
<polygon fill="#66ccff" stroke="#66ccff" points="884,-527 884,-547 1074,-547 1074,-527 884,-527"/>
<polygon fill="none" stroke="black" points="884,-527 884,-547 1074,-547 1074,-527 884,-527"/>
<text text-anchor="start" x="902" y="-533.733" font-family="Times Roman,serif" font-size="14.00">[STRING] name (0..1) </text>
</a>
<a xlink:href="#" xlink:title="A user or group number.">
<polygon fill="#66ccff" stroke="#66ccff" points="884,-507 884,-527 1074,-527 1074,-507 884,-507"/>
<polygon fill="none" stroke="black" points="884,-507 884,-527 1074,-527 1074,-507 884,-507"/>
<text text-anchor="start" x="890" y="-513.733" font-family="Times Roman,serif" font-size="14.00">[INTEGER] number (0..1) </text>
</a>
<a xlink:href="#" xlink:title="A unique identifier for the user id, see Section 3.2.9.">
<polygon fill="#66ccff" stroke="#66ccff" points="884,-487 884,-507 1074,-507 1074,-487 884,-487"/>
<polygon fill="none" stroke="black" points="884,-487 884,-507 1074,-507 1074,-487 884,-487"/>
<text text-anchor="start" x="887.5" y="-493.733" font-family="Times Roman,serif" font-size="14.00">[STRING] ident (Optional) </text>
</a>
<a xlink:href="#" xlink:title="The type of user information represented. &#160;The permitted values for this attribute are shown below. &#160;The default value is &quot;original&#45;user&quot;. &#160;(See also Section 10.)">
<polygon fill="#66ccff" stroke="#66ccff" points="884,-467 884,-487 1074,-487 1074,-467 884,-467"/>
<polygon fill="none" stroke="black" points="884,-467 884,-487 1074,-487 1074,-467 884,-467"/>
<text text-anchor="start" x="896" y="-473.733" font-family="Times Roman,serif" font-size="14.00">[ENUM] type (Optional) </text>
</a>
<a xlink:href="#" xlink:title="The tty the user is using.">
<polygon fill="#66ccff" stroke="#66ccff" points="884,-447 884,-467 1074,-467 1074,-447 884,-447"/>
<polygon fill="none" stroke="black" points="884,-447 884,-467 1074,-467 1074,-447 884,-447"/>
<text text-anchor="start" x="895" y="-453.733" font-family="Times Roman,serif" font-size="14.00">[STRING] tty (Optional) </text>
</a>
</g>
<!-- FileAccess&#45;&gt;UserId -->
<g id="edge2" class="edge"><title>FileAccess&#45;&gt;UserId</title>
<path fill="none" stroke="black" d="M805.718,-508C825.263,-508 845.896,-508 865.843,-508"/>
<polygon fill="black" stroke="black" points="865.886,-511.5 875.886,-508 865.886,-504.5 865.886,-511.5"/>
<text text-anchor="middle" x="853" y="-512.4" font-family="Times Roman,serif" font-size="14.00">1</text>
</g>
<!-- Linkage&#45;&gt;File -->
<g id="edge6" class="edge"><title>Linkage&#45;&gt;File</title>
<path fill="none" stroke="black" d="M596.189,-380.147C585.349,-376.276 574.483,-372.499 564,-369 552.417,-365.134 540.329,-361.261 528.187,-357.48"/>
<polygon fill="black" stroke="black" points="529.035,-354.079 518.447,-354.47 526.968,-360.767 529.035,-354.079"/>
<text text-anchor="middle" x="550" y="-373.4" font-family="Times Roman,serif" font-size="14.00">1</text>
</g>
</g>
</svg>
