<?xml version="1.0" encoding="UTF-8" standalone="no"?>
<!DOCTYPE svg PUBLIC "-//W3C//DTD SVG 1.1//EN"
 "http://www.w3.org/Graphics/SVG/1.1/DTD/svg11.dtd">
<!-- Generated by graphviz version 2.38.0 (20140413.2041)
 -->
<!-- Title: Action Pages: 1 -->
<svg width="147pt" height="58pt"
 viewBox="0.00 0.00 147.00 58.00" xmlns="http://www.w3.org/2000/svg" xmlns:xlink="http://www.w3.org/1999/xlink">
<g id="graph0" class="graph" transform="scale(1 1) rotate(0) translate(4 54)">
<title>Action</title>
<polygon fill="white" stroke="none" points="-4,4 -4,-54 143,-54 143,4 -4,4"/>
<!-- Action -->
<g id="node1" class="node"><title>Action</title>
<g id="a_node1_0"><a xlink:href="/idmef_parser/IDMEF/Action.html" xlink:title="The Action class is used to describe any actions taken by the analyzer in response to the event. Is is represented in the IDMEF DTD as follows: ">
<polygon fill="#993016" stroke="none" points="8.5,-25 8.5,-46 131.5,-46 131.5,-25 8.5,-25"/>
<polygon fill="none" stroke="black" points="8.5,-25 8.5,-46 131.5,-46 131.5,-25 8.5,-25"/>
<text text-anchor="start" x="51.5" y="-31.8" font-family="Times,serif" font-size="14.00">Action</text>
</a>
</g>
<g id="a_node1_1"><a xlink:href="/idmef_parser/IDMEF/Action.html" xlink:title="The default value is &quot;other&quot;. &#160;(See also Section 10.)">
<polygon fill="#ff5024" stroke="none" points="8.5,-4 8.5,-25 131.5,-25 131.5,-4 8.5,-4"/>
<polygon fill="none" stroke="black" points="8.5,-4 8.5,-25 131.5,-25 131.5,-4 8.5,-4"/>
<text text-anchor="start" x="11.5" y="-10.8" font-family="Times,serif" font-size="14.00">[ENUM] category () </text>
</a>
</g>
</g>
</g>
</svg>
