<?xml version="1.0" encoding="UTF-8" standalone="no"?>
<!DOCTYPE svg PUBLIC "-//W3C//DTD SVG 1.1//EN"
 "http://www.w3.org/Graphics/SVG/1.1/DTD/svg11.dtd">
<!-- Generated by graphviz version 2.26.3 (20100126.1600)
 -->
<!-- Title: AdditionalData Pages: 1 -->
<svg width="238pt" height="56pt"
 viewBox="0.00 0.00 238.00 56.00" xmlns="http://www.w3.org/2000/svg" xmlns:xlink="http://www.w3.org/1999/xlink">
<g id="graph1" class="graph" transform="scale(1 1) rotate(0) translate(4 52)">
<title>AdditionalData</title>
<polygon fill="white" stroke="white" points="-4,5 -4,-52 235,-52 235,5 -4,5"/>
<!-- AdditionalData -->
<g id="node1" class="node"><title>AdditionalData</title>
<a xlink:href="/idmef_parser/IDMEF/AdditionalData.html" xlink:title="The AdditionalData class is used to provide information that cannot be represented by the data model. AdditionalData can be used to provide atomic data (integers, strings, etc.) in cases where only small amounts of additional information need to be sent; it can also be used to extend the data model and the DTD to support the transmission of complex data (such as packet headers). Detailed instructions for extending the data model and the DTD are provided in Section 5. ">
<polygon fill="#431d60" stroke="#431d60" points="8,-23 8,-44 222,-44 222,-23 8,-23"/>
<polygon fill="none" stroke="black" points="8,-23 8,-44 222,-44 222,-23 8,-23"/>
<text text-anchor="start" x="63.5" y="-30.2333" font-family="Times Roman,serif" font-size="14.00">AdditionalData</text>
</a>
<a xlink:href="/idmef_parser/IDMEF/AdditionalData.html" xlink:title="A string describing the meaning of the element content. These values will be vendor/implementation dependent; the method for ensuring that managers understand the strings sent by analyzers is outside the scope of this specification. &#160;A list of acceptable meaning keywords is not within the scope of the document, although later versions may undertake to establish such a list.">
<polygon fill="#7030a0" stroke="#7030a0" points="8,-3 8,-23 222,-23 222,-3 8,-3"/>
<polygon fill="none" stroke="black" points="8,-3 8,-23 222,-23 222,-3 8,-3"/>
<text text-anchor="start" x="11.5" y="-9.73333" font-family="Times Roman,serif" font-size="14.00">[STRING] meaning (Optional) </text>
</a>
</g>
</g>
</svg>
