<?xml version="1.0" encoding="UTF-8" standalone="no"?>
<!DOCTYPE svg PUBLIC "-//W3C//DTD SVG 1.1//EN"
 "http://www.w3.org/Graphics/SVG/1.1/DTD/svg11.dtd">
<!-- Generated by graphviz version 2.38.0 (20140413.2041)
 -->
<!-- Title: Analyzer Pages: 1 -->
<svg width="740pt" height="315pt"
 viewBox="0.00 0.00 740.00 315.00" xmlns="http://www.w3.org/2000/svg" xmlns:xlink="http://www.w3.org/1999/xlink">
<g id="graph0" class="graph" transform="scale(1 1) rotate(0) translate(4 311)">
<title>Analyzer</title>
<polygon fill="white" stroke="none" points="-4,4 -4,-311 736,-311 736,4 -4,4"/>
<!-- Analyzer -->
<g id="node1" class="node"><title>Analyzer</title>
<g id="a_node1_0"><a xlink:href="/idmef_parser/IDMEF/Analyzer.html" xlink:title="The Analyzer class identifies the analyzer from which the Alert or Heartbeat message originates. Only one analyzer may be encoded for each alert or heartbeat, and that MUST be the analyzer at which the alert or heartbeat originated. Although the IDMEF data model does not prevent the use of hierarchical intrusion detection systems (where alerts get relayed up the tree), it does not provide any way to record the identity of the &quot;relay&quot; analyzers along the path from the originating analyzer to the manager that ultimately receives the alert. ">
<polygon fill="#99993d" stroke="none" points="8.5,-197.5 8.5,-218.5 213.5,-218.5 213.5,-197.5 8.5,-197.5"/>
<polygon fill="none" stroke="black" points="8.5,-197.5 8.5,-218.5 213.5,-218.5 213.5,-197.5 8.5,-197.5"/>
<text text-anchor="start" x="86" y="-204.3" font-family="Times,serif" font-size="14.00">Analyzer</text>
</a>
</g>
<g id="a_node1_1"><a xlink:href="/idmef_parser/IDMEF/Analyzer.html" xlink:title="(but see below). &#160;A unique identifier for the analyzer; see Section 3.2.9.">
<polygon fill="#ffff66" stroke="none" points="8.5,-176.5 8.5,-197.5 213.5,-197.5 213.5,-176.5 8.5,-176.5"/>
<polygon fill="none" stroke="black" points="8.5,-176.5 8.5,-197.5 213.5,-197.5 213.5,-176.5 8.5,-176.5"/>
<text text-anchor="start" x="20" y="-183.3" font-family="Times,serif" font-size="14.00">[STRING] analyzerid (Optional) </text>
</a>
</g>
<g id="a_node1_2"><a xlink:href="/idmef_parser/IDMEF/Analyzer.html" xlink:title="An explicit name for the analyzer that may be easier to understand than the analyzerid.">
<polygon fill="#ffff66" stroke="none" points="8.5,-155.5 8.5,-176.5 213.5,-176.5 213.5,-155.5 8.5,-155.5"/>
<polygon fill="none" stroke="black" points="8.5,-155.5 8.5,-176.5 213.5,-176.5 213.5,-155.5 8.5,-155.5"/>
<text text-anchor="start" x="33" y="-162.3" font-family="Times,serif" font-size="14.00">[STRING] name (Optional) </text>
</a>
</g>
<g id="a_node1_3"><a xlink:href="/idmef_parser/IDMEF/Analyzer.html" xlink:title="The manufacturer of the analyzer software and/or hardware.">
<polygon fill="#ffff66" stroke="none" points="8.5,-134.5 8.5,-155.5 213.5,-155.5 213.5,-134.5 8.5,-134.5"/>
<polygon fill="none" stroke="black" points="8.5,-134.5 8.5,-155.5 213.5,-155.5 213.5,-134.5 8.5,-134.5"/>
<text text-anchor="start" x="11.5" y="-141.3" font-family="Times,serif" font-size="14.00">[STRING] manufacturer (Optional) </text>
</a>
</g>
<g id="a_node1_4"><a xlink:href="/idmef_parser/IDMEF/Analyzer.html" xlink:title="The model name/number of the analyzer software and/or hardware.">
<polygon fill="#ffff66" stroke="none" points="8.5,-113.5 8.5,-134.5 213.5,-134.5 213.5,-113.5 8.5,-113.5"/>
<polygon fill="none" stroke="black" points="8.5,-113.5 8.5,-134.5 213.5,-134.5 213.5,-113.5 8.5,-113.5"/>
<text text-anchor="start" x="31" y="-120.3" font-family="Times,serif" font-size="14.00">[STRING] model (Optional) </text>
</a>
</g>
<g id="a_node1_5"><a xlink:href="/idmef_parser/IDMEF/Analyzer.html" xlink:title="The version number of the analyzer software and/or hardware.">
<polygon fill="#ffff66" stroke="none" points="8.5,-92.5 8.5,-113.5 213.5,-113.5 213.5,-92.5 8.5,-92.5"/>
<polygon fill="none" stroke="black" points="8.5,-92.5 8.5,-113.5 213.5,-113.5 213.5,-92.5 8.5,-92.5"/>
<text text-anchor="start" x="28" y="-99.3" font-family="Times,serif" font-size="14.00">[STRING] version (Optional) </text>
</a>
</g>
<g id="a_node1_6"><a xlink:href="/idmef_parser/IDMEF/Analyzer.html" xlink:title="The class of analyzer software and/or hardware.">
<polygon fill="#ffff66" stroke="none" points="8.5,-71.5 8.5,-92.5 213.5,-92.5 213.5,-71.5 8.5,-71.5"/>
<polygon fill="none" stroke="black" points="8.5,-71.5 8.5,-92.5 213.5,-92.5 213.5,-71.5 8.5,-71.5"/>
<text text-anchor="start" x="35" y="-78.3" font-family="Times,serif" font-size="14.00">[STRING] class (Optional) </text>
</a>
</g>
<g id="a_node1_7"><a xlink:href="/idmef_parser/IDMEF/Analyzer.html" xlink:title="Operating system name. &#160;On POSIX 1003.1 compliant systems, this is the value returned in utsname.sysname by the uname() system call, or the output of the &quot;uname &#45;s&quot; command.">
<polygon fill="#ffff66" stroke="none" points="8.5,-50.5 8.5,-71.5 213.5,-71.5 213.5,-50.5 8.5,-50.5"/>
<polygon fill="none" stroke="black" points="8.5,-50.5 8.5,-71.5 213.5,-71.5 213.5,-50.5 8.5,-50.5"/>
<text text-anchor="start" x="30.5" y="-57.3" font-family="Times,serif" font-size="14.00">[STRING] ostype (Optional) </text>
</a>
</g>
<g id="a_node1_8"><a xlink:href="/idmef_parser/IDMEF/Analyzer.html" xlink:title="Operating system version. &#160;On POSIX 1003.1 compliant systems, this is the value returned in utsname.release by the uname() system call, or the output of the &quot;uname &#45;r&quot; command.">
<polygon fill="#ffff66" stroke="none" points="8.5,-29.5 8.5,-50.5 213.5,-50.5 213.5,-29.5 8.5,-29.5"/>
<polygon fill="none" stroke="black" points="8.5,-29.5 8.5,-50.5 213.5,-50.5 213.5,-29.5 8.5,-29.5"/>
<text text-anchor="start" x="22" y="-36.3" font-family="Times,serif" font-size="14.00">[STRING] osversion (Optional) </text>
</a>
</g>
</g>
<!-- Analyzer&#45;&gt;Analyzer -->
<g id="edge4" class="edge"><title>Analyzer&#45;&gt;Analyzer</title>
<path fill="none" stroke="black" d="M88.7327,-223.091C92.8673,-233.974 100.123,-241 110.5,-241 117.634,-241 123.293,-237.679 127.477,-232.067"/>
<polygon fill="black" stroke="black" points="130.647,-233.561 132.267,-223.091 124.471,-230.265 130.647,-233.561"/>
<text text-anchor="middle" x="110.5" y="-244.8" font-family="Times,serif" font-size="14.00">0..1</text>
</g>
<!-- Node -->
<g id="node2" class="node"><title>Node</title>
<g id="a_node2_9"><a xlink:href="/idmef_parser/IDMEF/Node.html" xlink:title="The Node class is used to identify hosts and other network devices (routers, switches, etc.). ">
<polygon fill="#007a00" stroke="none" points="287,-260.5 287,-281.5 457,-281.5 457,-260.5 287,-260.5"/>
<polygon fill="none" stroke="black" points="287,-260.5 287,-281.5 457,-281.5 457,-260.5 287,-260.5"/>
<text text-anchor="start" x="357" y="-267.3" font-family="Times,serif" font-size="14.00">Node</text>
</a>
</g>
<g id="a_node2_10"><a xlink:href="/idmef_parser/IDMEF/Node.html" xlink:title="The location of the equipment.">
<polygon fill="#00cc00" stroke="none" points="287,-239.5 287,-260.5 457,-260.5 457,-239.5 287,-239.5"/>
<polygon fill="none" stroke="black" points="287,-239.5 287,-260.5 457,-260.5 457,-239.5 287,-239.5"/>
<text text-anchor="start" x="300.5" y="-246.3" font-family="Times,serif" font-size="14.00">[STRING] location (0..1) </text>
</a>
</g>
<g id="a_node2_11"><a xlink:href="/idmef_parser/IDMEF/Node.html" xlink:title="The name of the equipment. &#160;This information MUST be provided if no Address information is given.">
<polygon fill="#00cc00" stroke="none" points="287,-218.5 287,-239.5 457,-239.5 457,-218.5 287,-218.5"/>
<polygon fill="none" stroke="black" points="287,-218.5 287,-239.5 457,-239.5 457,-218.5 287,-218.5"/>
<text text-anchor="start" x="307" y="-225.3" font-family="Times,serif" font-size="14.00">[STRING] name (0..1) </text>
</a>
</g>
<g id="a_node2_12"><a xlink:href="/idmef_parser/IDMEF/Node.html" xlink:title="A unique identifier for the node; see Section 3.2.9.">
<polygon fill="#00cc00" stroke="none" points="287,-197.5 287,-218.5 457,-218.5 457,-197.5 287,-197.5"/>
<polygon fill="none" stroke="black" points="287,-197.5 287,-218.5 457,-218.5 457,-197.5 287,-197.5"/>
<text text-anchor="start" x="295.5" y="-204.3" font-family="Times,serif" font-size="14.00">[STRING] ident (Optional) </text>
</a>
</g>
<g id="a_node2_13"><a xlink:href="/idmef_parser/IDMEF/Node.html" xlink:title="The &quot;domain&quot; from which the name information was obtained, if relevant. &#160;The permitted values for this attribute are shown in the table below. &#160;The default value is &quot;unknown&quot;. (See also Section 10 for extensions to the table.)">
<polygon fill="#00cc00" stroke="none" points="287,-176.5 287,-197.5 457,-197.5 457,-176.5 287,-176.5"/>
<polygon fill="none" stroke="black" points="287,-176.5 287,-197.5 457,-197.5 457,-176.5 287,-176.5"/>
<text text-anchor="start" x="290" y="-183.3" font-family="Times,serif" font-size="14.00">[ENUM] category (Optional) </text>
</a>
</g>
</g>
<!-- Analyzer&#45;&gt;Node -->
<g id="edge2" class="edge"><title>Analyzer&#45;&gt;Node</title>
<path fill="none" stroke="black" d="M221.175,-168.877C237.248,-175.381 253.742,-182.055 269.639,-188.487"/>
<polygon fill="black" stroke="black" points="268.339,-191.736 278.921,-192.243 270.964,-185.247 268.339,-191.736"/>
<text text-anchor="middle" x="250" y="-187.3" font-family="Times,serif" font-size="14.00">0..1</text>
</g>
<!-- Process -->
<g id="node4" class="node"><title>Process</title>
<g id="a_node4_14"><a xlink:href="/idmef_parser/IDMEF/Process.html" xlink:title="The Process class is used to describe processes being executed on sources, targets, and analyzers. ">
<polygon fill="#997a3d" stroke="none" points="293,-129.5 293,-150.5 452,-150.5 452,-129.5 293,-129.5"/>
<polygon fill="none" stroke="black" points="293,-129.5 293,-150.5 452,-150.5 452,-129.5 293,-129.5"/>
<text text-anchor="start" x="351.5" y="-136.3" font-family="Times,serif" font-size="14.00">Process</text>
</a>
</g>
<g id="a_node4_15"><a xlink:href="/idmef_parser/IDMEF/Process.html" xlink:title="The name of the program being executed. This is a short name; path and argument information are provided elsewhere.">
<polygon fill="#ffcc66" stroke="none" points="293,-108.5 293,-129.5 452,-129.5 452,-108.5 293,-108.5"/>
<polygon fill="none" stroke="black" points="293,-108.5 293,-129.5 452,-129.5 452,-108.5 293,-108.5"/>
<text text-anchor="start" x="315" y="-115.3" font-family="Times,serif" font-size="14.00">[STRING] name (1) </text>
</a>
</g>
<g id="a_node4_16"><a xlink:href="/idmef_parser/IDMEF/Process.html" xlink:title="The process identifier of the process.">
<polygon fill="#ffcc66" stroke="none" points="293,-87.5 293,-108.5 452,-108.5 452,-87.5 293,-87.5"/>
<polygon fill="none" stroke="black" points="293,-87.5 293,-108.5 452,-108.5 452,-87.5 293,-87.5"/>
<text text-anchor="start" x="309.5" y="-94.3" font-family="Times,serif" font-size="14.00">[INTEGER] pid (0..1) </text>
</a>
</g>
<g id="a_node4_17"><a xlink:href="/idmef_parser/IDMEF/Process.html" xlink:title="The full path of the program being executed.">
<polygon fill="#ffcc66" stroke="none" points="293,-66.5 293,-87.5 452,-87.5 452,-66.5 293,-66.5"/>
<polygon fill="none" stroke="black" points="293,-66.5 293,-87.5 452,-87.5 452,-66.5 293,-66.5"/>
<text text-anchor="start" x="311" y="-73.3" font-family="Times,serif" font-size="14.00">[STRING] path (0..1) </text>
</a>
</g>
<g id="a_node4_18"><a xlink:href="/idmef_parser/IDMEF/Process.html" xlink:title="A command&#45;line argument to the program. Multiple arguments may be specified (they are assumed to have occurred in the same order they are provided) with multiple uses of arg.">
<polygon fill="#ffcc66" stroke="none" points="293,-45.5 293,-66.5 452,-66.5 452,-45.5 293,-45.5"/>
<polygon fill="none" stroke="black" points="293,-45.5 293,-66.5 452,-66.5 452,-45.5 293,-45.5"/>
<text text-anchor="start" x="314" y="-52.3" font-family="Times,serif" font-size="14.00">[STRING] arg (0..*) </text>
</a>
</g>
<g id="a_node4_19"><a xlink:href="/idmef_parser/IDMEF/Process.html" xlink:title="An environment string associated with the process; generally of the format &quot;VARIABLE=value&quot;. &#160;Multiple environment strings may be specified with multiple uses of env.">
<polygon fill="#ffcc66" stroke="none" points="293,-24.5 293,-45.5 452,-45.5 452,-24.5 293,-24.5"/>
<polygon fill="none" stroke="black" points="293,-24.5 293,-45.5 452,-45.5 452,-24.5 293,-24.5"/>
<text text-anchor="start" x="313" y="-31.3" font-family="Times,serif" font-size="14.00">[STRING] env (0..*) </text>
</a>
</g>
<g id="a_node4_20"><a xlink:href="/idmef_parser/IDMEF/Process.html" xlink:title="A unique identifier for the process; see Section 3.2.9.">
<polygon fill="#ffcc66" stroke="none" points="293,-3.5 293,-24.5 452,-24.5 452,-3.5 293,-3.5"/>
<polygon fill="none" stroke="black" points="293,-3.5 293,-24.5 452,-24.5 452,-3.5 293,-3.5"/>
<text text-anchor="start" x="296" y="-10.3" font-family="Times,serif" font-size="14.00">[STRING] ident (Optional) </text>
</a>
</g>
</g>
<!-- Analyzer&#45;&gt;Process -->
<g id="edge3" class="edge"><title>Analyzer&#45;&gt;Process</title>
<path fill="none" stroke="black" d="M221.175,-104.636C238.751,-101.453 256.831,-98.178 274.082,-95.0535"/>
<polygon fill="black" stroke="black" points="274.917,-98.4593 284.134,-93.233 273.67,-91.5713 274.917,-98.4593"/>
<text text-anchor="middle" x="250" y="-105.3" font-family="Times,serif" font-size="14.00">0..1</text>
</g>
<!-- Address -->
<g id="node3" class="node"><title>Address</title>
<g id="a_node3_21"><a xlink:href="/idmef_parser/IDMEF/Address.html" xlink:title="The Address class is used to represent network, hardware, and application addresses. ">
<polygon fill="#007a00" stroke="none" points="531.5,-281.5 531.5,-302.5 724.5,-302.5 724.5,-281.5 531.5,-281.5"/>
<polygon fill="none" stroke="black" points="531.5,-281.5 531.5,-302.5 724.5,-302.5 724.5,-281.5 531.5,-281.5"/>
<text text-anchor="start" x="605.5" y="-288.3" font-family="Times,serif" font-size="14.00">Address</text>
</a>
</g>
<g id="a_node3_22"><a xlink:href="/idmef_parser/IDMEF/Address.html" xlink:title="The address information. &#160;The format of this data is governed by the category attribute.">
<polygon fill="#00cc00" stroke="none" points="531.5,-260.5 531.5,-281.5 724.5,-281.5 724.5,-260.5 531.5,-260.5"/>
<polygon fill="none" stroke="black" points="531.5,-260.5 531.5,-281.5 724.5,-281.5 724.5,-260.5 531.5,-260.5"/>
<text text-anchor="start" x="565" y="-267.3" font-family="Times,serif" font-size="14.00">[STRING] address (1) </text>
</a>
</g>
<g id="a_node3_23"><a xlink:href="/idmef_parser/IDMEF/Address.html" xlink:title="The network mask for the address, if appropriate.">
<polygon fill="#00cc00" stroke="none" points="531.5,-239.5 531.5,-260.5 724.5,-260.5 724.5,-239.5 531.5,-239.5"/>
<polygon fill="none" stroke="black" points="531.5,-239.5 531.5,-260.5 724.5,-260.5 724.5,-239.5 531.5,-239.5"/>
<text text-anchor="start" x="555.5" y="-246.3" font-family="Times,serif" font-size="14.00">[STRING] netmask (0..1) </text>
</a>
</g>
<g id="a_node3_24"><a xlink:href="/idmef_parser/IDMEF/Address.html" xlink:title="A unique identifier for the address; see Section 3.2.9.">
<polygon fill="#00cc00" stroke="none" points="531.5,-218.5 531.5,-239.5 724.5,-239.5 724.5,-218.5 531.5,-218.5"/>
<polygon fill="none" stroke="black" points="531.5,-218.5 531.5,-239.5 724.5,-239.5 724.5,-218.5 531.5,-218.5"/>
<text text-anchor="start" x="551.5" y="-225.3" font-family="Times,serif" font-size="14.00">[STRING] ident (Optional) </text>
</a>
</g>
<g id="a_node3_25"><a xlink:href="/idmef_parser/IDMEF/Address.html" xlink:title="The type of address represented. &#160;The permitted values for this attribute are shown below. &#160;The default value is &quot;unknown&quot;. &#160;(See also Section 10.)">
<polygon fill="#00cc00" stroke="none" points="531.5,-197.5 531.5,-218.5 724.5,-218.5 724.5,-197.5 531.5,-197.5"/>
<polygon fill="none" stroke="black" points="531.5,-197.5 531.5,-218.5 724.5,-218.5 724.5,-197.5 531.5,-197.5"/>
<text text-anchor="start" x="546" y="-204.3" font-family="Times,serif" font-size="14.00">[ENUM] category (Optional) </text>
</a>
</g>
<g id="a_node3_26"><a xlink:href="/idmef_parser/IDMEF/Address.html" xlink:title="The name of the Virtual LAN to which the address belongs.">
<polygon fill="#00cc00" stroke="none" points="531.5,-176.5 531.5,-197.5 724.5,-197.5 724.5,-176.5 531.5,-176.5"/>
<polygon fill="none" stroke="black" points="531.5,-176.5 531.5,-197.5 724.5,-197.5 724.5,-176.5 531.5,-176.5"/>
<text text-anchor="start" x="536" y="-183.3" font-family="Times,serif" font-size="14.00">[STRING] vlan&#45;name (Optional) </text>
</a>
</g>
<g id="a_node3_27"><a xlink:href="/idmef_parser/IDMEF/Address.html" xlink:title="The number of the Virtual LAN to which the address belongs.">
<polygon fill="#00cc00" stroke="none" points="531.5,-155.5 531.5,-176.5 724.5,-176.5 724.5,-155.5 531.5,-155.5"/>
<polygon fill="none" stroke="black" points="531.5,-155.5 531.5,-176.5 724.5,-176.5 724.5,-155.5 531.5,-155.5"/>
<text text-anchor="start" x="534.5" y="-162.3" font-family="Times,serif" font-size="14.00">[INTEGER] vlan&#45;num (Optional) </text>
</a>
</g>
</g>
<!-- Node&#45;&gt;Address -->
<g id="edge1" class="edge"><title>Node&#45;&gt;Address</title>
<path fill="none" stroke="black" d="M465.236,-229.5C480.565,-229.5 496.623,-229.5 512.416,-229.5"/>
<polygon fill="black" stroke="black" points="512.746,-233 522.746,-229.5 512.746,-226 512.746,-233"/>
<text text-anchor="middle" x="494" y="-233.3" font-family="Times,serif" font-size="14.00">0..*</text>
</g>
</g>
</svg>
