<?xml version="1.0" encoding="UTF-8" standalone="no"?>
<!DOCTYPE svg PUBLIC "-//W3C//DTD SVG 1.1//EN"
 "http://www.w3.org/Graphics/SVG/1.1/DTD/svg11.dtd">
<!-- Generated by graphviz version 2.38.0 (20140413.2041)
 -->
<!-- Title: Assessment Pages: 1 -->
<svg width="354pt" height="236pt"
 viewBox="0.00 0.00 354.00 236.00" xmlns="http://www.w3.org/2000/svg" xmlns:xlink="http://www.w3.org/1999/xlink">
<g id="graph0" class="graph" transform="scale(1 1) rotate(0) translate(4 232)">
<title>Assessment</title>
<polygon fill="white" stroke="none" points="-4,4 -4,-232 350,-232 350,4 -4,4"/>
<!-- Assessment -->
<g id="node1" class="node"><title>Assessment</title>
<g id="a_node1_0"><a xlink:href="/idmef_parser/IDMEF/Assessment.html" xlink:title="The Assessment class is used to provide the analyzer&#39;s assessment of an event &#45;&#45; its impact, actions taken in response, and confidence. ">
<polygon fill="#993016" stroke="none" points="8.5,-82 8.5,-103 79.5,-103 79.5,-82 8.5,-82"/>
<polygon fill="none" stroke="black" points="8.5,-82 8.5,-103 79.5,-103 79.5,-82 8.5,-82"/>
<text text-anchor="start" x="11.5" y="-88.8" font-family="Times,serif" font-size="14.00">Assessment</text>
</a>
</g>
</g>
<!-- Impact -->
<g id="node2" class="node"><title>Impact</title>
<g id="a_node2_1"><a xlink:href="/idmef_parser/IDMEF/Impact.html" xlink:title="The Impact class is used to provide the analyzer&#39;s assessment of the impact of the event on the target(s). It is represented in the IDMEF DTD as follows: ">
<polygon fill="#993016" stroke="none" points="153.5,-203 153.5,-224 338.5,-224 338.5,-203 153.5,-203"/>
<polygon fill="none" stroke="black" points="153.5,-203 153.5,-224 338.5,-224 338.5,-203 153.5,-203"/>
<text text-anchor="start" x="226.5" y="-209.8" font-family="Times,serif" font-size="14.00">Impact</text>
</a>
</g>
<g id="a_node2_2"><a xlink:href="/idmef_parser/IDMEF/Impact.html" xlink:title="Section 10.)">
<polygon fill="#ff5024" stroke="none" points="153.5,-182 153.5,-203 338.5,-203 338.5,-182 153.5,-182"/>
<polygon fill="none" stroke="black" points="153.5,-182 153.5,-203 338.5,-203 338.5,-182 153.5,-182"/>
<text text-anchor="start" x="166" y="-188.8" font-family="Times,serif" font-size="14.00">[ENUM] severity (Optional) </text>
</a>
</g>
<g id="a_node2_3"><a xlink:href="/idmef_parser/IDMEF/Impact.html" xlink:title="Section 10.)">
<polygon fill="#ff5024" stroke="none" points="153.5,-161 153.5,-182 338.5,-182 338.5,-161 153.5,-161"/>
<polygon fill="none" stroke="black" points="153.5,-161 153.5,-182 338.5,-182 338.5,-161 153.5,-161"/>
<text text-anchor="start" x="156.5" y="-167.8" font-family="Times,serif" font-size="14.00">[ENUM] completion (Optional) </text>
</a>
</g>
<g id="a_node2_4"><a xlink:href="/idmef_parser/IDMEF/Impact.html" xlink:title="value is &quot;other&quot;. &#160;(See also Section 10.)">
<polygon fill="#ff5024" stroke="none" points="153.5,-140 153.5,-161 338.5,-161 338.5,-140 153.5,-140"/>
<polygon fill="none" stroke="black" points="153.5,-140 153.5,-161 338.5,-161 338.5,-140 153.5,-140"/>
<text text-anchor="start" x="175.5" y="-146.8" font-family="Times,serif" font-size="14.00">[ENUM] type (Optional) </text>
</a>
</g>
</g>
<!-- Assessment&#45;&gt;Impact -->
<g id="edge1" class="edge"><title>Assessment&#45;&gt;Impact</title>
<path fill="none" stroke="black" d="M84.973,-111.01C99.8444,-117.628 117.477,-125.475 135.503,-133.497"/>
<polygon fill="black" stroke="black" points="134.394,-136.834 144.953,-137.702 137.24,-130.438 134.394,-136.834"/>
<text text-anchor="middle" x="116" y="-132.8" font-family="Times,serif" font-size="14.00">0..1</text>
</g>
<!-- Action -->
<g id="node3" class="node"><title>Action</title>
<g id="a_node3_5"><a xlink:href="/idmef_parser/IDMEF/Action.html" xlink:title="The Action class is used to describe any actions taken by the analyzer in response to the event. Is is represented in the IDMEF DTD as follows: ">
<polygon fill="#993016" stroke="none" points="184.5,-93 184.5,-114 307.5,-114 307.5,-93 184.5,-93"/>
<polygon fill="none" stroke="black" points="184.5,-93 184.5,-114 307.5,-114 307.5,-93 184.5,-93"/>
<text text-anchor="start" x="227.5" y="-99.8" font-family="Times,serif" font-size="14.00">Action</text>
</a>
</g>
<g id="a_node3_6"><a xlink:href="/idmef_parser/IDMEF/Action.html" xlink:title="The default value is &quot;other&quot;. &#160;(See also Section 10.)">
<polygon fill="#ff5024" stroke="none" points="184.5,-72 184.5,-93 307.5,-93 307.5,-72 184.5,-72"/>
<polygon fill="none" stroke="black" points="184.5,-72 184.5,-93 307.5,-93 307.5,-72 184.5,-72"/>
<text text-anchor="start" x="187.5" y="-78.8" font-family="Times,serif" font-size="14.00">[ENUM] category () </text>
</a>
</g>
</g>
<!-- Assessment&#45;&gt;Action -->
<g id="edge2" class="edge"><title>Assessment&#45;&gt;Action</title>
<path fill="none" stroke="black" d="M87.405,-93C110.203,-93 138.955,-93 165.61,-93"/>
<polygon fill="black" stroke="black" points="165.706,-96.5001 175.706,-93 165.706,-89.5001 165.706,-96.5001"/>
<text text-anchor="middle" x="116" y="-96.8" font-family="Times,serif" font-size="14.00">0..*</text>
</g>
<!-- Confidence -->
<g id="node4" class="node"><title>Confidence</title>
<g id="a_node4_7"><a xlink:href="/idmef_parser/IDMEF/Confidence.html" xlink:title="The Confidence class is used to represent the analyzer&#39;s best estimate of the validity of its analysis. It is represented in the IDMEF DTD as follows: ">
<polygon fill="#993016" stroke="none" points="191.5,-25 191.5,-46 299.5,-46 299.5,-25 191.5,-25"/>
<polygon fill="none" stroke="black" points="191.5,-25 191.5,-46 299.5,-46 299.5,-25 191.5,-25"/>
<text text-anchor="start" x="214" y="-31.8" font-family="Times,serif" font-size="14.00">Confidence</text>
</a>
</g>
<g id="a_node4_8"><a xlink:href="/idmef_parser/IDMEF/Confidence.html" xlink:title="also Section 10.)">
<polygon fill="#ff5024" stroke="none" points="191.5,-4 191.5,-25 299.5,-25 299.5,-4 191.5,-4"/>
<polygon fill="none" stroke="black" points="191.5,-4 191.5,-25 299.5,-25 299.5,-4 191.5,-4"/>
<text text-anchor="start" x="194.5" y="-10.8" font-family="Times,serif" font-size="14.00">[ENUM] rating () </text>
</a>
</g>
</g>
<!-- Assessment&#45;&gt;Confidence -->
<g id="edge3" class="edge"><title>Assessment&#45;&gt;Confidence</title>
<path fill="none" stroke="black" d="M87.405,-78.4123C112.567,-69.8574 144.981,-58.8365 173.824,-49.0297"/>
<polygon fill="black" stroke="black" points="175.112,-52.2886 183.453,-45.7558 172.859,-45.6612 175.112,-52.2886"/>
<text text-anchor="middle" x="116" y="-74.8" font-family="Times,serif" font-size="14.00">0..1</text>
</g>
</g>
</svg>
