<?xml version="1.0" encoding="UTF-8" standalone="no"?>
<!DOCTYPE svg PUBLIC "-//W3C//DTD SVG 1.1//EN"
 "http://www.w3.org/Graphics/SVG/1.1/DTD/svg11.dtd">
<!-- Generated by graphviz version 2.26.3 (20100126.1600)
 -->
<!-- Title: Classification Pages: 1 -->
<svg width="506pt" height="116pt"
 viewBox="0.00 0.00 506.00 116.00" xmlns="http://www.w3.org/2000/svg" xmlns:xlink="http://www.w3.org/1999/xlink">
<g id="graph1" class="graph" transform="scale(1 1) rotate(0) translate(4 112)">
<title>Classification</title>
<polygon fill="white" stroke="white" points="-4,5 -4,-112 503,-112 503,5 -4,5"/>
<!-- Classification -->
<g id="node1" class="node"><title>Classification</title>
<a xlink:href="/idmef_parser/IDMEF/Classification.html" xlink:title="The Classification class provides the &quot;name&quot; of an alert, or other information allowing the manager to determine what it is. This name is chosen by the alert provider. ">
<polygon fill="#5c3d1f" stroke="#5c3d1f" points="8,-63 8,-84 198,-84 198,-63 8,-63"/>
<polygon fill="none" stroke="black" points="8,-63 8,-84 198,-84 198,-63 8,-63"/>
<text text-anchor="start" x="58" y="-70.2333" font-family="Times Roman,serif" font-size="14.00">Classification</text>
</a>
<a xlink:href="/idmef_parser/IDMEF/Classification.html" xlink:title="A unique identifier for this classification; see Section 3.2.9.">
<polygon fill="#996633" stroke="#996633" points="8,-43 8,-63 198,-63 198,-43 8,-43"/>
<polygon fill="none" stroke="black" points="8,-43 8,-63 198,-63 198,-43 8,-43"/>
<text text-anchor="start" x="11.5" y="-49.7333" font-family="Times Roman,serif" font-size="14.00">[STRING] ident (Optional) </text>
</a>
<a xlink:href="/idmef_parser/IDMEF/Classification.html" xlink:title="A vendor&#45;provided string identifying the Alert message.">
<polygon fill="#996633" stroke="#996633" points="8,-23 8,-43 198,-43 198,-23 8,-23"/>
<polygon fill="none" stroke="black" points="8,-23 8,-43 198,-43 198,-23 8,-23"/>
<text text-anchor="start" x="14" y="-29.7333" font-family="Times Roman,serif" font-size="14.00">[STRING] text (Required) </text>
</a>
</g>
<!-- Reference -->
<g id="node2" class="node"><title>Reference</title>
<a xlink:href="/idmef_parser/IDMEF/Reference.html" xlink:title="The Reference class provides the &quot;name&quot; of an alert, or other information allowing the manager to determine what it is. ">
<polygon fill="#5c3d1f" stroke="#5c3d1f" points="276,-83 276,-104 490,-104 490,-83 276,-83"/>
<polygon fill="none" stroke="black" points="276,-83 276,-104 490,-104 490,-83 276,-83"/>
<text text-anchor="start" x="348.5" y="-90.2333" font-family="Times Roman,serif" font-size="14.00">Reference</text>
</a>
<a xlink:href="/idmef_parser/IDMEF/Reference.html" xlink:title="The name of the alert, from one of the origins listed below.">
<polygon fill="#996633" stroke="#996633" points="276,-63 276,-83 490,-83 490,-63 276,-63"/>
<polygon fill="none" stroke="black" points="276,-63 276,-83 490,-83 490,-63 276,-63"/>
<text text-anchor="start" x="315" y="-69.7333" font-family="Times Roman,serif" font-size="14.00">[STRING] name (1) </text>
</a>
<a xlink:href="/idmef_parser/IDMEF/Reference.html" xlink:title="A URL at which the manager (or the human operator of the manager) can find additional information about the alert. &#160;The document pointed to by the URL may include an in&#45;depth description of the attack, appropriate countermeasures, or other information deemed relevant by the vendor.">
<polygon fill="#996633" stroke="#996633" points="276,-43 276,-63 490,-63 490,-43 276,-43"/>
<polygon fill="none" stroke="black" points="276,-43 276,-63 490,-63 490,-43 276,-43"/>
<text text-anchor="start" x="324.5" y="-49.7333" font-family="Times Roman,serif" font-size="14.00">[STRING] url (1) </text>
</a>
<a xlink:href="/idmef_parser/IDMEF/Reference.html" xlink:title="The source from which the name of the alert originates. The permitted values for this attribute are shown below. &#160;The default value is &quot;unknown&quot;. &#160;(See also Section 10.)">
<polygon fill="#996633" stroke="#996633" points="276,-23 276,-43 490,-43 490,-23 276,-23"/>
<polygon fill="none" stroke="black" points="276,-23 276,-43 490,-43 490,-23 276,-23"/>
<text text-anchor="start" x="294.5" y="-29.7333" font-family="Times Roman,serif" font-size="14.00">[ENUM] origin (Required) </text>
</a>
<a xlink:href="/idmef_parser/IDMEF/Reference.html" xlink:title="The meaning of the reference, as understood by the alert provider. &#160;This field is only valid if the value of the &lt;origin&gt; attribute is set to &quot;vendor&#45;specific&quot; or &quot;user&#45;specific&quot;.">
<polygon fill="#996633" stroke="#996633" points="276,-3 276,-23 490,-23 490,-3 276,-3"/>
<polygon fill="none" stroke="black" points="276,-3 276,-23 490,-23 490,-3 276,-3"/>
<text text-anchor="start" x="279.5" y="-9.73333" font-family="Times Roman,serif" font-size="14.00">[STRING] meaning (Optional) </text>
</a>
</g>
<!-- Classification&#45;&gt;Reference -->
<g id="edge2" class="edge"><title>Classification&#45;&gt;Reference</title>
<path fill="none" stroke="black" d="M206.069,-54C222.884,-54 240.464,-54 257.742,-54"/>
<polygon fill="black" stroke="black" points="257.872,-57.5001 267.872,-54 257.872,-50.5001 257.872,-57.5001"/>
<text text-anchor="middle" x="237" y="-58.4" font-family="Times Roman,serif" font-size="14.00">0..*</text>
</g>
</g>
</svg>
