<?xml version="1.0" encoding="UTF-8" standalone="no"?>
<!DOCTYPE svg PUBLIC "-//W3C//DTD SVG 1.1//EN"
 "http://www.w3.org/Graphics/SVG/1.1/DTD/svg11.dtd">
<!-- Generated by graphviz version 2.38.0 (20140413.2041)
 -->
<!-- Title: FileAccess Pages: 1 -->
<svg width="400pt" height="142pt"
 viewBox="0.00 0.00 400.00 142.00" xmlns="http://www.w3.org/2000/svg" xmlns:xlink="http://www.w3.org/1999/xlink">
<g id="graph0" class="graph" transform="scale(1 1) rotate(0) translate(4 138)">
<title>FileAccess</title>
<polygon fill="white" stroke="none" points="-4,4 -4,-138 396,-138 396,4 -4,4"/>
<!-- FileAccess -->
<g id="node1" class="node"><title>FileAccess</title>
<g id="a_node1_0"><a xlink:href="/idmef_parser/IDMEF/FileAccess.html" xlink:title="The FileAccess class represents the access permissions on a file. The representation is intended to be useful across operating systems. ">
<polygon fill="#997a00" stroke="none" points="8,-67 8,-88 166,-88 166,-67 8,-67"/>
<polygon fill="none" stroke="black" points="8,-67 8,-88 166,-88 166,-67 8,-67"/>
<text text-anchor="start" x="57" y="-73.8" font-family="Times,serif" font-size="14.00">FileAccess</text>
</a>
</g>
<g id="a_node1_1"><a xlink:href="/idmef_parser/IDMEF/FileAccess.html" xlink:title="Level of access allowed. &#160;The permitted values are shown below. &#160;There is no default value. &#160;(See also Section 10.)">
<polygon fill="#ffcc00" stroke="none" points="8,-46 8,-67 166,-67 166,-46 8,-46"/>
<polygon fill="none" stroke="black" points="8,-46 8,-67 166,-67 166,-46 8,-46"/>
<text text-anchor="start" x="11" y="-52.8" font-family="Times,serif" font-size="14.00">[ENUM] Permission (1..*) </text>
</a>
</g>
</g>
<!-- UserId -->
<g id="node2" class="node"><title>UserId</title>
<g id="a_node2_2"><a xlink:href="/idmef_parser/IDMEF/UserId.html" xlink:title="The UserId class provides specific information about a user. More than one UserId can be used within the User class to indicate attempts to transition from one user to another, or to provide complete information about a user&#39;s (or process&#39;) privileges. ">
<polygon fill="#3d7a99" stroke="none" points="225.5,-109 225.5,-130 384.5,-130 384.5,-109 225.5,-109"/>
<polygon fill="none" stroke="black" points="225.5,-109 225.5,-130 384.5,-130 384.5,-109 225.5,-109"/>
<text text-anchor="start" x="286.5" y="-115.8" font-family="Times,serif" font-size="14.00">UserId</text>
</a>
</g>
<g id="a_node2_3"><a xlink:href="/idmef_parser/IDMEF/UserId.html" xlink:title="A user or group name.">
<polygon fill="#66ccff" stroke="none" points="225.5,-88 225.5,-109 384.5,-109 384.5,-88 225.5,-88"/>
<polygon fill="none" stroke="black" points="225.5,-88 225.5,-109 384.5,-109 384.5,-88 225.5,-88"/>
<text text-anchor="start" x="240" y="-94.8" font-family="Times,serif" font-size="14.00">[STRING] name (0..1) </text>
</a>
</g>
<g id="a_node2_4"><a xlink:href="/idmef_parser/IDMEF/UserId.html" xlink:title="A user or group number.">
<polygon fill="#66ccff" stroke="none" points="225.5,-67 225.5,-88 384.5,-88 384.5,-67 225.5,-67"/>
<polygon fill="none" stroke="black" points="225.5,-67 225.5,-88 384.5,-88 384.5,-67 225.5,-67"/>
<text text-anchor="start" x="229.5" y="-73.8" font-family="Times,serif" font-size="14.00">[INTEGER] number (0..1) </text>
</a>
</g>
<g id="a_node2_5"><a xlink:href="/idmef_parser/IDMEF/UserId.html" xlink:title="A unique identifier for the user id, see Section 3.2.9.">
<polygon fill="#66ccff" stroke="none" points="225.5,-46 225.5,-67 384.5,-67 384.5,-46 225.5,-46"/>
<polygon fill="none" stroke="black" points="225.5,-46 225.5,-67 384.5,-67 384.5,-46 225.5,-46"/>
<text text-anchor="start" x="228.5" y="-52.8" font-family="Times,serif" font-size="14.00">[STRING] ident (Optional) </text>
</a>
</g>
<g id="a_node2_6"><a xlink:href="/idmef_parser/IDMEF/UserId.html" xlink:title="The type of user information represented. &#160;The permitted values for this attribute are shown below. &#160;The default value is &quot;original&#45;user&quot;. &#160;(See also Section 10.)">
<polygon fill="#66ccff" stroke="none" points="225.5,-25 225.5,-46 384.5,-46 384.5,-25 225.5,-25"/>
<polygon fill="none" stroke="black" points="225.5,-25 225.5,-46 384.5,-46 384.5,-25 225.5,-25"/>
<text text-anchor="start" x="234.5" y="-31.8" font-family="Times,serif" font-size="14.00">[ENUM] type (Optional) </text>
</a>
</g>
<g id="a_node2_7"><a xlink:href="/idmef_parser/IDMEF/UserId.html" xlink:title="The tty the user is using.">
<polygon fill="#66ccff" stroke="none" points="225.5,-4 225.5,-25 384.5,-25 384.5,-4 225.5,-4"/>
<polygon fill="none" stroke="black" points="225.5,-4 225.5,-25 384.5,-25 384.5,-4 225.5,-4"/>
<text text-anchor="start" x="235" y="-10.8" font-family="Times,serif" font-size="14.00">[STRING] tty (Optional) </text>
</a>
</g>
</g>
<!-- FileAccess&#45;&gt;UserId -->
<g id="edge1" class="edge"><title>FileAccess&#45;&gt;UserId</title>
<path fill="none" stroke="black" d="M174.1,-67C184.762,-67 195.718,-67 206.528,-67"/>
<polygon fill="black" stroke="black" points="206.833,-70.5001 216.833,-67 206.833,-63.5001 206.833,-70.5001"/>
<text text-anchor="middle" x="195.5" y="-70.8" font-family="Times,serif" font-size="14.00">1</text>
</g>
</g>
</svg>
