<?xml version="1.0" encoding="UTF-8" standalone="no"?>
<!DOCTYPE svg PUBLIC "-//W3C//DTD SVG 1.1//EN"
 "http://www.w3.org/Graphics/SVG/1.1/DTD/svg11.dtd">
<!-- Generated by graphviz version 2.38.0 (20140413.2041)
 -->
<!-- Title: File Pages: 1 -->
<svg width="710pt" height="494pt"
 viewBox="0.00 0.00 710.00 494.00" xmlns="http://www.w3.org/2000/svg" xmlns:xlink="http://www.w3.org/1999/xlink">
<g id="graph0" class="graph" transform="scale(1 1) rotate(0) translate(4 490)">
<title>File</title>
<polygon fill="white" stroke="none" points="-4,4 -4,-490 706,-490 706,4 -4,4"/>
<!-- File -->
<g id="node1" class="node"><title>File</title>
<g id="a_node1_0"><a xlink:href="/idmef_parser/IDMEF/File.html" xlink:title="The File class provides specific information about a file or other file&#45;like object that has been created, deleted, or modified on the target. The description can provide either the file settings prior to the event or the file settings at the time of the event, as specified using the &quot;category&quot; attribute. ">
<polygon fill="#997a00" stroke="none" points="8,-386 8,-407 204,-407 204,-386 8,-386"/>
<polygon fill="none" stroke="black" points="8,-386 8,-407 204,-407 204,-386 8,-386"/>
<text text-anchor="start" x="95" y="-392.8" font-family="Times,serif" font-size="14.00">File</text>
</a>
</g>
<g id="a_node1_1"><a xlink:href="/idmef_parser/IDMEF/File.html" xlink:title="The name of the file to which the alert applies, not including the path to the file.">
<polygon fill="#ffcc00" stroke="none" points="8,-365 8,-386 204,-386 204,-365 8,-365"/>
<polygon fill="none" stroke="black" points="8,-365 8,-386 204,-386 204,-365 8,-365"/>
<text text-anchor="start" x="48.5" y="-371.8" font-family="Times,serif" font-size="14.00">[STRING] name (1) </text>
</a>
</g>
<g id="a_node1_2"><a xlink:href="/idmef_parser/IDMEF/File.html" xlink:title="The full path to the file, including the name. &#160;The path name should be represented in as &quot;universal&quot; a manner as possible, to facilitate processing of the alert.">
<polygon fill="#ffcc00" stroke="none" points="8,-344 8,-365 204,-365 204,-344 8,-344"/>
<polygon fill="none" stroke="black" points="8,-344 8,-365 204,-365 204,-344 8,-344"/>
<text text-anchor="start" x="51.5" y="-350.8" font-family="Times,serif" font-size="14.00">[STRING] path (1) </text>
</a>
</g>
<g id="a_node1_3"><a xlink:href="/idmef_parser/IDMEF/File.html" xlink:title="Time the file was created. &#160;Note that this is *not* the Unix &quot;st_ctime&quot; file attribute (which is not file creation time). &#160;The Unix &quot;st_ctime&quot; attribute is contained in the &quot;Inode&quot; class.">
<polygon fill="#ffcc00" stroke="none" points="8,-323 8,-344 204,-344 204,-323 8,-323"/>
<polygon fill="none" stroke="black" points="8,-323 8,-344 204,-344 204,-323 8,-323"/>
<text text-anchor="start" x="15" y="-329.8" font-family="Times,serif" font-size="14.00">[DATETIME] create&#45;time (0..1) </text>
</a>
</g>
<g id="a_node1_4"><a xlink:href="/idmef_parser/IDMEF/File.html" xlink:title="Time the file was last modified.">
<polygon fill="#ffcc00" stroke="none" points="8,-302 8,-323 204,-323 204,-302 8,-302"/>
<polygon fill="none" stroke="black" points="8,-302 8,-323 204,-323 204,-302 8,-302"/>
<text text-anchor="start" x="11" y="-308.8" font-family="Times,serif" font-size="14.00">[DATETIME] modify&#45;time (0..1) </text>
</a>
</g>
<g id="a_node1_5"><a xlink:href="/idmef_parser/IDMEF/File.html" xlink:title="Time the file was last accessed.">
<polygon fill="#ffcc00" stroke="none" points="8,-281 8,-302 204,-302 204,-281 8,-281"/>
<polygon fill="none" stroke="black" points="8,-281 8,-302 204,-302 204,-281 8,-281"/>
<text text-anchor="start" x="14" y="-287.8" font-family="Times,serif" font-size="14.00">[DATETIME] access&#45;time (0..1) </text>
</a>
</g>
<g id="a_node1_6"><a xlink:href="/idmef_parser/IDMEF/File.html" xlink:title="The size of the data, in bytes. &#160;Typically what is meant when referring to file size. &#160;On Unix UFS file systems, this value corresponds to stat.st_size. &#160;On Windows NTFS, this value corresponds to Valid Data Length (VDL).">
<polygon fill="#ffcc00" stroke="none" points="8,-260 8,-281 204,-281 204,-260 8,-260"/>
<polygon fill="none" stroke="black" points="8,-260 8,-281 204,-281 204,-260 8,-260"/>
<text text-anchor="start" x="27.5" y="-266.8" font-family="Times,serif" font-size="14.00">[INTEGER] data&#45;size (0..1) </text>
</a>
</g>
<g id="a_node1_7"><a xlink:href="/idmef_parser/IDMEF/File.html" xlink:title="The physical space on disk consumed by the file, in bytes. &#160;On Unix UFS file systems, this value corresponds to 512 * stat.st_blocks. &#160;On Windows NTFS, this value corresponds to End of File (EOF).">
<polygon fill="#ffcc00" stroke="none" points="8,-239 8,-260 204,-260 204,-239 8,-239"/>
<polygon fill="none" stroke="black" points="8,-239 8,-260 204,-260 204,-239 8,-239"/>
<text text-anchor="start" x="27.5" y="-245.8" font-family="Times,serif" font-size="14.00">[INTEGER] disk&#45;size (0..1) </text>
</a>
</g>
<g id="a_node1_8"><a xlink:href="/idmef_parser/IDMEF/File.html" xlink:title="A unique identifier for this file; see Section 3.2.9.">
<polygon fill="#ffcc00" stroke="none" points="8,-218 8,-239 204,-239 204,-218 8,-218"/>
<polygon fill="none" stroke="black" points="8,-218 8,-239 204,-239 204,-218 8,-218"/>
<text text-anchor="start" x="42.5" y="-224.8" font-family="Times,serif" font-size="14.00">[STRING] ident (0..1) </text>
</a>
</g>
<g id="a_node1_9"><a xlink:href="/idmef_parser/IDMEF/File.html" xlink:title="The type of file system the file resides on. &#160;This attribute governs how path names and other attributes are interpreted.">
<polygon fill="#ffcc00" stroke="none" points="8,-197 8,-218 204,-218 204,-197 8,-197"/>
<polygon fill="none" stroke="black" points="8,-197 8,-218 204,-218 204,-197 8,-197"/>
<text text-anchor="start" x="37" y="-203.8" font-family="Times,serif" font-size="14.00">[ENUM] category (0..1) </text>
</a>
</g>
<g id="a_node1_10"><a xlink:href="/idmef_parser/IDMEF/File.html" xlink:title="The type of file, as a mime&#45;type.">
<polygon fill="#ffcc00" stroke="none" points="8,-176 8,-197 204,-197 204,-176 8,-176"/>
<polygon fill="none" stroke="black" points="8,-176 8,-197 204,-197 204,-176 8,-176"/>
<text text-anchor="start" x="33.5" y="-182.8" font-family="Times,serif" font-size="14.00">[STRING] file&#45;type (0..1) </text>
</a>
</g>
</g>
<!-- FileAccess -->
<g id="node2" class="node"><title>FileAccess</title>
<g id="a_node2_11"><a xlink:href="/idmef_parser/IDMEF/FileAccess.html" xlink:title="The FileAccess class represents the access permissions on a file. The representation is intended to be useful across operating systems. ">
<polygon fill="#997a00" stroke="none" points="298,-419 298,-440 456,-440 456,-419 298,-419"/>
<polygon fill="none" stroke="black" points="298,-419 298,-440 456,-440 456,-419 298,-419"/>
<text text-anchor="start" x="347" y="-425.8" font-family="Times,serif" font-size="14.00">FileAccess</text>
</a>
</g>
<g id="a_node2_12"><a xlink:href="/idmef_parser/IDMEF/FileAccess.html" xlink:title="Level of access allowed. &#160;The permitted values are shown below. &#160;There is no default value. &#160;(See also Section 10.)">
<polygon fill="#ffcc00" stroke="none" points="298,-398 298,-419 456,-419 456,-398 298,-398"/>
<polygon fill="none" stroke="black" points="298,-398 298,-419 456,-419 456,-398 298,-398"/>
<text text-anchor="start" x="301" y="-404.8" font-family="Times,serif" font-size="14.00">[ENUM] Permission (1..*) </text>
</a>
</g>
</g>
<!-- File&#45;&gt;FileAccess -->
<g id="edge2" class="edge"><title>File&#45;&gt;FileAccess</title>
<path fill="none" stroke="black" d="M212.323,-356.3C231.183,-366.593 250.914,-376.604 270,-385 274.142,-386.822 278.413,-388.595 282.755,-390.313"/>
<polygon fill="black" stroke="black" points="281.76,-393.68 292.35,-393.984 284.261,-387.142 281.76,-393.68"/>
<text text-anchor="middle" x="241" y="-380.8" font-family="Times,serif" font-size="14.00">0..*</text>
</g>
<!-- Linkage -->
<g id="node4" class="node"><title>Linkage</title>
<g id="a_node4_13"><a xlink:href="/idmef_parser/IDMEF/Linkage.html" xlink:title="The Linkage class represents file system connections between the file described in the &lt;File&gt; element and other objects in the file system. For example, if the &lt;File&gt; element is a symbolic link or shortcut, then the &lt;Linkage&gt; element should contain the name of the object the link points to. Further information can be provided about the object in the &lt;Linkage&gt; element with another &lt;File&gt; element, if appropriate. ">
<polygon fill="#997a00" stroke="none" points="292,-351 292,-372 462,-372 462,-351 292,-351"/>
<polygon fill="none" stroke="black" points="292,-351 292,-372 462,-372 462,-351 292,-351"/>
<text text-anchor="start" x="354.5" y="-357.8" font-family="Times,serif" font-size="14.00">Linkage</text>
</a>
</g>
<g id="a_node4_14"><a xlink:href="/idmef_parser/IDMEF/Linkage.html" xlink:title="The name of the file system object, not including the path.">
<polygon fill="#ffcc00" stroke="none" points="292,-330 292,-351 462,-351 462,-330 292,-330"/>
<polygon fill="none" stroke="black" points="292,-330 292,-351 462,-351 462,-330 292,-330"/>
<text text-anchor="start" x="319.5" y="-336.8" font-family="Times,serif" font-size="14.00">[STRING] name (1) </text>
</a>
</g>
<g id="a_node4_15"><a xlink:href="/idmef_parser/IDMEF/Linkage.html" xlink:title="The full path to the file system object, including the name. &#160;The path name should be represented in as &quot;universal&quot; a manner as possible, to facilitate processing of the alert.">
<polygon fill="#ffcc00" stroke="none" points="292,-309 292,-330 462,-330 462,-309 292,-309"/>
<polygon fill="none" stroke="black" points="292,-309 292,-330 462,-330 462,-309 292,-309"/>
<text text-anchor="start" x="322.5" y="-315.8" font-family="Times,serif" font-size="14.00">[STRING] path (1) </text>
</a>
</g>
<g id="a_node4_16"><a xlink:href="/idmef_parser/IDMEF/Linkage.html" xlink:title="Section 10.)">
<polygon fill="#ffcc00" stroke="none" points="292,-288 292,-309 462,-309 462,-288 292,-288"/>
<polygon fill="none" stroke="black" points="292,-288 292,-309 462,-309 462,-288 292,-288"/>
<text text-anchor="start" x="295" y="-294.8" font-family="Times,serif" font-size="14.00">[ENUM] category (Optional) </text>
</a>
</g>
</g>
<!-- File&#45;&gt;Linkage -->
<g id="edge4" class="edge"><title>File&#45;&gt;Linkage</title>
<path fill="none" stroke="black" d="M212.158,-306.855C232.328,-309.704 253.422,-312.684 273.506,-315.521"/>
<polygon fill="black" stroke="black" points="273.199,-319.013 283.59,-316.946 274.178,-312.081 273.199,-319.013"/>
<text text-anchor="middle" x="241" y="-316.8" font-family="Times,serif" font-size="14.00">0..*</text>
</g>
<!-- Inode -->
<g id="node5" class="node"><title>Inode</title>
<g id="a_node5_17"><a xlink:href="/idmef_parser/IDMEF/Inode.html" xlink:title="The Inode class is used to represent the additional information contained in a Unix file system i&#45;node. ">
<polygon fill="#997a00" stroke="none" points="278,-240 278,-261 476,-261 476,-240 278,-240"/>
<polygon fill="none" stroke="black" points="278,-240 278,-261 476,-261 476,-240 278,-240"/>
<text text-anchor="start" x="361.5" y="-246.8" font-family="Times,serif" font-size="14.00">Inode</text>
</a>
</g>
<g id="a_node5_18"><a xlink:href="/idmef_parser/IDMEF/Inode.html" xlink:title="The time of the last inode change, given by the st_ctime element of &quot;struct stat&quot;.">
<polygon fill="#ffcc00" stroke="none" points="278,-219 278,-240 476,-240 476,-219 278,-219"/>
<polygon fill="none" stroke="black" points="278,-219 278,-240 476,-240 476,-219 278,-219"/>
<text text-anchor="start" x="283" y="-225.8" font-family="Times,serif" font-size="14.00">[DATETIME] change&#45;time (0..1) </text>
</a>
</g>
<g id="a_node5_19"><a xlink:href="/idmef_parser/IDMEF/Inode.html" xlink:title="The inode number.">
<polygon fill="#ffcc00" stroke="none" points="278,-198 278,-219 476,-219 476,-198 278,-198"/>
<polygon fill="none" stroke="black" points="278,-198 278,-219 476,-219 476,-198 278,-198"/>
<text text-anchor="start" x="301.5" y="-204.8" font-family="Times,serif" font-size="14.00">[INTEGER] number (0..1) </text>
</a>
</g>
<g id="a_node5_20"><a xlink:href="/idmef_parser/IDMEF/Inode.html" xlink:title="The major device number of the device the file resides on.">
<polygon fill="#ffcc00" stroke="none" points="278,-177 278,-198 476,-198 476,-177 278,-177"/>
<polygon fill="none" stroke="black" points="278,-177 278,-198 476,-198 476,-177 278,-177"/>
<text text-anchor="start" x="286.5" y="-183.8" font-family="Times,serif" font-size="14.00">[INTEGER] major&#45;device (0..1) </text>
</a>
</g>
<g id="a_node5_21"><a xlink:href="/idmef_parser/IDMEF/Inode.html" xlink:title="The minor device number of the device the file resides on.">
<polygon fill="#ffcc00" stroke="none" points="278,-156 278,-177 476,-177 476,-156 278,-156"/>
<polygon fill="none" stroke="black" points="278,-156 278,-177 476,-177 476,-156 278,-156"/>
<text text-anchor="start" x="286.5" y="-162.8" font-family="Times,serif" font-size="14.00">[INTEGER] minor&#45;device (0..1) </text>
</a>
</g>
<g id="a_node5_22"><a xlink:href="/idmef_parser/IDMEF/Inode.html" xlink:title="The major device of the file itself, if it is a character special device.">
<polygon fill="#ffcc00" stroke="none" points="278,-135 278,-156 476,-156 476,-135 278,-135"/>
<polygon fill="none" stroke="black" points="278,-135 278,-156 476,-156 476,-135 278,-135"/>
<text text-anchor="start" x="281.5" y="-141.8" font-family="Times,serif" font-size="14.00">[INTEGER] c&#45;major&#45;device (0..1) </text>
</a>
</g>
<g id="a_node5_23"><a xlink:href="/idmef_parser/IDMEF/Inode.html" xlink:title="The minor device of the file itself, if it is a character special device.">
<polygon fill="#ffcc00" stroke="none" points="278,-114 278,-135 476,-135 476,-114 278,-114"/>
<polygon fill="none" stroke="black" points="278,-114 278,-135 476,-135 476,-114 278,-114"/>
<text text-anchor="start" x="281" y="-120.8" font-family="Times,serif" font-size="14.00">[INTEGER] c&#45;minor&#45;device (0..1) </text>
</a>
</g>
</g>
<!-- File&#45;&gt;Inode -->
<g id="edge5" class="edge"><title>File&#45;&gt;Inode</title>
<path fill="none" stroke="black" d="M212.158,-251.344C227.925,-245.248 244.258,-238.934 260.231,-232.758"/>
<polygon fill="black" stroke="black" points="261.522,-236.012 269.588,-229.141 258.998,-229.482 261.522,-236.012"/>
<text text-anchor="middle" x="241" y="-247.8" font-family="Times,serif" font-size="14.00">0..1</text>
</g>
<!-- Checksum -->
<g id="node6" class="node"><title>Checksum</title>
<g id="a_node6_24"><a xlink:href="/idmef_parser/IDMEF/Checksum.html" xlink:title="The Checksum class represents checksum information associated with the file. This checksum information can be provided by file integrity checkers, among others. ">
<polygon fill="#997a00" stroke="none" points="288,-67 288,-88 467,-88 467,-67 288,-67"/>
<polygon fill="none" stroke="black" points="288,-67 288,-88 467,-88 467,-67 288,-67"/>
<text text-anchor="start" x="348.5" y="-73.8" font-family="Times,serif" font-size="14.00">Checksum</text>
</a>
</g>
<g id="a_node6_25"><a xlink:href="/idmef_parser/IDMEF/Checksum.html" xlink:title="The value of the checksum.">
<polygon fill="#ffcc00" stroke="none" points="288,-46 288,-67 467,-67 467,-46 288,-46"/>
<polygon fill="none" stroke="black" points="288,-46 288,-67 467,-67 467,-46 288,-46"/>
<text text-anchor="start" x="320" y="-52.8" font-family="Times,serif" font-size="14.00">[STRING] value (1) </text>
</a>
</g>
<g id="a_node6_26"><a xlink:href="/idmef_parser/IDMEF/Checksum.html" xlink:title="The key to the checksum, if appropriate.">
<polygon fill="#ffcc00" stroke="none" points="288,-25 288,-46 467,-46 467,-25 288,-25"/>
<polygon fill="none" stroke="black" points="288,-25 288,-46 467,-46 467,-25 288,-25"/>
<text text-anchor="start" x="318" y="-31.8" font-family="Times,serif" font-size="14.00">[STRING] key (0..1) </text>
</a>
</g>
<g id="a_node6_27"><a xlink:href="/idmef_parser/IDMEF/Checksum.html" xlink:title="default value. &#160;(See also Section 10.)">
<polygon fill="#ffcc00" stroke="none" points="288,-4 288,-25 467,-25 467,-4 288,-4"/>
<polygon fill="none" stroke="black" points="288,-4 288,-25 467,-25 467,-4 288,-4"/>
<text text-anchor="start" x="291" y="-10.8" font-family="Times,serif" font-size="14.00">[ENUM] algorithm (Required) </text>
</a>
</g>
</g>
<!-- File&#45;&gt;Checksum -->
<g id="edge6" class="edge"><title>File&#45;&gt;Checksum</title>
<path fill="none" stroke="black" d="M196.961,-172.077C219.158,-146.82 244.062,-121.612 270,-101 271.339,-99.9359 272.702,-98.8832 274.086,-97.8424"/>
<polygon fill="black" stroke="black" points="276.13,-100.684 282.218,-92.0131 272.052,-94.9941 276.13,-100.684"/>
<text text-anchor="middle" x="241" y="-136.8" font-family="Times,serif" font-size="14.00">0..*</text>
</g>
<!-- UserId -->
<g id="node3" class="node"><title>UserId</title>
<g id="a_node3_28"><a xlink:href="/idmef_parser/IDMEF/UserId.html" xlink:title="The UserId class provides specific information about a user. More than one UserId can be used within the User class to indicate attempts to transition from one user to another, or to provide complete information about a user&#39;s (or process&#39;) privileges. ">
<polygon fill="#3d7a99" stroke="none" points="535.5,-461 535.5,-482 694.5,-482 694.5,-461 535.5,-461"/>
<polygon fill="none" stroke="black" points="535.5,-461 535.5,-482 694.5,-482 694.5,-461 535.5,-461"/>
<text text-anchor="start" x="596.5" y="-467.8" font-family="Times,serif" font-size="14.00">UserId</text>
</a>
</g>
<g id="a_node3_29"><a xlink:href="/idmef_parser/IDMEF/UserId.html" xlink:title="A user or group name.">
<polygon fill="#66ccff" stroke="none" points="535.5,-440 535.5,-461 694.5,-461 694.5,-440 535.5,-440"/>
<polygon fill="none" stroke="black" points="535.5,-440 535.5,-461 694.5,-461 694.5,-440 535.5,-440"/>
<text text-anchor="start" x="550" y="-446.8" font-family="Times,serif" font-size="14.00">[STRING] name (0..1) </text>
</a>
</g>
<g id="a_node3_30"><a xlink:href="/idmef_parser/IDMEF/UserId.html" xlink:title="A user or group number.">
<polygon fill="#66ccff" stroke="none" points="535.5,-419 535.5,-440 694.5,-440 694.5,-419 535.5,-419"/>
<polygon fill="none" stroke="black" points="535.5,-419 535.5,-440 694.5,-440 694.5,-419 535.5,-419"/>
<text text-anchor="start" x="539.5" y="-425.8" font-family="Times,serif" font-size="14.00">[INTEGER] number (0..1) </text>
</a>
</g>
<g id="a_node3_31"><a xlink:href="/idmef_parser/IDMEF/UserId.html" xlink:title="A unique identifier for the user id, see Section 3.2.9.">
<polygon fill="#66ccff" stroke="none" points="535.5,-398 535.5,-419 694.5,-419 694.5,-398 535.5,-398"/>
<polygon fill="none" stroke="black" points="535.5,-398 535.5,-419 694.5,-419 694.5,-398 535.5,-398"/>
<text text-anchor="start" x="538.5" y="-404.8" font-family="Times,serif" font-size="14.00">[STRING] ident (Optional) </text>
</a>
</g>
<g id="a_node3_32"><a xlink:href="/idmef_parser/IDMEF/UserId.html" xlink:title="The type of user information represented. &#160;The permitted values for this attribute are shown below. &#160;The default value is &quot;original&#45;user&quot;. &#160;(See also Section 10.)">
<polygon fill="#66ccff" stroke="none" points="535.5,-377 535.5,-398 694.5,-398 694.5,-377 535.5,-377"/>
<polygon fill="none" stroke="black" points="535.5,-377 535.5,-398 694.5,-398 694.5,-377 535.5,-377"/>
<text text-anchor="start" x="544.5" y="-383.8" font-family="Times,serif" font-size="14.00">[ENUM] type (Optional) </text>
</a>
</g>
<g id="a_node3_33"><a xlink:href="/idmef_parser/IDMEF/UserId.html" xlink:title="The tty the user is using.">
<polygon fill="#66ccff" stroke="none" points="535.5,-356 535.5,-377 694.5,-377 694.5,-356 535.5,-356"/>
<polygon fill="none" stroke="black" points="535.5,-356 535.5,-377 694.5,-377 694.5,-356 535.5,-356"/>
<text text-anchor="start" x="545" y="-362.8" font-family="Times,serif" font-size="14.00">[STRING] tty (Optional) </text>
</a>
</g>
</g>
<!-- FileAccess&#45;&gt;UserId -->
<g id="edge1" class="edge"><title>FileAccess&#45;&gt;UserId</title>
<path fill="none" stroke="black" d="M464.021,-419C481.155,-419 499.258,-419 516.725,-419"/>
<polygon fill="black" stroke="black" points="516.924,-422.5 526.924,-419 516.924,-415.5 516.924,-422.5"/>
<text text-anchor="middle" x="505.5" y="-422.8" font-family="Times,serif" font-size="14.00">1</text>
</g>
<!-- Linkage&#45;&gt;File -->
<g id="edge3" class="edge"><title>Linkage&#45;&gt;File</title>
<path fill="none" stroke="black" d="M283.885,-299.406C273.231,-296.797 262.443,-294.562 252,-293 242.383,-291.562 232.368,-290.535 222.293,-289.828"/>
<polygon fill="black" stroke="black" points="222.401,-286.328 212.21,-289.224 221.983,-293.316 222.401,-286.328"/>
<text text-anchor="middle" x="241" y="-296.8" font-family="Times,serif" font-size="14.00">1</text>
</g>
</g>
</svg>
