<?xml version="1.0" encoding="UTF-8" standalone="no"?>
<!DOCTYPE svg PUBLIC "-//W3C//DTD SVG 1.1//EN"
 "http://www.w3.org/Graphics/SVG/1.1/DTD/svg11.dtd">
<!-- Generated by graphviz version 2.38.0 (20140413.2041)
 -->
<!-- Title: Heartbeat Pages: 1 -->
<svg width="1023pt" height="494pt"
 viewBox="0.00 0.00 1023.00 493.50" xmlns="http://www.w3.org/2000/svg" xmlns:xlink="http://www.w3.org/1999/xlink">
<g id="graph0" class="graph" transform="scale(1 1) rotate(0) translate(4 489.5)">
<title>Heartbeat</title>
<polygon fill="white" stroke="none" points="-4,4 -4,-489.5 1019,-489.5 1019,4 -4,4"/>
<!-- Heartbeat -->
<g id="node1" class="node"><title>Heartbeat</title>
<g id="a_node1_0"><a xlink:href="/idmef_parser/IDMEF/Heartbeat.html" xlink:title="Analyzers use Heartbeat messages to indicate their current status to managers. Heartbeats are intended to be sent in a regular period, say, every ten minutes or every hour. The receipt of a Heartbeat message from an analyzer indicates to the manager that the analyzer is up and running; lack of a Heartbeat message (or more likely, lack of some number of consecutive Heartbeat messages) indicates that the analyzer or its network connection has failed. ">
<polygon fill="#597700" stroke="none" points="8.5,-123 8.5,-144 217.5,-144 217.5,-123 8.5,-123"/>
<polygon fill="none" stroke="black" points="8.5,-123 8.5,-144 217.5,-144 217.5,-123 8.5,-123"/>
<text text-anchor="start" x="86.5" y="-129.8" font-family="Times,serif" font-size="14.00">Heartbeat</text>
</a>
</g>
<g id="a_node1_1"><a xlink:href="/idmef_parser/IDMEF/Heartbeat.html" xlink:title="The interval in seconds at which heartbeats are generated.">
<polygon fill="#94c600" stroke="none" points="8.5,-102 8.5,-123 217.5,-123 217.5,-102 8.5,-102"/>
<polygon fill="none" stroke="black" points="8.5,-102 8.5,-123 217.5,-123 217.5,-102 8.5,-102"/>
<text text-anchor="start" x="11.5" y="-108.8" font-family="Times,serif" font-size="14.00">[INTEGER] HeartbeatInterval (0..1) </text>
</a>
</g>
<g id="a_node1_2"><a xlink:href="/idmef_parser/IDMEF/Heartbeat.html" xlink:title="A unique identifier for the heartbeat; see Section 3.2.9.">
<polygon fill="#94c600" stroke="none" points="8.5,-81 8.5,-102 217.5,-102 217.5,-81 8.5,-81"/>
<polygon fill="none" stroke="black" points="8.5,-81 8.5,-102 217.5,-102 217.5,-81 8.5,-81"/>
<text text-anchor="start" x="21.5" y="-87.8" font-family="Times,serif" font-size="14.00">[STRING] messageid (Optional) </text>
</a>
</g>
</g>
<!-- Analyzer -->
<g id="node2" class="node"><title>Analyzer</title>
<g id="a_node2_3"><a xlink:href="/idmef_parser/IDMEF/Analyzer.html" xlink:title="The Analyzer class identifies the analyzer from which the Alert or Heartbeat message originates. Only one analyzer may be encoded for each alert or heartbeat, and that MUST be the analyzer at which the alert or heartbeat originated. Although the IDMEF data model does not prevent the use of hierarchical intrusion detection systems (where alerts get relayed up the tree), it does not provide any way to record the identity of the &quot;relay&quot; analyzers along the path from the originating analyzer to the manager that ultimately receives the alert. ">
<polygon fill="#99993d" stroke="none" points="291.5,-348 291.5,-369 496.5,-369 496.5,-348 291.5,-348"/>
<polygon fill="none" stroke="black" points="291.5,-348 291.5,-369 496.5,-369 496.5,-348 291.5,-348"/>
<text text-anchor="start" x="369" y="-354.8" font-family="Times,serif" font-size="14.00">Analyzer</text>
</a>
</g>
<g id="a_node2_4"><a xlink:href="/idmef_parser/IDMEF/Analyzer.html" xlink:title="(but see below). &#160;A unique identifier for the analyzer; see Section 3.2.9.">
<polygon fill="#ffff66" stroke="none" points="291.5,-327 291.5,-348 496.5,-348 496.5,-327 291.5,-327"/>
<polygon fill="none" stroke="black" points="291.5,-327 291.5,-348 496.5,-348 496.5,-327 291.5,-327"/>
<text text-anchor="start" x="303" y="-333.8" font-family="Times,serif" font-size="14.00">[STRING] analyzerid (Optional) </text>
</a>
</g>
<g id="a_node2_5"><a xlink:href="/idmef_parser/IDMEF/Analyzer.html" xlink:title="An explicit name for the analyzer that may be easier to understand than the analyzerid.">
<polygon fill="#ffff66" stroke="none" points="291.5,-306 291.5,-327 496.5,-327 496.5,-306 291.5,-306"/>
<polygon fill="none" stroke="black" points="291.5,-306 291.5,-327 496.5,-327 496.5,-306 291.5,-306"/>
<text text-anchor="start" x="316" y="-312.8" font-family="Times,serif" font-size="14.00">[STRING] name (Optional) </text>
</a>
</g>
<g id="a_node2_6"><a xlink:href="/idmef_parser/IDMEF/Analyzer.html" xlink:title="The manufacturer of the analyzer software and/or hardware.">
<polygon fill="#ffff66" stroke="none" points="291.5,-285 291.5,-306 496.5,-306 496.5,-285 291.5,-285"/>
<polygon fill="none" stroke="black" points="291.5,-285 291.5,-306 496.5,-306 496.5,-285 291.5,-285"/>
<text text-anchor="start" x="294.5" y="-291.8" font-family="Times,serif" font-size="14.00">[STRING] manufacturer (Optional) </text>
</a>
</g>
<g id="a_node2_7"><a xlink:href="/idmef_parser/IDMEF/Analyzer.html" xlink:title="The model name/number of the analyzer software and/or hardware.">
<polygon fill="#ffff66" stroke="none" points="291.5,-264 291.5,-285 496.5,-285 496.5,-264 291.5,-264"/>
<polygon fill="none" stroke="black" points="291.5,-264 291.5,-285 496.5,-285 496.5,-264 291.5,-264"/>
<text text-anchor="start" x="314" y="-270.8" font-family="Times,serif" font-size="14.00">[STRING] model (Optional) </text>
</a>
</g>
<g id="a_node2_8"><a xlink:href="/idmef_parser/IDMEF/Analyzer.html" xlink:title="The version number of the analyzer software and/or hardware.">
<polygon fill="#ffff66" stroke="none" points="291.5,-243 291.5,-264 496.5,-264 496.5,-243 291.5,-243"/>
<polygon fill="none" stroke="black" points="291.5,-243 291.5,-264 496.5,-264 496.5,-243 291.5,-243"/>
<text text-anchor="start" x="311" y="-249.8" font-family="Times,serif" font-size="14.00">[STRING] version (Optional) </text>
</a>
</g>
<g id="a_node2_9"><a xlink:href="/idmef_parser/IDMEF/Analyzer.html" xlink:title="The class of analyzer software and/or hardware.">
<polygon fill="#ffff66" stroke="none" points="291.5,-222 291.5,-243 496.5,-243 496.5,-222 291.5,-222"/>
<polygon fill="none" stroke="black" points="291.5,-222 291.5,-243 496.5,-243 496.5,-222 291.5,-222"/>
<text text-anchor="start" x="318" y="-228.8" font-family="Times,serif" font-size="14.00">[STRING] class (Optional) </text>
</a>
</g>
<g id="a_node2_10"><a xlink:href="/idmef_parser/IDMEF/Analyzer.html" xlink:title="Operating system name. &#160;On POSIX 1003.1 compliant systems, this is the value returned in utsname.sysname by the uname() system call, or the output of the &quot;uname &#45;s&quot; command.">
<polygon fill="#ffff66" stroke="none" points="291.5,-201 291.5,-222 496.5,-222 496.5,-201 291.5,-201"/>
<polygon fill="none" stroke="black" points="291.5,-201 291.5,-222 496.5,-222 496.5,-201 291.5,-201"/>
<text text-anchor="start" x="313.5" y="-207.8" font-family="Times,serif" font-size="14.00">[STRING] ostype (Optional) </text>
</a>
</g>
<g id="a_node2_11"><a xlink:href="/idmef_parser/IDMEF/Analyzer.html" xlink:title="Operating system version. &#160;On POSIX 1003.1 compliant systems, this is the value returned in utsname.release by the uname() system call, or the output of the &quot;uname &#45;r&quot; command.">
<polygon fill="#ffff66" stroke="none" points="291.5,-180 291.5,-201 496.5,-201 496.5,-180 291.5,-180"/>
<polygon fill="none" stroke="black" points="291.5,-180 291.5,-201 496.5,-201 496.5,-180 291.5,-180"/>
<text text-anchor="start" x="305" y="-186.8" font-family="Times,serif" font-size="14.00">[STRING] osversion (Optional) </text>
</a>
</g>
</g>
<!-- Heartbeat&#45;&gt;Analyzer -->
<g id="edge5" class="edge"><title>Heartbeat&#45;&gt;Analyzer</title>
<path fill="none" stroke="black" d="M174.728,-148.552C203.933,-165.51 239.906,-186.397 274.14,-206.275"/>
<polygon fill="black" stroke="black" points="272.395,-209.309 282.8,-211.303 275.91,-203.255 272.395,-209.309"/>
<text text-anchor="middle" x="254" y="-202.8" font-family="Times,serif" font-size="14.00">1</text>
</g>
<!-- CreateTime -->
<g id="node6" class="node"><title>CreateTime</title>
<g id="a_node6_12"><a xlink:href="/idmef_parser/IDMEF/CreateTime.html" xlink:title="The CreateTime class is used to indicate the date and time the alert or heartbeat was created by the analyzer. ">
<polygon fill="#5c5c99" stroke="none" points="358.5,-129 358.5,-150 429.5,-150 429.5,-129 358.5,-129"/>
<polygon fill="none" stroke="black" points="358.5,-129 358.5,-150 429.5,-150 429.5,-129 358.5,-129"/>
<text text-anchor="start" x="361.5" y="-135.8" font-family="Times,serif" font-size="14.00">CreateTime</text>
</a>
</g>
</g>
<!-- Heartbeat&#45;&gt;CreateTime -->
<g id="edge6" class="edge"><title>Heartbeat&#45;&gt;CreateTime</title>
<path fill="none" stroke="black" d="M225.372,-123.826C264.907,-127.652 307.525,-131.777 339.829,-134.903"/>
<polygon fill="black" stroke="black" points="339.648,-138.402 349.939,-135.881 340.322,-131.434 339.648,-138.402"/>
<text text-anchor="middle" x="254" y="-131.8" font-family="Times,serif" font-size="14.00">1</text>
</g>
<!-- AnalyzerTime -->
<g id="node7" class="node"><title>AnalyzerTime</title>
<g id="a_node7_13"><a xlink:href="/idmef_parser/IDMEF/AnalyzerTime.html" xlink:title="The AnalyzerTime class is used to indicate the current date and time on the analyzer. Its values should be filled in as late as possible in the message transmission process, ideally immediately before placing the message &quot;on the wire&quot;. ">
<polygon fill="#5c5c99" stroke="none" points="351.5,-75 351.5,-96 436.5,-96 436.5,-75 351.5,-75"/>
<polygon fill="none" stroke="black" points="351.5,-75 351.5,-96 436.5,-96 436.5,-75 351.5,-75"/>
<text text-anchor="start" x="354.5" y="-81.8" font-family="Times,serif" font-size="14.00">AnalyzerTime</text>
</a>
</g>
</g>
<!-- Heartbeat&#45;&gt;AnalyzerTime -->
<g id="edge7" class="edge"><title>Heartbeat&#45;&gt;AnalyzerTime</title>
<path fill="none" stroke="black" d="M225.372,-102.174C262.011,-98.6279 301.299,-94.8259 332.571,-91.7995"/>
<polygon fill="black" stroke="black" points="333.238,-95.2515 342.854,-90.8044 332.563,-88.2841 333.238,-95.2515"/>
<text text-anchor="middle" x="254" y="-104.8" font-family="Times,serif" font-size="14.00">0..1</text>
</g>
<!-- AdditionalData -->
<g id="node8" class="node"><title>AdditionalData</title>
<g id="a_node8_14"><a xlink:href="/idmef_parser/IDMEF/AdditionalData.html" xlink:title="The AdditionalData class is used to provide information that cannot be represented by the data model. AdditionalData can be used to provide atomic data (integers, strings, etc.) in cases where only small amounts of additional information need to be sent; it can also be used to extend the data model and the DTD to support the transmission of complex data (such as packet headers). Detailed instructions for extending the data model and the DTD are provided in Section 5. ">
<polygon fill="#431d60" stroke="none" points="304.5,-25 304.5,-46 483.5,-46 483.5,-25 304.5,-25"/>
<polygon fill="none" stroke="black" points="304.5,-25 304.5,-46 483.5,-46 483.5,-25 304.5,-25"/>
<text text-anchor="start" x="352" y="-31.8" font-family="Times,serif" font-size="14.00">AdditionalData</text>
</a>
</g>
<g id="a_node8_15"><a xlink:href="/idmef_parser/IDMEF/AdditionalData.html" xlink:title="A string describing the meaning of the element content. These values will be vendor/implementation dependent; the method for ensuring that managers understand the strings sent by analyzers is outside the scope of this specification. &#160;A list of acceptable meaning keywords is not within the scope of the document, although later versions may undertake to establish such a list.">
<polygon fill="#7030a0" stroke="none" points="304.5,-4 304.5,-25 483.5,-25 483.5,-4 304.5,-4"/>
<polygon fill="none" stroke="black" points="304.5,-4 304.5,-25 483.5,-25 483.5,-4 304.5,-4"/>
<text text-anchor="start" x="307.5" y="-10.8" font-family="Times,serif" font-size="14.00">[STRING] meaning (Optional) </text>
</a>
</g>
</g>
<!-- Heartbeat&#45;&gt;AdditionalData -->
<g id="edge8" class="edge"><title>Heartbeat&#45;&gt;AdditionalData</title>
<path fill="none" stroke="black" d="M224.697,-77.4456C244.123,-71.2711 264.145,-64.9307 283,-59 289.044,-57.099 295.277,-55.1452 301.56,-53.181"/>
<polygon fill="black" stroke="black" points="302.951,-56.4135 311.453,-50.092 300.864,-49.7316 302.951,-56.4135"/>
<text text-anchor="middle" x="254" y="-74.8" font-family="Times,serif" font-size="14.00">0..*</text>
</g>
<!-- Analyzer&#45;&gt;Analyzer -->
<g id="edge4" class="edge"><title>Analyzer&#45;&gt;Analyzer</title>
<path fill="none" stroke="black" d="M371.733,-373.591C375.867,-384.474 383.123,-391.5 393.5,-391.5 400.634,-391.5 406.293,-388.179 410.477,-382.567"/>
<polygon fill="black" stroke="black" points="413.647,-384.061 415.267,-373.591 407.471,-380.765 413.647,-384.061"/>
<text text-anchor="middle" x="393.5" y="-395.3" font-family="Times,serif" font-size="14.00">0..1</text>
</g>
<!-- Node -->
<g id="node3" class="node"><title>Node</title>
<g id="a_node3_16"><a xlink:href="/idmef_parser/IDMEF/Node.html" xlink:title="The Node class is used to identify hosts and other network devices (routers, switches, etc.). ">
<polygon fill="#007a00" stroke="none" points="570,-439 570,-460 740,-460 740,-439 570,-439"/>
<polygon fill="none" stroke="black" points="570,-439 570,-460 740,-460 740,-439 570,-439"/>
<text text-anchor="start" x="640" y="-445.8" font-family="Times,serif" font-size="14.00">Node</text>
</a>
</g>
<g id="a_node3_17"><a xlink:href="/idmef_parser/IDMEF/Node.html" xlink:title="The location of the equipment.">
<polygon fill="#00cc00" stroke="none" points="570,-418 570,-439 740,-439 740,-418 570,-418"/>
<polygon fill="none" stroke="black" points="570,-418 570,-439 740,-439 740,-418 570,-418"/>
<text text-anchor="start" x="583.5" y="-424.8" font-family="Times,serif" font-size="14.00">[STRING] location (0..1) </text>
</a>
</g>
<g id="a_node3_18"><a xlink:href="/idmef_parser/IDMEF/Node.html" xlink:title="The name of the equipment. &#160;This information MUST be provided if no Address information is given.">
<polygon fill="#00cc00" stroke="none" points="570,-397 570,-418 740,-418 740,-397 570,-397"/>
<polygon fill="none" stroke="black" points="570,-397 570,-418 740,-418 740,-397 570,-397"/>
<text text-anchor="start" x="590" y="-403.8" font-family="Times,serif" font-size="14.00">[STRING] name (0..1) </text>
</a>
</g>
<g id="a_node3_19"><a xlink:href="/idmef_parser/IDMEF/Node.html" xlink:title="A unique identifier for the node; see Section 3.2.9.">
<polygon fill="#00cc00" stroke="none" points="570,-376 570,-397 740,-397 740,-376 570,-376"/>
<polygon fill="none" stroke="black" points="570,-376 570,-397 740,-397 740,-376 570,-376"/>
<text text-anchor="start" x="578.5" y="-382.8" font-family="Times,serif" font-size="14.00">[STRING] ident (Optional) </text>
</a>
</g>
<g id="a_node3_20"><a xlink:href="/idmef_parser/IDMEF/Node.html" xlink:title="The &quot;domain&quot; from which the name information was obtained, if relevant. &#160;The permitted values for this attribute are shown in the table below. &#160;The default value is &quot;unknown&quot;. (See also Section 10 for extensions to the table.)">
<polygon fill="#00cc00" stroke="none" points="570,-355 570,-376 740,-376 740,-355 570,-355"/>
<polygon fill="none" stroke="black" points="570,-355 570,-376 740,-376 740,-355 570,-355"/>
<text text-anchor="start" x="573" y="-361.8" font-family="Times,serif" font-size="14.00">[ENUM] category (Optional) </text>
</a>
</g>
</g>
<!-- Analyzer&#45;&gt;Node -->
<g id="edge2" class="edge"><title>Analyzer&#45;&gt;Node</title>
<path fill="none" stroke="black" d="M504.175,-331.211C520.248,-339.449 536.742,-347.903 552.639,-356.05"/>
<polygon fill="black" stroke="black" points="551.426,-359.361 561.921,-360.808 554.619,-353.132 551.426,-359.361"/>
<text text-anchor="middle" x="533" y="-353.8" font-family="Times,serif" font-size="14.00">0..1</text>
</g>
<!-- Process -->
<g id="node5" class="node"><title>Process</title>
<g id="a_node5_21"><a xlink:href="/idmef_parser/IDMEF/Process.html" xlink:title="The Process class is used to describe processes being executed on sources, targets, and analyzers. ">
<polygon fill="#997a3d" stroke="none" points="576,-308 576,-329 735,-329 735,-308 576,-308"/>
<polygon fill="none" stroke="black" points="576,-308 576,-329 735,-329 735,-308 576,-308"/>
<text text-anchor="start" x="634.5" y="-314.8" font-family="Times,serif" font-size="14.00">Process</text>
</a>
</g>
<g id="a_node5_22"><a xlink:href="/idmef_parser/IDMEF/Process.html" xlink:title="The name of the program being executed. This is a short name; path and argument information are provided elsewhere.">
<polygon fill="#ffcc66" stroke="none" points="576,-287 576,-308 735,-308 735,-287 576,-287"/>
<polygon fill="none" stroke="black" points="576,-287 576,-308 735,-308 735,-287 576,-287"/>
<text text-anchor="start" x="598" y="-293.8" font-family="Times,serif" font-size="14.00">[STRING] name (1) </text>
</a>
</g>
<g id="a_node5_23"><a xlink:href="/idmef_parser/IDMEF/Process.html" xlink:title="The process identifier of the process.">
<polygon fill="#ffcc66" stroke="none" points="576,-266 576,-287 735,-287 735,-266 576,-266"/>
<polygon fill="none" stroke="black" points="576,-266 576,-287 735,-287 735,-266 576,-266"/>
<text text-anchor="start" x="592.5" y="-272.8" font-family="Times,serif" font-size="14.00">[INTEGER] pid (0..1) </text>
</a>
</g>
<g id="a_node5_24"><a xlink:href="/idmef_parser/IDMEF/Process.html" xlink:title="The full path of the program being executed.">
<polygon fill="#ffcc66" stroke="none" points="576,-245 576,-266 735,-266 735,-245 576,-245"/>
<polygon fill="none" stroke="black" points="576,-245 576,-266 735,-266 735,-245 576,-245"/>
<text text-anchor="start" x="594" y="-251.8" font-family="Times,serif" font-size="14.00">[STRING] path (0..1) </text>
</a>
</g>
<g id="a_node5_25"><a xlink:href="/idmef_parser/IDMEF/Process.html" xlink:title="A command&#45;line argument to the program. Multiple arguments may be specified (they are assumed to have occurred in the same order they are provided) with multiple uses of arg.">
<polygon fill="#ffcc66" stroke="none" points="576,-224 576,-245 735,-245 735,-224 576,-224"/>
<polygon fill="none" stroke="black" points="576,-224 576,-245 735,-245 735,-224 576,-224"/>
<text text-anchor="start" x="597" y="-230.8" font-family="Times,serif" font-size="14.00">[STRING] arg (0..*) </text>
</a>
</g>
<g id="a_node5_26"><a xlink:href="/idmef_parser/IDMEF/Process.html" xlink:title="An environment string associated with the process; generally of the format &quot;VARIABLE=value&quot;. &#160;Multiple environment strings may be specified with multiple uses of env.">
<polygon fill="#ffcc66" stroke="none" points="576,-203 576,-224 735,-224 735,-203 576,-203"/>
<polygon fill="none" stroke="black" points="576,-203 576,-224 735,-224 735,-203 576,-203"/>
<text text-anchor="start" x="596" y="-209.8" font-family="Times,serif" font-size="14.00">[STRING] env (0..*) </text>
</a>
</g>
<g id="a_node5_27"><a xlink:href="/idmef_parser/IDMEF/Process.html" xlink:title="A unique identifier for the process; see Section 3.2.9.">
<polygon fill="#ffcc66" stroke="none" points="576,-182 576,-203 735,-203 735,-182 576,-182"/>
<polygon fill="none" stroke="black" points="576,-182 576,-203 735,-203 735,-182 576,-182"/>
<text text-anchor="start" x="579" y="-188.8" font-family="Times,serif" font-size="14.00">[STRING] ident (Optional) </text>
</a>
</g>
</g>
<!-- Analyzer&#45;&gt;Process -->
<g id="edge3" class="edge"><title>Analyzer&#45;&gt;Process</title>
<path fill="none" stroke="black" d="M504.175,-266.97C521.751,-265.683 539.831,-264.359 557.082,-263.096"/>
<polygon fill="black" stroke="black" points="557.416,-266.581 567.134,-262.36 556.905,-259.6 557.416,-266.581"/>
<text text-anchor="middle" x="533" y="-269.8" font-family="Times,serif" font-size="14.00">0..1</text>
</g>
<!-- Address -->
<g id="node4" class="node"><title>Address</title>
<g id="a_node4_28"><a xlink:href="/idmef_parser/IDMEF/Address.html" xlink:title="The Address class is used to represent network, hardware, and application addresses. ">
<polygon fill="#007a00" stroke="none" points="814.5,-460 814.5,-481 1007.5,-481 1007.5,-460 814.5,-460"/>
<polygon fill="none" stroke="black" points="814.5,-460 814.5,-481 1007.5,-481 1007.5,-460 814.5,-460"/>
<text text-anchor="start" x="888.5" y="-466.8" font-family="Times,serif" font-size="14.00">Address</text>
</a>
</g>
<g id="a_node4_29"><a xlink:href="/idmef_parser/IDMEF/Address.html" xlink:title="The address information. &#160;The format of this data is governed by the category attribute.">
<polygon fill="#00cc00" stroke="none" points="814.5,-439 814.5,-460 1007.5,-460 1007.5,-439 814.5,-439"/>
<polygon fill="none" stroke="black" points="814.5,-439 814.5,-460 1007.5,-460 1007.5,-439 814.5,-439"/>
<text text-anchor="start" x="848" y="-445.8" font-family="Times,serif" font-size="14.00">[STRING] address (1) </text>
</a>
</g>
<g id="a_node4_30"><a xlink:href="/idmef_parser/IDMEF/Address.html" xlink:title="The network mask for the address, if appropriate.">
<polygon fill="#00cc00" stroke="none" points="814.5,-418 814.5,-439 1007.5,-439 1007.5,-418 814.5,-418"/>
<polygon fill="none" stroke="black" points="814.5,-418 814.5,-439 1007.5,-439 1007.5,-418 814.5,-418"/>
<text text-anchor="start" x="838.5" y="-424.8" font-family="Times,serif" font-size="14.00">[STRING] netmask (0..1) </text>
</a>
</g>
<g id="a_node4_31"><a xlink:href="/idmef_parser/IDMEF/Address.html" xlink:title="A unique identifier for the address; see Section 3.2.9.">
<polygon fill="#00cc00" stroke="none" points="814.5,-397 814.5,-418 1007.5,-418 1007.5,-397 814.5,-397"/>
<polygon fill="none" stroke="black" points="814.5,-397 814.5,-418 1007.5,-418 1007.5,-397 814.5,-397"/>
<text text-anchor="start" x="834.5" y="-403.8" font-family="Times,serif" font-size="14.00">[STRING] ident (Optional) </text>
</a>
</g>
<g id="a_node4_32"><a xlink:href="/idmef_parser/IDMEF/Address.html" xlink:title="The type of address represented. &#160;The permitted values for this attribute are shown below. &#160;The default value is &quot;unknown&quot;. &#160;(See also Section 10.)">
<polygon fill="#00cc00" stroke="none" points="814.5,-376 814.5,-397 1007.5,-397 1007.5,-376 814.5,-376"/>
<polygon fill="none" stroke="black" points="814.5,-376 814.5,-397 1007.5,-397 1007.5,-376 814.5,-376"/>
<text text-anchor="start" x="829" y="-382.8" font-family="Times,serif" font-size="14.00">[ENUM] category (Optional) </text>
</a>
</g>
<g id="a_node4_33"><a xlink:href="/idmef_parser/IDMEF/Address.html" xlink:title="The name of the Virtual LAN to which the address belongs.">
<polygon fill="#00cc00" stroke="none" points="814.5,-355 814.5,-376 1007.5,-376 1007.5,-355 814.5,-355"/>
<polygon fill="none" stroke="black" points="814.5,-355 814.5,-376 1007.5,-376 1007.5,-355 814.5,-355"/>
<text text-anchor="start" x="819" y="-361.8" font-family="Times,serif" font-size="14.00">[STRING] vlan&#45;name (Optional) </text>
</a>
</g>
<g id="a_node4_34"><a xlink:href="/idmef_parser/IDMEF/Address.html" xlink:title="The number of the Virtual LAN to which the address belongs.">
<polygon fill="#00cc00" stroke="none" points="814.5,-334 814.5,-355 1007.5,-355 1007.5,-334 814.5,-334"/>
<polygon fill="none" stroke="black" points="814.5,-334 814.5,-355 1007.5,-355 1007.5,-334 814.5,-334"/>
<text text-anchor="start" x="817.5" y="-340.8" font-family="Times,serif" font-size="14.00">[INTEGER] vlan&#45;num (Optional) </text>
</a>
</g>
</g>
<!-- Node&#45;&gt;Address -->
<g id="edge1" class="edge"><title>Node&#45;&gt;Address</title>
<path fill="none" stroke="black" d="M748.236,-408C763.565,-408 779.623,-408 795.416,-408"/>
<polygon fill="black" stroke="black" points="795.746,-411.5 805.746,-408 795.746,-404.5 795.746,-411.5"/>
<text text-anchor="middle" x="777" y="-411.8" font-family="Times,serif" font-size="14.00">0..*</text>
</g>
</g>
</svg>
