<?xml version="1.0" encoding="UTF-8" standalone="no"?>
<!DOCTYPE svg PUBLIC "-//W3C//DTD SVG 1.1//EN"
 "http://www.w3.org/Graphics/SVG/1.1/DTD/svg11.dtd">
<!-- Generated by graphviz version 2.38.0 (20140413.2041)
 -->
<!-- Title: Impact Pages: 1 -->
<svg width="209pt" height="100pt"
 viewBox="0.00 0.00 209.00 100.00" xmlns="http://www.w3.org/2000/svg" xmlns:xlink="http://www.w3.org/1999/xlink">
<g id="graph0" class="graph" transform="scale(1 1) rotate(0) translate(4 96)">
<title>Impact</title>
<polygon fill="white" stroke="none" points="-4,4 -4,-96 205,-96 205,4 -4,4"/>
<!-- Impact -->
<g id="node1" class="node"><title>Impact</title>
<g id="a_node1_0"><a xlink:href="/idmef_parser/IDMEF/Impact.html" xlink:title="The Impact class is used to provide the analyzer&#39;s assessment of the impact of the event on the target(s). It is represented in the IDMEF DTD as follows: ">
<polygon fill="#993016" stroke="none" points="8.5,-67 8.5,-88 193.5,-88 193.5,-67 8.5,-67"/>
<polygon fill="none" stroke="black" points="8.5,-67 8.5,-88 193.5,-88 193.5,-67 8.5,-67"/>
<text text-anchor="start" x="81.5" y="-73.8" font-family="Times,serif" font-size="14.00">Impact</text>
</a>
</g>
<g id="a_node1_1"><a xlink:href="/idmef_parser/IDMEF/Impact.html" xlink:title="Section 10.)">
<polygon fill="#ff5024" stroke="none" points="8.5,-46 8.5,-67 193.5,-67 193.5,-46 8.5,-46"/>
<polygon fill="none" stroke="black" points="8.5,-46 8.5,-67 193.5,-67 193.5,-46 8.5,-46"/>
<text text-anchor="start" x="21" y="-52.8" font-family="Times,serif" font-size="14.00">[ENUM] severity (Optional) </text>
</a>
</g>
<g id="a_node1_2"><a xlink:href="/idmef_parser/IDMEF/Impact.html" xlink:title="Section 10.)">
<polygon fill="#ff5024" stroke="none" points="8.5,-25 8.5,-46 193.5,-46 193.5,-25 8.5,-25"/>
<polygon fill="none" stroke="black" points="8.5,-25 8.5,-46 193.5,-46 193.5,-25 8.5,-25"/>
<text text-anchor="start" x="11.5" y="-31.8" font-family="Times,serif" font-size="14.00">[ENUM] completion (Optional) </text>
</a>
</g>
<g id="a_node1_3"><a xlink:href="/idmef_parser/IDMEF/Impact.html" xlink:title="value is &quot;other&quot;. &#160;(See also Section 10.)">
<polygon fill="#ff5024" stroke="none" points="8.5,-4 8.5,-25 193.5,-25 193.5,-4 8.5,-4"/>
<polygon fill="none" stroke="black" points="8.5,-4 8.5,-25 193.5,-25 193.5,-4 8.5,-4"/>
<text text-anchor="start" x="30.5" y="-10.8" font-family="Times,serif" font-size="14.00">[ENUM] type (Optional) </text>
</a>
</g>
</g>
</g>
</svg>
