<?xml version="1.0" encoding="UTF-8" standalone="no"?>
<!DOCTYPE svg PUBLIC "-//W3C//DTD SVG 1.1//EN"
 "http://www.w3.org/Graphics/SVG/1.1/DTD/svg11.dtd">
<!-- Generated by graphviz version 2.38.0 (20140413.2041)
 -->
<!-- Title: Inode Pages: 1 -->
<svg width="222pt" height="163pt"
 viewBox="0.00 0.00 222.00 163.00" xmlns="http://www.w3.org/2000/svg" xmlns:xlink="http://www.w3.org/1999/xlink">
<g id="graph0" class="graph" transform="scale(1 1) rotate(0) translate(4 159)">
<title>Inode</title>
<polygon fill="white" stroke="none" points="-4,4 -4,-159 218,-159 218,4 -4,4"/>
<!-- Inode -->
<g id="node1" class="node"><title>Inode</title>
<g id="a_node1_0"><a xlink:href="/idmef_parser/IDMEF/Inode.html" xlink:title="The Inode class is used to represent the additional information contained in a Unix file system i&#45;node. ">
<polygon fill="#997a00" stroke="none" points="8,-129.5 8,-150.5 206,-150.5 206,-129.5 8,-129.5"/>
<polygon fill="none" stroke="black" points="8,-129.5 8,-150.5 206,-150.5 206,-129.5 8,-129.5"/>
<text text-anchor="start" x="91.5" y="-136.3" font-family="Times,serif" font-size="14.00">Inode</text>
</a>
</g>
<g id="a_node1_1"><a xlink:href="/idmef_parser/IDMEF/Inode.html" xlink:title="The time of the last inode change, given by the st_ctime element of &quot;struct stat&quot;.">
<polygon fill="#ffcc00" stroke="none" points="8,-108.5 8,-129.5 206,-129.5 206,-108.5 8,-108.5"/>
<polygon fill="none" stroke="black" points="8,-108.5 8,-129.5 206,-129.5 206,-108.5 8,-108.5"/>
<text text-anchor="start" x="13" y="-115.3" font-family="Times,serif" font-size="14.00">[DATETIME] change&#45;time (0..1) </text>
</a>
</g>
<g id="a_node1_2"><a xlink:href="/idmef_parser/IDMEF/Inode.html" xlink:title="The inode number.">
<polygon fill="#ffcc00" stroke="none" points="8,-87.5 8,-108.5 206,-108.5 206,-87.5 8,-87.5"/>
<polygon fill="none" stroke="black" points="8,-87.5 8,-108.5 206,-108.5 206,-87.5 8,-87.5"/>
<text text-anchor="start" x="31.5" y="-94.3" font-family="Times,serif" font-size="14.00">[INTEGER] number (0..1) </text>
</a>
</g>
<g id="a_node1_3"><a xlink:href="/idmef_parser/IDMEF/Inode.html" xlink:title="The major device number of the device the file resides on.">
<polygon fill="#ffcc00" stroke="none" points="8,-66.5 8,-87.5 206,-87.5 206,-66.5 8,-66.5"/>
<polygon fill="none" stroke="black" points="8,-66.5 8,-87.5 206,-87.5 206,-66.5 8,-66.5"/>
<text text-anchor="start" x="16.5" y="-73.3" font-family="Times,serif" font-size="14.00">[INTEGER] major&#45;device (0..1) </text>
</a>
</g>
<g id="a_node1_4"><a xlink:href="/idmef_parser/IDMEF/Inode.html" xlink:title="The minor device number of the device the file resides on.">
<polygon fill="#ffcc00" stroke="none" points="8,-45.5 8,-66.5 206,-66.5 206,-45.5 8,-45.5"/>
<polygon fill="none" stroke="black" points="8,-45.5 8,-66.5 206,-66.5 206,-45.5 8,-45.5"/>
<text text-anchor="start" x="16.5" y="-52.3" font-family="Times,serif" font-size="14.00">[INTEGER] minor&#45;device (0..1) </text>
</a>
</g>
<g id="a_node1_5"><a xlink:href="/idmef_parser/IDMEF/Inode.html" xlink:title="The major device of the file itself, if it is a character special device.">
<polygon fill="#ffcc00" stroke="none" points="8,-24.5 8,-45.5 206,-45.5 206,-24.5 8,-24.5"/>
<polygon fill="none" stroke="black" points="8,-24.5 8,-45.5 206,-45.5 206,-24.5 8,-24.5"/>
<text text-anchor="start" x="11.5" y="-31.3" font-family="Times,serif" font-size="14.00">[INTEGER] c&#45;major&#45;device (0..1) </text>
</a>
</g>
<g id="a_node1_6"><a xlink:href="/idmef_parser/IDMEF/Inode.html" xlink:title="The minor device of the file itself, if it is a character special device.">
<polygon fill="#ffcc00" stroke="none" points="8,-3.5 8,-24.5 206,-24.5 206,-3.5 8,-3.5"/>
<polygon fill="none" stroke="black" points="8,-3.5 8,-24.5 206,-24.5 206,-3.5 8,-3.5"/>
<text text-anchor="start" x="11" y="-10.3" font-family="Times,serif" font-size="14.00">[INTEGER] c&#45;minor&#45;device (0..1) </text>
</a>
</g>
</g>
</g>
</svg>
