<?xml version="1.0" encoding="UTF-8" standalone="no"?>
<!DOCTYPE svg PUBLIC "-//W3C//DTD SVG 1.1//EN"
 "http://www.w3.org/Graphics/SVG/1.1/DTD/svg11.dtd">
<!-- Generated by graphviz version 2.26.3 (20100126.1600)
 -->
<!-- Title: Linkage Pages: 1 -->
<svg width="1030pt" height="368pt"
 viewBox="0.00 0.00 1030.00 368.00" xmlns="http://www.w3.org/2000/svg" xmlns:xlink="http://www.w3.org/1999/xlink">
<g id="graph1" class="graph" transform="scale(1 1) rotate(0) translate(4 364)">
<title>Linkage</title>
<polygon fill="white" stroke="white" points="-4,5 -4,-364 1027,-364 1027,5 -4,5"/>
<!-- Linkage -->
<g id="node1" class="node"><title>Linkage</title>
<a xlink:href="#" xlink:title="The Linkage class represents file system connections between the file described in the &lt;File&gt; element and other objects in the file system. For example, if the &lt;File&gt; element is a symbolic link or shortcut, then the &lt;Linkage&gt; element should contain the name of the object the link points to. Further information can be provided about the object in the &lt;Linkage&gt; element with another &lt;File&gt; element, if appropriate. ">
<polygon fill="#997a00" stroke="#997a00" points="8,-199 8,-220 152,-220 152,-199 8,-199"/>
<polygon fill="none" stroke="black" points="8,-199 8,-220 152,-220 152,-199 8,-199"/>
<text text-anchor="start" x="52.5" y="-206.233" font-family="Times Roman,serif" font-size="14.00">Linkage</text>
</a>
<a xlink:href="#" xlink:title="The name of the file system object, not including the path.">
<polygon fill="#ffcc00" stroke="#ffcc00" points="8,-179 8,-199 152,-199 152,-179 8,-179"/>
<polygon fill="none" stroke="black" points="8,-179 8,-199 152,-199 152,-179 8,-179"/>
<text text-anchor="start" x="12" y="-185.733" font-family="Times Roman,serif" font-size="14.00">[STRING] name (1) </text>
</a>
<a xlink:href="#" xlink:title="The full path to the file system object, including the name. &#160;The path name should be represented in as &quot;universal&quot; a manner as possible, to facilitate processing of the alert.">
<polygon fill="#ffcc00" stroke="#ffcc00" points="8,-159 8,-179 152,-179 152,-159 8,-159"/>
<polygon fill="none" stroke="black" points="8,-159 8,-179 152,-179 152,-159 8,-159"/>
<text text-anchor="start" x="15" y="-165.733" font-family="Times Roman,serif" font-size="14.00">[STRING] path (1) </text>
</a>
<a xlink:href="#" xlink:title="Section 10.)">
<polygon fill="#ffcc00" stroke="#ffcc00" points="8,-139 8,-159 152,-159 152,-139 8,-139"/>
<polygon fill="none" stroke="black" points="8,-139 8,-159 152,-159 152,-139 8,-139"/>
<text text-anchor="start" x="11.5" y="-145.733" font-family="Times Roman,serif" font-size="14.00">[ENUM] category () </text>
</a>
</g>
<!-- File -->
<g id="node2" class="node"><title>File</title>
<a xlink:href="#" xlink:title="The File class provides specific information about a file or other file&#45;like object that has been created, deleted, or modified on the target. The description can provide either the file settings prior to the event or the file settings at the time of the event, as specified using the &quot;category&quot; attribute. ">
<polygon fill="#997a00" stroke="#997a00" points="230,-269 230,-290 454,-290 454,-269 230,-269"/>
<polygon fill="none" stroke="black" points="230,-269 230,-290 454,-290 454,-269 230,-269"/>
<text text-anchor="start" x="330" y="-276.233" font-family="Times Roman,serif" font-size="14.00">File</text>
</a>
<a xlink:href="#" xlink:title="The name of the file to which the alert applies, not including the path to the file.">
<polygon fill="#ffcc00" stroke="#ffcc00" points="230,-249 230,-269 454,-269 454,-249 230,-249"/>
<polygon fill="none" stroke="black" points="230,-249 230,-269 454,-269 454,-249 230,-249"/>
<text text-anchor="start" x="274" y="-255.733" font-family="Times Roman,serif" font-size="14.00">[STRING] name (1) </text>
</a>
<a xlink:href="#" xlink:title="The full path to the file, including the name. &#160;The path name should be represented in as &quot;universal&quot; a manner as possible, to facilitate processing of the alert.">
<polygon fill="#ffcc00" stroke="#ffcc00" points="230,-229 230,-249 454,-249 454,-229 230,-229"/>
<polygon fill="none" stroke="black" points="230,-229 230,-249 454,-249 454,-229 230,-229"/>
<text text-anchor="start" x="277" y="-235.733" font-family="Times Roman,serif" font-size="14.00">[STRING] path (1) </text>
</a>
<a xlink:href="#" xlink:title="Time the file was created. &#160;Note that this is *not* the Unix &quot;st_ctime&quot; file attribute (which is not file creation time). &#160;The Unix &quot;st_ctime&quot; attribute is contained in the &quot;Inode&quot; class.">
<polygon fill="#ffcc00" stroke="#ffcc00" points="230,-209 230,-229 454,-229 454,-209 230,-209"/>
<polygon fill="none" stroke="black" points="230,-209 230,-229 454,-229 454,-209 230,-209"/>
<text text-anchor="start" x="235" y="-215.733" font-family="Times Roman,serif" font-size="14.00">[DATETIME] create&#45;time (0..1) </text>
</a>
<a xlink:href="#" xlink:title="Time the file was last modified.">
<polygon fill="#ffcc00" stroke="#ffcc00" points="230,-189 230,-209 454,-209 454,-189 230,-189"/>
<polygon fill="none" stroke="black" points="230,-189 230,-209 454,-209 454,-189 230,-189"/>
<text text-anchor="start" x="233.5" y="-195.733" font-family="Times Roman,serif" font-size="14.00">[DATETIME] modify&#45;time (0..1) </text>
</a>
<a xlink:href="#" xlink:title="Time the file was last accessed.">
<polygon fill="#ffcc00" stroke="#ffcc00" points="230,-169 230,-189 454,-189 454,-169 230,-169"/>
<polygon fill="none" stroke="black" points="230,-169 230,-189 454,-189 454,-169 230,-169"/>
<text text-anchor="start" x="235" y="-175.733" font-family="Times Roman,serif" font-size="14.00">[DATETIME] access&#45;time (0..1) </text>
</a>
<a xlink:href="#" xlink:title="The size of the data, in bytes. &#160;Typically what is meant when referring to file size. &#160;On Unix UFS file systems, this value corresponds to stat.st_size. &#160;On Windows NTFS, this value corresponds to Valid Data Length (VDL).">
<polygon fill="#ffcc00" stroke="#ffcc00" points="230,-149 230,-169 454,-169 454,-149 230,-149"/>
<polygon fill="none" stroke="black" points="230,-149 230,-169 454,-169 454,-149 230,-149"/>
<text text-anchor="start" x="248" y="-155.733" font-family="Times Roman,serif" font-size="14.00">[INTEGER] data&#45;size (0..1) </text>
</a>
<a xlink:href="#" xlink:title="The physical space on disk consumed by the file, in bytes. &#160;On Unix UFS file systems, this value corresponds to 512 * stat.st_blocks. &#160;On Windows NTFS, this value corresponds to End of File (EOF).">
<polygon fill="#ffcc00" stroke="#ffcc00" points="230,-129 230,-149 454,-149 454,-129 230,-129"/>
<polygon fill="none" stroke="black" points="230,-129 230,-149 454,-149 454,-129 230,-129"/>
<text text-anchor="start" x="250" y="-135.733" font-family="Times Roman,serif" font-size="14.00">[INTEGER] disk&#45;size (0..1) </text>
</a>
<a xlink:href="#" xlink:title="A unique identifier for this file; see Section 3.2.9.">
<polygon fill="#ffcc00" stroke="#ffcc00" points="230,-109 230,-129 454,-129 454,-109 230,-109"/>
<polygon fill="none" stroke="black" points="230,-109 230,-129 454,-129 454,-109 230,-109"/>
<text text-anchor="start" x="293.5" y="-115.733" font-family="Times Roman,serif" font-size="14.00">[] ident (0..1) </text>
</a>
<a xlink:href="#" xlink:title="The type of file system the file resides on. &#160;This attribute governs how path names and other attributes are interpreted.">
<polygon fill="#ffcc00" stroke="#ffcc00" points="230,-89 230,-109 454,-109 454,-89 230,-89"/>
<polygon fill="none" stroke="black" points="230,-89 230,-109 454,-109 454,-89 230,-89"/>
<text text-anchor="start" x="281" y="-95.7333" font-family="Times Roman,serif" font-size="14.00">[] category (0..1) </text>
</a>
<a xlink:href="#" xlink:title="The type of file, as a mime&#45;type.">
<polygon fill="#ffcc00" stroke="#ffcc00" points="230,-69 230,-89 454,-89 454,-69 230,-69"/>
<polygon fill="none" stroke="black" points="230,-69 230,-89 454,-89 454,-69 230,-69"/>
<text text-anchor="start" x="283" y="-75.7333" font-family="Times Roman,serif" font-size="14.00">[] file&#45;type (0..1) </text>
</a>
</g>
<!-- Linkage&#45;&gt;File -->
<g id="edge12" class="edge"><title>Linkage&#45;&gt;File</title>
<path fill="none" stroke="black" d="M160.032,-180C176.386,-180 193.995,-180 211.59,-180"/>
<polygon fill="black" stroke="black" points="211.939,-183.5 221.939,-180 211.939,-176.5 211.939,-183.5"/>
<text text-anchor="middle" x="191" y="-184.4" font-family="Times Roman,serif" font-size="14.00">1</text>
</g>
<!-- File&#45;&gt;Linkage -->
<g id="edge6" class="edge"><title>File&#45;&gt;Linkage</title>
<path fill="none" stroke="black" d="M221.592,-160.209C206.916,-159.522 192.123,-159.644 178,-161 175.434,-161.246 172.835,-161.528 170.216,-161.841"/>
<polygon fill="black" stroke="black" points="169.495,-158.406 160.041,-163.187 170.413,-165.345 169.495,-158.406"/>
<text text-anchor="middle" x="191" y="-165.4" font-family="Times Roman,serif" font-size="14.00">0..*</text>
</g>
<!-- FileAccess -->
<g id="node3" class="node"><title>FileAccess</title>
<a xlink:href="#" xlink:title="The FileAccess class represents the access permissions on a file. The representation is intended to be useful across operating systems. ">
<polygon fill="#997a00" stroke="#997a00" points="559,-295 559,-316 742,-316 742,-295 559,-295"/>
<polygon fill="none" stroke="black" points="559,-295 559,-316 742,-316 742,-295 559,-295"/>
<text text-anchor="start" x="616" y="-302.233" font-family="Times Roman,serif" font-size="14.00">FileAccess</text>
</a>
<a xlink:href="#" xlink:title="Level of access allowed. &#160;The permitted values are shown below. &#160;There is no default value. &#160;(See also Section 10.)">
<polygon fill="#ffcc00" stroke="#ffcc00" points="559,-275 559,-295 742,-295 742,-275 559,-275"/>
<polygon fill="none" stroke="black" points="559,-275 559,-295 742,-295 742,-275 559,-275"/>
<text text-anchor="start" x="562.5" y="-281.733" font-family="Times Roman,serif" font-size="14.00">[ENUM] Permission (1..*) </text>
</a>
</g>
<!-- File&#45;&gt;FileAccess -->
<g id="edge4" class="edge"><title>File&#45;&gt;FileAccess</title>
<path fill="none" stroke="black" d="M462.091,-237.556C483.15,-246.672 505.035,-255.538 526,-263 531.785,-265.059 537.761,-267.057 543.821,-268.983"/>
<polygon fill="black" stroke="black" points="542.809,-272.334 553.397,-271.95 544.881,-265.647 542.809,-272.334"/>
<text text-anchor="middle" x="494" y="-260.4" font-family="Times Roman,serif" font-size="14.00">0..*</text>
</g>
<!-- Inode -->
<g id="node8" class="node"><title>Inode</title>
<a xlink:href="#" xlink:title="The Inode class is used to represent the additional information contained in a Unix file system i&#45;node. ">
<polygon fill="#997a00" stroke="#997a00" points="534,-229 534,-250 766,-250 766,-229 534,-229"/>
<polygon fill="none" stroke="black" points="534,-229 534,-250 766,-250 766,-229 534,-229"/>
<text text-anchor="start" x="630.5" y="-236.233" font-family="Times Roman,serif" font-size="14.00">Inode</text>
</a>
<a xlink:href="#" xlink:title="The time of the last inode change, given by the st_ctime element of &quot;struct stat&quot;.">
<polygon fill="#ffcc00" stroke="#ffcc00" points="534,-209 534,-229 766,-229 766,-209 534,-209"/>
<polygon fill="none" stroke="black" points="534,-209 534,-229 766,-229 766,-209 534,-209"/>
<text text-anchor="start" x="540" y="-215.733" font-family="Times Roman,serif" font-size="14.00">[DATETIME] change&#45;time (0..1) </text>
</a>
<a xlink:href="#" xlink:title="The inode number.">
<polygon fill="#ffcc00" stroke="#ffcc00" points="534,-189 534,-209 766,-209 766,-189 534,-189"/>
<polygon fill="none" stroke="black" points="534,-189 534,-209 766,-209 766,-189 534,-189"/>
<text text-anchor="start" x="561" y="-195.733" font-family="Times Roman,serif" font-size="14.00">[INTEGER] number (0..1) </text>
</a>
<a xlink:href="#" xlink:title="The major device number of the device the file resides on.">
<polygon fill="#ffcc00" stroke="#ffcc00" points="534,-169 534,-189 766,-189 766,-169 534,-169"/>
<polygon fill="none" stroke="black" points="534,-169 534,-189 766,-189 766,-169 534,-169"/>
<text text-anchor="start" x="544" y="-175.733" font-family="Times Roman,serif" font-size="14.00">[INTEGER] major&#45;device (0..1) </text>
</a>
<a xlink:href="#" xlink:title="The minor device number of the device the file resides on.">
<polygon fill="#ffcc00" stroke="#ffcc00" points="534,-149 534,-169 766,-169 766,-149 534,-149"/>
<polygon fill="none" stroke="black" points="534,-149 534,-169 766,-169 766,-149 534,-149"/>
<text text-anchor="start" x="543.5" y="-155.733" font-family="Times Roman,serif" font-size="14.00">[INTEGER] minor&#45;device (0..1) </text>
</a>
<a xlink:href="#" xlink:title="The major device of the file itself, if it is a character special device.">
<polygon fill="#ffcc00" stroke="#ffcc00" points="534,-129 534,-149 766,-149 766,-129 534,-129"/>
<polygon fill="none" stroke="black" points="534,-129 534,-149 766,-149 766,-129 534,-129"/>
<text text-anchor="start" x="538" y="-135.733" font-family="Times Roman,serif" font-size="14.00">[INTEGER] c&#45;major&#45;device (0..1) </text>
</a>
<a xlink:href="#" xlink:title="The minor device of the file itself, if it is a character special device.">
<polygon fill="#ffcc00" stroke="#ffcc00" points="534,-109 534,-129 766,-129 766,-109 534,-109"/>
<polygon fill="none" stroke="black" points="534,-109 534,-129 766,-129 766,-109 534,-109"/>
<text text-anchor="start" x="537.5" y="-115.733" font-family="Times Roman,serif" font-size="14.00">[INTEGER] c&#45;minor&#45;device (0..1) </text>
</a>
</g>
<!-- File&#45;&gt;Inode -->
<g id="edge8" class="edge"><title>File&#45;&gt;Inode</title>
<path fill="none" stroke="black" d="M462.404,-180C479.823,-180 497.844,-180 515.517,-180"/>
<polygon fill="black" stroke="black" points="515.875,-183.5 525.875,-180 515.874,-176.5 515.875,-183.5"/>
<text text-anchor="middle" x="494" y="-184.4" font-family="Times Roman,serif" font-size="14.00">0..1</text>
</g>
<!-- Checksum -->
<g id="node10" class="node"><title>Checksum</title>
<a xlink:href="#" xlink:title="The Checksum class represents checksum information associated with the file. This checksum information can be provided by file integrity checkers, among others. ">
<polygon fill="#997a00" stroke="#997a00" points="575,-63 575,-84 725,-84 725,-63 575,-63"/>
<polygon fill="none" stroke="black" points="575,-63 575,-84 725,-84 725,-63 575,-63"/>
<text text-anchor="start" x="614.5" y="-70.2333" font-family="Times Roman,serif" font-size="14.00">Checksum</text>
</a>
<a xlink:href="#" xlink:title="The value of the checksum.">
<polygon fill="#ffcc00" stroke="#ffcc00" points="575,-43 575,-63 725,-63 725,-43 575,-43"/>
<polygon fill="none" stroke="black" points="575,-43 575,-63 725,-63 725,-43 575,-43"/>
<text text-anchor="start" x="582" y="-49.7333" font-family="Times Roman,serif" font-size="14.00">[STRING] value (1) </text>
</a>
<a xlink:href="#" xlink:title="The key to the checksum, if appropriate.">
<polygon fill="#ffcc00" stroke="#ffcc00" points="575,-23 575,-43 725,-43 725,-23 575,-23"/>
<polygon fill="none" stroke="black" points="575,-23 575,-43 725,-43 725,-23 575,-23"/>
<text text-anchor="start" x="580" y="-29.7333" font-family="Times Roman,serif" font-size="14.00">[STRING] key (0..1) </text>
</a>
<a xlink:href="#" xlink:title="default value. &#160;(See also Section 10.)">
<polygon fill="#ffcc00" stroke="#ffcc00" points="575,-3 575,-23 725,-23 725,-3 575,-3"/>
<polygon fill="none" stroke="black" points="575,-3 575,-23 725,-23 725,-3 575,-3"/>
<text text-anchor="start" x="578.5" y="-9.73333" font-family="Times Roman,serif" font-size="14.00">[ENUM] algorithm () </text>
</a>
</g>
<!-- File&#45;&gt;Checksum -->
<g id="edge10" class="edge"><title>File&#45;&gt;Checksum</title>
<path fill="none" stroke="black" d="M462.103,-125.41C483.357,-115.868 505.305,-106.089 526,-97 536.196,-92.5219 546.884,-87.8781 557.529,-83.2848"/>
<polygon fill="black" stroke="black" points="559.06,-86.4367 566.86,-79.2668 556.291,-80.0075 559.06,-86.4367"/>
<text text-anchor="middle" x="494" y="-122.4" font-family="Times Roman,serif" font-size="14.00">0..*</text>
</g>
<!-- UserId -->
<g id="node4" class="node"><title>UserId</title>
<a xlink:href="#" xlink:title="The UserId class provides specific information about a user. More than one UserId can be used within the User class to indicate attempts to transition from one user to another, or to provide complete information about a user&#39;s (or process&#39;) privileges. ">
<polygon fill="#3d7a99" stroke="#3d7a99" points="829,-335 829,-356 1014,-356 1014,-335 829,-335"/>
<polygon fill="none" stroke="black" points="829,-335 829,-356 1014,-356 1014,-335 829,-335"/>
<text text-anchor="start" x="899" y="-342.233" font-family="Times Roman,serif" font-size="14.00">UserId</text>
</a>
<a xlink:href="#" xlink:title="A user or group name.">
<polygon fill="#66ccff" stroke="#66ccff" points="829,-315 829,-335 1014,-335 1014,-315 829,-315"/>
<polygon fill="none" stroke="black" points="829,-315 829,-335 1014,-335 1014,-315 829,-315"/>
<text text-anchor="start" x="844.5" y="-321.733" font-family="Times Roman,serif" font-size="14.00">[STRING] name (0..1) </text>
</a>
<a xlink:href="#" xlink:title="A user or group number.">
<polygon fill="#66ccff" stroke="#66ccff" points="829,-295 829,-315 1014,-315 1014,-295 829,-295"/>
<polygon fill="none" stroke="black" points="829,-295 829,-315 1014,-315 1014,-295 829,-295"/>
<text text-anchor="start" x="832.5" y="-301.733" font-family="Times Roman,serif" font-size="14.00">[INTEGER] number (0..1) </text>
</a>
<a xlink:href="#" xlink:title="A unique identifier for the user id, see Section 3.2.9.">
<polygon fill="#66ccff" stroke="#66ccff" points="829,-275 829,-295 1014,-295 1014,-275 829,-275"/>
<polygon fill="none" stroke="black" points="829,-275 829,-295 1014,-295 1014,-275 829,-275"/>
<text text-anchor="start" x="857" y="-281.733" font-family="Times Roman,serif" font-size="14.00">[] ident (Optional) </text>
</a>
<a xlink:href="#" xlink:title="The type of user information represented. &#160;The permitted values for this attribute are shown below. &#160;The default value is &quot;original&#45;user&quot;. &#160;(See also Section 10.)">
<polygon fill="#66ccff" stroke="#66ccff" points="829,-255 829,-275 1014,-275 1014,-255 829,-255"/>
<polygon fill="none" stroke="black" points="829,-255 829,-275 1014,-275 1014,-255 829,-255"/>
<text text-anchor="start" x="838.5" y="-261.733" font-family="Times Roman,serif" font-size="14.00">[ENUM] type (Optional) </text>
</a>
<a xlink:href="#" xlink:title="The tty the user is using.">
<polygon fill="#66ccff" stroke="#66ccff" points="829,-235 829,-255 1014,-255 1014,-235 829,-235"/>
<polygon fill="none" stroke="black" points="829,-235 829,-255 1014,-255 1014,-235 829,-235"/>
<text text-anchor="start" x="837.5" y="-241.733" font-family="Times Roman,serif" font-size="14.00">[STRING] tty (Optional) </text>
</a>
</g>
<!-- FileAccess&#45;&gt;UserId -->
<g id="edge2" class="edge"><title>FileAccess&#45;&gt;UserId</title>
<path fill="none" stroke="black" d="M749.756,-296C769.38,-296 790.082,-296 810.048,-296"/>
<polygon fill="black" stroke="black" points="810.096,-299.5 820.096,-296 810.096,-292.5 810.096,-299.5"/>
<text text-anchor="middle" x="797" y="-300.4" font-family="Times Roman,serif" font-size="14.00">1</text>
</g>
</g>
</svg>
