<?xml version="1.0" encoding="UTF-8" standalone="no"?>
<!DOCTYPE svg PUBLIC "-//W3C//DTD SVG 1.1//EN"
 "http://www.w3.org/Graphics/SVG/1.1/DTD/svg11.dtd">
<!-- Generated by graphviz version 2.26.3 (20100126.1600)
 -->
<!-- Title: Linkage Pages: 1 -->
<svg width="1094pt" height="368pt"
 viewBox="0.00 0.00 1094.00 368.00" xmlns="http://www.w3.org/2000/svg" xmlns:xlink="http://www.w3.org/1999/xlink">
<g id="graph1" class="graph" transform="scale(1 1) rotate(0) translate(4 364)">
<title>Linkage</title>
<polygon fill="white" stroke="white" points="-4,5 -4,-364 1091,-364 1091,5 -4,5"/>
<!-- Linkage -->
<g id="node1" class="node"><title>Linkage</title>
<a xlink:href="#" xlink:title="The Linkage class represents file system connections between the file described in the &lt;File&gt; element and other objects in the file system. For example, if the &lt;File&gt; element is a symbolic link or shortcut, then the &lt;Linkage&gt; element should contain the name of the object the link points to. Further information can be provided about the object in the &lt;Linkage&gt; element with another &lt;File&gt; element, if appropriate. ">
<polygon fill="#997a00" stroke="#997a00" points="9,-199 9,-220 212,-220 212,-199 9,-199"/>
<polygon fill="none" stroke="black" points="9,-199 9,-220 212,-220 212,-199 9,-199"/>
<text text-anchor="start" x="83" y="-206.233" font-family="Times Roman,serif" font-size="14.00">Linkage</text>
</a>
<a xlink:href="#" xlink:title="The name of the file system object, not including the path.">
<polygon fill="#ffcc00" stroke="#ffcc00" points="9,-179 9,-199 212,-199 212,-179 9,-179"/>
<polygon fill="none" stroke="black" points="9,-179 9,-199 212,-199 212,-179 9,-179"/>
<text text-anchor="start" x="42.5" y="-185.733" font-family="Times Roman,serif" font-size="14.00">[STRING] name (1) </text>
</a>
<a xlink:href="#" xlink:title="The full path to the file system object, including the name. &#160;The path name should be represented in as &quot;universal&quot; a manner as possible, to facilitate processing of the alert.">
<polygon fill="#ffcc00" stroke="#ffcc00" points="9,-159 9,-179 212,-179 212,-159 9,-159"/>
<polygon fill="none" stroke="black" points="9,-159 9,-179 212,-179 212,-159 9,-159"/>
<text text-anchor="start" x="45.5" y="-165.733" font-family="Times Roman,serif" font-size="14.00">[STRING] path (1) </text>
</a>
<a xlink:href="#" xlink:title="Section 10.)">
<polygon fill="#ffcc00" stroke="#ffcc00" points="9,-139 9,-159 212,-159 212,-139 9,-139"/>
<polygon fill="none" stroke="black" points="9,-139 9,-159 212,-159 212,-139 9,-139"/>
<text text-anchor="start" x="12.5" y="-145.733" font-family="Times Roman,serif" font-size="14.00">[ENUM] category (Optional) </text>
</a>
</g>
<!-- File -->
<g id="node2" class="node"><title>File</title>
<a xlink:href="#" xlink:title="The File class provides specific information about a file or other file&#45;like object that has been created, deleted, or modified on the target. The description can provide either the file settings prior to the event or the file settings at the time of the event, as specified using the &quot;category&quot; attribute. ">
<polygon fill="#997a00" stroke="#997a00" points="290,-269 290,-290 514,-290 514,-269 290,-269"/>
<polygon fill="none" stroke="black" points="290,-269 290,-290 514,-290 514,-269 290,-269"/>
<text text-anchor="start" x="390" y="-276.233" font-family="Times Roman,serif" font-size="14.00">File</text>
</a>
<a xlink:href="#" xlink:title="The name of the file to which the alert applies, not including the path to the file.">
<polygon fill="#ffcc00" stroke="#ffcc00" points="290,-249 290,-269 514,-269 514,-249 290,-249"/>
<polygon fill="none" stroke="black" points="290,-249 290,-269 514,-269 514,-249 290,-249"/>
<text text-anchor="start" x="334" y="-255.733" font-family="Times Roman,serif" font-size="14.00">[STRING] name (1) </text>
</a>
<a xlink:href="#" xlink:title="The full path to the file, including the name. &#160;The path name should be represented in as &quot;universal&quot; a manner as possible, to facilitate processing of the alert.">
<polygon fill="#ffcc00" stroke="#ffcc00" points="290,-229 290,-249 514,-249 514,-229 290,-229"/>
<polygon fill="none" stroke="black" points="290,-229 290,-249 514,-249 514,-229 290,-229"/>
<text text-anchor="start" x="337" y="-235.733" font-family="Times Roman,serif" font-size="14.00">[STRING] path (1) </text>
</a>
<a xlink:href="#" xlink:title="Time the file was created. &#160;Note that this is *not* the Unix &quot;st_ctime&quot; file attribute (which is not file creation time). &#160;The Unix &quot;st_ctime&quot; attribute is contained in the &quot;Inode&quot; class.">
<polygon fill="#ffcc00" stroke="#ffcc00" points="290,-209 290,-229 514,-229 514,-209 290,-209"/>
<polygon fill="none" stroke="black" points="290,-209 290,-229 514,-229 514,-209 290,-209"/>
<text text-anchor="start" x="295" y="-215.733" font-family="Times Roman,serif" font-size="14.00">[DATETIME] create&#45;time (0..1) </text>
</a>
<a xlink:href="#" xlink:title="Time the file was last modified.">
<polygon fill="#ffcc00" stroke="#ffcc00" points="290,-189 290,-209 514,-209 514,-189 290,-189"/>
<polygon fill="none" stroke="black" points="290,-189 290,-209 514,-209 514,-189 290,-189"/>
<text text-anchor="start" x="293.5" y="-195.733" font-family="Times Roman,serif" font-size="14.00">[DATETIME] modify&#45;time (0..1) </text>
</a>
<a xlink:href="#" xlink:title="Time the file was last accessed.">
<polygon fill="#ffcc00" stroke="#ffcc00" points="290,-169 290,-189 514,-189 514,-169 290,-169"/>
<polygon fill="none" stroke="black" points="290,-169 290,-189 514,-189 514,-169 290,-169"/>
<text text-anchor="start" x="295" y="-175.733" font-family="Times Roman,serif" font-size="14.00">[DATETIME] access&#45;time (0..1) </text>
</a>
<a xlink:href="#" xlink:title="The size of the data, in bytes. &#160;Typically what is meant when referring to file size. &#160;On Unix UFS file systems, this value corresponds to stat.st_size. &#160;On Windows NTFS, this value corresponds to Valid Data Length (VDL).">
<polygon fill="#ffcc00" stroke="#ffcc00" points="290,-149 290,-169 514,-169 514,-149 290,-149"/>
<polygon fill="none" stroke="black" points="290,-149 290,-169 514,-169 514,-149 290,-149"/>
<text text-anchor="start" x="308" y="-155.733" font-family="Times Roman,serif" font-size="14.00">[INTEGER] data&#45;size (0..1) </text>
</a>
<a xlink:href="#" xlink:title="The physical space on disk consumed by the file, in bytes. &#160;On Unix UFS file systems, this value corresponds to 512 * stat.st_blocks. &#160;On Windows NTFS, this value corresponds to End of File (EOF).">
<polygon fill="#ffcc00" stroke="#ffcc00" points="290,-129 290,-149 514,-149 514,-129 290,-129"/>
<polygon fill="none" stroke="black" points="290,-129 290,-149 514,-149 514,-129 290,-129"/>
<text text-anchor="start" x="310" y="-135.733" font-family="Times Roman,serif" font-size="14.00">[INTEGER] disk&#45;size (0..1) </text>
</a>
<a xlink:href="#" xlink:title="A unique identifier for this file; see Section 3.2.9.">
<polygon fill="#ffcc00" stroke="#ffcc00" points="290,-109 290,-129 514,-129 514,-109 290,-109"/>
<polygon fill="none" stroke="black" points="290,-109 290,-129 514,-129 514,-109 290,-109"/>
<text text-anchor="start" x="326.5" y="-115.733" font-family="Times Roman,serif" font-size="14.00">[STRING] ident (0..1) </text>
</a>
<a xlink:href="#" xlink:title="The type of file system the file resides on. &#160;This attribute governs how path names and other attributes are interpreted.">
<polygon fill="#ffcc00" stroke="#ffcc00" points="290,-89 290,-109 514,-109 514,-89 290,-89"/>
<polygon fill="none" stroke="black" points="290,-89 290,-109 514,-109 514,-89 290,-89"/>
<text text-anchor="start" x="341" y="-95.7333" font-family="Times Roman,serif" font-size="14.00">[] category (0..1) </text>
</a>
<a xlink:href="#" xlink:title="The type of file, as a mime&#45;type.">
<polygon fill="#ffcc00" stroke="#ffcc00" points="290,-69 290,-89 514,-89 514,-69 290,-69"/>
<polygon fill="none" stroke="black" points="290,-69 290,-89 514,-89 514,-69 290,-69"/>
<text text-anchor="start" x="343" y="-75.7333" font-family="Times Roman,serif" font-size="14.00">[] file&#45;type (0..1) </text>
</a>
</g>
<!-- Linkage&#45;&gt;File -->
<g id="edge12" class="edge"><title>Linkage&#45;&gt;File</title>
<path fill="none" stroke="black" d="M219.561,-180C236.471,-180 254.077,-180 271.392,-180"/>
<polygon fill="black" stroke="black" points="271.545,-183.5 281.545,-180 271.545,-176.5 271.545,-183.5"/>
<text text-anchor="middle" x="251" y="-184.4" font-family="Times Roman,serif" font-size="14.00">1</text>
</g>
<!-- File&#45;&gt;Linkage -->
<g id="edge6" class="edge"><title>File&#45;&gt;Linkage</title>
<path fill="none" stroke="black" d="M281.644,-160.818C266.959,-160.025 252.15,-159.956 238,-161 235.259,-161.202 232.487,-161.429 229.695,-161.676"/>
<polygon fill="black" stroke="black" points="229.124,-158.215 219.507,-162.661 229.798,-165.183 229.124,-158.215"/>
<text text-anchor="middle" x="251" y="-165.4" font-family="Times Roman,serif" font-size="14.00">0..*</text>
</g>
<!-- FileAccess -->
<g id="node3" class="node"><title>FileAccess</title>
<a xlink:href="#" xlink:title="The FileAccess class represents the access permissions on a file. The representation is intended to be useful across operating systems. ">
<polygon fill="#997a00" stroke="#997a00" points="619,-295 619,-316 802,-316 802,-295 619,-295"/>
<polygon fill="none" stroke="black" points="619,-295 619,-316 802,-316 802,-295 619,-295"/>
<text text-anchor="start" x="676" y="-302.233" font-family="Times Roman,serif" font-size="14.00">FileAccess</text>
</a>
<a xlink:href="#" xlink:title="Level of access allowed. &#160;The permitted values are shown below. &#160;There is no default value. &#160;(See also Section 10.)">
<polygon fill="#ffcc00" stroke="#ffcc00" points="619,-275 619,-295 802,-295 802,-275 619,-275"/>
<polygon fill="none" stroke="black" points="619,-275 619,-295 802,-295 802,-275 619,-275"/>
<text text-anchor="start" x="622.5" y="-281.733" font-family="Times Roman,serif" font-size="14.00">[ENUM] Permission (1..*) </text>
</a>
</g>
<!-- File&#45;&gt;FileAccess -->
<g id="edge4" class="edge"><title>File&#45;&gt;FileAccess</title>
<path fill="none" stroke="black" d="M522.091,-237.556C543.15,-246.672 565.035,-255.538 586,-263 591.785,-265.059 597.761,-267.057 603.821,-268.983"/>
<polygon fill="black" stroke="black" points="602.809,-272.334 613.397,-271.95 604.881,-265.647 602.809,-272.334"/>
<text text-anchor="middle" x="554" y="-260.4" font-family="Times Roman,serif" font-size="14.00">0..*</text>
</g>
<!-- Inode -->
<g id="node8" class="node"><title>Inode</title>
<a xlink:href="#" xlink:title="The Inode class is used to represent the additional information contained in a Unix file system i&#45;node. ">
<polygon fill="#997a00" stroke="#997a00" points="594,-229 594,-250 826,-250 826,-229 594,-229"/>
<polygon fill="none" stroke="black" points="594,-229 594,-250 826,-250 826,-229 594,-229"/>
<text text-anchor="start" x="690.5" y="-236.233" font-family="Times Roman,serif" font-size="14.00">Inode</text>
</a>
<a xlink:href="#" xlink:title="The time of the last inode change, given by the st_ctime element of &quot;struct stat&quot;.">
<polygon fill="#ffcc00" stroke="#ffcc00" points="594,-209 594,-229 826,-229 826,-209 594,-209"/>
<polygon fill="none" stroke="black" points="594,-209 594,-229 826,-229 826,-209 594,-209"/>
<text text-anchor="start" x="600" y="-215.733" font-family="Times Roman,serif" font-size="14.00">[DATETIME] change&#45;time (0..1) </text>
</a>
<a xlink:href="#" xlink:title="The inode number.">
<polygon fill="#ffcc00" stroke="#ffcc00" points="594,-189 594,-209 826,-209 826,-189 594,-189"/>
<polygon fill="none" stroke="black" points="594,-189 594,-209 826,-209 826,-189 594,-189"/>
<text text-anchor="start" x="621" y="-195.733" font-family="Times Roman,serif" font-size="14.00">[INTEGER] number (0..1) </text>
</a>
<a xlink:href="#" xlink:title="The major device number of the device the file resides on.">
<polygon fill="#ffcc00" stroke="#ffcc00" points="594,-169 594,-189 826,-189 826,-169 594,-169"/>
<polygon fill="none" stroke="black" points="594,-169 594,-189 826,-189 826,-169 594,-169"/>
<text text-anchor="start" x="604" y="-175.733" font-family="Times Roman,serif" font-size="14.00">[INTEGER] major&#45;device (0..1) </text>
</a>
<a xlink:href="#" xlink:title="The minor device number of the device the file resides on.">
<polygon fill="#ffcc00" stroke="#ffcc00" points="594,-149 594,-169 826,-169 826,-149 594,-149"/>
<polygon fill="none" stroke="black" points="594,-149 594,-169 826,-169 826,-149 594,-149"/>
<text text-anchor="start" x="603.5" y="-155.733" font-family="Times Roman,serif" font-size="14.00">[INTEGER] minor&#45;device (0..1) </text>
</a>
<a xlink:href="#" xlink:title="The major device of the file itself, if it is a character special device.">
<polygon fill="#ffcc00" stroke="#ffcc00" points="594,-129 594,-149 826,-149 826,-129 594,-129"/>
<polygon fill="none" stroke="black" points="594,-129 594,-149 826,-149 826,-129 594,-129"/>
<text text-anchor="start" x="598" y="-135.733" font-family="Times Roman,serif" font-size="14.00">[INTEGER] c&#45;major&#45;device (0..1) </text>
</a>
<a xlink:href="#" xlink:title="The minor device of the file itself, if it is a character special device.">
<polygon fill="#ffcc00" stroke="#ffcc00" points="594,-109 594,-129 826,-129 826,-109 594,-109"/>
<polygon fill="none" stroke="black" points="594,-109 594,-129 826,-129 826,-109 594,-109"/>
<text text-anchor="start" x="597.5" y="-115.733" font-family="Times Roman,serif" font-size="14.00">[INTEGER] c&#45;minor&#45;device (0..1) </text>
</a>
</g>
<!-- File&#45;&gt;Inode -->
<g id="edge8" class="edge"><title>File&#45;&gt;Inode</title>
<path fill="none" stroke="black" d="M522.404,-180C539.823,-180 557.844,-180 575.517,-180"/>
<polygon fill="black" stroke="black" points="575.875,-183.5 585.875,-180 575.874,-176.5 575.875,-183.5"/>
<text text-anchor="middle" x="554" y="-184.4" font-family="Times Roman,serif" font-size="14.00">0..1</text>
</g>
<!-- Checksum -->
<g id="node10" class="node"><title>Checksum</title>
<a xlink:href="#" xlink:title="The Checksum class represents checksum information associated with the file. This checksum information can be provided by file integrity checkers, among others. ">
<polygon fill="#997a00" stroke="#997a00" points="605,-63 605,-84 816,-84 816,-63 605,-63"/>
<polygon fill="none" stroke="black" points="605,-63 605,-84 816,-84 816,-63 605,-63"/>
<text text-anchor="start" x="675" y="-70.2333" font-family="Times Roman,serif" font-size="14.00">Checksum</text>
</a>
<a xlink:href="#" xlink:title="The value of the checksum.">
<polygon fill="#ffcc00" stroke="#ffcc00" points="605,-43 605,-63 816,-63 816,-43 605,-43"/>
<polygon fill="none" stroke="black" points="605,-43 605,-63 816,-63 816,-43 605,-43"/>
<text text-anchor="start" x="642.5" y="-49.7333" font-family="Times Roman,serif" font-size="14.00">[STRING] value (1) </text>
</a>
<a xlink:href="#" xlink:title="The key to the checksum, if appropriate.">
<polygon fill="#ffcc00" stroke="#ffcc00" points="605,-23 605,-43 816,-43 816,-23 605,-23"/>
<polygon fill="none" stroke="black" points="605,-23 605,-43 816,-43 816,-23 605,-23"/>
<text text-anchor="start" x="640.5" y="-29.7333" font-family="Times Roman,serif" font-size="14.00">[STRING] key (0..1) </text>
</a>
<a xlink:href="#" xlink:title="default value. &#160;(See also Section 10.)">
<polygon fill="#ffcc00" stroke="#ffcc00" points="605,-3 605,-23 816,-23 816,-3 605,-3"/>
<polygon fill="none" stroke="black" points="605,-3 605,-23 816,-23 816,-3 605,-3"/>
<text text-anchor="start" x="608.5" y="-9.73333" font-family="Times Roman,serif" font-size="14.00">[ENUM] algorithm (Required) </text>
</a>
</g>
<!-- File&#45;&gt;Checksum -->
<g id="edge10" class="edge"><title>File&#45;&gt;Checksum</title>
<path fill="none" stroke="black" d="M522.103,-125.41C543.357,-115.868 565.305,-106.089 586,-97 589.634,-95.404 593.33,-93.7869 597.065,-92.1585"/>
<polygon fill="black" stroke="black" points="598.639,-95.2908 606.414,-88.0933 595.848,-88.8714 598.639,-95.2908"/>
<text text-anchor="middle" x="554" y="-122.4" font-family="Times Roman,serif" font-size="14.00">0..*</text>
</g>
<!-- UserId -->
<g id="node4" class="node"><title>UserId</title>
<a xlink:href="#" xlink:title="The UserId class provides specific information about a user. More than one UserId can be used within the User class to indicate attempts to transition from one user to another, or to provide complete information about a user&#39;s (or process&#39;) privileges. ">
<polygon fill="#3d7a99" stroke="#3d7a99" points="888,-335 888,-356 1078,-356 1078,-335 888,-335"/>
<polygon fill="none" stroke="black" points="888,-335 888,-356 1078,-356 1078,-335 888,-335"/>
<text text-anchor="start" x="960.5" y="-342.233" font-family="Times Roman,serif" font-size="14.00">UserId</text>
</a>
<a xlink:href="#" xlink:title="A user or group name.">
<polygon fill="#66ccff" stroke="#66ccff" points="888,-315 888,-335 1078,-335 1078,-315 888,-315"/>
<polygon fill="none" stroke="black" points="888,-315 888,-335 1078,-335 1078,-315 888,-315"/>
<text text-anchor="start" x="906" y="-321.733" font-family="Times Roman,serif" font-size="14.00">[STRING] name (0..1) </text>
</a>
<a xlink:href="#" xlink:title="A user or group number.">
<polygon fill="#66ccff" stroke="#66ccff" points="888,-295 888,-315 1078,-315 1078,-295 888,-295"/>
<polygon fill="none" stroke="black" points="888,-295 888,-315 1078,-315 1078,-295 888,-295"/>
<text text-anchor="start" x="894" y="-301.733" font-family="Times Roman,serif" font-size="14.00">[INTEGER] number (0..1) </text>
</a>
<a xlink:href="#" xlink:title="A unique identifier for the user id, see Section 3.2.9.">
<polygon fill="#66ccff" stroke="#66ccff" points="888,-275 888,-295 1078,-295 1078,-275 888,-275"/>
<polygon fill="none" stroke="black" points="888,-275 888,-295 1078,-295 1078,-275 888,-275"/>
<text text-anchor="start" x="891.5" y="-281.733" font-family="Times Roman,serif" font-size="14.00">[STRING] ident (Optional) </text>
</a>
<a xlink:href="#" xlink:title="The type of user information represented. &#160;The permitted values for this attribute are shown below. &#160;The default value is &quot;original&#45;user&quot;. &#160;(See also Section 10.)">
<polygon fill="#66ccff" stroke="#66ccff" points="888,-255 888,-275 1078,-275 1078,-255 888,-255"/>
<polygon fill="none" stroke="black" points="888,-255 888,-275 1078,-275 1078,-255 888,-255"/>
<text text-anchor="start" x="900" y="-261.733" font-family="Times Roman,serif" font-size="14.00">[ENUM] type (Optional) </text>
</a>
<a xlink:href="#" xlink:title="The tty the user is using.">
<polygon fill="#66ccff" stroke="#66ccff" points="888,-235 888,-255 1078,-255 1078,-235 888,-235"/>
<polygon fill="none" stroke="black" points="888,-235 888,-255 1078,-255 1078,-235 888,-235"/>
<text text-anchor="start" x="899" y="-241.733" font-family="Times Roman,serif" font-size="14.00">[STRING] tty (Optional) </text>
</a>
</g>
<!-- FileAccess&#45;&gt;UserId -->
<g id="edge2" class="edge"><title>FileAccess&#45;&gt;UserId</title>
<path fill="none" stroke="black" d="M809.718,-296C829.263,-296 849.896,-296 869.843,-296"/>
<polygon fill="black" stroke="black" points="869.886,-299.5 879.886,-296 869.886,-292.5 869.886,-299.5"/>
<text text-anchor="middle" x="857" y="-300.4" font-family="Times Roman,serif" font-size="14.00">1</text>
</g>
</g>
</svg>
