<?xml version="1.0" encoding="UTF-8" standalone="no"?>
<!DOCTYPE svg PUBLIC "-//W3C//DTD SVG 1.1//EN"
 "http://www.w3.org/Graphics/SVG/1.1/DTD/svg11.dtd">
<!-- Generated by graphviz version 2.26.3 (20100126.1600)
 -->
<!-- Title: OverflowAlert Pages: 1 -->
<svg width="188pt" height="96pt"
 viewBox="0.00 0.00 188.00 96.00" xmlns="http://www.w3.org/2000/svg" xmlns:xlink="http://www.w3.org/1999/xlink">
<g id="graph1" class="graph" transform="scale(1 1) rotate(0) translate(4 92)">
<title>OverflowAlert</title>
<polygon fill="white" stroke="white" points="-4,5 -4,-92 185,-92 185,5 -4,5"/>
<!-- OverflowAlert -->
<g id="node1" class="node"><title>OverflowAlert</title>
<a xlink:href="/idmef_parser/IDMEF/OverflowAlert.html" xlink:title="The OverflowAlert carries additional information related to buffer overflow attacks. It is intended to enable an analyzer to provide the details of the overflow attack itself. ">
<polygon fill="#737373" stroke="#737373" points="9,-63 9,-84 172,-84 172,-63 9,-63"/>
<polygon fill="none" stroke="black" points="9,-63 9,-84 172,-84 172,-63 9,-63"/>
<text text-anchor="start" x="41.5" y="-70.2333" font-family="Times Roman,serif" font-size="14.00">OverflowAlert</text>
</a>
<a xlink:href="/idmef_parser/IDMEF/OverflowAlert.html" xlink:title="The program that the overflow attack attempted to run (NOTE: this is not the program that was attacked).">
<polygon fill="#bfbfbf" stroke="#bfbfbf" points="9,-43 9,-63 172,-63 172,-43 9,-43"/>
<polygon fill="none" stroke="black" points="9,-43 9,-63 172,-63 172,-43 9,-43"/>
<text text-anchor="start" x="12.5" y="-49.7333" font-family="Times Roman,serif" font-size="14.00">[STRING] program (1) </text>
</a>
<a xlink:href="/idmef_parser/IDMEF/OverflowAlert.html" xlink:title="The size, in bytes, of the overflow (i.e., the number of bytes the attacker sent).">
<polygon fill="#bfbfbf" stroke="#bfbfbf" points="9,-23 9,-43 172,-43 172,-23 9,-23"/>
<polygon fill="none" stroke="black" points="9,-23 9,-43 172,-43 172,-23 9,-23"/>
<text text-anchor="start" x="14.5" y="-29.7333" font-family="Times Roman,serif" font-size="14.00">[INTEGER] size (0..1) </text>
</a>
<a xlink:href="/idmef_parser/IDMEF/OverflowAlert.html" xlink:title="Some or all of the overflow data itself (dependent on how much the analyzer can capture).">
<polygon fill="#bfbfbf" stroke="#bfbfbf" points="9,-3 9,-23 172,-23 172,-3 9,-3"/>
<polygon fill="none" stroke="black" points="9,-3 9,-23 172,-23 172,-3 9,-3"/>
<text text-anchor="start" x="15.5" y="-9.73333" font-family="Times Roman,serif" font-size="14.00">[BYTE[]] buffer (0..1) </text>
</a>
</g>
</g>
</svg>
