<?xml version="1.0" encoding="UTF-8" standalone="no"?>
<!DOCTYPE svg PUBLIC "-//W3C//DTD SVG 1.1//EN"
 "http://www.w3.org/Graphics/SVG/1.1/DTD/svg11.dtd">
<!-- Generated by graphviz version 2.26.3 (20100126.1600)
 -->
<!-- Title: UserId Pages: 1 -->
<svg width="214pt" height="136pt"
 viewBox="0.00 0.00 214.00 136.00" xmlns="http://www.w3.org/2000/svg" xmlns:xlink="http://www.w3.org/1999/xlink">
<g id="graph1" class="graph" transform="scale(1 1) rotate(0) translate(4 132)">
<title>UserId</title>
<polygon fill="white" stroke="white" points="-4,5 -4,-132 211,-132 211,5 -4,5"/>
<!-- UserId -->
<g id="node1" class="node"><title>UserId</title>
<a xlink:href="/idmef_parser/IDMEF/UserId.html" xlink:title="The UserId class provides specific information about a user. More than one UserId can be used within the User class to indicate attempts to transition from one user to another, or to provide complete information about a user&#39;s (or process&#39;) privileges. ">
<polygon fill="#3d7a99" stroke="#3d7a99" points="8,-103 8,-124 198,-124 198,-103 8,-103"/>
<polygon fill="none" stroke="black" points="8,-103 8,-124 198,-124 198,-103 8,-103"/>
<text text-anchor="start" x="80.5" y="-110.233" font-family="Times Roman,serif" font-size="14.00">UserId</text>
</a>
<a xlink:href="/idmef_parser/IDMEF/UserId.html" xlink:title="A user or group name.">
<polygon fill="#66ccff" stroke="#66ccff" points="8,-83 8,-103 198,-103 198,-83 8,-83"/>
<polygon fill="none" stroke="black" points="8,-83 8,-103 198,-103 198,-83 8,-83"/>
<text text-anchor="start" x="26" y="-89.7333" font-family="Times Roman,serif" font-size="14.00">[STRING] name (0..1) </text>
</a>
<a xlink:href="/idmef_parser/IDMEF/UserId.html" xlink:title="A user or group number.">
<polygon fill="#66ccff" stroke="#66ccff" points="8,-63 8,-83 198,-83 198,-63 8,-63"/>
<polygon fill="none" stroke="black" points="8,-63 8,-83 198,-83 198,-63 8,-63"/>
<text text-anchor="start" x="14" y="-69.7333" font-family="Times Roman,serif" font-size="14.00">[INTEGER] number (0..1) </text>
</a>
<a xlink:href="/idmef_parser/IDMEF/UserId.html" xlink:title="A unique identifier for the user id, see Section 3.2.9.">
<polygon fill="#66ccff" stroke="#66ccff" points="8,-43 8,-63 198,-63 198,-43 8,-43"/>
<polygon fill="none" stroke="black" points="8,-43 8,-63 198,-63 198,-43 8,-43"/>
<text text-anchor="start" x="11.5" y="-49.7333" font-family="Times Roman,serif" font-size="14.00">[STRING] ident (Optional) </text>
</a>
<a xlink:href="/idmef_parser/IDMEF/UserId.html" xlink:title="The type of user information represented. &#160;The permitted values for this attribute are shown below. &#160;The default value is &quot;original&#45;user&quot;. &#160;(See also Section 10.)">
<polygon fill="#66ccff" stroke="#66ccff" points="8,-23 8,-43 198,-43 198,-23 8,-23"/>
<polygon fill="none" stroke="black" points="8,-23 8,-43 198,-43 198,-23 8,-23"/>
<text text-anchor="start" x="20" y="-29.7333" font-family="Times Roman,serif" font-size="14.00">[ENUM] type (Optional) </text>
</a>
<a xlink:href="/idmef_parser/IDMEF/UserId.html" xlink:title="The tty the user is using.">
<polygon fill="#66ccff" stroke="#66ccff" points="8,-3 8,-23 198,-23 198,-3 8,-3"/>
<polygon fill="none" stroke="black" points="8,-3 8,-23 198,-23 198,-3 8,-3"/>
<text text-anchor="start" x="19" y="-9.73333" font-family="Times Roman,serif" font-size="14.00">[STRING] tty (Optional) </text>
</a>
</g>
</g>
</svg>
