<?xml version="1.0" encoding="UTF-8" standalone="no"?>
<!DOCTYPE svg PUBLIC "-//W3C//DTD SVG 1.1//EN"
 "http://www.w3.org/Graphics/SVG/1.1/DTD/svg11.dtd">
<!-- Generated by graphviz version 2.26.3 (20100126.1600)
 -->
<!-- Title: UserId Pages: 1 -->
<svg width="210pt" height="136pt"
 viewBox="0.00 0.00 210.00 136.00" xmlns="http://www.w3.org/2000/svg" xmlns:xlink="http://www.w3.org/1999/xlink">
<g id="graph1" class="graph" transform="scale(1 1) rotate(0) translate(4 132)">
<title>UserId</title>
<polygon fill="white" stroke="white" points="-4,5 -4,-132 207,-132 207,5 -4,5"/>
<!-- UserId -->
<g id="node1" class="node"><title>UserId</title>
<a xlink:href="#" xlink:title="The UserId class provides specific information about a user. More than one UserId can be used within the User class to indicate attempts to transition from one user to another, or to provide complete information about a user&#39;s (or process&#39;) privileges. ">
<polygon fill="#3d7a99" stroke="#3d7a99" points="9,-103 9,-124 194,-124 194,-103 9,-103"/>
<polygon fill="none" stroke="black" points="9,-103 9,-124 194,-124 194,-103 9,-103"/>
<text text-anchor="start" x="79" y="-110.233" font-family="Times Roman,serif" font-size="14.00">UserId</text>
</a>
<a xlink:href="#" xlink:title="A user or group name.">
<polygon fill="#66ccff" stroke="#66ccff" points="9,-83 9,-103 194,-103 194,-83 9,-83"/>
<polygon fill="none" stroke="black" points="9,-83 9,-103 194,-103 194,-83 9,-83"/>
<text text-anchor="start" x="24.5" y="-89.7333" font-family="Times Roman,serif" font-size="14.00">[STRING] name (0..1) </text>
</a>
<a xlink:href="#" xlink:title="A user or group number.">
<polygon fill="#66ccff" stroke="#66ccff" points="9,-63 9,-83 194,-83 194,-63 9,-63"/>
<polygon fill="none" stroke="black" points="9,-63 9,-83 194,-83 194,-63 9,-63"/>
<text text-anchor="start" x="12.5" y="-69.7333" font-family="Times Roman,serif" font-size="14.00">[INTEGER] number (0..1) </text>
</a>
<a xlink:href="#" xlink:title="A unique identifier for the user id, see Section 3.2.9.">
<polygon fill="#66ccff" stroke="#66ccff" points="9,-43 9,-63 194,-63 194,-43 9,-43"/>
<polygon fill="none" stroke="black" points="9,-43 9,-63 194,-63 194,-43 9,-43"/>
<text text-anchor="start" x="37" y="-49.7333" font-family="Times Roman,serif" font-size="14.00">[] ident (Optional) </text>
</a>
<a xlink:href="#" xlink:title="The type of user information represented. &#160;The permitted values for this attribute are shown below. &#160;The default value is &quot;original&#45;user&quot;. &#160;(See also Section 10.)">
<polygon fill="#66ccff" stroke="#66ccff" points="9,-23 9,-43 194,-43 194,-23 9,-23"/>
<polygon fill="none" stroke="black" points="9,-23 9,-43 194,-43 194,-23 9,-23"/>
<text text-anchor="start" x="18.5" y="-29.7333" font-family="Times Roman,serif" font-size="14.00">[ENUM] type (Optional) </text>
</a>
<a xlink:href="#" xlink:title="The tty the user is using.">
<polygon fill="#66ccff" stroke="#66ccff" points="9,-3 9,-23 194,-23 194,-3 9,-3"/>
<polygon fill="none" stroke="black" points="9,-3 9,-23 194,-23 194,-3 9,-3"/>
<text text-anchor="start" x="17.5" y="-9.73333" font-family="Times Roman,serif" font-size="14.00">[STRING] tty (Optional) </text>
</a>
</g>
</g>
</svg>
