<?xml version="1.0" encoding="UTF-8" standalone="no"?>
<!DOCTYPE svg PUBLIC "-//W3C//DTD SVG 1.1//EN"
 "http://www.w3.org/Graphics/SVG/1.1/DTD/svg11.dtd">
<!-- Generated by graphviz version 2.40.1 (0)
 -->
<!-- Title: AdditionalData Pages: 1 -->
<svg width="211pt" height="142pt"
 viewBox="0.00 0.00 211.00 142.00" xmlns="http://www.w3.org/2000/svg" xmlns:xlink="http://www.w3.org/1999/xlink">
<g id="graph0" class="graph" transform="scale(1 1) rotate(0) translate(4 138)">
<title>AdditionalData</title>
<polygon fill="#ffffff" stroke="transparent" points="-4,4 -4,-138 207,-138 207,4 -4,4"/>
<!-- AdditionalData -->
<g id="node1" class="node">
<title>AdditionalData</title>
<g id="a_node1_0"><a xlink:href="/idmef_parser/IODEF/AdditionalData.html" xlink:title="The AdditionalData class serves as an extension mechanism for information not otherwise represented in the data model. For relatively simple information, atomic data types (e.g., integers, strings) are provided with a mechanism to annotate their meaning. The class can also be used to extend the data model (and the associated Schema) to support proprietary extensions by encapsulating entire XML documents conforming to another Schema (e.g., IDMEF). A detailed discussion for extending the data model and the schema can be found in Section 5. ">
<polygon fill="#cca352" stroke="transparent" points="8.5,-109 8.5,-130 195.5,-130 195.5,-109 8.5,-109"/>
<polygon fill="none" stroke="#000000" points="8.5,-109 8.5,-130 195.5,-130 195.5,-109 8.5,-109"/>
<text text-anchor="start" x="58" y="-115.8" font-family="Nimbus Sans L" font-size="14.00" fill="#000000">AdditionalData</text>
</a>
</g>
<g id="a_node1_1"><a xlink:href="/idmef_parser/IODEF/AdditionalData.html" xlink:title="The data type of the element content. &#160;The permitted values for this attribute are shown below. &#160;The default value is &quot;string&quot;.">
<polygon fill="#ffcc66" stroke="transparent" points="8.5,-88 8.5,-109 195.5,-109 195.5,-88 8.5,-88"/>
<polygon fill="none" stroke="#000000" points="8.5,-88 8.5,-109 195.5,-109 195.5,-88 8.5,-88"/>
<text text-anchor="start" x="25.5" y="-94.8" font-family="Nimbus Sans L" font-size="14.00" fill="#000000">[ENUM] dtype (Required)</text>
</a>
</g>
<g id="a_node1_2"><a xlink:href="/idmef_parser/IODEF/AdditionalData.html" xlink:title="A means by which to extend the dtype attribute. &#160;See Section 5.1.">
<polygon fill="#ffcc66" stroke="transparent" points="8.5,-67 8.5,-88 195.5,-88 195.5,-67 8.5,-67"/>
<polygon fill="none" stroke="#000000" points="8.5,-67 8.5,-88 195.5,-88 195.5,-67 8.5,-67"/>
<text text-anchor="start" x="11.5" y="-73.8" font-family="Nimbus Sans L" font-size="14.00" fill="#000000">[STRING] ext&#45;dtype (Optional)</text>
</a>
</g>
<g id="a_node1_3"><a xlink:href="/idmef_parser/IODEF/AdditionalData.html" xlink:title="A free&#45;form description of the element content.">
<polygon fill="#ffcc66" stroke="transparent" points="8.5,-46 8.5,-67 195.5,-67 195.5,-46 8.5,-46"/>
<polygon fill="none" stroke="#000000" points="8.5,-46 8.5,-67 195.5,-67 195.5,-46 8.5,-46"/>
<text text-anchor="start" x="12.5" y="-52.8" font-family="Nimbus Sans L" font-size="14.00" fill="#000000">[STRING] meaning (Optional)</text>
</a>
</g>
<g id="a_node1_4"><a xlink:href="/idmef_parser/IODEF/AdditionalData.html" xlink:title="An identifier referencing the format and semantics of the element content.">
<polygon fill="#ffcc66" stroke="transparent" points="8.5,-25 8.5,-46 195.5,-46 195.5,-25 8.5,-25"/>
<polygon fill="none" stroke="#000000" points="8.5,-25 8.5,-46 195.5,-46 195.5,-25 8.5,-25"/>
<text text-anchor="start" x="14" y="-31.8" font-family="Nimbus Sans L" font-size="14.00" fill="#000000">[STRING] formatid (Optional)</text>
</a>
</g>
<g id="a_node1_5"><a xlink:href="/idmef_parser/IODEF/AdditionalData.html" xlink:title="This attribute has been defined in Section 3.2.">
<polygon fill="#ffcc66" stroke="transparent" points="8.5,-4 8.5,-25 195.5,-25 195.5,-4 8.5,-4"/>
<polygon fill="none" stroke="#000000" points="8.5,-4 8.5,-25 195.5,-25 195.5,-4 8.5,-4"/>
<text text-anchor="start" x="14.5" y="-10.8" font-family="Nimbus Sans L" font-size="14.00" fill="#000000">[ENUM] restriction (Optional)</text>
</a>
</g>
</g>
</g>
</svg>
