<?xml version="1.0" encoding="UTF-8" standalone="no"?>
<!DOCTYPE svg PUBLIC "-//W3C//DTD SVG 1.1//EN"
 "http://www.w3.org/Graphics/SVG/1.1/DTD/svg11.dtd">
<!-- Generated by graphviz version 2.38.0 (20140413.2041)
 -->
<!-- Title: AlternativeID Pages: 1 -->
<svg width="454pt" height="100pt"
 viewBox="0.00 0.00 454.00 100.00" xmlns="http://www.w3.org/2000/svg" xmlns:xlink="http://www.w3.org/1999/xlink">
<g id="graph0" class="graph" transform="scale(1 1) rotate(0) translate(4 96)">
<title>AlternativeID</title>
<polygon fill="white" stroke="none" points="-4,4 -4,-96 450,-96 450,4 -4,4"/>
<!-- AlternativeID -->
<g id="node1" class="node"><title>AlternativeID</title>
<g id="a_node1_0"><a xlink:href="/idmef_parser/IODEF/AlternativeID.html" xlink:title="The AlternativeID class lists the incident tracking numbers used by CSIRTs, other than the one generating the document, to refer to the identical activity described the IODEF document. A tracking number listed as an AlternativeID references the same incident detected by ">
<polygon fill="#5c7a00" stroke="none" points="8,-46 8,-67 186,-67 186,-46 8,-46"/>
<polygon fill="none" stroke="black" points="8,-46 8,-67 186,-67 186,-46 8,-46"/>
<text text-anchor="start" x="59" y="-52.8" font-family="Times,serif" font-size="14.00">AlternativeID</text>
</a>
</g>
<g id="a_node1_1"><a xlink:href="/idmef_parser/IODEF/AlternativeID.html" xlink:title="This attribute has been defined in Section 3.2.">
<polygon fill="#99cc00" stroke="none" points="8,-25 8,-46 186,-46 186,-25 8,-25"/>
<polygon fill="none" stroke="black" points="8,-25 8,-46 186,-46 186,-25 8,-25"/>
<text text-anchor="start" x="11" y="-31.8" font-family="Times,serif" font-size="14.00">[ENUM] restriction (Optional) </text>
</a>
</g>
</g>
<!-- IncidentID -->
<g id="node2" class="node"><title>IncidentID</title>
<g id="a_node2_2"><a xlink:href="/idmef_parser/IODEF/IncidentID.html" xlink:title="The IncidentID class represents an incident tracking number that is unique in the context of the CSIRT and identifies the activity characterized in an IODEF Document. This identifier would serve as an index into the CSIRT incident handling system. The combination of the name attribute and the string in the element content MUST be a globally unique identifier describing the activity. Documents generated by a given CSIRT MUST NOT reuse the same value unless they are referencing the same incident. ">
<polygon fill="#5c7a00" stroke="none" points="260,-67 260,-88 438,-88 438,-67 260,-67"/>
<polygon fill="none" stroke="black" points="260,-67 260,-88 438,-88 438,-67 260,-67"/>
<text text-anchor="start" x="319.5" y="-73.8" font-family="Times,serif" font-size="14.00">IncidentID</text>
</a>
</g>
<g id="a_node2_3"><a xlink:href="/idmef_parser/IODEF/IncidentID.html" xlink:title="An identifier describing the CSIRT that created the document. &#160;In order to have a globally unique CSIRT name, the fully qualified domain name associated with the CSIRT MUST be used.">
<polygon fill="#99cc00" stroke="none" points="260,-46 260,-67 438,-67 438,-46 260,-46"/>
<polygon fill="none" stroke="black" points="260,-46 260,-67 438,-67 438,-46 260,-46"/>
<text text-anchor="start" x="270" y="-52.8" font-family="Times,serif" font-size="14.00">[STRING] name (Required) </text>
</a>
</g>
<g id="a_node2_4"><a xlink:href="/idmef_parser/IODEF/IncidentID.html" xlink:title="An identifier referencing a subset of the named incident.">
<polygon fill="#99cc00" stroke="none" points="260,-25 260,-46 438,-46 438,-25 260,-25"/>
<polygon fill="none" stroke="black" points="260,-25 260,-46 438,-46 438,-25 260,-25"/>
<text text-anchor="start" x="264" y="-31.8" font-family="Times,serif" font-size="14.00">[STRING] instance (Optional) </text>
</a>
</g>
<g id="a_node2_5"><a xlink:href="/idmef_parser/IODEF/IncidentID.html" xlink:title="This attribute has been defined in Section 3.2.">
<polygon fill="#99cc00" stroke="none" points="260,-4 260,-25 438,-25 438,-4 260,-4"/>
<polygon fill="none" stroke="black" points="260,-4 260,-25 438,-25 438,-4 260,-4"/>
<text text-anchor="start" x="263" y="-10.8" font-family="Times,serif" font-size="14.00">[ENUM] restriction (Optional) </text>
</a>
</g>
</g>
<!-- AlternativeID&#45;&gt;IncidentID -->
<g id="edge1" class="edge"><title>AlternativeID&#45;&gt;IncidentID</title>
<path fill="none" stroke="black" d="M194.299,-46C209.757,-46 225.835,-46 241.515,-46"/>
<polygon fill="black" stroke="black" points="241.751,-49.5001 251.751,-46 241.751,-42.5001 241.751,-49.5001"/>
<text text-anchor="middle" x="223" y="-49.8" font-family="Times,serif" font-size="14.00">1..*</text>
</g>
</g>
</svg>
