<?xml version="1.0" encoding="UTF-8" standalone="no"?>
<!DOCTYPE svg PUBLIC "-//W3C//DTD SVG 1.1//EN"
 "http://www.w3.org/Graphics/SVG/1.1/DTD/svg11.dtd">
<!-- Generated by graphviz version 2.26.3 (20100126.1600)
 -->
<!-- Title: Assessment Pages: 1 -->
<svg width="564pt" height="694pt"
 viewBox="0.00 0.00 564.00 694.00" xmlns="http://www.w3.org/2000/svg" xmlns:xlink="http://www.w3.org/1999/xlink">
<g id="graph1" class="graph" transform="scale(1 1) rotate(0) translate(4 690)">
<title>Assessment</title>
<polygon fill="white" stroke="white" points="-4,5 -4,-690 561,-690 561,5 -4,5"/>
<!-- Assessment -->
<g id="node1" class="node"><title>Assessment</title>
<a xlink:href="#" xlink:title="The Assessment class describes the technical and non&#45;technical repercussions of the incident on the CSIRT&#39;s constituency. ">
<polygon fill="#cecece" stroke="#cecece" points="8,-316 8,-337 226,-337 226,-316 8,-316"/>
<polygon fill="none" stroke="black" points="8,-316 8,-337 226,-337 226,-316 8,-316"/>
<text text-anchor="start" x="76" y="-323.233" font-family="Times Roman,serif" font-size="14.00">Assessment</text>
</a>
<a xlink:href="#" xlink:title="Specifies whether the assessment is describing actual or potential outcomes. &#160;The default is &quot;actual&quot; and is assumed if not specified.">
<polygon fill="none" stroke="black" points="8,-296 8,-316 226,-316 226,-296 8,-296"/>
<text text-anchor="start" x="11.5" y="-302.733" font-family="Times Roman,serif" font-size="14.00">[ENUM] occurrence (Optional) </text>
</a>
<a xlink:href="#" xlink:title="This attribute is defined in Section 3.2.">
<polygon fill="none" stroke="black" points="8,-276 8,-296 226,-296 226,-276 8,-276"/>
<text text-anchor="start" x="14" y="-282.733" font-family="Times Roman,serif" font-size="14.00">[ENUM] restriction (Optional) </text>
</a>
</g>
<!-- Impact -->
<g id="node2" class="node"><title>Impact</title>
<a xlink:href="#" xlink:title="The Impact class allows for categorizing and describing the technical impact of the incident on the network of an organization. ">
<polygon fill="#cecece" stroke="#cecece" points="318,-661 318,-682 536,-682 536,-661 318,-661"/>
<polygon fill="none" stroke="black" points="318,-661 318,-682 536,-682 536,-661 318,-661"/>
<text text-anchor="start" x="403.5" y="-668.233" font-family="Times Roman,serif" font-size="14.00">Impact</text>
</a>
<a xlink:href="#" xlink:title="A valid language code per RFC 4646 [7] constrained by the definition of &quot;xs:language&quot;. &#160;The interpretation of this code is described in Section 6.">
<polygon fill="none" stroke="black" points="318,-641 318,-661 536,-661 536,-641 318,-641"/>
<text text-anchor="start" x="343.5" y="-647.733" font-family="Times Roman,serif" font-size="14.00">[ENUM] lang (Required) </text>
</a>
<a xlink:href="#" xlink:title="An estimate of the relative severity of the activity. &#160;The permitted values are shown below. &#160;There is no default value.">
<polygon fill="none" stroke="black" points="318,-621 318,-641 536,-641 536,-621 318,-621"/>
<text text-anchor="start" x="331.5" y="-627.733" font-family="Times Roman,serif" font-size="14.00">[ENUM] severity (Optional) </text>
</a>
<a xlink:href="#" xlink:title="An indication whether the described activity was successful. &#160;The permitted values are shown below. &#160;There is no default value.">
<polygon fill="none" stroke="black" points="318,-601 318,-621 536,-621 536,-601 318,-601"/>
<text text-anchor="start" x="321.5" y="-607.733" font-family="Times Roman,serif" font-size="14.00">[ENUM] completion (Optional) </text>
</a>
<a xlink:href="#" xlink:title="Classifies the malicious activity into incident categories. &#160;The permitted values are shown below. &#160;The default value is &quot;other&quot;.">
<polygon fill="none" stroke="black" points="318,-581 318,-601 536,-601 536,-581 318,-581"/>
<text text-anchor="start" x="342.5" y="-587.733" font-family="Times Roman,serif" font-size="14.00">[ENUM] type (Required) </text>
</a>
<a xlink:href="#" xlink:title="A means by which to extend the type attribute. See Section 5.1.">
<polygon fill="none" stroke="black" points="318,-561 318,-581 536,-581 536,-561 318,-561"/>
<text text-anchor="start" x="324" y="-567.733" font-family="Times Roman,serif" font-size="14.00">[STRING] ext&#45;type (Optional) </text>
</a>
</g>
<!-- Assessment&#45;&gt;Impact -->
<g id="edge2" class="edge"><title>Assessment&#45;&gt;Impact</title>
<path fill="none" stroke="black" d="M136.395,-341.404C166.09,-391.786 226.916,-486.429 298,-549 299.295,-550.14 300.61,-551.27 301.944,-552.39"/>
<polygon fill="black" stroke="black" points="299.791,-555.15 309.775,-558.695 304.181,-549.698 299.791,-555.15"/>
<text text-anchor="middle" x="266" y="-530.4" font-family="Times Roman,serif" font-size="14.00">0..*</text>
</g>
<!-- TimeImpact -->
<g id="node4" class="node"><title>TimeImpact</title>
<a xlink:href="#" xlink:title="The TimeImpact class describes the impact of the incident on an organization as a function of time. It provides a way to convey down time and recovery time. ">
<polygon fill="#cecece" stroke="#cecece" points="307,-515 307,-536 548,-536 548,-515 307,-515"/>
<polygon fill="none" stroke="black" points="307,-515 307,-536 548,-536 548,-515 307,-515"/>
<text text-anchor="start" x="387.5" y="-522.233" font-family="Times Roman,serif" font-size="14.00">TimeImpact</text>
</a>
<a xlink:href="#" xlink:title="An estimate of the relative severity of the activity. &#160;The permitted values are shown below. &#160;There is no default value.">
<polygon fill="none" stroke="black" points="307,-495 307,-515 548,-515 548,-495 307,-495"/>
<text text-anchor="start" x="332" y="-501.733" font-family="Times Roman,serif" font-size="14.00">[ENUM] severity (Optional) </text>
</a>
<a xlink:href="#" xlink:title="Defines the metric in which the time is expressed. &#160;The permitted values are shown below. &#160;There is no default value.">
<polygon fill="none" stroke="black" points="307,-475 307,-495 548,-495 548,-475 307,-475"/>
<text text-anchor="start" x="337" y="-481.733" font-family="Times Roman,serif" font-size="14.00">[ENUM] metric (Required) </text>
</a>
<a xlink:href="#" xlink:title="A means by which to extend the metric attribute. &#160;See Section 5.1.">
<polygon fill="none" stroke="black" points="307,-455 307,-475 548,-475 548,-455 307,-455"/>
<text text-anchor="start" x="318" y="-461.733" font-family="Times Roman,serif" font-size="14.00">[STRING] ext&#45;metric (Optional) </text>
</a>
<a xlink:href="#" xlink:title="Defines a unit of time, that when combined with the metric attribute, fully describes a metric of impact that will be conveyed in the element content. &#160;The permitted values are shown below. &#160;The default value is &quot;hour&quot;.">
<polygon fill="none" stroke="black" points="307,-435 307,-455 548,-455 548,-435 307,-435"/>
<text text-anchor="start" x="329.5" y="-441.733" font-family="Times Roman,serif" font-size="14.00">[ENUM] duration (Required) </text>
</a>
<a xlink:href="#" xlink:title="A means by which to extend the duration attribute. &#160;See Section 5.1.">
<polygon fill="none" stroke="black" points="307,-415 307,-435 548,-435 548,-415 307,-415"/>
<text text-anchor="start" x="310.5" y="-421.733" font-family="Times Roman,serif" font-size="14.00">[STRING] ext&#45;duration (Optional) </text>
</a>
</g>
<!-- Assessment&#45;&gt;TimeImpact -->
<g id="edge4" class="edge"><title>Assessment&#45;&gt;TimeImpact</title>
<path fill="none" stroke="black" d="M179.733,-341.2C214.502,-360.154 259.009,-384.418 300.656,-407.122"/>
<polygon fill="black" stroke="black" points="299.04,-410.227 309.495,-411.941 302.39,-404.081 299.04,-410.227"/>
<text text-anchor="middle" x="266" y="-395.4" font-family="Times Roman,serif" font-size="14.00">0..*</text>
</g>
<!-- MonetaryImpact -->
<g id="node6" class="node"><title>MonetaryImpact</title>
<a xlink:href="#" xlink:title="The MonetaryImpact class describes the financial impact of the activity on an organization. For example, this impact may consider losses due to the cost of the investigation or recovery, diminished ">
<polygon fill="#cecece" stroke="#cecece" points="319,-369 319,-390 536,-390 536,-369 319,-369"/>
<polygon fill="none" stroke="black" points="319,-369 319,-390 536,-390 536,-369 319,-369"/>
<text text-anchor="start" x="371" y="-376.233" font-family="Times Roman,serif" font-size="14.00">MonetaryImpact</text>
</a>
<a xlink:href="#" xlink:title="An estimate of the relative severity of the activity. &#160;The permitted values are shown below. &#160;There is no default value.">
<polygon fill="none" stroke="black" points="319,-349 319,-369 536,-369 536,-349 319,-349"/>
<text text-anchor="start" x="332" y="-355.733" font-family="Times Roman,serif" font-size="14.00">[ENUM] severity (Optional) </text>
</a>
<a xlink:href="#" xlink:title="Defines the currency in which the monetary impact is expressed. &#160;The permitted values are defined in ISO 4217:2001, Codes for the representation of currencies and funds [14]. &#160;There is no default value.">
<polygon fill="none" stroke="black" points="319,-329 319,-349 536,-349 536,-329 319,-329"/>
<text text-anchor="start" x="322.5" y="-335.733" font-family="Times Roman,serif" font-size="14.00">[STRING] currency (Required) </text>
</a>
</g>
<!-- Assessment&#45;&gt;MonetaryImpact -->
<g id="edge6" class="edge"><title>Assessment&#45;&gt;MonetaryImpact</title>
<path fill="none" stroke="black" d="M234.198,-327.037C255.832,-330.736 278.512,-334.613 300.409,-338.357"/>
<polygon fill="black" stroke="black" points="299.961,-341.831 310.408,-340.067 301.141,-334.931 299.961,-341.831"/>
<text text-anchor="middle" x="266" y="-337.4" font-family="Times Roman,serif" font-size="14.00">0..*</text>
</g>
<!-- Counter -->
<g id="node8" class="node"><title>Counter</title>
<a xlink:href="#" xlink:title="The Counter class summarize multiple occurrences of some event, or conveys counts or rates on various features (e.g., packets, sessions, events). ">
<polygon fill="#cecece" stroke="#cecece" points="307,-283 307,-304 548,-304 548,-283 307,-283"/>
<polygon fill="none" stroke="black" points="307,-283 307,-304 548,-304 548,-283 307,-283"/>
<text text-anchor="start" x="399" y="-290.233" font-family="Times Roman,serif" font-size="14.00">Counter</text>
</a>
<a xlink:href="#" xlink:title="Specifies the units of the element content.">
<polygon fill="none" stroke="black" points="307,-263 307,-283 548,-283 548,-263 307,-263"/>
<text text-anchor="start" x="343" y="-269.733" font-family="Times Roman,serif" font-size="14.00">[ENUM] type (Required) </text>
</a>
<a xlink:href="#" xlink:title="A means by which to extend the type attribute. See Section 5.1.">
<polygon fill="none" stroke="black" points="307,-243 307,-263 548,-263 548,-243 307,-243"/>
<text text-anchor="start" x="324.5" y="-249.733" font-family="Times Roman,serif" font-size="14.00">[STRING] ext&#45;type (Optional) </text>
</a>
<a xlink:href="#" xlink:title="If present, the Counter class represents a rate rather than a count over the entire event. &#160;In that case, this attribute specifies the denominator of the rate (where the type attribute specified the nominator). &#160;The possible values of this attribute are defined in Section 3.10.2">
<polygon fill="none" stroke="black" points="307,-223 307,-243 548,-243 548,-223 307,-223"/>
<text text-anchor="start" x="330.5" y="-229.733" font-family="Times Roman,serif" font-size="14.00">[ENUM] duration (Optional) </text>
</a>
<a xlink:href="#" xlink:title="A means by which to extend the duration attribute. &#160;See Section 5.1.">
<polygon fill="none" stroke="black" points="307,-203 307,-223 548,-223 548,-203 307,-203"/>
<text text-anchor="start" x="310.5" y="-209.733" font-family="Times Roman,serif" font-size="14.00">[STRING] ext&#45;duration (Optional) </text>
</a>
</g>
<!-- Assessment&#45;&gt;Counter -->
<g id="edge8" class="edge"><title>Assessment&#45;&gt;Counter</title>
<path fill="none" stroke="black" d="M234.198,-286.963C251.92,-283.933 270.343,-280.783 288.464,-277.685"/>
<polygon fill="black" stroke="black" points="289.226,-281.106 298.493,-275.971 288.046,-274.206 289.226,-281.106"/>
<text text-anchor="middle" x="266" y="-287.4" font-family="Times Roman,serif" font-size="14.00">0..*</text>
</g>
<!-- Confidence -->
<g id="node10" class="node"><title>Confidence</title>
<a xlink:href="#" xlink:title="The Confidence class represents a best estimate of the validity and accuracy of the described impact (see Section 3.10) of the incident activity. This estimate can be expressed as a category or a numeric calculation. ">
<polygon fill="#cecece" stroke="#cecece" points="386,-153 386,-174 469,-174 469,-153 386,-153"/>
<polygon fill="none" stroke="black" points="386,-153 386,-174 469,-174 469,-153 386,-153"/>
<text text-anchor="start" x="389.5" y="-160.233" font-family="Times Roman,serif" font-size="14.00">Confidence</text>
</a>
</g>
<!-- Assessment&#45;&gt;Confidence -->
<g id="edge10" class="edge"><title>Assessment&#45;&gt;Confidence</title>
<path fill="none" stroke="black" d="M160.237,-272.845C195.428,-246.691 247.389,-211.694 298,-191 319.856,-182.064 345.053,-175.945 367.346,-171.824"/>
<polygon fill="black" stroke="black" points="368.117,-175.242 377.362,-170.068 366.908,-168.347 368.117,-175.242"/>
<text text-anchor="middle" x="266" y="-215.4" font-family="Times Roman,serif" font-size="14.00">0..1</text>
</g>
<!-- AdditionalData -->
<g id="node12" class="node"><title>AdditionalData</title>
<a xlink:href="#" xlink:title="The AdditionalData class serves as an extension mechanism for information not otherwise represented in the data model. For relatively simple information, atomic data types (e.g., integers, strings) are provided with a mechanism to annotate their meaning. The class can also be used to extend the data model (and the associated Schema) to support proprietary extensions by encapsulating entire XML documents conforming to another Schema (e.g., IDMEF). A detailed discussion for extending the data model and the schema can be found in Section 5. ">
<polygon fill="#cecece" stroke="#cecece" points="317,-103 317,-124 538,-124 538,-103 317,-103"/>
<polygon fill="none" stroke="black" points="317,-103 317,-124 538,-124 538,-103 317,-103"/>
<text text-anchor="start" x="376" y="-110.233" font-family="Times Roman,serif" font-size="14.00">AdditionalData</text>
</a>
<a xlink:href="#" xlink:title="The data type of the element content. &#160;The permitted values for this attribute are shown below. &#160;The default value is &quot;string&quot;.">
<polygon fill="none" stroke="black" points="317,-83 317,-103 538,-103 538,-83 317,-83"/>
<text text-anchor="start" x="339" y="-89.7333" font-family="Times Roman,serif" font-size="14.00">[ENUM] dtype (Required) </text>
</a>
<a xlink:href="#" xlink:title="A means by which to extend the dtype attribute. &#160;See Section 5.1.">
<polygon fill="none" stroke="black" points="317,-63 317,-83 538,-83 538,-63 317,-63"/>
<text text-anchor="start" x="320.5" y="-69.7333" font-family="Times Roman,serif" font-size="14.00">[STRING] ext&#45;dtype (Optional) </text>
</a>
<a xlink:href="#" xlink:title="A free&#45;form description of the element content.">
<polygon fill="none" stroke="black" points="317,-43 317,-63 538,-63 538,-43 317,-43"/>
<text text-anchor="start" x="324" y="-49.7333" font-family="Times Roman,serif" font-size="14.00">[STRING] meaning (Optional) </text>
</a>
<a xlink:href="#" xlink:title="An identifier referencing the format and semantics of the element content.">
<polygon fill="none" stroke="black" points="317,-23 317,-43 538,-43 538,-23 317,-23"/>
<text text-anchor="start" x="325" y="-29.7333" font-family="Times Roman,serif" font-size="14.00">[STRING] formatid (Optional) </text>
</a>
<a xlink:href="#" xlink:title="This attribute has been defined in Section 3.2.">
<polygon fill="none" stroke="black" points="317,-3 317,-23 538,-23 538,-3 317,-3"/>
<text text-anchor="start" x="324.5" y="-9.73333" font-family="Times Roman,serif" font-size="14.00">[ENUM] restriction (Optional) </text>
</a>
</g>
<!-- Assessment&#45;&gt;AdditionalData -->
<g id="edge12" class="edge"><title>Assessment&#45;&gt;AdditionalData</title>
<path fill="none" stroke="black" d="M148.152,-272.996C182.581,-236.602 240.766,-178.508 298,-137 299.432,-135.961 300.88,-134.926 302.343,-133.894"/>
<polygon fill="black" stroke="black" points="304.609,-136.583 310.861,-128.029 300.64,-130.817 304.609,-136.583"/>
<text text-anchor="middle" x="266" y="-174.4" font-family="Times Roman,serif" font-size="14.00">0..*</text>
</g>
</g>
</svg>
