<?xml version="1.0" encoding="UTF-8" standalone="no"?>
<!DOCTYPE svg PUBLIC "-//W3C//DTD SVG 1.1//EN"
 "http://www.w3.org/Graphics/SVG/1.1/DTD/svg11.dtd">
<!-- Generated by graphviz version 2.40.1 (0)
 -->
<!-- Title: Assessment Pages: 1 -->
<svg width="491pt" height="735pt"
 viewBox="0.00 0.00 491.00 735.00" xmlns="http://www.w3.org/2000/svg" xmlns:xlink="http://www.w3.org/1999/xlink">
<g id="graph0" class="graph" transform="scale(1 1) rotate(0) translate(4 731)">
<title>Assessment</title>
<polygon fill="#ffffff" stroke="transparent" points="-4,4 -4,-731 487,-731 487,4 -4,4"/>
<!-- Assessment -->
<g id="node1" class="node">
<title>Assessment</title>
<g id="a_node1_0"><a xlink:href="/idmef_parser/IODEF/Assessment.html" xlink:title="The Assessment class describes the technical and non&#45;technical repercussions of the incident on the CSIRT&#39;s constituency. ">
<polygon fill="#cc401d" stroke="transparent" points="8.5,-342 8.5,-363 197.5,-363 197.5,-342 8.5,-342"/>
<polygon fill="none" stroke="#000000" points="8.5,-342 8.5,-363 197.5,-363 197.5,-342 8.5,-342"/>
<text text-anchor="start" x="65.5" y="-348.8" font-family="Nimbus Sans L" font-size="14.00" fill="#000000">Assessment</text>
</a>
</g>
<g id="a_node1_1"><a xlink:href="/idmef_parser/IODEF/Assessment.html" xlink:title="Specifies whether the assessment is describing actual or potential outcomes. &#160;The default is &quot;actual&quot; and is assumed if not specified.">
<polygon fill="#ff5024" stroke="transparent" points="8.5,-321 8.5,-342 197.5,-342 197.5,-321 8.5,-321"/>
<polygon fill="none" stroke="#000000" points="8.5,-321 8.5,-342 197.5,-342 197.5,-321 8.5,-321"/>
<text text-anchor="start" x="11.5" y="-327.8" font-family="Nimbus Sans L" font-size="14.00" fill="#000000">[ENUM] occurrence (Optional)</text>
</a>
</g>
<g id="a_node1_2"><a xlink:href="/idmef_parser/IODEF/Assessment.html" xlink:title="This attribute is defined in Section 3.2.">
<polygon fill="#ff5024" stroke="transparent" points="8.5,-300 8.5,-321 197.5,-321 197.5,-300 8.5,-300"/>
<polygon fill="none" stroke="#000000" points="8.5,-300 8.5,-321 197.5,-321 197.5,-300 8.5,-300"/>
<text text-anchor="start" x="15.5" y="-306.8" font-family="Nimbus Sans L" font-size="14.00" fill="#000000">[ENUM] restriction (Optional)</text>
</a>
</g>
</g>
<!-- Impact -->
<g id="node2" class="node">
<title>Impact</title>
<g id="a_node2_3"><a xlink:href="/idmef_parser/IODEF/Impact.html" xlink:title="The Impact class allows for categorizing and describing the technical impact of the incident on the network of an organization. ">
<polygon fill="#cc401d" stroke="transparent" points="279.5,-702 279.5,-723 467.5,-723 467.5,-702 279.5,-702"/>
<polygon fill="none" stroke="#000000" points="279.5,-702 279.5,-723 467.5,-723 467.5,-702 279.5,-702"/>
<text text-anchor="start" x="352.5" y="-708.8" font-family="Nimbus Sans L" font-size="14.00" fill="#000000">Impact</text>
</a>
</g>
<g id="a_node2_4"><a xlink:href="/idmef_parser/IODEF/Impact.html" xlink:title="A valid language code per RFC 4646 [7] constrained by the definition of &quot;xs:language&quot;. &#160;The interpretation of this code is described in Section 6.">
<polygon fill="#ff5024" stroke="transparent" points="279.5,-681 279.5,-702 467.5,-702 467.5,-681 279.5,-681"/>
<polygon fill="none" stroke="#000000" points="279.5,-681 279.5,-702 467.5,-702 467.5,-681 279.5,-681"/>
<text text-anchor="start" x="301" y="-687.8" font-family="Nimbus Sans L" font-size="14.00" fill="#000000">[ENUM] lang (Required)</text>
</a>
</g>
<g id="a_node2_5"><a xlink:href="/idmef_parser/IODEF/Impact.html" xlink:title="An estimate of the relative severity of the activity. &#160;The permitted values are shown below. &#160;There is no default value.">
<polygon fill="#ff5024" stroke="transparent" points="279.5,-660 279.5,-681 467.5,-681 467.5,-660 279.5,-660"/>
<polygon fill="none" stroke="#000000" points="279.5,-660 279.5,-681 467.5,-681 467.5,-660 279.5,-660"/>
<text text-anchor="start" x="292" y="-666.8" font-family="Nimbus Sans L" font-size="14.00" fill="#000000">[ENUM] severity (Optional)</text>
</a>
</g>
<g id="a_node2_6"><a xlink:href="/idmef_parser/IODEF/Impact.html" xlink:title="An indication whether the described activity was successful. &#160;The permitted values are shown below. &#160;There is no default value.">
<polygon fill="#ff5024" stroke="transparent" points="279.5,-639 279.5,-660 467.5,-660 467.5,-639 279.5,-639"/>
<polygon fill="none" stroke="#000000" points="279.5,-639 279.5,-660 467.5,-660 467.5,-639 279.5,-639"/>
<text text-anchor="start" x="282.5" y="-645.8" font-family="Nimbus Sans L" font-size="14.00" fill="#000000">[ENUM] completion (Optional)</text>
</a>
</g>
<g id="a_node2_7"><a xlink:href="/idmef_parser/IODEF/Impact.html" xlink:title="Classifies the malicious activity into incident categories. &#160;The permitted values are shown below. &#160;The default value is &quot;other&quot;.">
<polygon fill="#ff5024" stroke="transparent" points="279.5,-618 279.5,-639 467.5,-639 467.5,-618 279.5,-618"/>
<polygon fill="none" stroke="#000000" points="279.5,-618 279.5,-639 467.5,-639 467.5,-618 279.5,-618"/>
<text text-anchor="start" x="301" y="-624.8" font-family="Nimbus Sans L" font-size="14.00" fill="#000000">[ENUM] type (Required)</text>
</a>
</g>
<g id="a_node2_8"><a xlink:href="/idmef_parser/IODEF/Impact.html" xlink:title="A means by which to extend the type attribute. See Section 5.1.">
<polygon fill="#ff5024" stroke="transparent" points="279.5,-597 279.5,-618 467.5,-618 467.5,-597 279.5,-597"/>
<polygon fill="none" stroke="#000000" points="279.5,-597 279.5,-618 467.5,-618 467.5,-597 279.5,-597"/>
<text text-anchor="start" x="286.5" y="-603.8" font-family="Nimbus Sans L" font-size="14.00" fill="#000000">[STRING] ext&#45;type (Optional)</text>
</a>
</g>
</g>
<!-- Assessment&#45;&gt;Impact -->
<g id="edge1" class="edge">
<title>Assessment&#45;&gt;Impact</title>
<path fill="none" stroke="#000000" d="M119.5873,-367.6366C145.6161,-419.4293 199.0893,-516.6556 264,-584 264.542,-584.5623 265.0887,-585.123 265.64,-585.682"/>
<polygon fill="#000000" stroke="#000000" points="263.4245,-588.4087 273.0432,-592.8507 268.2939,-583.3799 263.4245,-588.4087"/>
<text text-anchor="middle" x="234.5" y="-562.8" font-family="Times,serif" font-size="14.00" fill="#000000">0..*</text>
</g>
<!-- TimeImpact -->
<g id="node3" class="node">
<title>TimeImpact</title>
<g id="a_node3_9"><a xlink:href="/idmef_parser/IODEF/TimeImpact.html" xlink:title="The TimeImpact class describes the impact of the incident on an organization as a function of time. It provides a way to convey down time and recovery time. ">
<polygon fill="#cc401d" stroke="transparent" points="272.5,-550 272.5,-571 475.5,-571 475.5,-550 272.5,-550"/>
<polygon fill="none" stroke="#000000" points="272.5,-550 272.5,-571 475.5,-571 475.5,-550 272.5,-550"/>
<text text-anchor="start" x="337.5" y="-556.8" font-family="Nimbus Sans L" font-size="14.00" fill="#000000">TimeImpact</text>
</a>
</g>
<g id="a_node3_10"><a xlink:href="/idmef_parser/IODEF/TimeImpact.html" xlink:title="An estimate of the relative severity of the activity. &#160;The permitted values are shown below. &#160;There is no default value.">
<polygon fill="#ff5024" stroke="transparent" points="272.5,-529 272.5,-550 475.5,-550 475.5,-529 272.5,-529"/>
<polygon fill="none" stroke="#000000" points="272.5,-529 272.5,-550 475.5,-550 475.5,-529 272.5,-529"/>
<text text-anchor="start" x="292.5" y="-535.8" font-family="Nimbus Sans L" font-size="14.00" fill="#000000">[ENUM] severity (Optional)</text>
</a>
</g>
<g id="a_node3_11"><a xlink:href="/idmef_parser/IODEF/TimeImpact.html" xlink:title="Defines the metric in which the time is expressed. &#160;The permitted values are shown below. &#160;There is no default value.">
<polygon fill="#ff5024" stroke="transparent" points="272.5,-508 272.5,-529 475.5,-529 475.5,-508 272.5,-508"/>
<polygon fill="none" stroke="#000000" points="272.5,-508 272.5,-529 475.5,-529 475.5,-508 272.5,-508"/>
<text text-anchor="start" x="295.5" y="-514.8" font-family="Nimbus Sans L" font-size="14.00" fill="#000000">[ENUM] metric (Required)</text>
</a>
</g>
<g id="a_node3_12"><a xlink:href="/idmef_parser/IODEF/TimeImpact.html" xlink:title="A means by which to extend the metric attribute. &#160;See Section 5.1.">
<polygon fill="#ff5024" stroke="transparent" points="272.5,-487 272.5,-508 475.5,-508 475.5,-487 272.5,-487"/>
<polygon fill="none" stroke="#000000" points="272.5,-487 272.5,-508 475.5,-508 475.5,-487 272.5,-487"/>
<text text-anchor="start" x="281" y="-493.8" font-family="Nimbus Sans L" font-size="14.00" fill="#000000">[STRING] ext&#45;metric (Optional)</text>
</a>
</g>
<g id="a_node3_13"><a xlink:href="/idmef_parser/IODEF/TimeImpact.html" xlink:title="Defines a unit of time, that when combined with the metric attribute, fully describes a metric of impact that will be conveyed in the element content. &#160;The permitted values are shown below. &#160;The default value is &quot;hour&quot;.">
<polygon fill="#ff5024" stroke="transparent" points="272.5,-466 272.5,-487 475.5,-487 475.5,-466 272.5,-466"/>
<polygon fill="none" stroke="#000000" points="272.5,-466 272.5,-487 475.5,-487 475.5,-466 272.5,-466"/>
<text text-anchor="start" x="289.5" y="-472.8" font-family="Nimbus Sans L" font-size="14.00" fill="#000000">[ENUM] duration (Required)</text>
</a>
</g>
<g id="a_node3_14"><a xlink:href="/idmef_parser/IODEF/TimeImpact.html" xlink:title="A means by which to extend the duration attribute. &#160;See Section 5.1.">
<polygon fill="#ff5024" stroke="transparent" points="272.5,-445 272.5,-466 475.5,-466 475.5,-445 272.5,-445"/>
<polygon fill="none" stroke="#000000" points="272.5,-445 272.5,-466 475.5,-466 475.5,-445 272.5,-445"/>
<text text-anchor="start" x="275.5" y="-451.8" font-family="Nimbus Sans L" font-size="14.00" fill="#000000">[STRING] ext&#45;duration (Optional)</text>
</a>
</g>
</g>
<!-- Assessment&#45;&gt;TimeImpact -->
<g id="edge2" class="edge">
<title>Assessment&#45;&gt;TimeImpact</title>
<path fill="none" stroke="#000000" d="M157.3409,-367.6162C187.3378,-387.0976 225.6267,-411.9642 261.621,-435.3406"/>
<polygon fill="#000000" stroke="#000000" points="259.9352,-438.4191 270.2281,-440.9304 263.7479,-432.5485 259.9352,-438.4191"/>
<text text-anchor="middle" x="234.5" y="-423.8" font-family="Times,serif" font-size="14.00" fill="#000000">0..*</text>
</g>
<!-- MonetaryImpact -->
<g id="node4" class="node">
<title>MonetaryImpact</title>
<g id="a_node4_15"><a xlink:href="/idmef_parser/IODEF/MonetaryImpact.html" xlink:title="The MonetaryImpact class describes the financial impact of the activity on an organization. For example, this impact may consider losses due to the cost of the investigation or recovery, diminished ">
<polygon fill="#cc401d" stroke="transparent" points="279.5,-397 279.5,-418 467.5,-418 467.5,-397 279.5,-397"/>
<polygon fill="none" stroke="#000000" points="279.5,-397 279.5,-418 467.5,-418 467.5,-397 279.5,-397"/>
<text text-anchor="start" x="324" y="-403.8" font-family="Nimbus Sans L" font-size="14.00" fill="#000000">MonetaryImpact</text>
</a>
</g>
<g id="a_node4_16"><a xlink:href="/idmef_parser/IODEF/MonetaryImpact.html" xlink:title="An estimate of the relative severity of the activity. &#160;The permitted values are shown below. &#160;There is no default value.">
<polygon fill="#ff5024" stroke="transparent" points="279.5,-376 279.5,-397 467.5,-397 467.5,-376 279.5,-376"/>
<polygon fill="none" stroke="#000000" points="279.5,-376 279.5,-397 467.5,-397 467.5,-376 279.5,-376"/>
<text text-anchor="start" x="292" y="-382.8" font-family="Nimbus Sans L" font-size="14.00" fill="#000000">[ENUM] severity (Optional)</text>
</a>
</g>
<g id="a_node4_17"><a xlink:href="/idmef_parser/IODEF/MonetaryImpact.html" xlink:title="Defines the currency in which the monetary impact is expressed. &#160;The permitted values are defined in ISO 4217:2001, Codes for the representation of currencies and funds [14]. &#160;There is no default value.">
<polygon fill="#ff5024" stroke="transparent" points="279.5,-355 279.5,-376 467.5,-376 467.5,-355 279.5,-355"/>
<polygon fill="none" stroke="#000000" points="279.5,-355 279.5,-376 467.5,-376 467.5,-355 279.5,-355"/>
<text text-anchor="start" x="282.5" y="-361.8" font-family="Nimbus Sans L" font-size="14.00" fill="#000000">[STRING] currency (Required)</text>
</a>
</g>
</g>
<!-- Assessment&#45;&gt;MonetaryImpact -->
<g id="edge3" class="edge">
<title>Assessment&#45;&gt;MonetaryImpact</title>
<path fill="none" stroke="#000000" d="M205.3399,-352.8716C223.6168,-356.5809 242.7367,-360.4613 261.2589,-364.2205"/>
<polygon fill="#000000" stroke="#000000" points="260.6829,-367.6748 271.1793,-366.2338 262.0753,-360.8147 260.6829,-367.6748"/>
<text text-anchor="middle" x="234.5" y="-362.8" font-family="Times,serif" font-size="14.00" fill="#000000">0..*</text>
</g>
<!-- Counter -->
<g id="node5" class="node">
<title>Counter</title>
<g id="a_node5_18"><a xlink:href="/idmef_parser/IODEF/Counter.html" xlink:title="The Counter class summarize multiple occurrences of some event, or conveys counts or rates on various features (e.g., packets, sessions, events). ">
<polygon fill="#cc401d" stroke="transparent" points="272.5,-308 272.5,-329 475.5,-329 475.5,-308 272.5,-308"/>
<polygon fill="none" stroke="#000000" points="272.5,-308 272.5,-329 475.5,-329 475.5,-308 272.5,-308"/>
<text text-anchor="start" x="349.5" y="-314.8" font-family="Nimbus Sans L" font-size="14.00" fill="#000000">Counter</text>
</a>
</g>
<g id="a_node5_19"><a xlink:href="/idmef_parser/IODEF/Counter.html" xlink:title="Specifies the units of the element content.">
<polygon fill="#ff5024" stroke="transparent" points="272.5,-287 272.5,-308 475.5,-308 475.5,-287 272.5,-287"/>
<polygon fill="none" stroke="#000000" points="272.5,-287 272.5,-308 475.5,-308 475.5,-287 272.5,-287"/>
<text text-anchor="start" x="301.5" y="-293.8" font-family="Nimbus Sans L" font-size="14.00" fill="#000000">[ENUM] type (Required)</text>
</a>
</g>
<g id="a_node5_20"><a xlink:href="/idmef_parser/IODEF/Counter.html" xlink:title="A means by which to extend the type attribute. See Section 5.1.">
<polygon fill="#ff5024" stroke="transparent" points="272.5,-266 272.5,-287 475.5,-287 475.5,-266 272.5,-266"/>
<polygon fill="none" stroke="#000000" points="272.5,-266 272.5,-287 475.5,-287 475.5,-266 272.5,-266"/>
<text text-anchor="start" x="287" y="-272.8" font-family="Nimbus Sans L" font-size="14.00" fill="#000000">[STRING] ext&#45;type (Optional)</text>
</a>
</g>
<g id="a_node5_21"><a xlink:href="/idmef_parser/IODEF/Counter.html" xlink:title="If present, the Counter class represents a rate rather than a count over the entire event. &#160;In that case, this attribute specifies the denominator of the rate (where the type attribute specified the nominator). &#160;The possible values of this attribute are defined in Section 3.10.2">
<polygon fill="#ff5024" stroke="transparent" points="272.5,-245 272.5,-266 475.5,-266 475.5,-245 272.5,-245"/>
<polygon fill="none" stroke="#000000" points="272.5,-245 272.5,-266 475.5,-266 475.5,-245 272.5,-245"/>
<text text-anchor="start" x="291.5" y="-251.8" font-family="Nimbus Sans L" font-size="14.00" fill="#000000">[ENUM] duration (Optional)</text>
</a>
</g>
<g id="a_node5_22"><a xlink:href="/idmef_parser/IODEF/Counter.html" xlink:title="A means by which to extend the duration attribute. &#160;See Section 5.1.">
<polygon fill="#ff5024" stroke="transparent" points="272.5,-224 272.5,-245 475.5,-245 475.5,-224 272.5,-224"/>
<polygon fill="none" stroke="#000000" points="272.5,-224 272.5,-245 475.5,-245 475.5,-224 272.5,-224"/>
<text text-anchor="start" x="275.5" y="-230.8" font-family="Nimbus Sans L" font-size="14.00" fill="#000000">[STRING] ext&#45;duration (Optional)</text>
</a>
</g>
</g>
<!-- Assessment&#45;&gt;Counter -->
<g id="edge4" class="edge">
<title>Assessment&#45;&gt;Counter</title>
<path fill="none" stroke="#000000" d="M205.3399,-311.1284C221.2117,-307.9072 237.7193,-304.557 253.919,-301.2692"/>
<polygon fill="#000000" stroke="#000000" points="254.8534,-304.651 263.9575,-299.2319 253.4611,-297.7909 254.8534,-304.651"/>
<text text-anchor="middle" x="234.5" y="-309.8" font-family="Times,serif" font-size="14.00" fill="#000000">0..*</text>
</g>
<!-- Confidence -->
<g id="node6" class="node">
<title>Confidence</title>
<g id="a_node6_23"><a xlink:href="/idmef_parser/IODEF/Confidence.html" xlink:title="The Confidence class represents a best estimate of the validity and accuracy of the described impact (see Section 3.10) of the incident activity. This estimate can be expressed as a category or a numeric calculation. ">
<polygon fill="#cc401d" stroke="transparent" points="293.5,-177 293.5,-198 453.5,-198 453.5,-177 293.5,-177"/>
<polygon fill="none" stroke="#000000" points="293.5,-177 293.5,-198 453.5,-198 453.5,-177 293.5,-177"/>
<text text-anchor="start" x="339" y="-183.8" font-family="Nimbus Sans L" font-size="14.00" fill="#000000">Confidence</text>
</a>
</g>
<g id="a_node6_24"><a xlink:href="/idmef_parser/IODEF/Confidence.html" xlink:title="A rating of the analytical validity of the specified Assessment. &#160;The permitted values are shown below. There is no default value.">
<polygon fill="#ff5024" stroke="transparent" points="293.5,-156 293.5,-177 453.5,-177 453.5,-156 293.5,-156"/>
<polygon fill="none" stroke="#000000" points="293.5,-156 293.5,-177 453.5,-177 453.5,-156 293.5,-156"/>
<text text-anchor="start" x="296.5" y="-162.8" font-family="Nimbus Sans L" font-size="14.00" fill="#000000">[ENUM] rating (Required)</text>
</a>
</g>
</g>
<!-- Assessment&#45;&gt;Confidence -->
<g id="edge5" class="edge">
<title>Assessment&#45;&gt;Confidence</title>
<path fill="none" stroke="#000000" d="M142.4918,-296.3804C173.7439,-270.0662 219.2497,-234.9686 264,-212 268.0547,-209.9189 272.2573,-207.9306 276.5492,-206.035"/>
<polygon fill="#000000" stroke="#000000" points="278.2034,-209.1363 286.0648,-202.0336 275.4899,-202.6836 278.2034,-209.1363"/>
<text text-anchor="middle" x="234.5" y="-237.8" font-family="Times,serif" font-size="14.00" fill="#000000">0..1</text>
</g>
<!-- AdditionalData -->
<g id="node7" class="node">
<title>AdditionalData</title>
<g id="a_node7_25"><a xlink:href="/idmef_parser/IODEF/AdditionalData.html" xlink:title="The AdditionalData class serves as an extension mechanism for information not otherwise represented in the data model. For relatively simple information, atomic data types (e.g., integers, strings) are provided with a mechanism to annotate their meaning. The class can also be used to extend the data model (and the associated Schema) to support proprietary extensions by encapsulating entire XML documents conforming to another Schema (e.g., IDMEF). A detailed discussion for extending the data model and the schema can be found in Section 5. ">
<polygon fill="#cca352" stroke="transparent" points="280.5,-109 280.5,-130 467.5,-130 467.5,-109 280.5,-109"/>
<polygon fill="none" stroke="#000000" points="280.5,-109 280.5,-130 467.5,-130 467.5,-109 280.5,-109"/>
<text text-anchor="start" x="330" y="-115.8" font-family="Nimbus Sans L" font-size="14.00" fill="#000000">AdditionalData</text>
</a>
</g>
<g id="a_node7_26"><a xlink:href="/idmef_parser/IODEF/AdditionalData.html" xlink:title="The data type of the element content. &#160;The permitted values for this attribute are shown below. &#160;The default value is &quot;string&quot;.">
<polygon fill="#ffcc66" stroke="transparent" points="280.5,-88 280.5,-109 467.5,-109 467.5,-88 280.5,-88"/>
<polygon fill="none" stroke="#000000" points="280.5,-88 280.5,-109 467.5,-109 467.5,-88 280.5,-88"/>
<text text-anchor="start" x="297.5" y="-94.8" font-family="Nimbus Sans L" font-size="14.00" fill="#000000">[ENUM] dtype (Required)</text>
</a>
</g>
<g id="a_node7_27"><a xlink:href="/idmef_parser/IODEF/AdditionalData.html" xlink:title="A means by which to extend the dtype attribute. &#160;See Section 5.1.">
<polygon fill="#ffcc66" stroke="transparent" points="280.5,-67 280.5,-88 467.5,-88 467.5,-67 280.5,-67"/>
<polygon fill="none" stroke="#000000" points="280.5,-67 280.5,-88 467.5,-88 467.5,-67 280.5,-67"/>
<text text-anchor="start" x="283.5" y="-73.8" font-family="Nimbus Sans L" font-size="14.00" fill="#000000">[STRING] ext&#45;dtype (Optional)</text>
</a>
</g>
<g id="a_node7_28"><a xlink:href="/idmef_parser/IODEF/AdditionalData.html" xlink:title="A free&#45;form description of the element content.">
<polygon fill="#ffcc66" stroke="transparent" points="280.5,-46 280.5,-67 467.5,-67 467.5,-46 280.5,-46"/>
<polygon fill="none" stroke="#000000" points="280.5,-46 280.5,-67 467.5,-67 467.5,-46 280.5,-46"/>
<text text-anchor="start" x="284.5" y="-52.8" font-family="Nimbus Sans L" font-size="14.00" fill="#000000">[STRING] meaning (Optional)</text>
</a>
</g>
<g id="a_node7_29"><a xlink:href="/idmef_parser/IODEF/AdditionalData.html" xlink:title="An identifier referencing the format and semantics of the element content.">
<polygon fill="#ffcc66" stroke="transparent" points="280.5,-25 280.5,-46 467.5,-46 467.5,-25 280.5,-25"/>
<polygon fill="none" stroke="#000000" points="280.5,-25 280.5,-46 467.5,-46 467.5,-25 280.5,-25"/>
<text text-anchor="start" x="286" y="-31.8" font-family="Nimbus Sans L" font-size="14.00" fill="#000000">[STRING] formatid (Optional)</text>
</a>
</g>
<g id="a_node7_30"><a xlink:href="/idmef_parser/IODEF/AdditionalData.html" xlink:title="This attribute has been defined in Section 3.2.">
<polygon fill="#ffcc66" stroke="transparent" points="280.5,-4 280.5,-25 467.5,-25 467.5,-4 280.5,-4"/>
<polygon fill="none" stroke="#000000" points="280.5,-4 280.5,-25 467.5,-25 467.5,-4 280.5,-4"/>
<text text-anchor="start" x="286.5" y="-10.8" font-family="Nimbus Sans L" font-size="14.00" fill="#000000">[ENUM] restriction (Optional)</text>
</a>
</g>
</g>
<!-- Assessment&#45;&gt;AdditionalData -->
<g id="edge6" class="edge">
<title>Assessment&#45;&gt;AdditionalData</title>
<path fill="none" stroke="#000000" d="M128.6442,-296.1644C158.7307,-256.2586 210.8612,-191.0562 264,-143 264.8152,-142.2627 265.6379,-141.5267 266.4675,-140.792"/>
<polygon fill="#000000" stroke="#000000" points="268.8053,-143.3978 274.1047,-134.2235 264.2408,-138.0907 268.8053,-143.3978"/>
<text text-anchor="middle" x="234.5" y="-184.8" font-family="Times,serif" font-size="14.00" fill="#000000">0..*</text>
</g>
</g>
</svg>
