<?xml version="1.0" encoding="UTF-8" standalone="no"?>
<!DOCTYPE svg PUBLIC "-//W3C//DTD SVG 1.1//EN"
 "http://www.w3.org/Graphics/SVG/1.1/DTD/svg11.dtd">
<!-- Generated by graphviz version 2.38.0 (20140413.2041)
 -->
<!-- Title: Assessment Pages: 1 -->
<svg width="479pt" height="735pt"
 viewBox="0.00 0.00 479.00 735.00" xmlns="http://www.w3.org/2000/svg" xmlns:xlink="http://www.w3.org/1999/xlink">
<g id="graph0" class="graph" transform="scale(1 1) rotate(0) translate(4 731)">
<title>Assessment</title>
<polygon fill="white" stroke="none" points="-4,4 -4,-731 475,-731 475,4 -4,4"/>
<!-- Assessment -->
<g id="node1" class="node"><title>Assessment</title>
<g id="a_node1_0"><a xlink:href="/idmef_parser/IODEF/Assessment.html" xlink:title="The Assessment class describes the technical and non&#45;technical repercussions of the incident on the CSIRT&#39;s constituency. ">
<polygon fill="#993016" stroke="none" points="8.5,-342 8.5,-363 191.5,-363 191.5,-342 8.5,-342"/>
<polygon fill="none" stroke="black" points="8.5,-342 8.5,-363 191.5,-363 191.5,-342 8.5,-342"/>
<text text-anchor="start" x="67.5" y="-348.8" font-family="Times,serif" font-size="14.00">Assessment</text>
</a>
</g>
<g id="a_node1_1"><a xlink:href="/idmef_parser/IODEF/Assessment.html" xlink:title="Specifies whether the assessment is describing actual or potential outcomes. &#160;The default is &quot;actual&quot; and is assumed if not specified.">
<polygon fill="#ff5024" stroke="none" points="8.5,-321 8.5,-342 191.5,-342 191.5,-321 8.5,-321"/>
<polygon fill="none" stroke="black" points="8.5,-321 8.5,-342 191.5,-342 191.5,-321 8.5,-321"/>
<text text-anchor="start" x="11.5" y="-327.8" font-family="Times,serif" font-size="14.00">[ENUM] occurrence (Optional) </text>
</a>
</g>
<g id="a_node1_2"><a xlink:href="/idmef_parser/IODEF/Assessment.html" xlink:title="This attribute is defined in Section 3.2.">
<polygon fill="#ff5024" stroke="none" points="8.5,-300 8.5,-321 191.5,-321 191.5,-300 8.5,-300"/>
<polygon fill="none" stroke="black" points="8.5,-300 8.5,-321 191.5,-321 191.5,-300 8.5,-300"/>
<text text-anchor="start" x="14" y="-306.8" font-family="Times,serif" font-size="14.00">[ENUM] restriction (Optional) </text>
</a>
</g>
</g>
<!-- Impact -->
<g id="node2" class="node"><title>Impact</title>
<g id="a_node2_3"><a xlink:href="/idmef_parser/IODEF/Impact.html" xlink:title="The Impact class allows for categorizing and describing the technical impact of the incident on the network of an organization. ">
<polygon fill="#993016" stroke="none" points="272,-702 272,-723 457,-723 457,-702 272,-702"/>
<polygon fill="none" stroke="black" points="272,-702 272,-723 457,-723 457,-702 272,-702"/>
<text text-anchor="start" x="345" y="-708.8" font-family="Times,serif" font-size="14.00">Impact</text>
</a>
</g>
<g id="a_node2_4"><a xlink:href="/idmef_parser/IODEF/Impact.html" xlink:title="A valid language code per RFC 4646 [7] constrained by the definition of &quot;xs:language&quot;. &#160;The interpretation of this code is described in Section 6.">
<polygon fill="#ff5024" stroke="none" points="272,-681 272,-702 457,-702 457,-681 272,-681"/>
<polygon fill="none" stroke="black" points="272,-681 272,-702 457,-702 457,-681 272,-681"/>
<text text-anchor="start" x="293" y="-687.8" font-family="Times,serif" font-size="14.00">[ENUM] lang (Required) </text>
</a>
</g>
<g id="a_node2_5"><a xlink:href="/idmef_parser/IODEF/Impact.html" xlink:title="An estimate of the relative severity of the activity. &#160;The permitted values are shown below. &#160;There is no default value.">
<polygon fill="#ff5024" stroke="none" points="272,-660 272,-681 457,-681 457,-660 272,-660"/>
<polygon fill="none" stroke="black" points="272,-660 272,-681 457,-681 457,-660 272,-660"/>
<text text-anchor="start" x="284.5" y="-666.8" font-family="Times,serif" font-size="14.00">[ENUM] severity (Optional) </text>
</a>
</g>
<g id="a_node2_6"><a xlink:href="/idmef_parser/IODEF/Impact.html" xlink:title="An indication whether the described activity was successful. &#160;The permitted values are shown below. &#160;There is no default value.">
<polygon fill="#ff5024" stroke="none" points="272,-639 272,-660 457,-660 457,-639 272,-639"/>
<polygon fill="none" stroke="black" points="272,-639 272,-660 457,-660 457,-639 272,-639"/>
<text text-anchor="start" x="275" y="-645.8" font-family="Times,serif" font-size="14.00">[ENUM] completion (Optional) </text>
</a>
</g>
<g id="a_node2_7"><a xlink:href="/idmef_parser/IODEF/Impact.html" xlink:title="Classifies the malicious activity into incident categories. &#160;The permitted values are shown below. &#160;The default value is &quot;other&quot;.">
<polygon fill="#ff5024" stroke="none" points="272,-618 272,-639 457,-639 457,-618 272,-618"/>
<polygon fill="none" stroke="black" points="272,-618 272,-639 457,-639 457,-618 272,-618"/>
<text text-anchor="start" x="293" y="-624.8" font-family="Times,serif" font-size="14.00">[ENUM] type (Required) </text>
</a>
</g>
<g id="a_node2_8"><a xlink:href="/idmef_parser/IODEF/Impact.html" xlink:title="A means by which to extend the type attribute. See Section 5.1.">
<polygon fill="#ff5024" stroke="none" points="272,-597 272,-618 457,-618 457,-597 272,-597"/>
<polygon fill="none" stroke="black" points="272,-597 272,-618 457,-618 457,-597 272,-597"/>
<text text-anchor="start" x="279.5" y="-603.8" font-family="Times,serif" font-size="14.00">[STRING] ext&#45;type (Optional) </text>
</a>
</g>
</g>
<!-- Assessment&#45;&gt;Impact -->
<g id="edge1" class="edge"><title>Assessment&#45;&gt;Impact</title>
<path fill="none" stroke="black" d="M116.942,-367.546C142.02,-419.227 193.659,-516.315 257,-584 257.522,-584.558 258.049,-585.115 258.58,-585.669"/>
<polygon fill="black" stroke="black" points="256.168,-588.207 265.72,-592.791 261.112,-583.251 256.168,-588.207"/>
<text text-anchor="middle" x="228" y="-562.8" font-family="Times,serif" font-size="14.00">0..*</text>
</g>
<!-- TimeImpact -->
<g id="node3" class="node"><title>TimeImpact</title>
<g id="a_node3_9"><a xlink:href="/idmef_parser/IODEF/TimeImpact.html" xlink:title="The TimeImpact class describes the impact of the incident on an organization as a function of time. It provides a way to convey down time and recovery time. ">
<polygon fill="#993016" stroke="none" points="265,-550 265,-571 463,-571 463,-550 265,-550"/>
<polygon fill="none" stroke="black" points="265,-550 265,-571 463,-571 463,-550 265,-550"/>
<text text-anchor="start" x="330" y="-556.8" font-family="Times,serif" font-size="14.00">TimeImpact</text>
</a>
</g>
<g id="a_node3_10"><a xlink:href="/idmef_parser/IODEF/TimeImpact.html" xlink:title="An estimate of the relative severity of the activity. &#160;The permitted values are shown below. &#160;There is no default value.">
<polygon fill="#ff5024" stroke="none" points="265,-529 265,-550 463,-550 463,-529 265,-529"/>
<polygon fill="none" stroke="black" points="265,-529 265,-550 463,-550 463,-529 265,-529"/>
<text text-anchor="start" x="284" y="-535.8" font-family="Times,serif" font-size="14.00">[ENUM] severity (Optional) </text>
</a>
</g>
<g id="a_node3_11"><a xlink:href="/idmef_parser/IODEF/TimeImpact.html" xlink:title="Defines the metric in which the time is expressed. &#160;The permitted values are shown below. &#160;There is no default value.">
<polygon fill="#ff5024" stroke="none" points="265,-508 265,-529 463,-529 463,-508 265,-508"/>
<polygon fill="none" stroke="black" points="265,-508 265,-529 463,-529 463,-508 265,-508"/>
<text text-anchor="start" x="286.5" y="-514.8" font-family="Times,serif" font-size="14.00">[ENUM] metric (Required) </text>
</a>
</g>
<g id="a_node3_12"><a xlink:href="/idmef_parser/IODEF/TimeImpact.html" xlink:title="A means by which to extend the metric attribute. &#160;See Section 5.1.">
<polygon fill="#ff5024" stroke="none" points="265,-487 265,-508 463,-508 463,-487 265,-487"/>
<polygon fill="none" stroke="black" points="265,-487 265,-508 463,-508 463,-487 265,-487"/>
<text text-anchor="start" x="273" y="-493.8" font-family="Times,serif" font-size="14.00">[STRING] ext&#45;metric (Optional) </text>
</a>
</g>
<g id="a_node3_13"><a xlink:href="/idmef_parser/IODEF/TimeImpact.html" xlink:title="Defines a unit of time, that when combined with the metric attribute, fully describes a metric of impact that will be conveyed in the element content. &#160;The permitted values are shown below. &#160;The default value is &quot;hour&quot;.">
<polygon fill="#ff5024" stroke="none" points="265,-466 265,-487 463,-487 463,-466 265,-466"/>
<polygon fill="none" stroke="black" points="265,-466 265,-487 463,-487 463,-466 265,-466"/>
<text text-anchor="start" x="281.5" y="-472.8" font-family="Times,serif" font-size="14.00">[ENUM] duration (Required) </text>
</a>
</g>
<g id="a_node3_14"><a xlink:href="/idmef_parser/IODEF/TimeImpact.html" xlink:title="A means by which to extend the duration attribute. &#160;See Section 5.1.">
<polygon fill="#ff5024" stroke="none" points="265,-445 265,-466 463,-466 463,-445 265,-445"/>
<polygon fill="none" stroke="black" points="265,-445 265,-466 463,-466 463,-445 265,-445"/>
<text text-anchor="start" x="268" y="-451.8" font-family="Times,serif" font-size="14.00">[STRING] ext&#45;duration (Optional) </text>
</a>
</g>
</g>
<!-- Assessment&#45;&gt;TimeImpact -->
<g id="edge2" class="edge"><title>Assessment&#45;&gt;TimeImpact</title>
<path fill="none" stroke="black" d="M153.621,-367.616C182.677,-387.098 219.765,-411.964 254.63,-435.341"/>
<polygon fill="black" stroke="black" points="252.712,-438.269 262.967,-440.93 256.611,-432.454 252.712,-438.269"/>
<text text-anchor="middle" x="228" y="-423.8" font-family="Times,serif" font-size="14.00">0..*</text>
</g>
<!-- MonetaryImpact -->
<g id="node4" class="node"><title>MonetaryImpact</title>
<g id="a_node4_15"><a xlink:href="/idmef_parser/IODEF/MonetaryImpact.html" xlink:title="The MonetaryImpact class describes the financial impact of the activity on an organization. For example, this impact may consider losses due to the cost of the investigation or recovery, diminished ">
<polygon fill="#993016" stroke="none" points="274,-397 274,-418 455,-418 455,-397 274,-397"/>
<polygon fill="none" stroke="black" points="274,-397 274,-418 455,-418 455,-397 274,-397"/>
<text text-anchor="start" x="318.5" y="-403.8" font-family="Times,serif" font-size="14.00">MonetaryImpact</text>
</a>
</g>
<g id="a_node4_16"><a xlink:href="/idmef_parser/IODEF/MonetaryImpact.html" xlink:title="An estimate of the relative severity of the activity. &#160;The permitted values are shown below. &#160;There is no default value.">
<polygon fill="#ff5024" stroke="none" points="274,-376 274,-397 455,-397 455,-376 274,-376"/>
<polygon fill="none" stroke="black" points="274,-376 274,-397 455,-397 455,-376 274,-376"/>
<text text-anchor="start" x="284.5" y="-382.8" font-family="Times,serif" font-size="14.00">[ENUM] severity (Optional) </text>
</a>
</g>
<g id="a_node4_17"><a xlink:href="/idmef_parser/IODEF/MonetaryImpact.html" xlink:title="Defines the currency in which the monetary impact is expressed. &#160;The permitted values are defined in ISO 4217:2001, Codes for the representation of currencies and funds [14]. &#160;There is no default value.">
<polygon fill="#ff5024" stroke="none" points="274,-355 274,-376 455,-376 455,-355 274,-355"/>
<polygon fill="none" stroke="black" points="274,-355 274,-376 455,-376 455,-355 274,-355"/>
<text text-anchor="start" x="277" y="-361.8" font-family="Times,serif" font-size="14.00">[STRING] currency (Required) </text>
</a>
</g>
</g>
<!-- Assessment&#45;&gt;MonetaryImpact -->
<g id="edge3" class="edge"><title>Assessment&#45;&gt;MonetaryImpact</title>
<path fill="none" stroke="black" d="M199.366,-352.715C217.599,-356.535 236.72,-360.541 255.201,-364.414"/>
<polygon fill="black" stroke="black" points="254.589,-367.861 265.094,-366.486 256.025,-361.01 254.589,-367.861"/>
<text text-anchor="middle" x="228" y="-362.8" font-family="Times,serif" font-size="14.00">0..*</text>
</g>
<!-- Counter -->
<g id="node5" class="node"><title>Counter</title>
<g id="a_node5_18"><a xlink:href="/idmef_parser/IODEF/Counter.html" xlink:title="The Counter class summarize multiple occurrences of some event, or conveys counts or rates on various features (e.g., packets, sessions, events). ">
<polygon fill="#993016" stroke="none" points="265,-308 265,-329 463,-329 463,-308 265,-308"/>
<polygon fill="none" stroke="black" points="265,-308 265,-329 463,-329 463,-308 265,-308"/>
<text text-anchor="start" x="342" y="-314.8" font-family="Times,serif" font-size="14.00">Counter</text>
</a>
</g>
<g id="a_node5_19"><a xlink:href="/idmef_parser/IODEF/Counter.html" xlink:title="Specifies the units of the element content.">
<polygon fill="#ff5024" stroke="none" points="265,-287 265,-308 463,-308 463,-287 265,-287"/>
<polygon fill="none" stroke="black" points="265,-287 265,-308 463,-308 463,-287 265,-287"/>
<text text-anchor="start" x="292.5" y="-293.8" font-family="Times,serif" font-size="14.00">[ENUM] type (Required) </text>
</a>
</g>
<g id="a_node5_20"><a xlink:href="/idmef_parser/IODEF/Counter.html" xlink:title="A means by which to extend the type attribute. See Section 5.1.">
<polygon fill="#ff5024" stroke="none" points="265,-266 265,-287 463,-287 463,-266 265,-266"/>
<polygon fill="none" stroke="black" points="265,-266 265,-287 463,-287 463,-266 265,-266"/>
<text text-anchor="start" x="279" y="-272.8" font-family="Times,serif" font-size="14.00">[STRING] ext&#45;type (Optional) </text>
</a>
</g>
<g id="a_node5_21"><a xlink:href="/idmef_parser/IODEF/Counter.html" xlink:title="If present, the Counter class represents a rate rather than a count over the entire event. &#160;In that case, this attribute specifies the denominator of the rate (where the type attribute specified the nominator). &#160;The possible values of this attribute are defined in Section 3.10.2">
<polygon fill="#ff5024" stroke="none" points="265,-245 265,-266 463,-266 463,-245 265,-245"/>
<polygon fill="none" stroke="black" points="265,-245 265,-266 463,-266 463,-245 265,-245"/>
<text text-anchor="start" x="282.5" y="-251.8" font-family="Times,serif" font-size="14.00">[ENUM] duration (Optional) </text>
</a>
</g>
<g id="a_node5_22"><a xlink:href="/idmef_parser/IODEF/Counter.html" xlink:title="A means by which to extend the duration attribute. &#160;See Section 5.1.">
<polygon fill="#ff5024" stroke="none" points="265,-224 265,-245 463,-245 463,-224 265,-224"/>
<polygon fill="none" stroke="black" points="265,-224 265,-245 463,-245 463,-224 265,-224"/>
<text text-anchor="start" x="268" y="-230.8" font-family="Times,serif" font-size="14.00">[STRING] ext&#45;duration (Optional) </text>
</a>
</g>
</g>
<!-- Assessment&#45;&gt;Counter -->
<g id="edge4" class="edge"><title>Assessment&#45;&gt;Counter</title>
<path fill="none" stroke="black" d="M199.366,-311.285C214.892,-308.032 231.062,-304.644 246.933,-301.319"/>
<polygon fill="black" stroke="black" points="247.697,-304.735 256.767,-299.258 246.262,-297.884 247.697,-304.735"/>
<text text-anchor="middle" x="228" y="-309.8" font-family="Times,serif" font-size="14.00">0..*</text>
</g>
<!-- Confidence -->
<g id="node6" class="node"><title>Confidence</title>
<g id="a_node6_23"><a xlink:href="/idmef_parser/IODEF/Confidence.html" xlink:title="The Confidence class represents a best estimate of the validity and accuracy of the described impact (see Section 3.10) of the incident activity. This estimate can be expressed as a category or a numeric calculation. ">
<polygon fill="#993016" stroke="none" points="286,-177 286,-198 443,-198 443,-177 286,-177"/>
<polygon fill="none" stroke="black" points="286,-177 286,-198 443,-198 443,-177 286,-177"/>
<text text-anchor="start" x="333" y="-183.8" font-family="Times,serif" font-size="14.00">Confidence</text>
</a>
</g>
<g id="a_node6_24"><a xlink:href="/idmef_parser/IODEF/Confidence.html" xlink:title="A rating of the analytical validity of the specified Assessment. &#160;The permitted values are shown below. There is no default value.">
<polygon fill="#ff5024" stroke="none" points="286,-156 286,-177 443,-177 443,-156 286,-156"/>
<polygon fill="none" stroke="black" points="286,-156 286,-177 443,-177 443,-156 286,-156"/>
<text text-anchor="start" x="289" y="-162.8" font-family="Times,serif" font-size="14.00">[ENUM] rating (Required) </text>
</a>
</g>
</g>
<!-- Assessment&#45;&gt;Confidence -->
<g id="edge5" class="edge"><title>Assessment&#45;&gt;Confidence</title>
<path fill="none" stroke="black" d="M138.708,-296.282C168.879,-269.678 213.079,-234.105 257,-211 260.554,-209.13 264.23,-207.34 267.984,-205.629"/>
<polygon fill="black" stroke="black" points="269.662,-208.717 277.453,-201.537 266.885,-202.291 269.662,-208.717"/>
<text text-anchor="middle" x="228" y="-237.8" font-family="Times,serif" font-size="14.00">0..1</text>
</g>
<!-- AdditionalData -->
<g id="node7" class="node"><title>AdditionalData</title>
<g id="a_node7_25"><a xlink:href="/idmef_parser/IODEF/AdditionalData.html" xlink:title="The AdditionalData class serves as an extension mechanism for information not otherwise represented in the data model. For relatively simple information, atomic data types (e.g., integers, strings) are provided with a mechanism to annotate their meaning. The class can also be used to extend the data model (and the associated Schema) to support proprietary extensions by encapsulating entire XML documents conforming to another Schema (e.g., IDMEF). A detailed discussion for extending the data model and the schema can be found in Section 5. ">
<polygon fill="#997a3d" stroke="none" points="273,-109 273,-130 456,-130 456,-109 273,-109"/>
<polygon fill="none" stroke="black" points="273,-109 273,-130 456,-130 456,-109 273,-109"/>
<text text-anchor="start" x="322.5" y="-115.8" font-family="Times,serif" font-size="14.00">AdditionalData</text>
</a>
</g>
<g id="a_node7_26"><a xlink:href="/idmef_parser/IODEF/AdditionalData.html" xlink:title="The data type of the element content. &#160;The permitted values for this attribute are shown below. &#160;The default value is &quot;string&quot;.">
<polygon fill="#ffcc66" stroke="none" points="273,-88 273,-109 456,-109 456,-88 273,-88"/>
<polygon fill="none" stroke="black" points="273,-88 273,-109 456,-109 456,-88 273,-88"/>
<text text-anchor="start" x="289.5" y="-94.8" font-family="Times,serif" font-size="14.00">[ENUM] dtype (Required) </text>
</a>
</g>
<g id="a_node7_27"><a xlink:href="/idmef_parser/IODEF/AdditionalData.html" xlink:title="A means by which to extend the dtype attribute. &#160;See Section 5.1.">
<polygon fill="#ffcc66" stroke="none" points="273,-67 273,-88 456,-88 456,-67 273,-67"/>
<polygon fill="none" stroke="black" points="273,-67 273,-88 456,-88 456,-67 273,-67"/>
<text text-anchor="start" x="276" y="-73.8" font-family="Times,serif" font-size="14.00">[STRING] ext&#45;dtype (Optional) </text>
</a>
</g>
<g id="a_node7_28"><a xlink:href="/idmef_parser/IODEF/AdditionalData.html" xlink:title="A free&#45;form description of the element content.">
<polygon fill="#ffcc66" stroke="none" points="273,-46 273,-67 456,-67 456,-46 273,-46"/>
<polygon fill="none" stroke="black" points="273,-46 273,-67 456,-67 456,-46 273,-46"/>
<text text-anchor="start" x="278" y="-52.8" font-family="Times,serif" font-size="14.00">[STRING] meaning (Optional) </text>
</a>
</g>
<g id="a_node7_29"><a xlink:href="/idmef_parser/IODEF/AdditionalData.html" xlink:title="An identifier referencing the format and semantics of the element content.">
<polygon fill="#ffcc66" stroke="none" points="273,-25 273,-46 456,-46 456,-25 273,-25"/>
<polygon fill="none" stroke="black" points="273,-25 273,-46 456,-46 456,-25 273,-25"/>
<text text-anchor="start" x="278" y="-31.8" font-family="Times,serif" font-size="14.00">[STRING] formatid (Optional) </text>
</a>
</g>
<g id="a_node7_30"><a xlink:href="/idmef_parser/IODEF/AdditionalData.html" xlink:title="This attribute has been defined in Section 3.2.">
<polygon fill="#ffcc66" stroke="none" points="273,-4 273,-25 456,-25 456,-4 273,-4"/>
<polygon fill="none" stroke="black" points="273,-4 273,-25 456,-25 456,-4 273,-4"/>
<text text-anchor="start" x="278.5" y="-10.8" font-family="Times,serif" font-size="14.00">[ENUM] restriction (Optional) </text>
</a>
</g>
</g>
<!-- Assessment&#45;&gt;AdditionalData -->
<g id="edge6" class="edge"><title>Assessment&#45;&gt;AdditionalData</title>
<path fill="none" stroke="black" d="M125.753,-296.231C154.835,-256.385 205.286,-191.236 257,-143 257.807,-142.247 258.622,-141.495 259.444,-140.745"/>
<polygon fill="black" stroke="black" points="261.856,-143.284 267.019,-134.033 257.213,-138.045 261.856,-143.284"/>
<text text-anchor="middle" x="228" y="-185.8" font-family="Times,serif" font-size="14.00">0..*</text>
</g>
</g>
</svg>
