<?xml version="1.0" encoding="UTF-8" standalone="no"?>
<!DOCTYPE svg PUBLIC "-//W3C//DTD SVG 1.1//EN"
 "http://www.w3.org/Graphics/SVG/1.1/DTD/svg11.dtd">
<!-- Generated by graphviz version 2.26.3 (20100126.1600)
 -->
<!-- Title: Confidence Pages: 1 -->
<svg width="210pt" height="56pt"
 viewBox="0.00 0.00 210.00 56.00" xmlns="http://www.w3.org/2000/svg" xmlns:xlink="http://www.w3.org/1999/xlink">
<g id="graph1" class="graph" transform="scale(1 1) rotate(0) translate(4 52)">
<title>Confidence</title>
<polygon fill="white" stroke="white" points="-4,5 -4,-52 207,-52 207,5 -4,5"/>
<!-- Confidence -->
<g id="node1" class="node"><title>Confidence</title>
<a xlink:href="/idmef_parser/IODEF/Confidence.html" xlink:title="The Confidence class represents a best estimate of the validity and accuracy of the described impact (see Section 3.10) of the incident activity. This estimate can be expressed as a category or a numeric calculation. ">
<polygon fill="#993016" stroke="#993016" points="8,-23 8,-44 194,-44 194,-23 8,-23"/>
<polygon fill="none" stroke="black" points="8,-23 8,-44 194,-44 194,-23 8,-23"/>
<text text-anchor="start" x="63" y="-30.2333" font-family="Times Roman,serif" font-size="14.00">Confidence</text>
</a>
<a xlink:href="/idmef_parser/IODEF/Confidence.html" xlink:title="A rating of the analytical validity of the specified Assessment. &#160;The permitted values are shown below. There is no default value.">
<polygon fill="#ff5024" stroke="#ff5024" points="8,-3 8,-23 194,-23 194,-3 8,-3"/>
<polygon fill="none" stroke="black" points="8,-3 8,-23 194,-23 194,-3 8,-3"/>
<text text-anchor="start" x="11.5" y="-9.73333" font-family="Times Roman,serif" font-size="14.00">[ENUM] rating (Required) </text>
</a>
</g>
</g>
</svg>
