<?xml version="1.0" encoding="UTF-8" standalone="no"?>
<!DOCTYPE svg PUBLIC "-//W3C//DTD SVG 1.1//EN"
 "http://www.w3.org/Graphics/SVG/1.1/DTD/svg11.dtd">
<!-- Generated by graphviz version 2.38.0 (20140413.2041)
 -->
<!-- Title: Confidence Pages: 1 -->
<svg width="181pt" height="58pt"
 viewBox="0.00 0.00 181.00 58.00" xmlns="http://www.w3.org/2000/svg" xmlns:xlink="http://www.w3.org/1999/xlink">
<g id="graph0" class="graph" transform="scale(1 1) rotate(0) translate(4 54)">
<title>Confidence</title>
<polygon fill="white" stroke="none" points="-4,4 -4,-54 177,-54 177,4 -4,4"/>
<!-- Confidence -->
<g id="node1" class="node"><title>Confidence</title>
<g id="a_node1_0"><a xlink:href="/idmef_parser/IODEF/Confidence.html" xlink:title="The Confidence class represents a best estimate of the validity and accuracy of the described impact (see Section 3.10) of the incident activity. This estimate can be expressed as a category or a numeric calculation. ">
<polygon fill="#993016" stroke="none" points="8.5,-25 8.5,-46 165.5,-46 165.5,-25 8.5,-25"/>
<polygon fill="none" stroke="black" points="8.5,-25 8.5,-46 165.5,-46 165.5,-25 8.5,-25"/>
<text text-anchor="start" x="55.5" y="-31.8" font-family="Times,serif" font-size="14.00">Confidence</text>
</a>
</g>
<g id="a_node1_1"><a xlink:href="/idmef_parser/IODEF/Confidence.html" xlink:title="A rating of the analytical validity of the specified Assessment. &#160;The permitted values are shown below. There is no default value.">
<polygon fill="#ff5024" stroke="none" points="8.5,-4 8.5,-25 165.5,-25 165.5,-4 8.5,-4"/>
<polygon fill="none" stroke="black" points="8.5,-4 8.5,-25 165.5,-25 165.5,-4 8.5,-4"/>
<text text-anchor="start" x="11.5" y="-10.8" font-family="Times,serif" font-size="14.00">[ENUM] rating (Required) </text>
</a>
</g>
</g>
</g>
</svg>
