<?xml version="1.0" encoding="UTF-8" standalone="no"?>
<!DOCTYPE svg PUBLIC "-//W3C//DTD SVG 1.1//EN"
 "http://www.w3.org/Graphics/SVG/1.1/DTD/svg11.dtd">
<!-- Generated by graphviz version 2.38.0 (20140413.2041)
 -->
<!-- Title: Contact Pages: 1 -->
<svg width="500pt" height="389pt"
 viewBox="0.00 0.00 500.00 388.50" xmlns="http://www.w3.org/2000/svg" xmlns:xlink="http://www.w3.org/1999/xlink">
<g id="graph0" class="graph" transform="scale(1 1) rotate(0) translate(4 384.5)">
<title>Contact</title>
<polygon fill="white" stroke="none" points="-4,4 -4,-384.5 496,-384.5 496,4 -4,4"/>
<!-- Contact -->
<g id="node1" class="node"><title>Contact</title>
<g id="a_node1_0"><a xlink:href="/idmef_parser/IODEF/Contact.html" xlink:title="The Contact class describes contact information for organizations and personnel involved in the incident. This class allows for the naming of the involved party, specifying contact information for them, and identifying their role in the incident. ">
<polygon fill="#7a993d" stroke="none" points="8,-310 8,-331 216,-331 216,-310 8,-310"/>
<polygon fill="none" stroke="black" points="8,-310 8,-331 216,-331 216,-310 8,-310"/>
<text text-anchor="start" x="90.5" y="-316.8" font-family="Times,serif" font-size="14.00">Contact</text>
</a>
</g>
<g id="a_node1_1"><a xlink:href="/idmef_parser/IODEF/Contact.html" xlink:title="The name of the contact. &#160;The contact may either be an organization or a person. &#160;The type attribute disambiguates the semantics.">
<polygon fill="#ccff66" stroke="none" points="8,-289 8,-310 216,-310 216,-289 8,-289"/>
<polygon fill="none" stroke="black" points="8,-289 8,-310 216,-310 216,-289 8,-289"/>
<text text-anchor="start" x="11" y="-295.8" font-family="Times,serif" font-size="14.00">[ML_STRING] ContactName (0..1) </text>
</a>
</g>
<g id="a_node1_2"><a xlink:href="/idmef_parser/IODEF/Contact.html" xlink:title="A free&#45;form description of this contact. &#160;In the case of a person, this is often the organizational title of the individual.">
<polygon fill="#ccff66" stroke="none" points="8,-268 8,-289 216,-289 216,-268 8,-268"/>
<polygon fill="none" stroke="black" points="8,-268 8,-289 216,-289 216,-268 8,-268"/>
<text text-anchor="start" x="17" y="-274.8" font-family="Times,serif" font-size="14.00">[ML_STRING] Description (0..*) </text>
</a>
</g>
<g id="a_node1_3"><a xlink:href="/idmef_parser/IODEF/Contact.html" xlink:title="The telephone number of the contact.">
<polygon fill="#ccff66" stroke="none" points="8,-247 8,-268 216,-268 216,-247 8,-247"/>
<polygon fill="none" stroke="black" points="8,-247 8,-268 216,-268 216,-247 8,-247"/>
<text text-anchor="start" x="58" y="-253.8" font-family="Times,serif" font-size="14.00">[] Telephone (0..*) </text>
</a>
</g>
<g id="a_node1_4"><a xlink:href="/idmef_parser/IODEF/Contact.html" xlink:title="The facsimile telephone number of the contact.">
<polygon fill="#ccff66" stroke="none" points="8,-226 8,-247 216,-247 216,-226 8,-226"/>
<polygon fill="none" stroke="black" points="8,-226 8,-247 216,-247 216,-226 8,-226"/>
<text text-anchor="start" x="76.5" y="-232.8" font-family="Times,serif" font-size="14.00">[] Fax (0..1) </text>
</a>
</g>
<g id="a_node1_5"><a xlink:href="/idmef_parser/IODEF/Contact.html" xlink:title="The timezone in which the contact resides formatted according to Section 2.9.">
<polygon fill="#ccff66" stroke="none" points="8,-205 8,-226 216,-226 216,-205 8,-205"/>
<polygon fill="none" stroke="black" points="8,-205 8,-226 216,-226 216,-205 8,-205"/>
<text text-anchor="start" x="24.5" y="-211.8" font-family="Times,serif" font-size="14.00">[TIMEZONE] Timezone (0..1) </text>
</a>
</g>
<g id="a_node1_6"><a xlink:href="/idmef_parser/IODEF/Contact.html" xlink:title="Indicates the role the contact fulfills. &#160;This attribute is defined as an enumerated list:">
<polygon fill="#ccff66" stroke="none" points="8,-184 8,-205 216,-205 216,-184 8,-184"/>
<polygon fill="none" stroke="black" points="8,-184 8,-205 216,-205 216,-184 8,-184"/>
<text text-anchor="start" x="41.5" y="-190.8" font-family="Times,serif" font-size="14.00">[ENUM] role (Required) </text>
</a>
</g>
<g id="a_node1_7"><a xlink:href="/idmef_parser/IODEF/Contact.html" xlink:title="A means by which to extend the role attribute. See Section 5.1.">
<polygon fill="#ccff66" stroke="none" points="8,-163 8,-184 216,-184 216,-163 8,-163"/>
<polygon fill="none" stroke="black" points="8,-163 8,-184 216,-184 216,-163 8,-163"/>
<text text-anchor="start" x="28" y="-169.8" font-family="Times,serif" font-size="14.00">[STRING] ext&#45;role (Optional) </text>
</a>
</g>
<g id="a_node1_8"><a xlink:href="/idmef_parser/IODEF/Contact.html" xlink:title="Indicates the type of contact being described. This attribute is defined as an enumerated list:">
<polygon fill="#ccff66" stroke="none" points="8,-142 8,-163 216,-163 216,-142 8,-142"/>
<polygon fill="none" stroke="black" points="8,-142 8,-163 216,-163 216,-142 8,-142"/>
<text text-anchor="start" x="40.5" y="-148.8" font-family="Times,serif" font-size="14.00">[ENUM] type (Required) </text>
</a>
</g>
<g id="a_node1_9"><a xlink:href="/idmef_parser/IODEF/Contact.html" xlink:title="A means by which to extend the type attribute. See Section 5.1.">
<polygon fill="#ccff66" stroke="none" points="8,-121 8,-142 216,-142 216,-121 8,-121"/>
<polygon fill="none" stroke="black" points="8,-121 8,-142 216,-142 216,-121 8,-121"/>
<text text-anchor="start" x="27" y="-127.8" font-family="Times,serif" font-size="14.00">[STRING] ext&#45;type (Optional) </text>
</a>
</g>
<g id="a_node1_10"><a xlink:href="/idmef_parser/IODEF/Contact.html" xlink:title="This attribute is defined in Section 3.2.">
<polygon fill="#ccff66" stroke="none" points="8,-100 8,-121 216,-121 216,-100 8,-100"/>
<polygon fill="none" stroke="black" points="8,-100 8,-121 216,-121 216,-100 8,-100"/>
<text text-anchor="start" x="26" y="-106.8" font-family="Times,serif" font-size="14.00">[ENUM] restriction (Optional) </text>
</a>
</g>
</g>
<!-- Contact&#45;&gt;Contact -->
<g id="edge4" class="edge"><title>Contact&#45;&gt;Contact</title>
<path fill="none" stroke="black" d="M91.1397,-335.75C95.4763,-346.646 102.43,-353.5 112,-353.5 118.58,-353.5 123.922,-350.261 128.028,-344.695"/>
<polygon fill="black" stroke="black" points="131.187,-346.212 132.86,-335.75 125.028,-342.885 131.187,-346.212"/>
<text text-anchor="middle" x="112" y="-357.3" font-family="Times,serif" font-size="14.00">0..*</text>
</g>
<!-- RegistryHandle -->
<g id="node2" class="node"><title>RegistryHandle</title>
<g id="a_node2_11"><a xlink:href="/idmef_parser/IODEF/RegistryHandle.html" xlink:title="The RegistryHandle class represents a handle into an Internet registry or community&#45;specific database. The handle is specified in the element content and the type attribute specifies the database. ">
<polygon fill="#7a993d" stroke="none" points="290,-355 290,-376 484,-376 484,-355 290,-355"/>
<polygon fill="none" stroke="black" points="290,-355 290,-376 484,-376 484,-355 290,-355"/>
<text text-anchor="start" x="344.5" y="-361.8" font-family="Times,serif" font-size="14.00">RegistryHandle</text>
</a>
</g>
<g id="a_node2_12"><a xlink:href="/idmef_parser/IODEF/RegistryHandle.html" xlink:title="The database to which the handle belongs. &#160;The default value is &#39;local&#39;. &#160;The possible values are:">
<polygon fill="#ccff66" stroke="none" points="290,-334 290,-355 484,-355 484,-334 290,-334"/>
<polygon fill="none" stroke="black" points="290,-334 290,-355 484,-355 484,-334 290,-334"/>
<text text-anchor="start" x="306.5" y="-340.8" font-family="Times,serif" font-size="14.00">[ENUM] registry (Required) </text>
</a>
</g>
<g id="a_node2_13"><a xlink:href="/idmef_parser/IODEF/RegistryHandle.html" xlink:title="A means by which to extend the registry attribute. &#160;See Section 5.1.">
<polygon fill="#ccff66" stroke="none" points="290,-313 290,-334 484,-334 484,-313 290,-313"/>
<polygon fill="none" stroke="black" points="290,-313 290,-334 484,-334 484,-313 290,-313"/>
<text text-anchor="start" x="293" y="-319.8" font-family="Times,serif" font-size="14.00">[STRING] ext&#45;registry (Optional) </text>
</a>
</g>
</g>
<!-- Contact&#45;&gt;RegistryHandle -->
<g id="edge1" class="edge"><title>Contact&#45;&gt;RegistryHandle</title>
<path fill="none" stroke="black" d="M224.31,-273.283C243.448,-282.758 263.22,-292.316 282,-301 285.12,-302.443 288.3,-303.894 291.517,-305.346"/>
<polygon fill="black" stroke="black" points="290.108,-308.55 300.666,-309.434 292.964,-302.159 290.108,-308.55"/>
<text text-anchor="middle" x="253" y="-295.8" font-family="Times,serif" font-size="14.00">0..*</text>
</g>
<!-- PostalAddress -->
<g id="node3" class="node"><title>PostalAddress</title>
<g id="a_node3_14"><a xlink:href="/idmef_parser/IODEF/PostalAddress.html" xlink:title="The PostalAddress class specifies a postal address formatted according to the POSTAL data type (Section 2.11). ">
<polygon fill="#7a993d" stroke="none" points="302,-266 302,-287 473,-287 473,-266 302,-266"/>
<polygon fill="none" stroke="black" points="302,-266 302,-287 473,-287 473,-266 302,-266"/>
<text text-anchor="start" x="348.5" y="-272.8" font-family="Times,serif" font-size="14.00">PostalAddress</text>
</a>
</g>
<g id="a_node3_15"><a xlink:href="/idmef_parser/IODEF/PostalAddress.html" xlink:title="A free&#45;form description of the element content.">
<polygon fill="#ccff66" stroke="none" points="302,-245 302,-266 473,-266 473,-245 302,-245"/>
<polygon fill="none" stroke="black" points="302,-245 302,-266 473,-266 473,-245 302,-245"/>
<text text-anchor="start" x="305" y="-251.8" font-family="Times,serif" font-size="14.00">[ENUM] meaning (Optional) </text>
</a>
</g>
<g id="a_node3_16"><a xlink:href="/idmef_parser/IODEF/PostalAddress.html" xlink:title="A valid language code per RFC 4646 [7] constrained by the definition of &quot;xs:language&quot;. &#160;The interpretation of this code is described in Section 6.">
<polygon fill="#ccff66" stroke="none" points="302,-224 302,-245 473,-245 473,-224 302,-224"/>
<polygon fill="none" stroke="black" points="302,-224 302,-245 473,-245 473,-224 302,-224"/>
<text text-anchor="start" x="316" y="-230.8" font-family="Times,serif" font-size="14.00">[ENUM] lang (Required) </text>
</a>
</g>
</g>
<!-- Contact&#45;&gt;PostalAddress -->
<g id="edge2" class="edge"><title>Contact&#45;&gt;PostalAddress</title>
<path fill="none" stroke="black" d="M224.04,-232.27C243.65,-235.143 263.987,-238.123 283.354,-240.96"/>
<polygon fill="black" stroke="black" points="282.982,-244.443 293.384,-242.43 283.997,-237.517 282.982,-244.443"/>
<text text-anchor="middle" x="253" y="-240.8" font-family="Times,serif" font-size="14.00">0..1</text>
</g>
<!-- Email -->
<g id="node4" class="node"><title>Email</title>
<g id="a_node4_17"><a xlink:href="/idmef_parser/IODEF/Email.html" xlink:title="The Email class specifies an email address formatted according to EMAIL data type (Section 2.14). ">
<polygon fill="#7a993d" stroke="none" points="302,-177 302,-198 473,-198 473,-177 302,-177"/>
<polygon fill="none" stroke="black" points="302,-177 302,-198 473,-198 473,-177 302,-177"/>
<text text-anchor="start" x="370.5" y="-183.8" font-family="Times,serif" font-size="14.00">Email</text>
</a>
</g>
<g id="a_node4_18"><a xlink:href="/idmef_parser/IODEF/Email.html" xlink:title="A free&#45;form description of the element content (e.g., hours of coverage for a given number).">
<polygon fill="#ccff66" stroke="none" points="302,-156 302,-177 473,-177 473,-156 302,-156"/>
<polygon fill="none" stroke="black" points="302,-156 302,-177 473,-177 473,-156 302,-156"/>
<text text-anchor="start" x="305" y="-162.8" font-family="Times,serif" font-size="14.00">[ENUM] meaning (Optional) </text>
</a>
</g>
</g>
<!-- Contact&#45;&gt;Email -->
<g id="edge3" class="edge"><title>Contact&#45;&gt;Email</title>
<path fill="none" stroke="black" d="M224.04,-200.137C243.65,-197.336 263.987,-194.43 283.354,-191.664"/>
<polygon fill="black" stroke="black" points="283.98,-195.11 293.384,-190.231 282.99,-188.18 283.98,-195.11"/>
<text text-anchor="middle" x="253" y="-199.8" font-family="Times,serif" font-size="14.00">0..*</text>
</g>
<!-- AdditionalData -->
<g id="node5" class="node"><title>AdditionalData</title>
<g id="a_node5_19"><a xlink:href="/idmef_parser/IODEF/AdditionalData.html" xlink:title="The AdditionalData class serves as an extension mechanism for information not otherwise represented in the data model. For relatively simple information, atomic data types (e.g., integers, strings) are provided with a mechanism to annotate their meaning. The class can also be used to extend the data model (and the associated Schema) to support proprietary extensions by encapsulating entire XML documents conforming to another Schema (e.g., IDMEF). A detailed discussion for extending the data model and the schema can be found in Section 5. ">
<polygon fill="#997a3d" stroke="none" points="296,-109 296,-130 479,-130 479,-109 296,-109"/>
<polygon fill="none" stroke="black" points="296,-109 296,-130 479,-130 479,-109 296,-109"/>
<text text-anchor="start" x="345.5" y="-115.8" font-family="Times,serif" font-size="14.00">AdditionalData</text>
</a>
</g>
<g id="a_node5_20"><a xlink:href="/idmef_parser/IODEF/AdditionalData.html" xlink:title="The data type of the element content. &#160;The permitted values for this attribute are shown below. &#160;The default value is &quot;string&quot;.">
<polygon fill="#ffcc66" stroke="none" points="296,-88 296,-109 479,-109 479,-88 296,-88"/>
<polygon fill="none" stroke="black" points="296,-88 296,-109 479,-109 479,-88 296,-88"/>
<text text-anchor="start" x="312.5" y="-94.8" font-family="Times,serif" font-size="14.00">[ENUM] dtype (Required) </text>
</a>
</g>
<g id="a_node5_21"><a xlink:href="/idmef_parser/IODEF/AdditionalData.html" xlink:title="A means by which to extend the dtype attribute. &#160;See Section 5.1.">
<polygon fill="#ffcc66" stroke="none" points="296,-67 296,-88 479,-88 479,-67 296,-67"/>
<polygon fill="none" stroke="black" points="296,-67 296,-88 479,-88 479,-67 296,-67"/>
<text text-anchor="start" x="299" y="-73.8" font-family="Times,serif" font-size="14.00">[STRING] ext&#45;dtype (Optional) </text>
</a>
</g>
<g id="a_node5_22"><a xlink:href="/idmef_parser/IODEF/AdditionalData.html" xlink:title="A free&#45;form description of the element content.">
<polygon fill="#ffcc66" stroke="none" points="296,-46 296,-67 479,-67 479,-46 296,-46"/>
<polygon fill="none" stroke="black" points="296,-46 296,-67 479,-67 479,-46 296,-46"/>
<text text-anchor="start" x="301" y="-52.8" font-family="Times,serif" font-size="14.00">[STRING] meaning (Optional) </text>
</a>
</g>
<g id="a_node5_23"><a xlink:href="/idmef_parser/IODEF/AdditionalData.html" xlink:title="An identifier referencing the format and semantics of the element content.">
<polygon fill="#ffcc66" stroke="none" points="296,-25 296,-46 479,-46 479,-25 296,-25"/>
<polygon fill="none" stroke="black" points="296,-25 296,-46 479,-46 479,-25 296,-25"/>
<text text-anchor="start" x="301" y="-31.8" font-family="Times,serif" font-size="14.00">[STRING] formatid (Optional) </text>
</a>
</g>
<g id="a_node5_24"><a xlink:href="/idmef_parser/IODEF/AdditionalData.html" xlink:title="This attribute has been defined in Section 3.2.">
<polygon fill="#ffcc66" stroke="none" points="296,-4 296,-25 479,-25 479,-4 296,-4"/>
<polygon fill="none" stroke="black" points="296,-4 296,-25 479,-25 479,-4 296,-4"/>
<text text-anchor="start" x="301.5" y="-10.8" font-family="Times,serif" font-size="14.00">[ENUM] restriction (Optional) </text>
</a>
</g>
</g>
<!-- Contact&#45;&gt;AdditionalData -->
<g id="edge5" class="edge"><title>Contact&#45;&gt;AdditionalData</title>
<path fill="none" stroke="black" d="M224.04,-155.396C241.89,-145.653 260.343,-135.582 278.118,-125.881"/>
<polygon fill="black" stroke="black" points="280.243,-128.708 287.344,-120.845 276.89,-122.564 280.243,-128.708"/>
<text text-anchor="middle" x="253" y="-145.8" font-family="Times,serif" font-size="14.00">0..*</text>
</g>
</g>
</svg>
