<?xml version="1.0" encoding="UTF-8" standalone="no"?>
<!DOCTYPE svg PUBLIC "-//W3C//DTD SVG 1.1//EN"
 "http://www.w3.org/Graphics/SVG/1.1/DTD/svg11.dtd">
<!-- Generated by graphviz version 2.40.1 (0)
 -->
<!-- Title: Counter Pages: 1 -->
<svg width="227pt" height="121pt"
 viewBox="0.00 0.00 227.00 121.00" xmlns="http://www.w3.org/2000/svg" xmlns:xlink="http://www.w3.org/1999/xlink">
<g id="graph0" class="graph" transform="scale(1 1) rotate(0) translate(4 117)">
<title>Counter</title>
<polygon fill="#ffffff" stroke="transparent" points="-4,4 -4,-117 223,-117 223,4 -4,4"/>
<!-- Counter -->
<g id="node1" class="node">
<title>Counter</title>
<g id="a_node1_0"><a xlink:href="/idmef_parser/IODEF/Counter.html" xlink:title="The Counter class summarize multiple occurrences of some event, or conveys counts or rates on various features (e.g., packets, sessions, events). ">
<polygon fill="#cc401d" stroke="transparent" points="8.5,-87.5 8.5,-108.5 211.5,-108.5 211.5,-87.5 8.5,-87.5"/>
<polygon fill="none" stroke="#000000" points="8.5,-87.5 8.5,-108.5 211.5,-108.5 211.5,-87.5 8.5,-87.5"/>
<text text-anchor="start" x="85.5" y="-94.3" font-family="Nimbus Sans L" font-size="14.00" fill="#000000">Counter</text>
</a>
</g>
<g id="a_node1_1"><a xlink:href="/idmef_parser/IODEF/Counter.html" xlink:title="Specifies the units of the element content.">
<polygon fill="#ff5024" stroke="transparent" points="8.5,-66.5 8.5,-87.5 211.5,-87.5 211.5,-66.5 8.5,-66.5"/>
<polygon fill="none" stroke="#000000" points="8.5,-66.5 8.5,-87.5 211.5,-87.5 211.5,-66.5 8.5,-66.5"/>
<text text-anchor="start" x="37.5" y="-73.3" font-family="Nimbus Sans L" font-size="14.00" fill="#000000">[ENUM] type (Required)</text>
</a>
</g>
<g id="a_node1_2"><a xlink:href="/idmef_parser/IODEF/Counter.html" xlink:title="A means by which to extend the type attribute. See Section 5.1.">
<polygon fill="#ff5024" stroke="transparent" points="8.5,-45.5 8.5,-66.5 211.5,-66.5 211.5,-45.5 8.5,-45.5"/>
<polygon fill="none" stroke="#000000" points="8.5,-45.5 8.5,-66.5 211.5,-66.5 211.5,-45.5 8.5,-45.5"/>
<text text-anchor="start" x="23" y="-52.3" font-family="Nimbus Sans L" font-size="14.00" fill="#000000">[STRING] ext&#45;type (Optional)</text>
</a>
</g>
<g id="a_node1_3"><a xlink:href="/idmef_parser/IODEF/Counter.html" xlink:title="If present, the Counter class represents a rate rather than a count over the entire event. &#160;In that case, this attribute specifies the denominator of the rate (where the type attribute specified the nominator). &#160;The possible values of this attribute are defined in Section 3.10.2">
<polygon fill="#ff5024" stroke="transparent" points="8.5,-24.5 8.5,-45.5 211.5,-45.5 211.5,-24.5 8.5,-24.5"/>
<polygon fill="none" stroke="#000000" points="8.5,-24.5 8.5,-45.5 211.5,-45.5 211.5,-24.5 8.5,-24.5"/>
<text text-anchor="start" x="27.5" y="-31.3" font-family="Nimbus Sans L" font-size="14.00" fill="#000000">[ENUM] duration (Optional)</text>
</a>
</g>
<g id="a_node1_4"><a xlink:href="/idmef_parser/IODEF/Counter.html" xlink:title="A means by which to extend the duration attribute. &#160;See Section 5.1.">
<polygon fill="#ff5024" stroke="transparent" points="8.5,-3.5 8.5,-24.5 211.5,-24.5 211.5,-3.5 8.5,-3.5"/>
<polygon fill="none" stroke="#000000" points="8.5,-3.5 8.5,-24.5 211.5,-24.5 211.5,-3.5 8.5,-3.5"/>
<text text-anchor="start" x="11.5" y="-10.3" font-family="Nimbus Sans L" font-size="14.00" fill="#000000">[STRING] ext&#45;duration (Optional)</text>
</a>
</g>
</g>
</g>
</svg>
