<?xml version="1.0" encoding="UTF-8" standalone="no"?>
<!DOCTYPE svg PUBLIC "-//W3C//DTD SVG 1.1//EN"
 "http://www.w3.org/Graphics/SVG/1.1/DTD/svg11.dtd">
<!-- Generated by graphviz version 2.38.0 (20140413.2041)
 -->
<!-- Title: Counter Pages: 1 -->
<svg width="222pt" height="121pt"
 viewBox="0.00 0.00 222.00 121.00" xmlns="http://www.w3.org/2000/svg" xmlns:xlink="http://www.w3.org/1999/xlink">
<g id="graph0" class="graph" transform="scale(1 1) rotate(0) translate(4 117)">
<title>Counter</title>
<polygon fill="white" stroke="none" points="-4,4 -4,-117 218,-117 218,4 -4,4"/>
<!-- Counter -->
<g id="node1" class="node"><title>Counter</title>
<g id="a_node1_0"><a xlink:href="/idmef_parser/IODEF/Counter.html" xlink:title="The Counter class summarize multiple occurrences of some event, or conveys counts or rates on various features (e.g., packets, sessions, events). ">
<polygon fill="#993016" stroke="none" points="8,-87.5 8,-108.5 206,-108.5 206,-87.5 8,-87.5"/>
<polygon fill="none" stroke="black" points="8,-87.5 8,-108.5 206,-108.5 206,-87.5 8,-87.5"/>
<text text-anchor="start" x="85" y="-94.3" font-family="Times,serif" font-size="14.00">Counter</text>
</a>
</g>
<g id="a_node1_1"><a xlink:href="/idmef_parser/IODEF/Counter.html" xlink:title="Specifies the units of the element content.">
<polygon fill="#ff5024" stroke="none" points="8,-66.5 8,-87.5 206,-87.5 206,-66.5 8,-66.5"/>
<polygon fill="none" stroke="black" points="8,-66.5 8,-87.5 206,-87.5 206,-66.5 8,-66.5"/>
<text text-anchor="start" x="35.5" y="-73.3" font-family="Times,serif" font-size="14.00">[ENUM] type (Required) </text>
</a>
</g>
<g id="a_node1_2"><a xlink:href="/idmef_parser/IODEF/Counter.html" xlink:title="A means by which to extend the type attribute. See Section 5.1.">
<polygon fill="#ff5024" stroke="none" points="8,-45.5 8,-66.5 206,-66.5 206,-45.5 8,-45.5"/>
<polygon fill="none" stroke="black" points="8,-45.5 8,-66.5 206,-66.5 206,-45.5 8,-45.5"/>
<text text-anchor="start" x="22" y="-52.3" font-family="Times,serif" font-size="14.00">[STRING] ext&#45;type (Optional) </text>
</a>
</g>
<g id="a_node1_3"><a xlink:href="/idmef_parser/IODEF/Counter.html" xlink:title="If present, the Counter class represents a rate rather than a count over the entire event. &#160;In that case, this attribute specifies the denominator of the rate (where the type attribute specified the nominator). &#160;The possible values of this attribute are defined in Section 3.10.2">
<polygon fill="#ff5024" stroke="none" points="8,-24.5 8,-45.5 206,-45.5 206,-24.5 8,-24.5"/>
<polygon fill="none" stroke="black" points="8,-24.5 8,-45.5 206,-45.5 206,-24.5 8,-24.5"/>
<text text-anchor="start" x="25.5" y="-31.3" font-family="Times,serif" font-size="14.00">[ENUM] duration (Optional) </text>
</a>
</g>
<g id="a_node1_4"><a xlink:href="/idmef_parser/IODEF/Counter.html" xlink:title="A means by which to extend the duration attribute. &#160;See Section 5.1.">
<polygon fill="#ff5024" stroke="none" points="8,-3.5 8,-24.5 206,-24.5 206,-3.5 8,-3.5"/>
<polygon fill="none" stroke="black" points="8,-3.5 8,-24.5 206,-24.5 206,-3.5 8,-3.5"/>
<text text-anchor="start" x="11" y="-10.3" font-family="Times,serif" font-size="14.00">[STRING] ext&#45;duration (Optional) </text>
</a>
</g>
</g>
</g>
</svg>
