<?xml version="1.0" encoding="UTF-8" standalone="no"?>
<!DOCTYPE svg PUBLIC "-//W3C//DTD SVG 1.1//EN"
 "http://www.w3.org/Graphics/SVG/1.1/DTD/svg11.dtd">
<!-- Generated by graphviz version 2.40.1 (0)
 -->
<!-- Title: Expectation Pages: 1 -->
<svg width="783pt" height="389pt"
 viewBox="0.00 0.00 783.00 388.50" xmlns="http://www.w3.org/2000/svg" xmlns:xlink="http://www.w3.org/1999/xlink">
<g id="graph0" class="graph" transform="scale(1 1) rotate(0) translate(4 384.5)">
<title>Expectation</title>
<polygon fill="#ffffff" stroke="transparent" points="-4,4 -4,-384.5 779,-384.5 779,4 -4,4"/>
<!-- Expectation -->
<g id="node1" class="node">
<title>Expectation</title>
<g id="a_node1_0"><a xlink:href="/idmef_parser/IODEF/Expectation.html" xlink:title="The Expectation class conveys to the recipient of the IODEF document the actions the sender is requesting. The scope of the requested action is limited to purview of the EventData class in which this class is aggregated. ">
<polygon fill="#999999" stroke="transparent" points="8,-279 8,-300 204,-300 204,-279 8,-279"/>
<polygon fill="none" stroke="#000000" points="8,-279 8,-300 204,-300 204,-279 8,-279"/>
<text text-anchor="start" x="70.5" y="-285.8" font-family="Nimbus Sans L" font-size="14.00" fill="#000000">Expectation</text>
</a>
</g>
<g id="a_node1_1"><a xlink:href="/idmef_parser/IODEF/Expectation.html" xlink:title="A free&#45;form description of the desired action(s).">
<polygon fill="#bfbfbf" stroke="transparent" points="8,-258 8,-279 204,-279 204,-258 8,-258"/>
<polygon fill="none" stroke="#000000" points="8,-258 8,-279 204,-279 204,-258 8,-258"/>
<text text-anchor="start" x="11" y="-264.8" font-family="Nimbus Sans L" font-size="14.00" fill="#000000">[ML_STRING] Description (0..*)</text>
</a>
</g>
<g id="a_node1_2"><a xlink:href="/idmef_parser/IODEF/Expectation.html" xlink:title="The time at which the action should be performed. &#160;A timestamp that is earlier than the ReportTime specified in the Incident class denotes that the expectation should be fulfilled as soon as possible. &#160;The absence of this element leaves the execution of the expectation to the discretion of the recipient.">
<polygon fill="#bfbfbf" stroke="transparent" points="8,-237 8,-258 204,-258 204,-237 8,-237"/>
<polygon fill="none" stroke="#000000" points="8,-237 8,-258 204,-258 204,-237 8,-237"/>
<text text-anchor="start" x="52.5" y="-243.8" font-family="Nimbus Sans L" font-size="14.00" fill="#000000">[] StartTime (0..1)</text>
</a>
</g>
<g id="a_node1_3"><a xlink:href="/idmef_parser/IODEF/Expectation.html" xlink:title="The time by which the action should be completed. If the action is not carried out by this time, it should no longer be performed.">
<polygon fill="#bfbfbf" stroke="transparent" points="8,-216 8,-237 204,-237 204,-216 8,-216"/>
<polygon fill="none" stroke="#000000" points="8,-216 8,-237 204,-237 204,-216 8,-216"/>
<text text-anchor="start" x="55" y="-222.8" font-family="Nimbus Sans L" font-size="14.00" fill="#000000">[] EndTime (0..1)</text>
</a>
</g>
<g id="a_node1_4"><a xlink:href="/idmef_parser/IODEF/Expectation.html" xlink:title="This attribute is defined in Section 3.2.">
<polygon fill="#bfbfbf" stroke="transparent" points="8,-195 8,-216 204,-216 204,-195 8,-195"/>
<polygon fill="none" stroke="#000000" points="8,-195 8,-216 204,-216 204,-195 8,-195"/>
<text text-anchor="start" x="18.5" y="-201.8" font-family="Nimbus Sans L" font-size="14.00" fill="#000000">[ENUM] restriction (Optional)</text>
</a>
</g>
<g id="a_node1_5"><a xlink:href="/idmef_parser/IODEF/Expectation.html" xlink:title="Indicates the desired priority of the action. This attribute is an enumerated list with no default value, and the semantics of these relative measures are context dependent.">
<polygon fill="#bfbfbf" stroke="transparent" points="8,-174 8,-195 204,-195 204,-174 8,-174"/>
<polygon fill="none" stroke="#000000" points="8,-174 8,-195 204,-195 204,-174 8,-174"/>
<text text-anchor="start" x="24.5" y="-180.8" font-family="Nimbus Sans L" font-size="14.00" fill="#000000">[ENUM] severity (Optional)</text>
</a>
</g>
<g id="a_node1_6"><a xlink:href="/idmef_parser/IODEF/Expectation.html" xlink:title="Classifies the type of action requested. &#160;This attribute is an enumerated list with no default value.">
<polygon fill="#bfbfbf" stroke="transparent" points="8,-153 8,-174 204,-174 204,-153 8,-153"/>
<polygon fill="none" stroke="#000000" points="8,-153 8,-174 204,-174 204,-153 8,-153"/>
<text text-anchor="start" x="30" y="-159.8" font-family="Nimbus Sans L" font-size="14.00" fill="#000000">[ENUM] action (Optional)</text>
</a>
</g>
<g id="a_node1_7"><a xlink:href="/idmef_parser/IODEF/Expectation.html" xlink:title="A means by which to extend the action attribute. &#160;See Section 5.1.">
<polygon fill="#bfbfbf" stroke="transparent" points="8,-132 8,-153 204,-153 204,-132 8,-132"/>
<polygon fill="none" stroke="#000000" points="8,-132 8,-153 204,-153 204,-132 8,-132"/>
<text text-anchor="start" x="14" y="-138.8" font-family="Nimbus Sans L" font-size="14.00" fill="#000000">[STRING] ext&#45;action (Optional)</text>
</a>
</g>
</g>
<!-- Contact -->
<g id="node2" class="node">
<title>Contact</title>
<g id="a_node2_8"><a xlink:href="/idmef_parser/IODEF/Contact.html" xlink:title="The Contact class describes contact information for organizations and personnel involved in the incident. This class allows for the naming of the involved party, specifying contact information for them, and identifying their role in the incident. ">
<polygon fill="#a3cc52" stroke="transparent" points="279,-310 279,-331 493,-331 493,-310 279,-310"/>
<polygon fill="none" stroke="#000000" points="279,-310 279,-331 493,-331 493,-310 279,-310"/>
<text text-anchor="start" x="362.5" y="-316.8" font-family="Nimbus Sans L" font-size="14.00" fill="#000000">Contact</text>
</a>
</g>
<g id="a_node2_9"><a xlink:href="/idmef_parser/IODEF/Contact.html" xlink:title="The name of the contact. &#160;The contact may either be an organization or a person. &#160;The type attribute disambiguates the semantics.">
<polygon fill="#ccff66" stroke="transparent" points="279,-289 279,-310 493,-310 493,-289 279,-289"/>
<polygon fill="none" stroke="#000000" points="279,-289 279,-310 493,-310 493,-289 279,-289"/>
<text text-anchor="start" x="282" y="-295.8" font-family="Nimbus Sans L" font-size="14.00" fill="#000000">[ML_STRING] ContactName (0..1)</text>
</a>
</g>
<g id="a_node2_10"><a xlink:href="/idmef_parser/IODEF/Contact.html" xlink:title="A free&#45;form description of this contact. &#160;In the case of a person, this is often the organizational title of the individual.">
<polygon fill="#ccff66" stroke="transparent" points="279,-268 279,-289 493,-289 493,-268 279,-268"/>
<polygon fill="none" stroke="#000000" points="279,-268 279,-289 493,-289 493,-268 279,-268"/>
<text text-anchor="start" x="291" y="-274.8" font-family="Nimbus Sans L" font-size="14.00" fill="#000000">[ML_STRING] Description (0..*)</text>
</a>
</g>
<g id="a_node2_11"><a xlink:href="/idmef_parser/IODEF/Contact.html" xlink:title="The telephone number of the contact.">
<polygon fill="#ccff66" stroke="transparent" points="279,-247 279,-268 493,-268 493,-247 279,-247"/>
<polygon fill="none" stroke="#000000" points="279,-247 279,-268 493,-268 493,-247 279,-247"/>
<text text-anchor="start" x="333" y="-253.8" font-family="Nimbus Sans L" font-size="14.00" fill="#000000">[] Telephone (0..*)</text>
</a>
</g>
<g id="a_node2_12"><a xlink:href="/idmef_parser/IODEF/Contact.html" xlink:title="The facsimile telephone number of the contact.">
<polygon fill="#ccff66" stroke="transparent" points="279,-226 279,-247 493,-247 493,-226 279,-226"/>
<polygon fill="none" stroke="#000000" points="279,-226 279,-247 493,-247 493,-226 279,-226"/>
<text text-anchor="start" x="351.5" y="-232.8" font-family="Nimbus Sans L" font-size="14.00" fill="#000000">[] Fax (0..1)</text>
</a>
</g>
<g id="a_node2_13"><a xlink:href="/idmef_parser/IODEF/Contact.html" xlink:title="The timezone in which the contact resides formatted according to Section 2.9.">
<polygon fill="#ccff66" stroke="transparent" points="279,-205 279,-226 493,-226 493,-205 279,-205"/>
<polygon fill="none" stroke="#000000" points="279,-205 279,-226 493,-226 493,-205 279,-205"/>
<text text-anchor="start" x="297" y="-211.8" font-family="Nimbus Sans L" font-size="14.00" fill="#000000">[TIMEZONE] Timezone (0..1)</text>
</a>
</g>
<g id="a_node2_14"><a xlink:href="/idmef_parser/IODEF/Contact.html" xlink:title="Indicates the role the contact fulfills. &#160;This attribute is defined as an enumerated list:">
<polygon fill="#ccff66" stroke="transparent" points="279,-184 279,-205 493,-205 493,-184 279,-184"/>
<polygon fill="none" stroke="#000000" points="279,-184 279,-205 493,-205 493,-184 279,-184"/>
<text text-anchor="start" x="315" y="-190.8" font-family="Nimbus Sans L" font-size="14.00" fill="#000000">[ENUM] role (Required)</text>
</a>
</g>
<g id="a_node2_15"><a xlink:href="/idmef_parser/IODEF/Contact.html" xlink:title="A means by which to extend the role attribute. See Section 5.1.">
<polygon fill="#ccff66" stroke="transparent" points="279,-163 279,-184 493,-184 493,-163 279,-163"/>
<polygon fill="none" stroke="#000000" points="279,-163 279,-184 493,-184 493,-163 279,-163"/>
<text text-anchor="start" x="300.5" y="-169.8" font-family="Nimbus Sans L" font-size="14.00" fill="#000000">[STRING] ext&#45;role (Optional)</text>
</a>
</g>
<g id="a_node2_16"><a xlink:href="/idmef_parser/IODEF/Contact.html" xlink:title="Indicates the type of contact being described. This attribute is defined as an enumerated list:">
<polygon fill="#ccff66" stroke="transparent" points="279,-142 279,-163 493,-163 493,-142 279,-142"/>
<polygon fill="none" stroke="#000000" points="279,-142 279,-163 493,-163 493,-142 279,-142"/>
<text text-anchor="start" x="313.5" y="-148.8" font-family="Nimbus Sans L" font-size="14.00" fill="#000000">[ENUM] type (Required)</text>
</a>
</g>
<g id="a_node2_17"><a xlink:href="/idmef_parser/IODEF/Contact.html" xlink:title="A means by which to extend the type attribute. See Section 5.1.">
<polygon fill="#ccff66" stroke="transparent" points="279,-121 279,-142 493,-142 493,-121 279,-121"/>
<polygon fill="none" stroke="#000000" points="279,-121 279,-142 493,-142 493,-121 279,-121"/>
<text text-anchor="start" x="299" y="-127.8" font-family="Nimbus Sans L" font-size="14.00" fill="#000000">[STRING] ext&#45;type (Optional)</text>
</a>
</g>
<g id="a_node2_18"><a xlink:href="/idmef_parser/IODEF/Contact.html" xlink:title="This attribute is defined in Section 3.2.">
<polygon fill="#ccff66" stroke="transparent" points="279,-100 279,-121 493,-121 493,-100 279,-100"/>
<polygon fill="none" stroke="#000000" points="279,-100 279,-121 493,-121 493,-100 279,-100"/>
<text text-anchor="start" x="298.5" y="-106.8" font-family="Nimbus Sans L" font-size="14.00" fill="#000000">[ENUM] restriction (Optional)</text>
</a>
</g>
</g>
<!-- Expectation&#45;&gt;Contact -->
<g id="edge6" class="edge">
<title>Expectation&#45;&gt;Contact</title>
<path fill="none" stroke="#000000" d="M212.2552,-216C228.1417,-216 244.6446,-216 260.8776,-216"/>
<polygon fill="#000000" stroke="#000000" points="260.9423,-219.5001 270.9422,-216 260.9422,-212.5001 260.9423,-219.5001"/>
<text text-anchor="middle" x="241.5" y="-219.8" font-family="Times,serif" font-size="14.00" fill="#000000">0..1</text>
</g>
<!-- Contact&#45;&gt;Contact -->
<g id="edge4" class="edge">
<title>Contact&#45;&gt;Contact</title>
<path fill="none" stroke="#000000" d="M364.5437,-335.7499C369.0042,-346.6463 376.1563,-353.5 386,-353.5 392.7676,-353.5 398.2629,-350.2605 402.4861,-344.6951"/>
<polygon fill="#000000" stroke="#000000" points="405.6588,-346.1911 407.4563,-335.7499 399.5399,-342.7912 405.6588,-346.1911"/>
<text text-anchor="middle" x="386" y="-357.3" font-family="Times,serif" font-size="14.00" fill="#000000">0..*</text>
</g>
<!-- RegistryHandle -->
<g id="node3" class="node">
<title>RegistryHandle</title>
<g id="a_node3_19"><a xlink:href="/idmef_parser/IODEF/RegistryHandle.html" xlink:title="The RegistryHandle class represents a handle into an Internet registry or community&#45;specific database. The handle is specified in the element content and the type attribute specifies the database. ">
<polygon fill="#a3cc52" stroke="transparent" points="568.5,-355 568.5,-376 767.5,-376 767.5,-355 568.5,-355"/>
<polygon fill="none" stroke="#000000" points="568.5,-355 568.5,-376 767.5,-376 767.5,-355 568.5,-355"/>
<text text-anchor="start" x="621.5" y="-361.8" font-family="Nimbus Sans L" font-size="14.00" fill="#000000">RegistryHandle</text>
</a>
</g>
<g id="a_node3_20"><a xlink:href="/idmef_parser/IODEF/RegistryHandle.html" xlink:title="The database to which the handle belongs. &#160;The default value is &#39;local&#39;. &#160;The possible values are:">
<polygon fill="#ccff66" stroke="transparent" points="568.5,-334 568.5,-355 767.5,-355 767.5,-334 568.5,-334"/>
<polygon fill="none" stroke="#000000" points="568.5,-334 568.5,-355 767.5,-355 767.5,-334 568.5,-334"/>
<text text-anchor="start" x="586" y="-340.8" font-family="Nimbus Sans L" font-size="14.00" fill="#000000">[ENUM] registry (Required)</text>
</a>
</g>
<g id="a_node3_21"><a xlink:href="/idmef_parser/IODEF/RegistryHandle.html" xlink:title="A means by which to extend the registry attribute. &#160;See Section 5.1.">
<polygon fill="#ccff66" stroke="transparent" points="568.5,-313 568.5,-334 767.5,-334 767.5,-313 568.5,-313"/>
<polygon fill="none" stroke="#000000" points="568.5,-313 568.5,-334 767.5,-334 767.5,-313 568.5,-313"/>
<text text-anchor="start" x="571.5" y="-319.8" font-family="Nimbus Sans L" font-size="14.00" fill="#000000">[STRING] ext&#45;registry (Optional)</text>
</a>
</g>
</g>
<!-- Contact&#45;&gt;RegistryHandle -->
<g id="edge1" class="edge">
<title>Contact&#45;&gt;RegistryHandle</title>
<path fill="none" stroke="#000000" d="M501.087,-273.5414C520.6433,-282.9389 540.8262,-292.404 560,-301 563.226,-302.4463 566.5143,-303.9008 569.8412,-305.3557"/>
<polygon fill="#000000" stroke="#000000" points="568.7323,-308.6895 579.2998,-309.4502 571.5132,-302.2655 568.7323,-308.6895"/>
<text text-anchor="middle" x="530.5" y="-295.8" font-family="Times,serif" font-size="14.00" fill="#000000">0..*</text>
</g>
<!-- PostalAddress -->
<g id="node4" class="node">
<title>PostalAddress</title>
<g id="a_node4_22"><a xlink:href="/idmef_parser/IODEF/PostalAddress.html" xlink:title="The PostalAddress class specifies a postal address formatted according to the POSTAL data type (Section 2.11). ">
<polygon fill="#a3cc52" stroke="transparent" points="580.5,-266 580.5,-287 755.5,-287 755.5,-266 580.5,-266"/>
<polygon fill="none" stroke="#000000" points="580.5,-266 580.5,-287 755.5,-287 755.5,-266 580.5,-266"/>
<text text-anchor="start" x="624" y="-272.8" font-family="Nimbus Sans L" font-size="14.00" fill="#000000">PostalAddress</text>
</a>
</g>
<g id="a_node4_23"><a xlink:href="/idmef_parser/IODEF/PostalAddress.html" xlink:title="A free&#45;form description of the element content.">
<polygon fill="#ccff66" stroke="transparent" points="580.5,-245 580.5,-266 755.5,-266 755.5,-245 580.5,-245"/>
<polygon fill="none" stroke="#000000" points="580.5,-245 580.5,-266 755.5,-266 755.5,-245 580.5,-245"/>
<text text-anchor="start" x="583.5" y="-251.8" font-family="Nimbus Sans L" font-size="14.00" fill="#000000">[ENUM] meaning (Optional)</text>
</a>
</g>
<g id="a_node4_24"><a xlink:href="/idmef_parser/IODEF/PostalAddress.html" xlink:title="A valid language code per RFC 4646 [7] constrained by the definition of &quot;xs:language&quot;. &#160;The interpretation of this code is described in Section 6.">
<polygon fill="#ccff66" stroke="transparent" points="580.5,-224 580.5,-245 755.5,-245 755.5,-224 580.5,-224"/>
<polygon fill="none" stroke="#000000" points="580.5,-224 580.5,-245 755.5,-245 755.5,-224 580.5,-224"/>
<text text-anchor="start" x="595.5" y="-230.8" font-family="Nimbus Sans L" font-size="14.00" fill="#000000">[ENUM] lang (Required)</text>
</a>
</g>
</g>
<!-- Contact&#45;&gt;PostalAddress -->
<g id="edge2" class="edge">
<title>Contact&#45;&gt;PostalAddress</title>
<path fill="none" stroke="#000000" d="M501.309,-232.3849C521.3123,-235.2273 542.0246,-238.1705 561.7568,-240.9743"/>
<polygon fill="#000000" stroke="#000000" points="561.273,-244.4407 571.666,-242.3824 562.2578,-237.5103 561.273,-244.4407"/>
<text text-anchor="middle" x="530.5" y="-240.8" font-family="Times,serif" font-size="14.00" fill="#000000">0..1</text>
</g>
<!-- Email -->
<g id="node5" class="node">
<title>Email</title>
<g id="a_node5_25"><a xlink:href="/idmef_parser/IODEF/Email.html" xlink:title="The Email class specifies an email address formatted according to EMAIL data type (Section 2.14). ">
<polygon fill="#a3cc52" stroke="transparent" points="580.5,-177 580.5,-198 755.5,-198 755.5,-177 580.5,-177"/>
<polygon fill="none" stroke="#000000" points="580.5,-177 580.5,-198 755.5,-198 755.5,-177 580.5,-177"/>
<text text-anchor="start" x="650.5" y="-183.8" font-family="Nimbus Sans L" font-size="14.00" fill="#000000">Email</text>
</a>
</g>
<g id="a_node5_26"><a xlink:href="/idmef_parser/IODEF/Email.html" xlink:title="A free&#45;form description of the element content (e.g., hours of coverage for a given number).">
<polygon fill="#ccff66" stroke="transparent" points="580.5,-156 580.5,-177 755.5,-177 755.5,-156 580.5,-156"/>
<polygon fill="none" stroke="#000000" points="580.5,-156 580.5,-177 755.5,-177 755.5,-156 580.5,-156"/>
<text text-anchor="start" x="583.5" y="-162.8" font-family="Nimbus Sans L" font-size="14.00" fill="#000000">[ENUM] meaning (Optional)</text>
</a>
</g>
</g>
<!-- Contact&#45;&gt;Email -->
<g id="edge3" class="edge">
<title>Contact&#45;&gt;Email</title>
<path fill="none" stroke="#000000" d="M501.309,-200.0247C521.3123,-197.2534 542.0246,-194.3838 561.7568,-191.65"/>
<polygon fill="#000000" stroke="#000000" points="562.2409,-195.1165 571.666,-190.2772 561.2802,-188.1827 562.2409,-195.1165"/>
<text text-anchor="middle" x="530.5" y="-199.8" font-family="Times,serif" font-size="14.00" fill="#000000">0..*</text>
</g>
<!-- AdditionalData -->
<g id="node6" class="node">
<title>AdditionalData</title>
<g id="a_node6_27"><a xlink:href="/idmef_parser/IODEF/AdditionalData.html" xlink:title="The AdditionalData class serves as an extension mechanism for information not otherwise represented in the data model. For relatively simple information, atomic data types (e.g., integers, strings) are provided with a mechanism to annotate their meaning. The class can also be used to extend the data model (and the associated Schema) to support proprietary extensions by encapsulating entire XML documents conforming to another Schema (e.g., IDMEF). A detailed discussion for extending the data model and the schema can be found in Section 5. ">
<polygon fill="#cca352" stroke="transparent" points="574.5,-109 574.5,-130 761.5,-130 761.5,-109 574.5,-109"/>
<polygon fill="none" stroke="#000000" points="574.5,-109 574.5,-130 761.5,-130 761.5,-109 574.5,-109"/>
<text text-anchor="start" x="624" y="-115.8" font-family="Nimbus Sans L" font-size="14.00" fill="#000000">AdditionalData</text>
</a>
</g>
<g id="a_node6_28"><a xlink:href="/idmef_parser/IODEF/AdditionalData.html" xlink:title="The data type of the element content. &#160;The permitted values for this attribute are shown below. &#160;The default value is &quot;string&quot;.">
<polygon fill="#ffcc66" stroke="transparent" points="574.5,-88 574.5,-109 761.5,-109 761.5,-88 574.5,-88"/>
<polygon fill="none" stroke="#000000" points="574.5,-88 574.5,-109 761.5,-109 761.5,-88 574.5,-88"/>
<text text-anchor="start" x="591.5" y="-94.8" font-family="Nimbus Sans L" font-size="14.00" fill="#000000">[ENUM] dtype (Required)</text>
</a>
</g>
<g id="a_node6_29"><a xlink:href="/idmef_parser/IODEF/AdditionalData.html" xlink:title="A means by which to extend the dtype attribute. &#160;See Section 5.1.">
<polygon fill="#ffcc66" stroke="transparent" points="574.5,-67 574.5,-88 761.5,-88 761.5,-67 574.5,-67"/>
<polygon fill="none" stroke="#000000" points="574.5,-67 574.5,-88 761.5,-88 761.5,-67 574.5,-67"/>
<text text-anchor="start" x="577.5" y="-73.8" font-family="Nimbus Sans L" font-size="14.00" fill="#000000">[STRING] ext&#45;dtype (Optional)</text>
</a>
</g>
<g id="a_node6_30"><a xlink:href="/idmef_parser/IODEF/AdditionalData.html" xlink:title="A free&#45;form description of the element content.">
<polygon fill="#ffcc66" stroke="transparent" points="574.5,-46 574.5,-67 761.5,-67 761.5,-46 574.5,-46"/>
<polygon fill="none" stroke="#000000" points="574.5,-46 574.5,-67 761.5,-67 761.5,-46 574.5,-46"/>
<text text-anchor="start" x="578.5" y="-52.8" font-family="Nimbus Sans L" font-size="14.00" fill="#000000">[STRING] meaning (Optional)</text>
</a>
</g>
<g id="a_node6_31"><a xlink:href="/idmef_parser/IODEF/AdditionalData.html" xlink:title="An identifier referencing the format and semantics of the element content.">
<polygon fill="#ffcc66" stroke="transparent" points="574.5,-25 574.5,-46 761.5,-46 761.5,-25 574.5,-25"/>
<polygon fill="none" stroke="#000000" points="574.5,-25 574.5,-46 761.5,-46 761.5,-25 574.5,-25"/>
<text text-anchor="start" x="580" y="-31.8" font-family="Nimbus Sans L" font-size="14.00" fill="#000000">[STRING] formatid (Optional)</text>
</a>
</g>
<g id="a_node6_32"><a xlink:href="/idmef_parser/IODEF/AdditionalData.html" xlink:title="This attribute has been defined in Section 3.2.">
<polygon fill="#ffcc66" stroke="transparent" points="574.5,-4 574.5,-25 761.5,-25 761.5,-4 574.5,-4"/>
<polygon fill="none" stroke="#000000" points="574.5,-4 574.5,-25 761.5,-25 761.5,-4 574.5,-4"/>
<text text-anchor="start" x="580.5" y="-10.8" font-family="Nimbus Sans L" font-size="14.00" fill="#000000">[ENUM] restriction (Optional)</text>
</a>
</g>
</g>
<!-- Contact&#45;&gt;AdditionalData -->
<g id="edge5" class="edge">
<title>Contact&#45;&gt;AdditionalData</title>
<path fill="none" stroke="#000000" d="M501.309,-154.9661C519.7073,-145.2278 538.7055,-135.1719 556.9891,-125.4942"/>
<polygon fill="#000000" stroke="#000000" points="558.7007,-128.5484 565.9016,-120.7768 555.4259,-122.3616 558.7007,-128.5484"/>
<text text-anchor="middle" x="530.5" y="-144.8" font-family="Times,serif" font-size="14.00" fill="#000000">0..*</text>
</g>
</g>
</svg>
