<?xml version="1.0" encoding="UTF-8" standalone="no"?>
<!DOCTYPE svg PUBLIC "-//W3C//DTD SVG 1.1//EN"
 "http://www.w3.org/Graphics/SVG/1.1/DTD/svg11.dtd">
<!-- Generated by graphviz version 2.26.3 (20100126.1600)
 -->
<!-- Title: Expectation Pages: 1 -->
<svg width="894pt" height="374pt"
 viewBox="0.00 0.00 894.00 374.00" xmlns="http://www.w3.org/2000/svg" xmlns:xlink="http://www.w3.org/1999/xlink">
<g id="graph1" class="graph" transform="scale(1 1) rotate(0) translate(4 370)">
<title>Expectation</title>
<polygon fill="white" stroke="white" points="-4,5 -4,-370 891,-370 891,5 -4,5"/>
<!-- Expectation -->
<g id="node1" class="node"><title>Expectation</title>
<a xlink:href="#" xlink:title="The Expectation class conveys to the recipient of the IODEF document the actions the sender is requesting. The scope of the requested action is limited to purview of the EventData class in which this class is aggregated. ">
<polygon fill="#cecece" stroke="#cecece" points="9,-267 9,-288 236,-288 236,-267 9,-267"/>
<polygon fill="none" stroke="black" points="9,-267 9,-288 236,-288 236,-267 9,-267"/>
<text text-anchor="start" x="81.5" y="-274.233" font-family="Times Roman,serif" font-size="14.00">Expectation</text>
</a>
<a xlink:href="#" xlink:title="A free&#45;form description of the desired action(s).">
<polygon fill="none" stroke="black" points="9,-247 9,-267 236,-267 236,-247 9,-247"/>
<text text-anchor="start" x="12.5" y="-253.733" font-family="Times Roman,serif" font-size="14.00">[ML_STRING] Description (0..*) </text>
</a>
<a xlink:href="#" xlink:title="The time at which the action should be performed. &#160;A timestamp that is earlier than the ReportTime specified in the Incident class denotes that the expectation should be fulfilled as soon as possible. &#160;The absence of this element leaves the execution of the expectation to the discretion of the recipient.">
<polygon fill="none" stroke="black" points="9,-227 9,-247 236,-247 236,-227 9,-227"/>
<text text-anchor="start" x="57.5" y="-233.733" font-family="Times Roman,serif" font-size="14.00">[] StartTime (0..1) </text>
</a>
<a xlink:href="#" xlink:title="The time by which the action should be completed. If the action is not carried out by this time, it should no longer be performed.">
<polygon fill="none" stroke="black" points="9,-207 9,-227 236,-227 236,-207 9,-207"/>
<text text-anchor="start" x="62" y="-213.733" font-family="Times Roman,serif" font-size="14.00">[] EndTime (0..1) </text>
</a>
<a xlink:href="#" xlink:title="This attribute is defined in Section 3.2.">
<polygon fill="none" stroke="black" points="9,-187 9,-207 236,-207 236,-187 9,-187"/>
<text text-anchor="start" x="19.5" y="-193.733" font-family="Times Roman,serif" font-size="14.00">[ENUM] restriction (Optional) </text>
</a>
<a xlink:href="#" xlink:title="Indicates the desired priority of the action. This attribute is an enumerated list with no default value, and the semantics of these relative measures are context dependent.">
<polygon fill="none" stroke="black" points="9,-167 9,-187 236,-187 236,-167 9,-167"/>
<text text-anchor="start" x="27" y="-173.733" font-family="Times Roman,serif" font-size="14.00">[ENUM] severity (Optional) </text>
</a>
<a xlink:href="#" xlink:title="Classifies the type of action requested. &#160;This attribute is an enumerated list with no default value.">
<polygon fill="none" stroke="black" points="9,-147 9,-167 236,-167 236,-147 9,-147"/>
<text text-anchor="start" x="33.5" y="-153.733" font-family="Times Roman,serif" font-size="14.00">[ENUM] action (Optional) </text>
</a>
<a xlink:href="#" xlink:title="A means by which to extend the action attribute. &#160;See Section 5.1.">
<polygon fill="none" stroke="black" points="9,-127 9,-147 236,-147 236,-127 9,-127"/>
<text text-anchor="start" x="14" y="-133.733" font-family="Times Roman,serif" font-size="14.00">[STRING] ext&#45;action (Optional) </text>
</a>
</g>
<!-- Contact -->
<g id="node2" class="node"><title>Contact</title>
<a xlink:href="#" xlink:title="The Contact class describes contact information for organizations and personnel involved in the incident. This class allows for the naming of the involved party, specifying contact information for them, and identifying their role in the incident. ">
<polygon fill="#cecece" stroke="#cecece" points="317,-297 317,-318 562,-318 562,-297 317,-297"/>
<polygon fill="none" stroke="black" points="317,-297 317,-318 562,-318 562,-297 317,-297"/>
<text text-anchor="start" x="412" y="-304.233" font-family="Times Roman,serif" font-size="14.00">Contact</text>
</a>
<a xlink:href="#" xlink:title="The name of the contact. &#160;The contact may either be an organization or a person. &#160;The type attribute disambiguates the semantics.">
<polygon fill="none" stroke="black" points="317,-277 317,-297 562,-297 562,-277 317,-277"/>
<text text-anchor="start" x="320.5" y="-283.733" font-family="Times Roman,serif" font-size="14.00">[ML_STRING] ContactName (0..1) </text>
</a>
<a xlink:href="#" xlink:title="A free&#45;form description of this contact. &#160;In the case of a person, this is often the organizational title of the individual.">
<polygon fill="none" stroke="black" points="317,-257 317,-277 562,-277 562,-257 317,-257"/>
<text text-anchor="start" x="329.5" y="-263.733" font-family="Times Roman,serif" font-size="14.00">[ML_STRING] Description (0..*) </text>
</a>
<a xlink:href="#" xlink:title="The telephone number of the contact.">
<polygon fill="none" stroke="black" points="317,-237 317,-257 562,-257 562,-237 317,-237"/>
<text text-anchor="start" x="374.5" y="-243.733" font-family="Times Roman,serif" font-size="14.00">[] Telephone (0..*) </text>
</a>
<a xlink:href="#" xlink:title="The facsimile telephone number of the contact.">
<polygon fill="none" stroke="black" points="317,-217 317,-237 562,-237 562,-217 317,-217"/>
<text text-anchor="start" x="397" y="-223.733" font-family="Times Roman,serif" font-size="14.00">[] Fax (0..1) </text>
</a>
<a xlink:href="#" xlink:title="The timezone in which the contact resides formatted according to Section 2.9.">
<polygon fill="none" stroke="black" points="317,-197 317,-217 562,-217 562,-197 317,-197"/>
<text text-anchor="start" x="337.5" y="-203.733" font-family="Times Roman,serif" font-size="14.00">[TIMEZONE] Timezone (0..1) </text>
</a>
<a xlink:href="#" xlink:title="Indicates the role the contact fulfills. &#160;This attribute is defined as an enumerated list:">
<polygon fill="none" stroke="black" points="317,-177 317,-197 562,-197 562,-177 317,-177"/>
<text text-anchor="start" x="357.5" y="-183.733" font-family="Times Roman,serif" font-size="14.00">[ENUM] role (Required) </text>
</a>
<a xlink:href="#" xlink:title="A means by which to extend the role attribute. See Section 5.1.">
<polygon fill="none" stroke="black" points="317,-157 317,-177 562,-177 562,-157 317,-157"/>
<text text-anchor="start" x="338.5" y="-163.733" font-family="Times Roman,serif" font-size="14.00">[STRING] ext&#45;role (Optional) </text>
</a>
<a xlink:href="#" xlink:title="Indicates the type of contact being described. This attribute is defined as an enumerated list:">
<polygon fill="none" stroke="black" points="317,-137 317,-157 562,-157 562,-137 317,-137"/>
<text text-anchor="start" x="355" y="-143.733" font-family="Times Roman,serif" font-size="14.00">[ENUM] type (Required) </text>
</a>
<a xlink:href="#" xlink:title="A means by which to extend the type attribute. See Section 5.1.">
<polygon fill="none" stroke="black" points="317,-117 317,-137 562,-137 562,-117 317,-117"/>
<text text-anchor="start" x="336.5" y="-123.733" font-family="Times Roman,serif" font-size="14.00">[STRING] ext&#45;type (Optional) </text>
</a>
<a xlink:href="#" xlink:title="This attribute is defined in Section 3.2.">
<polygon fill="none" stroke="black" points="317,-97 317,-117 562,-117 562,-97 317,-97"/>
<text text-anchor="start" x="336.5" y="-103.733" font-family="Times Roman,serif" font-size="14.00">[ENUM] restriction (Optional) </text>
</a>
</g>
<!-- Expectation&#45;&gt;Contact -->
<g id="edge12" class="edge"><title>Expectation&#45;&gt;Contact</title>
<path fill="none" stroke="black" d="M243.654,-208C261.553,-208 280.116,-208 298.36,-208"/>
<polygon fill="black" stroke="black" points="298.456,-211.5 308.456,-208 298.456,-204.5 298.456,-211.5"/>
<text text-anchor="middle" x="276" y="-212.4" font-family="Times Roman,serif" font-size="14.00">0..1</text>
</g>
<!-- Contact&#45;&gt;Contact -->
<g id="edge8" class="edge"><title>Contact&#45;&gt;Contact</title>
<path fill="none" stroke="black" d="M414.439,-322.054C419.422,-333.039 427.609,-340 439,-340 447.009,-340 453.434,-336.559 458.276,-330.697"/>
<polygon fill="black" stroke="black" points="461.33,-332.411 463.561,-322.054 455.358,-328.759 461.33,-332.411"/>
<text text-anchor="middle" x="439" y="-344.4" font-family="Times Roman,serif" font-size="14.00">0..*</text>
</g>
<!-- RegistryHandle -->
<g id="node3" class="node"><title>RegistryHandle</title>
<a xlink:href="#" xlink:title="The RegistryHandle class represents a handle into an Internet registry or community&#45;specific database. The handle is specified in the element content and the type attribute specifies the database. ">
<polygon fill="#cecece" stroke="#cecece" points="642,-341 642,-362 878,-362 878,-341 642,-341"/>
<polygon fill="none" stroke="black" points="642,-341 642,-362 878,-362 878,-341 642,-341"/>
<text text-anchor="start" x="707.5" y="-348.233" font-family="Times Roman,serif" font-size="14.00">RegistryHandle</text>
</a>
<a xlink:href="#" xlink:title="The database to which the handle belongs. &#160;The default value is &#39;local&#39;. &#160;The possible values are:">
<polygon fill="none" stroke="black" points="642,-321 642,-341 878,-341 878,-321 642,-321"/>
<text text-anchor="start" x="664.5" y="-327.733" font-family="Times Roman,serif" font-size="14.00">[ENUM] registry (Required) </text>
</a>
<a xlink:href="#" xlink:title="A means by which to extend the registry attribute. &#160;See Section 5.1.">
<polygon fill="none" stroke="black" points="642,-301 642,-321 878,-321 878,-301 642,-301"/>
<text text-anchor="start" x="645.5" y="-307.733" font-family="Times Roman,serif" font-size="14.00">[STRING] ext&#45;registry (Optional) </text>
</a>
</g>
<!-- Contact&#45;&gt;RegistryHandle -->
<g id="edge2" class="edge"><title>Contact&#45;&gt;RegistryHandle</title>
<path fill="none" stroke="black" d="M569.65,-263.636C591.061,-272.359 613.082,-281.096 634,-289 638.809,-290.817 643.734,-292.643 648.717,-294.463"/>
<polygon fill="black" stroke="black" points="647.765,-297.84 658.359,-297.95 650.146,-291.258 647.765,-297.84"/>
<text text-anchor="middle" x="602" y="-284.4" font-family="Times Roman,serif" font-size="14.00">0..*</text>
</g>
<!-- PostalAddress -->
<g id="node5" class="node"><title>PostalAddress</title>
<a xlink:href="#" xlink:title="The PostalAddress class specifies a postal address formatted according to the POSTAL data type (Section 2.11). ">
<polygon fill="#cecece" stroke="#cecece" points="659,-255 659,-276 861,-276 861,-255 659,-255"/>
<polygon fill="none" stroke="black" points="659,-255 659,-276 861,-276 861,-255 659,-255"/>
<text text-anchor="start" x="712" y="-262.233" font-family="Times Roman,serif" font-size="14.00">PostalAddress</text>
</a>
<a xlink:href="#" xlink:title="A free&#45;form description of the element content.">
<polygon fill="none" stroke="black" points="659,-235 659,-255 861,-255 861,-235 659,-235"/>
<text text-anchor="start" x="662.5" y="-241.733" font-family="Times Roman,serif" font-size="14.00">[ENUM] meaning (Optional) </text>
</a>
<a xlink:href="#" xlink:title="A valid language code per RFC 4646 [7] constrained by the definition of &quot;xs:language&quot;. &#160;The interpretation of this code is described in Section 6.">
<polygon fill="none" stroke="black" points="659,-215 659,-235 861,-235 861,-215 659,-215"/>
<text text-anchor="start" x="676.5" y="-221.733" font-family="Times Roman,serif" font-size="14.00">[ENUM] lang (Required) </text>
</a>
</g>
<!-- Contact&#45;&gt;PostalAddress -->
<g id="edge4" class="edge"><title>Contact&#45;&gt;PostalAddress</title>
<path fill="none" stroke="black" d="M569.563,-223.456C593.075,-226.239 617.475,-229.128 640.648,-231.871"/>
<polygon fill="black" stroke="black" points="640.506,-235.379 650.848,-233.079 641.329,-228.427 640.506,-235.379"/>
<text text-anchor="middle" x="602" y="-232.4" font-family="Times Roman,serif" font-size="14.00">0..1</text>
</g>
<!-- Email -->
<g id="node7" class="node"><title>Email</title>
<a xlink:href="#" xlink:title="The Email class specifies an email address formatted according to EMAIL data type (Section 2.14). ">
<polygon fill="#cecece" stroke="#cecece" points="659,-169 659,-190 861,-190 861,-169 659,-169"/>
<polygon fill="none" stroke="black" points="659,-169 659,-190 861,-190 861,-169 659,-169"/>
<text text-anchor="start" x="741" y="-176.233" font-family="Times Roman,serif" font-size="14.00">Email</text>
</a>
<a xlink:href="#" xlink:title="A free&#45;form description of the element content (e.g., hours of coverage for a given number).">
<polygon fill="none" stroke="black" points="659,-149 659,-169 861,-169 861,-149 659,-149"/>
<text text-anchor="start" x="662.5" y="-155.733" font-family="Times Roman,serif" font-size="14.00">[ENUM] meaning (Optional) </text>
</a>
</g>
<!-- Contact&#45;&gt;Email -->
<g id="edge6" class="edge"><title>Contact&#45;&gt;Email</title>
<path fill="none" stroke="black" d="M569.563,-192.544C593.075,-189.761 617.475,-186.872 640.648,-184.129"/>
<polygon fill="black" stroke="black" points="641.329,-187.573 650.848,-182.921 640.506,-180.621 641.329,-187.573"/>
<text text-anchor="middle" x="602" y="-194.4" font-family="Times Roman,serif" font-size="14.00">0..*</text>
</g>
<!-- AdditionalData -->
<g id="node10" class="node"><title>AdditionalData</title>
<a xlink:href="#" xlink:title="The AdditionalData class serves as an extension mechanism for information not otherwise represented in the data model. For relatively simple information, atomic data types (e.g., integers, strings) are provided with a mechanism to annotate their meaning. The class can also be used to extend the data model (and the associated Schema) to support proprietary extensions by encapsulating entire XML documents conforming to another Schema (e.g., IDMEF). A detailed discussion for extending the data model and the schema can be found in Section 5. ">
<polygon fill="#cecece" stroke="#cecece" points="650,-103 650,-124 871,-124 871,-103 650,-103"/>
<polygon fill="none" stroke="black" points="650,-103 650,-124 871,-124 871,-103 650,-103"/>
<text text-anchor="start" x="709" y="-110.233" font-family="Times Roman,serif" font-size="14.00">AdditionalData</text>
</a>
<a xlink:href="#" xlink:title="The data type of the element content. &#160;The permitted values for this attribute are shown below. &#160;The default value is &quot;string&quot;.">
<polygon fill="none" stroke="black" points="650,-83 650,-103 871,-103 871,-83 650,-83"/>
<text text-anchor="start" x="672" y="-89.7333" font-family="Times Roman,serif" font-size="14.00">[ENUM] dtype (Required) </text>
</a>
<a xlink:href="#" xlink:title="A means by which to extend the dtype attribute. &#160;See Section 5.1.">
<polygon fill="none" stroke="black" points="650,-63 650,-83 871,-83 871,-63 650,-63"/>
<text text-anchor="start" x="653.5" y="-69.7333" font-family="Times Roman,serif" font-size="14.00">[STRING] ext&#45;dtype (Optional) </text>
</a>
<a xlink:href="#" xlink:title="A free&#45;form description of the element content.">
<polygon fill="none" stroke="black" points="650,-43 650,-63 871,-63 871,-43 650,-43"/>
<text text-anchor="start" x="657" y="-49.7333" font-family="Times Roman,serif" font-size="14.00">[STRING] meaning (Optional) </text>
</a>
<a xlink:href="#" xlink:title="An identifier referencing the format and semantics of the element content.">
<polygon fill="none" stroke="black" points="650,-23 650,-43 871,-43 871,-23 650,-23"/>
<text text-anchor="start" x="658" y="-29.7333" font-family="Times Roman,serif" font-size="14.00">[STRING] formatid (Optional) </text>
</a>
<a xlink:href="#" xlink:title="This attribute has been defined in Section 3.2.">
<polygon fill="none" stroke="black" points="650,-3 650,-23 871,-23 871,-3 650,-3"/>
<text text-anchor="start" x="657.5" y="-9.73333" font-family="Times Roman,serif" font-size="14.00">[ENUM] restriction (Optional) </text>
</a>
</g>
<!-- Contact&#45;&gt;AdditionalData -->
<g id="edge10" class="edge"><title>Contact&#45;&gt;AdditionalData</title>
<path fill="none" stroke="black" d="M569.563,-149.43C590.185,-140.179 611.49,-130.621 632.051,-121.398"/>
<polygon fill="black" stroke="black" points="633.749,-124.472 641.44,-117.186 630.884,-118.085 633.749,-124.472"/>
<text text-anchor="middle" x="602" y="-144.4" font-family="Times Roman,serif" font-size="14.00">0..*</text>
</g>
</g>
</svg>
