<?xml version="1.0" encoding="UTF-8" standalone="no"?>
<!DOCTYPE svg PUBLIC "-//W3C//DTD SVG 1.1//EN"
 "http://www.w3.org/Graphics/SVG/1.1/DTD/svg11.dtd">
<!-- Generated by graphviz version 2.40.1 (0)
 -->
<!-- Title: Flow Pages: 1 -->
<svg width="911pt" height="866pt"
 viewBox="0.00 0.00 911.00 865.50" xmlns="http://www.w3.org/2000/svg" xmlns:xlink="http://www.w3.org/1999/xlink">
<g id="graph0" class="graph" transform="scale(1 1) rotate(0) translate(4 861.5)">
<title>Flow</title>
<polygon fill="#ffffff" stroke="transparent" points="-4,4 -4,-861.5 907,-861.5 907,4 -4,4"/>
<!-- Flow -->
<g id="node1" class="node">
<title>Flow</title>
<g id="a_node1_0"><a xlink:href="/idmef_parser/IODEF/Flow.html" xlink:title="The Flow class groups related the source and target hosts. ">
<polygon fill="#203f7f" stroke="transparent" points="10,-434 10,-455 45,-455 45,-434 10,-434"/>
<polygon fill="none" stroke="#000000" points="10,-434 10,-455 45,-455 45,-434 10,-434"/>
<text text-anchor="start" x="13" y="-440.8" font-family="Nimbus Sans L" font-size="14.00" fill="#000000">Flow</text>
</a>
</g>
</g>
<!-- System -->
<g id="node2" class="node">
<title>System</title>
<g id="a_node2_1"><a xlink:href="/idmef_parser/IODEF/System.html" xlink:title="The System class describes a system or network involved in an event. The systems or networks represented by this class are categorized according to the role they played in the incident through the category attribute. The value of this category attribute dictates the semantics of the aggregated classes in the System class. If the category attribute has a value of &quot;source&quot;, then the aggregated classes denote the machine and service from which the activity is originating. With a category attribute value of &quot;target&quot; or &quot;intermediary&quot;, then the machine or service is the one targeted in the activity. A value of &quot;sensor&quot; dictates that this System was part of an instrumentation to monitor the network. ">
<polygon fill="#203f7f" stroke="transparent" points="121,-497 121,-518 327,-518 327,-497 121,-497"/>
<polygon fill="none" stroke="#000000" points="121,-497 121,-518 327,-518 327,-497 121,-497"/>
<text text-anchor="start" x="201" y="-503.8" font-family="Nimbus Sans L" font-size="14.00" fill="#000000">System</text>
</a>
</g>
<g id="a_node2_2"><a xlink:href="/idmef_parser/IODEF/System.html" xlink:title="A free&#45;form text description of the System.">
<polygon fill="#284f9f" stroke="transparent" points="121,-476 121,-497 327,-497 327,-476 121,-476"/>
<polygon fill="none" stroke="#000000" points="121,-476 121,-497 327,-497 327,-476 121,-476"/>
<text text-anchor="start" x="129" y="-482.8" font-family="Nimbus Sans L" font-size="14.00" fill="#000000">[ML_STRING] Description (0..*)</text>
</a>
</g>
<g id="a_node2_3"><a xlink:href="/idmef_parser/IODEF/System.html" xlink:title="This attribute is defined in Section 3.2.">
<polygon fill="#284f9f" stroke="transparent" points="121,-455 121,-476 327,-476 327,-455 121,-455"/>
<polygon fill="none" stroke="#000000" points="121,-455 121,-476 327,-476 327,-455 121,-455"/>
<text text-anchor="start" x="136.5" y="-461.8" font-family="Nimbus Sans L" font-size="14.00" fill="#000000">[ENUM] restriction (Optional)</text>
</a>
</g>
<g id="a_node2_4"><a xlink:href="/idmef_parser/IODEF/System.html" xlink:title="Classifies the role the host or network played in the incident. &#160;The possible values are:">
<polygon fill="#284f9f" stroke="transparent" points="121,-434 121,-455 327,-455 327,-434 121,-434"/>
<polygon fill="none" stroke="#000000" points="121,-434 121,-455 327,-455 327,-434 121,-434"/>
<text text-anchor="start" x="138" y="-440.8" font-family="Nimbus Sans L" font-size="14.00" fill="#000000">[ENUM] category (Required)</text>
</a>
</g>
<g id="a_node2_5"><a xlink:href="/idmef_parser/IODEF/System.html" xlink:title="A means by which to extend the category attribute. &#160;See Section 5.1.">
<polygon fill="#284f9f" stroke="transparent" points="121,-413 121,-434 327,-434 327,-413 121,-413"/>
<polygon fill="none" stroke="#000000" points="121,-413 121,-434 327,-434 327,-413 121,-413"/>
<text text-anchor="start" x="124" y="-419.8" font-family="Nimbus Sans L" font-size="14.00" fill="#000000">[STRING] ext&#45;category (Optional)</text>
</a>
</g>
<g id="a_node2_6"><a xlink:href="/idmef_parser/IODEF/System.html" xlink:title="Specifies the interface on which the event(s) on this System originated. &#160;If the Node class specifies a network rather than a host, this attribute has no meaning.">
<polygon fill="#284f9f" stroke="transparent" points="121,-392 121,-413 327,-413 327,-392 121,-392"/>
<polygon fill="none" stroke="#000000" points="121,-392 121,-413 327,-413 327,-392 121,-392"/>
<text text-anchor="start" x="135" y="-398.8" font-family="Nimbus Sans L" font-size="14.00" fill="#000000">[STRING] interface (Optional)</text>
</a>
</g>
<g id="a_node2_7"><a xlink:href="/idmef_parser/IODEF/System.html" xlink:title="An indication of confidence in whether this System was the true target or attacking host. &#160;The permitted values for this attribute are shown below. &#160;The default value is &quot;unknown&quot;.">
<polygon fill="#284f9f" stroke="transparent" points="121,-371 121,-392 327,-392 327,-371 121,-371"/>
<polygon fill="none" stroke="#000000" points="121,-371 121,-392 327,-392 327,-371 121,-371"/>
<text text-anchor="start" x="142" y="-377.8" font-family="Nimbus Sans L" font-size="14.00" fill="#000000">[ENUM] spoofed (Optional)</text>
</a>
</g>
</g>
<!-- Flow&#45;&gt;System -->
<g id="edge10" class="edge">
<title>Flow&#45;&gt;System</title>
<path fill="none" stroke="#000000" d="M54.392,-445C67.6834,-445 84.6735,-445 102.7446,-445"/>
<polygon fill="#000000" stroke="#000000" points="102.8788,-448.5001 112.8787,-445 102.8787,-441.5001 102.8788,-448.5001"/>
<text text-anchor="middle" x="83.5" y="-448.8" font-family="Times,serif" font-size="14.00" fill="#000000">1..*</text>
</g>
<!-- Node -->
<g id="node3" class="node">
<title>Node</title>
<g id="a_node3_8"><a xlink:href="/idmef_parser/IODEF/Node.html" xlink:title="The Node class names a system (e.g., PC, router) or network. ">
<polygon fill="#203f7f" stroke="transparent" points="410,-680 410,-701 607,-701 607,-680 410,-680"/>
<polygon fill="none" stroke="#000000" points="410,-680 410,-701 607,-701 607,-680 410,-680"/>
<text text-anchor="start" x="492" y="-686.8" font-family="Nimbus Sans L" font-size="14.00" fill="#000000">Node</text>
</a>
</g>
<g id="a_node3_9"><a xlink:href="/idmef_parser/IODEF/Node.html" xlink:title="The name of the Node (e.g., fully qualified domain name). &#160;This information MUST be provided if no Address information is given.">
<polygon fill="#284f9f" stroke="transparent" points="410,-659 410,-680 607,-680 607,-659 410,-659"/>
<polygon fill="none" stroke="#000000" points="410,-659 410,-680 607,-680 607,-659 410,-659"/>
<text text-anchor="start" x="413" y="-665.8" font-family="Nimbus Sans L" font-size="14.00" fill="#000000">[ML_STRING] NodeName (0..*)</text>
</a>
</g>
<g id="a_node3_10"><a xlink:href="/idmef_parser/IODEF/Node.html" xlink:title="A free&#45;from description of the physical location of the equipment.">
<polygon fill="#284f9f" stroke="transparent" points="410,-638 410,-659 607,-659 607,-638 410,-638"/>
<polygon fill="none" stroke="#000000" points="410,-638 410,-659 607,-659 607,-638 410,-638"/>
<text text-anchor="start" x="420.5" y="-644.8" font-family="Nimbus Sans L" font-size="14.00" fill="#000000">[ML_STRING] Location (0..1)</text>
</a>
</g>
<g id="a_node3_11"><a xlink:href="/idmef_parser/IODEF/Node.html" xlink:title="A timestamp of when the resolution between the name and address was performed. &#160;This information SHOULD be provided if both an Address and NodeName are specified.">
<polygon fill="#284f9f" stroke="transparent" points="410,-617 410,-638 607,-638 607,-617 410,-617"/>
<polygon fill="none" stroke="#000000" points="410,-617 410,-638 607,-638 607,-617 410,-617"/>
<text text-anchor="start" x="455.5" y="-623.8" font-family="Nimbus Sans L" font-size="14.00" fill="#000000">[] DateTime (0..1)</text>
</a>
</g>
</g>
<!-- System&#45;&gt;Node -->
<g id="edge4" class="edge">
<title>System&#45;&gt;Node</title>
<path fill="none" stroke="#000000" d="M295.4855,-522.8275C313.4056,-540.3432 333.1945,-558.1295 353,-573 369.4962,-585.3857 387.9805,-597.1815 406.2808,-607.8471"/>
<polygon fill="#000000" stroke="#000000" points="404.8251,-611.0471 415.2403,-612.9897 408.3098,-604.9761 404.8251,-611.0471"/>
<text text-anchor="middle" x="364.5" y="-589.8" font-family="Times,serif" font-size="14.00" fill="#000000">1..1</text>
</g>
<!-- Counter -->
<g id="node6" class="node">
<title>Counter</title>
<g id="a_node6_12"><a xlink:href="/idmef_parser/IODEF/Counter.html" xlink:title="The Counter class summarize multiple occurrences of some event, or conveys counts or rates on various features (e.g., packets, sessions, events). ">
<polygon fill="#cc401d" stroke="transparent" points="691,-590 691,-611 894,-611 894,-590 691,-590"/>
<polygon fill="none" stroke="#000000" points="691,-590 691,-611 894,-611 894,-590 691,-590"/>
<text text-anchor="start" x="768" y="-596.8" font-family="Nimbus Sans L" font-size="14.00" fill="#000000">Counter</text>
</a>
</g>
<g id="a_node6_13"><a xlink:href="/idmef_parser/IODEF/Counter.html" xlink:title="Specifies the units of the element content.">
<polygon fill="#ff5024" stroke="transparent" points="691,-569 691,-590 894,-590 894,-569 691,-569"/>
<polygon fill="none" stroke="#000000" points="691,-569 691,-590 894,-590 894,-569 691,-569"/>
<text text-anchor="start" x="720" y="-575.8" font-family="Nimbus Sans L" font-size="14.00" fill="#000000">[ENUM] type (Required)</text>
</a>
</g>
<g id="a_node6_14"><a xlink:href="/idmef_parser/IODEF/Counter.html" xlink:title="A means by which to extend the type attribute. See Section 5.1.">
<polygon fill="#ff5024" stroke="transparent" points="691,-548 691,-569 894,-569 894,-548 691,-548"/>
<polygon fill="none" stroke="#000000" points="691,-548 691,-569 894,-569 894,-548 691,-548"/>
<text text-anchor="start" x="705.5" y="-554.8" font-family="Nimbus Sans L" font-size="14.00" fill="#000000">[STRING] ext&#45;type (Optional)</text>
</a>
</g>
<g id="a_node6_15"><a xlink:href="/idmef_parser/IODEF/Counter.html" xlink:title="If present, the Counter class represents a rate rather than a count over the entire event. &#160;In that case, this attribute specifies the denominator of the rate (where the type attribute specified the nominator). &#160;The possible values of this attribute are defined in Section 3.10.2">
<polygon fill="#ff5024" stroke="transparent" points="691,-527 691,-548 894,-548 894,-527 691,-527"/>
<polygon fill="none" stroke="#000000" points="691,-527 691,-548 894,-548 894,-527 691,-527"/>
<text text-anchor="start" x="710" y="-533.8" font-family="Nimbus Sans L" font-size="14.00" fill="#000000">[ENUM] duration (Optional)</text>
</a>
</g>
<g id="a_node6_16"><a xlink:href="/idmef_parser/IODEF/Counter.html" xlink:title="A means by which to extend the duration attribute. &#160;See Section 5.1.">
<polygon fill="#ff5024" stroke="transparent" points="691,-506 691,-527 894,-527 894,-506 691,-506"/>
<polygon fill="none" stroke="#000000" points="691,-506 691,-527 894,-527 894,-506 691,-506"/>
<text text-anchor="start" x="694" y="-512.8" font-family="Nimbus Sans L" font-size="14.00" fill="#000000">[STRING] ext&#45;duration (Optional)</text>
</a>
</g>
</g>
<!-- System&#45;&gt;Counter -->
<g id="edge8" class="edge">
<title>System&#45;&gt;Counter</title>
<path fill="none" stroke="#000000" d="M335.2535,-509.9185C354.3314,-518.7037 374.3509,-526.554 394,-532 485.0437,-557.2339 592.0716,-563.2416 672.1963,-563.3481"/>
<polygon fill="#000000" stroke="#000000" points="672.3322,-566.848 682.3261,-563.3304 672.3199,-559.848 672.3322,-566.848"/>
<text text-anchor="middle" x="508" y="-565.8" font-family="Times,serif" font-size="14.00" fill="#000000">0..*</text>
</g>
<!-- Service -->
<g id="node7" class="node">
<title>Service</title>
<g id="a_node7_17"><a xlink:href="/idmef_parser/IODEF/Service.html" xlink:title="The Service class describes a network service of a host or network. The service is identified by specific port or list of ports, along with the application listening on that port. ">
<polygon fill="#203f7f" stroke="transparent" points="402,-497 402,-518 614,-518 614,-497 402,-497"/>
<polygon fill="none" stroke="#000000" points="402,-497 402,-518 614,-518 614,-497 402,-497"/>
<text text-anchor="start" x="485" y="-503.8" font-family="Nimbus Sans L" font-size="14.00" fill="#000000">Service</text>
</a>
</g>
<g id="a_node7_18"><a xlink:href="/idmef_parser/IODEF/Service.html" xlink:title="A port number.">
<polygon fill="#284f9f" stroke="transparent" points="402,-476 402,-497 614,-497 614,-476 402,-476"/>
<polygon fill="none" stroke="#000000" points="402,-476 402,-497 614,-497 614,-476 402,-476"/>
<text text-anchor="start" x="441.5" y="-482.8" font-family="Nimbus Sans L" font-size="14.00" fill="#000000">[INTEGER] Port (0..1)</text>
</a>
</g>
<g id="a_node7_19"><a xlink:href="/idmef_parser/IODEF/Service.html" xlink:title="A list of port numbers formatted according to Section 2.10.">
<polygon fill="#284f9f" stroke="transparent" points="402,-455 402,-476 614,-476 614,-455 402,-455"/>
<polygon fill="none" stroke="#000000" points="402,-455 402,-476 614,-476 614,-455 402,-455"/>
<text text-anchor="start" x="430.5" y="-461.8" font-family="Nimbus Sans L" font-size="14.00" fill="#000000">[PORTLIST] Portlist (0..1)</text>
</a>
</g>
<g id="a_node7_20"><a xlink:href="/idmef_parser/IODEF/Service.html" xlink:title="A layer&#45;4 protocol&#45;specific code field (e.g., ICMP code field).">
<polygon fill="#284f9f" stroke="transparent" points="402,-434 402,-455 614,-455 614,-434 402,-434"/>
<polygon fill="none" stroke="#000000" points="402,-434 402,-455 614,-455 614,-434 402,-434"/>
<text text-anchor="start" x="422" y="-440.8" font-family="Nimbus Sans L" font-size="14.00" fill="#000000">[INTEGER] ProtoCode (0..1)</text>
</a>
</g>
<g id="a_node7_21"><a xlink:href="/idmef_parser/IODEF/Service.html" xlink:title="A layer&#45;4 protocol specific type field (e.g., ICMP type field).">
<polygon fill="#284f9f" stroke="transparent" points="402,-413 402,-434 614,-434 614,-413 402,-413"/>
<polygon fill="none" stroke="#000000" points="402,-413 402,-434 614,-434 614,-413 402,-413"/>
<text text-anchor="start" x="424.5" y="-419.8" font-family="Nimbus Sans L" font-size="14.00" fill="#000000">[INTEGER] ProtoType (0..1)</text>
</a>
</g>
<g id="a_node7_22"><a xlink:href="/idmef_parser/IODEF/Service.html" xlink:title="A layer&#45;4 protocol specific flag field (e.g., TCP flag field).">
<polygon fill="#284f9f" stroke="transparent" points="402,-392 402,-413 614,-413 614,-392 402,-392"/>
<polygon fill="none" stroke="#000000" points="402,-392 402,-413 614,-413 614,-392 402,-392"/>
<text text-anchor="start" x="421.5" y="-398.8" font-family="Nimbus Sans L" font-size="14.00" fill="#000000">[INTEGER] ProtoFlags (0..1)</text>
</a>
</g>
<g id="a_node7_23"><a xlink:href="/idmef_parser/IODEF/Service.html" xlink:title="The IANA protocol number.">
<polygon fill="#284f9f" stroke="transparent" points="402,-371 402,-392 614,-392 614,-371 402,-371"/>
<polygon fill="none" stroke="#000000" points="402,-371 402,-392 614,-392 614,-371 402,-371"/>
<text text-anchor="start" x="405" y="-377.8" font-family="Nimbus Sans L" font-size="14.00" fill="#000000">[INTEGER] ip_protocol (Required)</text>
</a>
</g>
</g>
<!-- System&#45;&gt;Service -->
<g id="edge6" class="edge">
<title>System&#45;&gt;Service</title>
<path fill="none" stroke="#000000" d="M335.022,-445C350.9975,-445 367.5228,-445 383.7349,-445"/>
<polygon fill="#000000" stroke="#000000" points="383.7811,-448.5001 393.781,-445 383.781,-441.5001 383.7811,-448.5001"/>
<text text-anchor="middle" x="364.5" y="-448.8" font-family="Times,serif" font-size="14.00" fill="#000000">0..*</text>
</g>
<!-- OperatingSystem -->
<g id="node9" class="node">
<title>OperatingSystem</title>
<g id="a_node9_24"><a xlink:href="/idmef_parser/IODEF/OperatingSystem.html" xlink:title="The OperatingSystem class describes the operating system running on a System. The definition is identical to the Application class (Section 3.17.1). ">
<polygon fill="#203f7f" stroke="transparent" points="419,-324 419,-345 598,-345 598,-324 419,-324"/>
<polygon fill="none" stroke="#000000" points="419,-324 419,-345 598,-345 598,-324 419,-324"/>
<text text-anchor="start" x="455.5" y="-330.8" font-family="Nimbus Sans L" font-size="14.00" fill="#000000">OperatingSystem</text>
</a>
</g>
<g id="a_node9_25"><a xlink:href="/idmef_parser/IODEF/OperatingSystem.html" xlink:title="A URL describing the application.">
<polygon fill="#284f9f" stroke="transparent" points="419,-303 419,-324 598,-324 598,-303 419,-303"/>
<polygon fill="none" stroke="#000000" points="419,-303 419,-324 598,-324 598,-303 419,-303"/>
<text text-anchor="start" x="458.5" y="-309.8" font-family="Nimbus Sans L" font-size="14.00" fill="#000000">[URL] URL (0..1)</text>
</a>
</g>
<g id="a_node9_26"><a xlink:href="/idmef_parser/IODEF/OperatingSystem.html" xlink:title="An identifier that can be used to reference this software.">
<polygon fill="#284f9f" stroke="transparent" points="419,-282 419,-303 598,-303 598,-282 419,-282"/>
<polygon fill="none" stroke="#000000" points="419,-282 419,-303 598,-303 598,-282 419,-282"/>
<text text-anchor="start" x="431.5" y="-288.8" font-family="Nimbus Sans L" font-size="14.00" fill="#000000">[STRING] swid (Optional)</text>
</a>
</g>
<g id="a_node9_27"><a xlink:href="/idmef_parser/IODEF/OperatingSystem.html" xlink:title="An identifier that can be used to reference a particular configuration of this software.">
<polygon fill="#284f9f" stroke="transparent" points="419,-261 419,-282 598,-282 598,-261 419,-261"/>
<polygon fill="none" stroke="#000000" points="419,-261 419,-282 598,-282 598,-261 419,-261"/>
<text text-anchor="start" x="422" y="-267.8" font-family="Nimbus Sans L" font-size="14.00" fill="#000000">[STRING] configid (Optional)</text>
</a>
</g>
<g id="a_node9_28"><a xlink:href="/idmef_parser/IODEF/OperatingSystem.html" xlink:title="Vendor name of the software.">
<polygon fill="#284f9f" stroke="transparent" points="419,-240 419,-261 598,-261 598,-240 419,-240"/>
<polygon fill="none" stroke="#000000" points="419,-240 419,-261 598,-261 598,-240 419,-240"/>
<text text-anchor="start" x="424.5" y="-246.8" font-family="Nimbus Sans L" font-size="14.00" fill="#000000">[STRING] vendor (Optional)</text>
</a>
</g>
<g id="a_node9_29"><a xlink:href="/idmef_parser/IODEF/OperatingSystem.html" xlink:title="Family of the software.">
<polygon fill="#284f9f" stroke="transparent" points="419,-219 419,-240 598,-240 598,-219 419,-219"/>
<polygon fill="none" stroke="#000000" points="419,-219 419,-240 598,-240 598,-219 419,-219"/>
<text text-anchor="start" x="427" y="-225.8" font-family="Nimbus Sans L" font-size="14.00" fill="#000000">[STRING] family (Optional)</text>
</a>
</g>
<g id="a_node9_30"><a xlink:href="/idmef_parser/IODEF/OperatingSystem.html" xlink:title="Name of the software.">
<polygon fill="#284f9f" stroke="transparent" points="419,-198 419,-219 598,-219 598,-198 419,-198"/>
<polygon fill="none" stroke="#000000" points="419,-198 419,-219 598,-219 598,-198 419,-198"/>
<text text-anchor="start" x="428" y="-204.8" font-family="Nimbus Sans L" font-size="14.00" fill="#000000">[STRING] name (Optional)</text>
</a>
</g>
<g id="a_node9_31"><a xlink:href="/idmef_parser/IODEF/OperatingSystem.html" xlink:title="Version of the software.">
<polygon fill="#284f9f" stroke="transparent" points="419,-177 419,-198 598,-198 598,-177 419,-177"/>
<polygon fill="none" stroke="#000000" points="419,-177 419,-198 598,-198 598,-177 419,-177"/>
<text text-anchor="start" x="423.5" y="-183.8" font-family="Nimbus Sans L" font-size="14.00" fill="#000000">[STRING] version (Optional)</text>
</a>
</g>
<g id="a_node9_32"><a xlink:href="/idmef_parser/IODEF/OperatingSystem.html" xlink:title="Patch or service pack level of the software.">
<polygon fill="#284f9f" stroke="transparent" points="419,-156 419,-177 598,-177 598,-156 419,-156"/>
<polygon fill="none" stroke="#000000" points="419,-156 419,-177 598,-177 598,-156 419,-156"/>
<text text-anchor="start" x="428.5" y="-162.8" font-family="Nimbus Sans L" font-size="14.00" fill="#000000">[STRING] patch (Optional)</text>
</a>
</g>
</g>
<!-- System&#45;&gt;OperatingSystem -->
<g id="edge7" class="edge">
<title>System&#45;&gt;OperatingSystem</title>
<path fill="none" stroke="#000000" d="M335.022,-369.161C357.094,-354.0837 380.2157,-338.2893 402.1106,-323.3329"/>
<polygon fill="#000000" stroke="#000000" points="404.154,-326.1757 410.4372,-317.645 400.2056,-320.3956 404.154,-326.1757"/>
<text text-anchor="middle" x="364.5" y="-356.8" font-family="Times,serif" font-size="14.00" fill="#000000">0..1</text>
</g>
<!-- AdditionalData -->
<g id="node10" class="node">
<title>AdditionalData</title>
<g id="a_node10_33"><a xlink:href="/idmef_parser/IODEF/AdditionalData.html" xlink:title="The AdditionalData class serves as an extension mechanism for information not otherwise represented in the data model. For relatively simple information, atomic data types (e.g., integers, strings) are provided with a mechanism to annotate their meaning. The class can also be used to extend the data model (and the associated Schema) to support proprietary extensions by encapsulating entire XML documents conforming to another Schema (e.g., IDMEF). A detailed discussion for extending the data model and the schema can be found in Section 5. ">
<polygon fill="#cca352" stroke="transparent" points="415,-109 415,-130 602,-130 602,-109 415,-109"/>
<polygon fill="none" stroke="#000000" points="415,-109 415,-130 602,-130 602,-109 415,-109"/>
<text text-anchor="start" x="464.5" y="-115.8" font-family="Nimbus Sans L" font-size="14.00" fill="#000000">AdditionalData</text>
</a>
</g>
<g id="a_node10_34"><a xlink:href="/idmef_parser/IODEF/AdditionalData.html" xlink:title="The data type of the element content. &#160;The permitted values for this attribute are shown below. &#160;The default value is &quot;string&quot;.">
<polygon fill="#ffcc66" stroke="transparent" points="415,-88 415,-109 602,-109 602,-88 415,-88"/>
<polygon fill="none" stroke="#000000" points="415,-88 415,-109 602,-109 602,-88 415,-88"/>
<text text-anchor="start" x="432" y="-94.8" font-family="Nimbus Sans L" font-size="14.00" fill="#000000">[ENUM] dtype (Required)</text>
</a>
</g>
<g id="a_node10_35"><a xlink:href="/idmef_parser/IODEF/AdditionalData.html" xlink:title="A means by which to extend the dtype attribute. &#160;See Section 5.1.">
<polygon fill="#ffcc66" stroke="transparent" points="415,-67 415,-88 602,-88 602,-67 415,-67"/>
<polygon fill="none" stroke="#000000" points="415,-67 415,-88 602,-88 602,-67 415,-67"/>
<text text-anchor="start" x="418" y="-73.8" font-family="Nimbus Sans L" font-size="14.00" fill="#000000">[STRING] ext&#45;dtype (Optional)</text>
</a>
</g>
<g id="a_node10_36"><a xlink:href="/idmef_parser/IODEF/AdditionalData.html" xlink:title="A free&#45;form description of the element content.">
<polygon fill="#ffcc66" stroke="transparent" points="415,-46 415,-67 602,-67 602,-46 415,-46"/>
<polygon fill="none" stroke="#000000" points="415,-46 415,-67 602,-67 602,-46 415,-46"/>
<text text-anchor="start" x="419" y="-52.8" font-family="Nimbus Sans L" font-size="14.00" fill="#000000">[STRING] meaning (Optional)</text>
</a>
</g>
<g id="a_node10_37"><a xlink:href="/idmef_parser/IODEF/AdditionalData.html" xlink:title="An identifier referencing the format and semantics of the element content.">
<polygon fill="#ffcc66" stroke="transparent" points="415,-25 415,-46 602,-46 602,-25 415,-25"/>
<polygon fill="none" stroke="#000000" points="415,-25 415,-46 602,-46 602,-25 415,-25"/>
<text text-anchor="start" x="420.5" y="-31.8" font-family="Nimbus Sans L" font-size="14.00" fill="#000000">[STRING] formatid (Optional)</text>
</a>
</g>
<g id="a_node10_38"><a xlink:href="/idmef_parser/IODEF/AdditionalData.html" xlink:title="This attribute has been defined in Section 3.2.">
<polygon fill="#ffcc66" stroke="transparent" points="415,-4 415,-25 602,-25 602,-4 415,-4"/>
<polygon fill="none" stroke="#000000" points="415,-4 415,-25 602,-25 602,-4 415,-4"/>
<text text-anchor="start" x="421" y="-10.8" font-family="Nimbus Sans L" font-size="14.00" fill="#000000">[ENUM] restriction (Optional)</text>
</a>
</g>
</g>
<!-- System&#45;&gt;AdditionalData -->
<g id="edge9" class="edge">
<title>System&#45;&gt;AdditionalData</title>
<path fill="none" stroke="#000000" d="M255.7492,-367.2656C284.9087,-302.426 332.8363,-210.2587 394,-144 395.5795,-142.2889 397.204,-140.5965 398.8679,-138.9238"/>
<polygon fill="#000000" stroke="#000000" points="401.5919,-141.1615 406.3974,-131.7192 396.7524,-136.1038 401.5919,-141.1615"/>
<text text-anchor="middle" x="364.5" y="-190.8" font-family="Times,serif" font-size="14.00" fill="#000000">0..*</text>
</g>
<!-- Address -->
<g id="node4" class="node">
<title>Address</title>
<g id="a_node4_39"><a xlink:href="/idmef_parser/IODEF/Address.html" xlink:title="The Address class represents a hardware (layer&#45;2), network (layer&#45;3), or application (layer&#45;7) address. ">
<polygon fill="#203f7f" stroke="transparent" points="689,-832 689,-853 895,-853 895,-832 689,-832"/>
<polygon fill="none" stroke="#000000" points="689,-832 689,-853 895,-853 895,-832 689,-832"/>
<text text-anchor="start" x="767" y="-838.8" font-family="Nimbus Sans L" font-size="14.00" fill="#000000">Address</text>
</a>
</g>
<g id="a_node4_40"><a xlink:href="/idmef_parser/IODEF/Address.html" xlink:title="The type of address represented. &#160;The permitted values for this attribute are shown below. &#160;The default value is &quot;ipv4&#45;addr&quot;.">
<polygon fill="#284f9f" stroke="transparent" points="689,-811 689,-832 895,-832 895,-811 689,-811"/>
<polygon fill="none" stroke="#000000" points="689,-811 689,-832 895,-832 895,-811 689,-811"/>
<text text-anchor="start" x="706" y="-817.8" font-family="Nimbus Sans L" font-size="14.00" fill="#000000">[ENUM] category (Required)</text>
</a>
</g>
<g id="a_node4_41"><a xlink:href="/idmef_parser/IODEF/Address.html" xlink:title="A means by which to extend the category attribute. &#160;See Section 5.1.">
<polygon fill="#284f9f" stroke="transparent" points="689,-790 689,-811 895,-811 895,-790 689,-790"/>
<polygon fill="none" stroke="#000000" points="689,-790 689,-811 895,-811 895,-790 689,-790"/>
<text text-anchor="start" x="692" y="-796.8" font-family="Nimbus Sans L" font-size="14.00" fill="#000000">[STRING] ext&#45;category (Optional)</text>
</a>
</g>
<g id="a_node4_42"><a xlink:href="/idmef_parser/IODEF/Address.html" xlink:title="The name of the Virtual LAN to which the address belongs.">
<polygon fill="#284f9f" stroke="transparent" points="689,-769 689,-790 895,-790 895,-769 689,-769"/>
<polygon fill="none" stroke="#000000" points="689,-769 689,-790 895,-790 895,-769 689,-769"/>
<text text-anchor="start" x="697" y="-775.8" font-family="Nimbus Sans L" font-size="14.00" fill="#000000">[STRING] vlan&#45;name (Optional)</text>
</a>
</g>
<g id="a_node4_43"><a xlink:href="/idmef_parser/IODEF/Address.html" xlink:title="The number of the Virtual LAN to which the address belongs.">
<polygon fill="#284f9f" stroke="transparent" points="689,-748 689,-769 895,-769 895,-748 689,-748"/>
<polygon fill="none" stroke="#000000" points="689,-748 689,-769 895,-769 895,-748 689,-748"/>
<text text-anchor="start" x="700.5" y="-754.8" font-family="Nimbus Sans L" font-size="14.00" fill="#000000">[STRING] vlan&#45;num (Optional)</text>
</a>
</g>
</g>
<!-- Node&#45;&gt;Address -->
<g id="edge1" class="edge">
<title>Node&#45;&gt;Address</title>
<path fill="none" stroke="#000000" d="M600.2067,-705.1033C623.0419,-716.5209 647.8441,-728.922 671.7985,-740.8992"/>
<polygon fill="#000000" stroke="#000000" points="670.4223,-744.1243 680.9319,-745.4659 673.5529,-737.8633 670.4223,-744.1243"/>
<text text-anchor="middle" x="651.5" y="-737.8" font-family="Times,serif" font-size="14.00" fill="#000000">0..*</text>
</g>
<!-- NodeRole -->
<g id="node5" class="node">
<title>NodeRole</title>
<g id="a_node5_44"><a xlink:href="/idmef_parser/IODEF/NodeRole.html" xlink:title="The NodeRole class describes the intended function performed by a particular host. ">
<polygon fill="#203f7f" stroke="transparent" points="689,-701 689,-722 895,-722 895,-701 689,-701"/>
<polygon fill="none" stroke="#000000" points="689,-701 689,-722 895,-722 895,-701 689,-701"/>
<text text-anchor="start" x="761.5" y="-707.8" font-family="Nimbus Sans L" font-size="14.00" fill="#000000">NodeRole</text>
</a>
</g>
<g id="a_node5_45"><a xlink:href="/idmef_parser/IODEF/NodeRole.html" xlink:title="Functionality provided by a node.">
<polygon fill="#284f9f" stroke="transparent" points="689,-680 689,-701 895,-701 895,-680 689,-680"/>
<polygon fill="none" stroke="#000000" points="689,-680 689,-701 895,-701 895,-680 689,-680"/>
<text text-anchor="start" x="706" y="-686.8" font-family="Nimbus Sans L" font-size="14.00" fill="#000000">[ENUM] category (Required)</text>
</a>
</g>
<g id="a_node5_46"><a xlink:href="/idmef_parser/IODEF/NodeRole.html" xlink:title="A means by which to extend the category attribute. &#160;See Section 5.1.">
<polygon fill="#284f9f" stroke="transparent" points="689,-659 689,-680 895,-680 895,-659 689,-659"/>
<polygon fill="none" stroke="#000000" points="689,-659 689,-680 895,-680 895,-659 689,-659"/>
<text text-anchor="start" x="692" y="-665.8" font-family="Nimbus Sans L" font-size="14.00" fill="#000000">[STRING] ext&#45;category (Optional)</text>
</a>
</g>
<g id="a_node5_47"><a xlink:href="/idmef_parser/IODEF/NodeRole.html" xlink:title="A valid language code per RFC 4646 [7] constrained by the definition of &quot;xs:language&quot;. &#160;The interpretation of this code is described in Section 6.">
<polygon fill="#284f9f" stroke="transparent" points="689,-638 689,-659 895,-659 895,-638 689,-638"/>
<polygon fill="none" stroke="#000000" points="689,-638 689,-659 895,-659 895,-638 689,-638"/>
<text text-anchor="start" x="719.5" y="-644.8" font-family="Nimbus Sans L" font-size="14.00" fill="#000000">[ENUM] lang (Required)</text>
</a>
</g>
</g>
<!-- Node&#45;&gt;NodeRole -->
<g id="edge2" class="edge">
<title>Node&#45;&gt;NodeRole</title>
<path fill="none" stroke="#000000" d="M614.5591,-666.8794C632.8372,-668.2309 651.9522,-669.6444 670.5842,-671.0221"/>
<polygon fill="#000000" stroke="#000000" points="670.3447,-674.5138 680.5756,-671.7609 670.8609,-667.5329 670.3447,-674.5138"/>
<text text-anchor="middle" x="651.5" y="-673.8" font-family="Times,serif" font-size="14.00" fill="#000000">0..*</text>
</g>
<!-- Node&#45;&gt;Counter -->
<g id="edge3" class="edge">
<title>Node&#45;&gt;Counter</title>
<path fill="none" stroke="#000000" d="M614.5591,-621.4792C633.631,-614.7637 653.614,-607.7275 673.0087,-600.8983"/>
<polygon fill="#000000" stroke="#000000" points="674.206,-604.1875 682.4759,-597.5648 671.8811,-597.5848 674.206,-604.1875"/>
<text text-anchor="middle" x="651.5" y="-614.8" font-family="Times,serif" font-size="14.00" fill="#000000">0..*</text>
</g>
<!-- Application -->
<g id="node8" class="node">
<title>Application</title>
<g id="a_node8_48"><a xlink:href="/idmef_parser/IODEF/Application.html" xlink:title="The Application class describes an application running on a System providing a Service. ">
<polygon fill="#203f7f" stroke="transparent" points="703,-459 703,-480 882,-480 882,-459 703,-459"/>
<polygon fill="none" stroke="#000000" points="703,-459 703,-480 882,-480 882,-459 703,-459"/>
<text text-anchor="start" x="759" y="-465.8" font-family="Nimbus Sans L" font-size="14.00" fill="#000000">Application</text>
</a>
</g>
<g id="a_node8_49"><a xlink:href="/idmef_parser/IODEF/Application.html" xlink:title="A URL describing the application.">
<polygon fill="#284f9f" stroke="transparent" points="703,-438 703,-459 882,-459 882,-438 703,-438"/>
<polygon fill="none" stroke="#000000" points="703,-438 703,-459 882,-459 882,-438 703,-438"/>
<text text-anchor="start" x="742.5" y="-444.8" font-family="Nimbus Sans L" font-size="14.00" fill="#000000">[URL] URL (0..1)</text>
</a>
</g>
<g id="a_node8_50"><a xlink:href="/idmef_parser/IODEF/Application.html" xlink:title="An identifier that can be used to reference this software.">
<polygon fill="#284f9f" stroke="transparent" points="703,-417 703,-438 882,-438 882,-417 703,-417"/>
<polygon fill="none" stroke="#000000" points="703,-417 703,-438 882,-438 882,-417 703,-417"/>
<text text-anchor="start" x="715.5" y="-423.8" font-family="Nimbus Sans L" font-size="14.00" fill="#000000">[STRING] swid (Optional)</text>
</a>
</g>
<g id="a_node8_51"><a xlink:href="/idmef_parser/IODEF/Application.html" xlink:title="An identifier that can be used to reference a particular configuration of this software.">
<polygon fill="#284f9f" stroke="transparent" points="703,-396 703,-417 882,-417 882,-396 703,-396"/>
<polygon fill="none" stroke="#000000" points="703,-396 703,-417 882,-417 882,-396 703,-396"/>
<text text-anchor="start" x="706" y="-402.8" font-family="Nimbus Sans L" font-size="14.00" fill="#000000">[STRING] configid (Optional)</text>
</a>
</g>
<g id="a_node8_52"><a xlink:href="/idmef_parser/IODEF/Application.html" xlink:title="Vendor name of the software.">
<polygon fill="#284f9f" stroke="transparent" points="703,-375 703,-396 882,-396 882,-375 703,-375"/>
<polygon fill="none" stroke="#000000" points="703,-375 703,-396 882,-396 882,-375 703,-375"/>
<text text-anchor="start" x="708.5" y="-381.8" font-family="Nimbus Sans L" font-size="14.00" fill="#000000">[STRING] vendor (Optional)</text>
</a>
</g>
<g id="a_node8_53"><a xlink:href="/idmef_parser/IODEF/Application.html" xlink:title="Family of the software.">
<polygon fill="#284f9f" stroke="transparent" points="703,-354 703,-375 882,-375 882,-354 703,-354"/>
<polygon fill="none" stroke="#000000" points="703,-354 703,-375 882,-375 882,-354 703,-354"/>
<text text-anchor="start" x="711" y="-360.8" font-family="Nimbus Sans L" font-size="14.00" fill="#000000">[STRING] family (Optional)</text>
</a>
</g>
<g id="a_node8_54"><a xlink:href="/idmef_parser/IODEF/Application.html" xlink:title="Name of the software.">
<polygon fill="#284f9f" stroke="transparent" points="703,-333 703,-354 882,-354 882,-333 703,-333"/>
<polygon fill="none" stroke="#000000" points="703,-333 703,-354 882,-354 882,-333 703,-333"/>
<text text-anchor="start" x="712" y="-339.8" font-family="Nimbus Sans L" font-size="14.00" fill="#000000">[STRING] name (Optional)</text>
</a>
</g>
<g id="a_node8_55"><a xlink:href="/idmef_parser/IODEF/Application.html" xlink:title="Version of the software.">
<polygon fill="#284f9f" stroke="transparent" points="703,-312 703,-333 882,-333 882,-312 703,-312"/>
<polygon fill="none" stroke="#000000" points="703,-312 703,-333 882,-333 882,-312 703,-312"/>
<text text-anchor="start" x="707.5" y="-318.8" font-family="Nimbus Sans L" font-size="14.00" fill="#000000">[STRING] version (Optional)</text>
</a>
</g>
<g id="a_node8_56"><a xlink:href="/idmef_parser/IODEF/Application.html" xlink:title="Patch or service pack level of the software.">
<polygon fill="#284f9f" stroke="transparent" points="703,-291 703,-312 882,-312 882,-291 703,-291"/>
<polygon fill="none" stroke="#000000" points="703,-291 703,-312 882,-312 882,-291 703,-291"/>
<text text-anchor="start" x="712.5" y="-297.8" font-family="Nimbus Sans L" font-size="14.00" fill="#000000">[STRING] patch (Optional)</text>
</a>
</g>
</g>
<!-- Service&#45;&gt;Application -->
<g id="edge5" class="edge">
<title>Service&#45;&gt;Application</title>
<path fill="none" stroke="#000000" d="M622.2861,-421.2575C642.8171,-416.9922 664.1523,-412.5599 684.4836,-408.3362"/>
<polygon fill="#000000" stroke="#000000" points="685.2969,-411.742 694.3759,-406.2811 683.873,-404.8883 685.2969,-411.742"/>
<text text-anchor="middle" x="651.5" y="-420.8" font-family="Times,serif" font-size="14.00" fill="#000000">0..*</text>
</g>
</g>
</svg>
