<?xml version="1.0" encoding="UTF-8" standalone="no"?>
<!DOCTYPE svg PUBLIC "-//W3C//DTD SVG 1.1//EN"
 "http://www.w3.org/Graphics/SVG/1.1/DTD/svg11.dtd">
<!-- Generated by graphviz version 2.26.3 (20100126.1600)
 -->
<!-- Title: History Pages: 1 -->
<svg width="1186pt" height="476pt"
 viewBox="0.00 0.00 1186.00 476.00" xmlns="http://www.w3.org/2000/svg" xmlns:xlink="http://www.w3.org/1999/xlink">
<g id="graph1" class="graph" transform="scale(1 1) rotate(0) translate(4 472)">
<title>History</title>
<polygon fill="white" stroke="white" points="-4,5 -4,-472 1183,-472 1183,5 -4,5"/>
<!-- History -->
<g id="node1" class="node"><title>History</title>
<a xlink:href="#" xlink:title="The History class is a log of the significant events or actions performed by the involved parties during the course of handling the incident. ">
<polygon fill="#006a30" stroke="#006a30" points="9,-212 9,-233 222,-233 222,-212 9,-212"/>
<polygon fill="none" stroke="black" points="9,-212 9,-233 222,-233 222,-212 9,-212"/>
<text text-anchor="start" x="90.5" y="-219.233" font-family="Times Roman,serif" font-size="14.00">History</text>
</a>
<a xlink:href="#" xlink:title="This attribute is defined in Section 3.2.">
<polygon fill="#00b050" stroke="#00b050" points="9,-192 9,-212 222,-212 222,-192 9,-192"/>
<polygon fill="none" stroke="black" points="9,-192 9,-212 222,-212 222,-192 9,-192"/>
<text text-anchor="start" x="12.5" y="-198.733" font-family="Times Roman,serif" font-size="14.00">[ENUM] restriction (Optional) </text>
</a>
</g>
<!-- HistoryItem -->
<g id="node2" class="node"><title>HistoryItem</title>
<a xlink:href="#" xlink:title="The HistoryItem class is an entry in the History (Section 3.11) log that documents a particular action or event that occurred in the course of handling the incident. The details of the entry are a free&#45;form description, but each can be categorized with the type attribute. ">
<polygon fill="#006a30" stroke="#006a30" points="301,-252 301,-273 528,-273 528,-252 301,-252"/>
<polygon fill="none" stroke="black" points="301,-252 301,-273 528,-273 528,-252 301,-252"/>
<text text-anchor="start" x="373.5" y="-259.233" font-family="Times Roman,serif" font-size="14.00">HistoryItem</text>
</a>
<a xlink:href="#" xlink:title="Timestamp of this entry in the history log (e.g., when the action described in the Description was taken).">
<polygon fill="#00b050" stroke="#00b050" points="301,-232 301,-252 528,-252 528,-232 301,-232"/>
<polygon fill="none" stroke="black" points="301,-232 301,-252 528,-252 528,-232 301,-232"/>
<text text-anchor="start" x="350" y="-238.733" font-family="Times Roman,serif" font-size="14.00">[] DateTime (1..1) </text>
</a>
<a xlink:href="#" xlink:title="A free&#45;form textual description of the action or event.">
<polygon fill="#00b050" stroke="#00b050" points="301,-212 301,-232 528,-232 528,-212 301,-212"/>
<polygon fill="none" stroke="black" points="301,-212 301,-232 528,-232 528,-212 301,-212"/>
<text text-anchor="start" x="304.5" y="-218.733" font-family="Times Roman,serif" font-size="14.00">[ML_STRING] Description (0..*) </text>
</a>
<a xlink:href="#" xlink:title="This attribute has been defined in Section 3.2.">
<polygon fill="#00b050" stroke="#00b050" points="301,-192 301,-212 528,-212 528,-192 301,-192"/>
<polygon fill="none" stroke="black" points="301,-192 301,-212 528,-212 528,-192 301,-192"/>
<text text-anchor="start" x="311.5" y="-198.733" font-family="Times Roman,serif" font-size="14.00">[ENUM] restriction (Optional) </text>
</a>
<a xlink:href="#" xlink:title="Classifies a performed action or occurrence documented in this history log entry. &#160;As activity will likely have been instigated either through a previously conveyed expectation or internal investigation, this attribute is identical to the category attribute of the Expectation class. &#160;The difference is only one of tense. &#160;When an action is in this class, it has been completed. &#160;See Section 3.13.">
<polygon fill="#00b050" stroke="#00b050" points="301,-172 301,-192 528,-192 528,-172 301,-172"/>
<polygon fill="none" stroke="black" points="301,-172 301,-192 528,-192 528,-172 301,-172"/>
<text text-anchor="start" x="324.5" y="-178.733" font-family="Times Roman,serif" font-size="14.00">[ENUM] action (Required) </text>
</a>
<a xlink:href="#" xlink:title="A means by which to extend the action attribute. &#160;See Section 5.1.">
<polygon fill="#00b050" stroke="#00b050" points="301,-152 301,-172 528,-172 528,-152 301,-152"/>
<polygon fill="none" stroke="black" points="301,-152 301,-172 528,-172 528,-152 301,-152"/>
<text text-anchor="start" x="306" y="-158.733" font-family="Times Roman,serif" font-size="14.00">[STRING] ext&#45;action (Optional) </text>
</a>
</g>
<!-- History&#45;&gt;HistoryItem -->
<g id="edge18" class="edge"><title>History&#45;&gt;HistoryItem</title>
<path fill="none" stroke="black" d="M229.746,-213C246.817,-213 264.528,-213 281.92,-213"/>
<polygon fill="black" stroke="black" points="282.116,-216.5 292.116,-213 282.116,-209.5 282.116,-216.5"/>
<text text-anchor="middle" x="261" y="-217.4" font-family="Times Roman,serif" font-size="14.00">1..*</text>
</g>
<!-- IncidentID -->
<g id="node3" class="node"><title>IncidentID</title>
<a xlink:href="#" xlink:title="The IncidentID class represents an incident tracking number that is unique in the context of the CSIRT and identifies the activity characterized in an IODEF Document. This identifier would serve as an index into the CSIRT incident handling system. The combination of the name attribute and the string in the element content MUST be a globally unique identifier describing the activity. Documents generated by a given CSIRT MUST NOT reuse the same value unless they are referencing the same incident. ">
<polygon fill="#5c7a00" stroke="#5c7a00" points="625,-443 625,-464 838,-464 838,-443 625,-443"/>
<polygon fill="none" stroke="black" points="625,-443 625,-464 838,-464 838,-443 625,-443"/>
<text text-anchor="start" x="695.5" y="-450.233" font-family="Times Roman,serif" font-size="14.00">IncidentID</text>
</a>
<a xlink:href="#" xlink:title="An identifier describing the CSIRT that created the document. &#160;In order to have a globally unique CSIRT name, the fully qualified domain name associated with the CSIRT MUST be used.">
<polygon fill="#99cc00" stroke="#99cc00" points="625,-423 625,-443 838,-443 838,-423 625,-423"/>
<polygon fill="none" stroke="black" points="625,-423 625,-443 838,-443 838,-423 625,-423"/>
<text text-anchor="start" x="637.5" y="-429.733" font-family="Times Roman,serif" font-size="14.00">[STRING] name (Required) </text>
</a>
<a xlink:href="#" xlink:title="An identifier referencing a subset of the named incident.">
<polygon fill="#99cc00" stroke="#99cc00" points="625,-403 625,-423 838,-423 838,-403 625,-403"/>
<polygon fill="none" stroke="black" points="625,-403 625,-423 838,-423 838,-403 625,-403"/>
<text text-anchor="start" x="629" y="-409.733" font-family="Times Roman,serif" font-size="14.00">[STRING] instance (Optional) </text>
</a>
<a xlink:href="#" xlink:title="This attribute has been defined in Section 3.2.">
<polygon fill="#99cc00" stroke="#99cc00" points="625,-383 625,-403 838,-403 838,-383 625,-383"/>
<polygon fill="none" stroke="black" points="625,-383 625,-403 838,-403 838,-383 625,-383"/>
<text text-anchor="start" x="628.5" y="-389.733" font-family="Times Roman,serif" font-size="14.00">[ENUM] restriction (Optional) </text>
</a>
</g>
<!-- HistoryItem&#45;&gt;IncidentID -->
<g id="edge2" class="edge"><title>HistoryItem&#45;&gt;IncidentID</title>
<path fill="none" stroke="black" d="M478.88,-277.105C512.917,-308.309 556.504,-344.672 600,-371 602.46,-372.489 604.968,-373.952 607.517,-375.39"/>
<polygon fill="black" stroke="black" points="605.863,-378.475 616.321,-380.176 609.207,-372.325 605.863,-378.475"/>
<text text-anchor="middle" x="568" y="-360.4" font-family="Times Roman,serif" font-size="14.00">0..1</text>
</g>
<!-- Contact -->
<g id="node5" class="node"><title>Contact</title>
<a xlink:href="#" xlink:title="The Contact class describes contact information for organizations and personnel involved in the incident. This class allows for the naming of the involved party, specifying contact information for them, and identifying their role in the incident. ">
<polygon fill="#7a993d" stroke="#7a993d" points="609,-302 609,-323 854,-323 854,-302 609,-302"/>
<polygon fill="none" stroke="black" points="609,-302 609,-323 854,-323 854,-302 609,-302"/>
<text text-anchor="start" x="704" y="-309.233" font-family="Times Roman,serif" font-size="14.00">Contact</text>
</a>
<a xlink:href="#" xlink:title="The name of the contact. &#160;The contact may either be an organization or a person. &#160;The type attribute disambiguates the semantics.">
<polygon fill="#ccff66" stroke="#ccff66" points="609,-282 609,-302 854,-302 854,-282 609,-282"/>
<polygon fill="none" stroke="black" points="609,-282 609,-302 854,-302 854,-282 609,-282"/>
<text text-anchor="start" x="612.5" y="-288.733" font-family="Times Roman,serif" font-size="14.00">[ML_STRING] ContactName (0..1) </text>
</a>
<a xlink:href="#" xlink:title="A free&#45;form description of this contact. &#160;In the case of a person, this is often the organizational title of the individual.">
<polygon fill="#ccff66" stroke="#ccff66" points="609,-262 609,-282 854,-282 854,-262 609,-262"/>
<polygon fill="none" stroke="black" points="609,-262 609,-282 854,-282 854,-262 609,-262"/>
<text text-anchor="start" x="621.5" y="-268.733" font-family="Times Roman,serif" font-size="14.00">[ML_STRING] Description (0..*) </text>
</a>
<a xlink:href="#" xlink:title="The telephone number of the contact.">
<polygon fill="#ccff66" stroke="#ccff66" points="609,-242 609,-262 854,-262 854,-242 609,-242"/>
<polygon fill="none" stroke="black" points="609,-242 609,-262 854,-262 854,-242 609,-242"/>
<text text-anchor="start" x="666.5" y="-248.733" font-family="Times Roman,serif" font-size="14.00">[] Telephone (0..*) </text>
</a>
<a xlink:href="#" xlink:title="The facsimile telephone number of the contact.">
<polygon fill="#ccff66" stroke="#ccff66" points="609,-222 609,-242 854,-242 854,-222 609,-222"/>
<polygon fill="none" stroke="black" points="609,-222 609,-242 854,-242 854,-222 609,-222"/>
<text text-anchor="start" x="689" y="-228.733" font-family="Times Roman,serif" font-size="14.00">[] Fax (0..1) </text>
</a>
<a xlink:href="#" xlink:title="The timezone in which the contact resides formatted according to Section 2.9.">
<polygon fill="#ccff66" stroke="#ccff66" points="609,-202 609,-222 854,-222 854,-202 609,-202"/>
<polygon fill="none" stroke="black" points="609,-202 609,-222 854,-222 854,-202 609,-202"/>
<text text-anchor="start" x="629.5" y="-208.733" font-family="Times Roman,serif" font-size="14.00">[TIMEZONE] Timezone (0..1) </text>
</a>
<a xlink:href="#" xlink:title="Indicates the role the contact fulfills. &#160;This attribute is defined as an enumerated list:">
<polygon fill="#ccff66" stroke="#ccff66" points="609,-182 609,-202 854,-202 854,-182 609,-182"/>
<polygon fill="none" stroke="black" points="609,-182 609,-202 854,-202 854,-182 609,-182"/>
<text text-anchor="start" x="649.5" y="-188.733" font-family="Times Roman,serif" font-size="14.00">[ENUM] role (Required) </text>
</a>
<a xlink:href="#" xlink:title="A means by which to extend the role attribute. See Section 5.1.">
<polygon fill="#ccff66" stroke="#ccff66" points="609,-162 609,-182 854,-182 854,-162 609,-162"/>
<polygon fill="none" stroke="black" points="609,-162 609,-182 854,-182 854,-162 609,-162"/>
<text text-anchor="start" x="630.5" y="-168.733" font-family="Times Roman,serif" font-size="14.00">[STRING] ext&#45;role (Optional) </text>
</a>
<a xlink:href="#" xlink:title="Indicates the type of contact being described. This attribute is defined as an enumerated list:">
<polygon fill="#ccff66" stroke="#ccff66" points="609,-142 609,-162 854,-162 854,-142 609,-142"/>
<polygon fill="none" stroke="black" points="609,-142 609,-162 854,-162 854,-142 609,-142"/>
<text text-anchor="start" x="647" y="-148.733" font-family="Times Roman,serif" font-size="14.00">[ENUM] type (Required) </text>
</a>
<a xlink:href="#" xlink:title="A means by which to extend the type attribute. See Section 5.1.">
<polygon fill="#ccff66" stroke="#ccff66" points="609,-122 609,-142 854,-142 854,-122 609,-122"/>
<polygon fill="none" stroke="black" points="609,-122 609,-142 854,-142 854,-122 609,-122"/>
<text text-anchor="start" x="628.5" y="-128.733" font-family="Times Roman,serif" font-size="14.00">[STRING] ext&#45;type (Optional) </text>
</a>
<a xlink:href="#" xlink:title="This attribute is defined in Section 3.2.">
<polygon fill="#ccff66" stroke="#ccff66" points="609,-102 609,-122 854,-122 854,-102 609,-102"/>
<polygon fill="none" stroke="black" points="609,-102 609,-122 854,-122 854,-102 609,-102"/>
<text text-anchor="start" x="628.5" y="-108.733" font-family="Times Roman,serif" font-size="14.00">[ENUM] restriction (Optional) </text>
</a>
</g>
<!-- HistoryItem&#45;&gt;Contact -->
<g id="edge14" class="edge"><title>HistoryItem&#45;&gt;Contact</title>
<path fill="none" stroke="black" d="M535.654,-213C553.553,-213 572.116,-213 590.36,-213"/>
<polygon fill="black" stroke="black" points="590.456,-216.5 600.456,-213 590.456,-209.5 590.456,-216.5"/>
<text text-anchor="middle" x="568" y="-217.4" font-family="Times Roman,serif" font-size="14.00">0..1</text>
</g>
<!-- AdditionalData -->
<g id="node13" class="node"><title>AdditionalData</title>
<a xlink:href="#" xlink:title="The AdditionalData class serves as an extension mechanism for information not otherwise represented in the data model. For relatively simple information, atomic data types (e.g., integers, strings) are provided with a mechanism to annotate their meaning. The class can also be used to extend the data model (and the associated Schema) to support proprietary extensions by encapsulating entire XML documents conforming to another Schema (e.g., IDMEF). A detailed discussion for extending the data model and the schema can be found in Section 5. ">
<polygon fill="#997a3d" stroke="#997a3d" points="942,-103 942,-124 1163,-124 1163,-103 942,-103"/>
<polygon fill="none" stroke="black" points="942,-103 942,-124 1163,-124 1163,-103 942,-103"/>
<text text-anchor="start" x="1001" y="-110.233" font-family="Times Roman,serif" font-size="14.00">AdditionalData</text>
</a>
<a xlink:href="#" xlink:title="The data type of the element content. &#160;The permitted values for this attribute are shown below. &#160;The default value is &quot;string&quot;.">
<polygon fill="#ffcc66" stroke="#ffcc66" points="942,-83 942,-103 1163,-103 1163,-83 942,-83"/>
<polygon fill="none" stroke="black" points="942,-83 942,-103 1163,-103 1163,-83 942,-83"/>
<text text-anchor="start" x="964" y="-89.7333" font-family="Times Roman,serif" font-size="14.00">[ENUM] dtype (Required) </text>
</a>
<a xlink:href="#" xlink:title="A means by which to extend the dtype attribute. &#160;See Section 5.1.">
<polygon fill="#ffcc66" stroke="#ffcc66" points="942,-63 942,-83 1163,-83 1163,-63 942,-63"/>
<polygon fill="none" stroke="black" points="942,-63 942,-83 1163,-83 1163,-63 942,-63"/>
<text text-anchor="start" x="945.5" y="-69.7333" font-family="Times Roman,serif" font-size="14.00">[STRING] ext&#45;dtype (Optional) </text>
</a>
<a xlink:href="#" xlink:title="A free&#45;form description of the element content.">
<polygon fill="#ffcc66" stroke="#ffcc66" points="942,-43 942,-63 1163,-63 1163,-43 942,-43"/>
<polygon fill="none" stroke="black" points="942,-43 942,-63 1163,-63 1163,-43 942,-43"/>
<text text-anchor="start" x="949" y="-49.7333" font-family="Times Roman,serif" font-size="14.00">[STRING] meaning (Optional) </text>
</a>
<a xlink:href="#" xlink:title="An identifier referencing the format and semantics of the element content.">
<polygon fill="#ffcc66" stroke="#ffcc66" points="942,-23 942,-43 1163,-43 1163,-23 942,-23"/>
<polygon fill="none" stroke="black" points="942,-23 942,-43 1163,-43 1163,-23 942,-23"/>
<text text-anchor="start" x="950" y="-29.7333" font-family="Times Roman,serif" font-size="14.00">[STRING] formatid (Optional) </text>
</a>
<a xlink:href="#" xlink:title="This attribute has been defined in Section 3.2.">
<polygon fill="#ffcc66" stroke="#ffcc66" points="942,-3 942,-23 1163,-23 1163,-3 942,-3"/>
<polygon fill="none" stroke="black" points="942,-3 942,-23 1163,-23 1163,-3 942,-3"/>
<text text-anchor="start" x="949.5" y="-9.73333" font-family="Times Roman,serif" font-size="14.00">[ENUM] restriction (Optional) </text>
</a>
</g>
<!-- HistoryItem&#45;&gt;AdditionalData -->
<g id="edge16" class="edge"><title>HistoryItem&#45;&gt;AdditionalData</title>
<path fill="none" stroke="black" d="M478.155,-148.753C511.517,-119.794 554.73,-88.6358 600,-73 704.506,-36.9046 830.861,-37.808 923.376,-45.9213"/>
<polygon fill="black" stroke="black" points="923.074,-49.4082 933.352,-46.8355 923.713,-42.4374 923.074,-49.4082"/>
<text text-anchor="middle" x="731" y="-77.4" font-family="Times Roman,serif" font-size="14.00">0..*</text>
</g>
<!-- Contact&#45;&gt;Contact -->
<g id="edge10" class="edge"><title>Contact&#45;&gt;Contact</title>
<path fill="none" stroke="black" d="M706.439,-327.054C711.422,-338.039 719.609,-345 731,-345 739.009,-345 745.434,-341.559 750.276,-335.697"/>
<polygon fill="black" stroke="black" points="753.33,-337.411 755.561,-327.054 747.358,-333.759 753.33,-337.411"/>
<text text-anchor="middle" x="731" y="-349.4" font-family="Times Roman,serif" font-size="14.00">0..*</text>
</g>
<!-- RegistryHandle -->
<g id="node6" class="node"><title>RegistryHandle</title>
<a xlink:href="#" xlink:title="The RegistryHandle class represents a handle into an Internet registry or community&#45;specific database. The handle is specified in the element content and the type attribute specifies the database. ">
<polygon fill="#7a993d" stroke="#7a993d" points="934,-341 934,-362 1170,-362 1170,-341 934,-341"/>
<polygon fill="none" stroke="black" points="934,-341 934,-362 1170,-362 1170,-341 934,-341"/>
<text text-anchor="start" x="999.5" y="-348.233" font-family="Times Roman,serif" font-size="14.00">RegistryHandle</text>
</a>
<a xlink:href="#" xlink:title="The database to which the handle belongs. &#160;The default value is &#39;local&#39;. &#160;The possible values are:">
<polygon fill="#ccff66" stroke="#ccff66" points="934,-321 934,-341 1170,-341 1170,-321 934,-321"/>
<polygon fill="none" stroke="black" points="934,-321 934,-341 1170,-341 1170,-321 934,-321"/>
<text text-anchor="start" x="956.5" y="-327.733" font-family="Times Roman,serif" font-size="14.00">[ENUM] registry (Required) </text>
</a>
<a xlink:href="#" xlink:title="A means by which to extend the registry attribute. &#160;See Section 5.1.">
<polygon fill="#ccff66" stroke="#ccff66" points="934,-301 934,-321 1170,-321 1170,-301 934,-301"/>
<polygon fill="none" stroke="black" points="934,-301 934,-321 1170,-321 1170,-301 934,-301"/>
<text text-anchor="start" x="937.5" y="-307.733" font-family="Times Roman,serif" font-size="14.00">[STRING] ext&#45;registry (Optional) </text>
</a>
</g>
<!-- Contact&#45;&gt;RegistryHandle -->
<g id="edge4" class="edge"><title>Contact&#45;&gt;RegistryHandle</title>
<path fill="none" stroke="black" d="M861.561,-264.772C883.033,-273.031 905.096,-281.364 926,-289 931.088,-290.859 936.301,-292.738 941.573,-294.618"/>
<polygon fill="black" stroke="black" points="940.517,-297.957 951.112,-297.998 942.855,-291.359 940.517,-297.957"/>
<text text-anchor="middle" x="894" y="-285.4" font-family="Times Roman,serif" font-size="14.00">0..*</text>
</g>
<!-- PostalAddress -->
<g id="node8" class="node"><title>PostalAddress</title>
<a xlink:href="#" xlink:title="The PostalAddress class specifies a postal address formatted according to the POSTAL data type (Section 2.11). ">
<polygon fill="#7a993d" stroke="#7a993d" points="951,-255 951,-276 1153,-276 1153,-255 951,-255"/>
<polygon fill="none" stroke="black" points="951,-255 951,-276 1153,-276 1153,-255 951,-255"/>
<text text-anchor="start" x="1004" y="-262.233" font-family="Times Roman,serif" font-size="14.00">PostalAddress</text>
</a>
<a xlink:href="#" xlink:title="A free&#45;form description of the element content.">
<polygon fill="#ccff66" stroke="#ccff66" points="951,-235 951,-255 1153,-255 1153,-235 951,-235"/>
<polygon fill="none" stroke="black" points="951,-235 951,-255 1153,-255 1153,-235 951,-235"/>
<text text-anchor="start" x="954.5" y="-241.733" font-family="Times Roman,serif" font-size="14.00">[ENUM] meaning (Optional) </text>
</a>
<a xlink:href="#" xlink:title="A valid language code per RFC 4646 [7] constrained by the definition of &quot;xs:language&quot;. &#160;The interpretation of this code is described in Section 6.">
<polygon fill="#ccff66" stroke="#ccff66" points="951,-215 951,-235 1153,-235 1153,-215 951,-215"/>
<polygon fill="none" stroke="black" points="951,-215 951,-235 1153,-235 1153,-215 951,-215"/>
<text text-anchor="start" x="968.5" y="-221.733" font-family="Times Roman,serif" font-size="14.00">[ENUM] lang (Required) </text>
</a>
</g>
<!-- Contact&#45;&gt;PostalAddress -->
<g id="edge6" class="edge"><title>Contact&#45;&gt;PostalAddress</title>
<path fill="none" stroke="black" d="M861.563,-226.422C885.075,-228.839 909.475,-231.348 932.648,-233.73"/>
<polygon fill="black" stroke="black" points="932.543,-237.238 942.848,-234.779 933.259,-230.274 932.543,-237.238"/>
<text text-anchor="middle" x="894" y="-234.4" font-family="Times Roman,serif" font-size="14.00">0..1</text>
</g>
<!-- Email -->
<g id="node10" class="node"><title>Email</title>
<a xlink:href="#" xlink:title="The Email class specifies an email address formatted according to EMAIL data type (Section 2.14). ">
<polygon fill="#7a993d" stroke="#7a993d" points="951,-169 951,-190 1153,-190 1153,-169 951,-169"/>
<polygon fill="none" stroke="black" points="951,-169 951,-190 1153,-190 1153,-169 951,-169"/>
<text text-anchor="start" x="1033" y="-176.233" font-family="Times Roman,serif" font-size="14.00">Email</text>
</a>
<a xlink:href="#" xlink:title="A free&#45;form description of the element content (e.g., hours of coverage for a given number).">
<polygon fill="#ccff66" stroke="#ccff66" points="951,-149 951,-169 1153,-169 1153,-149 951,-149"/>
<polygon fill="none" stroke="black" points="951,-149 951,-169 1153,-169 1153,-149 951,-149"/>
<text text-anchor="start" x="954.5" y="-155.733" font-family="Times Roman,serif" font-size="14.00">[ENUM] meaning (Optional) </text>
</a>
</g>
<!-- Contact&#45;&gt;Email -->
<g id="edge8" class="edge"><title>Contact&#45;&gt;Email</title>
<path fill="none" stroke="black" d="M861.563,-195.51C885.075,-192.361 909.475,-189.092 932.648,-185.988"/>
<polygon fill="black" stroke="black" points="933.401,-189.418 942.848,-184.622 932.472,-182.48 933.401,-189.418"/>
<text text-anchor="middle" x="894" y="-196.4" font-family="Times Roman,serif" font-size="14.00">0..*</text>
</g>
<!-- Contact&#45;&gt;AdditionalData -->
<g id="edge12" class="edge"><title>Contact&#45;&gt;AdditionalData</title>
<path fill="none" stroke="black" d="M861.563,-152.396C882.277,-142.781 903.682,-132.846 924.329,-123.262"/>
<polygon fill="black" stroke="black" points="925.844,-126.417 933.44,-119.032 922.896,-120.068 925.844,-126.417"/>
<text text-anchor="middle" x="894" y="-146.4" font-family="Times Roman,serif" font-size="14.00">0..*</text>
</g>
</g>
</svg>
