<?xml version="1.0" encoding="UTF-8" standalone="no"?>
<!DOCTYPE svg PUBLIC "-//W3C//DTD SVG 1.1//EN"
 "http://www.w3.org/Graphics/SVG/1.1/DTD/svg11.dtd">
<!-- Generated by graphviz version 2.40.1 (0)
 -->
<!-- Title: HistoryItem Pages: 1 -->
<svg width="783pt" height="491pt"
 viewBox="0.00 0.00 783.00 491.00" xmlns="http://www.w3.org/2000/svg" xmlns:xlink="http://www.w3.org/1999/xlink">
<g id="graph0" class="graph" transform="scale(1 1) rotate(0) translate(4 487)">
<title>HistoryItem</title>
<polygon fill="#ffffff" stroke="transparent" points="-4,4 -4,-487 779,-487 779,4 -4,4"/>
<!-- HistoryItem -->
<g id="node1" class="node">
<title>HistoryItem</title>
<g id="a_node1_0"><a xlink:href="/idmef_parser/IODEF/HistoryItem.html" xlink:title="The HistoryItem class is an entry in the History (Section 3.11) log that documents a particular action or event that occurred in the course of handling the incident. The details of the entry are a free&#45;form description, but each can be categorized with the type attribute. ">
<polygon fill="#008d40" stroke="transparent" points="8,-262 8,-283 204,-283 204,-262 8,-262"/>
<polygon fill="none" stroke="#000000" points="8,-262 8,-283 204,-283 204,-262 8,-262"/>
<text text-anchor="start" x="71" y="-268.8" font-family="Nimbus Sans L" font-size="14.00" fill="#000000">HistoryItem</text>
</a>
</g>
<g id="a_node1_1"><a xlink:href="/idmef_parser/IODEF/HistoryItem.html" xlink:title="Timestamp of this entry in the history log (e.g., when the action described in the Description was taken).">
<polygon fill="#00b050" stroke="transparent" points="8,-241 8,-262 204,-262 204,-241 8,-241"/>
<polygon fill="none" stroke="#000000" points="8,-241 8,-262 204,-262 204,-241 8,-241"/>
<text text-anchor="start" x="53" y="-247.8" font-family="Nimbus Sans L" font-size="14.00" fill="#000000">[] DateTime (1..1)</text>
</a>
</g>
<g id="a_node1_2"><a xlink:href="/idmef_parser/IODEF/HistoryItem.html" xlink:title="A free&#45;form textual description of the action or event.">
<polygon fill="#00b050" stroke="transparent" points="8,-220 8,-241 204,-241 204,-220 8,-220"/>
<polygon fill="none" stroke="#000000" points="8,-220 8,-241 204,-241 204,-220 8,-220"/>
<text text-anchor="start" x="11" y="-226.8" font-family="Nimbus Sans L" font-size="14.00" fill="#000000">[ML_STRING] Description (0..*)</text>
</a>
</g>
<g id="a_node1_3"><a xlink:href="/idmef_parser/IODEF/HistoryItem.html" xlink:title="This attribute has been defined in Section 3.2.">
<polygon fill="#00b050" stroke="transparent" points="8,-199 8,-220 204,-220 204,-199 8,-199"/>
<polygon fill="none" stroke="#000000" points="8,-199 8,-220 204,-220 204,-199 8,-199"/>
<text text-anchor="start" x="18.5" y="-205.8" font-family="Nimbus Sans L" font-size="14.00" fill="#000000">[ENUM] restriction (Optional)</text>
</a>
</g>
<g id="a_node1_4"><a xlink:href="/idmef_parser/IODEF/HistoryItem.html" xlink:title="Classifies a performed action or occurrence documented in this history log entry. &#160;As activity will likely have been instigated either through a previously conveyed expectation or internal investigation, this attribute is identical to the category attribute of the Expectation class. &#160;The difference is only one of tense. &#160;When an action is in this class, it has been completed. &#160;See Section 3.13.">
<polygon fill="#00b050" stroke="transparent" points="8,-178 8,-199 204,-199 204,-178 8,-178"/>
<polygon fill="none" stroke="#000000" points="8,-178 8,-199 204,-199 204,-178 8,-178"/>
<text text-anchor="start" x="28" y="-184.8" font-family="Nimbus Sans L" font-size="14.00" fill="#000000">[ENUM] action (Required)</text>
</a>
</g>
<g id="a_node1_5"><a xlink:href="/idmef_parser/IODEF/HistoryItem.html" xlink:title="A means by which to extend the action attribute. &#160;See Section 5.1.">
<polygon fill="#00b050" stroke="transparent" points="8,-157 8,-178 204,-178 204,-157 8,-157"/>
<polygon fill="none" stroke="#000000" points="8,-157 8,-178 204,-178 204,-157 8,-157"/>
<text text-anchor="start" x="14" y="-163.8" font-family="Nimbus Sans L" font-size="14.00" fill="#000000">[STRING] ext&#45;action (Optional)</text>
</a>
</g>
</g>
<!-- IncidentID -->
<g id="node2" class="node">
<title>IncidentID</title>
<g id="a_node2_6"><a xlink:href="/idmef_parser/IODEF/IncidentID.html" xlink:title="The IncidentID class represents an incident tracking number that is unique in the context of the CSIRT and identifies the activity characterized in an IODEF Document. This identifier would serve as an index into the CSIRT incident handling system. The combination of the name attribute and the string in the element content MUST be a globally unique identifier describing the activity. Documents generated by a given CSIRT MUST NOT reuse the same value unless they are referencing the same incident. ">
<polygon fill="#7aa300" stroke="transparent" points="295,-458 295,-479 478,-479 478,-458 295,-458"/>
<polygon fill="none" stroke="#000000" points="295,-458 295,-479 478,-479 478,-458 295,-458"/>
<text text-anchor="start" x="356" y="-464.8" font-family="Nimbus Sans L" font-size="14.00" fill="#000000">IncidentID</text>
</a>
</g>
<g id="a_node2_7"><a xlink:href="/idmef_parser/IODEF/IncidentID.html" xlink:title="An identifier describing the CSIRT that created the document. &#160;In order to have a globally unique CSIRT name, the fully qualified domain name associated with the CSIRT MUST be used.">
<polygon fill="#99cc00" stroke="transparent" points="295,-437 295,-458 478,-458 478,-437 295,-437"/>
<polygon fill="none" stroke="#000000" points="295,-437 295,-458 478,-458 478,-437 295,-437"/>
<text text-anchor="start" x="304" y="-443.8" font-family="Nimbus Sans L" font-size="14.00" fill="#000000">[STRING] name (Required)</text>
</a>
</g>
<g id="a_node2_8"><a xlink:href="/idmef_parser/IODEF/IncidentID.html" xlink:title="An identifier referencing a subset of the named incident.">
<polygon fill="#99cc00" stroke="transparent" points="295,-416 295,-437 478,-437 478,-416 295,-416"/>
<polygon fill="none" stroke="#000000" points="295,-416 295,-437 478,-437 478,-416 295,-416"/>
<text text-anchor="start" x="298" y="-422.8" font-family="Nimbus Sans L" font-size="14.00" fill="#000000">[STRING] instance (Optional)</text>
</a>
</g>
<g id="a_node2_9"><a xlink:href="/idmef_parser/IODEF/IncidentID.html" xlink:title="This attribute has been defined in Section 3.2.">
<polygon fill="#99cc00" stroke="transparent" points="295,-395 295,-416 478,-416 478,-395 295,-395"/>
<polygon fill="none" stroke="#000000" points="295,-395 295,-416 478,-416 478,-395 295,-395"/>
<text text-anchor="start" x="299" y="-401.8" font-family="Nimbus Sans L" font-size="14.00" fill="#000000">[ENUM] restriction (Optional)</text>
</a>
</g>
</g>
<!-- HistoryItem&#45;&gt;IncidentID -->
<g id="edge1" class="edge">
<title>HistoryItem&#45;&gt;IncidentID</title>
<path fill="none" stroke="#000000" d="M164.7067,-287.1769C194.4397,-318.5844 232.3687,-354.9328 271,-382 273.141,-383.5001 275.3293,-384.9789 277.5559,-386.4351"/>
<polygon fill="#000000" stroke="#000000" points="275.9858,-389.582 286.3155,-391.9374 279.7093,-383.6545 275.9858,-389.582"/>
<text text-anchor="middle" x="241.5" y="-370.8" font-family="Times,serif" font-size="14.00" fill="#000000">0..1</text>
</g>
<!-- Contact -->
<g id="node3" class="node">
<title>Contact</title>
<g id="a_node3_10"><a xlink:href="/idmef_parser/IODEF/Contact.html" xlink:title="The Contact class describes contact information for organizations and personnel involved in the incident. This class allows for the naming of the involved party, specifying contact information for them, and identifying their role in the incident. ">
<polygon fill="#a3cc52" stroke="transparent" points="279,-314 279,-335 493,-335 493,-314 279,-314"/>
<polygon fill="none" stroke="#000000" points="279,-314 279,-335 493,-335 493,-314 279,-314"/>
<text text-anchor="start" x="362.5" y="-320.8" font-family="Nimbus Sans L" font-size="14.00" fill="#000000">Contact</text>
</a>
</g>
<g id="a_node3_11"><a xlink:href="/idmef_parser/IODEF/Contact.html" xlink:title="The name of the contact. &#160;The contact may either be an organization or a person. &#160;The type attribute disambiguates the semantics.">
<polygon fill="#ccff66" stroke="transparent" points="279,-293 279,-314 493,-314 493,-293 279,-293"/>
<polygon fill="none" stroke="#000000" points="279,-293 279,-314 493,-314 493,-293 279,-293"/>
<text text-anchor="start" x="282" y="-299.8" font-family="Nimbus Sans L" font-size="14.00" fill="#000000">[ML_STRING] ContactName (0..1)</text>
</a>
</g>
<g id="a_node3_12"><a xlink:href="/idmef_parser/IODEF/Contact.html" xlink:title="A free&#45;form description of this contact. &#160;In the case of a person, this is often the organizational title of the individual.">
<polygon fill="#ccff66" stroke="transparent" points="279,-272 279,-293 493,-293 493,-272 279,-272"/>
<polygon fill="none" stroke="#000000" points="279,-272 279,-293 493,-293 493,-272 279,-272"/>
<text text-anchor="start" x="291" y="-278.8" font-family="Nimbus Sans L" font-size="14.00" fill="#000000">[ML_STRING] Description (0..*)</text>
</a>
</g>
<g id="a_node3_13"><a xlink:href="/idmef_parser/IODEF/Contact.html" xlink:title="The telephone number of the contact.">
<polygon fill="#ccff66" stroke="transparent" points="279,-251 279,-272 493,-272 493,-251 279,-251"/>
<polygon fill="none" stroke="#000000" points="279,-251 279,-272 493,-272 493,-251 279,-251"/>
<text text-anchor="start" x="333" y="-257.8" font-family="Nimbus Sans L" font-size="14.00" fill="#000000">[] Telephone (0..*)</text>
</a>
</g>
<g id="a_node3_14"><a xlink:href="/idmef_parser/IODEF/Contact.html" xlink:title="The facsimile telephone number of the contact.">
<polygon fill="#ccff66" stroke="transparent" points="279,-230 279,-251 493,-251 493,-230 279,-230"/>
<polygon fill="none" stroke="#000000" points="279,-230 279,-251 493,-251 493,-230 279,-230"/>
<text text-anchor="start" x="351.5" y="-236.8" font-family="Nimbus Sans L" font-size="14.00" fill="#000000">[] Fax (0..1)</text>
</a>
</g>
<g id="a_node3_15"><a xlink:href="/idmef_parser/IODEF/Contact.html" xlink:title="The timezone in which the contact resides formatted according to Section 2.9.">
<polygon fill="#ccff66" stroke="transparent" points="279,-209 279,-230 493,-230 493,-209 279,-209"/>
<polygon fill="none" stroke="#000000" points="279,-209 279,-230 493,-230 493,-209 279,-209"/>
<text text-anchor="start" x="297" y="-215.8" font-family="Nimbus Sans L" font-size="14.00" fill="#000000">[TIMEZONE] Timezone (0..1)</text>
</a>
</g>
<g id="a_node3_16"><a xlink:href="/idmef_parser/IODEF/Contact.html" xlink:title="Indicates the role the contact fulfills. &#160;This attribute is defined as an enumerated list:">
<polygon fill="#ccff66" stroke="transparent" points="279,-188 279,-209 493,-209 493,-188 279,-188"/>
<polygon fill="none" stroke="#000000" points="279,-188 279,-209 493,-209 493,-188 279,-188"/>
<text text-anchor="start" x="315" y="-194.8" font-family="Nimbus Sans L" font-size="14.00" fill="#000000">[ENUM] role (Required)</text>
</a>
</g>
<g id="a_node3_17"><a xlink:href="/idmef_parser/IODEF/Contact.html" xlink:title="A means by which to extend the role attribute. See Section 5.1.">
<polygon fill="#ccff66" stroke="transparent" points="279,-167 279,-188 493,-188 493,-167 279,-167"/>
<polygon fill="none" stroke="#000000" points="279,-167 279,-188 493,-188 493,-167 279,-167"/>
<text text-anchor="start" x="300.5" y="-173.8" font-family="Nimbus Sans L" font-size="14.00" fill="#000000">[STRING] ext&#45;role (Optional)</text>
</a>
</g>
<g id="a_node3_18"><a xlink:href="/idmef_parser/IODEF/Contact.html" xlink:title="Indicates the type of contact being described. This attribute is defined as an enumerated list:">
<polygon fill="#ccff66" stroke="transparent" points="279,-146 279,-167 493,-167 493,-146 279,-146"/>
<polygon fill="none" stroke="#000000" points="279,-146 279,-167 493,-167 493,-146 279,-146"/>
<text text-anchor="start" x="313.5" y="-152.8" font-family="Nimbus Sans L" font-size="14.00" fill="#000000">[ENUM] type (Required)</text>
</a>
</g>
<g id="a_node3_19"><a xlink:href="/idmef_parser/IODEF/Contact.html" xlink:title="A means by which to extend the type attribute. See Section 5.1.">
<polygon fill="#ccff66" stroke="transparent" points="279,-125 279,-146 493,-146 493,-125 279,-125"/>
<polygon fill="none" stroke="#000000" points="279,-125 279,-146 493,-146 493,-125 279,-125"/>
<text text-anchor="start" x="299" y="-131.8" font-family="Nimbus Sans L" font-size="14.00" fill="#000000">[STRING] ext&#45;type (Optional)</text>
</a>
</g>
<g id="a_node3_20"><a xlink:href="/idmef_parser/IODEF/Contact.html" xlink:title="This attribute is defined in Section 3.2.">
<polygon fill="#ccff66" stroke="transparent" points="279,-104 279,-125 493,-125 493,-104 279,-104"/>
<polygon fill="none" stroke="#000000" points="279,-104 279,-125 493,-125 493,-104 279,-104"/>
<text text-anchor="start" x="298.5" y="-110.8" font-family="Nimbus Sans L" font-size="14.00" fill="#000000">[ENUM] restriction (Optional)</text>
</a>
</g>
</g>
<!-- HistoryItem&#45;&gt;Contact -->
<g id="edge7" class="edge">
<title>HistoryItem&#45;&gt;Contact</title>
<path fill="none" stroke="#000000" d="M212.2552,-220C228.1417,-220 244.6446,-220 260.8776,-220"/>
<polygon fill="#000000" stroke="#000000" points="260.9423,-223.5001 270.9422,-220 260.9422,-216.5001 260.9423,-223.5001"/>
<text text-anchor="middle" x="241.5" y="-223.8" font-family="Times,serif" font-size="14.00" fill="#000000">0..1</text>
</g>
<!-- AdditionalData -->
<g id="node7" class="node">
<title>AdditionalData</title>
<g id="a_node7_21"><a xlink:href="/idmef_parser/IODEF/AdditionalData.html" xlink:title="The AdditionalData class serves as an extension mechanism for information not otherwise represented in the data model. For relatively simple information, atomic data types (e.g., integers, strings) are provided with a mechanism to annotate their meaning. The class can also be used to extend the data model (and the associated Schema) to support proprietary extensions by encapsulating entire XML documents conforming to another Schema (e.g., IDMEF). A detailed discussion for extending the data model and the schema can be found in Section 5. ">
<polygon fill="#cca352" stroke="transparent" points="574.5,-109 574.5,-130 761.5,-130 761.5,-109 574.5,-109"/>
<polygon fill="none" stroke="#000000" points="574.5,-109 574.5,-130 761.5,-130 761.5,-109 574.5,-109"/>
<text text-anchor="start" x="624" y="-115.8" font-family="Nimbus Sans L" font-size="14.00" fill="#000000">AdditionalData</text>
</a>
</g>
<g id="a_node7_22"><a xlink:href="/idmef_parser/IODEF/AdditionalData.html" xlink:title="The data type of the element content. &#160;The permitted values for this attribute are shown below. &#160;The default value is &quot;string&quot;.">
<polygon fill="#ffcc66" stroke="transparent" points="574.5,-88 574.5,-109 761.5,-109 761.5,-88 574.5,-88"/>
<polygon fill="none" stroke="#000000" points="574.5,-88 574.5,-109 761.5,-109 761.5,-88 574.5,-88"/>
<text text-anchor="start" x="591.5" y="-94.8" font-family="Nimbus Sans L" font-size="14.00" fill="#000000">[ENUM] dtype (Required)</text>
</a>
</g>
<g id="a_node7_23"><a xlink:href="/idmef_parser/IODEF/AdditionalData.html" xlink:title="A means by which to extend the dtype attribute. &#160;See Section 5.1.">
<polygon fill="#ffcc66" stroke="transparent" points="574.5,-67 574.5,-88 761.5,-88 761.5,-67 574.5,-67"/>
<polygon fill="none" stroke="#000000" points="574.5,-67 574.5,-88 761.5,-88 761.5,-67 574.5,-67"/>
<text text-anchor="start" x="577.5" y="-73.8" font-family="Nimbus Sans L" font-size="14.00" fill="#000000">[STRING] ext&#45;dtype (Optional)</text>
</a>
</g>
<g id="a_node7_24"><a xlink:href="/idmef_parser/IODEF/AdditionalData.html" xlink:title="A free&#45;form description of the element content.">
<polygon fill="#ffcc66" stroke="transparent" points="574.5,-46 574.5,-67 761.5,-67 761.5,-46 574.5,-46"/>
<polygon fill="none" stroke="#000000" points="574.5,-46 574.5,-67 761.5,-67 761.5,-46 574.5,-46"/>
<text text-anchor="start" x="578.5" y="-52.8" font-family="Nimbus Sans L" font-size="14.00" fill="#000000">[STRING] meaning (Optional)</text>
</a>
</g>
<g id="a_node7_25"><a xlink:href="/idmef_parser/IODEF/AdditionalData.html" xlink:title="An identifier referencing the format and semantics of the element content.">
<polygon fill="#ffcc66" stroke="transparent" points="574.5,-25 574.5,-46 761.5,-46 761.5,-25 574.5,-25"/>
<polygon fill="none" stroke="#000000" points="574.5,-25 574.5,-46 761.5,-46 761.5,-25 574.5,-25"/>
<text text-anchor="start" x="580" y="-31.8" font-family="Nimbus Sans L" font-size="14.00" fill="#000000">[STRING] formatid (Optional)</text>
</a>
</g>
<g id="a_node7_26"><a xlink:href="/idmef_parser/IODEF/AdditionalData.html" xlink:title="This attribute has been defined in Section 3.2.">
<polygon fill="#ffcc66" stroke="transparent" points="574.5,-4 574.5,-25 761.5,-25 761.5,-4 574.5,-4"/>
<polygon fill="none" stroke="#000000" points="574.5,-4 574.5,-25 761.5,-25 761.5,-4 574.5,-4"/>
<text text-anchor="start" x="580.5" y="-10.8" font-family="Nimbus Sans L" font-size="14.00" fill="#000000">[ENUM] restriction (Optional)</text>
</a>
</g>
</g>
<!-- HistoryItem&#45;&gt;AdditionalData -->
<g id="edge8" class="edge">
<title>HistoryItem&#45;&gt;AdditionalData</title>
<path fill="none" stroke="#000000" d="M162.4288,-152.9733C191.4991,-123.5523 229.5279,-92.0911 271,-76 361.9536,-40.7101 473.6882,-41.7274 555.3377,-49.6722"/>
<polygon fill="#000000" stroke="#000000" points="555.3406,-53.1907 565.6451,-50.7273 556.0535,-46.227 555.3406,-53.1907"/>
<text text-anchor="middle" x="386" y="-79.8" font-family="Times,serif" font-size="14.00" fill="#000000">0..*</text>
</g>
<!-- Contact&#45;&gt;Contact -->
<g id="edge5" class="edge">
<title>Contact&#45;&gt;Contact</title>
<path fill="none" stroke="#000000" d="M364.5437,-339.7499C369.0042,-350.6463 376.1563,-357.5 386,-357.5 392.7676,-357.5 398.2629,-354.2605 402.4861,-348.6951"/>
<polygon fill="#000000" stroke="#000000" points="405.6588,-350.1911 407.4563,-339.7499 399.5399,-346.7912 405.6588,-350.1911"/>
<text text-anchor="middle" x="386" y="-361.3" font-family="Times,serif" font-size="14.00" fill="#000000">0..*</text>
</g>
<!-- RegistryHandle -->
<g id="node4" class="node">
<title>RegistryHandle</title>
<g id="a_node4_27"><a xlink:href="/idmef_parser/IODEF/RegistryHandle.html" xlink:title="The RegistryHandle class represents a handle into an Internet registry or community&#45;specific database. The handle is specified in the element content and the type attribute specifies the database. ">
<polygon fill="#a3cc52" stroke="transparent" points="568.5,-355 568.5,-376 767.5,-376 767.5,-355 568.5,-355"/>
<polygon fill="none" stroke="#000000" points="568.5,-355 568.5,-376 767.5,-376 767.5,-355 568.5,-355"/>
<text text-anchor="start" x="621.5" y="-361.8" font-family="Nimbus Sans L" font-size="14.00" fill="#000000">RegistryHandle</text>
</a>
</g>
<g id="a_node4_28"><a xlink:href="/idmef_parser/IODEF/RegistryHandle.html" xlink:title="The database to which the handle belongs. &#160;The default value is &#39;local&#39;. &#160;The possible values are:">
<polygon fill="#ccff66" stroke="transparent" points="568.5,-334 568.5,-355 767.5,-355 767.5,-334 568.5,-334"/>
<polygon fill="none" stroke="#000000" points="568.5,-334 568.5,-355 767.5,-355 767.5,-334 568.5,-334"/>
<text text-anchor="start" x="586" y="-340.8" font-family="Nimbus Sans L" font-size="14.00" fill="#000000">[ENUM] registry (Required)</text>
</a>
</g>
<g id="a_node4_29"><a xlink:href="/idmef_parser/IODEF/RegistryHandle.html" xlink:title="A means by which to extend the registry attribute. &#160;See Section 5.1.">
<polygon fill="#ccff66" stroke="transparent" points="568.5,-313 568.5,-334 767.5,-334 767.5,-313 568.5,-313"/>
<polygon fill="none" stroke="#000000" points="568.5,-313 568.5,-334 767.5,-334 767.5,-313 568.5,-313"/>
<text text-anchor="start" x="571.5" y="-319.8" font-family="Nimbus Sans L" font-size="14.00" fill="#000000">[STRING] ext&#45;registry (Optional)</text>
</a>
</g>
</g>
<!-- Contact&#45;&gt;RegistryHandle -->
<g id="edge2" class="edge">
<title>Contact&#45;&gt;RegistryHandle</title>
<path fill="none" stroke="#000000" d="M501.244,-274.5768C520.7817,-283.5624 540.9177,-292.6588 560,-301 563.3866,-302.4804 566.8394,-303.9743 570.3314,-305.4723"/>
<polygon fill="#000000" stroke="#000000" points="569.0763,-308.7419 579.6481,-309.4403 571.8193,-302.3017 569.0763,-308.7419"/>
<text text-anchor="middle" x="530.5" y="-295.8" font-family="Times,serif" font-size="14.00" fill="#000000">0..*</text>
</g>
<!-- PostalAddress -->
<g id="node5" class="node">
<title>PostalAddress</title>
<g id="a_node5_30"><a xlink:href="/idmef_parser/IODEF/PostalAddress.html" xlink:title="The PostalAddress class specifies a postal address formatted according to the POSTAL data type (Section 2.11). ">
<polygon fill="#a3cc52" stroke="transparent" points="580.5,-266 580.5,-287 755.5,-287 755.5,-266 580.5,-266"/>
<polygon fill="none" stroke="#000000" points="580.5,-266 580.5,-287 755.5,-287 755.5,-266 580.5,-266"/>
<text text-anchor="start" x="624" y="-272.8" font-family="Nimbus Sans L" font-size="14.00" fill="#000000">PostalAddress</text>
</a>
</g>
<g id="a_node5_31"><a xlink:href="/idmef_parser/IODEF/PostalAddress.html" xlink:title="A free&#45;form description of the element content.">
<polygon fill="#ccff66" stroke="transparent" points="580.5,-245 580.5,-266 755.5,-266 755.5,-245 580.5,-245"/>
<polygon fill="none" stroke="#000000" points="580.5,-245 580.5,-266 755.5,-266 755.5,-245 580.5,-245"/>
<text text-anchor="start" x="583.5" y="-251.8" font-family="Nimbus Sans L" font-size="14.00" fill="#000000">[ENUM] meaning (Optional)</text>
</a>
</g>
<g id="a_node5_32"><a xlink:href="/idmef_parser/IODEF/PostalAddress.html" xlink:title="A valid language code per RFC 4646 [7] constrained by the definition of &quot;xs:language&quot;. &#160;The interpretation of this code is described in Section 6.">
<polygon fill="#ccff66" stroke="transparent" points="580.5,-224 580.5,-245 755.5,-245 755.5,-224 580.5,-224"/>
<polygon fill="none" stroke="#000000" points="580.5,-224 580.5,-245 755.5,-245 755.5,-224 580.5,-224"/>
<text text-anchor="start" x="595.5" y="-230.8" font-family="Nimbus Sans L" font-size="14.00" fill="#000000">[ENUM] lang (Required)</text>
</a>
</g>
</g>
<!-- Contact&#45;&gt;PostalAddress -->
<g id="edge3" class="edge">
<title>Contact&#45;&gt;PostalAddress</title>
<path fill="none" stroke="#000000" d="M501.309,-234.7464C521.2209,-237.2929 541.8355,-239.9292 561.4864,-242.4423"/>
<polygon fill="#000000" stroke="#000000" points="561.3027,-245.9472 571.666,-243.7441 562.1908,-239.0038 561.3027,-245.9472"/>
<text text-anchor="middle" x="530.5" y="-242.8" font-family="Times,serif" font-size="14.00" fill="#000000">0..1</text>
</g>
<!-- Email -->
<g id="node6" class="node">
<title>Email</title>
<g id="a_node6_33"><a xlink:href="/idmef_parser/IODEF/Email.html" xlink:title="The Email class specifies an email address formatted according to EMAIL data type (Section 2.14). ">
<polygon fill="#a3cc52" stroke="transparent" points="580.5,-177 580.5,-198 755.5,-198 755.5,-177 580.5,-177"/>
<polygon fill="none" stroke="#000000" points="580.5,-177 580.5,-198 755.5,-198 755.5,-177 580.5,-177"/>
<text text-anchor="start" x="650.5" y="-183.8" font-family="Nimbus Sans L" font-size="14.00" fill="#000000">Email</text>
</a>
</g>
<g id="a_node6_34"><a xlink:href="/idmef_parser/IODEF/Email.html" xlink:title="A free&#45;form description of the element content (e.g., hours of coverage for a given number).">
<polygon fill="#ccff66" stroke="transparent" points="580.5,-156 580.5,-177 755.5,-177 755.5,-156 580.5,-156"/>
<polygon fill="none" stroke="#000000" points="580.5,-156 580.5,-177 755.5,-177 755.5,-156 580.5,-156"/>
<text text-anchor="start" x="583.5" y="-162.8" font-family="Nimbus Sans L" font-size="14.00" fill="#000000">[ENUM] meaning (Optional)</text>
</a>
</g>
</g>
<!-- Contact&#45;&gt;Email -->
<g id="edge4" class="edge">
<title>Contact&#45;&gt;Email</title>
<path fill="none" stroke="#000000" d="M501.309,-202.3862C521.3123,-199.3306 542.0246,-196.1668 561.7568,-193.1526"/>
<polygon fill="#000000" stroke="#000000" points="562.3092,-196.6089 571.666,-191.6389 561.2521,-189.6892 562.3092,-196.6089"/>
<text text-anchor="middle" x="530.5" y="-201.8" font-family="Times,serif" font-size="14.00" fill="#000000">0..*</text>
</g>
<!-- Contact&#45;&gt;AdditionalData -->
<g id="edge6" class="edge">
<title>Contact&#45;&gt;AdditionalData</title>
<path fill="none" stroke="#000000" d="M501.309,-157.3276C519.7073,-147.3278 538.7055,-137.002 556.9891,-127.0645"/>
<polygon fill="#000000" stroke="#000000" points="558.7869,-130.071 565.9016,-122.2205 555.444,-123.9208 558.7869,-130.071"/>
<text text-anchor="middle" x="530.5" y="-146.8" font-family="Times,serif" font-size="14.00" fill="#000000">0..*</text>
</g>
</g>
</svg>
