<?xml version="1.0" encoding="UTF-8" standalone="no"?>
<!DOCTYPE svg PUBLIC "-//W3C//DTD SVG 1.1//EN"
 "http://www.w3.org/Graphics/SVG/1.1/DTD/svg11.dtd">
<!-- Generated by graphviz version 2.38.0 (20140413.2041)
 -->
<!-- Title: HistoryItem Pages: 1 -->
<svg width="770pt" height="491pt"
 viewBox="0.00 0.00 770.00 491.00" xmlns="http://www.w3.org/2000/svg" xmlns:xlink="http://www.w3.org/1999/xlink">
<g id="graph0" class="graph" transform="scale(1 1) rotate(0) translate(4 487)">
<title>HistoryItem</title>
<polygon fill="white" stroke="none" points="-4,4 -4,-487 766,-487 766,4 -4,4"/>
<!-- HistoryItem -->
<g id="node1" class="node"><title>HistoryItem</title>
<g id="a_node1_0"><a xlink:href="/idmef_parser/IODEF/HistoryItem.html" xlink:title="The HistoryItem class is an entry in the History (Section 3.11) log that documents a particular action or event that occurred in the course of handling the incident. The details of the entry are a free&#45;form description, but each can be categorized with the type attribute. ">
<polygon fill="#006a30" stroke="none" points="8,-262 8,-283 204,-283 204,-262 8,-262"/>
<polygon fill="none" stroke="black" points="8,-262 8,-283 204,-283 204,-262 8,-262"/>
<text text-anchor="start" x="72.5" y="-268.8" font-family="Times,serif" font-size="14.00">HistoryItem</text>
</a>
</g>
<g id="a_node1_1"><a xlink:href="/idmef_parser/IODEF/HistoryItem.html" xlink:title="Timestamp of this entry in the history log (e.g., when the action described in the Description was taken).">
<polygon fill="#00b050" stroke="none" points="8,-241 8,-262 204,-262 204,-241 8,-241"/>
<polygon fill="none" stroke="black" points="8,-241 8,-262 204,-262 204,-241 8,-241"/>
<text text-anchor="start" x="53" y="-247.8" font-family="Times,serif" font-size="14.00">[] DateTime (1..1) </text>
</a>
</g>
<g id="a_node1_2"><a xlink:href="/idmef_parser/IODEF/HistoryItem.html" xlink:title="A free&#45;form textual description of the action or event.">
<polygon fill="#00b050" stroke="none" points="8,-220 8,-241 204,-241 204,-220 8,-220"/>
<polygon fill="none" stroke="black" points="8,-220 8,-241 204,-241 204,-220 8,-220"/>
<text text-anchor="start" x="11" y="-226.8" font-family="Times,serif" font-size="14.00">[ML_STRING] Description (0..*) </text>
</a>
</g>
<g id="a_node1_3"><a xlink:href="/idmef_parser/IODEF/HistoryItem.html" xlink:title="This attribute has been defined in Section 3.2.">
<polygon fill="#00b050" stroke="none" points="8,-199 8,-220 204,-220 204,-199 8,-199"/>
<polygon fill="none" stroke="black" points="8,-199 8,-220 204,-220 204,-199 8,-199"/>
<text text-anchor="start" x="20" y="-205.8" font-family="Times,serif" font-size="14.00">[ENUM] restriction (Optional) </text>
</a>
</g>
<g id="a_node1_4"><a xlink:href="/idmef_parser/IODEF/HistoryItem.html" xlink:title="Classifies a performed action or occurrence documented in this history log entry. &#160;As activity will likely have been instigated either through a previously conveyed expectation or internal investigation, this attribute is identical to the category attribute of the Expectation class. &#160;The difference is only one of tense. &#160;When an action is in this class, it has been completed. &#160;See Section 3.13.">
<polygon fill="#00b050" stroke="none" points="8,-178 8,-199 204,-199 204,-178 8,-178"/>
<polygon fill="none" stroke="black" points="8,-178 8,-199 204,-199 204,-178 8,-178"/>
<text text-anchor="start" x="29.5" y="-184.8" font-family="Times,serif" font-size="14.00">[ENUM] action (Required) </text>
</a>
</g>
<g id="a_node1_5"><a xlink:href="/idmef_parser/IODEF/HistoryItem.html" xlink:title="A means by which to extend the action attribute. &#160;See Section 5.1.">
<polygon fill="#00b050" stroke="none" points="8,-157 8,-178 204,-178 204,-157 8,-157"/>
<polygon fill="none" stroke="black" points="8,-157 8,-178 204,-178 204,-157 8,-157"/>
<text text-anchor="start" x="16" y="-163.8" font-family="Times,serif" font-size="14.00">[STRING] ext&#45;action (Optional) </text>
</a>
</g>
</g>
<!-- IncidentID -->
<g id="node2" class="node"><title>IncidentID</title>
<g id="a_node2_6"><a xlink:href="/idmef_parser/IODEF/IncidentID.html" xlink:title="The IncidentID class represents an incident tracking number that is unique in the context of the CSIRT and identifies the activity characterized in an IODEF Document. This identifier would serve as an index into the CSIRT incident handling system. The combination of the name attribute and the string in the element content MUST be a globally unique identifier describing the activity. Documents generated by a given CSIRT MUST NOT reuse the same value unless they are referencing the same incident. ">
<polygon fill="#5c7a00" stroke="none" points="293,-458 293,-479 471,-479 471,-458 293,-458"/>
<polygon fill="none" stroke="black" points="293,-458 293,-479 471,-479 471,-458 293,-458"/>
<text text-anchor="start" x="352.5" y="-464.8" font-family="Times,serif" font-size="14.00">IncidentID</text>
</a>
</g>
<g id="a_node2_7"><a xlink:href="/idmef_parser/IODEF/IncidentID.html" xlink:title="An identifier describing the CSIRT that created the document. &#160;In order to have a globally unique CSIRT name, the fully qualified domain name associated with the CSIRT MUST be used.">
<polygon fill="#99cc00" stroke="none" points="293,-437 293,-458 471,-458 471,-437 293,-437"/>
<polygon fill="none" stroke="black" points="293,-437 293,-458 471,-458 471,-437 293,-437"/>
<text text-anchor="start" x="303" y="-443.8" font-family="Times,serif" font-size="14.00">[STRING] name (Required) </text>
</a>
</g>
<g id="a_node2_8"><a xlink:href="/idmef_parser/IODEF/IncidentID.html" xlink:title="An identifier referencing a subset of the named incident.">
<polygon fill="#99cc00" stroke="none" points="293,-416 293,-437 471,-437 471,-416 293,-416"/>
<polygon fill="none" stroke="black" points="293,-416 293,-437 471,-437 471,-416 293,-416"/>
<text text-anchor="start" x="297" y="-422.8" font-family="Times,serif" font-size="14.00">[STRING] instance (Optional) </text>
</a>
</g>
<g id="a_node2_9"><a xlink:href="/idmef_parser/IODEF/IncidentID.html" xlink:title="This attribute has been defined in Section 3.2.">
<polygon fill="#99cc00" stroke="none" points="293,-395 293,-416 471,-416 471,-395 293,-395"/>
<polygon fill="none" stroke="black" points="293,-395 293,-416 471,-416 471,-395 293,-395"/>
<text text-anchor="start" x="296" y="-401.8" font-family="Times,serif" font-size="14.00">[ENUM] restriction (Optional) </text>
</a>
</g>
</g>
<!-- HistoryItem&#45;&gt;IncidentID -->
<g id="edge1" class="edge"><title>HistoryItem&#45;&gt;IncidentID</title>
<path fill="none" stroke="black" d="M165.406,-287.387C194.731,-318.659 232.04,-354.832 270,-382 272.066,-383.479 274.177,-384.938 276.326,-386.376"/>
<polygon fill="black" stroke="black" points="274.477,-389.348 284.779,-391.819 278.266,-383.463 274.477,-389.348"/>
<text text-anchor="middle" x="241" y="-369.8" font-family="Times,serif" font-size="14.00">0..1</text>
</g>
<!-- Contact -->
<g id="node3" class="node"><title>Contact</title>
<g id="a_node3_10"><a xlink:href="/idmef_parser/IODEF/Contact.html" xlink:title="The Contact class describes contact information for organizations and personnel involved in the incident. This class allows for the naming of the involved party, specifying contact information for them, and identifying their role in the incident. ">
<polygon fill="#7a993d" stroke="none" points="278,-314 278,-335 486,-335 486,-314 278,-314"/>
<polygon fill="none" stroke="black" points="278,-314 278,-335 486,-335 486,-314 278,-314"/>
<text text-anchor="start" x="360.5" y="-320.8" font-family="Times,serif" font-size="14.00">Contact</text>
</a>
</g>
<g id="a_node3_11"><a xlink:href="/idmef_parser/IODEF/Contact.html" xlink:title="The name of the contact. &#160;The contact may either be an organization or a person. &#160;The type attribute disambiguates the semantics.">
<polygon fill="#ccff66" stroke="none" points="278,-293 278,-314 486,-314 486,-293 278,-293"/>
<polygon fill="none" stroke="black" points="278,-293 278,-314 486,-314 486,-293 278,-293"/>
<text text-anchor="start" x="281" y="-299.8" font-family="Times,serif" font-size="14.00">[ML_STRING] ContactName (0..1) </text>
</a>
</g>
<g id="a_node3_12"><a xlink:href="/idmef_parser/IODEF/Contact.html" xlink:title="A free&#45;form description of this contact. &#160;In the case of a person, this is often the organizational title of the individual.">
<polygon fill="#ccff66" stroke="none" points="278,-272 278,-293 486,-293 486,-272 278,-272"/>
<polygon fill="none" stroke="black" points="278,-272 278,-293 486,-293 486,-272 278,-272"/>
<text text-anchor="start" x="287" y="-278.8" font-family="Times,serif" font-size="14.00">[ML_STRING] Description (0..*) </text>
</a>
</g>
<g id="a_node3_13"><a xlink:href="/idmef_parser/IODEF/Contact.html" xlink:title="The telephone number of the contact.">
<polygon fill="#ccff66" stroke="none" points="278,-251 278,-272 486,-272 486,-251 278,-251"/>
<polygon fill="none" stroke="black" points="278,-251 278,-272 486,-272 486,-251 278,-251"/>
<text text-anchor="start" x="328" y="-257.8" font-family="Times,serif" font-size="14.00">[] Telephone (0..*) </text>
</a>
</g>
<g id="a_node3_14"><a xlink:href="/idmef_parser/IODEF/Contact.html" xlink:title="The facsimile telephone number of the contact.">
<polygon fill="#ccff66" stroke="none" points="278,-230 278,-251 486,-251 486,-230 278,-230"/>
<polygon fill="none" stroke="black" points="278,-230 278,-251 486,-251 486,-230 278,-230"/>
<text text-anchor="start" x="346.5" y="-236.8" font-family="Times,serif" font-size="14.00">[] Fax (0..1) </text>
</a>
</g>
<g id="a_node3_15"><a xlink:href="/idmef_parser/IODEF/Contact.html" xlink:title="The timezone in which the contact resides formatted according to Section 2.9.">
<polygon fill="#ccff66" stroke="none" points="278,-209 278,-230 486,-230 486,-209 278,-209"/>
<polygon fill="none" stroke="black" points="278,-209 278,-230 486,-230 486,-209 278,-209"/>
<text text-anchor="start" x="294.5" y="-215.8" font-family="Times,serif" font-size="14.00">[TIMEZONE] Timezone (0..1) </text>
</a>
</g>
<g id="a_node3_16"><a xlink:href="/idmef_parser/IODEF/Contact.html" xlink:title="Indicates the role the contact fulfills. &#160;This attribute is defined as an enumerated list:">
<polygon fill="#ccff66" stroke="none" points="278,-188 278,-209 486,-209 486,-188 278,-188"/>
<polygon fill="none" stroke="black" points="278,-188 278,-209 486,-209 486,-188 278,-188"/>
<text text-anchor="start" x="311.5" y="-194.8" font-family="Times,serif" font-size="14.00">[ENUM] role (Required) </text>
</a>
</g>
<g id="a_node3_17"><a xlink:href="/idmef_parser/IODEF/Contact.html" xlink:title="A means by which to extend the role attribute. See Section 5.1.">
<polygon fill="#ccff66" stroke="none" points="278,-167 278,-188 486,-188 486,-167 278,-167"/>
<polygon fill="none" stroke="black" points="278,-167 278,-188 486,-188 486,-167 278,-167"/>
<text text-anchor="start" x="298" y="-173.8" font-family="Times,serif" font-size="14.00">[STRING] ext&#45;role (Optional) </text>
</a>
</g>
<g id="a_node3_18"><a xlink:href="/idmef_parser/IODEF/Contact.html" xlink:title="Indicates the type of contact being described. This attribute is defined as an enumerated list:">
<polygon fill="#ccff66" stroke="none" points="278,-146 278,-167 486,-167 486,-146 278,-146"/>
<polygon fill="none" stroke="black" points="278,-146 278,-167 486,-167 486,-146 278,-146"/>
<text text-anchor="start" x="310.5" y="-152.8" font-family="Times,serif" font-size="14.00">[ENUM] type (Required) </text>
</a>
</g>
<g id="a_node3_19"><a xlink:href="/idmef_parser/IODEF/Contact.html" xlink:title="A means by which to extend the type attribute. See Section 5.1.">
<polygon fill="#ccff66" stroke="none" points="278,-125 278,-146 486,-146 486,-125 278,-125"/>
<polygon fill="none" stroke="black" points="278,-125 278,-146 486,-146 486,-125 278,-125"/>
<text text-anchor="start" x="297" y="-131.8" font-family="Times,serif" font-size="14.00">[STRING] ext&#45;type (Optional) </text>
</a>
</g>
<g id="a_node3_20"><a xlink:href="/idmef_parser/IODEF/Contact.html" xlink:title="This attribute is defined in Section 3.2.">
<polygon fill="#ccff66" stroke="none" points="278,-104 278,-125 486,-125 486,-104 278,-104"/>
<polygon fill="none" stroke="black" points="278,-104 278,-125 486,-125 486,-104 278,-104"/>
<text text-anchor="start" x="296" y="-110.8" font-family="Times,serif" font-size="14.00">[ENUM] restriction (Optional) </text>
</a>
</g>
</g>
<!-- HistoryItem&#45;&gt;Contact -->
<g id="edge7" class="edge"><title>HistoryItem&#45;&gt;Contact</title>
<path fill="none" stroke="black" d="M212.152,-220C227.627,-220 243.676,-220 259.448,-220"/>
<polygon fill="black" stroke="black" points="259.764,-223.5 269.764,-220 259.764,-216.5 259.764,-223.5"/>
<text text-anchor="middle" x="241" y="-223.8" font-family="Times,serif" font-size="14.00">0..1</text>
</g>
<!-- AdditionalData -->
<g id="node7" class="node"><title>AdditionalData</title>
<g id="a_node7_21"><a xlink:href="/idmef_parser/IODEF/AdditionalData.html" xlink:title="The AdditionalData class serves as an extension mechanism for information not otherwise represented in the data model. For relatively simple information, atomic data types (e.g., integers, strings) are provided with a mechanism to annotate their meaning. The class can also be used to extend the data model (and the associated Schema) to support proprietary extensions by encapsulating entire XML documents conforming to another Schema (e.g., IDMEF). A detailed discussion for extending the data model and the schema can be found in Section 5. ">
<polygon fill="#997a3d" stroke="none" points="566,-109 566,-130 749,-130 749,-109 566,-109"/>
<polygon fill="none" stroke="black" points="566,-109 566,-130 749,-130 749,-109 566,-109"/>
<text text-anchor="start" x="615.5" y="-115.8" font-family="Times,serif" font-size="14.00">AdditionalData</text>
</a>
</g>
<g id="a_node7_22"><a xlink:href="/idmef_parser/IODEF/AdditionalData.html" xlink:title="The data type of the element content. &#160;The permitted values for this attribute are shown below. &#160;The default value is &quot;string&quot;.">
<polygon fill="#ffcc66" stroke="none" points="566,-88 566,-109 749,-109 749,-88 566,-88"/>
<polygon fill="none" stroke="black" points="566,-88 566,-109 749,-109 749,-88 566,-88"/>
<text text-anchor="start" x="582.5" y="-94.8" font-family="Times,serif" font-size="14.00">[ENUM] dtype (Required) </text>
</a>
</g>
<g id="a_node7_23"><a xlink:href="/idmef_parser/IODEF/AdditionalData.html" xlink:title="A means by which to extend the dtype attribute. &#160;See Section 5.1.">
<polygon fill="#ffcc66" stroke="none" points="566,-67 566,-88 749,-88 749,-67 566,-67"/>
<polygon fill="none" stroke="black" points="566,-67 566,-88 749,-88 749,-67 566,-67"/>
<text text-anchor="start" x="569" y="-73.8" font-family="Times,serif" font-size="14.00">[STRING] ext&#45;dtype (Optional) </text>
</a>
</g>
<g id="a_node7_24"><a xlink:href="/idmef_parser/IODEF/AdditionalData.html" xlink:title="A free&#45;form description of the element content.">
<polygon fill="#ffcc66" stroke="none" points="566,-46 566,-67 749,-67 749,-46 566,-46"/>
<polygon fill="none" stroke="black" points="566,-46 566,-67 749,-67 749,-46 566,-46"/>
<text text-anchor="start" x="571" y="-52.8" font-family="Times,serif" font-size="14.00">[STRING] meaning (Optional) </text>
</a>
</g>
<g id="a_node7_25"><a xlink:href="/idmef_parser/IODEF/AdditionalData.html" xlink:title="An identifier referencing the format and semantics of the element content.">
<polygon fill="#ffcc66" stroke="none" points="566,-25 566,-46 749,-46 749,-25 566,-25"/>
<polygon fill="none" stroke="black" points="566,-25 566,-46 749,-46 749,-25 566,-25"/>
<text text-anchor="start" x="571" y="-31.8" font-family="Times,serif" font-size="14.00">[STRING] formatid (Optional) </text>
</a>
</g>
<g id="a_node7_26"><a xlink:href="/idmef_parser/IODEF/AdditionalData.html" xlink:title="This attribute has been defined in Section 3.2.">
<polygon fill="#ffcc66" stroke="none" points="566,-4 566,-25 749,-25 749,-4 566,-4"/>
<polygon fill="none" stroke="black" points="566,-4 566,-25 749,-25 749,-4 566,-4"/>
<text text-anchor="start" x="571.5" y="-10.8" font-family="Times,serif" font-size="14.00">[ENUM] restriction (Optional) </text>
</a>
</g>
</g>
<!-- HistoryItem&#45;&gt;AdditionalData -->
<g id="edge8" class="edge"><title>HistoryItem&#45;&gt;AdditionalData</title>
<path fill="none" stroke="black" d="M163.442,-152.753C192.055,-123.767 229.335,-92.9139 270,-77 358.602,-42.3269 467.606,-43.0265 547.156,-50.5342"/>
<polygon fill="black" stroke="black" points="546.9,-54.0259 557.197,-51.5326 547.593,-47.0603 546.9,-54.0259"/>
<text text-anchor="middle" x="382" y="-80.8" font-family="Times,serif" font-size="14.00">0..*</text>
</g>
<!-- Contact&#45;&gt;Contact -->
<g id="edge5" class="edge"><title>Contact&#45;&gt;Contact</title>
<path fill="none" stroke="black" d="M361.14,-339.75C365.476,-350.646 372.43,-357.5 382,-357.5 388.58,-357.5 393.922,-354.261 398.028,-348.695"/>
<polygon fill="black" stroke="black" points="401.187,-350.212 402.86,-339.75 395.028,-346.885 401.187,-350.212"/>
<text text-anchor="middle" x="382" y="-361.3" font-family="Times,serif" font-size="14.00">0..*</text>
</g>
<!-- RegistryHandle -->
<g id="node4" class="node"><title>RegistryHandle</title>
<g id="a_node4_27"><a xlink:href="/idmef_parser/IODEF/RegistryHandle.html" xlink:title="The RegistryHandle class represents a handle into an Internet registry or community&#45;specific database. The handle is specified in the element content and the type attribute specifies the database. ">
<polygon fill="#7a993d" stroke="none" points="560,-355 560,-376 754,-376 754,-355 560,-355"/>
<polygon fill="none" stroke="black" points="560,-355 560,-376 754,-376 754,-355 560,-355"/>
<text text-anchor="start" x="614.5" y="-361.8" font-family="Times,serif" font-size="14.00">RegistryHandle</text>
</a>
</g>
<g id="a_node4_28"><a xlink:href="/idmef_parser/IODEF/RegistryHandle.html" xlink:title="The database to which the handle belongs. &#160;The default value is &#39;local&#39;. &#160;The possible values are:">
<polygon fill="#ccff66" stroke="none" points="560,-334 560,-355 754,-355 754,-334 560,-334"/>
<polygon fill="none" stroke="black" points="560,-334 560,-355 754,-355 754,-334 560,-334"/>
<text text-anchor="start" x="576.5" y="-340.8" font-family="Times,serif" font-size="14.00">[ENUM] registry (Required) </text>
</a>
</g>
<g id="a_node4_29"><a xlink:href="/idmef_parser/IODEF/RegistryHandle.html" xlink:title="A means by which to extend the registry attribute. &#160;See Section 5.1.">
<polygon fill="#ccff66" stroke="none" points="560,-313 560,-334 754,-334 754,-313 560,-313"/>
<polygon fill="none" stroke="black" points="560,-313 560,-334 754,-334 754,-313 560,-313"/>
<text text-anchor="start" x="563" y="-319.8" font-family="Times,serif" font-size="14.00">[STRING] ext&#45;registry (Optional) </text>
</a>
</g>
</g>
<!-- Contact&#45;&gt;RegistryHandle -->
<g id="edge2" class="edge"><title>Contact&#45;&gt;RegistryHandle</title>
<path fill="none" stroke="black" d="M494.015,-274.116C513.277,-283.245 533.166,-292.508 552,-301 555.179,-302.434 558.419,-303.88 561.695,-305.331"/>
<polygon fill="black" stroke="black" points="560.442,-308.604 571.005,-309.426 563.26,-302.196 560.442,-308.604"/>
<text text-anchor="middle" x="523" y="-295.8" font-family="Times,serif" font-size="14.00">0..*</text>
</g>
<!-- PostalAddress -->
<g id="node5" class="node"><title>PostalAddress</title>
<g id="a_node5_30"><a xlink:href="/idmef_parser/IODEF/PostalAddress.html" xlink:title="The PostalAddress class specifies a postal address formatted according to the POSTAL data type (Section 2.11). ">
<polygon fill="#7a993d" stroke="none" points="572,-266 572,-287 743,-287 743,-266 572,-266"/>
<polygon fill="none" stroke="black" points="572,-266 572,-287 743,-287 743,-266 572,-266"/>
<text text-anchor="start" x="618.5" y="-272.8" font-family="Times,serif" font-size="14.00">PostalAddress</text>
</a>
</g>
<g id="a_node5_31"><a xlink:href="/idmef_parser/IODEF/PostalAddress.html" xlink:title="A free&#45;form description of the element content.">
<polygon fill="#ccff66" stroke="none" points="572,-245 572,-266 743,-266 743,-245 572,-245"/>
<polygon fill="none" stroke="black" points="572,-245 572,-266 743,-266 743,-245 572,-245"/>
<text text-anchor="start" x="575" y="-251.8" font-family="Times,serif" font-size="14.00">[ENUM] meaning (Optional) </text>
</a>
</g>
<g id="a_node5_32"><a xlink:href="/idmef_parser/IODEF/PostalAddress.html" xlink:title="A valid language code per RFC 4646 [7] constrained by the definition of &quot;xs:language&quot;. &#160;The interpretation of this code is described in Section 6.">
<polygon fill="#ccff66" stroke="none" points="572,-224 572,-245 743,-245 743,-224 572,-224"/>
<polygon fill="none" stroke="black" points="572,-224 572,-245 743,-245 743,-224 572,-224"/>
<text text-anchor="start" x="586" y="-230.8" font-family="Times,serif" font-size="14.00">[ENUM] lang (Required) </text>
</a>
</g>
</g>
<!-- Contact&#45;&gt;PostalAddress -->
<g id="edge3" class="edge"><title>Contact&#45;&gt;PostalAddress</title>
<path fill="none" stroke="black" d="M494.04,-234.643C513.65,-237.229 533.987,-239.91 553.354,-242.464"/>
<polygon fill="black" stroke="black" points="553.012,-245.949 563.384,-243.787 553.928,-239.01 553.012,-245.949"/>
<text text-anchor="middle" x="523" y="-242.8" font-family="Times,serif" font-size="14.00">0..1</text>
</g>
<!-- Email -->
<g id="node6" class="node"><title>Email</title>
<g id="a_node6_33"><a xlink:href="/idmef_parser/IODEF/Email.html" xlink:title="The Email class specifies an email address formatted according to EMAIL data type (Section 2.14). ">
<polygon fill="#7a993d" stroke="none" points="572,-177 572,-198 743,-198 743,-177 572,-177"/>
<polygon fill="none" stroke="black" points="572,-177 572,-198 743,-198 743,-177 572,-177"/>
<text text-anchor="start" x="640.5" y="-183.8" font-family="Times,serif" font-size="14.00">Email</text>
</a>
</g>
<g id="a_node6_34"><a xlink:href="/idmef_parser/IODEF/Email.html" xlink:title="A free&#45;form description of the element content (e.g., hours of coverage for a given number).">
<polygon fill="#ccff66" stroke="none" points="572,-156 572,-177 743,-177 743,-156 572,-156"/>
<polygon fill="none" stroke="black" points="572,-156 572,-177 743,-177 743,-156 572,-156"/>
<text text-anchor="start" x="575" y="-162.8" font-family="Times,serif" font-size="14.00">[ENUM] meaning (Optional) </text>
</a>
</g>
</g>
<!-- Contact&#45;&gt;Email -->
<g id="edge4" class="edge"><title>Contact&#45;&gt;Email</title>
<path fill="none" stroke="black" d="M494.04,-202.51C513.65,-199.421 533.987,-196.218 553.354,-193.168"/>
<polygon fill="black" stroke="black" points="554.051,-196.601 563.384,-191.588 552.961,-189.686 554.051,-196.601"/>
<text text-anchor="middle" x="523" y="-202.8" font-family="Times,serif" font-size="14.00">0..*</text>
</g>
<!-- Contact&#45;&gt;AdditionalData -->
<g id="edge6" class="edge"><title>Contact&#45;&gt;AdditionalData</title>
<path fill="none" stroke="black" d="M494.04,-157.769C512.054,-147.673 530.681,-137.233 548.607,-127.187"/>
<polygon fill="black" stroke="black" points="550.332,-130.233 557.344,-122.291 546.91,-124.126 550.332,-130.233"/>
<text text-anchor="middle" x="523" y="-147.8" font-family="Times,serif" font-size="14.00">0..*</text>
</g>
</g>
</svg>
