<?xml version="1.0" encoding="UTF-8" standalone="no"?>
<!DOCTYPE svg PUBLIC "-//W3C//DTD SVG 1.1//EN"
 "http://www.w3.org/Graphics/SVG/1.1/DTD/svg11.dtd">
<!-- Generated by graphviz version 2.40.1 (0)
 -->
<!-- Title: IncidentID Pages: 1 -->
<svg width="207pt" height="100pt"
 viewBox="0.00 0.00 207.00 100.00" xmlns="http://www.w3.org/2000/svg" xmlns:xlink="http://www.w3.org/1999/xlink">
<g id="graph0" class="graph" transform="scale(1 1) rotate(0) translate(4 96)">
<title>IncidentID</title>
<polygon fill="#ffffff" stroke="transparent" points="-4,4 -4,-96 203,-96 203,4 -4,4"/>
<!-- IncidentID -->
<g id="node1" class="node">
<title>IncidentID</title>
<g id="a_node1_0"><a xlink:href="/idmef_parser/IODEF/IncidentID.html" xlink:title="The IncidentID class represents an incident tracking number that is unique in the context of the CSIRT and identifies the activity characterized in an IODEF Document. This identifier would serve as an index into the CSIRT incident handling system. The combination of the name attribute and the string in the element content MUST be a globally unique identifier describing the activity. Documents generated by a given CSIRT MUST NOT reuse the same value unless they are referencing the same incident. ">
<polygon fill="#7aa300" stroke="transparent" points="8.5,-67 8.5,-88 191.5,-88 191.5,-67 8.5,-67"/>
<polygon fill="none" stroke="#000000" points="8.5,-67 8.5,-88 191.5,-88 191.5,-67 8.5,-67"/>
<text text-anchor="start" x="69.5" y="-73.8" font-family="Nimbus Sans L" font-size="14.00" fill="#000000">IncidentID</text>
</a>
</g>
<g id="a_node1_1"><a xlink:href="/idmef_parser/IODEF/IncidentID.html" xlink:title="An identifier describing the CSIRT that created the document. &#160;In order to have a globally unique CSIRT name, the fully qualified domain name associated with the CSIRT MUST be used.">
<polygon fill="#99cc00" stroke="transparent" points="8.5,-46 8.5,-67 191.5,-67 191.5,-46 8.5,-46"/>
<polygon fill="none" stroke="#000000" points="8.5,-46 8.5,-67 191.5,-67 191.5,-46 8.5,-46"/>
<text text-anchor="start" x="17.5" y="-52.8" font-family="Nimbus Sans L" font-size="14.00" fill="#000000">[STRING] name (Required)</text>
</a>
</g>
<g id="a_node1_2"><a xlink:href="/idmef_parser/IODEF/IncidentID.html" xlink:title="An identifier referencing a subset of the named incident.">
<polygon fill="#99cc00" stroke="transparent" points="8.5,-25 8.5,-46 191.5,-46 191.5,-25 8.5,-25"/>
<polygon fill="none" stroke="#000000" points="8.5,-25 8.5,-46 191.5,-46 191.5,-25 8.5,-25"/>
<text text-anchor="start" x="11.5" y="-31.8" font-family="Nimbus Sans L" font-size="14.00" fill="#000000">[STRING] instance (Optional)</text>
</a>
</g>
<g id="a_node1_3"><a xlink:href="/idmef_parser/IODEF/IncidentID.html" xlink:title="This attribute has been defined in Section 3.2.">
<polygon fill="#99cc00" stroke="transparent" points="8.5,-4 8.5,-25 191.5,-25 191.5,-4 8.5,-4"/>
<polygon fill="none" stroke="#000000" points="8.5,-4 8.5,-25 191.5,-25 191.5,-4 8.5,-4"/>
<text text-anchor="start" x="12.5" y="-10.8" font-family="Nimbus Sans L" font-size="14.00" fill="#000000">[ENUM] restriction (Optional)</text>
</a>
</g>
</g>
</g>
</svg>
