<?xml version="1.0" encoding="UTF-8" standalone="no"?>
<!DOCTYPE svg PUBLIC "-//W3C//DTD SVG 1.1//EN"
 "http://www.w3.org/Graphics/SVG/1.1/DTD/svg11.dtd">
<!-- Generated by graphviz version 2.40.1 (0)
 -->
<!-- Title: Method Pages: 1 -->
<svg width="525pt" height="252pt"
 viewBox="0.00 0.00 525.00 252.00" xmlns="http://www.w3.org/2000/svg" xmlns:xlink="http://www.w3.org/1999/xlink">
<g id="graph0" class="graph" transform="scale(1 1) rotate(0) translate(4 248)">
<title>Method</title>
<polygon fill="#ffffff" stroke="transparent" points="-4,4 -4,-248 521,-248 521,4 -4,4"/>
<!-- Method -->
<g id="node1" class="node">
<title>Method</title>
<g id="a_node1_0"><a xlink:href="/idmef_parser/IODEF/Method.html" xlink:title="The Method class describes the methodology used by the intruder to perpetrate the events of the incident. This class consists of a list of references describing the attack method and a free form description of the technique. ">
<polygon fill="#7a5229" stroke="transparent" points="8,-142 8,-163 204,-163 204,-142 8,-142"/>
<polygon fill="none" stroke="#000000" points="8,-142 8,-163 204,-163 204,-142 8,-142"/>
<text text-anchor="start" x="83" y="-148.8" font-family="Nimbus Sans L" font-size="14.00" fill="#000000">Method</text>
</a>
</g>
<g id="a_node1_1"><a xlink:href="/idmef_parser/IODEF/Method.html" xlink:title="A free&#45;form text description of the methodology used by the intruder.">
<polygon fill="#996633" stroke="transparent" points="8,-121 8,-142 204,-142 204,-121 8,-121"/>
<polygon fill="none" stroke="#000000" points="8,-121 8,-142 204,-142 204,-121 8,-121"/>
<text text-anchor="start" x="11" y="-127.8" font-family="Nimbus Sans L" font-size="14.00" fill="#000000">[ML_STRING] Description (0..*)</text>
</a>
</g>
<g id="a_node1_2"><a xlink:href="/idmef_parser/IODEF/Method.html" xlink:title="This attribute is defined in Section 3.2.">
<polygon fill="#996633" stroke="transparent" points="8,-100 8,-121 204,-121 204,-100 8,-100"/>
<polygon fill="none" stroke="#000000" points="8,-100 8,-121 204,-121 204,-100 8,-100"/>
<text text-anchor="start" x="18.5" y="-106.8" font-family="Nimbus Sans L" font-size="14.00" fill="#000000">[ENUM] restriction (Optional)</text>
</a>
</g>
</g>
<!-- Reference -->
<g id="node2" class="node">
<title>Reference</title>
<g id="a_node2_3"><a xlink:href="/idmef_parser/IODEF/Reference.html" xlink:title="The Reference class is a reference to a vulnerability, IDS alert, malware sample, advisory, or attack technique. A reference consists of a name, a URL to this reference, and an optional description. ">
<polygon fill="#7a5229" stroke="transparent" points="279,-219 279,-240 509,-240 509,-219 279,-219"/>
<polygon fill="none" stroke="#000000" points="279,-219 279,-240 509,-240 509,-219 279,-219"/>
<text text-anchor="start" x="362.5" y="-225.8" font-family="Nimbus Sans L" font-size="14.00" fill="#000000">Reference</text>
</a>
</g>
<g id="a_node2_4"><a xlink:href="/idmef_parser/IODEF/Reference.html" xlink:title="Name of the reference.">
<polygon fill="#996633" stroke="transparent" points="279,-198 279,-219 509,-219 509,-198 279,-198"/>
<polygon fill="none" stroke="#000000" points="279,-198 279,-219 509,-219 509,-198 279,-198"/>
<text text-anchor="start" x="282" y="-204.8" font-family="Nimbus Sans L" font-size="14.00" fill="#000000">[ML_STRING] ReferenceName (1..1)</text>
</a>
</g>
<g id="a_node2_5"><a xlink:href="/idmef_parser/IODEF/Reference.html" xlink:title="A URL associated with the reference.">
<polygon fill="#996633" stroke="transparent" points="279,-177 279,-198 509,-198 509,-177 279,-177"/>
<polygon fill="none" stroke="#000000" points="279,-177 279,-198 509,-198 509,-177 279,-177"/>
<text text-anchor="start" x="345.5" y="-183.8" font-family="Nimbus Sans L" font-size="14.00" fill="#000000">[URL] URL (0..*)</text>
</a>
</g>
<g id="a_node2_6"><a xlink:href="/idmef_parser/IODEF/Reference.html" xlink:title="A free&#45;form text description of this reference.">
<polygon fill="#996633" stroke="transparent" points="279,-156 279,-177 509,-177 509,-156 279,-156"/>
<polygon fill="none" stroke="#000000" points="279,-156 279,-177 509,-177 509,-156 279,-156"/>
<text text-anchor="start" x="299" y="-162.8" font-family="Nimbus Sans L" font-size="14.00" fill="#000000">[ML_STRING] Description (0..*)</text>
</a>
</g>
</g>
<!-- Method&#45;&gt;Reference -->
<g id="edge1" class="edge">
<title>Method&#45;&gt;Reference</title>
<path fill="none" stroke="#000000" d="M212.0136,-156.2948C227.8193,-159.9169 244.2825,-163.6897 260.5646,-167.4211"/>
<polygon fill="#000000" stroke="#000000" points="260.1425,-170.915 270.6716,-169.7372 261.7061,-164.0918 260.1425,-170.915"/>
<text text-anchor="middle" x="241.5" y="-168.8" font-family="Times,serif" font-size="14.00" fill="#000000">0..*</text>
</g>
<!-- AdditionalData -->
<g id="node3" class="node">
<title>AdditionalData</title>
<g id="a_node3_7"><a xlink:href="/idmef_parser/IODEF/AdditionalData.html" xlink:title="The AdditionalData class serves as an extension mechanism for information not otherwise represented in the data model. For relatively simple information, atomic data types (e.g., integers, strings) are provided with a mechanism to annotate their meaning. The class can also be used to extend the data model (and the associated Schema) to support proprietary extensions by encapsulating entire XML documents conforming to another Schema (e.g., IDMEF). A detailed discussion for extending the data model and the schema can be found in Section 5. ">
<polygon fill="#cca352" stroke="transparent" points="301,-109 301,-130 488,-130 488,-109 301,-109"/>
<polygon fill="none" stroke="#000000" points="301,-109 301,-130 488,-130 488,-109 301,-109"/>
<text text-anchor="start" x="350.5" y="-115.8" font-family="Nimbus Sans L" font-size="14.00" fill="#000000">AdditionalData</text>
</a>
</g>
<g id="a_node3_8"><a xlink:href="/idmef_parser/IODEF/AdditionalData.html" xlink:title="The data type of the element content. &#160;The permitted values for this attribute are shown below. &#160;The default value is &quot;string&quot;.">
<polygon fill="#ffcc66" stroke="transparent" points="301,-88 301,-109 488,-109 488,-88 301,-88"/>
<polygon fill="none" stroke="#000000" points="301,-88 301,-109 488,-109 488,-88 301,-88"/>
<text text-anchor="start" x="318" y="-94.8" font-family="Nimbus Sans L" font-size="14.00" fill="#000000">[ENUM] dtype (Required)</text>
</a>
</g>
<g id="a_node3_9"><a xlink:href="/idmef_parser/IODEF/AdditionalData.html" xlink:title="A means by which to extend the dtype attribute. &#160;See Section 5.1.">
<polygon fill="#ffcc66" stroke="transparent" points="301,-67 301,-88 488,-88 488,-67 301,-67"/>
<polygon fill="none" stroke="#000000" points="301,-67 301,-88 488,-88 488,-67 301,-67"/>
<text text-anchor="start" x="304" y="-73.8" font-family="Nimbus Sans L" font-size="14.00" fill="#000000">[STRING] ext&#45;dtype (Optional)</text>
</a>
</g>
<g id="a_node3_10"><a xlink:href="/idmef_parser/IODEF/AdditionalData.html" xlink:title="A free&#45;form description of the element content.">
<polygon fill="#ffcc66" stroke="transparent" points="301,-46 301,-67 488,-67 488,-46 301,-46"/>
<polygon fill="none" stroke="#000000" points="301,-46 301,-67 488,-67 488,-46 301,-46"/>
<text text-anchor="start" x="305" y="-52.8" font-family="Nimbus Sans L" font-size="14.00" fill="#000000">[STRING] meaning (Optional)</text>
</a>
</g>
<g id="a_node3_11"><a xlink:href="/idmef_parser/IODEF/AdditionalData.html" xlink:title="An identifier referencing the format and semantics of the element content.">
<polygon fill="#ffcc66" stroke="transparent" points="301,-25 301,-46 488,-46 488,-25 301,-25"/>
<polygon fill="none" stroke="#000000" points="301,-25 301,-46 488,-46 488,-25 301,-25"/>
<text text-anchor="start" x="306.5" y="-31.8" font-family="Nimbus Sans L" font-size="14.00" fill="#000000">[STRING] formatid (Optional)</text>
</a>
</g>
<g id="a_node3_12"><a xlink:href="/idmef_parser/IODEF/AdditionalData.html" xlink:title="This attribute has been defined in Section 3.2.">
<polygon fill="#ffcc66" stroke="transparent" points="301,-4 301,-25 488,-25 488,-4 301,-4"/>
<polygon fill="none" stroke="#000000" points="301,-4 301,-25 488,-25 488,-4 301,-4"/>
<text text-anchor="start" x="307" y="-10.8" font-family="Nimbus Sans L" font-size="14.00" fill="#000000">[ENUM] restriction (Optional)</text>
</a>
</g>
</g>
<!-- Method&#45;&gt;AdditionalData -->
<g id="edge2" class="edge">
<title>Method&#45;&gt;AdditionalData</title>
<path fill="none" stroke="#000000" d="M212.0136,-108.0733C234.8888,-102.9105 259.1414,-97.4368 282.2289,-92.2261"/>
<polygon fill="#000000" stroke="#000000" points="283.0607,-95.6265 292.0448,-90.0107 281.5196,-88.7982 283.0607,-95.6265"/>
<text text-anchor="middle" x="241.5" y="-106.8" font-family="Times,serif" font-size="14.00" fill="#000000">0..*</text>
</g>
</g>
</svg>
