<?xml version="1.0" encoding="UTF-8" standalone="no"?>
<!DOCTYPE svg PUBLIC "-//W3C//DTD SVG 1.1//EN"
 "http://www.w3.org/Graphics/SVG/1.1/DTD/svg11.dtd">
<!-- Generated by graphviz version 2.26.3 (20100126.1600)
 -->
<!-- Title: Method Pages: 1 -->
<svg width="590pt" height="242pt"
 viewBox="0.00 0.00 590.00 242.00" xmlns="http://www.w3.org/2000/svg" xmlns:xlink="http://www.w3.org/1999/xlink">
<g id="graph1" class="graph" transform="scale(1 1) rotate(0) translate(4 238)">
<title>Method</title>
<polygon fill="white" stroke="white" points="-4,5 -4,-238 587,-238 587,5 -4,5"/>
<!-- Method -->
<g id="node1" class="node"><title>Method</title>
<a xlink:href="#" xlink:title="The Method class describes the methodology used by the intruder to perpetrate the events of the incident. This class consists of a list of references describing the attack method and a free form description of the technique. ">
<polygon fill="#5c3d1f" stroke="#5c3d1f" points="9,-136 9,-157 236,-157 236,-136 9,-136"/>
<polygon fill="none" stroke="black" points="9,-136 9,-157 236,-157 236,-136 9,-136"/>
<text text-anchor="start" x="96.5" y="-143.233" font-family="Times Roman,serif" font-size="14.00">Method</text>
</a>
<a xlink:href="#" xlink:title="A free&#45;form text description of the methodology used by the intruder.">
<polygon fill="#996633" stroke="#996633" points="9,-116 9,-136 236,-136 236,-116 9,-116"/>
<polygon fill="none" stroke="black" points="9,-116 9,-136 236,-136 236,-116 9,-116"/>
<text text-anchor="start" x="12.5" y="-122.733" font-family="Times Roman,serif" font-size="14.00">[ML_STRING] Description (0..*) </text>
</a>
<a xlink:href="#" xlink:title="This attribute is defined in Section 3.2.">
<polygon fill="#996633" stroke="#996633" points="9,-96 9,-116 236,-116 236,-96 9,-96"/>
<polygon fill="none" stroke="black" points="9,-96 9,-116 236,-116 236,-96 9,-96"/>
<text text-anchor="start" x="19.5" y="-102.733" font-family="Times Roman,serif" font-size="14.00">[ENUM] restriction (Optional) </text>
</a>
</g>
<!-- Reference -->
<g id="node2" class="node"><title>Reference</title>
<a xlink:href="#" xlink:title="The Reference class is a reference to a vulnerability, IDS alert, malware sample, advisory, or attack technique. A reference consists of a name, a URL to this reference, and an optional description. ">
<polygon fill="#5c3d1f" stroke="#5c3d1f" points="315,-209 315,-230 574,-230 574,-209 315,-209"/>
<polygon fill="none" stroke="black" points="315,-209 315,-230 574,-230 574,-209 315,-209"/>
<text text-anchor="start" x="410" y="-216.233" font-family="Times Roman,serif" font-size="14.00">Reference</text>
</a>
<a xlink:href="#" xlink:title="Name of the reference.">
<polygon fill="#996633" stroke="#996633" points="315,-189 315,-209 574,-209 574,-189 315,-189"/>
<polygon fill="none" stroke="black" points="315,-189 315,-209 574,-209 574,-189 315,-189"/>
<text text-anchor="start" x="318.5" y="-195.733" font-family="Times Roman,serif" font-size="14.00">[ML_STRING] ReferenceName (1..1) </text>
</a>
<a xlink:href="#" xlink:title="A URL associated with the reference.">
<polygon fill="#996633" stroke="#996633" points="315,-169 315,-189 574,-189 574,-169 315,-169"/>
<polygon fill="none" stroke="black" points="315,-169 315,-189 574,-189 574,-169 315,-169"/>
<text text-anchor="start" x="385.5" y="-175.733" font-family="Times Roman,serif" font-size="14.00">[URL] URL (0..*) </text>
</a>
<a xlink:href="#" xlink:title="A free&#45;form text description of this reference.">
<polygon fill="#996633" stroke="#996633" points="315,-149 315,-169 574,-169 574,-149 315,-149"/>
<polygon fill="none" stroke="black" points="315,-149 315,-169 574,-169 574,-149 315,-149"/>
<text text-anchor="start" x="334.5" y="-155.733" font-family="Times Roman,serif" font-size="14.00">[ML_STRING] Description (0..*) </text>
</a>
</g>
<!-- Method&#45;&gt;Reference -->
<g id="edge2" class="edge"><title>Method&#45;&gt;Reference</title>
<path fill="none" stroke="black" d="M243.734,-150.818C260.855,-154.167 278.607,-157.64 296.149,-161.073"/>
<polygon fill="black" stroke="black" points="295.961,-164.602 306.447,-163.087 297.305,-157.732 295.961,-164.602"/>
<text text-anchor="middle" x="275" y="-162.4" font-family="Times Roman,serif" font-size="14.00">0..*</text>
</g>
<!-- AdditionalData -->
<g id="node4" class="node"><title>AdditionalData</title>
<a xlink:href="#" xlink:title="The AdditionalData class serves as an extension mechanism for information not otherwise represented in the data model. For relatively simple information, atomic data types (e.g., integers, strings) are provided with a mechanism to annotate their meaning. The class can also be used to extend the data model (and the associated Schema) to support proprietary extensions by encapsulating entire XML documents conforming to another Schema (e.g., IDMEF). A detailed discussion for extending the data model and the schema can be found in Section 5. ">
<polygon fill="#997a3d" stroke="#997a3d" points="334,-103 334,-124 555,-124 555,-103 334,-103"/>
<polygon fill="none" stroke="black" points="334,-103 334,-124 555,-124 555,-103 334,-103"/>
<text text-anchor="start" x="393" y="-110.233" font-family="Times Roman,serif" font-size="14.00">AdditionalData</text>
</a>
<a xlink:href="#" xlink:title="The data type of the element content. &#160;The permitted values for this attribute are shown below. &#160;The default value is &quot;string&quot;.">
<polygon fill="#ffcc66" stroke="#ffcc66" points="334,-83 334,-103 555,-103 555,-83 334,-83"/>
<polygon fill="none" stroke="black" points="334,-83 334,-103 555,-103 555,-83 334,-83"/>
<text text-anchor="start" x="356" y="-89.7333" font-family="Times Roman,serif" font-size="14.00">[ENUM] dtype (Required) </text>
</a>
<a xlink:href="#" xlink:title="A means by which to extend the dtype attribute. &#160;See Section 5.1.">
<polygon fill="#ffcc66" stroke="#ffcc66" points="334,-63 334,-83 555,-83 555,-63 334,-63"/>
<polygon fill="none" stroke="black" points="334,-63 334,-83 555,-83 555,-63 334,-63"/>
<text text-anchor="start" x="337.5" y="-69.7333" font-family="Times Roman,serif" font-size="14.00">[STRING] ext&#45;dtype (Optional) </text>
</a>
<a xlink:href="#" xlink:title="A free&#45;form description of the element content.">
<polygon fill="#ffcc66" stroke="#ffcc66" points="334,-43 334,-63 555,-63 555,-43 334,-43"/>
<polygon fill="none" stroke="black" points="334,-43 334,-63 555,-63 555,-43 334,-43"/>
<text text-anchor="start" x="341" y="-49.7333" font-family="Times Roman,serif" font-size="14.00">[STRING] meaning (Optional) </text>
</a>
<a xlink:href="#" xlink:title="An identifier referencing the format and semantics of the element content.">
<polygon fill="#ffcc66" stroke="#ffcc66" points="334,-23 334,-43 555,-43 555,-23 334,-23"/>
<polygon fill="none" stroke="black" points="334,-23 334,-43 555,-43 555,-23 334,-23"/>
<text text-anchor="start" x="342" y="-29.7333" font-family="Times Roman,serif" font-size="14.00">[STRING] formatid (Optional) </text>
</a>
<a xlink:href="#" xlink:title="This attribute has been defined in Section 3.2.">
<polygon fill="#ffcc66" stroke="#ffcc66" points="334,-3 334,-23 555,-23 555,-3 334,-3"/>
<polygon fill="none" stroke="black" points="334,-3 334,-23 555,-23 555,-3 334,-3"/>
<text text-anchor="start" x="341.5" y="-9.73333" font-family="Times Roman,serif" font-size="14.00">[ENUM] restriction (Optional) </text>
</a>
</g>
<!-- Method&#45;&gt;AdditionalData -->
<g id="edge4" class="edge"><title>Method&#45;&gt;AdditionalData</title>
<path fill="none" stroke="black" d="M243.734,-103.182C267.109,-98.609 291.66,-93.8056 315.248,-89.1905"/>
<polygon fill="black" stroke="black" points="316.151,-92.5805 325.292,-87.2254 314.806,-85.7107 316.151,-92.5805"/>
<text text-anchor="middle" x="275" y="-103.4" font-family="Times Roman,serif" font-size="14.00">0..*</text>
</g>
</g>
</svg>
