<?xml version="1.0" encoding="UTF-8" standalone="no"?>
<!DOCTYPE svg PUBLIC "-//W3C//DTD SVG 1.1//EN"
 "http://www.w3.org/Graphics/SVG/1.1/DTD/svg11.dtd">
<!-- Generated by graphviz version 2.38.0 (20140413.2041)
 -->
<!-- Title: Method Pages: 1 -->
<svg width="515pt" height="252pt"
 viewBox="0.00 0.00 515.00 252.00" xmlns="http://www.w3.org/2000/svg" xmlns:xlink="http://www.w3.org/1999/xlink">
<g id="graph0" class="graph" transform="scale(1 1) rotate(0) translate(4 248)">
<title>Method</title>
<polygon fill="white" stroke="none" points="-4,4 -4,-248 511,-248 511,4 -4,4"/>
<!-- Method -->
<g id="node1" class="node"><title>Method</title>
<g id="a_node1_0"><a xlink:href="/idmef_parser/IODEF/Method.html" xlink:title="The Method class describes the methodology used by the intruder to perpetrate the events of the incident. This class consists of a list of references describing the attack method and a free form description of the technique. ">
<polygon fill="#5c3d1f" stroke="none" points="8,-142 8,-163 204,-163 204,-142 8,-142"/>
<polygon fill="none" stroke="black" points="8,-142 8,-163 204,-163 204,-142 8,-142"/>
<text text-anchor="start" x="84.5" y="-148.8" font-family="Times,serif" font-size="14.00">Method</text>
</a>
</g>
<g id="a_node1_1"><a xlink:href="/idmef_parser/IODEF/Method.html" xlink:title="A free&#45;form text description of the methodology used by the intruder.">
<polygon fill="#996633" stroke="none" points="8,-121 8,-142 204,-142 204,-121 8,-121"/>
<polygon fill="none" stroke="black" points="8,-121 8,-142 204,-142 204,-121 8,-121"/>
<text text-anchor="start" x="11" y="-127.8" font-family="Times,serif" font-size="14.00">[ML_STRING] Description (0..*) </text>
</a>
</g>
<g id="a_node1_2"><a xlink:href="/idmef_parser/IODEF/Method.html" xlink:title="This attribute is defined in Section 3.2.">
<polygon fill="#996633" stroke="none" points="8,-100 8,-121 204,-121 204,-100 8,-100"/>
<polygon fill="none" stroke="black" points="8,-100 8,-121 204,-121 204,-100 8,-100"/>
<text text-anchor="start" x="20" y="-106.8" font-family="Times,serif" font-size="14.00">[ENUM] restriction (Optional) </text>
</a>
</g>
</g>
<!-- Reference -->
<g id="node2" class="node"><title>Reference</title>
<g id="a_node2_3"><a xlink:href="/idmef_parser/IODEF/Reference.html" xlink:title="The Reference class is a reference to a vulnerability, IDS alert, malware sample, advisory, or attack technique. A reference consists of a name, a URL to this reference, and an optional description. ">
<polygon fill="#5c3d1f" stroke="none" points="278.5,-219 278.5,-240 499.5,-240 499.5,-219 278.5,-219"/>
<polygon fill="none" stroke="black" points="278.5,-219 278.5,-240 499.5,-240 499.5,-219 278.5,-219"/>
<text text-anchor="start" x="361.5" y="-225.8" font-family="Times,serif" font-size="14.00">Reference</text>
</a>
</g>
<g id="a_node2_4"><a xlink:href="/idmef_parser/IODEF/Reference.html" xlink:title="Name of the reference.">
<polygon fill="#996633" stroke="none" points="278.5,-198 278.5,-219 499.5,-219 499.5,-198 278.5,-198"/>
<polygon fill="none" stroke="black" points="278.5,-198 278.5,-219 499.5,-219 499.5,-198 278.5,-198"/>
<text text-anchor="start" x="281.5" y="-204.8" font-family="Times,serif" font-size="14.00">[ML_STRING] ReferenceName (1..1) </text>
</a>
</g>
<g id="a_node2_5"><a xlink:href="/idmef_parser/IODEF/Reference.html" xlink:title="A URL associated with the reference.">
<polygon fill="#996633" stroke="none" points="278.5,-177 278.5,-198 499.5,-198 499.5,-177 278.5,-177"/>
<polygon fill="none" stroke="black" points="278.5,-177 278.5,-198 499.5,-198 499.5,-177 278.5,-177"/>
<text text-anchor="start" x="336.5" y="-183.8" font-family="Times,serif" font-size="14.00">[URL] URL (0..*) </text>
</a>
</g>
<g id="a_node2_6"><a xlink:href="/idmef_parser/IODEF/Reference.html" xlink:title="A free&#45;form text description of this reference.">
<polygon fill="#996633" stroke="none" points="278.5,-156 278.5,-177 499.5,-177 499.5,-156 278.5,-156"/>
<polygon fill="none" stroke="black" points="278.5,-156 278.5,-177 499.5,-177 499.5,-156 278.5,-156"/>
<text text-anchor="start" x="294" y="-162.8" font-family="Times,serif" font-size="14.00">[ML_STRING] Description (0..*) </text>
</a>
</g>
</g>
<!-- Method&#45;&gt;Reference -->
<g id="edge1" class="edge"><title>Method&#45;&gt;Reference</title>
<path fill="none" stroke="black" d="M212.246,-156.764C227.823,-160.429 244.016,-164.239 259.986,-167.997"/>
<polygon fill="black" stroke="black" points="259.358,-171.444 269.894,-170.328 260.961,-164.63 259.358,-171.444"/>
<text text-anchor="middle" x="241" y="-168.8" font-family="Times,serif" font-size="14.00">0..*</text>
</g>
<!-- AdditionalData -->
<g id="node3" class="node"><title>AdditionalData</title>
<g id="a_node3_7"><a xlink:href="/idmef_parser/IODEF/AdditionalData.html" xlink:title="The AdditionalData class serves as an extension mechanism for information not otherwise represented in the data model. For relatively simple information, atomic data types (e.g., integers, strings) are provided with a mechanism to annotate their meaning. The class can also be used to extend the data model (and the associated Schema) to support proprietary extensions by encapsulating entire XML documents conforming to another Schema (e.g., IDMEF). A detailed discussion for extending the data model and the schema can be found in Section 5. ">
<polygon fill="#997a3d" stroke="none" points="297.5,-109 297.5,-130 480.5,-130 480.5,-109 297.5,-109"/>
<polygon fill="none" stroke="black" points="297.5,-109 297.5,-130 480.5,-130 480.5,-109 297.5,-109"/>
<text text-anchor="start" x="347" y="-115.8" font-family="Times,serif" font-size="14.00">AdditionalData</text>
</a>
</g>
<g id="a_node3_8"><a xlink:href="/idmef_parser/IODEF/AdditionalData.html" xlink:title="The data type of the element content. &#160;The permitted values for this attribute are shown below. &#160;The default value is &quot;string&quot;.">
<polygon fill="#ffcc66" stroke="none" points="297.5,-88 297.5,-109 480.5,-109 480.5,-88 297.5,-88"/>
<polygon fill="none" stroke="black" points="297.5,-88 297.5,-109 480.5,-109 480.5,-88 297.5,-88"/>
<text text-anchor="start" x="314" y="-94.8" font-family="Times,serif" font-size="14.00">[ENUM] dtype (Required) </text>
</a>
</g>
<g id="a_node3_9"><a xlink:href="/idmef_parser/IODEF/AdditionalData.html" xlink:title="A means by which to extend the dtype attribute. &#160;See Section 5.1.">
<polygon fill="#ffcc66" stroke="none" points="297.5,-67 297.5,-88 480.5,-88 480.5,-67 297.5,-67"/>
<polygon fill="none" stroke="black" points="297.5,-67 297.5,-88 480.5,-88 480.5,-67 297.5,-67"/>
<text text-anchor="start" x="300.5" y="-73.8" font-family="Times,serif" font-size="14.00">[STRING] ext&#45;dtype (Optional) </text>
</a>
</g>
<g id="a_node3_10"><a xlink:href="/idmef_parser/IODEF/AdditionalData.html" xlink:title="A free&#45;form description of the element content.">
<polygon fill="#ffcc66" stroke="none" points="297.5,-46 297.5,-67 480.5,-67 480.5,-46 297.5,-46"/>
<polygon fill="none" stroke="black" points="297.5,-46 297.5,-67 480.5,-67 480.5,-46 297.5,-46"/>
<text text-anchor="start" x="302.5" y="-52.8" font-family="Times,serif" font-size="14.00">[STRING] meaning (Optional) </text>
</a>
</g>
<g id="a_node3_11"><a xlink:href="/idmef_parser/IODEF/AdditionalData.html" xlink:title="An identifier referencing the format and semantics of the element content.">
<polygon fill="#ffcc66" stroke="none" points="297.5,-25 297.5,-46 480.5,-46 480.5,-25 297.5,-25"/>
<polygon fill="none" stroke="black" points="297.5,-25 297.5,-46 480.5,-46 480.5,-25 297.5,-25"/>
<text text-anchor="start" x="302.5" y="-31.8" font-family="Times,serif" font-size="14.00">[STRING] formatid (Optional) </text>
</a>
</g>
<g id="a_node3_12"><a xlink:href="/idmef_parser/IODEF/AdditionalData.html" xlink:title="This attribute has been defined in Section 3.2.">
<polygon fill="#ffcc66" stroke="none" points="297.5,-4 297.5,-25 480.5,-25 480.5,-4 297.5,-4"/>
<polygon fill="none" stroke="black" points="297.5,-4 297.5,-25 480.5,-25 480.5,-4 297.5,-4"/>
<text text-anchor="start" x="303" y="-10.8" font-family="Times,serif" font-size="14.00">[ENUM] restriction (Optional) </text>
</a>
</g>
</g>
<!-- Method&#45;&gt;AdditionalData -->
<g id="edge2" class="edge"><title>Method&#45;&gt;AdditionalData</title>
<path fill="none" stroke="black" d="M212.246,-107.611C233.95,-102.582 256.849,-97.2756 278.677,-92.2174"/>
<polygon fill="black" stroke="black" points="279.671,-95.5798 288.623,-89.9126 278.091,-88.7605 279.671,-95.5798"/>
<text text-anchor="middle" x="241" y="-106.8" font-family="Times,serif" font-size="14.00">0..*</text>
</g>
</g>
</svg>
