<?xml version="1.0" encoding="UTF-8" standalone="no"?>
<!DOCTYPE svg PUBLIC "-//W3C//DTD SVG 1.1//EN"
 "http://www.w3.org/Graphics/SVG/1.1/DTD/svg11.dtd">
<!-- Generated by graphviz version 2.26.3 (20100126.1600)
 -->
<!-- Title: MonetaryImpact Pages: 1 -->
<svg width="242pt" height="76pt"
 viewBox="0.00 0.00 242.00 76.00" xmlns="http://www.w3.org/2000/svg" xmlns:xlink="http://www.w3.org/1999/xlink">
<g id="graph1" class="graph" transform="scale(1 1) rotate(0) translate(4 72)">
<title>MonetaryImpact</title>
<polygon fill="white" stroke="white" points="-4,5 -4,-72 239,-72 239,5 -4,5"/>
<!-- MonetaryImpact -->
<g id="node1" class="node"><title>MonetaryImpact</title>
<a xlink:href="#" xlink:title="The MonetaryImpact class describes the financial impact of the activity on an organization. For example, this impact may consider losses due to the cost of the investigation or recovery, diminished ">
<polygon fill="#993016" stroke="#993016" points="9,-43 9,-64 226,-64 226,-43 9,-43"/>
<polygon fill="none" stroke="black" points="9,-43 9,-64 226,-64 226,-43 9,-43"/>
<text text-anchor="start" x="61" y="-50.2333" font-family="Times Roman,serif" font-size="14.00">MonetaryImpact</text>
</a>
<a xlink:href="#" xlink:title="An estimate of the relative severity of the activity. &#160;The permitted values are shown below. &#160;There is no default value.">
<polygon fill="#ff5024" stroke="#ff5024" points="9,-23 9,-43 226,-43 226,-23 9,-23"/>
<polygon fill="none" stroke="black" points="9,-23 9,-43 226,-43 226,-23 9,-23"/>
<text text-anchor="start" x="22" y="-29.7333" font-family="Times Roman,serif" font-size="14.00">[ENUM] severity (Optional) </text>
</a>
<a xlink:href="#" xlink:title="Defines the currency in which the monetary impact is expressed. &#160;The permitted values are defined in ISO 4217:2001, Codes for the representation of currencies and funds [14]. &#160;There is no default value.">
<polygon fill="#ff5024" stroke="#ff5024" points="9,-3 9,-23 226,-23 226,-3 9,-3"/>
<polygon fill="none" stroke="black" points="9,-3 9,-23 226,-23 226,-3 9,-3"/>
<text text-anchor="start" x="12.5" y="-9.73333" font-family="Times Roman,serif" font-size="14.00">[STRING] currency (Required) </text>
</a>
</g>
</g>
</svg>
