<?xml version="1.0" encoding="UTF-8" standalone="no"?>
<!DOCTYPE svg PUBLIC "-//W3C//DTD SVG 1.1//EN"
 "http://www.w3.org/Graphics/SVG/1.1/DTD/svg11.dtd">
<!-- Generated by graphviz version 2.38.0 (20140413.2041)
 -->
<!-- Title: MonetaryImpact Pages: 1 -->
<svg width="205pt" height="79pt"
 viewBox="0.00 0.00 205.00 79.00" xmlns="http://www.w3.org/2000/svg" xmlns:xlink="http://www.w3.org/1999/xlink">
<g id="graph0" class="graph" transform="scale(1 1) rotate(0) translate(4 75)">
<title>MonetaryImpact</title>
<polygon fill="white" stroke="none" points="-4,4 -4,-75 201,-75 201,4 -4,4"/>
<!-- MonetaryImpact -->
<g id="node1" class="node"><title>MonetaryImpact</title>
<g id="a_node1_0"><a xlink:href="/idmef_parser/IODEF/MonetaryImpact.html" xlink:title="The MonetaryImpact class describes the financial impact of the activity on an organization. For example, this impact may consider losses due to the cost of the investigation or recovery, diminished ">
<polygon fill="#993016" stroke="none" points="8.5,-45.5 8.5,-66.5 189.5,-66.5 189.5,-45.5 8.5,-45.5"/>
<polygon fill="none" stroke="black" points="8.5,-45.5 8.5,-66.5 189.5,-66.5 189.5,-45.5 8.5,-45.5"/>
<text text-anchor="start" x="53" y="-52.3" font-family="Times,serif" font-size="14.00">MonetaryImpact</text>
</a>
</g>
<g id="a_node1_1"><a xlink:href="/idmef_parser/IODEF/MonetaryImpact.html" xlink:title="An estimate of the relative severity of the activity. &#160;The permitted values are shown below. &#160;There is no default value.">
<polygon fill="#ff5024" stroke="none" points="8.5,-24.5 8.5,-45.5 189.5,-45.5 189.5,-24.5 8.5,-24.5"/>
<polygon fill="none" stroke="black" points="8.5,-24.5 8.5,-45.5 189.5,-45.5 189.5,-24.5 8.5,-24.5"/>
<text text-anchor="start" x="19" y="-31.3" font-family="Times,serif" font-size="14.00">[ENUM] severity (Optional) </text>
</a>
</g>
<g id="a_node1_2"><a xlink:href="/idmef_parser/IODEF/MonetaryImpact.html" xlink:title="Defines the currency in which the monetary impact is expressed. &#160;The permitted values are defined in ISO 4217:2001, Codes for the representation of currencies and funds [14]. &#160;There is no default value.">
<polygon fill="#ff5024" stroke="none" points="8.5,-3.5 8.5,-24.5 189.5,-24.5 189.5,-3.5 8.5,-3.5"/>
<polygon fill="none" stroke="black" points="8.5,-3.5 8.5,-24.5 189.5,-24.5 189.5,-3.5 8.5,-3.5"/>
<text text-anchor="start" x="11.5" y="-10.3" font-family="Times,serif" font-size="14.00">[STRING] currency (Required) </text>
</a>
</g>
</g>
</g>
</svg>
