<?xml version="1.0" encoding="UTF-8" standalone="no"?>
<!DOCTYPE svg PUBLIC "-//W3C//DTD SVG 1.1//EN"
 "http://www.w3.org/Graphics/SVG/1.1/DTD/svg11.dtd">
<!-- Generated by graphviz version 2.40.1 (0)
 -->
<!-- Title: Node Pages: 1 -->
<svg width="502pt" height="363pt"
 viewBox="0.00 0.00 502.00 363.00" xmlns="http://www.w3.org/2000/svg" xmlns:xlink="http://www.w3.org/1999/xlink">
<g id="graph0" class="graph" transform="scale(1 1) rotate(0) translate(4 359)">
<title>Node</title>
<polygon fill="#ffffff" stroke="transparent" points="-4,4 -4,-359 498,-359 498,4 -4,4"/>
<!-- Node -->
<g id="node1" class="node">
<title>Node</title>
<g id="a_node1_0"><a xlink:href="/idmef_parser/IODEF/Node.html" xlink:title="The Node class names a system (e.g., PC, router) or network. ">
<polygon fill="#203f7f" stroke="transparent" points="8.5,-198.5 8.5,-219.5 205.5,-219.5 205.5,-198.5 8.5,-198.5"/>
<polygon fill="none" stroke="#000000" points="8.5,-198.5 8.5,-219.5 205.5,-219.5 205.5,-198.5 8.5,-198.5"/>
<text text-anchor="start" x="90.5" y="-205.3" font-family="Nimbus Sans L" font-size="14.00" fill="#000000">Node</text>
</a>
</g>
<g id="a_node1_1"><a xlink:href="/idmef_parser/IODEF/Node.html" xlink:title="The name of the Node (e.g., fully qualified domain name). &#160;This information MUST be provided if no Address information is given.">
<polygon fill="#284f9f" stroke="transparent" points="8.5,-177.5 8.5,-198.5 205.5,-198.5 205.5,-177.5 8.5,-177.5"/>
<polygon fill="none" stroke="#000000" points="8.5,-177.5 8.5,-198.5 205.5,-198.5 205.5,-177.5 8.5,-177.5"/>
<text text-anchor="start" x="11.5" y="-184.3" font-family="Nimbus Sans L" font-size="14.00" fill="#000000">[ML_STRING] NodeName (0..*)</text>
</a>
</g>
<g id="a_node1_2"><a xlink:href="/idmef_parser/IODEF/Node.html" xlink:title="A free&#45;from description of the physical location of the equipment.">
<polygon fill="#284f9f" stroke="transparent" points="8.5,-156.5 8.5,-177.5 205.5,-177.5 205.5,-156.5 8.5,-156.5"/>
<polygon fill="none" stroke="#000000" points="8.5,-156.5 8.5,-177.5 205.5,-177.5 205.5,-156.5 8.5,-156.5"/>
<text text-anchor="start" x="19" y="-163.3" font-family="Nimbus Sans L" font-size="14.00" fill="#000000">[ML_STRING] Location (0..1)</text>
</a>
</g>
<g id="a_node1_3"><a xlink:href="/idmef_parser/IODEF/Node.html" xlink:title="A timestamp of when the resolution between the name and address was performed. &#160;This information SHOULD be provided if both an Address and NodeName are specified.">
<polygon fill="#284f9f" stroke="transparent" points="8.5,-135.5 8.5,-156.5 205.5,-156.5 205.5,-135.5 8.5,-135.5"/>
<polygon fill="none" stroke="#000000" points="8.5,-135.5 8.5,-156.5 205.5,-156.5 205.5,-135.5 8.5,-135.5"/>
<text text-anchor="start" x="54" y="-142.3" font-family="Nimbus Sans L" font-size="14.00" fill="#000000">[] DateTime (0..1)</text>
</a>
</g>
</g>
<!-- Address -->
<g id="node2" class="node">
<title>Address</title>
<g id="a_node2_4"><a xlink:href="/idmef_parser/IODEF/Address.html" xlink:title="The Address class represents a hardware (layer&#45;2), network (layer&#45;3), or application (layer&#45;7) address. ">
<polygon fill="#203f7f" stroke="transparent" points="280,-329.5 280,-350.5 486,-350.5 486,-329.5 280,-329.5"/>
<polygon fill="none" stroke="#000000" points="280,-329.5 280,-350.5 486,-350.5 486,-329.5 280,-329.5"/>
<text text-anchor="start" x="358" y="-336.3" font-family="Nimbus Sans L" font-size="14.00" fill="#000000">Address</text>
</a>
</g>
<g id="a_node2_5"><a xlink:href="/idmef_parser/IODEF/Address.html" xlink:title="The type of address represented. &#160;The permitted values for this attribute are shown below. &#160;The default value is &quot;ipv4&#45;addr&quot;.">
<polygon fill="#284f9f" stroke="transparent" points="280,-308.5 280,-329.5 486,-329.5 486,-308.5 280,-308.5"/>
<polygon fill="none" stroke="#000000" points="280,-308.5 280,-329.5 486,-329.5 486,-308.5 280,-308.5"/>
<text text-anchor="start" x="297" y="-315.3" font-family="Nimbus Sans L" font-size="14.00" fill="#000000">[ENUM] category (Required)</text>
</a>
</g>
<g id="a_node2_6"><a xlink:href="/idmef_parser/IODEF/Address.html" xlink:title="A means by which to extend the category attribute. &#160;See Section 5.1.">
<polygon fill="#284f9f" stroke="transparent" points="280,-287.5 280,-308.5 486,-308.5 486,-287.5 280,-287.5"/>
<polygon fill="none" stroke="#000000" points="280,-287.5 280,-308.5 486,-308.5 486,-287.5 280,-287.5"/>
<text text-anchor="start" x="283" y="-294.3" font-family="Nimbus Sans L" font-size="14.00" fill="#000000">[STRING] ext&#45;category (Optional)</text>
</a>
</g>
<g id="a_node2_7"><a xlink:href="/idmef_parser/IODEF/Address.html" xlink:title="The name of the Virtual LAN to which the address belongs.">
<polygon fill="#284f9f" stroke="transparent" points="280,-266.5 280,-287.5 486,-287.5 486,-266.5 280,-266.5"/>
<polygon fill="none" stroke="#000000" points="280,-266.5 280,-287.5 486,-287.5 486,-266.5 280,-266.5"/>
<text text-anchor="start" x="288" y="-273.3" font-family="Nimbus Sans L" font-size="14.00" fill="#000000">[STRING] vlan&#45;name (Optional)</text>
</a>
</g>
<g id="a_node2_8"><a xlink:href="/idmef_parser/IODEF/Address.html" xlink:title="The number of the Virtual LAN to which the address belongs.">
<polygon fill="#284f9f" stroke="transparent" points="280,-245.5 280,-266.5 486,-266.5 486,-245.5 280,-245.5"/>
<polygon fill="none" stroke="#000000" points="280,-245.5 280,-266.5 486,-266.5 486,-245.5 280,-245.5"/>
<text text-anchor="start" x="291.5" y="-252.3" font-family="Nimbus Sans L" font-size="14.00" fill="#000000">[STRING] vlan&#45;num (Optional)</text>
</a>
</g>
</g>
<!-- Node&#45;&gt;Address -->
<g id="edge1" class="edge">
<title>Node&#45;&gt;Address</title>
<path fill="none" stroke="#000000" d="M211.8216,-223.5901C228.4327,-230.8594 245.7173,-238.4233 262.6383,-245.8281"/>
<polygon fill="#000000" stroke="#000000" points="261.4304,-249.12 271.9948,-249.9227 264.2368,-242.7072 261.4304,-249.12"/>
<text text-anchor="middle" x="242.5" y="-245.3" font-family="Times,serif" font-size="14.00" fill="#000000">0..*</text>
</g>
<!-- NodeRole -->
<g id="node3" class="node">
<title>NodeRole</title>
<g id="a_node3_9"><a xlink:href="/idmef_parser/IODEF/NodeRole.html" xlink:title="The NodeRole class describes the intended function performed by a particular host. ">
<polygon fill="#203f7f" stroke="transparent" points="280,-198.5 280,-219.5 486,-219.5 486,-198.5 280,-198.5"/>
<polygon fill="none" stroke="#000000" points="280,-198.5 280,-219.5 486,-219.5 486,-198.5 280,-198.5"/>
<text text-anchor="start" x="352.5" y="-205.3" font-family="Nimbus Sans L" font-size="14.00" fill="#000000">NodeRole</text>
</a>
</g>
<g id="a_node3_10"><a xlink:href="/idmef_parser/IODEF/NodeRole.html" xlink:title="Functionality provided by a node.">
<polygon fill="#284f9f" stroke="transparent" points="280,-177.5 280,-198.5 486,-198.5 486,-177.5 280,-177.5"/>
<polygon fill="none" stroke="#000000" points="280,-177.5 280,-198.5 486,-198.5 486,-177.5 280,-177.5"/>
<text text-anchor="start" x="297" y="-184.3" font-family="Nimbus Sans L" font-size="14.00" fill="#000000">[ENUM] category (Required)</text>
</a>
</g>
<g id="a_node3_11"><a xlink:href="/idmef_parser/IODEF/NodeRole.html" xlink:title="A means by which to extend the category attribute. &#160;See Section 5.1.">
<polygon fill="#284f9f" stroke="transparent" points="280,-156.5 280,-177.5 486,-177.5 486,-156.5 280,-156.5"/>
<polygon fill="none" stroke="#000000" points="280,-156.5 280,-177.5 486,-177.5 486,-156.5 280,-156.5"/>
<text text-anchor="start" x="283" y="-163.3" font-family="Nimbus Sans L" font-size="14.00" fill="#000000">[STRING] ext&#45;category (Optional)</text>
</a>
</g>
<g id="a_node3_12"><a xlink:href="/idmef_parser/IODEF/NodeRole.html" xlink:title="A valid language code per RFC 4646 [7] constrained by the definition of &quot;xs:language&quot;. &#160;The interpretation of this code is described in Section 6.">
<polygon fill="#284f9f" stroke="transparent" points="280,-135.5 280,-156.5 486,-156.5 486,-135.5 280,-135.5"/>
<polygon fill="none" stroke="#000000" points="280,-135.5 280,-156.5 486,-156.5 486,-135.5 280,-135.5"/>
<text text-anchor="start" x="310.5" y="-142.3" font-family="Nimbus Sans L" font-size="14.00" fill="#000000">[ENUM] lang (Required)</text>
</a>
</g>
</g>
<!-- Node&#45;&gt;NodeRole -->
<g id="edge2" class="edge">
<title>Node&#45;&gt;NodeRole</title>
<path fill="none" stroke="#000000" d="M213.0066,-177.5C229.0065,-177.5 245.6061,-177.5 261.8838,-177.5"/>
<polygon fill="#000000" stroke="#000000" points="261.9692,-181.0001 271.9692,-177.5 261.9691,-174.0001 261.9692,-181.0001"/>
<text text-anchor="middle" x="242.5" y="-181.3" font-family="Times,serif" font-size="14.00" fill="#000000">0..*</text>
</g>
<!-- Counter -->
<g id="node4" class="node">
<title>Counter</title>
<g id="a_node4_13"><a xlink:href="/idmef_parser/IODEF/Counter.html" xlink:title="The Counter class summarize multiple occurrences of some event, or conveys counts or rates on various features (e.g., packets, sessions, events). ">
<polygon fill="#cc401d" stroke="transparent" points="282,-87.5 282,-108.5 485,-108.5 485,-87.5 282,-87.5"/>
<polygon fill="none" stroke="#000000" points="282,-87.5 282,-108.5 485,-108.5 485,-87.5 282,-87.5"/>
<text text-anchor="start" x="359" y="-94.3" font-family="Nimbus Sans L" font-size="14.00" fill="#000000">Counter</text>
</a>
</g>
<g id="a_node4_14"><a xlink:href="/idmef_parser/IODEF/Counter.html" xlink:title="Specifies the units of the element content.">
<polygon fill="#ff5024" stroke="transparent" points="282,-66.5 282,-87.5 485,-87.5 485,-66.5 282,-66.5"/>
<polygon fill="none" stroke="#000000" points="282,-66.5 282,-87.5 485,-87.5 485,-66.5 282,-66.5"/>
<text text-anchor="start" x="311" y="-73.3" font-family="Nimbus Sans L" font-size="14.00" fill="#000000">[ENUM] type (Required)</text>
</a>
</g>
<g id="a_node4_15"><a xlink:href="/idmef_parser/IODEF/Counter.html" xlink:title="A means by which to extend the type attribute. See Section 5.1.">
<polygon fill="#ff5024" stroke="transparent" points="282,-45.5 282,-66.5 485,-66.5 485,-45.5 282,-45.5"/>
<polygon fill="none" stroke="#000000" points="282,-45.5 282,-66.5 485,-66.5 485,-45.5 282,-45.5"/>
<text text-anchor="start" x="296.5" y="-52.3" font-family="Nimbus Sans L" font-size="14.00" fill="#000000">[STRING] ext&#45;type (Optional)</text>
</a>
</g>
<g id="a_node4_16"><a xlink:href="/idmef_parser/IODEF/Counter.html" xlink:title="If present, the Counter class represents a rate rather than a count over the entire event. &#160;In that case, this attribute specifies the denominator of the rate (where the type attribute specified the nominator). &#160;The possible values of this attribute are defined in Section 3.10.2">
<polygon fill="#ff5024" stroke="transparent" points="282,-24.5 282,-45.5 485,-45.5 485,-24.5 282,-24.5"/>
<polygon fill="none" stroke="#000000" points="282,-24.5 282,-45.5 485,-45.5 485,-24.5 282,-24.5"/>
<text text-anchor="start" x="301" y="-31.3" font-family="Nimbus Sans L" font-size="14.00" fill="#000000">[ENUM] duration (Optional)</text>
</a>
</g>
<g id="a_node4_17"><a xlink:href="/idmef_parser/IODEF/Counter.html" xlink:title="A means by which to extend the duration attribute. &#160;See Section 5.1.">
<polygon fill="#ff5024" stroke="transparent" points="282,-3.5 282,-24.5 485,-24.5 485,-3.5 282,-3.5"/>
<polygon fill="none" stroke="#000000" points="282,-3.5 282,-24.5 485,-24.5 485,-3.5 282,-3.5"/>
<text text-anchor="start" x="285" y="-10.3" font-family="Nimbus Sans L" font-size="14.00" fill="#000000">[STRING] ext&#45;duration (Optional)</text>
</a>
</g>
</g>
<!-- Node&#45;&gt;Counter -->
<g id="edge3" class="edge">
<title>Node&#45;&gt;Counter</title>
<path fill="none" stroke="#000000" d="M211.8216,-131.4099C228.819,-123.9716 246.5216,-116.2247 263.8182,-108.6555"/>
<polygon fill="#000000" stroke="#000000" points="265.6206,-111.6873 273.3786,-104.4717 262.8142,-105.2744 265.6206,-111.6873"/>
<text text-anchor="middle" x="242.5" y="-124.3" font-family="Times,serif" font-size="14.00" fill="#000000">0..*</text>
</g>
</g>
</svg>
