<?xml version="1.0" encoding="UTF-8" standalone="no"?>
<!DOCTYPE svg PUBLIC "-//W3C//DTD SVG 1.1//EN"
 "http://www.w3.org/Graphics/SVG/1.1/DTD/svg11.dtd">
<!-- Generated by graphviz version 2.40.1 (0)
 -->
<!-- Title: OperatingSystem Pages: 1 -->
<svg width="203pt" height="205pt"
 viewBox="0.00 0.00 203.00 205.00" xmlns="http://www.w3.org/2000/svg" xmlns:xlink="http://www.w3.org/1999/xlink">
<g id="graph0" class="graph" transform="scale(1 1) rotate(0) translate(4 201)">
<title>OperatingSystem</title>
<polygon fill="#ffffff" stroke="transparent" points="-4,4 -4,-201 199,-201 199,4 -4,4"/>
<!-- OperatingSystem -->
<g id="node1" class="node">
<title>OperatingSystem</title>
<g id="a_node1_0"><a xlink:href="/idmef_parser/IODEF/OperatingSystem.html" xlink:title="The OperatingSystem class describes the operating system running on a System. The definition is identical to the Application class (Section 3.17.1). ">
<polygon fill="#203f7f" stroke="transparent" points="8.5,-171.5 8.5,-192.5 187.5,-192.5 187.5,-171.5 8.5,-171.5"/>
<polygon fill="none" stroke="#000000" points="8.5,-171.5 8.5,-192.5 187.5,-192.5 187.5,-171.5 8.5,-171.5"/>
<text text-anchor="start" x="45" y="-178.3" font-family="Nimbus Sans L" font-size="14.00" fill="#000000">OperatingSystem</text>
</a>
</g>
<g id="a_node1_1"><a xlink:href="/idmef_parser/IODEF/OperatingSystem.html" xlink:title="A URL describing the application.">
<polygon fill="#284f9f" stroke="transparent" points="8.5,-150.5 8.5,-171.5 187.5,-171.5 187.5,-150.5 8.5,-150.5"/>
<polygon fill="none" stroke="#000000" points="8.5,-150.5 8.5,-171.5 187.5,-171.5 187.5,-150.5 8.5,-150.5"/>
<text text-anchor="start" x="48" y="-157.3" font-family="Nimbus Sans L" font-size="14.00" fill="#000000">[URL] URL (0..1)</text>
</a>
</g>
<g id="a_node1_2"><a xlink:href="/idmef_parser/IODEF/OperatingSystem.html" xlink:title="An identifier that can be used to reference this software.">
<polygon fill="#284f9f" stroke="transparent" points="8.5,-129.5 8.5,-150.5 187.5,-150.5 187.5,-129.5 8.5,-129.5"/>
<polygon fill="none" stroke="#000000" points="8.5,-129.5 8.5,-150.5 187.5,-150.5 187.5,-129.5 8.5,-129.5"/>
<text text-anchor="start" x="21" y="-136.3" font-family="Nimbus Sans L" font-size="14.00" fill="#000000">[STRING] swid (Optional)</text>
</a>
</g>
<g id="a_node1_3"><a xlink:href="/idmef_parser/IODEF/OperatingSystem.html" xlink:title="An identifier that can be used to reference a particular configuration of this software.">
<polygon fill="#284f9f" stroke="transparent" points="8.5,-108.5 8.5,-129.5 187.5,-129.5 187.5,-108.5 8.5,-108.5"/>
<polygon fill="none" stroke="#000000" points="8.5,-108.5 8.5,-129.5 187.5,-129.5 187.5,-108.5 8.5,-108.5"/>
<text text-anchor="start" x="11.5" y="-115.3" font-family="Nimbus Sans L" font-size="14.00" fill="#000000">[STRING] configid (Optional)</text>
</a>
</g>
<g id="a_node1_4"><a xlink:href="/idmef_parser/IODEF/OperatingSystem.html" xlink:title="Vendor name of the software.">
<polygon fill="#284f9f" stroke="transparent" points="8.5,-87.5 8.5,-108.5 187.5,-108.5 187.5,-87.5 8.5,-87.5"/>
<polygon fill="none" stroke="#000000" points="8.5,-87.5 8.5,-108.5 187.5,-108.5 187.5,-87.5 8.5,-87.5"/>
<text text-anchor="start" x="14" y="-94.3" font-family="Nimbus Sans L" font-size="14.00" fill="#000000">[STRING] vendor (Optional)</text>
</a>
</g>
<g id="a_node1_5"><a xlink:href="/idmef_parser/IODEF/OperatingSystem.html" xlink:title="Family of the software.">
<polygon fill="#284f9f" stroke="transparent" points="8.5,-66.5 8.5,-87.5 187.5,-87.5 187.5,-66.5 8.5,-66.5"/>
<polygon fill="none" stroke="#000000" points="8.5,-66.5 8.5,-87.5 187.5,-87.5 187.5,-66.5 8.5,-66.5"/>
<text text-anchor="start" x="16.5" y="-73.3" font-family="Nimbus Sans L" font-size="14.00" fill="#000000">[STRING] family (Optional)</text>
</a>
</g>
<g id="a_node1_6"><a xlink:href="/idmef_parser/IODEF/OperatingSystem.html" xlink:title="Name of the software.">
<polygon fill="#284f9f" stroke="transparent" points="8.5,-45.5 8.5,-66.5 187.5,-66.5 187.5,-45.5 8.5,-45.5"/>
<polygon fill="none" stroke="#000000" points="8.5,-45.5 8.5,-66.5 187.5,-66.5 187.5,-45.5 8.5,-45.5"/>
<text text-anchor="start" x="17.5" y="-52.3" font-family="Nimbus Sans L" font-size="14.00" fill="#000000">[STRING] name (Optional)</text>
</a>
</g>
<g id="a_node1_7"><a xlink:href="/idmef_parser/IODEF/OperatingSystem.html" xlink:title="Version of the software.">
<polygon fill="#284f9f" stroke="transparent" points="8.5,-24.5 8.5,-45.5 187.5,-45.5 187.5,-24.5 8.5,-24.5"/>
<polygon fill="none" stroke="#000000" points="8.5,-24.5 8.5,-45.5 187.5,-45.5 187.5,-24.5 8.5,-24.5"/>
<text text-anchor="start" x="13" y="-31.3" font-family="Nimbus Sans L" font-size="14.00" fill="#000000">[STRING] version (Optional)</text>
</a>
</g>
<g id="a_node1_8"><a xlink:href="/idmef_parser/IODEF/OperatingSystem.html" xlink:title="Patch or service pack level of the software.">
<polygon fill="#284f9f" stroke="transparent" points="8.5,-3.5 8.5,-24.5 187.5,-24.5 187.5,-3.5 8.5,-3.5"/>
<polygon fill="none" stroke="#000000" points="8.5,-3.5 8.5,-24.5 187.5,-24.5 187.5,-3.5 8.5,-3.5"/>
<text text-anchor="start" x="18" y="-10.3" font-family="Nimbus Sans L" font-size="14.00" fill="#000000">[STRING] patch (Optional)</text>
</a>
</g>
</g>
</g>
</svg>
