<?xml version="1.0" encoding="UTF-8" standalone="no"?>
<!DOCTYPE svg PUBLIC "-//W3C//DTD SVG 1.1//EN"
 "http://www.w3.org/Graphics/SVG/1.1/DTD/svg11.dtd">
<!-- Generated by graphviz version 2.40.1 (0)
 -->
<!-- Title: PostalAddress Pages: 1 -->
<svg width="199pt" height="79pt"
 viewBox="0.00 0.00 199.00 79.00" xmlns="http://www.w3.org/2000/svg" xmlns:xlink="http://www.w3.org/1999/xlink">
<g id="graph0" class="graph" transform="scale(1 1) rotate(0) translate(4 75)">
<title>PostalAddress</title>
<polygon fill="#ffffff" stroke="transparent" points="-4,4 -4,-75 195,-75 195,4 -4,4"/>
<!-- PostalAddress -->
<g id="node1" class="node">
<title>PostalAddress</title>
<g id="a_node1_0"><a xlink:href="/idmef_parser/IODEF/PostalAddress.html" xlink:title="The PostalAddress class specifies a postal address formatted according to the POSTAL data type (Section 2.11). ">
<polygon fill="#a3cc52" stroke="transparent" points="8.5,-45.5 8.5,-66.5 183.5,-66.5 183.5,-45.5 8.5,-45.5"/>
<polygon fill="none" stroke="#000000" points="8.5,-45.5 8.5,-66.5 183.5,-66.5 183.5,-45.5 8.5,-45.5"/>
<text text-anchor="start" x="52" y="-52.3" font-family="Nimbus Sans L" font-size="14.00" fill="#000000">PostalAddress</text>
</a>
</g>
<g id="a_node1_1"><a xlink:href="/idmef_parser/IODEF/PostalAddress.html" xlink:title="A free&#45;form description of the element content.">
<polygon fill="#ccff66" stroke="transparent" points="8.5,-24.5 8.5,-45.5 183.5,-45.5 183.5,-24.5 8.5,-24.5"/>
<polygon fill="none" stroke="#000000" points="8.5,-24.5 8.5,-45.5 183.5,-45.5 183.5,-24.5 8.5,-24.5"/>
<text text-anchor="start" x="11.5" y="-31.3" font-family="Nimbus Sans L" font-size="14.00" fill="#000000">[ENUM] meaning (Optional)</text>
</a>
</g>
<g id="a_node1_2"><a xlink:href="/idmef_parser/IODEF/PostalAddress.html" xlink:title="A valid language code per RFC 4646 [7] constrained by the definition of &quot;xs:language&quot;. &#160;The interpretation of this code is described in Section 6.">
<polygon fill="#ccff66" stroke="transparent" points="8.5,-3.5 8.5,-24.5 183.5,-24.5 183.5,-3.5 8.5,-3.5"/>
<polygon fill="none" stroke="#000000" points="8.5,-3.5 8.5,-24.5 183.5,-24.5 183.5,-3.5 8.5,-3.5"/>
<text text-anchor="start" x="23.5" y="-10.3" font-family="Nimbus Sans L" font-size="14.00" fill="#000000">[ENUM] lang (Required)</text>
</a>
</g>
</g>
</g>
</svg>
