<?xml version="1.0" encoding="UTF-8" standalone="no"?>
<!DOCTYPE svg PUBLIC "-//W3C//DTD SVG 1.1//EN"
 "http://www.w3.org/Graphics/SVG/1.1/DTD/svg11.dtd">
<!-- Generated by graphviz version 2.26.3 (20100126.1600)
 -->
<!-- Title: Record Pages: 1 -->
<svg width="874pt" height="654pt"
 viewBox="0.00 0.00 874.00 654.00" xmlns="http://www.w3.org/2000/svg" xmlns:xlink="http://www.w3.org/1999/xlink">
<g id="graph1" class="graph" transform="scale(1 1) rotate(0) translate(4 650)">
<title>Record</title>
<polygon fill="white" stroke="white" points="-4,5 -4,-650 871,-650 871,5 -4,5"/>
<!-- Record -->
<g id="node1" class="node"><title>Record</title>
<a xlink:href="/idmef_parser/IODEF/Record.html" xlink:title="The Record class is a container class for log and audit data that provides supportive information about the incident. The source of this data will often be the output of monitoring tools. These logs should substantiate the activity described in the document. ">
<polygon fill="#997a00" stroke="#997a00" points="9,-287 9,-308 222,-308 222,-287 9,-287"/>
<polygon fill="none" stroke="black" points="9,-287 9,-308 222,-308 222,-287 9,-287"/>
<text text-anchor="start" x="92" y="-294.233" font-family="Times Roman,serif" font-size="14.00">Record</text>
</a>
<a xlink:href="/idmef_parser/IODEF/Record.html" xlink:title="This attribute has been defined in Section 3.2.">
<polygon fill="#ffcc00" stroke="#ffcc00" points="9,-267 9,-287 222,-287 222,-267 9,-267"/>
<polygon fill="none" stroke="black" points="9,-267 9,-287 222,-287 222,-267 9,-267"/>
<text text-anchor="start" x="12.5" y="-273.733" font-family="Times Roman,serif" font-size="14.00">[ENUM] restriction (Optional) </text>
</a>
</g>
<!-- RecordData -->
<g id="node2" class="node"><title>RecordData</title>
<a xlink:href="/idmef_parser/IODEF/RecordData.html" xlink:title="The RecordData class groups log or audit data from a given sensor (e.g., IDS, firewall log) and provides a way to annotate the output. ">
<polygon fill="#997a00" stroke="#997a00" points="301,-307 301,-328 528,-328 528,-307 301,-307"/>
<polygon fill="none" stroke="black" points="301,-307 301,-328 528,-328 528,-307 301,-307"/>
<text text-anchor="start" x="374" y="-314.233" font-family="Times Roman,serif" font-size="14.00">RecordData</text>
</a>
<a xlink:href="/idmef_parser/IODEF/RecordData.html" xlink:title="Timestamp of the RecordItem data.">
<polygon fill="#ffcc00" stroke="#ffcc00" points="301,-287 301,-307 528,-307 528,-287 301,-287"/>
<polygon fill="none" stroke="black" points="301,-287 301,-307 528,-307 528,-287 301,-287"/>
<text text-anchor="start" x="350" y="-293.733" font-family="Times Roman,serif" font-size="14.00">[] DateTime (0..1) </text>
</a>
<a xlink:href="/idmef_parser/IODEF/RecordData.html" xlink:title="Free&#45;form textual description of the provided RecordItem data. &#160;At minimum, this description should convey the significance of the provided RecordItem data.">
<polygon fill="#ffcc00" stroke="#ffcc00" points="301,-267 301,-287 528,-287 528,-267 301,-267"/>
<polygon fill="none" stroke="black" points="301,-267 301,-287 528,-287 528,-267 301,-267"/>
<text text-anchor="start" x="304.5" y="-273.733" font-family="Times Roman,serif" font-size="14.00">[ML_STRING] Description (0..*) </text>
</a>
<a xlink:href="/idmef_parser/IODEF/RecordData.html" xlink:title="This attribute has been defined in Section 3.2.">
<polygon fill="#ffcc00" stroke="#ffcc00" points="301,-247 301,-267 528,-267 528,-247 301,-247"/>
<polygon fill="none" stroke="black" points="301,-247 301,-267 528,-267 528,-247 301,-247"/>
<text text-anchor="start" x="311.5" y="-253.733" font-family="Times Roman,serif" font-size="14.00">[ENUM] restriction (Optional) </text>
</a>
</g>
<!-- Record&#45;&gt;RecordData -->
<g id="edge10" class="edge"><title>Record&#45;&gt;RecordData</title>
<path fill="none" stroke="black" d="M229.746,-288C246.817,-288 264.528,-288 281.92,-288"/>
<polygon fill="black" stroke="black" points="282.116,-291.5 292.116,-288 282.116,-284.5 282.116,-291.5"/>
<text text-anchor="middle" x="261" y="-292.4" font-family="Times Roman,serif" font-size="14.00">1..*</text>
</g>
<!-- Application -->
<g id="node3" class="node"><title>Application</title>
<a xlink:href="/idmef_parser/IODEF/Application.html" xlink:title="The Application class describes an application running on a System providing a Service. ">
<polygon fill="#182f5f" stroke="#182f5f" points="630,-621 630,-642 837,-642 837,-621 630,-621"/>
<polygon fill="none" stroke="black" points="630,-621 630,-642 837,-642 837,-621 630,-621"/>
<text text-anchor="start" x="695.5" y="-628.233" font-family="Times Roman,serif" font-size="14.00">Application</text>
</a>
<a xlink:href="/idmef_parser/IODEF/Application.html" xlink:title="A URL describing the application.">
<polygon fill="#284f9f" stroke="#284f9f" points="630,-601 630,-621 837,-621 837,-601 630,-601"/>
<polygon fill="none" stroke="black" points="630,-601 630,-621 837,-621 837,-601 630,-601"/>
<text text-anchor="start" x="674" y="-607.733" font-family="Times Roman,serif" font-size="14.00">[URL] URL (0..1) </text>
</a>
<a xlink:href="/idmef_parser/IODEF/Application.html" xlink:title="An identifier that can be used to reference this software.">
<polygon fill="#284f9f" stroke="#284f9f" points="630,-581 630,-601 837,-601 837,-581 630,-581"/>
<polygon fill="none" stroke="black" points="630,-581 630,-601 837,-601 837,-581 630,-581"/>
<text text-anchor="start" x="644" y="-587.733" font-family="Times Roman,serif" font-size="14.00">[STRING] swid (Optional) </text>
</a>
<a xlink:href="/idmef_parser/IODEF/Application.html" xlink:title="An identifier that can be used to reference a particular configuration of this software.">
<polygon fill="#284f9f" stroke="#284f9f" points="630,-561 630,-581 837,-581 837,-561 630,-561"/>
<polygon fill="none" stroke="black" points="630,-561 630,-581 837,-581 837,-561 630,-561"/>
<text text-anchor="start" x="633.5" y="-567.733" font-family="Times Roman,serif" font-size="14.00">[STRING] configid (Optional) </text>
</a>
<a xlink:href="/idmef_parser/IODEF/Application.html" xlink:title="Vendor name of the software.">
<polygon fill="#284f9f" stroke="#284f9f" points="630,-541 630,-561 837,-561 837,-541 630,-541"/>
<polygon fill="none" stroke="black" points="630,-541 630,-561 837,-561 837,-541 630,-541"/>
<text text-anchor="start" x="635.5" y="-547.733" font-family="Times Roman,serif" font-size="14.00">[STRING] vendor (Optional) </text>
</a>
<a xlink:href="/idmef_parser/IODEF/Application.html" xlink:title="Family of the software.">
<polygon fill="#284f9f" stroke="#284f9f" points="630,-521 630,-541 837,-541 837,-521 630,-521"/>
<polygon fill="none" stroke="black" points="630,-521 630,-541 837,-541 837,-521 630,-521"/>
<text text-anchor="start" x="639" y="-527.733" font-family="Times Roman,serif" font-size="14.00">[STRING] family (Optional) </text>
</a>
<a xlink:href="/idmef_parser/IODEF/Application.html" xlink:title="Name of the software.">
<polygon fill="#284f9f" stroke="#284f9f" points="630,-501 630,-521 837,-521 837,-501 630,-501"/>
<polygon fill="none" stroke="black" points="630,-501 630,-521 837,-521 837,-501 630,-501"/>
<text text-anchor="start" x="640.5" y="-507.733" font-family="Times Roman,serif" font-size="14.00">[STRING] name (Optional) </text>
</a>
<a xlink:href="/idmef_parser/IODEF/Application.html" xlink:title="Version of the software.">
<polygon fill="#284f9f" stroke="#284f9f" points="630,-481 630,-501 837,-501 837,-481 630,-481"/>
<polygon fill="none" stroke="black" points="630,-481 630,-501 837,-501 837,-481 630,-481"/>
<text text-anchor="start" x="634.5" y="-487.733" font-family="Times Roman,serif" font-size="14.00">[STRING] version (Optional) </text>
</a>
<a xlink:href="/idmef_parser/IODEF/Application.html" xlink:title="Patch or service pack level of the software.">
<polygon fill="#284f9f" stroke="#284f9f" points="630,-461 630,-481 837,-481 837,-461 630,-461"/>
<polygon fill="none" stroke="black" points="630,-461 630,-481 837,-481 837,-461 630,-461"/>
<text text-anchor="start" x="640.5" y="-467.733" font-family="Times Roman,serif" font-size="14.00">[STRING] patch (Optional) </text>
</a>
</g>
<!-- RecordData&#45;&gt;Application -->
<g id="edge2" class="edge"><title>RecordData&#45;&gt;Application</title>
<path fill="none" stroke="black" d="M463.499,-332.14C500.618,-364.921 552.916,-410.438 600,-449 604.307,-452.527 608.71,-456.101 613.171,-459.693"/>
<polygon fill="black" stroke="black" points="611.264,-462.65 621.255,-466.175 615.643,-457.189 611.264,-462.65"/>
<text text-anchor="middle" x="568" y="-436.4" font-family="Times Roman,serif" font-size="14.00">0..1</text>
</g>
<!-- RecordPattern -->
<g id="node5" class="node"><title>RecordPattern</title>
<a xlink:href="/idmef_parser/IODEF/RecordPattern.html" xlink:title="The RecordPattern class describes where in the content of the RecordItem relevant information can be found. It provides a way to reference subsets of information, identified by a pattern, in a large log file, audit trail, or forensic data. ">
<polygon fill="#997a00" stroke="#997a00" points="609,-415 609,-436 858,-436 858,-415 609,-415"/>
<polygon fill="none" stroke="black" points="609,-415 609,-436 858,-436 858,-415 609,-415"/>
<text text-anchor="start" x="684" y="-422.233" font-family="Times Roman,serif" font-size="14.00">RecordPattern</text>
</a>
<a xlink:href="/idmef_parser/IODEF/RecordPattern.html" xlink:title="Describes the type of pattern being specified in the element content. &#160;The default is &quot;regex&quot;.">
<polygon fill="#ffcc00" stroke="#ffcc00" points="609,-395 609,-415 858,-415 858,-395 609,-395"/>
<polygon fill="none" stroke="black" points="609,-395 609,-415 858,-415 858,-395 609,-395"/>
<text text-anchor="start" x="649" y="-401.733" font-family="Times Roman,serif" font-size="14.00">[ENUM] type (Required) </text>
</a>
<a xlink:href="/idmef_parser/IODEF/RecordPattern.html" xlink:title="A means by which to extend the type attribute. See Section 5.1.">
<polygon fill="#ffcc00" stroke="#ffcc00" points="609,-375 609,-395 858,-395 858,-375 609,-375"/>
<polygon fill="none" stroke="black" points="609,-375 609,-395 858,-395 858,-375 609,-375"/>
<text text-anchor="start" x="630.5" y="-381.733" font-family="Times Roman,serif" font-size="14.00">[STRING] ext&#45;type (Optional) </text>
</a>
<a xlink:href="/idmef_parser/IODEF/RecordPattern.html" xlink:title="Amount of units (determined by the offsetunit attribute) to seek into the RecordItem data before matching the pattern.">
<polygon fill="#ffcc00" stroke="#ffcc00" points="609,-355 609,-375 858,-375 858,-355 609,-355"/>
<polygon fill="none" stroke="black" points="609,-355 609,-375 858,-375 858,-355 609,-355"/>
<text text-anchor="start" x="635.5" y="-361.733" font-family="Times Roman,serif" font-size="14.00">[INTEGER] offset (Optional) </text>
</a>
<a xlink:href="/idmef_parser/IODEF/RecordPattern.html" xlink:title="Describes the units of the offset attribute. The default is &quot;line&quot;.">
<polygon fill="#ffcc00" stroke="#ffcc00" points="609,-335 609,-355 858,-355 858,-335 609,-335"/>
<polygon fill="none" stroke="black" points="609,-335 609,-355 858,-355 858,-335 609,-335"/>
<text text-anchor="start" x="632.5" y="-341.733" font-family="Times Roman,serif" font-size="14.00">[ENUM] offsetunit (Optional) </text>
</a>
<a xlink:href="/idmef_parser/IODEF/RecordPattern.html" xlink:title="A means by which to extend the offsetunit attribute. &#160;See Section 5.1.">
<polygon fill="#ffcc00" stroke="#ffcc00" points="609,-315 609,-335 858,-335 858,-315 609,-315"/>
<polygon fill="none" stroke="black" points="609,-315 609,-335 858,-335 858,-315 609,-315"/>
<text text-anchor="start" x="612.5" y="-321.733" font-family="Times Roman,serif" font-size="14.00">[STRING] ext&#45;offsetunit (Optional) </text>
</a>
<a xlink:href="/idmef_parser/IODEF/RecordPattern.html" xlink:title="Number of types to apply the specified pattern.">
<polygon fill="#ffcc00" stroke="#ffcc00" points="609,-295 609,-315 858,-315 858,-295 609,-295"/>
<polygon fill="none" stroke="black" points="609,-295 609,-315 858,-315 858,-295 609,-295"/>
<text text-anchor="start" x="626.5" y="-301.733" font-family="Times Roman,serif" font-size="14.00">[INTEGER] instance (Optional) </text>
</a>
</g>
<!-- RecordData&#45;&gt;RecordPattern -->
<g id="edge4" class="edge"><title>RecordData&#45;&gt;RecordPattern</title>
<path fill="none" stroke="black" d="M535.51,-317.711C553.495,-322.108 572.163,-326.673 590.528,-331.163"/>
<polygon fill="black" stroke="black" points="589.849,-334.601 600.394,-333.576 591.511,-327.801 589.849,-334.601"/>
<text text-anchor="middle" x="568" y="-331.4" font-family="Times Roman,serif" font-size="14.00">0..*</text>
</g>
<!-- RecordItem -->
<g id="node7" class="node"><title>RecordItem</title>
<a xlink:href="/idmef_parser/IODEF/RecordItem.html" xlink:title="The RecordItem class provides a way to incorporate relevant logs, audit trails, or forensic data to support the conclusions made during the course of analyzing the incident. The class supports both the direct encapsulation of the data, as well as, provides primitives to reference data stored elsewhere. ">
<polygon fill="#997a00" stroke="#997a00" points="623,-249 623,-270 844,-270 844,-249 623,-249"/>
<polygon fill="none" stroke="black" points="623,-249 623,-270 844,-270 844,-249 623,-249"/>
<text text-anchor="start" x="694" y="-256.233" font-family="Times Roman,serif" font-size="14.00">RecordItem</text>
</a>
<a xlink:href="/idmef_parser/IODEF/RecordItem.html" xlink:title="The data type of the element content. &#160;The permitted values for this attribute are shown below. &#160;The default value is &quot;string&quot;.">
<polygon fill="#ffcc00" stroke="#ffcc00" points="623,-229 623,-249 844,-249 844,-229 623,-229"/>
<polygon fill="none" stroke="black" points="623,-229 623,-249 844,-249 844,-229 623,-229"/>
<text text-anchor="start" x="645" y="-235.733" font-family="Times Roman,serif" font-size="14.00">[ENUM] dtype (Required) </text>
</a>
<a xlink:href="/idmef_parser/IODEF/RecordItem.html" xlink:title="A means by which to extend the dtype attribute. &#160;See Section 5.1.">
<polygon fill="#ffcc00" stroke="#ffcc00" points="623,-209 623,-229 844,-229 844,-209 623,-209"/>
<polygon fill="none" stroke="black" points="623,-209 623,-229 844,-229 844,-209 623,-209"/>
<text text-anchor="start" x="626.5" y="-215.733" font-family="Times Roman,serif" font-size="14.00">[STRING] ext&#45;dtype (Optional) </text>
</a>
<a xlink:href="/idmef_parser/IODEF/RecordItem.html" xlink:title="A free&#45;form description of the element content.">
<polygon fill="#ffcc00" stroke="#ffcc00" points="623,-189 623,-209 844,-209 844,-189 623,-189"/>
<polygon fill="none" stroke="black" points="623,-189 623,-209 844,-209 844,-189 623,-189"/>
<text text-anchor="start" x="630" y="-195.733" font-family="Times Roman,serif" font-size="14.00">[STRING] meaning (Optional) </text>
</a>
<a xlink:href="/idmef_parser/IODEF/RecordItem.html" xlink:title="An identifier referencing the format and semantics of the element content.">
<polygon fill="#ffcc00" stroke="#ffcc00" points="623,-169 623,-189 844,-189 844,-169 623,-169"/>
<polygon fill="none" stroke="black" points="623,-169 623,-189 844,-189 844,-169 623,-169"/>
<text text-anchor="start" x="631" y="-175.733" font-family="Times Roman,serif" font-size="14.00">[STRING] formatid (Optional) </text>
</a>
<a xlink:href="/idmef_parser/IODEF/RecordItem.html" xlink:title="This attribute has been defined in Section 3.2.">
<polygon fill="#ffcc00" stroke="#ffcc00" points="623,-149 623,-169 844,-169 844,-149 623,-149"/>
<polygon fill="none" stroke="black" points="623,-149 623,-169 844,-169 844,-149 623,-149"/>
<text text-anchor="start" x="630.5" y="-155.733" font-family="Times Roman,serif" font-size="14.00">[ENUM] restriction (Optional) </text>
</a>
</g>
<!-- RecordData&#45;&gt;RecordItem -->
<g id="edge6" class="edge"><title>RecordData&#45;&gt;RecordItem</title>
<path fill="none" stroke="black" d="M535.51,-258.289C558.158,-252.751 581.89,-246.949 604.733,-241.363"/>
<polygon fill="black" stroke="black" points="605.58,-244.759 614.462,-238.984 603.917,-237.96 605.58,-244.759"/>
<text text-anchor="middle" x="568" y="-257.4" font-family="Times Roman,serif" font-size="14.00">1..*</text>
</g>
<!-- AdditionalData -->
<g id="node9" class="node"><title>AdditionalData</title>
<a xlink:href="/idmef_parser/IODEF/AdditionalData.html" xlink:title="The AdditionalData class serves as an extension mechanism for information not otherwise represented in the data model. For relatively simple information, atomic data types (e.g., integers, strings) are provided with a mechanism to annotate their meaning. The class can also be used to extend the data model (and the associated Schema) to support proprietary extensions by encapsulating entire XML documents conforming to another Schema (e.g., IDMEF). A detailed discussion for extending the data model and the schema can be found in Section 5. ">
<polygon fill="#997a3d" stroke="#997a3d" points="623,-103 623,-124 844,-124 844,-103 623,-103"/>
<polygon fill="none" stroke="black" points="623,-103 623,-124 844,-124 844,-103 623,-103"/>
<text text-anchor="start" x="682" y="-110.233" font-family="Times Roman,serif" font-size="14.00">AdditionalData</text>
</a>
<a xlink:href="/idmef_parser/IODEF/AdditionalData.html" xlink:title="The data type of the element content. &#160;The permitted values for this attribute are shown below. &#160;The default value is &quot;string&quot;.">
<polygon fill="#ffcc66" stroke="#ffcc66" points="623,-83 623,-103 844,-103 844,-83 623,-83"/>
<polygon fill="none" stroke="black" points="623,-83 623,-103 844,-103 844,-83 623,-83"/>
<text text-anchor="start" x="645" y="-89.7333" font-family="Times Roman,serif" font-size="14.00">[ENUM] dtype (Required) </text>
</a>
<a xlink:href="/idmef_parser/IODEF/AdditionalData.html" xlink:title="A means by which to extend the dtype attribute. &#160;See Section 5.1.">
<polygon fill="#ffcc66" stroke="#ffcc66" points="623,-63 623,-83 844,-83 844,-63 623,-63"/>
<polygon fill="none" stroke="black" points="623,-63 623,-83 844,-83 844,-63 623,-63"/>
<text text-anchor="start" x="626.5" y="-69.7333" font-family="Times Roman,serif" font-size="14.00">[STRING] ext&#45;dtype (Optional) </text>
</a>
<a xlink:href="/idmef_parser/IODEF/AdditionalData.html" xlink:title="A free&#45;form description of the element content.">
<polygon fill="#ffcc66" stroke="#ffcc66" points="623,-43 623,-63 844,-63 844,-43 623,-43"/>
<polygon fill="none" stroke="black" points="623,-43 623,-63 844,-63 844,-43 623,-43"/>
<text text-anchor="start" x="630" y="-49.7333" font-family="Times Roman,serif" font-size="14.00">[STRING] meaning (Optional) </text>
</a>
<a xlink:href="/idmef_parser/IODEF/AdditionalData.html" xlink:title="An identifier referencing the format and semantics of the element content.">
<polygon fill="#ffcc66" stroke="#ffcc66" points="623,-23 623,-43 844,-43 844,-23 623,-23"/>
<polygon fill="none" stroke="black" points="623,-23 623,-43 844,-43 844,-23 623,-23"/>
<text text-anchor="start" x="631" y="-29.7333" font-family="Times Roman,serif" font-size="14.00">[STRING] formatid (Optional) </text>
</a>
<a xlink:href="/idmef_parser/IODEF/AdditionalData.html" xlink:title="This attribute has been defined in Section 3.2.">
<polygon fill="#ffcc66" stroke="#ffcc66" points="623,-3 623,-23 844,-23 844,-3 623,-3"/>
<polygon fill="none" stroke="black" points="623,-3 623,-23 844,-23 844,-3 623,-3"/>
<text text-anchor="start" x="630.5" y="-9.73333" font-family="Times Roman,serif" font-size="14.00">[ENUM] restriction (Optional) </text>
</a>
</g>
<!-- RecordData&#45;&gt;AdditionalData -->
<g id="edge8" class="edge"><title>RecordData&#45;&gt;AdditionalData</title>
<path fill="none" stroke="black" d="M463.417,-243.773C499.85,-212.207 551.332,-169.723 600,-137 601.909,-135.716 603.843,-134.435 605.797,-133.158"/>
<polygon fill="black" stroke="black" points="607.957,-135.931 614.487,-127.588 604.179,-130.038 607.957,-135.931"/>
<text text-anchor="middle" x="568" y="-171.4" font-family="Times Roman,serif" font-size="14.00">0..1</text>
</g>
</g>
</svg>
