<?xml version="1.0" encoding="UTF-8" standalone="no"?>
<!DOCTYPE svg PUBLIC "-//W3C//DTD SVG 1.1//EN"
 "http://www.w3.org/Graphics/SVG/1.1/DTD/svg11.dtd">
<!-- Generated by graphviz version 2.38.0 (20140413.2041)
 -->
<!-- Title: RecordData Pages: 1 -->
<svg width="499pt" height="683pt"
 viewBox="0.00 0.00 499.00 682.50" xmlns="http://www.w3.org/2000/svg" xmlns:xlink="http://www.w3.org/1999/xlink">
<g id="graph0" class="graph" transform="scale(1 1) rotate(0) translate(4 678.5)">
<title>RecordData</title>
<polygon fill="white" stroke="none" points="-4,4 -4,-678.5 495,-678.5 495,4 -4,4"/>
<!-- RecordData -->
<g id="node1" class="node"><title>RecordData</title>
<g id="a_node1_0"><a xlink:href="/idmef_parser/IODEF/RecordData.html" xlink:title="The RecordData class groups log or audit data from a given sensor (e.g., IDS, firewall log) and provides a way to annotate the output. ">
<polygon fill="#997a00" stroke="none" points="8,-321 8,-342 204,-342 204,-321 8,-321"/>
<polygon fill="none" stroke="black" points="8,-321 8,-342 204,-342 204,-321 8,-321"/>
<text text-anchor="start" x="73.5" y="-327.8" font-family="Times,serif" font-size="14.00">RecordData</text>
</a>
</g>
<g id="a_node1_1"><a xlink:href="/idmef_parser/IODEF/RecordData.html" xlink:title="Timestamp of the RecordItem data.">
<polygon fill="#ffcc00" stroke="none" points="8,-300 8,-321 204,-321 204,-300 8,-300"/>
<polygon fill="none" stroke="black" points="8,-300 8,-321 204,-321 204,-300 8,-300"/>
<text text-anchor="start" x="53" y="-306.8" font-family="Times,serif" font-size="14.00">[] DateTime (0..1) </text>
</a>
</g>
<g id="a_node1_2"><a xlink:href="/idmef_parser/IODEF/RecordData.html" xlink:title="Free&#45;form textual description of the provided RecordItem data. &#160;At minimum, this description should convey the significance of the provided RecordItem data.">
<polygon fill="#ffcc00" stroke="none" points="8,-279 8,-300 204,-300 204,-279 8,-279"/>
<polygon fill="none" stroke="black" points="8,-279 8,-300 204,-300 204,-279 8,-279"/>
<text text-anchor="start" x="11" y="-285.8" font-family="Times,serif" font-size="14.00">[ML_STRING] Description (0..*) </text>
</a>
</g>
<g id="a_node1_3"><a xlink:href="/idmef_parser/IODEF/RecordData.html" xlink:title="This attribute has been defined in Section 3.2.">
<polygon fill="#ffcc00" stroke="none" points="8,-258 8,-279 204,-279 204,-258 8,-258"/>
<polygon fill="none" stroke="black" points="8,-258 8,-279 204,-279 204,-258 8,-258"/>
<text text-anchor="start" x="20" y="-264.8" font-family="Times,serif" font-size="14.00">[ENUM] restriction (Optional) </text>
</a>
</g>
</g>
<!-- Application -->
<g id="node2" class="node"><title>Application</title>
<g id="a_node2_4"><a xlink:href="/idmef_parser/IODEF/Application.html" xlink:title="The Application class describes an application running on a System providing a Service. ">
<polygon fill="#182f5f" stroke="none" points="292.5,-649 292.5,-670 469.5,-670 469.5,-649 292.5,-649"/>
<polygon fill="none" stroke="black" points="292.5,-649 292.5,-670 469.5,-670 469.5,-649 292.5,-649"/>
<text text-anchor="start" x="349" y="-655.8" font-family="Times,serif" font-size="14.00">Application</text>
</a>
</g>
<g id="a_node2_5"><a xlink:href="/idmef_parser/IODEF/Application.html" xlink:title="A URL describing the application.">
<polygon fill="#284f9f" stroke="none" points="292.5,-628 292.5,-649 469.5,-649 469.5,-628 292.5,-628"/>
<polygon fill="none" stroke="black" points="292.5,-628 292.5,-649 469.5,-649 469.5,-628 292.5,-628"/>
<text text-anchor="start" x="328.5" y="-634.8" font-family="Times,serif" font-size="14.00">[URL] URL (0..1) </text>
</a>
</g>
<g id="a_node2_6"><a xlink:href="/idmef_parser/IODEF/Application.html" xlink:title="An identifier that can be used to reference this software.">
<polygon fill="#284f9f" stroke="none" points="292.5,-607 292.5,-628 469.5,-628 469.5,-607 292.5,-607"/>
<polygon fill="none" stroke="black" points="292.5,-607 292.5,-628 469.5,-628 469.5,-607 292.5,-607"/>
<text text-anchor="start" x="305.5" y="-613.8" font-family="Times,serif" font-size="14.00">[STRING] swid (Optional) </text>
</a>
</g>
<g id="a_node2_7"><a xlink:href="/idmef_parser/IODEF/Application.html" xlink:title="An identifier that can be used to reference a particular configuration of this software.">
<polygon fill="#284f9f" stroke="none" points="292.5,-586 292.5,-607 469.5,-607 469.5,-586 292.5,-586"/>
<polygon fill="none" stroke="black" points="292.5,-586 292.5,-607 469.5,-607 469.5,-586 292.5,-586"/>
<text text-anchor="start" x="295.5" y="-592.8" font-family="Times,serif" font-size="14.00">[STRING] configid (Optional) </text>
</a>
</g>
<g id="a_node2_8"><a xlink:href="/idmef_parser/IODEF/Application.html" xlink:title="Vendor name of the software.">
<polygon fill="#284f9f" stroke="none" points="292.5,-565 292.5,-586 469.5,-586 469.5,-565 292.5,-565"/>
<polygon fill="none" stroke="black" points="292.5,-565 292.5,-586 469.5,-586 469.5,-565 292.5,-565"/>
<text text-anchor="start" x="299.5" y="-571.8" font-family="Times,serif" font-size="14.00">[STRING] vendor (Optional) </text>
</a>
</g>
<g id="a_node2_9"><a xlink:href="/idmef_parser/IODEF/Application.html" xlink:title="Family of the software.">
<polygon fill="#284f9f" stroke="none" points="292.5,-544 292.5,-565 469.5,-565 469.5,-544 292.5,-544"/>
<polygon fill="none" stroke="black" points="292.5,-544 292.5,-565 469.5,-565 469.5,-544 292.5,-544"/>
<text text-anchor="start" x="300" y="-550.8" font-family="Times,serif" font-size="14.00">[STRING] family (Optional) </text>
</a>
</g>
<g id="a_node2_10"><a xlink:href="/idmef_parser/IODEF/Application.html" xlink:title="Name of the software.">
<polygon fill="#284f9f" stroke="none" points="292.5,-523 292.5,-544 469.5,-544 469.5,-523 292.5,-523"/>
<polygon fill="none" stroke="black" points="292.5,-523 292.5,-544 469.5,-544 469.5,-523 292.5,-523"/>
<text text-anchor="start" x="303" y="-529.8" font-family="Times,serif" font-size="14.00">[STRING] name (Optional) </text>
</a>
</g>
<g id="a_node2_11"><a xlink:href="/idmef_parser/IODEF/Application.html" xlink:title="Version of the software.">
<polygon fill="#284f9f" stroke="none" points="292.5,-502 292.5,-523 469.5,-523 469.5,-502 292.5,-502"/>
<polygon fill="none" stroke="black" points="292.5,-502 292.5,-523 469.5,-523 469.5,-502 292.5,-502"/>
<text text-anchor="start" x="298" y="-508.8" font-family="Times,serif" font-size="14.00">[STRING] version (Optional) </text>
</a>
</g>
<g id="a_node2_12"><a xlink:href="/idmef_parser/IODEF/Application.html" xlink:title="Patch or service pack level of the software.">
<polygon fill="#284f9f" stroke="none" points="292.5,-481 292.5,-502 469.5,-502 469.5,-481 292.5,-481"/>
<polygon fill="none" stroke="black" points="292.5,-481 292.5,-502 469.5,-502 469.5,-481 292.5,-481"/>
<text text-anchor="start" x="303.5" y="-487.8" font-family="Times,serif" font-size="14.00">[STRING] patch (Optional) </text>
</a>
</g>
</g>
<!-- RecordData&#45;&gt;Application -->
<g id="edge1" class="edge"><title>RecordData&#45;&gt;Application</title>
<path fill="none" stroke="black" d="M150.912,-346.263C183.514,-380.43 229.203,-427.936 270,-469 272.107,-471.121 274.241,-473.263 276.395,-475.419"/>
<polygon fill="black" stroke="black" points="274.234,-478.207 283.784,-482.795 279.18,-473.253 274.234,-478.207"/>
<text text-anchor="middle" x="241" y="-449.8" font-family="Times,serif" font-size="14.00">0..1</text>
</g>
<!-- RecordPattern -->
<g id="node3" class="node"><title>RecordPattern</title>
<g id="a_node3_13"><a xlink:href="/idmef_parser/IODEF/RecordPattern.html" xlink:title="The RecordPattern class describes where in the content of the RecordItem relevant information can be found. It provides a way to reference subsets of information, identified by a pattern, in a large log file, audit trail, or forensic data. ">
<polygon fill="#997a00" stroke="none" points="278.5,-434 278.5,-455 483.5,-455 483.5,-434 278.5,-434"/>
<polygon fill="none" stroke="black" points="278.5,-434 278.5,-455 483.5,-455 483.5,-434 278.5,-434"/>
<text text-anchor="start" x="342" y="-440.8" font-family="Times,serif" font-size="14.00">RecordPattern</text>
</a>
</g>
<g id="a_node3_14"><a xlink:href="/idmef_parser/IODEF/RecordPattern.html" xlink:title="Describes the type of pattern being specified in the element content. &#160;The default is &quot;regex&quot;.">
<polygon fill="#ffcc00" stroke="none" points="278.5,-413 278.5,-434 483.5,-434 483.5,-413 278.5,-413"/>
<polygon fill="none" stroke="black" points="278.5,-413 278.5,-434 483.5,-434 483.5,-413 278.5,-413"/>
<text text-anchor="start" x="309.5" y="-419.8" font-family="Times,serif" font-size="14.00">[ENUM] type (Required) </text>
</a>
</g>
<g id="a_node3_15"><a xlink:href="/idmef_parser/IODEF/RecordPattern.html" xlink:title="A means by which to extend the type attribute. See Section 5.1.">
<polygon fill="#ffcc00" stroke="none" points="278.5,-392 278.5,-413 483.5,-413 483.5,-392 278.5,-392"/>
<polygon fill="none" stroke="black" points="278.5,-392 278.5,-413 483.5,-413 483.5,-392 278.5,-392"/>
<text text-anchor="start" x="296" y="-398.8" font-family="Times,serif" font-size="14.00">[STRING] ext&#45;type (Optional) </text>
</a>
</g>
<g id="a_node3_16"><a xlink:href="/idmef_parser/IODEF/RecordPattern.html" xlink:title="Amount of units (determined by the offsetunit attribute) to seek into the RecordItem data before matching the pattern.">
<polygon fill="#ffcc00" stroke="none" points="278.5,-371 278.5,-392 483.5,-392 483.5,-371 278.5,-371"/>
<polygon fill="none" stroke="black" points="278.5,-371 278.5,-392 483.5,-392 483.5,-371 278.5,-371"/>
<text text-anchor="start" x="298" y="-377.8" font-family="Times,serif" font-size="14.00">[INTEGER] offset (Optional) </text>
</a>
</g>
<g id="a_node3_17"><a xlink:href="/idmef_parser/IODEF/RecordPattern.html" xlink:title="Describes the units of the offset attribute. The default is &quot;line&quot;.">
<polygon fill="#ffcc00" stroke="none" points="278.5,-350 278.5,-371 483.5,-371 483.5,-350 278.5,-350"/>
<polygon fill="none" stroke="black" points="278.5,-350 278.5,-371 483.5,-371 483.5,-350 278.5,-350"/>
<text text-anchor="start" x="296.5" y="-356.8" font-family="Times,serif" font-size="14.00">[ENUM] offsetunit (Optional) </text>
</a>
</g>
<g id="a_node3_18"><a xlink:href="/idmef_parser/IODEF/RecordPattern.html" xlink:title="A means by which to extend the offsetunit attribute. &#160;See Section 5.1.">
<polygon fill="#ffcc00" stroke="none" points="278.5,-329 278.5,-350 483.5,-350 483.5,-329 278.5,-329"/>
<polygon fill="none" stroke="black" points="278.5,-329 278.5,-350 483.5,-350 483.5,-329 278.5,-329"/>
<text text-anchor="start" x="281.5" y="-335.8" font-family="Times,serif" font-size="14.00">[STRING] ext&#45;offsetunit (Optional) </text>
</a>
</g>
<g id="a_node3_19"><a xlink:href="/idmef_parser/IODEF/RecordPattern.html" xlink:title="Number of types to apply the specified pattern.">
<polygon fill="#ffcc00" stroke="none" points="278.5,-308 278.5,-329 483.5,-329 483.5,-308 278.5,-308"/>
<polygon fill="none" stroke="black" points="278.5,-308 278.5,-329 483.5,-329 483.5,-308 278.5,-308"/>
<text text-anchor="start" x="291.5" y="-314.8" font-family="Times,serif" font-size="14.00">[INTEGER] instance (Optional) </text>
</a>
</g>
</g>
<!-- RecordData&#45;&gt;RecordPattern -->
<g id="edge2" class="edge"><title>RecordData&#45;&gt;RecordPattern</title>
<path fill="none" stroke="black" d="M212.356,-331.703C227.983,-336.406 244.183,-341.281 260.073,-346.062"/>
<polygon fill="black" stroke="black" points="259.334,-349.495 269.918,-349.025 261.351,-342.792 259.334,-349.495"/>
<text text-anchor="middle" x="241" y="-346.8" font-family="Times,serif" font-size="14.00">0..*</text>
</g>
<!-- RecordItem -->
<g id="node4" class="node"><title>RecordItem</title>
<g id="a_node4_20"><a xlink:href="/idmef_parser/IODEF/RecordItem.html" xlink:title="The RecordItem class provides a way to incorporate relevant logs, audit trails, or forensic data to support the conclusions made during the course of analyzing the incident. The class supports both the direct encapsulation of the data, as well as, provides primitives to reference data stored elsewhere. ">
<polygon fill="#997a00" stroke="none" points="289.5,-261 289.5,-282 472.5,-282 472.5,-261 289.5,-261"/>
<polygon fill="none" stroke="black" points="289.5,-261 289.5,-282 472.5,-282 472.5,-261 289.5,-261"/>
<text text-anchor="start" x="348.5" y="-267.8" font-family="Times,serif" font-size="14.00">RecordItem</text>
</a>
</g>
<g id="a_node4_21"><a xlink:href="/idmef_parser/IODEF/RecordItem.html" xlink:title="The data type of the element content. &#160;The permitted values for this attribute are shown below. &#160;The default value is &quot;string&quot;.">
<polygon fill="#ffcc00" stroke="none" points="289.5,-240 289.5,-261 472.5,-261 472.5,-240 289.5,-240"/>
<polygon fill="none" stroke="black" points="289.5,-240 289.5,-261 472.5,-261 472.5,-240 289.5,-240"/>
<text text-anchor="start" x="306" y="-246.8" font-family="Times,serif" font-size="14.00">[ENUM] dtype (Required) </text>
</a>
</g>
<g id="a_node4_22"><a xlink:href="/idmef_parser/IODEF/RecordItem.html" xlink:title="A means by which to extend the dtype attribute. &#160;See Section 5.1.">
<polygon fill="#ffcc00" stroke="none" points="289.5,-219 289.5,-240 472.5,-240 472.5,-219 289.5,-219"/>
<polygon fill="none" stroke="black" points="289.5,-219 289.5,-240 472.5,-240 472.5,-219 289.5,-219"/>
<text text-anchor="start" x="292.5" y="-225.8" font-family="Times,serif" font-size="14.00">[STRING] ext&#45;dtype (Optional) </text>
</a>
</g>
<g id="a_node4_23"><a xlink:href="/idmef_parser/IODEF/RecordItem.html" xlink:title="A free&#45;form description of the element content.">
<polygon fill="#ffcc00" stroke="none" points="289.5,-198 289.5,-219 472.5,-219 472.5,-198 289.5,-198"/>
<polygon fill="none" stroke="black" points="289.5,-198 289.5,-219 472.5,-219 472.5,-198 289.5,-198"/>
<text text-anchor="start" x="294.5" y="-204.8" font-family="Times,serif" font-size="14.00">[STRING] meaning (Optional) </text>
</a>
</g>
<g id="a_node4_24"><a xlink:href="/idmef_parser/IODEF/RecordItem.html" xlink:title="An identifier referencing the format and semantics of the element content.">
<polygon fill="#ffcc00" stroke="none" points="289.5,-177 289.5,-198 472.5,-198 472.5,-177 289.5,-177"/>
<polygon fill="none" stroke="black" points="289.5,-177 289.5,-198 472.5,-198 472.5,-177 289.5,-177"/>
<text text-anchor="start" x="294.5" y="-183.8" font-family="Times,serif" font-size="14.00">[STRING] formatid (Optional) </text>
</a>
</g>
<g id="a_node4_25"><a xlink:href="/idmef_parser/IODEF/RecordItem.html" xlink:title="This attribute has been defined in Section 3.2.">
<polygon fill="#ffcc00" stroke="none" points="289.5,-156 289.5,-177 472.5,-177 472.5,-156 289.5,-156"/>
<polygon fill="none" stroke="black" points="289.5,-156 289.5,-177 472.5,-177 472.5,-156 289.5,-156"/>
<text text-anchor="start" x="295" y="-162.8" font-family="Times,serif" font-size="14.00">[ENUM] restriction (Optional) </text>
</a>
</g>
</g>
<!-- RecordData&#45;&gt;RecordItem -->
<g id="edge3" class="edge"><title>RecordData&#45;&gt;RecordItem</title>
<path fill="none" stroke="black" d="M212.356,-268.683C231.574,-262.971 251.658,-257.001 270.967,-251.261"/>
<polygon fill="black" stroke="black" points="272.091,-254.579 280.679,-248.374 270.096,-247.869 272.091,-254.579"/>
<text text-anchor="middle" x="241" y="-264.8" font-family="Times,serif" font-size="14.00">1..*</text>
</g>
<!-- AdditionalData -->
<g id="node5" class="node"><title>AdditionalData</title>
<g id="a_node5_26"><a xlink:href="/idmef_parser/IODEF/AdditionalData.html" xlink:title="The AdditionalData class serves as an extension mechanism for information not otherwise represented in the data model. For relatively simple information, atomic data types (e.g., integers, strings) are provided with a mechanism to annotate their meaning. The class can also be used to extend the data model (and the associated Schema) to support proprietary extensions by encapsulating entire XML documents conforming to another Schema (e.g., IDMEF). A detailed discussion for extending the data model and the schema can be found in Section 5. ">
<polygon fill="#997a3d" stroke="none" points="289.5,-109 289.5,-130 472.5,-130 472.5,-109 289.5,-109"/>
<polygon fill="none" stroke="black" points="289.5,-109 289.5,-130 472.5,-130 472.5,-109 289.5,-109"/>
<text text-anchor="start" x="339" y="-115.8" font-family="Times,serif" font-size="14.00">AdditionalData</text>
</a>
</g>
<g id="a_node5_27"><a xlink:href="/idmef_parser/IODEF/AdditionalData.html" xlink:title="The data type of the element content. &#160;The permitted values for this attribute are shown below. &#160;The default value is &quot;string&quot;.">
<polygon fill="#ffcc66" stroke="none" points="289.5,-88 289.5,-109 472.5,-109 472.5,-88 289.5,-88"/>
<polygon fill="none" stroke="black" points="289.5,-88 289.5,-109 472.5,-109 472.5,-88 289.5,-88"/>
<text text-anchor="start" x="306" y="-94.8" font-family="Times,serif" font-size="14.00">[ENUM] dtype (Required) </text>
</a>
</g>
<g id="a_node5_28"><a xlink:href="/idmef_parser/IODEF/AdditionalData.html" xlink:title="A means by which to extend the dtype attribute. &#160;See Section 5.1.">
<polygon fill="#ffcc66" stroke="none" points="289.5,-67 289.5,-88 472.5,-88 472.5,-67 289.5,-67"/>
<polygon fill="none" stroke="black" points="289.5,-67 289.5,-88 472.5,-88 472.5,-67 289.5,-67"/>
<text text-anchor="start" x="292.5" y="-73.8" font-family="Times,serif" font-size="14.00">[STRING] ext&#45;dtype (Optional) </text>
</a>
</g>
<g id="a_node5_29"><a xlink:href="/idmef_parser/IODEF/AdditionalData.html" xlink:title="A free&#45;form description of the element content.">
<polygon fill="#ffcc66" stroke="none" points="289.5,-46 289.5,-67 472.5,-67 472.5,-46 289.5,-46"/>
<polygon fill="none" stroke="black" points="289.5,-46 289.5,-67 472.5,-67 472.5,-46 289.5,-46"/>
<text text-anchor="start" x="294.5" y="-52.8" font-family="Times,serif" font-size="14.00">[STRING] meaning (Optional) </text>
</a>
</g>
<g id="a_node5_30"><a xlink:href="/idmef_parser/IODEF/AdditionalData.html" xlink:title="An identifier referencing the format and semantics of the element content.">
<polygon fill="#ffcc66" stroke="none" points="289.5,-25 289.5,-46 472.5,-46 472.5,-25 289.5,-25"/>
<polygon fill="none" stroke="black" points="289.5,-25 289.5,-46 472.5,-46 472.5,-25 289.5,-25"/>
<text text-anchor="start" x="294.5" y="-31.8" font-family="Times,serif" font-size="14.00">[STRING] formatid (Optional) </text>
</a>
</g>
<g id="a_node5_31"><a xlink:href="/idmef_parser/IODEF/AdditionalData.html" xlink:title="This attribute has been defined in Section 3.2.">
<polygon fill="#ffcc66" stroke="none" points="289.5,-4 289.5,-25 472.5,-25 472.5,-4 289.5,-4"/>
<polygon fill="none" stroke="black" points="289.5,-4 289.5,-25 472.5,-25 472.5,-4 289.5,-4"/>
<text text-anchor="start" x="295" y="-10.8" font-family="Times,serif" font-size="14.00">[ENUM] restriction (Optional) </text>
</a>
</g>
</g>
<!-- RecordData&#45;&gt;AdditionalData -->
<g id="edge4" class="edge"><title>RecordData&#45;&gt;AdditionalData</title>
<path fill="none" stroke="black" d="M150.87,-253.988C182.7,-221.558 227.461,-177.873 270,-143 271.007,-142.175 272.022,-141.349 273.045,-140.523"/>
<polygon fill="black" stroke="black" points="275.361,-143.154 281.026,-134.2 271.014,-137.667 275.361,-143.154"/>
<text text-anchor="middle" x="241" y="-179.8" font-family="Times,serif" font-size="14.00">0..1</text>
</g>
</g>
</svg>
