<?xml version="1.0" encoding="UTF-8" standalone="no"?>
<!DOCTYPE svg PUBLIC "-//W3C//DTD SVG 1.1//EN"
 "http://www.w3.org/Graphics/SVG/1.1/DTD/svg11.dtd">
<!-- Generated by graphviz version 2.26.3 (20100126.1600)
 -->
<!-- Title: RecordPattern Pages: 1 -->
<svg width="274pt" height="156pt"
 viewBox="0.00 0.00 274.00 156.00" xmlns="http://www.w3.org/2000/svg" xmlns:xlink="http://www.w3.org/1999/xlink">
<g id="graph1" class="graph" transform="scale(1 1) rotate(0) translate(4 152)">
<title>RecordPattern</title>
<polygon fill="white" stroke="white" points="-4,5 -4,-152 271,-152 271,5 -4,5"/>
<!-- RecordPattern -->
<g id="node1" class="node"><title>RecordPattern</title>
<a xlink:href="/idmef_parser/IODEF/RecordPattern.html" xlink:title="The RecordPattern class describes where in the content of the RecordItem relevant information can be found. It provides a way to reference subsets of information, identified by a pattern, in a large log file, audit trail, or forensic data. ">
<polygon fill="#997a00" stroke="#997a00" points="9,-123 9,-144 258,-144 258,-123 9,-123"/>
<polygon fill="none" stroke="black" points="9,-123 9,-144 258,-144 258,-123 9,-123"/>
<text text-anchor="start" x="84" y="-130.233" font-family="Times Roman,serif" font-size="14.00">RecordPattern</text>
</a>
<a xlink:href="/idmef_parser/IODEF/RecordPattern.html" xlink:title="Describes the type of pattern being specified in the element content. &#160;The default is &quot;regex&quot;.">
<polygon fill="#ffcc00" stroke="#ffcc00" points="9,-103 9,-123 258,-123 258,-103 9,-103"/>
<polygon fill="none" stroke="black" points="9,-103 9,-123 258,-123 258,-103 9,-103"/>
<text text-anchor="start" x="49" y="-109.733" font-family="Times Roman,serif" font-size="14.00">[ENUM] type (Required) </text>
</a>
<a xlink:href="/idmef_parser/IODEF/RecordPattern.html" xlink:title="A means by which to extend the type attribute. See Section 5.1.">
<polygon fill="#ffcc00" stroke="#ffcc00" points="9,-83 9,-103 258,-103 258,-83 9,-83"/>
<polygon fill="none" stroke="black" points="9,-83 9,-103 258,-103 258,-83 9,-83"/>
<text text-anchor="start" x="30.5" y="-89.7333" font-family="Times Roman,serif" font-size="14.00">[STRING] ext&#45;type (Optional) </text>
</a>
<a xlink:href="/idmef_parser/IODEF/RecordPattern.html" xlink:title="Amount of units (determined by the offsetunit attribute) to seek into the RecordItem data before matching the pattern.">
<polygon fill="#ffcc00" stroke="#ffcc00" points="9,-63 9,-83 258,-83 258,-63 9,-63"/>
<polygon fill="none" stroke="black" points="9,-63 9,-83 258,-83 258,-63 9,-63"/>
<text text-anchor="start" x="35.5" y="-69.7333" font-family="Times Roman,serif" font-size="14.00">[INTEGER] offset (Optional) </text>
</a>
<a xlink:href="/idmef_parser/IODEF/RecordPattern.html" xlink:title="Describes the units of the offset attribute. The default is &quot;line&quot;.">
<polygon fill="#ffcc00" stroke="#ffcc00" points="9,-43 9,-63 258,-63 258,-43 9,-43"/>
<polygon fill="none" stroke="black" points="9,-43 9,-63 258,-63 258,-43 9,-43"/>
<text text-anchor="start" x="32.5" y="-49.7333" font-family="Times Roman,serif" font-size="14.00">[ENUM] offsetunit (Optional) </text>
</a>
<a xlink:href="/idmef_parser/IODEF/RecordPattern.html" xlink:title="A means by which to extend the offsetunit attribute. &#160;See Section 5.1.">
<polygon fill="#ffcc00" stroke="#ffcc00" points="9,-23 9,-43 258,-43 258,-23 9,-23"/>
<polygon fill="none" stroke="black" points="9,-23 9,-43 258,-43 258,-23 9,-23"/>
<text text-anchor="start" x="12.5" y="-29.7333" font-family="Times Roman,serif" font-size="14.00">[STRING] ext&#45;offsetunit (Optional) </text>
</a>
<a xlink:href="/idmef_parser/IODEF/RecordPattern.html" xlink:title="Number of types to apply the specified pattern.">
<polygon fill="#ffcc00" stroke="#ffcc00" points="9,-3 9,-23 258,-23 258,-3 9,-3"/>
<polygon fill="none" stroke="black" points="9,-3 9,-23 258,-23 258,-3 9,-3"/>
<text text-anchor="start" x="26.5" y="-9.73333" font-family="Times Roman,serif" font-size="14.00">[INTEGER] instance (Optional) </text>
</a>
</g>
</g>
</svg>
