<?xml version="1.0" encoding="UTF-8" standalone="no"?>
<!DOCTYPE svg PUBLIC "-//W3C//DTD SVG 1.1//EN"
 "http://www.w3.org/Graphics/SVG/1.1/DTD/svg11.dtd">
<!-- Generated by graphviz version 2.38.0 (20140413.2041)
 -->
<!-- Title: Reference Pages: 1 -->
<svg width="245pt" height="100pt"
 viewBox="0.00 0.00 245.00 100.00" xmlns="http://www.w3.org/2000/svg" xmlns:xlink="http://www.w3.org/1999/xlink">
<g id="graph0" class="graph" transform="scale(1 1) rotate(0) translate(4 96)">
<title>Reference</title>
<polygon fill="white" stroke="none" points="-4,4 -4,-96 241,-96 241,4 -4,4"/>
<!-- Reference -->
<g id="node1" class="node"><title>Reference</title>
<g id="a_node1_0"><a xlink:href="/idmef_parser/IODEF/Reference.html" xlink:title="The Reference class is a reference to a vulnerability, IDS alert, malware sample, advisory, or attack technique. A reference consists of a name, a URL to this reference, and an optional description. ">
<polygon fill="#5c3d1f" stroke="none" points="8.5,-67 8.5,-88 229.5,-88 229.5,-67 8.5,-67"/>
<polygon fill="none" stroke="black" points="8.5,-67 8.5,-88 229.5,-88 229.5,-67 8.5,-67"/>
<text text-anchor="start" x="91.5" y="-73.8" font-family="Times,serif" font-size="14.00">Reference</text>
</a>
</g>
<g id="a_node1_1"><a xlink:href="/idmef_parser/IODEF/Reference.html" xlink:title="Name of the reference.">
<polygon fill="#996633" stroke="none" points="8.5,-46 8.5,-67 229.5,-67 229.5,-46 8.5,-46"/>
<polygon fill="none" stroke="black" points="8.5,-46 8.5,-67 229.5,-67 229.5,-46 8.5,-46"/>
<text text-anchor="start" x="11.5" y="-52.8" font-family="Times,serif" font-size="14.00">[ML_STRING] ReferenceName (1..1) </text>
</a>
</g>
<g id="a_node1_2"><a xlink:href="/idmef_parser/IODEF/Reference.html" xlink:title="A URL associated with the reference.">
<polygon fill="#996633" stroke="none" points="8.5,-25 8.5,-46 229.5,-46 229.5,-25 8.5,-25"/>
<polygon fill="none" stroke="black" points="8.5,-25 8.5,-46 229.5,-46 229.5,-25 8.5,-25"/>
<text text-anchor="start" x="66.5" y="-31.8" font-family="Times,serif" font-size="14.00">[URL] URL (0..*) </text>
</a>
</g>
<g id="a_node1_3"><a xlink:href="/idmef_parser/IODEF/Reference.html" xlink:title="A free&#45;form text description of this reference.">
<polygon fill="#996633" stroke="none" points="8.5,-4 8.5,-25 229.5,-25 229.5,-4 8.5,-4"/>
<polygon fill="none" stroke="black" points="8.5,-4 8.5,-25 229.5,-25 229.5,-4 8.5,-4"/>
<text text-anchor="start" x="24" y="-10.8" font-family="Times,serif" font-size="14.00">[ML_STRING] Description (0..*) </text>
</a>
</g>
</g>
</g>
</svg>
