<?xml version="1.0" encoding="UTF-8" standalone="no"?>
<!DOCTYPE svg PUBLIC "-//W3C//DTD SVG 1.1//EN"
 "http://www.w3.org/Graphics/SVG/1.1/DTD/svg11.dtd">
<!-- Generated by graphviz version 2.40.1 (0)
 -->
<!-- Title: RelatedActivity Pages: 1 -->
<svg width="463pt" height="100pt"
 viewBox="0.00 0.00 463.00 100.00" xmlns="http://www.w3.org/2000/svg" xmlns:xlink="http://www.w3.org/1999/xlink">
<g id="graph0" class="graph" transform="scale(1 1) rotate(0) translate(4 96)">
<title>RelatedActivity</title>
<polygon fill="#ffffff" stroke="transparent" points="-4,4 -4,-96 459,-96 459,4 -4,4"/>
<!-- RelatedActivity -->
<g id="node1" class="node">
<title>RelatedActivity</title>
<g id="a_node1_0"><a xlink:href="/idmef_parser/IODEF/RelatedActivity.html" xlink:title="The RelatedActivity class lists either incident tracking numbers of incidents or URLs (not both) that refer to activity related to the one described in the IODEF document. These references may be to local incident tracking numbers or to those of other CSIRTs. ">
<polygon fill="#7aa300" stroke="transparent" points="8.5,-56 8.5,-77 189.5,-77 189.5,-56 8.5,-56"/>
<polygon fill="none" stroke="#000000" points="8.5,-56 8.5,-77 189.5,-77 189.5,-56 8.5,-56"/>
<text text-anchor="start" x="54" y="-62.8" font-family="Nimbus Sans L" font-size="14.00" fill="#000000">RelatedActivity</text>
</a>
</g>
<g id="a_node1_1"><a xlink:href="/idmef_parser/IODEF/RelatedActivity.html" xlink:title="A URL to activity related to this incident.">
<polygon fill="#99cc00" stroke="transparent" points="8.5,-35 8.5,-56 189.5,-56 189.5,-35 8.5,-35"/>
<polygon fill="none" stroke="#000000" points="8.5,-35 8.5,-56 189.5,-56 189.5,-35 8.5,-35"/>
<text text-anchor="start" x="50.5" y="-41.8" font-family="Nimbus Sans L" font-size="14.00" fill="#000000">[URL] URL (1..*)</text>
</a>
</g>
<g id="a_node1_2"><a xlink:href="/idmef_parser/IODEF/RelatedActivity.html" xlink:title="This attribute has been defined in Section 3.2.">
<polygon fill="#99cc00" stroke="transparent" points="8.5,-14 8.5,-35 189.5,-35 189.5,-14 8.5,-14"/>
<polygon fill="none" stroke="#000000" points="8.5,-14 8.5,-35 189.5,-35 189.5,-14 8.5,-14"/>
<text text-anchor="start" x="11.5" y="-20.8" font-family="Nimbus Sans L" font-size="14.00" fill="#000000">[ENUM] restriction (Optional)</text>
</a>
</g>
</g>
<!-- IncidentID -->
<g id="node2" class="node">
<title>IncidentID</title>
<g id="a_node2_3"><a xlink:href="/idmef_parser/IODEF/IncidentID.html" xlink:title="The IncidentID class represents an incident tracking number that is unique in the context of the CSIRT and identifies the activity characterized in an IODEF Document. This identifier would serve as an index into the CSIRT incident handling system. The combination of the name attribute and the string in the element content MUST be a globally unique identifier describing the activity. Documents generated by a given CSIRT MUST NOT reuse the same value unless they are referencing the same incident. ">
<polygon fill="#7aa300" stroke="transparent" points="264.5,-67 264.5,-88 447.5,-88 447.5,-67 264.5,-67"/>
<polygon fill="none" stroke="#000000" points="264.5,-67 264.5,-88 447.5,-88 447.5,-67 264.5,-67"/>
<text text-anchor="start" x="325.5" y="-73.8" font-family="Nimbus Sans L" font-size="14.00" fill="#000000">IncidentID</text>
</a>
</g>
<g id="a_node2_4"><a xlink:href="/idmef_parser/IODEF/IncidentID.html" xlink:title="An identifier describing the CSIRT that created the document. &#160;In order to have a globally unique CSIRT name, the fully qualified domain name associated with the CSIRT MUST be used.">
<polygon fill="#99cc00" stroke="transparent" points="264.5,-46 264.5,-67 447.5,-67 447.5,-46 264.5,-46"/>
<polygon fill="none" stroke="#000000" points="264.5,-46 264.5,-67 447.5,-67 447.5,-46 264.5,-46"/>
<text text-anchor="start" x="273.5" y="-52.8" font-family="Nimbus Sans L" font-size="14.00" fill="#000000">[STRING] name (Required)</text>
</a>
</g>
<g id="a_node2_5"><a xlink:href="/idmef_parser/IODEF/IncidentID.html" xlink:title="An identifier referencing a subset of the named incident.">
<polygon fill="#99cc00" stroke="transparent" points="264.5,-25 264.5,-46 447.5,-46 447.5,-25 264.5,-25"/>
<polygon fill="none" stroke="#000000" points="264.5,-25 264.5,-46 447.5,-46 447.5,-25 264.5,-25"/>
<text text-anchor="start" x="267.5" y="-31.8" font-family="Nimbus Sans L" font-size="14.00" fill="#000000">[STRING] instance (Optional)</text>
</a>
</g>
<g id="a_node2_6"><a xlink:href="/idmef_parser/IODEF/IncidentID.html" xlink:title="This attribute has been defined in Section 3.2.">
<polygon fill="#99cc00" stroke="transparent" points="264.5,-4 264.5,-25 447.5,-25 447.5,-4 264.5,-4"/>
<polygon fill="none" stroke="#000000" points="264.5,-4 264.5,-25 447.5,-25 447.5,-4 264.5,-4"/>
<text text-anchor="start" x="268.5" y="-10.8" font-family="Nimbus Sans L" font-size="14.00" fill="#000000">[ENUM] restriction (Optional)</text>
</a>
</g>
</g>
<!-- RelatedActivity&#45;&gt;IncidentID -->
<g id="edge1" class="edge">
<title>RelatedActivity&#45;&gt;IncidentID</title>
<path fill="none" stroke="#000000" d="M197.1279,-46C213.0704,-46 229.6622,-46 245.8464,-46"/>
<polygon fill="#000000" stroke="#000000" points="245.8613,-49.5001 255.8612,-46 245.8612,-42.5001 245.8613,-49.5001"/>
<text text-anchor="middle" x="226.5" y="-49.8" font-family="Times,serif" font-size="14.00" fill="#000000">1..*</text>
</g>
</g>
</svg>
