<?xml version="1.0" encoding="UTF-8" standalone="no"?>
<!DOCTYPE svg PUBLIC "-//W3C//DTD SVG 1.1//EN"
 "http://www.w3.org/Graphics/SVG/1.1/DTD/svg11.dtd">
<!-- Generated by graphviz version 2.40.1 (0)
 -->
<!-- Title: Service Pages: 1 -->
<svg width="490pt" height="205pt"
 viewBox="0.00 0.00 490.00 205.00" xmlns="http://www.w3.org/2000/svg" xmlns:xlink="http://www.w3.org/1999/xlink">
<g id="graph0" class="graph" transform="scale(1 1) rotate(0) translate(4 201)">
<title>Service</title>
<polygon fill="#ffffff" stroke="transparent" points="-4,4 -4,-201 486,-201 486,4 -4,4"/>
<!-- Service -->
<g id="node1" class="node">
<title>Service</title>
<g id="a_node1_0"><a xlink:href="/idmef_parser/IODEF/Service.html" xlink:title="The Service class describes a network service of a host or network. The service is identified by specific port or list of ports, along with the application listening on that port. ">
<polygon fill="#203f7f" stroke="transparent" points="8,-150.5 8,-171.5 220,-171.5 220,-150.5 8,-150.5"/>
<polygon fill="none" stroke="#000000" points="8,-150.5 8,-171.5 220,-171.5 220,-150.5 8,-150.5"/>
<text text-anchor="start" x="91" y="-157.3" font-family="Nimbus Sans L" font-size="14.00" fill="#000000">Service</text>
</a>
</g>
<g id="a_node1_1"><a xlink:href="/idmef_parser/IODEF/Service.html" xlink:title="A port number.">
<polygon fill="#284f9f" stroke="transparent" points="8,-129.5 8,-150.5 220,-150.5 220,-129.5 8,-129.5"/>
<polygon fill="none" stroke="#000000" points="8,-129.5 8,-150.5 220,-150.5 220,-129.5 8,-129.5"/>
<text text-anchor="start" x="47.5" y="-136.3" font-family="Nimbus Sans L" font-size="14.00" fill="#000000">[INTEGER] Port (0..1)</text>
</a>
</g>
<g id="a_node1_2"><a xlink:href="/idmef_parser/IODEF/Service.html" xlink:title="A list of port numbers formatted according to Section 2.10.">
<polygon fill="#284f9f" stroke="transparent" points="8,-108.5 8,-129.5 220,-129.5 220,-108.5 8,-108.5"/>
<polygon fill="none" stroke="#000000" points="8,-108.5 8,-129.5 220,-129.5 220,-108.5 8,-108.5"/>
<text text-anchor="start" x="36.5" y="-115.3" font-family="Nimbus Sans L" font-size="14.00" fill="#000000">[PORTLIST] Portlist (0..1)</text>
</a>
</g>
<g id="a_node1_3"><a xlink:href="/idmef_parser/IODEF/Service.html" xlink:title="A layer&#45;4 protocol&#45;specific code field (e.g., ICMP code field).">
<polygon fill="#284f9f" stroke="transparent" points="8,-87.5 8,-108.5 220,-108.5 220,-87.5 8,-87.5"/>
<polygon fill="none" stroke="#000000" points="8,-87.5 8,-108.5 220,-108.5 220,-87.5 8,-87.5"/>
<text text-anchor="start" x="28" y="-94.3" font-family="Nimbus Sans L" font-size="14.00" fill="#000000">[INTEGER] ProtoCode (0..1)</text>
</a>
</g>
<g id="a_node1_4"><a xlink:href="/idmef_parser/IODEF/Service.html" xlink:title="A layer&#45;4 protocol specific type field (e.g., ICMP type field).">
<polygon fill="#284f9f" stroke="transparent" points="8,-66.5 8,-87.5 220,-87.5 220,-66.5 8,-66.5"/>
<polygon fill="none" stroke="#000000" points="8,-66.5 8,-87.5 220,-87.5 220,-66.5 8,-66.5"/>
<text text-anchor="start" x="30.5" y="-73.3" font-family="Nimbus Sans L" font-size="14.00" fill="#000000">[INTEGER] ProtoType (0..1)</text>
</a>
</g>
<g id="a_node1_5"><a xlink:href="/idmef_parser/IODEF/Service.html" xlink:title="A layer&#45;4 protocol specific flag field (e.g., TCP flag field).">
<polygon fill="#284f9f" stroke="transparent" points="8,-45.5 8,-66.5 220,-66.5 220,-45.5 8,-45.5"/>
<polygon fill="none" stroke="#000000" points="8,-45.5 8,-66.5 220,-66.5 220,-45.5 8,-45.5"/>
<text text-anchor="start" x="27.5" y="-52.3" font-family="Nimbus Sans L" font-size="14.00" fill="#000000">[INTEGER] ProtoFlags (0..1)</text>
</a>
</g>
<g id="a_node1_6"><a xlink:href="/idmef_parser/IODEF/Service.html" xlink:title="The IANA protocol number.">
<polygon fill="#284f9f" stroke="transparent" points="8,-24.5 8,-45.5 220,-45.5 220,-24.5 8,-24.5"/>
<polygon fill="none" stroke="#000000" points="8,-24.5 8,-45.5 220,-45.5 220,-24.5 8,-24.5"/>
<text text-anchor="start" x="11" y="-31.3" font-family="Nimbus Sans L" font-size="14.00" fill="#000000">[INTEGER] ip_protocol (Required)</text>
</a>
</g>
</g>
<!-- Application -->
<g id="node2" class="node">
<title>Application</title>
<g id="a_node2_7"><a xlink:href="/idmef_parser/IODEF/Application.html" xlink:title="The Application class describes an application running on a System providing a Service. ">
<polygon fill="#203f7f" stroke="transparent" points="295.5,-171.5 295.5,-192.5 474.5,-192.5 474.5,-171.5 295.5,-171.5"/>
<polygon fill="none" stroke="#000000" points="295.5,-171.5 295.5,-192.5 474.5,-192.5 474.5,-171.5 295.5,-171.5"/>
<text text-anchor="start" x="351.5" y="-178.3" font-family="Nimbus Sans L" font-size="14.00" fill="#000000">Application</text>
</a>
</g>
<g id="a_node2_8"><a xlink:href="/idmef_parser/IODEF/Application.html" xlink:title="A URL describing the application.">
<polygon fill="#284f9f" stroke="transparent" points="295.5,-150.5 295.5,-171.5 474.5,-171.5 474.5,-150.5 295.5,-150.5"/>
<polygon fill="none" stroke="#000000" points="295.5,-150.5 295.5,-171.5 474.5,-171.5 474.5,-150.5 295.5,-150.5"/>
<text text-anchor="start" x="335" y="-157.3" font-family="Nimbus Sans L" font-size="14.00" fill="#000000">[URL] URL (0..1)</text>
</a>
</g>
<g id="a_node2_9"><a xlink:href="/idmef_parser/IODEF/Application.html" xlink:title="An identifier that can be used to reference this software.">
<polygon fill="#284f9f" stroke="transparent" points="295.5,-129.5 295.5,-150.5 474.5,-150.5 474.5,-129.5 295.5,-129.5"/>
<polygon fill="none" stroke="#000000" points="295.5,-129.5 295.5,-150.5 474.5,-150.5 474.5,-129.5 295.5,-129.5"/>
<text text-anchor="start" x="308" y="-136.3" font-family="Nimbus Sans L" font-size="14.00" fill="#000000">[STRING] swid (Optional)</text>
</a>
</g>
<g id="a_node2_10"><a xlink:href="/idmef_parser/IODEF/Application.html" xlink:title="An identifier that can be used to reference a particular configuration of this software.">
<polygon fill="#284f9f" stroke="transparent" points="295.5,-108.5 295.5,-129.5 474.5,-129.5 474.5,-108.5 295.5,-108.5"/>
<polygon fill="none" stroke="#000000" points="295.5,-108.5 295.5,-129.5 474.5,-129.5 474.5,-108.5 295.5,-108.5"/>
<text text-anchor="start" x="298.5" y="-115.3" font-family="Nimbus Sans L" font-size="14.00" fill="#000000">[STRING] configid (Optional)</text>
</a>
</g>
<g id="a_node2_11"><a xlink:href="/idmef_parser/IODEF/Application.html" xlink:title="Vendor name of the software.">
<polygon fill="#284f9f" stroke="transparent" points="295.5,-87.5 295.5,-108.5 474.5,-108.5 474.5,-87.5 295.5,-87.5"/>
<polygon fill="none" stroke="#000000" points="295.5,-87.5 295.5,-108.5 474.5,-108.5 474.5,-87.5 295.5,-87.5"/>
<text text-anchor="start" x="301" y="-94.3" font-family="Nimbus Sans L" font-size="14.00" fill="#000000">[STRING] vendor (Optional)</text>
</a>
</g>
<g id="a_node2_12"><a xlink:href="/idmef_parser/IODEF/Application.html" xlink:title="Family of the software.">
<polygon fill="#284f9f" stroke="transparent" points="295.5,-66.5 295.5,-87.5 474.5,-87.5 474.5,-66.5 295.5,-66.5"/>
<polygon fill="none" stroke="#000000" points="295.5,-66.5 295.5,-87.5 474.5,-87.5 474.5,-66.5 295.5,-66.5"/>
<text text-anchor="start" x="303.5" y="-73.3" font-family="Nimbus Sans L" font-size="14.00" fill="#000000">[STRING] family (Optional)</text>
</a>
</g>
<g id="a_node2_13"><a xlink:href="/idmef_parser/IODEF/Application.html" xlink:title="Name of the software.">
<polygon fill="#284f9f" stroke="transparent" points="295.5,-45.5 295.5,-66.5 474.5,-66.5 474.5,-45.5 295.5,-45.5"/>
<polygon fill="none" stroke="#000000" points="295.5,-45.5 295.5,-66.5 474.5,-66.5 474.5,-45.5 295.5,-45.5"/>
<text text-anchor="start" x="304.5" y="-52.3" font-family="Nimbus Sans L" font-size="14.00" fill="#000000">[STRING] name (Optional)</text>
</a>
</g>
<g id="a_node2_14"><a xlink:href="/idmef_parser/IODEF/Application.html" xlink:title="Version of the software.">
<polygon fill="#284f9f" stroke="transparent" points="295.5,-24.5 295.5,-45.5 474.5,-45.5 474.5,-24.5 295.5,-24.5"/>
<polygon fill="none" stroke="#000000" points="295.5,-24.5 295.5,-45.5 474.5,-45.5 474.5,-24.5 295.5,-24.5"/>
<text text-anchor="start" x="300" y="-31.3" font-family="Nimbus Sans L" font-size="14.00" fill="#000000">[STRING] version (Optional)</text>
</a>
</g>
<g id="a_node2_15"><a xlink:href="/idmef_parser/IODEF/Application.html" xlink:title="Patch or service pack level of the software.">
<polygon fill="#284f9f" stroke="transparent" points="295.5,-3.5 295.5,-24.5 474.5,-24.5 474.5,-3.5 295.5,-3.5"/>
<polygon fill="none" stroke="#000000" points="295.5,-3.5 295.5,-24.5 474.5,-24.5 474.5,-3.5 295.5,-3.5"/>
<text text-anchor="start" x="305" y="-10.3" font-family="Nimbus Sans L" font-size="14.00" fill="#000000">[STRING] patch (Optional)</text>
</a>
</g>
</g>
<!-- Service&#45;&gt;Application -->
<g id="edge1" class="edge">
<title>Service&#45;&gt;Application</title>
<path fill="none" stroke="#000000" d="M228.3243,-98.5C244.2923,-98.5 260.659,-98.5 276.5051,-98.5"/>
<polygon fill="#000000" stroke="#000000" points="276.8336,-102.0001 286.8336,-98.5 276.8336,-95.0001 276.8336,-102.0001"/>
<text text-anchor="middle" x="257.5" y="-102.3" font-family="Times,serif" font-size="14.00" fill="#000000">0..*</text>
</g>
</g>
</svg>
