<?xml version="1.0" encoding="UTF-8" standalone="no"?>
<!DOCTYPE svg PUBLIC "-//W3C//DTD SVG 1.1//EN"
 "http://www.w3.org/Graphics/SVG/1.1/DTD/svg11.dtd">
<!-- Generated by graphviz version 2.26.3 (20100126.1600)
 -->
<!-- Title: TimeImpact Pages: 1 -->
<svg width="266pt" height="136pt"
 viewBox="0.00 0.00 266.00 136.00" xmlns="http://www.w3.org/2000/svg" xmlns:xlink="http://www.w3.org/1999/xlink">
<g id="graph1" class="graph" transform="scale(1 1) rotate(0) translate(4 132)">
<title>TimeImpact</title>
<polygon fill="white" stroke="white" points="-4,5 -4,-132 263,-132 263,5 -4,5"/>
<!-- TimeImpact -->
<g id="node1" class="node"><title>TimeImpact</title>
<a xlink:href="#" xlink:title="The TimeImpact class describes the impact of the incident on an organization as a function of time. It provides a way to convey down time and recovery time. ">
<polygon fill="#993016" stroke="#993016" points="9,-103 9,-124 250,-124 250,-103 9,-103"/>
<polygon fill="none" stroke="black" points="9,-103 9,-124 250,-124 250,-103 9,-103"/>
<text text-anchor="start" x="89.5" y="-110.233" font-family="Times Roman,serif" font-size="14.00">TimeImpact</text>
</a>
<a xlink:href="#" xlink:title="An estimate of the relative severity of the activity. &#160;The permitted values are shown below. &#160;There is no default value.">
<polygon fill="#ff5024" stroke="#ff5024" points="9,-83 9,-103 250,-103 250,-83 9,-83"/>
<polygon fill="none" stroke="black" points="9,-83 9,-103 250,-103 250,-83 9,-83"/>
<text text-anchor="start" x="34" y="-89.7333" font-family="Times Roman,serif" font-size="14.00">[ENUM] severity (Optional) </text>
</a>
<a xlink:href="#" xlink:title="Defines the metric in which the time is expressed. &#160;The permitted values are shown below. &#160;There is no default value.">
<polygon fill="#ff5024" stroke="#ff5024" points="9,-63 9,-83 250,-83 250,-63 9,-63"/>
<polygon fill="none" stroke="black" points="9,-63 9,-83 250,-83 250,-63 9,-63"/>
<text text-anchor="start" x="39" y="-69.7333" font-family="Times Roman,serif" font-size="14.00">[ENUM] metric (Required) </text>
</a>
<a xlink:href="#" xlink:title="A means by which to extend the metric attribute. &#160;See Section 5.1.">
<polygon fill="#ff5024" stroke="#ff5024" points="9,-43 9,-63 250,-63 250,-43 9,-43"/>
<polygon fill="none" stroke="black" points="9,-43 9,-63 250,-63 250,-43 9,-43"/>
<text text-anchor="start" x="20" y="-49.7333" font-family="Times Roman,serif" font-size="14.00">[STRING] ext&#45;metric (Optional) </text>
</a>
<a xlink:href="#" xlink:title="Defines a unit of time, that when combined with the metric attribute, fully describes a metric of impact that will be conveyed in the element content. &#160;The permitted values are shown below. &#160;The default value is &quot;hour&quot;.">
<polygon fill="#ff5024" stroke="#ff5024" points="9,-23 9,-43 250,-43 250,-23 9,-23"/>
<polygon fill="none" stroke="black" points="9,-23 9,-43 250,-43 250,-23 9,-23"/>
<text text-anchor="start" x="31.5" y="-29.7333" font-family="Times Roman,serif" font-size="14.00">[ENUM] duration (Required) </text>
</a>
<a xlink:href="#" xlink:title="A means by which to extend the duration attribute. &#160;See Section 5.1.">
<polygon fill="#ff5024" stroke="#ff5024" points="9,-3 9,-23 250,-23 250,-3 9,-3"/>
<polygon fill="none" stroke="black" points="9,-3 9,-23 250,-23 250,-3 9,-3"/>
<text text-anchor="start" x="12.5" y="-9.73333" font-family="Times Roman,serif" font-size="14.00">[STRING] ext&#45;duration (Optional) </text>
</a>
</g>
</g>
</svg>
