<?xml version="1.0" encoding="UTF-8" standalone="no"?>
<!DOCTYPE svg PUBLIC "-//W3C//DTD SVG 1.1//EN"
 "http://www.w3.org/Graphics/SVG/1.1/DTD/svg11.dtd">
<!-- Generated by graphviz version 2.38.0 (20140413.2041)
 -->
<!-- Title: TimeImpact Pages: 1 -->
<svg width="222pt" height="142pt"
 viewBox="0.00 0.00 222.00 142.00" xmlns="http://www.w3.org/2000/svg" xmlns:xlink="http://www.w3.org/1999/xlink">
<g id="graph0" class="graph" transform="scale(1 1) rotate(0) translate(4 138)">
<title>TimeImpact</title>
<polygon fill="white" stroke="none" points="-4,4 -4,-138 218,-138 218,4 -4,4"/>
<!-- TimeImpact -->
<g id="node1" class="node"><title>TimeImpact</title>
<g id="a_node1_0"><a xlink:href="/idmef_parser/IODEF/TimeImpact.html" xlink:title="The TimeImpact class describes the impact of the incident on an organization as a function of time. It provides a way to convey down time and recovery time. ">
<polygon fill="#993016" stroke="none" points="8,-109 8,-130 206,-130 206,-109 8,-109"/>
<polygon fill="none" stroke="black" points="8,-109 8,-130 206,-130 206,-109 8,-109"/>
<text text-anchor="start" x="73" y="-115.8" font-family="Times,serif" font-size="14.00">TimeImpact</text>
</a>
</g>
<g id="a_node1_1"><a xlink:href="/idmef_parser/IODEF/TimeImpact.html" xlink:title="An estimate of the relative severity of the activity. &#160;The permitted values are shown below. &#160;There is no default value.">
<polygon fill="#ff5024" stroke="none" points="8,-88 8,-109 206,-109 206,-88 8,-88"/>
<polygon fill="none" stroke="black" points="8,-88 8,-109 206,-109 206,-88 8,-88"/>
<text text-anchor="start" x="27" y="-94.8" font-family="Times,serif" font-size="14.00">[ENUM] severity (Optional) </text>
</a>
</g>
<g id="a_node1_2"><a xlink:href="/idmef_parser/IODEF/TimeImpact.html" xlink:title="Defines the metric in which the time is expressed. &#160;The permitted values are shown below. &#160;There is no default value.">
<polygon fill="#ff5024" stroke="none" points="8,-67 8,-88 206,-88 206,-67 8,-67"/>
<polygon fill="none" stroke="black" points="8,-67 8,-88 206,-88 206,-67 8,-67"/>
<text text-anchor="start" x="29.5" y="-73.8" font-family="Times,serif" font-size="14.00">[ENUM] metric (Required) </text>
</a>
</g>
<g id="a_node1_3"><a xlink:href="/idmef_parser/IODEF/TimeImpact.html" xlink:title="A means by which to extend the metric attribute. &#160;See Section 5.1.">
<polygon fill="#ff5024" stroke="none" points="8,-46 8,-67 206,-67 206,-46 8,-46"/>
<polygon fill="none" stroke="black" points="8,-46 8,-67 206,-67 206,-46 8,-46"/>
<text text-anchor="start" x="16" y="-52.8" font-family="Times,serif" font-size="14.00">[STRING] ext&#45;metric (Optional) </text>
</a>
</g>
<g id="a_node1_4"><a xlink:href="/idmef_parser/IODEF/TimeImpact.html" xlink:title="Defines a unit of time, that when combined with the metric attribute, fully describes a metric of impact that will be conveyed in the element content. &#160;The permitted values are shown below. &#160;The default value is &quot;hour&quot;.">
<polygon fill="#ff5024" stroke="none" points="8,-25 8,-46 206,-46 206,-25 8,-25"/>
<polygon fill="none" stroke="black" points="8,-25 8,-46 206,-46 206,-25 8,-25"/>
<text text-anchor="start" x="24.5" y="-31.8" font-family="Times,serif" font-size="14.00">[ENUM] duration (Required) </text>
</a>
</g>
<g id="a_node1_5"><a xlink:href="/idmef_parser/IODEF/TimeImpact.html" xlink:title="A means by which to extend the duration attribute. &#160;See Section 5.1.">
<polygon fill="#ff5024" stroke="none" points="8,-4 8,-25 206,-25 206,-4 8,-4"/>
<polygon fill="none" stroke="black" points="8,-4 8,-25 206,-25 206,-4 8,-4"/>
<text text-anchor="start" x="11" y="-10.8" font-family="Times,serif" font-size="14.00">[STRING] ext&#45;duration (Optional) </text>
</a>
</g>
</g>
</g>
</svg>
