<?xml version="1.0" encoding="UTF-8" standalone="no"?>
<!DOCTYPE svg PUBLIC "-//W3C//DTD SVG 1.1//EN"
 "http://www.w3.org/Graphics/SVG/1.1/DTD/svg11.dtd">
<!-- Generated by graphviz version 2.40.1 (0)
 -->
<!-- Title: Contact Pages: 1 -->
<svg width="512pt" height="389pt"
 viewBox="0.00 0.00 512.00 388.50" xmlns="http://www.w3.org/2000/svg" xmlns:xlink="http://www.w3.org/1999/xlink">
<g id="graph0" class="graph" transform="scale(1 1) rotate(0) translate(4 384.5)">
<title>Contact</title>
<polygon fill="#ffffff" stroke="transparent" points="-4,4 -4,-384.5 508,-384.5 508,4 -4,4"/>
<!-- Contact -->
<g id="node1" class="node">
<title>Contact</title>
<g id="a_node1_0"><a xlink:href="#" xlink:title="The Contact class describes contact information for organizations and personnel involved in the incident. This class allows for the naming of the involved party, specifying contact information for them, and identifying their role in the incident. ">
<polygon fill="#a3cc52" stroke="transparent" points="8,-310 8,-331 222,-331 222,-310 8,-310"/>
<polygon fill="none" stroke="#000000" points="8,-310 8,-331 222,-331 222,-310 8,-310"/>
<text text-anchor="start" x="91.5" y="-316.8" font-family="Nimbus Sans L" font-size="14.00" fill="#000000">Contact</text>
</a>
</g>
<g id="a_node1_1"><a xlink:href="#" xlink:title="The name of the contact. &#160;The contact may either be an organization or a person. &#160;The type attribute disambiguates the semantics.">
<polygon fill="#ccff66" stroke="transparent" points="8,-289 8,-310 222,-310 222,-289 8,-289"/>
<polygon fill="none" stroke="#000000" points="8,-289 8,-310 222,-310 222,-289 8,-289"/>
<text text-anchor="start" x="11" y="-295.8" font-family="Nimbus Sans L" font-size="14.00" fill="#000000">[ML_STRING] ContactName (0..1)</text>
</a>
</g>
<g id="a_node1_2"><a xlink:href="#" xlink:title="A free&#45;form description of this contact. &#160;In the case of a person, this is often the organizational title of the individual.">
<polygon fill="#ccff66" stroke="transparent" points="8,-268 8,-289 222,-289 222,-268 8,-268"/>
<polygon fill="none" stroke="#000000" points="8,-268 8,-289 222,-289 222,-268 8,-268"/>
<text text-anchor="start" x="20" y="-274.8" font-family="Nimbus Sans L" font-size="14.00" fill="#000000">[ML_STRING] Description (0..*)</text>
</a>
</g>
<g id="a_node1_3"><a xlink:href="#" xlink:title="The telephone number of the contact.">
<polygon fill="#ccff66" stroke="transparent" points="8,-247 8,-268 222,-268 222,-247 8,-247"/>
<polygon fill="none" stroke="#000000" points="8,-247 8,-268 222,-268 222,-247 8,-247"/>
<text text-anchor="start" x="62" y="-253.8" font-family="Nimbus Sans L" font-size="14.00" fill="#000000">[] Telephone (0..*)</text>
</a>
</g>
<g id="a_node1_4"><a xlink:href="#" xlink:title="The facsimile telephone number of the contact.">
<polygon fill="#ccff66" stroke="transparent" points="8,-226 8,-247 222,-247 222,-226 8,-226"/>
<polygon fill="none" stroke="#000000" points="8,-226 8,-247 222,-247 222,-226 8,-226"/>
<text text-anchor="start" x="80.5" y="-232.8" font-family="Nimbus Sans L" font-size="14.00" fill="#000000">[] Fax (0..1)</text>
</a>
</g>
<g id="a_node1_5"><a xlink:href="#" xlink:title="The timezone in which the contact resides formatted according to Section 2.9.">
<polygon fill="#ccff66" stroke="transparent" points="8,-205 8,-226 222,-226 222,-205 8,-205"/>
<polygon fill="none" stroke="#000000" points="8,-205 8,-226 222,-226 222,-205 8,-205"/>
<text text-anchor="start" x="26" y="-211.8" font-family="Nimbus Sans L" font-size="14.00" fill="#000000">[TIMEZONE] Timezone (0..1)</text>
</a>
</g>
<g id="a_node1_6"><a xlink:href="#" xlink:title="Indicates the role the contact fulfills. &#160;This attribute is defined as an enumerated list:">
<polygon fill="#ccff66" stroke="transparent" points="8,-184 8,-205 222,-205 222,-184 8,-184"/>
<polygon fill="none" stroke="#000000" points="8,-184 8,-205 222,-205 222,-184 8,-184"/>
<text text-anchor="start" x="44" y="-190.8" font-family="Nimbus Sans L" font-size="14.00" fill="#000000">[ENUM] role (Required)</text>
</a>
</g>
<g id="a_node1_7"><a xlink:href="#" xlink:title="A means by which to extend the role attribute. See Section 5.1.">
<polygon fill="#ccff66" stroke="transparent" points="8,-163 8,-184 222,-184 222,-163 8,-163"/>
<polygon fill="none" stroke="#000000" points="8,-163 8,-184 222,-184 222,-163 8,-163"/>
<text text-anchor="start" x="29.5" y="-169.8" font-family="Nimbus Sans L" font-size="14.00" fill="#000000">[STRING] ext&#45;role (Optional)</text>
</a>
</g>
<g id="a_node1_8"><a xlink:href="#" xlink:title="Indicates the type of contact being described. This attribute is defined as an enumerated list:">
<polygon fill="#ccff66" stroke="transparent" points="8,-142 8,-163 222,-163 222,-142 8,-142"/>
<polygon fill="none" stroke="#000000" points="8,-142 8,-163 222,-163 222,-142 8,-142"/>
<text text-anchor="start" x="42.5" y="-148.8" font-family="Nimbus Sans L" font-size="14.00" fill="#000000">[ENUM] type (Required)</text>
</a>
</g>
<g id="a_node1_9"><a xlink:href="#" xlink:title="A means by which to extend the type attribute. See Section 5.1.">
<polygon fill="#ccff66" stroke="transparent" points="8,-121 8,-142 222,-142 222,-121 8,-121"/>
<polygon fill="none" stroke="#000000" points="8,-121 8,-142 222,-142 222,-121 8,-121"/>
<text text-anchor="start" x="28" y="-127.8" font-family="Nimbus Sans L" font-size="14.00" fill="#000000">[STRING] ext&#45;type (Optional)</text>
</a>
</g>
<g id="a_node1_10"><a xlink:href="#" xlink:title="This attribute is defined in Section 3.2.">
<polygon fill="#ccff66" stroke="transparent" points="8,-100 8,-121 222,-121 222,-100 8,-100"/>
<polygon fill="none" stroke="#000000" points="8,-100 8,-121 222,-121 222,-100 8,-100"/>
<text text-anchor="start" x="27.5" y="-106.8" font-family="Nimbus Sans L" font-size="14.00" fill="#000000">[ENUM] restriction (Optional)</text>
</a>
</g>
</g>
<!-- Contact&#45;&gt;Contact -->
<g id="edge4" class="edge">
<title>Contact&#45;&gt;Contact</title>
<path fill="none" stroke="#000000" d="M93.5437,-335.7499C98.0042,-346.6463 105.1563,-353.5 115,-353.5 121.7676,-353.5 127.2629,-350.2605 131.4861,-344.6951"/>
<polygon fill="#000000" stroke="#000000" points="134.6588,-346.1911 136.4563,-335.7499 128.5399,-342.7912 134.6588,-346.1911"/>
<text text-anchor="middle" x="115" y="-357.3" font-family="Times,serif" font-size="14.00" fill="#000000">0..*</text>
</g>
<!-- RegistryHandle -->
<g id="node2" class="node">
<title>RegistryHandle</title>
<g id="a_node2_11"><a xlink:href="#" xlink:title="The RegistryHandle class represents a handle into an Internet registry or community&#45;specific database. The handle is specified in the element content and the type attribute specifies the database. ">
<polygon fill="#a3cc52" stroke="transparent" points="297.5,-355 297.5,-376 496.5,-376 496.5,-355 297.5,-355"/>
<polygon fill="none" stroke="#000000" points="297.5,-355 297.5,-376 496.5,-376 496.5,-355 297.5,-355"/>
<text text-anchor="start" x="350.5" y="-361.8" font-family="Nimbus Sans L" font-size="14.00" fill="#000000">RegistryHandle</text>
</a>
</g>
<g id="a_node2_12"><a xlink:href="#" xlink:title="The database to which the handle belongs. &#160;The default value is &#39;local&#39;. &#160;The possible values are:">
<polygon fill="#ccff66" stroke="transparent" points="297.5,-334 297.5,-355 496.5,-355 496.5,-334 297.5,-334"/>
<polygon fill="none" stroke="#000000" points="297.5,-334 297.5,-355 496.5,-355 496.5,-334 297.5,-334"/>
<text text-anchor="start" x="315" y="-340.8" font-family="Nimbus Sans L" font-size="14.00" fill="#000000">[ENUM] registry (Required)</text>
</a>
</g>
<g id="a_node2_13"><a xlink:href="#" xlink:title="A means by which to extend the registry attribute. &#160;See Section 5.1.">
<polygon fill="#ccff66" stroke="transparent" points="297.5,-313 297.5,-334 496.5,-334 496.5,-313 297.5,-313"/>
<polygon fill="none" stroke="#000000" points="297.5,-313 297.5,-334 496.5,-334 496.5,-313 297.5,-313"/>
<text text-anchor="start" x="300.5" y="-319.8" font-family="Nimbus Sans L" font-size="14.00" fill="#000000">[STRING] ext&#45;registry (Optional)</text>
</a>
</g>
</g>
<!-- Contact&#45;&gt;RegistryHandle -->
<g id="edge1" class="edge">
<title>Contact&#45;&gt;RegistryHandle</title>
<path fill="none" stroke="#000000" d="M230.087,-273.5414C249.6433,-282.9389 269.8262,-292.404 289,-301 292.226,-302.4463 295.5143,-303.9008 298.8412,-305.3557"/>
<polygon fill="#000000" stroke="#000000" points="297.7323,-308.6895 308.2998,-309.4502 300.5132,-302.2655 297.7323,-308.6895"/>
<text text-anchor="middle" x="259.5" y="-295.8" font-family="Times,serif" font-size="14.00" fill="#000000">0..*</text>
</g>
<!-- PostalAddress -->
<g id="node3" class="node">
<title>PostalAddress</title>
<g id="a_node3_14"><a xlink:href="#" xlink:title="The PostalAddress class specifies a postal address formatted according to the POSTAL data type (Section 2.11). ">
<polygon fill="#a3cc52" stroke="transparent" points="309.5,-266 309.5,-287 484.5,-287 484.5,-266 309.5,-266"/>
<polygon fill="none" stroke="#000000" points="309.5,-266 309.5,-287 484.5,-287 484.5,-266 309.5,-266"/>
<text text-anchor="start" x="353" y="-272.8" font-family="Nimbus Sans L" font-size="14.00" fill="#000000">PostalAddress</text>
</a>
</g>
<g id="a_node3_15"><a xlink:href="#" xlink:title="A free&#45;form description of the element content.">
<polygon fill="#ccff66" stroke="transparent" points="309.5,-245 309.5,-266 484.5,-266 484.5,-245 309.5,-245"/>
<polygon fill="none" stroke="#000000" points="309.5,-245 309.5,-266 484.5,-266 484.5,-245 309.5,-245"/>
<text text-anchor="start" x="312.5" y="-251.8" font-family="Nimbus Sans L" font-size="14.00" fill="#000000">[ENUM] meaning (Optional)</text>
</a>
</g>
<g id="a_node3_16"><a xlink:href="#" xlink:title="A valid language code per RFC 4646 [7] constrained by the definition of &quot;xs:language&quot;. &#160;The interpretation of this code is described in Section 6.">
<polygon fill="#ccff66" stroke="transparent" points="309.5,-224 309.5,-245 484.5,-245 484.5,-224 309.5,-224"/>
<polygon fill="none" stroke="#000000" points="309.5,-224 309.5,-245 484.5,-245 484.5,-224 309.5,-224"/>
<text text-anchor="start" x="324.5" y="-230.8" font-family="Nimbus Sans L" font-size="14.00" fill="#000000">[ENUM] lang (Required)</text>
</a>
</g>
</g>
<!-- Contact&#45;&gt;PostalAddress -->
<g id="edge2" class="edge">
<title>Contact&#45;&gt;PostalAddress</title>
<path fill="none" stroke="#000000" d="M230.309,-232.3849C250.3123,-235.2273 271.0246,-238.1705 290.7568,-240.9743"/>
<polygon fill="#000000" stroke="#000000" points="290.273,-244.4407 300.666,-242.3824 291.2578,-237.5103 290.273,-244.4407"/>
<text text-anchor="middle" x="259.5" y="-240.8" font-family="Times,serif" font-size="14.00" fill="#000000">0..1</text>
</g>
<!-- Email -->
<g id="node4" class="node">
<title>Email</title>
<g id="a_node4_17"><a xlink:href="#" xlink:title="The Email class specifies an email address formatted according to EMAIL data type (Section 2.14). ">
<polygon fill="#a3cc52" stroke="transparent" points="309.5,-177 309.5,-198 484.5,-198 484.5,-177 309.5,-177"/>
<polygon fill="none" stroke="#000000" points="309.5,-177 309.5,-198 484.5,-198 484.5,-177 309.5,-177"/>
<text text-anchor="start" x="379.5" y="-183.8" font-family="Nimbus Sans L" font-size="14.00" fill="#000000">Email</text>
</a>
</g>
<g id="a_node4_18"><a xlink:href="#" xlink:title="A free&#45;form description of the element content (e.g., hours of coverage for a given number).">
<polygon fill="#ccff66" stroke="transparent" points="309.5,-156 309.5,-177 484.5,-177 484.5,-156 309.5,-156"/>
<polygon fill="none" stroke="#000000" points="309.5,-156 309.5,-177 484.5,-177 484.5,-156 309.5,-156"/>
<text text-anchor="start" x="312.5" y="-162.8" font-family="Nimbus Sans L" font-size="14.00" fill="#000000">[ENUM] meaning (Optional)</text>
</a>
</g>
</g>
<!-- Contact&#45;&gt;Email -->
<g id="edge3" class="edge">
<title>Contact&#45;&gt;Email</title>
<path fill="none" stroke="#000000" d="M230.309,-200.0247C250.3123,-197.2534 271.0246,-194.3838 290.7568,-191.65"/>
<polygon fill="#000000" stroke="#000000" points="291.2409,-195.1165 300.666,-190.2772 290.2802,-188.1827 291.2409,-195.1165"/>
<text text-anchor="middle" x="259.5" y="-199.8" font-family="Times,serif" font-size="14.00" fill="#000000">0..*</text>
</g>
<!-- AdditionalData -->
<g id="node5" class="node">
<title>AdditionalData</title>
<g id="a_node5_19"><a xlink:href="#" xlink:title="The AdditionalData class serves as an extension mechanism for information not otherwise represented in the data model. For relatively simple information, atomic data types (e.g., integers, strings) are provided with a mechanism to annotate their meaning. The class can also be used to extend the data model (and the associated Schema) to support proprietary extensions by encapsulating entire XML documents conforming to another Schema (e.g., IDMEF). A detailed discussion for extending the data model and the schema can be found in Section 5. ">
<polygon fill="#cca352" stroke="transparent" points="303.5,-109 303.5,-130 490.5,-130 490.5,-109 303.5,-109"/>
<polygon fill="none" stroke="#000000" points="303.5,-109 303.5,-130 490.5,-130 490.5,-109 303.5,-109"/>
<text text-anchor="start" x="353" y="-115.8" font-family="Nimbus Sans L" font-size="14.00" fill="#000000">AdditionalData</text>
</a>
</g>
<g id="a_node5_20"><a xlink:href="#" xlink:title="The data type of the element content. &#160;The permitted values for this attribute are shown below. &#160;The default value is &quot;string&quot;.">
<polygon fill="#ffcc66" stroke="transparent" points="303.5,-88 303.5,-109 490.5,-109 490.5,-88 303.5,-88"/>
<polygon fill="none" stroke="#000000" points="303.5,-88 303.5,-109 490.5,-109 490.5,-88 303.5,-88"/>
<text text-anchor="start" x="320.5" y="-94.8" font-family="Nimbus Sans L" font-size="14.00" fill="#000000">[ENUM] dtype (Required)</text>
</a>
</g>
<g id="a_node5_21"><a xlink:href="#" xlink:title="A means by which to extend the dtype attribute. &#160;See Section 5.1.">
<polygon fill="#ffcc66" stroke="transparent" points="303.5,-67 303.5,-88 490.5,-88 490.5,-67 303.5,-67"/>
<polygon fill="none" stroke="#000000" points="303.5,-67 303.5,-88 490.5,-88 490.5,-67 303.5,-67"/>
<text text-anchor="start" x="306.5" y="-73.8" font-family="Nimbus Sans L" font-size="14.00" fill="#000000">[STRING] ext&#45;dtype (Optional)</text>
</a>
</g>
<g id="a_node5_22"><a xlink:href="#" xlink:title="A free&#45;form description of the element content.">
<polygon fill="#ffcc66" stroke="transparent" points="303.5,-46 303.5,-67 490.5,-67 490.5,-46 303.5,-46"/>
<polygon fill="none" stroke="#000000" points="303.5,-46 303.5,-67 490.5,-67 490.5,-46 303.5,-46"/>
<text text-anchor="start" x="307.5" y="-52.8" font-family="Nimbus Sans L" font-size="14.00" fill="#000000">[STRING] meaning (Optional)</text>
</a>
</g>
<g id="a_node5_23"><a xlink:href="#" xlink:title="An identifier referencing the format and semantics of the element content.">
<polygon fill="#ffcc66" stroke="transparent" points="303.5,-25 303.5,-46 490.5,-46 490.5,-25 303.5,-25"/>
<polygon fill="none" stroke="#000000" points="303.5,-25 303.5,-46 490.5,-46 490.5,-25 303.5,-25"/>
<text text-anchor="start" x="309" y="-31.8" font-family="Nimbus Sans L" font-size="14.00" fill="#000000">[STRING] formatid (Optional)</text>
</a>
</g>
<g id="a_node5_24"><a xlink:href="#" xlink:title="This attribute has been defined in Section 3.2.">
<polygon fill="#ffcc66" stroke="transparent" points="303.5,-4 303.5,-25 490.5,-25 490.5,-4 303.5,-4"/>
<polygon fill="none" stroke="#000000" points="303.5,-4 303.5,-25 490.5,-25 490.5,-4 303.5,-4"/>
<text text-anchor="start" x="309.5" y="-10.8" font-family="Nimbus Sans L" font-size="14.00" fill="#000000">[ENUM] restriction (Optional)</text>
</a>
</g>
</g>
<!-- Contact&#45;&gt;AdditionalData -->
<g id="edge5" class="edge">
<title>Contact&#45;&gt;AdditionalData</title>
<path fill="none" stroke="#000000" d="M230.309,-154.9661C248.7073,-145.2278 267.7055,-135.1719 285.9891,-125.4942"/>
<polygon fill="#000000" stroke="#000000" points="287.7007,-128.5484 294.9016,-120.7768 284.4259,-122.3616 287.7007,-128.5484"/>
<text text-anchor="middle" x="259.5" y="-144.8" font-family="Times,serif" font-size="14.00" fill="#000000">0..*</text>
</g>
</g>
</svg>
