<?xml version="1.0" encoding="UTF-8" standalone="no"?>
<!DOCTYPE svg PUBLIC "-//W3C//DTD SVG 1.1//EN"
 "http://www.w3.org/Graphics/SVG/1.1/DTD/svg11.dtd">
<!-- Generated by graphviz version 2.40.1 (0)
 -->
<!-- Title: Email Pages: 1 -->
<svg width="199pt" height="58pt"
 viewBox="0.00 0.00 199.00 58.00" xmlns="http://www.w3.org/2000/svg" xmlns:xlink="http://www.w3.org/1999/xlink">
<g id="graph0" class="graph" transform="scale(1 1) rotate(0) translate(4 54)">
<title>Email</title>
<polygon fill="#ffffff" stroke="transparent" points="-4,4 -4,-54 195,-54 195,4 -4,4"/>
<!-- Email -->
<g id="node1" class="node">
<title>Email</title>
<g id="a_node1_0"><a xlink:href="#" xlink:title="The Email class specifies an email address formatted according to EMAIL data type (Section 2.14). ">
<polygon fill="#a3cc52" stroke="transparent" points="8.5,-25 8.5,-46 183.5,-46 183.5,-25 8.5,-25"/>
<polygon fill="none" stroke="#000000" points="8.5,-25 8.5,-46 183.5,-46 183.5,-25 8.5,-25"/>
<text text-anchor="start" x="78.5" y="-31.8" font-family="Nimbus Sans L" font-size="14.00" fill="#000000">Email</text>
</a>
</g>
<g id="a_node1_1"><a xlink:href="#" xlink:title="A free&#45;form description of the element content (e.g., hours of coverage for a given number).">
<polygon fill="#ccff66" stroke="transparent" points="8.5,-4 8.5,-25 183.5,-25 183.5,-4 8.5,-4"/>
<polygon fill="none" stroke="#000000" points="8.5,-4 8.5,-25 183.5,-25 183.5,-4 8.5,-4"/>
<text text-anchor="start" x="11.5" y="-10.8" font-family="Nimbus Sans L" font-size="14.00" fill="#000000">[ENUM] meaning (Optional)</text>
</a>
</g>
</g>
</g>
</svg>
