<?xml version="1.0" encoding="UTF-8" standalone="no"?>
<!DOCTYPE svg PUBLIC "-//W3C//DTD SVG 1.1//EN"
 "http://www.w3.org/Graphics/SVG/1.1/DTD/svg11.dtd">
<!-- Generated by graphviz version 2.40.1 (0)
 -->
<!-- Title: History Pages: 1 -->
<svg width="1039pt" height="491pt"
 viewBox="0.00 0.00 1039.00 491.00" xmlns="http://www.w3.org/2000/svg" xmlns:xlink="http://www.w3.org/1999/xlink">
<g id="graph0" class="graph" transform="scale(1 1) rotate(0) translate(4 487)">
<title>History</title>
<polygon fill="#ffffff" stroke="transparent" points="-4,4 -4,-487 1035,-487 1035,4 -4,4"/>
<!-- History -->
<g id="node1" class="node">
<title>History</title>
<g id="a_node1_0"><a xlink:href="#" xlink:title="The History class is a log of the significant events or actions performed by the involved parties during the course of handling the incident. ">
<polygon fill="#008d40" stroke="transparent" points="8.5,-220 8.5,-241 189.5,-241 189.5,-220 8.5,-220"/>
<polygon fill="none" stroke="#000000" points="8.5,-220 8.5,-241 189.5,-241 189.5,-220 8.5,-220"/>
<text text-anchor="start" x="77.5" y="-226.8" font-family="Nimbus Sans L" font-size="14.00" fill="#000000">History</text>
</a>
</g>
<g id="a_node1_1"><a xlink:href="#" xlink:title="This attribute is defined in Section 3.2.">
<polygon fill="#00b050" stroke="transparent" points="8.5,-199 8.5,-220 189.5,-220 189.5,-199 8.5,-199"/>
<polygon fill="none" stroke="#000000" points="8.5,-199 8.5,-220 189.5,-220 189.5,-199 8.5,-199"/>
<text text-anchor="start" x="11.5" y="-205.8" font-family="Nimbus Sans L" font-size="14.00" fill="#000000">[ENUM] restriction (Optional)</text>
</a>
</g>
</g>
<!-- HistoryItem -->
<g id="node2" class="node">
<title>HistoryItem</title>
<g id="a_node2_2"><a xlink:href="#" xlink:title="The HistoryItem class is an entry in the History (Section 3.11) log that documents a particular action or event that occurred in the course of handling the incident. The details of the entry are a free&#45;form description, but each can be categorized with the type attribute. ">
<polygon fill="#008d40" stroke="transparent" points="264,-262 264,-283 460,-283 460,-262 264,-262"/>
<polygon fill="none" stroke="#000000" points="264,-262 264,-283 460,-283 460,-262 264,-262"/>
<text text-anchor="start" x="327" y="-268.8" font-family="Nimbus Sans L" font-size="14.00" fill="#000000">HistoryItem</text>
</a>
</g>
<g id="a_node2_3"><a xlink:href="#" xlink:title="Timestamp of this entry in the history log (e.g., when the action described in the Description was taken).">
<polygon fill="#00b050" stroke="transparent" points="264,-241 264,-262 460,-262 460,-241 264,-241"/>
<polygon fill="none" stroke="#000000" points="264,-241 264,-262 460,-262 460,-241 264,-241"/>
<text text-anchor="start" x="309" y="-247.8" font-family="Nimbus Sans L" font-size="14.00" fill="#000000">[] DateTime (1..1)</text>
</a>
</g>
<g id="a_node2_4"><a xlink:href="#" xlink:title="A free&#45;form textual description of the action or event.">
<polygon fill="#00b050" stroke="transparent" points="264,-220 264,-241 460,-241 460,-220 264,-220"/>
<polygon fill="none" stroke="#000000" points="264,-220 264,-241 460,-241 460,-220 264,-220"/>
<text text-anchor="start" x="267" y="-226.8" font-family="Nimbus Sans L" font-size="14.00" fill="#000000">[ML_STRING] Description (0..*)</text>
</a>
</g>
<g id="a_node2_5"><a xlink:href="#" xlink:title="This attribute has been defined in Section 3.2.">
<polygon fill="#00b050" stroke="transparent" points="264,-199 264,-220 460,-220 460,-199 264,-199"/>
<polygon fill="none" stroke="#000000" points="264,-199 264,-220 460,-220 460,-199 264,-199"/>
<text text-anchor="start" x="274.5" y="-205.8" font-family="Nimbus Sans L" font-size="14.00" fill="#000000">[ENUM] restriction (Optional)</text>
</a>
</g>
<g id="a_node2_6"><a xlink:href="#" xlink:title="Classifies a performed action or occurrence documented in this history log entry. &#160;As activity will likely have been instigated either through a previously conveyed expectation or internal investigation, this attribute is identical to the category attribute of the Expectation class. &#160;The difference is only one of tense. &#160;When an action is in this class, it has been completed. &#160;See Section 3.13.">
<polygon fill="#00b050" stroke="transparent" points="264,-178 264,-199 460,-199 460,-178 264,-178"/>
<polygon fill="none" stroke="#000000" points="264,-178 264,-199 460,-199 460,-178 264,-178"/>
<text text-anchor="start" x="284" y="-184.8" font-family="Nimbus Sans L" font-size="14.00" fill="#000000">[ENUM] action (Required)</text>
</a>
</g>
<g id="a_node2_7"><a xlink:href="#" xlink:title="A means by which to extend the action attribute. &#160;See Section 5.1.">
<polygon fill="#00b050" stroke="transparent" points="264,-157 264,-178 460,-178 460,-157 264,-157"/>
<polygon fill="none" stroke="#000000" points="264,-157 264,-178 460,-178 460,-157 264,-157"/>
<text text-anchor="start" x="270" y="-163.8" font-family="Nimbus Sans L" font-size="14.00" fill="#000000">[STRING] ext&#45;action (Optional)</text>
</a>
</g>
</g>
<!-- History&#45;&gt;HistoryItem -->
<g id="edge9" class="edge">
<title>History&#45;&gt;HistoryItem</title>
<path fill="none" stroke="#000000" d="M197.3674,-220C213.2097,-220 229.7297,-220 245.929,-220"/>
<polygon fill="#000000" stroke="#000000" points="245.965,-223.5001 255.9649,-220 245.9649,-216.5001 245.965,-223.5001"/>
<text text-anchor="middle" x="226.5" y="-223.8" font-family="Times,serif" font-size="14.00" fill="#000000">1..*</text>
</g>
<!-- IncidentID -->
<g id="node3" class="node">
<title>IncidentID</title>
<g id="a_node3_8"><a xlink:href="#" xlink:title="The IncidentID class represents an incident tracking number that is unique in the context of the CSIRT and identifies the activity characterized in an IODEF Document. This identifier would serve as an index into the CSIRT incident handling system. The combination of the name attribute and the string in the element content MUST be a globally unique identifier describing the activity. Documents generated by a given CSIRT MUST NOT reuse the same value unless they are referencing the same incident. ">
<polygon fill="#7aa300" stroke="transparent" points="551,-458 551,-479 734,-479 734,-458 551,-458"/>
<polygon fill="none" stroke="#000000" points="551,-458 551,-479 734,-479 734,-458 551,-458"/>
<text text-anchor="start" x="612" y="-464.8" font-family="Nimbus Sans L" font-size="14.00" fill="#000000">IncidentID</text>
</a>
</g>
<g id="a_node3_9"><a xlink:href="#" xlink:title="An identifier describing the CSIRT that created the document. &#160;In order to have a globally unique CSIRT name, the fully qualified domain name associated with the CSIRT MUST be used.">
<polygon fill="#99cc00" stroke="transparent" points="551,-437 551,-458 734,-458 734,-437 551,-437"/>
<polygon fill="none" stroke="#000000" points="551,-437 551,-458 734,-458 734,-437 551,-437"/>
<text text-anchor="start" x="560" y="-443.8" font-family="Nimbus Sans L" font-size="14.00" fill="#000000">[STRING] name (Required)</text>
</a>
</g>
<g id="a_node3_10"><a xlink:href="#" xlink:title="An identifier referencing a subset of the named incident.">
<polygon fill="#99cc00" stroke="transparent" points="551,-416 551,-437 734,-437 734,-416 551,-416"/>
<polygon fill="none" stroke="#000000" points="551,-416 551,-437 734,-437 734,-416 551,-416"/>
<text text-anchor="start" x="554" y="-422.8" font-family="Nimbus Sans L" font-size="14.00" fill="#000000">[STRING] instance (Optional)</text>
</a>
</g>
<g id="a_node3_11"><a xlink:href="#" xlink:title="This attribute has been defined in Section 3.2.">
<polygon fill="#99cc00" stroke="transparent" points="551,-395 551,-416 734,-416 734,-395 551,-395"/>
<polygon fill="none" stroke="#000000" points="551,-395 551,-416 734,-416 734,-395 551,-395"/>
<text text-anchor="start" x="555" y="-401.8" font-family="Nimbus Sans L" font-size="14.00" fill="#000000">[ENUM] restriction (Optional)</text>
</a>
</g>
</g>
<!-- HistoryItem&#45;&gt;IncidentID -->
<g id="edge1" class="edge">
<title>HistoryItem&#45;&gt;IncidentID</title>
<path fill="none" stroke="#000000" d="M420.7067,-287.1769C450.4397,-318.5844 488.3687,-354.9328 527,-382 529.141,-383.5001 531.3293,-384.9789 533.5559,-386.4351"/>
<polygon fill="#000000" stroke="#000000" points="531.9858,-389.582 542.3155,-391.9374 535.7093,-383.6545 531.9858,-389.582"/>
<text text-anchor="middle" x="497.5" y="-370.8" font-family="Times,serif" font-size="14.00" fill="#000000">0..1</text>
</g>
<!-- Contact -->
<g id="node4" class="node">
<title>Contact</title>
<g id="a_node4_12"><a xlink:href="#" xlink:title="The Contact class describes contact information for organizations and personnel involved in the incident. This class allows for the naming of the involved party, specifying contact information for them, and identifying their role in the incident. ">
<polygon fill="#a3cc52" stroke="transparent" points="535,-314 535,-335 749,-335 749,-314 535,-314"/>
<polygon fill="none" stroke="#000000" points="535,-314 535,-335 749,-335 749,-314 535,-314"/>
<text text-anchor="start" x="618.5" y="-320.8" font-family="Nimbus Sans L" font-size="14.00" fill="#000000">Contact</text>
</a>
</g>
<g id="a_node4_13"><a xlink:href="#" xlink:title="The name of the contact. &#160;The contact may either be an organization or a person. &#160;The type attribute disambiguates the semantics.">
<polygon fill="#ccff66" stroke="transparent" points="535,-293 535,-314 749,-314 749,-293 535,-293"/>
<polygon fill="none" stroke="#000000" points="535,-293 535,-314 749,-314 749,-293 535,-293"/>
<text text-anchor="start" x="538" y="-299.8" font-family="Nimbus Sans L" font-size="14.00" fill="#000000">[ML_STRING] ContactName (0..1)</text>
</a>
</g>
<g id="a_node4_14"><a xlink:href="#" xlink:title="A free&#45;form description of this contact. &#160;In the case of a person, this is often the organizational title of the individual.">
<polygon fill="#ccff66" stroke="transparent" points="535,-272 535,-293 749,-293 749,-272 535,-272"/>
<polygon fill="none" stroke="#000000" points="535,-272 535,-293 749,-293 749,-272 535,-272"/>
<text text-anchor="start" x="547" y="-278.8" font-family="Nimbus Sans L" font-size="14.00" fill="#000000">[ML_STRING] Description (0..*)</text>
</a>
</g>
<g id="a_node4_15"><a xlink:href="#" xlink:title="The telephone number of the contact.">
<polygon fill="#ccff66" stroke="transparent" points="535,-251 535,-272 749,-272 749,-251 535,-251"/>
<polygon fill="none" stroke="#000000" points="535,-251 535,-272 749,-272 749,-251 535,-251"/>
<text text-anchor="start" x="589" y="-257.8" font-family="Nimbus Sans L" font-size="14.00" fill="#000000">[] Telephone (0..*)</text>
</a>
</g>
<g id="a_node4_16"><a xlink:href="#" xlink:title="The facsimile telephone number of the contact.">
<polygon fill="#ccff66" stroke="transparent" points="535,-230 535,-251 749,-251 749,-230 535,-230"/>
<polygon fill="none" stroke="#000000" points="535,-230 535,-251 749,-251 749,-230 535,-230"/>
<text text-anchor="start" x="607.5" y="-236.8" font-family="Nimbus Sans L" font-size="14.00" fill="#000000">[] Fax (0..1)</text>
</a>
</g>
<g id="a_node4_17"><a xlink:href="#" xlink:title="The timezone in which the contact resides formatted according to Section 2.9.">
<polygon fill="#ccff66" stroke="transparent" points="535,-209 535,-230 749,-230 749,-209 535,-209"/>
<polygon fill="none" stroke="#000000" points="535,-209 535,-230 749,-230 749,-209 535,-209"/>
<text text-anchor="start" x="553" y="-215.8" font-family="Nimbus Sans L" font-size="14.00" fill="#000000">[TIMEZONE] Timezone (0..1)</text>
</a>
</g>
<g id="a_node4_18"><a xlink:href="#" xlink:title="Indicates the role the contact fulfills. &#160;This attribute is defined as an enumerated list:">
<polygon fill="#ccff66" stroke="transparent" points="535,-188 535,-209 749,-209 749,-188 535,-188"/>
<polygon fill="none" stroke="#000000" points="535,-188 535,-209 749,-209 749,-188 535,-188"/>
<text text-anchor="start" x="571" y="-194.8" font-family="Nimbus Sans L" font-size="14.00" fill="#000000">[ENUM] role (Required)</text>
</a>
</g>
<g id="a_node4_19"><a xlink:href="#" xlink:title="A means by which to extend the role attribute. See Section 5.1.">
<polygon fill="#ccff66" stroke="transparent" points="535,-167 535,-188 749,-188 749,-167 535,-167"/>
<polygon fill="none" stroke="#000000" points="535,-167 535,-188 749,-188 749,-167 535,-167"/>
<text text-anchor="start" x="556.5" y="-173.8" font-family="Nimbus Sans L" font-size="14.00" fill="#000000">[STRING] ext&#45;role (Optional)</text>
</a>
</g>
<g id="a_node4_20"><a xlink:href="#" xlink:title="Indicates the type of contact being described. This attribute is defined as an enumerated list:">
<polygon fill="#ccff66" stroke="transparent" points="535,-146 535,-167 749,-167 749,-146 535,-146"/>
<polygon fill="none" stroke="#000000" points="535,-146 535,-167 749,-167 749,-146 535,-146"/>
<text text-anchor="start" x="569.5" y="-152.8" font-family="Nimbus Sans L" font-size="14.00" fill="#000000">[ENUM] type (Required)</text>
</a>
</g>
<g id="a_node4_21"><a xlink:href="#" xlink:title="A means by which to extend the type attribute. See Section 5.1.">
<polygon fill="#ccff66" stroke="transparent" points="535,-125 535,-146 749,-146 749,-125 535,-125"/>
<polygon fill="none" stroke="#000000" points="535,-125 535,-146 749,-146 749,-125 535,-125"/>
<text text-anchor="start" x="555" y="-131.8" font-family="Nimbus Sans L" font-size="14.00" fill="#000000">[STRING] ext&#45;type (Optional)</text>
</a>
</g>
<g id="a_node4_22"><a xlink:href="#" xlink:title="This attribute is defined in Section 3.2.">
<polygon fill="#ccff66" stroke="transparent" points="535,-104 535,-125 749,-125 749,-104 535,-104"/>
<polygon fill="none" stroke="#000000" points="535,-104 535,-125 749,-125 749,-104 535,-104"/>
<text text-anchor="start" x="554.5" y="-110.8" font-family="Nimbus Sans L" font-size="14.00" fill="#000000">[ENUM] restriction (Optional)</text>
</a>
</g>
</g>
<!-- HistoryItem&#45;&gt;Contact -->
<g id="edge7" class="edge">
<title>HistoryItem&#45;&gt;Contact</title>
<path fill="none" stroke="#000000" d="M468.2552,-220C484.1417,-220 500.6446,-220 516.8776,-220"/>
<polygon fill="#000000" stroke="#000000" points="516.9423,-223.5001 526.9422,-220 516.9422,-216.5001 516.9423,-223.5001"/>
<text text-anchor="middle" x="497.5" y="-223.8" font-family="Times,serif" font-size="14.00" fill="#000000">0..1</text>
</g>
<!-- AdditionalData -->
<g id="node8" class="node">
<title>AdditionalData</title>
<g id="a_node8_23"><a xlink:href="#" xlink:title="The AdditionalData class serves as an extension mechanism for information not otherwise represented in the data model. For relatively simple information, atomic data types (e.g., integers, strings) are provided with a mechanism to annotate their meaning. The class can also be used to extend the data model (and the associated Schema) to support proprietary extensions by encapsulating entire XML documents conforming to another Schema (e.g., IDMEF). A detailed discussion for extending the data model and the schema can be found in Section 5. ">
<polygon fill="#cca352" stroke="transparent" points="830.5,-109 830.5,-130 1017.5,-130 1017.5,-109 830.5,-109"/>
<polygon fill="none" stroke="#000000" points="830.5,-109 830.5,-130 1017.5,-130 1017.5,-109 830.5,-109"/>
<text text-anchor="start" x="880" y="-115.8" font-family="Nimbus Sans L" font-size="14.00" fill="#000000">AdditionalData</text>
</a>
</g>
<g id="a_node8_24"><a xlink:href="#" xlink:title="The data type of the element content. &#160;The permitted values for this attribute are shown below. &#160;The default value is &quot;string&quot;.">
<polygon fill="#ffcc66" stroke="transparent" points="830.5,-88 830.5,-109 1017.5,-109 1017.5,-88 830.5,-88"/>
<polygon fill="none" stroke="#000000" points="830.5,-88 830.5,-109 1017.5,-109 1017.5,-88 830.5,-88"/>
<text text-anchor="start" x="847.5" y="-94.8" font-family="Nimbus Sans L" font-size="14.00" fill="#000000">[ENUM] dtype (Required)</text>
</a>
</g>
<g id="a_node8_25"><a xlink:href="#" xlink:title="A means by which to extend the dtype attribute. &#160;See Section 5.1.">
<polygon fill="#ffcc66" stroke="transparent" points="830.5,-67 830.5,-88 1017.5,-88 1017.5,-67 830.5,-67"/>
<polygon fill="none" stroke="#000000" points="830.5,-67 830.5,-88 1017.5,-88 1017.5,-67 830.5,-67"/>
<text text-anchor="start" x="833.5" y="-73.8" font-family="Nimbus Sans L" font-size="14.00" fill="#000000">[STRING] ext&#45;dtype (Optional)</text>
</a>
</g>
<g id="a_node8_26"><a xlink:href="#" xlink:title="A free&#45;form description of the element content.">
<polygon fill="#ffcc66" stroke="transparent" points="830.5,-46 830.5,-67 1017.5,-67 1017.5,-46 830.5,-46"/>
<polygon fill="none" stroke="#000000" points="830.5,-46 830.5,-67 1017.5,-67 1017.5,-46 830.5,-46"/>
<text text-anchor="start" x="834.5" y="-52.8" font-family="Nimbus Sans L" font-size="14.00" fill="#000000">[STRING] meaning (Optional)</text>
</a>
</g>
<g id="a_node8_27"><a xlink:href="#" xlink:title="An identifier referencing the format and semantics of the element content.">
<polygon fill="#ffcc66" stroke="transparent" points="830.5,-25 830.5,-46 1017.5,-46 1017.5,-25 830.5,-25"/>
<polygon fill="none" stroke="#000000" points="830.5,-25 830.5,-46 1017.5,-46 1017.5,-25 830.5,-25"/>
<text text-anchor="start" x="836" y="-31.8" font-family="Nimbus Sans L" font-size="14.00" fill="#000000">[STRING] formatid (Optional)</text>
</a>
</g>
<g id="a_node8_28"><a xlink:href="#" xlink:title="This attribute has been defined in Section 3.2.">
<polygon fill="#ffcc66" stroke="transparent" points="830.5,-4 830.5,-25 1017.5,-25 1017.5,-4 830.5,-4"/>
<polygon fill="none" stroke="#000000" points="830.5,-4 830.5,-25 1017.5,-25 1017.5,-4 830.5,-4"/>
<text text-anchor="start" x="836.5" y="-10.8" font-family="Nimbus Sans L" font-size="14.00" fill="#000000">[ENUM] restriction (Optional)</text>
</a>
</g>
</g>
<!-- HistoryItem&#45;&gt;AdditionalData -->
<g id="edge8" class="edge">
<title>HistoryItem&#45;&gt;AdditionalData</title>
<path fill="none" stroke="#000000" d="M418.4288,-152.9733C447.4991,-123.5523 485.5279,-92.0911 527,-76 617.9536,-40.7101 729.6882,-41.7274 811.3377,-49.6722"/>
<polygon fill="#000000" stroke="#000000" points="811.3406,-53.1907 821.6451,-50.7273 812.0535,-46.227 811.3406,-53.1907"/>
<text text-anchor="middle" x="642" y="-79.8" font-family="Times,serif" font-size="14.00" fill="#000000">0..*</text>
</g>
<!-- Contact&#45;&gt;Contact -->
<g id="edge5" class="edge">
<title>Contact&#45;&gt;Contact</title>
<path fill="none" stroke="#000000" d="M620.5437,-339.7499C625.0042,-350.6463 632.1563,-357.5 642,-357.5 648.7676,-357.5 654.2629,-354.2605 658.4861,-348.6951"/>
<polygon fill="#000000" stroke="#000000" points="661.6588,-350.1911 663.4563,-339.7499 655.5399,-346.7912 661.6588,-350.1911"/>
<text text-anchor="middle" x="642" y="-361.3" font-family="Times,serif" font-size="14.00" fill="#000000">0..*</text>
</g>
<!-- RegistryHandle -->
<g id="node5" class="node">
<title>RegistryHandle</title>
<g id="a_node5_29"><a xlink:href="#" xlink:title="The RegistryHandle class represents a handle into an Internet registry or community&#45;specific database. The handle is specified in the element content and the type attribute specifies the database. ">
<polygon fill="#a3cc52" stroke="transparent" points="824.5,-355 824.5,-376 1023.5,-376 1023.5,-355 824.5,-355"/>
<polygon fill="none" stroke="#000000" points="824.5,-355 824.5,-376 1023.5,-376 1023.5,-355 824.5,-355"/>
<text text-anchor="start" x="877.5" y="-361.8" font-family="Nimbus Sans L" font-size="14.00" fill="#000000">RegistryHandle</text>
</a>
</g>
<g id="a_node5_30"><a xlink:href="#" xlink:title="The database to which the handle belongs. &#160;The default value is &#39;local&#39;. &#160;The possible values are:">
<polygon fill="#ccff66" stroke="transparent" points="824.5,-334 824.5,-355 1023.5,-355 1023.5,-334 824.5,-334"/>
<polygon fill="none" stroke="#000000" points="824.5,-334 824.5,-355 1023.5,-355 1023.5,-334 824.5,-334"/>
<text text-anchor="start" x="842" y="-340.8" font-family="Nimbus Sans L" font-size="14.00" fill="#000000">[ENUM] registry (Required)</text>
</a>
</g>
<g id="a_node5_31"><a xlink:href="#" xlink:title="A means by which to extend the registry attribute. &#160;See Section 5.1.">
<polygon fill="#ccff66" stroke="transparent" points="824.5,-313 824.5,-334 1023.5,-334 1023.5,-313 824.5,-313"/>
<polygon fill="none" stroke="#000000" points="824.5,-313 824.5,-334 1023.5,-334 1023.5,-313 824.5,-313"/>
<text text-anchor="start" x="827.5" y="-319.8" font-family="Nimbus Sans L" font-size="14.00" fill="#000000">[STRING] ext&#45;registry (Optional)</text>
</a>
</g>
</g>
<!-- Contact&#45;&gt;RegistryHandle -->
<g id="edge2" class="edge">
<title>Contact&#45;&gt;RegistryHandle</title>
<path fill="none" stroke="#000000" d="M757.244,-274.5768C776.7817,-283.5624 796.9177,-292.6588 816,-301 819.3866,-302.4804 822.8394,-303.9743 826.3314,-305.4723"/>
<polygon fill="#000000" stroke="#000000" points="825.0763,-308.7419 835.6481,-309.4403 827.8193,-302.3017 825.0763,-308.7419"/>
<text text-anchor="middle" x="786.5" y="-295.8" font-family="Times,serif" font-size="14.00" fill="#000000">0..*</text>
</g>
<!-- PostalAddress -->
<g id="node6" class="node">
<title>PostalAddress</title>
<g id="a_node6_32"><a xlink:href="#" xlink:title="The PostalAddress class specifies a postal address formatted according to the POSTAL data type (Section 2.11). ">
<polygon fill="#a3cc52" stroke="transparent" points="836.5,-266 836.5,-287 1011.5,-287 1011.5,-266 836.5,-266"/>
<polygon fill="none" stroke="#000000" points="836.5,-266 836.5,-287 1011.5,-287 1011.5,-266 836.5,-266"/>
<text text-anchor="start" x="880" y="-272.8" font-family="Nimbus Sans L" font-size="14.00" fill="#000000">PostalAddress</text>
</a>
</g>
<g id="a_node6_33"><a xlink:href="#" xlink:title="A free&#45;form description of the element content.">
<polygon fill="#ccff66" stroke="transparent" points="836.5,-245 836.5,-266 1011.5,-266 1011.5,-245 836.5,-245"/>
<polygon fill="none" stroke="#000000" points="836.5,-245 836.5,-266 1011.5,-266 1011.5,-245 836.5,-245"/>
<text text-anchor="start" x="839.5" y="-251.8" font-family="Nimbus Sans L" font-size="14.00" fill="#000000">[ENUM] meaning (Optional)</text>
</a>
</g>
<g id="a_node6_34"><a xlink:href="#" xlink:title="A valid language code per RFC 4646 [7] constrained by the definition of &quot;xs:language&quot;. &#160;The interpretation of this code is described in Section 6.">
<polygon fill="#ccff66" stroke="transparent" points="836.5,-224 836.5,-245 1011.5,-245 1011.5,-224 836.5,-224"/>
<polygon fill="none" stroke="#000000" points="836.5,-224 836.5,-245 1011.5,-245 1011.5,-224 836.5,-224"/>
<text text-anchor="start" x="851.5" y="-230.8" font-family="Nimbus Sans L" font-size="14.00" fill="#000000">[ENUM] lang (Required)</text>
</a>
</g>
</g>
<!-- Contact&#45;&gt;PostalAddress -->
<g id="edge3" class="edge">
<title>Contact&#45;&gt;PostalAddress</title>
<path fill="none" stroke="#000000" d="M757.309,-234.7464C777.2209,-237.2929 797.8355,-239.9292 817.4864,-242.4423"/>
<polygon fill="#000000" stroke="#000000" points="817.3027,-245.9472 827.666,-243.7441 818.1908,-239.0038 817.3027,-245.9472"/>
<text text-anchor="middle" x="786.5" y="-242.8" font-family="Times,serif" font-size="14.00" fill="#000000">0..1</text>
</g>
<!-- Email -->
<g id="node7" class="node">
<title>Email</title>
<g id="a_node7_35"><a xlink:href="#" xlink:title="The Email class specifies an email address formatted according to EMAIL data type (Section 2.14). ">
<polygon fill="#a3cc52" stroke="transparent" points="836.5,-177 836.5,-198 1011.5,-198 1011.5,-177 836.5,-177"/>
<polygon fill="none" stroke="#000000" points="836.5,-177 836.5,-198 1011.5,-198 1011.5,-177 836.5,-177"/>
<text text-anchor="start" x="906.5" y="-183.8" font-family="Nimbus Sans L" font-size="14.00" fill="#000000">Email</text>
</a>
</g>
<g id="a_node7_36"><a xlink:href="#" xlink:title="A free&#45;form description of the element content (e.g., hours of coverage for a given number).">
<polygon fill="#ccff66" stroke="transparent" points="836.5,-156 836.5,-177 1011.5,-177 1011.5,-156 836.5,-156"/>
<polygon fill="none" stroke="#000000" points="836.5,-156 836.5,-177 1011.5,-177 1011.5,-156 836.5,-156"/>
<text text-anchor="start" x="839.5" y="-162.8" font-family="Nimbus Sans L" font-size="14.00" fill="#000000">[ENUM] meaning (Optional)</text>
</a>
</g>
</g>
<!-- Contact&#45;&gt;Email -->
<g id="edge4" class="edge">
<title>Contact&#45;&gt;Email</title>
<path fill="none" stroke="#000000" d="M757.309,-202.3862C777.3123,-199.3306 798.0246,-196.1668 817.7568,-193.1526"/>
<polygon fill="#000000" stroke="#000000" points="818.3092,-196.6089 827.666,-191.6389 817.2521,-189.6892 818.3092,-196.6089"/>
<text text-anchor="middle" x="786.5" y="-201.8" font-family="Times,serif" font-size="14.00" fill="#000000">0..*</text>
</g>
<!-- Contact&#45;&gt;AdditionalData -->
<g id="edge6" class="edge">
<title>Contact&#45;&gt;AdditionalData</title>
<path fill="none" stroke="#000000" d="M757.309,-157.3276C775.7073,-147.3278 794.7055,-137.002 812.9891,-127.0645"/>
<polygon fill="#000000" stroke="#000000" points="814.7869,-130.071 821.9016,-122.2205 811.444,-123.9208 814.7869,-130.071"/>
<text text-anchor="middle" x="786.5" y="-146.8" font-family="Times,serif" font-size="14.00" fill="#000000">0..*</text>
</g>
</g>
</svg>
