<?xml version="1.0" encoding="UTF-8" standalone="no"?>
<!DOCTYPE svg PUBLIC "-//W3C//DTD SVG 1.1//EN"
 "http://www.w3.org/Graphics/SVG/1.1/DTD/svg11.dtd">
<!-- Generated by graphviz version 2.40.1 (0)
 -->
<!-- Title: MonetaryImpact Pages: 1 -->
<svg width="212pt" height="79pt"
 viewBox="0.00 0.00 212.00 79.00" xmlns="http://www.w3.org/2000/svg" xmlns:xlink="http://www.w3.org/1999/xlink">
<g id="graph0" class="graph" transform="scale(1 1) rotate(0) translate(4 75)">
<title>MonetaryImpact</title>
<polygon fill="#ffffff" stroke="transparent" points="-4,4 -4,-75 208,-75 208,4 -4,4"/>
<!-- MonetaryImpact -->
<g id="node1" class="node">
<title>MonetaryImpact</title>
<g id="a_node1_0"><a xlink:href="#" xlink:title="The MonetaryImpact class describes the financial impact of the activity on an organization. For example, this impact may consider losses due to the cost of the investigation or recovery, diminished ">
<polygon fill="#cc401d" stroke="transparent" points="8,-45.5 8,-66.5 196,-66.5 196,-45.5 8,-45.5"/>
<polygon fill="none" stroke="#000000" points="8,-45.5 8,-66.5 196,-66.5 196,-45.5 8,-45.5"/>
<text text-anchor="start" x="52.5" y="-52.3" font-family="Nimbus Sans L" font-size="14.00" fill="#000000">MonetaryImpact</text>
</a>
</g>
<g id="a_node1_1"><a xlink:href="#" xlink:title="An estimate of the relative severity of the activity. &#160;The permitted values are shown below. &#160;There is no default value.">
<polygon fill="#ff5024" stroke="transparent" points="8,-24.5 8,-45.5 196,-45.5 196,-24.5 8,-24.5"/>
<polygon fill="none" stroke="#000000" points="8,-24.5 8,-45.5 196,-45.5 196,-24.5 8,-24.5"/>
<text text-anchor="start" x="20.5" y="-31.3" font-family="Nimbus Sans L" font-size="14.00" fill="#000000">[ENUM] severity (Optional)</text>
</a>
</g>
<g id="a_node1_2"><a xlink:href="#" xlink:title="Defines the currency in which the monetary impact is expressed. &#160;The permitted values are defined in ISO 4217:2001, Codes for the representation of currencies and funds [14]. &#160;There is no default value.">
<polygon fill="#ff5024" stroke="transparent" points="8,-3.5 8,-24.5 196,-24.5 196,-3.5 8,-3.5"/>
<polygon fill="none" stroke="#000000" points="8,-3.5 8,-24.5 196,-24.5 196,-3.5 8,-3.5"/>
<text text-anchor="start" x="11" y="-10.3" font-family="Nimbus Sans L" font-size="14.00" fill="#000000">[STRING] currency (Required)</text>
</a>
</g>
</g>
</g>
</svg>
