<?xml version="1.0" encoding="UTF-8" standalone="no"?>
<!DOCTYPE svg PUBLIC "-//W3C//DTD SVG 1.1//EN"
 "http://www.w3.org/Graphics/SVG/1.1/DTD/svg11.dtd">
<!-- Generated by graphviz version 2.40.1 (0)
 -->
<!-- Title: NodeRole Pages: 1 -->
<svg width="230pt" height="100pt"
 viewBox="0.00 0.00 230.00 100.00" xmlns="http://www.w3.org/2000/svg" xmlns:xlink="http://www.w3.org/1999/xlink">
<g id="graph0" class="graph" transform="scale(1 1) rotate(0) translate(4 96)">
<title>NodeRole</title>
<polygon fill="#ffffff" stroke="transparent" points="-4,4 -4,-96 226,-96 226,4 -4,4"/>
<!-- NodeRole -->
<g id="node1" class="node">
<title>NodeRole</title>
<g id="a_node1_0"><a xlink:href="#" xlink:title="The NodeRole class describes the intended function performed by a particular host. ">
<polygon fill="#203f7f" stroke="transparent" points="8,-67 8,-88 214,-88 214,-67 8,-67"/>
<polygon fill="none" stroke="#000000" points="8,-67 8,-88 214,-88 214,-67 8,-67"/>
<text text-anchor="start" x="80.5" y="-73.8" font-family="Nimbus Sans L" font-size="14.00" fill="#000000">NodeRole</text>
</a>
</g>
<g id="a_node1_1"><a xlink:href="#" xlink:title="Functionality provided by a node.">
<polygon fill="#284f9f" stroke="transparent" points="8,-46 8,-67 214,-67 214,-46 8,-46"/>
<polygon fill="none" stroke="#000000" points="8,-46 8,-67 214,-67 214,-46 8,-46"/>
<text text-anchor="start" x="25" y="-52.8" font-family="Nimbus Sans L" font-size="14.00" fill="#000000">[ENUM] category (Required)</text>
</a>
</g>
<g id="a_node1_2"><a xlink:href="#" xlink:title="A means by which to extend the category attribute. &#160;See Section 5.1.">
<polygon fill="#284f9f" stroke="transparent" points="8,-25 8,-46 214,-46 214,-25 8,-25"/>
<polygon fill="none" stroke="#000000" points="8,-25 8,-46 214,-46 214,-25 8,-25"/>
<text text-anchor="start" x="11" y="-31.8" font-family="Nimbus Sans L" font-size="14.00" fill="#000000">[STRING] ext&#45;category (Optional)</text>
</a>
</g>
<g id="a_node1_3"><a xlink:href="#" xlink:title="A valid language code per RFC 4646 [7] constrained by the definition of &quot;xs:language&quot;. &#160;The interpretation of this code is described in Section 6.">
<polygon fill="#284f9f" stroke="transparent" points="8,-4 8,-25 214,-25 214,-4 8,-4"/>
<polygon fill="none" stroke="#000000" points="8,-4 8,-25 214,-25 214,-4 8,-4"/>
<text text-anchor="start" x="38.5" y="-10.8" font-family="Nimbus Sans L" font-size="14.00" fill="#000000">[ENUM] lang (Required)</text>
</a>
</g>
</g>
</g>
</svg>
