<?xml version="1.0" encoding="UTF-8" standalone="no"?>
<!DOCTYPE svg PUBLIC "-//W3C//DTD SVG 1.1//EN"
 "http://www.w3.org/Graphics/SVG/1.1/DTD/svg11.dtd">
<!-- Generated by graphviz version 2.40.1 (0)
 -->
<!-- Title: Record Pages: 1 -->
<svg width="760pt" height="683pt"
 viewBox="0.00 0.00 760.00 682.50" xmlns="http://www.w3.org/2000/svg" xmlns:xlink="http://www.w3.org/1999/xlink">
<g id="graph0" class="graph" transform="scale(1 1) rotate(0) translate(4 678.5)">
<title>Record</title>
<polygon fill="#ffffff" stroke="transparent" points="-4,4 -4,-678.5 756,-678.5 756,4 -4,4"/>
<!-- Record -->
<g id="node1" class="node">
<title>Record</title>
<g id="a_node1_0"><a xlink:href="#" xlink:title="The Record class is a container class for log and audit data that provides supportive information about the incident. The source of this data will often be the output of monitoring tools. These logs should substantiate the activity described in the document. ">
<polygon fill="#cca300" stroke="transparent" points="8.5,-300 8.5,-321 189.5,-321 189.5,-300 8.5,-300"/>
<polygon fill="none" stroke="#000000" points="8.5,-300 8.5,-321 189.5,-321 189.5,-300 8.5,-300"/>
<text text-anchor="start" x="77" y="-306.8" font-family="Nimbus Sans L" font-size="14.00" fill="#000000">Record</text>
</a>
</g>
<g id="a_node1_1"><a xlink:href="#" xlink:title="This attribute has been defined in Section 3.2.">
<polygon fill="#ffcc00" stroke="transparent" points="8.5,-279 8.5,-300 189.5,-300 189.5,-279 8.5,-279"/>
<polygon fill="none" stroke="#000000" points="8.5,-279 8.5,-300 189.5,-300 189.5,-279 8.5,-279"/>
<text text-anchor="start" x="11.5" y="-285.8" font-family="Nimbus Sans L" font-size="14.00" fill="#000000">[ENUM] restriction (Optional)</text>
</a>
</g>
</g>
<!-- RecordData -->
<g id="node2" class="node">
<title>RecordData</title>
<g id="a_node2_2"><a xlink:href="#" xlink:title="The RecordData class groups log or audit data from a given sensor (e.g., IDS, firewall log) and provides a way to annotate the output. ">
<polygon fill="#cca300" stroke="transparent" points="264,-321 264,-342 460,-342 460,-321 264,-321"/>
<polygon fill="none" stroke="#000000" points="264,-321 264,-342 460,-342 460,-321 264,-321"/>
<text text-anchor="start" x="325.5" y="-327.8" font-family="Nimbus Sans L" font-size="14.00" fill="#000000">RecordData</text>
</a>
</g>
<g id="a_node2_3"><a xlink:href="#" xlink:title="Timestamp of the RecordItem data.">
<polygon fill="#ffcc00" stroke="transparent" points="264,-300 264,-321 460,-321 460,-300 264,-300"/>
<polygon fill="none" stroke="#000000" points="264,-300 264,-321 460,-321 460,-300 264,-300"/>
<text text-anchor="start" x="309" y="-306.8" font-family="Nimbus Sans L" font-size="14.00" fill="#000000">[] DateTime (0..1)</text>
</a>
</g>
<g id="a_node2_4"><a xlink:href="#" xlink:title="Free&#45;form textual description of the provided RecordItem data. &#160;At minimum, this description should convey the significance of the provided RecordItem data.">
<polygon fill="#ffcc00" stroke="transparent" points="264,-279 264,-300 460,-300 460,-279 264,-279"/>
<polygon fill="none" stroke="#000000" points="264,-279 264,-300 460,-300 460,-279 264,-279"/>
<text text-anchor="start" x="267" y="-285.8" font-family="Nimbus Sans L" font-size="14.00" fill="#000000">[ML_STRING] Description (0..*)</text>
</a>
</g>
<g id="a_node2_5"><a xlink:href="#" xlink:title="This attribute has been defined in Section 3.2.">
<polygon fill="#ffcc00" stroke="transparent" points="264,-258 264,-279 460,-279 460,-258 264,-258"/>
<polygon fill="none" stroke="#000000" points="264,-258 264,-279 460,-279 460,-258 264,-258"/>
<text text-anchor="start" x="274.5" y="-264.8" font-family="Nimbus Sans L" font-size="14.00" fill="#000000">[ENUM] restriction (Optional)</text>
</a>
</g>
</g>
<!-- Record&#45;&gt;RecordData -->
<g id="edge5" class="edge">
<title>Record&#45;&gt;RecordData</title>
<path fill="none" stroke="#000000" d="M197.3674,-300C213.2097,-300 229.7297,-300 245.929,-300"/>
<polygon fill="#000000" stroke="#000000" points="245.965,-303.5001 255.9649,-300 245.9649,-296.5001 245.965,-303.5001"/>
<text text-anchor="middle" x="226.5" y="-303.8" font-family="Times,serif" font-size="14.00" fill="#000000">1..*</text>
</g>
<!-- Application -->
<g id="node3" class="node">
<title>Application</title>
<g id="a_node3_6"><a xlink:href="#" xlink:title="The Application class describes an application running on a System providing a Service. ">
<polygon fill="#203f7f" stroke="transparent" points="550.5,-649 550.5,-670 729.5,-670 729.5,-649 550.5,-649"/>
<polygon fill="none" stroke="#000000" points="550.5,-649 550.5,-670 729.5,-670 729.5,-649 550.5,-649"/>
<text text-anchor="start" x="606.5" y="-655.8" font-family="Nimbus Sans L" font-size="14.00" fill="#000000">Application</text>
</a>
</g>
<g id="a_node3_7"><a xlink:href="#" xlink:title="A URL describing the application.">
<polygon fill="#284f9f" stroke="transparent" points="550.5,-628 550.5,-649 729.5,-649 729.5,-628 550.5,-628"/>
<polygon fill="none" stroke="#000000" points="550.5,-628 550.5,-649 729.5,-649 729.5,-628 550.5,-628"/>
<text text-anchor="start" x="590" y="-634.8" font-family="Nimbus Sans L" font-size="14.00" fill="#000000">[URL] URL (0..1)</text>
</a>
</g>
<g id="a_node3_8"><a xlink:href="#" xlink:title="An identifier that can be used to reference this software.">
<polygon fill="#284f9f" stroke="transparent" points="550.5,-607 550.5,-628 729.5,-628 729.5,-607 550.5,-607"/>
<polygon fill="none" stroke="#000000" points="550.5,-607 550.5,-628 729.5,-628 729.5,-607 550.5,-607"/>
<text text-anchor="start" x="563" y="-613.8" font-family="Nimbus Sans L" font-size="14.00" fill="#000000">[STRING] swid (Optional)</text>
</a>
</g>
<g id="a_node3_9"><a xlink:href="#" xlink:title="An identifier that can be used to reference a particular configuration of this software.">
<polygon fill="#284f9f" stroke="transparent" points="550.5,-586 550.5,-607 729.5,-607 729.5,-586 550.5,-586"/>
<polygon fill="none" stroke="#000000" points="550.5,-586 550.5,-607 729.5,-607 729.5,-586 550.5,-586"/>
<text text-anchor="start" x="553.5" y="-592.8" font-family="Nimbus Sans L" font-size="14.00" fill="#000000">[STRING] configid (Optional)</text>
</a>
</g>
<g id="a_node3_10"><a xlink:href="#" xlink:title="Vendor name of the software.">
<polygon fill="#284f9f" stroke="transparent" points="550.5,-565 550.5,-586 729.5,-586 729.5,-565 550.5,-565"/>
<polygon fill="none" stroke="#000000" points="550.5,-565 550.5,-586 729.5,-586 729.5,-565 550.5,-565"/>
<text text-anchor="start" x="556" y="-571.8" font-family="Nimbus Sans L" font-size="14.00" fill="#000000">[STRING] vendor (Optional)</text>
</a>
</g>
<g id="a_node3_11"><a xlink:href="#" xlink:title="Family of the software.">
<polygon fill="#284f9f" stroke="transparent" points="550.5,-544 550.5,-565 729.5,-565 729.5,-544 550.5,-544"/>
<polygon fill="none" stroke="#000000" points="550.5,-544 550.5,-565 729.5,-565 729.5,-544 550.5,-544"/>
<text text-anchor="start" x="558.5" y="-550.8" font-family="Nimbus Sans L" font-size="14.00" fill="#000000">[STRING] family (Optional)</text>
</a>
</g>
<g id="a_node3_12"><a xlink:href="#" xlink:title="Name of the software.">
<polygon fill="#284f9f" stroke="transparent" points="550.5,-523 550.5,-544 729.5,-544 729.5,-523 550.5,-523"/>
<polygon fill="none" stroke="#000000" points="550.5,-523 550.5,-544 729.5,-544 729.5,-523 550.5,-523"/>
<text text-anchor="start" x="559.5" y="-529.8" font-family="Nimbus Sans L" font-size="14.00" fill="#000000">[STRING] name (Optional)</text>
</a>
</g>
<g id="a_node3_13"><a xlink:href="#" xlink:title="Version of the software.">
<polygon fill="#284f9f" stroke="transparent" points="550.5,-502 550.5,-523 729.5,-523 729.5,-502 550.5,-502"/>
<polygon fill="none" stroke="#000000" points="550.5,-502 550.5,-523 729.5,-523 729.5,-502 550.5,-502"/>
<text text-anchor="start" x="555" y="-508.8" font-family="Nimbus Sans L" font-size="14.00" fill="#000000">[STRING] version (Optional)</text>
</a>
</g>
<g id="a_node3_14"><a xlink:href="#" xlink:title="Patch or service pack level of the software.">
<polygon fill="#284f9f" stroke="transparent" points="550.5,-481 550.5,-502 729.5,-502 729.5,-481 550.5,-481"/>
<polygon fill="none" stroke="#000000" points="550.5,-481 550.5,-502 729.5,-502 729.5,-481 550.5,-481"/>
<text text-anchor="start" x="560" y="-487.8" font-family="Nimbus Sans L" font-size="14.00" fill="#000000">[STRING] patch (Optional)</text>
</a>
</g>
</g>
<!-- RecordData&#45;&gt;Application -->
<g id="edge1" class="edge">
<title>RecordData&#45;&gt;Application</title>
<path fill="none" stroke="#000000" d="M406.3649,-346.3584C439.3243,-380.5731 485.5586,-428.097 527,-469 529.398,-471.3668 531.83,-473.7577 534.2871,-476.1645"/>
<polygon fill="#000000" stroke="#000000" points="532.1236,-478.9437 541.7242,-483.4249 537.0135,-473.9348 532.1236,-478.9437"/>
<text text-anchor="middle" x="497.5" y="-453.8" font-family="Times,serif" font-size="14.00" fill="#000000">0..1</text>
</g>
<!-- RecordPattern -->
<g id="node4" class="node">
<title>RecordPattern</title>
<g id="a_node4_15"><a xlink:href="#" xlink:title="The RecordPattern class describes where in the content of the RecordItem relevant information can be found. It provides a way to reference subsets of information, identified by a pattern, in a large log file, audit trail, or forensic data. ">
<polygon fill="#cca300" stroke="transparent" points="535.5,-434 535.5,-455 744.5,-455 744.5,-434 535.5,-434"/>
<polygon fill="none" stroke="#000000" points="535.5,-434 535.5,-455 744.5,-455 744.5,-434 535.5,-434"/>
<text text-anchor="start" x="596.5" y="-440.8" font-family="Nimbus Sans L" font-size="14.00" fill="#000000">RecordPattern</text>
</a>
</g>
<g id="a_node4_16"><a xlink:href="#" xlink:title="Describes the type of pattern being specified in the element content. &#160;The default is &quot;regex&quot;.">
<polygon fill="#ffcc00" stroke="transparent" points="535.5,-413 535.5,-434 744.5,-434 744.5,-413 535.5,-413"/>
<polygon fill="none" stroke="#000000" points="535.5,-413 535.5,-434 744.5,-434 744.5,-413 535.5,-413"/>
<text text-anchor="start" x="567.5" y="-419.8" font-family="Nimbus Sans L" font-size="14.00" fill="#000000">[ENUM] type (Required)</text>
</a>
</g>
<g id="a_node4_17"><a xlink:href="#" xlink:title="A means by which to extend the type attribute. See Section 5.1.">
<polygon fill="#ffcc00" stroke="transparent" points="535.5,-392 535.5,-413 744.5,-413 744.5,-392 535.5,-392"/>
<polygon fill="none" stroke="#000000" points="535.5,-392 535.5,-413 744.5,-413 744.5,-392 535.5,-392"/>
<text text-anchor="start" x="553" y="-398.8" font-family="Nimbus Sans L" font-size="14.00" fill="#000000">[STRING] ext&#45;type (Optional)</text>
</a>
</g>
<g id="a_node4_18"><a xlink:href="#" xlink:title="Amount of units (determined by the offsetunit attribute) to seek into the RecordItem data before matching the pattern.">
<polygon fill="#ffcc00" stroke="transparent" points="535.5,-371 535.5,-392 744.5,-392 744.5,-371 535.5,-371"/>
<polygon fill="none" stroke="#000000" points="535.5,-371 535.5,-392 744.5,-392 744.5,-371 535.5,-371"/>
<text text-anchor="start" x="555.5" y="-377.8" font-family="Nimbus Sans L" font-size="14.00" fill="#000000">[INTEGER] offset (Optional)</text>
</a>
</g>
<g id="a_node4_19"><a xlink:href="#" xlink:title="Describes the units of the offset attribute. The default is &quot;line&quot;.">
<polygon fill="#ffcc00" stroke="transparent" points="535.5,-350 535.5,-371 744.5,-371 744.5,-350 535.5,-350"/>
<polygon fill="none" stroke="#000000" points="535.5,-350 535.5,-371 744.5,-371 744.5,-350 535.5,-350"/>
<text text-anchor="start" x="554.5" y="-356.8" font-family="Nimbus Sans L" font-size="14.00" fill="#000000">[ENUM] offsetunit (Optional)</text>
</a>
</g>
<g id="a_node4_20"><a xlink:href="#" xlink:title="A means by which to extend the offsetunit attribute. &#160;See Section 5.1.">
<polygon fill="#ffcc00" stroke="transparent" points="535.5,-329 535.5,-350 744.5,-350 744.5,-329 535.5,-329"/>
<polygon fill="none" stroke="#000000" points="535.5,-329 535.5,-350 744.5,-350 744.5,-329 535.5,-329"/>
<text text-anchor="start" x="538.5" y="-335.8" font-family="Nimbus Sans L" font-size="14.00" fill="#000000">[STRING] ext&#45;offsetunit (Optional)</text>
</a>
</g>
<g id="a_node4_21"><a xlink:href="#" xlink:title="Number of types to apply the specified pattern.">
<polygon fill="#ffcc00" stroke="transparent" points="535.5,-308 535.5,-329 744.5,-329 744.5,-308 535.5,-308"/>
<polygon fill="none" stroke="#000000" points="535.5,-308 535.5,-329 744.5,-329 744.5,-308 535.5,-308"/>
<text text-anchor="start" x="546.5" y="-314.8" font-family="Nimbus Sans L" font-size="14.00" fill="#000000">[INTEGER] instance (Optional)</text>
</a>
</g>
</g>
<!-- RecordData&#45;&gt;RecordPattern -->
<g id="edge2" class="edge">
<title>RecordData&#45;&gt;RecordPattern</title>
<path fill="none" stroke="#000000" d="M468.0987,-331.3517C483.9372,-336.0319 500.3776,-340.89 516.529,-345.6626"/>
<polygon fill="#000000" stroke="#000000" points="515.9583,-349.1435 526.5402,-348.6209 517.942,-342.4305 515.9583,-349.1435"/>
<text text-anchor="middle" x="497.5" y="-344.8" font-family="Times,serif" font-size="14.00" fill="#000000">0..*</text>
</g>
<!-- RecordItem -->
<g id="node5" class="node">
<title>RecordItem</title>
<g id="a_node5_22"><a xlink:href="#" xlink:title="The RecordItem class provides a way to incorporate relevant logs, audit trails, or forensic data to support the conclusions made during the course of analyzing the incident. The class supports both the direct encapsulation of the data, as well as, provides primitives to reference data stored elsewhere. ">
<polygon fill="#cca300" stroke="transparent" points="546.5,-261 546.5,-282 733.5,-282 733.5,-261 546.5,-261"/>
<polygon fill="none" stroke="#000000" points="546.5,-261 546.5,-282 733.5,-282 733.5,-261 546.5,-261"/>
<text text-anchor="start" x="604.5" y="-267.8" font-family="Nimbus Sans L" font-size="14.00" fill="#000000">RecordItem</text>
</a>
</g>
<g id="a_node5_23"><a xlink:href="#" xlink:title="The data type of the element content. &#160;The permitted values for this attribute are shown below. &#160;The default value is &quot;string&quot;.">
<polygon fill="#ffcc00" stroke="transparent" points="546.5,-240 546.5,-261 733.5,-261 733.5,-240 546.5,-240"/>
<polygon fill="none" stroke="#000000" points="546.5,-240 546.5,-261 733.5,-261 733.5,-240 546.5,-240"/>
<text text-anchor="start" x="563.5" y="-246.8" font-family="Nimbus Sans L" font-size="14.00" fill="#000000">[ENUM] dtype (Required)</text>
</a>
</g>
<g id="a_node5_24"><a xlink:href="#" xlink:title="A means by which to extend the dtype attribute. &#160;See Section 5.1.">
<polygon fill="#ffcc00" stroke="transparent" points="546.5,-219 546.5,-240 733.5,-240 733.5,-219 546.5,-219"/>
<polygon fill="none" stroke="#000000" points="546.5,-219 546.5,-240 733.5,-240 733.5,-219 546.5,-219"/>
<text text-anchor="start" x="549.5" y="-225.8" font-family="Nimbus Sans L" font-size="14.00" fill="#000000">[STRING] ext&#45;dtype (Optional)</text>
</a>
</g>
<g id="a_node5_25"><a xlink:href="#" xlink:title="A free&#45;form description of the element content.">
<polygon fill="#ffcc00" stroke="transparent" points="546.5,-198 546.5,-219 733.5,-219 733.5,-198 546.5,-198"/>
<polygon fill="none" stroke="#000000" points="546.5,-198 546.5,-219 733.5,-219 733.5,-198 546.5,-198"/>
<text text-anchor="start" x="550.5" y="-204.8" font-family="Nimbus Sans L" font-size="14.00" fill="#000000">[STRING] meaning (Optional)</text>
</a>
</g>
<g id="a_node5_26"><a xlink:href="#" xlink:title="An identifier referencing the format and semantics of the element content.">
<polygon fill="#ffcc00" stroke="transparent" points="546.5,-177 546.5,-198 733.5,-198 733.5,-177 546.5,-177"/>
<polygon fill="none" stroke="#000000" points="546.5,-177 546.5,-198 733.5,-198 733.5,-177 546.5,-177"/>
<text text-anchor="start" x="552" y="-183.8" font-family="Nimbus Sans L" font-size="14.00" fill="#000000">[STRING] formatid (Optional)</text>
</a>
</g>
<g id="a_node5_27"><a xlink:href="#" xlink:title="This attribute has been defined in Section 3.2.">
<polygon fill="#ffcc00" stroke="transparent" points="546.5,-156 546.5,-177 733.5,-177 733.5,-156 546.5,-156"/>
<polygon fill="none" stroke="#000000" points="546.5,-156 546.5,-177 733.5,-177 733.5,-156 546.5,-156"/>
<text text-anchor="start" x="552.5" y="-162.8" font-family="Nimbus Sans L" font-size="14.00" fill="#000000">[ENUM] restriction (Optional)</text>
</a>
</g>
</g>
<!-- RecordData&#45;&gt;RecordItem -->
<g id="edge3" class="edge">
<title>RecordData&#45;&gt;RecordItem</title>
<path fill="none" stroke="#000000" d="M468.0987,-269.0307C487.6907,-263.3119 508.2035,-257.3244 527.9512,-251.5602"/>
<polygon fill="#000000" stroke="#000000" points="528.958,-254.9125 537.5767,-248.7506 526.9965,-248.1929 528.958,-254.9125"/>
<text text-anchor="middle" x="497.5" y="-264.8" font-family="Times,serif" font-size="14.00" fill="#000000">1..*</text>
</g>
<!-- AdditionalData -->
<g id="node6" class="node">
<title>AdditionalData</title>
<g id="a_node6_28"><a xlink:href="#" xlink:title="The AdditionalData class serves as an extension mechanism for information not otherwise represented in the data model. For relatively simple information, atomic data types (e.g., integers, strings) are provided with a mechanism to annotate their meaning. The class can also be used to extend the data model (and the associated Schema) to support proprietary extensions by encapsulating entire XML documents conforming to another Schema (e.g., IDMEF). A detailed discussion for extending the data model and the schema can be found in Section 5. ">
<polygon fill="#cca352" stroke="transparent" points="546.5,-109 546.5,-130 733.5,-130 733.5,-109 546.5,-109"/>
<polygon fill="none" stroke="#000000" points="546.5,-109 546.5,-130 733.5,-130 733.5,-109 546.5,-109"/>
<text text-anchor="start" x="596" y="-115.8" font-family="Nimbus Sans L" font-size="14.00" fill="#000000">AdditionalData</text>
</a>
</g>
<g id="a_node6_29"><a xlink:href="#" xlink:title="The data type of the element content. &#160;The permitted values for this attribute are shown below. &#160;The default value is &quot;string&quot;.">
<polygon fill="#ffcc66" stroke="transparent" points="546.5,-88 546.5,-109 733.5,-109 733.5,-88 546.5,-88"/>
<polygon fill="none" stroke="#000000" points="546.5,-88 546.5,-109 733.5,-109 733.5,-88 546.5,-88"/>
<text text-anchor="start" x="563.5" y="-94.8" font-family="Nimbus Sans L" font-size="14.00" fill="#000000">[ENUM] dtype (Required)</text>
</a>
</g>
<g id="a_node6_30"><a xlink:href="#" xlink:title="A means by which to extend the dtype attribute. &#160;See Section 5.1.">
<polygon fill="#ffcc66" stroke="transparent" points="546.5,-67 546.5,-88 733.5,-88 733.5,-67 546.5,-67"/>
<polygon fill="none" stroke="#000000" points="546.5,-67 546.5,-88 733.5,-88 733.5,-67 546.5,-67"/>
<text text-anchor="start" x="549.5" y="-73.8" font-family="Nimbus Sans L" font-size="14.00" fill="#000000">[STRING] ext&#45;dtype (Optional)</text>
</a>
</g>
<g id="a_node6_31"><a xlink:href="#" xlink:title="A free&#45;form description of the element content.">
<polygon fill="#ffcc66" stroke="transparent" points="546.5,-46 546.5,-67 733.5,-67 733.5,-46 546.5,-46"/>
<polygon fill="none" stroke="#000000" points="546.5,-46 546.5,-67 733.5,-67 733.5,-46 546.5,-46"/>
<text text-anchor="start" x="550.5" y="-52.8" font-family="Nimbus Sans L" font-size="14.00" fill="#000000">[STRING] meaning (Optional)</text>
</a>
</g>
<g id="a_node6_32"><a xlink:href="#" xlink:title="An identifier referencing the format and semantics of the element content.">
<polygon fill="#ffcc66" stroke="transparent" points="546.5,-25 546.5,-46 733.5,-46 733.5,-25 546.5,-25"/>
<polygon fill="none" stroke="#000000" points="546.5,-25 546.5,-46 733.5,-46 733.5,-25 546.5,-25"/>
<text text-anchor="start" x="552" y="-31.8" font-family="Nimbus Sans L" font-size="14.00" fill="#000000">[STRING] formatid (Optional)</text>
</a>
</g>
<g id="a_node6_33"><a xlink:href="#" xlink:title="This attribute has been defined in Section 3.2.">
<polygon fill="#ffcc66" stroke="transparent" points="546.5,-4 546.5,-25 733.5,-25 733.5,-4 546.5,-4"/>
<polygon fill="none" stroke="#000000" points="546.5,-4 546.5,-25 733.5,-25 733.5,-4 546.5,-4"/>
<text text-anchor="start" x="552.5" y="-10.8" font-family="Nimbus Sans L" font-size="14.00" fill="#000000">[ENUM] restriction (Optional)</text>
</a>
</g>
</g>
<!-- RecordData&#45;&gt;AdditionalData -->
<g id="edge4" class="edge">
<title>RecordData&#45;&gt;AdditionalData</title>
<path fill="none" stroke="#000000" d="M406.3614,-253.8773C438.56,-221.3961 483.8629,-177.6943 527,-143 528.0331,-142.1691 529.0752,-141.338 530.1253,-140.5071"/>
<polygon fill="#000000" stroke="#000000" points="532.5643,-143.0446 538.3182,-134.1484 528.2724,-137.5147 532.5643,-143.0446"/>
<text text-anchor="middle" x="497.5" y="-178.8" font-family="Times,serif" font-size="14.00" fill="#000000">0..1</text>
</g>
</g>
</svg>
