<?xml version="1.0" encoding="UTF-8" standalone="no"?>
<!DOCTYPE svg PUBLIC "-//W3C//DTD SVG 1.1//EN"
 "http://www.w3.org/Graphics/SVG/1.1/DTD/svg11.dtd">
<!-- Generated by graphviz version 2.26.3 (20100126.1600)
 -->
<!-- Title: RecordData Pages: 1 -->
<svg width="582pt" height="654pt"
 viewBox="0.00 0.00 582.00 654.00" xmlns="http://www.w3.org/2000/svg" xmlns:xlink="http://www.w3.org/1999/xlink">
<g id="graph1" class="graph" transform="scale(1 1) rotate(0) translate(4 650)">
<title>RecordData</title>
<polygon fill="white" stroke="white" points="-4,5 -4,-650 579,-650 579,5 -4,5"/>
<!-- RecordData -->
<g id="node1" class="node"><title>RecordData</title>
<a xlink:href="#" xlink:title="The RecordData class groups log or audit data from a given sensor (e.g., IDS, firewall log) and provides a way to annotate the output. ">
<polygon fill="#997a00" stroke="#997a00" points="9,-307 9,-328 236,-328 236,-307 9,-307"/>
<polygon fill="none" stroke="black" points="9,-307 9,-328 236,-328 236,-307 9,-307"/>
<text text-anchor="start" x="82" y="-314.233" font-family="Times Roman,serif" font-size="14.00">RecordData</text>
</a>
<a xlink:href="#" xlink:title="Timestamp of the RecordItem data.">
<polygon fill="#ffcc00" stroke="#ffcc00" points="9,-287 9,-307 236,-307 236,-287 9,-287"/>
<polygon fill="none" stroke="black" points="9,-287 9,-307 236,-307 236,-287 9,-287"/>
<text text-anchor="start" x="58" y="-293.733" font-family="Times Roman,serif" font-size="14.00">[] DateTime (0..1) </text>
</a>
<a xlink:href="#" xlink:title="Free&#45;form textual description of the provided RecordItem data. &#160;At minimum, this description should convey the significance of the provided RecordItem data.">
<polygon fill="#ffcc00" stroke="#ffcc00" points="9,-267 9,-287 236,-287 236,-267 9,-267"/>
<polygon fill="none" stroke="black" points="9,-267 9,-287 236,-287 236,-267 9,-267"/>
<text text-anchor="start" x="12.5" y="-273.733" font-family="Times Roman,serif" font-size="14.00">[ML_STRING] Description (0..*) </text>
</a>
<a xlink:href="#" xlink:title="This attribute has been defined in Section 3.2.">
<polygon fill="#ffcc00" stroke="#ffcc00" points="9,-247 9,-267 236,-267 236,-247 9,-247"/>
<polygon fill="none" stroke="black" points="9,-247 9,-267 236,-267 236,-247 9,-247"/>
<text text-anchor="start" x="19.5" y="-253.733" font-family="Times Roman,serif" font-size="14.00">[ENUM] restriction (Optional) </text>
</a>
</g>
<!-- Application -->
<g id="node2" class="node"><title>Application</title>
<a xlink:href="#" xlink:title="The Application class describes an application running on a System providing a Service. ">
<polygon fill="#182f5f" stroke="#182f5f" points="338,-621 338,-642 545,-642 545,-621 338,-621"/>
<polygon fill="none" stroke="black" points="338,-621 338,-642 545,-642 545,-621 338,-621"/>
<text text-anchor="start" x="403.5" y="-628.233" font-family="Times Roman,serif" font-size="14.00">Application</text>
</a>
<a xlink:href="#" xlink:title="A URL describing the application.">
<polygon fill="#284f9f" stroke="#284f9f" points="338,-601 338,-621 545,-621 545,-601 338,-601"/>
<polygon fill="none" stroke="black" points="338,-601 338,-621 545,-621 545,-601 338,-601"/>
<text text-anchor="start" x="382" y="-607.733" font-family="Times Roman,serif" font-size="14.00">[URL] URL (0..1) </text>
</a>
<a xlink:href="#" xlink:title="An identifier that can be used to reference this software.">
<polygon fill="#284f9f" stroke="#284f9f" points="338,-581 338,-601 545,-601 545,-581 338,-581"/>
<polygon fill="none" stroke="black" points="338,-581 338,-601 545,-601 545,-581 338,-581"/>
<text text-anchor="start" x="352" y="-587.733" font-family="Times Roman,serif" font-size="14.00">[STRING] swid (Optional) </text>
</a>
<a xlink:href="#" xlink:title="An identifier that can be used to reference a particular configuration of this software.">
<polygon fill="#284f9f" stroke="#284f9f" points="338,-561 338,-581 545,-581 545,-561 338,-561"/>
<polygon fill="none" stroke="black" points="338,-561 338,-581 545,-581 545,-561 338,-561"/>
<text text-anchor="start" x="341.5" y="-567.733" font-family="Times Roman,serif" font-size="14.00">[STRING] configid (Optional) </text>
</a>
<a xlink:href="#" xlink:title="Vendor name of the software.">
<polygon fill="#284f9f" stroke="#284f9f" points="338,-541 338,-561 545,-561 545,-541 338,-541"/>
<polygon fill="none" stroke="black" points="338,-541 338,-561 545,-561 545,-541 338,-541"/>
<text text-anchor="start" x="343.5" y="-547.733" font-family="Times Roman,serif" font-size="14.00">[STRING] vendor (Optional) </text>
</a>
<a xlink:href="#" xlink:title="Family of the software.">
<polygon fill="#284f9f" stroke="#284f9f" points="338,-521 338,-541 545,-541 545,-521 338,-521"/>
<polygon fill="none" stroke="black" points="338,-521 338,-541 545,-541 545,-521 338,-521"/>
<text text-anchor="start" x="347" y="-527.733" font-family="Times Roman,serif" font-size="14.00">[STRING] family (Optional) </text>
</a>
<a xlink:href="#" xlink:title="Name of the software.">
<polygon fill="#284f9f" stroke="#284f9f" points="338,-501 338,-521 545,-521 545,-501 338,-501"/>
<polygon fill="none" stroke="black" points="338,-501 338,-521 545,-521 545,-501 338,-501"/>
<text text-anchor="start" x="348.5" y="-507.733" font-family="Times Roman,serif" font-size="14.00">[STRING] name (Optional) </text>
</a>
<a xlink:href="#" xlink:title="Version of the software.">
<polygon fill="#284f9f" stroke="#284f9f" points="338,-481 338,-501 545,-501 545,-481 338,-481"/>
<polygon fill="none" stroke="black" points="338,-481 338,-501 545,-501 545,-481 338,-481"/>
<text text-anchor="start" x="342.5" y="-487.733" font-family="Times Roman,serif" font-size="14.00">[STRING] version (Optional) </text>
</a>
<a xlink:href="#" xlink:title="Patch or service pack level of the software.">
<polygon fill="#284f9f" stroke="#284f9f" points="338,-461 338,-481 545,-481 545,-461 338,-461"/>
<polygon fill="none" stroke="black" points="338,-461 338,-481 545,-481 545,-461 338,-461"/>
<text text-anchor="start" x="348.5" y="-467.733" font-family="Times Roman,serif" font-size="14.00">[STRING] patch (Optional) </text>
</a>
</g>
<!-- RecordData&#45;&gt;Application -->
<g id="edge2" class="edge"><title>RecordData&#45;&gt;Application</title>
<path fill="none" stroke="black" d="M171.499,-332.14C208.618,-364.921 260.916,-410.438 308,-449 312.307,-452.527 316.71,-456.101 321.171,-459.693"/>
<polygon fill="black" stroke="black" points="319.264,-462.65 329.255,-466.175 323.643,-457.189 319.264,-462.65"/>
<text text-anchor="middle" x="276" y="-436.4" font-family="Times Roman,serif" font-size="14.00">0..1</text>
</g>
<!-- RecordPattern -->
<g id="node4" class="node"><title>RecordPattern</title>
<a xlink:href="#" xlink:title="The RecordPattern class describes where in the content of the RecordItem relevant information can be found. It provides a way to reference subsets of information, identified by a pattern, in a large log file, audit trail, or forensic data. ">
<polygon fill="#997a00" stroke="#997a00" points="317,-415 317,-436 566,-436 566,-415 317,-415"/>
<polygon fill="none" stroke="black" points="317,-415 317,-436 566,-436 566,-415 317,-415"/>
<text text-anchor="start" x="392" y="-422.233" font-family="Times Roman,serif" font-size="14.00">RecordPattern</text>
</a>
<a xlink:href="#" xlink:title="Describes the type of pattern being specified in the element content. &#160;The default is &quot;regex&quot;.">
<polygon fill="#ffcc00" stroke="#ffcc00" points="317,-395 317,-415 566,-415 566,-395 317,-395"/>
<polygon fill="none" stroke="black" points="317,-395 317,-415 566,-415 566,-395 317,-395"/>
<text text-anchor="start" x="357" y="-401.733" font-family="Times Roman,serif" font-size="14.00">[ENUM] type (Required) </text>
</a>
<a xlink:href="#" xlink:title="A means by which to extend the type attribute. See Section 5.1.">
<polygon fill="#ffcc00" stroke="#ffcc00" points="317,-375 317,-395 566,-395 566,-375 317,-375"/>
<polygon fill="none" stroke="black" points="317,-375 317,-395 566,-395 566,-375 317,-375"/>
<text text-anchor="start" x="338.5" y="-381.733" font-family="Times Roman,serif" font-size="14.00">[STRING] ext&#45;type (Optional) </text>
</a>
<a xlink:href="#" xlink:title="Amount of units (determined by the offsetunit attribute) to seek into the RecordItem data before matching the pattern.">
<polygon fill="#ffcc00" stroke="#ffcc00" points="317,-355 317,-375 566,-375 566,-355 317,-355"/>
<polygon fill="none" stroke="black" points="317,-355 317,-375 566,-375 566,-355 317,-355"/>
<text text-anchor="start" x="343.5" y="-361.733" font-family="Times Roman,serif" font-size="14.00">[INTEGER] offset (Optional) </text>
</a>
<a xlink:href="#" xlink:title="Describes the units of the offset attribute. The default is &quot;line&quot;.">
<polygon fill="#ffcc00" stroke="#ffcc00" points="317,-335 317,-355 566,-355 566,-335 317,-335"/>
<polygon fill="none" stroke="black" points="317,-335 317,-355 566,-355 566,-335 317,-335"/>
<text text-anchor="start" x="340.5" y="-341.733" font-family="Times Roman,serif" font-size="14.00">[ENUM] offsetunit (Optional) </text>
</a>
<a xlink:href="#" xlink:title="A means by which to extend the offsetunit attribute. &#160;See Section 5.1.">
<polygon fill="#ffcc00" stroke="#ffcc00" points="317,-315 317,-335 566,-335 566,-315 317,-315"/>
<polygon fill="none" stroke="black" points="317,-315 317,-335 566,-335 566,-315 317,-315"/>
<text text-anchor="start" x="320.5" y="-321.733" font-family="Times Roman,serif" font-size="14.00">[STRING] ext&#45;offsetunit (Optional) </text>
</a>
<a xlink:href="#" xlink:title="Number of types to apply the specified pattern.">
<polygon fill="#ffcc00" stroke="#ffcc00" points="317,-295 317,-315 566,-315 566,-295 317,-295"/>
<polygon fill="none" stroke="black" points="317,-295 317,-315 566,-315 566,-295 317,-295"/>
<text text-anchor="start" x="334.5" y="-301.733" font-family="Times Roman,serif" font-size="14.00">[INTEGER] instance (Optional) </text>
</a>
</g>
<!-- RecordData&#45;&gt;RecordPattern -->
<g id="edge4" class="edge"><title>RecordData&#45;&gt;RecordPattern</title>
<path fill="none" stroke="black" d="M243.51,-317.711C261.495,-322.108 280.163,-326.673 298.528,-331.163"/>
<polygon fill="black" stroke="black" points="297.849,-334.601 308.394,-333.576 299.511,-327.801 297.849,-334.601"/>
<text text-anchor="middle" x="276" y="-331.4" font-family="Times Roman,serif" font-size="14.00">0..*</text>
</g>
<!-- RecordItem -->
<g id="node6" class="node"><title>RecordItem</title>
<a xlink:href="#" xlink:title="The RecordItem class provides a way to incorporate relevant logs, audit trails, or forensic data to support the conclusions made during the course of analyzing the incident. The class supports both the direct encapsulation of the data, as well as, provides primitives to reference data stored elsewhere. ">
<polygon fill="#997a00" stroke="#997a00" points="331,-249 331,-270 552,-270 552,-249 331,-249"/>
<polygon fill="none" stroke="black" points="331,-249 331,-270 552,-270 552,-249 331,-249"/>
<text text-anchor="start" x="402" y="-256.233" font-family="Times Roman,serif" font-size="14.00">RecordItem</text>
</a>
<a xlink:href="#" xlink:title="The data type of the element content. &#160;The permitted values for this attribute are shown below. &#160;The default value is &quot;string&quot;.">
<polygon fill="#ffcc00" stroke="#ffcc00" points="331,-229 331,-249 552,-249 552,-229 331,-229"/>
<polygon fill="none" stroke="black" points="331,-229 331,-249 552,-249 552,-229 331,-229"/>
<text text-anchor="start" x="353" y="-235.733" font-family="Times Roman,serif" font-size="14.00">[ENUM] dtype (Required) </text>
</a>
<a xlink:href="#" xlink:title="A means by which to extend the dtype attribute. &#160;See Section 5.1.">
<polygon fill="#ffcc00" stroke="#ffcc00" points="331,-209 331,-229 552,-229 552,-209 331,-209"/>
<polygon fill="none" stroke="black" points="331,-209 331,-229 552,-229 552,-209 331,-209"/>
<text text-anchor="start" x="334.5" y="-215.733" font-family="Times Roman,serif" font-size="14.00">[STRING] ext&#45;dtype (Optional) </text>
</a>
<a xlink:href="#" xlink:title="A free&#45;form description of the element content.">
<polygon fill="#ffcc00" stroke="#ffcc00" points="331,-189 331,-209 552,-209 552,-189 331,-189"/>
<polygon fill="none" stroke="black" points="331,-189 331,-209 552,-209 552,-189 331,-189"/>
<text text-anchor="start" x="338" y="-195.733" font-family="Times Roman,serif" font-size="14.00">[STRING] meaning (Optional) </text>
</a>
<a xlink:href="#" xlink:title="An identifier referencing the format and semantics of the element content.">
<polygon fill="#ffcc00" stroke="#ffcc00" points="331,-169 331,-189 552,-189 552,-169 331,-169"/>
<polygon fill="none" stroke="black" points="331,-169 331,-189 552,-189 552,-169 331,-169"/>
<text text-anchor="start" x="339" y="-175.733" font-family="Times Roman,serif" font-size="14.00">[STRING] formatid (Optional) </text>
</a>
<a xlink:href="#" xlink:title="This attribute has been defined in Section 3.2.">
<polygon fill="#ffcc00" stroke="#ffcc00" points="331,-149 331,-169 552,-169 552,-149 331,-149"/>
<polygon fill="none" stroke="black" points="331,-149 331,-169 552,-169 552,-149 331,-149"/>
<text text-anchor="start" x="338.5" y="-155.733" font-family="Times Roman,serif" font-size="14.00">[ENUM] restriction (Optional) </text>
</a>
</g>
<!-- RecordData&#45;&gt;RecordItem -->
<g id="edge6" class="edge"><title>RecordData&#45;&gt;RecordItem</title>
<path fill="none" stroke="black" d="M243.51,-258.289C266.158,-252.751 289.89,-246.949 312.733,-241.363"/>
<polygon fill="black" stroke="black" points="313.58,-244.759 322.462,-238.984 311.917,-237.96 313.58,-244.759"/>
<text text-anchor="middle" x="276" y="-257.4" font-family="Times Roman,serif" font-size="14.00">1..*</text>
</g>
<!-- AdditionalData -->
<g id="node8" class="node"><title>AdditionalData</title>
<a xlink:href="#" xlink:title="The AdditionalData class serves as an extension mechanism for information not otherwise represented in the data model. For relatively simple information, atomic data types (e.g., integers, strings) are provided with a mechanism to annotate their meaning. The class can also be used to extend the data model (and the associated Schema) to support proprietary extensions by encapsulating entire XML documents conforming to another Schema (e.g., IDMEF). A detailed discussion for extending the data model and the schema can be found in Section 5. ">
<polygon fill="#997a3d" stroke="#997a3d" points="331,-103 331,-124 552,-124 552,-103 331,-103"/>
<polygon fill="none" stroke="black" points="331,-103 331,-124 552,-124 552,-103 331,-103"/>
<text text-anchor="start" x="390" y="-110.233" font-family="Times Roman,serif" font-size="14.00">AdditionalData</text>
</a>
<a xlink:href="#" xlink:title="The data type of the element content. &#160;The permitted values for this attribute are shown below. &#160;The default value is &quot;string&quot;.">
<polygon fill="#ffcc66" stroke="#ffcc66" points="331,-83 331,-103 552,-103 552,-83 331,-83"/>
<polygon fill="none" stroke="black" points="331,-83 331,-103 552,-103 552,-83 331,-83"/>
<text text-anchor="start" x="353" y="-89.7333" font-family="Times Roman,serif" font-size="14.00">[ENUM] dtype (Required) </text>
</a>
<a xlink:href="#" xlink:title="A means by which to extend the dtype attribute. &#160;See Section 5.1.">
<polygon fill="#ffcc66" stroke="#ffcc66" points="331,-63 331,-83 552,-83 552,-63 331,-63"/>
<polygon fill="none" stroke="black" points="331,-63 331,-83 552,-83 552,-63 331,-63"/>
<text text-anchor="start" x="334.5" y="-69.7333" font-family="Times Roman,serif" font-size="14.00">[STRING] ext&#45;dtype (Optional) </text>
</a>
<a xlink:href="#" xlink:title="A free&#45;form description of the element content.">
<polygon fill="#ffcc66" stroke="#ffcc66" points="331,-43 331,-63 552,-63 552,-43 331,-43"/>
<polygon fill="none" stroke="black" points="331,-43 331,-63 552,-63 552,-43 331,-43"/>
<text text-anchor="start" x="338" y="-49.7333" font-family="Times Roman,serif" font-size="14.00">[STRING] meaning (Optional) </text>
</a>
<a xlink:href="#" xlink:title="An identifier referencing the format and semantics of the element content.">
<polygon fill="#ffcc66" stroke="#ffcc66" points="331,-23 331,-43 552,-43 552,-23 331,-23"/>
<polygon fill="none" stroke="black" points="331,-23 331,-43 552,-43 552,-23 331,-23"/>
<text text-anchor="start" x="339" y="-29.7333" font-family="Times Roman,serif" font-size="14.00">[STRING] formatid (Optional) </text>
</a>
<a xlink:href="#" xlink:title="This attribute has been defined in Section 3.2.">
<polygon fill="#ffcc66" stroke="#ffcc66" points="331,-3 331,-23 552,-23 552,-3 331,-3"/>
<polygon fill="none" stroke="black" points="331,-3 331,-23 552,-23 552,-3 331,-3"/>
<text text-anchor="start" x="338.5" y="-9.73333" font-family="Times Roman,serif" font-size="14.00">[ENUM] restriction (Optional) </text>
</a>
</g>
<!-- RecordData&#45;&gt;AdditionalData -->
<g id="edge8" class="edge"><title>RecordData&#45;&gt;AdditionalData</title>
<path fill="none" stroke="black" d="M171.417,-243.773C207.85,-212.207 259.332,-169.723 308,-137 309.909,-135.716 311.843,-134.435 313.797,-133.158"/>
<polygon fill="black" stroke="black" points="315.957,-135.931 322.487,-127.588 312.179,-130.038 315.957,-135.931"/>
<text text-anchor="middle" x="276" y="-171.4" font-family="Times Roman,serif" font-size="14.00">0..1</text>
</g>
</g>
</svg>
