<?xml version="1.0" encoding="UTF-8" standalone="no"?>
<!DOCTYPE svg PUBLIC "-//W3C//DTD SVG 1.1//EN"
 "http://www.w3.org/Graphics/SVG/1.1/DTD/svg11.dtd">
<!-- Generated by graphviz version 2.40.1 (0)
 -->
<!-- Title: RecordData Pages: 1 -->
<svg width="504pt" height="683pt"
 viewBox="0.00 0.00 504.00 682.50" xmlns="http://www.w3.org/2000/svg" xmlns:xlink="http://www.w3.org/1999/xlink">
<g id="graph0" class="graph" transform="scale(1 1) rotate(0) translate(4 678.5)">
<title>RecordData</title>
<polygon fill="#ffffff" stroke="transparent" points="-4,4 -4,-678.5 500,-678.5 500,4 -4,4"/>
<!-- RecordData -->
<g id="node1" class="node">
<title>RecordData</title>
<g id="a_node1_0"><a xlink:href="#" xlink:title="The RecordData class groups log or audit data from a given sensor (e.g., IDS, firewall log) and provides a way to annotate the output. ">
<polygon fill="#cca300" stroke="transparent" points="8,-321 8,-342 204,-342 204,-321 8,-321"/>
<polygon fill="none" stroke="#000000" points="8,-321 8,-342 204,-342 204,-321 8,-321"/>
<text text-anchor="start" x="69.5" y="-327.8" font-family="Nimbus Sans L" font-size="14.00" fill="#000000">RecordData</text>
</a>
</g>
<g id="a_node1_1"><a xlink:href="#" xlink:title="Timestamp of the RecordItem data.">
<polygon fill="#ffcc00" stroke="transparent" points="8,-300 8,-321 204,-321 204,-300 8,-300"/>
<polygon fill="none" stroke="#000000" points="8,-300 8,-321 204,-321 204,-300 8,-300"/>
<text text-anchor="start" x="53" y="-306.8" font-family="Nimbus Sans L" font-size="14.00" fill="#000000">[] DateTime (0..1)</text>
</a>
</g>
<g id="a_node1_2"><a xlink:href="#" xlink:title="Free&#45;form textual description of the provided RecordItem data. &#160;At minimum, this description should convey the significance of the provided RecordItem data.">
<polygon fill="#ffcc00" stroke="transparent" points="8,-279 8,-300 204,-300 204,-279 8,-279"/>
<polygon fill="none" stroke="#000000" points="8,-279 8,-300 204,-300 204,-279 8,-279"/>
<text text-anchor="start" x="11" y="-285.8" font-family="Nimbus Sans L" font-size="14.00" fill="#000000">[ML_STRING] Description (0..*)</text>
</a>
</g>
<g id="a_node1_3"><a xlink:href="#" xlink:title="This attribute has been defined in Section 3.2.">
<polygon fill="#ffcc00" stroke="transparent" points="8,-258 8,-279 204,-279 204,-258 8,-258"/>
<polygon fill="none" stroke="#000000" points="8,-258 8,-279 204,-279 204,-258 8,-258"/>
<text text-anchor="start" x="18.5" y="-264.8" font-family="Nimbus Sans L" font-size="14.00" fill="#000000">[ENUM] restriction (Optional)</text>
</a>
</g>
</g>
<!-- Application -->
<g id="node2" class="node">
<title>Application</title>
<g id="a_node2_4"><a xlink:href="#" xlink:title="The Application class describes an application running on a System providing a Service. ">
<polygon fill="#203f7f" stroke="transparent" points="294.5,-649 294.5,-670 473.5,-670 473.5,-649 294.5,-649"/>
<polygon fill="none" stroke="#000000" points="294.5,-649 294.5,-670 473.5,-670 473.5,-649 294.5,-649"/>
<text text-anchor="start" x="350.5" y="-655.8" font-family="Nimbus Sans L" font-size="14.00" fill="#000000">Application</text>
</a>
</g>
<g id="a_node2_5"><a xlink:href="#" xlink:title="A URL describing the application.">
<polygon fill="#284f9f" stroke="transparent" points="294.5,-628 294.5,-649 473.5,-649 473.5,-628 294.5,-628"/>
<polygon fill="none" stroke="#000000" points="294.5,-628 294.5,-649 473.5,-649 473.5,-628 294.5,-628"/>
<text text-anchor="start" x="334" y="-634.8" font-family="Nimbus Sans L" font-size="14.00" fill="#000000">[URL] URL (0..1)</text>
</a>
</g>
<g id="a_node2_6"><a xlink:href="#" xlink:title="An identifier that can be used to reference this software.">
<polygon fill="#284f9f" stroke="transparent" points="294.5,-607 294.5,-628 473.5,-628 473.5,-607 294.5,-607"/>
<polygon fill="none" stroke="#000000" points="294.5,-607 294.5,-628 473.5,-628 473.5,-607 294.5,-607"/>
<text text-anchor="start" x="307" y="-613.8" font-family="Nimbus Sans L" font-size="14.00" fill="#000000">[STRING] swid (Optional)</text>
</a>
</g>
<g id="a_node2_7"><a xlink:href="#" xlink:title="An identifier that can be used to reference a particular configuration of this software.">
<polygon fill="#284f9f" stroke="transparent" points="294.5,-586 294.5,-607 473.5,-607 473.5,-586 294.5,-586"/>
<polygon fill="none" stroke="#000000" points="294.5,-586 294.5,-607 473.5,-607 473.5,-586 294.5,-586"/>
<text text-anchor="start" x="297.5" y="-592.8" font-family="Nimbus Sans L" font-size="14.00" fill="#000000">[STRING] configid (Optional)</text>
</a>
</g>
<g id="a_node2_8"><a xlink:href="#" xlink:title="Vendor name of the software.">
<polygon fill="#284f9f" stroke="transparent" points="294.5,-565 294.5,-586 473.5,-586 473.5,-565 294.5,-565"/>
<polygon fill="none" stroke="#000000" points="294.5,-565 294.5,-586 473.5,-586 473.5,-565 294.5,-565"/>
<text text-anchor="start" x="300" y="-571.8" font-family="Nimbus Sans L" font-size="14.00" fill="#000000">[STRING] vendor (Optional)</text>
</a>
</g>
<g id="a_node2_9"><a xlink:href="#" xlink:title="Family of the software.">
<polygon fill="#284f9f" stroke="transparent" points="294.5,-544 294.5,-565 473.5,-565 473.5,-544 294.5,-544"/>
<polygon fill="none" stroke="#000000" points="294.5,-544 294.5,-565 473.5,-565 473.5,-544 294.5,-544"/>
<text text-anchor="start" x="302.5" y="-550.8" font-family="Nimbus Sans L" font-size="14.00" fill="#000000">[STRING] family (Optional)</text>
</a>
</g>
<g id="a_node2_10"><a xlink:href="#" xlink:title="Name of the software.">
<polygon fill="#284f9f" stroke="transparent" points="294.5,-523 294.5,-544 473.5,-544 473.5,-523 294.5,-523"/>
<polygon fill="none" stroke="#000000" points="294.5,-523 294.5,-544 473.5,-544 473.5,-523 294.5,-523"/>
<text text-anchor="start" x="303.5" y="-529.8" font-family="Nimbus Sans L" font-size="14.00" fill="#000000">[STRING] name (Optional)</text>
</a>
</g>
<g id="a_node2_11"><a xlink:href="#" xlink:title="Version of the software.">
<polygon fill="#284f9f" stroke="transparent" points="294.5,-502 294.5,-523 473.5,-523 473.5,-502 294.5,-502"/>
<polygon fill="none" stroke="#000000" points="294.5,-502 294.5,-523 473.5,-523 473.5,-502 294.5,-502"/>
<text text-anchor="start" x="299" y="-508.8" font-family="Nimbus Sans L" font-size="14.00" fill="#000000">[STRING] version (Optional)</text>
</a>
</g>
<g id="a_node2_12"><a xlink:href="#" xlink:title="Patch or service pack level of the software.">
<polygon fill="#284f9f" stroke="transparent" points="294.5,-481 294.5,-502 473.5,-502 473.5,-481 294.5,-481"/>
<polygon fill="none" stroke="#000000" points="294.5,-481 294.5,-502 473.5,-502 473.5,-481 294.5,-481"/>
<text text-anchor="start" x="304" y="-487.8" font-family="Nimbus Sans L" font-size="14.00" fill="#000000">[STRING] patch (Optional)</text>
</a>
</g>
</g>
<!-- RecordData&#45;&gt;Application -->
<g id="edge1" class="edge">
<title>RecordData&#45;&gt;Application</title>
<path fill="none" stroke="#000000" d="M150.3649,-346.3584C183.3243,-380.5731 229.5586,-428.097 271,-469 273.398,-471.3668 275.83,-473.7577 278.2871,-476.1645"/>
<polygon fill="#000000" stroke="#000000" points="276.1236,-478.9437 285.7242,-483.4249 281.0135,-473.9348 276.1236,-478.9437"/>
<text text-anchor="middle" x="241.5" y="-453.8" font-family="Times,serif" font-size="14.00" fill="#000000">0..1</text>
</g>
<!-- RecordPattern -->
<g id="node3" class="node">
<title>RecordPattern</title>
<g id="a_node3_13"><a xlink:href="#" xlink:title="The RecordPattern class describes where in the content of the RecordItem relevant information can be found. It provides a way to reference subsets of information, identified by a pattern, in a large log file, audit trail, or forensic data. ">
<polygon fill="#cca300" stroke="transparent" points="279.5,-434 279.5,-455 488.5,-455 488.5,-434 279.5,-434"/>
<polygon fill="none" stroke="#000000" points="279.5,-434 279.5,-455 488.5,-455 488.5,-434 279.5,-434"/>
<text text-anchor="start" x="340.5" y="-440.8" font-family="Nimbus Sans L" font-size="14.00" fill="#000000">RecordPattern</text>
</a>
</g>
<g id="a_node3_14"><a xlink:href="#" xlink:title="Describes the type of pattern being specified in the element content. &#160;The default is &quot;regex&quot;.">
<polygon fill="#ffcc00" stroke="transparent" points="279.5,-413 279.5,-434 488.5,-434 488.5,-413 279.5,-413"/>
<polygon fill="none" stroke="#000000" points="279.5,-413 279.5,-434 488.5,-434 488.5,-413 279.5,-413"/>
<text text-anchor="start" x="311.5" y="-419.8" font-family="Nimbus Sans L" font-size="14.00" fill="#000000">[ENUM] type (Required)</text>
</a>
</g>
<g id="a_node3_15"><a xlink:href="#" xlink:title="A means by which to extend the type attribute. See Section 5.1.">
<polygon fill="#ffcc00" stroke="transparent" points="279.5,-392 279.5,-413 488.5,-413 488.5,-392 279.5,-392"/>
<polygon fill="none" stroke="#000000" points="279.5,-392 279.5,-413 488.5,-413 488.5,-392 279.5,-392"/>
<text text-anchor="start" x="297" y="-398.8" font-family="Nimbus Sans L" font-size="14.00" fill="#000000">[STRING] ext&#45;type (Optional)</text>
</a>
</g>
<g id="a_node3_16"><a xlink:href="#" xlink:title="Amount of units (determined by the offsetunit attribute) to seek into the RecordItem data before matching the pattern.">
<polygon fill="#ffcc00" stroke="transparent" points="279.5,-371 279.5,-392 488.5,-392 488.5,-371 279.5,-371"/>
<polygon fill="none" stroke="#000000" points="279.5,-371 279.5,-392 488.5,-392 488.5,-371 279.5,-371"/>
<text text-anchor="start" x="299.5" y="-377.8" font-family="Nimbus Sans L" font-size="14.00" fill="#000000">[INTEGER] offset (Optional)</text>
</a>
</g>
<g id="a_node3_17"><a xlink:href="#" xlink:title="Describes the units of the offset attribute. The default is &quot;line&quot;.">
<polygon fill="#ffcc00" stroke="transparent" points="279.5,-350 279.5,-371 488.5,-371 488.5,-350 279.5,-350"/>
<polygon fill="none" stroke="#000000" points="279.5,-350 279.5,-371 488.5,-371 488.5,-350 279.5,-350"/>
<text text-anchor="start" x="298.5" y="-356.8" font-family="Nimbus Sans L" font-size="14.00" fill="#000000">[ENUM] offsetunit (Optional)</text>
</a>
</g>
<g id="a_node3_18"><a xlink:href="#" xlink:title="A means by which to extend the offsetunit attribute. &#160;See Section 5.1.">
<polygon fill="#ffcc00" stroke="transparent" points="279.5,-329 279.5,-350 488.5,-350 488.5,-329 279.5,-329"/>
<polygon fill="none" stroke="#000000" points="279.5,-329 279.5,-350 488.5,-350 488.5,-329 279.5,-329"/>
<text text-anchor="start" x="282.5" y="-335.8" font-family="Nimbus Sans L" font-size="14.00" fill="#000000">[STRING] ext&#45;offsetunit (Optional)</text>
</a>
</g>
<g id="a_node3_19"><a xlink:href="#" xlink:title="Number of types to apply the specified pattern.">
<polygon fill="#ffcc00" stroke="transparent" points="279.5,-308 279.5,-329 488.5,-329 488.5,-308 279.5,-308"/>
<polygon fill="none" stroke="#000000" points="279.5,-308 279.5,-329 488.5,-329 488.5,-308 279.5,-308"/>
<text text-anchor="start" x="290.5" y="-314.8" font-family="Nimbus Sans L" font-size="14.00" fill="#000000">[INTEGER] instance (Optional)</text>
</a>
</g>
</g>
<!-- RecordData&#45;&gt;RecordPattern -->
<g id="edge2" class="edge">
<title>RecordData&#45;&gt;RecordPattern</title>
<path fill="none" stroke="#000000" d="M212.0987,-331.3517C227.9372,-336.0319 244.3776,-340.89 260.529,-345.6626"/>
<polygon fill="#000000" stroke="#000000" points="259.9583,-349.1435 270.5402,-348.6209 261.942,-342.4305 259.9583,-349.1435"/>
<text text-anchor="middle" x="241.5" y="-344.8" font-family="Times,serif" font-size="14.00" fill="#000000">0..*</text>
</g>
<!-- RecordItem -->
<g id="node4" class="node">
<title>RecordItem</title>
<g id="a_node4_20"><a xlink:href="#" xlink:title="The RecordItem class provides a way to incorporate relevant logs, audit trails, or forensic data to support the conclusions made during the course of analyzing the incident. The class supports both the direct encapsulation of the data, as well as, provides primitives to reference data stored elsewhere. ">
<polygon fill="#cca300" stroke="transparent" points="290.5,-261 290.5,-282 477.5,-282 477.5,-261 290.5,-261"/>
<polygon fill="none" stroke="#000000" points="290.5,-261 290.5,-282 477.5,-282 477.5,-261 290.5,-261"/>
<text text-anchor="start" x="348.5" y="-267.8" font-family="Nimbus Sans L" font-size="14.00" fill="#000000">RecordItem</text>
</a>
</g>
<g id="a_node4_21"><a xlink:href="#" xlink:title="The data type of the element content. &#160;The permitted values for this attribute are shown below. &#160;The default value is &quot;string&quot;.">
<polygon fill="#ffcc00" stroke="transparent" points="290.5,-240 290.5,-261 477.5,-261 477.5,-240 290.5,-240"/>
<polygon fill="none" stroke="#000000" points="290.5,-240 290.5,-261 477.5,-261 477.5,-240 290.5,-240"/>
<text text-anchor="start" x="307.5" y="-246.8" font-family="Nimbus Sans L" font-size="14.00" fill="#000000">[ENUM] dtype (Required)</text>
</a>
</g>
<g id="a_node4_22"><a xlink:href="#" xlink:title="A means by which to extend the dtype attribute. &#160;See Section 5.1.">
<polygon fill="#ffcc00" stroke="transparent" points="290.5,-219 290.5,-240 477.5,-240 477.5,-219 290.5,-219"/>
<polygon fill="none" stroke="#000000" points="290.5,-219 290.5,-240 477.5,-240 477.5,-219 290.5,-219"/>
<text text-anchor="start" x="293.5" y="-225.8" font-family="Nimbus Sans L" font-size="14.00" fill="#000000">[STRING] ext&#45;dtype (Optional)</text>
</a>
</g>
<g id="a_node4_23"><a xlink:href="#" xlink:title="A free&#45;form description of the element content.">
<polygon fill="#ffcc00" stroke="transparent" points="290.5,-198 290.5,-219 477.5,-219 477.5,-198 290.5,-198"/>
<polygon fill="none" stroke="#000000" points="290.5,-198 290.5,-219 477.5,-219 477.5,-198 290.5,-198"/>
<text text-anchor="start" x="294.5" y="-204.8" font-family="Nimbus Sans L" font-size="14.00" fill="#000000">[STRING] meaning (Optional)</text>
</a>
</g>
<g id="a_node4_24"><a xlink:href="#" xlink:title="An identifier referencing the format and semantics of the element content.">
<polygon fill="#ffcc00" stroke="transparent" points="290.5,-177 290.5,-198 477.5,-198 477.5,-177 290.5,-177"/>
<polygon fill="none" stroke="#000000" points="290.5,-177 290.5,-198 477.5,-198 477.5,-177 290.5,-177"/>
<text text-anchor="start" x="296" y="-183.8" font-family="Nimbus Sans L" font-size="14.00" fill="#000000">[STRING] formatid (Optional)</text>
</a>
</g>
<g id="a_node4_25"><a xlink:href="#" xlink:title="This attribute has been defined in Section 3.2.">
<polygon fill="#ffcc00" stroke="transparent" points="290.5,-156 290.5,-177 477.5,-177 477.5,-156 290.5,-156"/>
<polygon fill="none" stroke="#000000" points="290.5,-156 290.5,-177 477.5,-177 477.5,-156 290.5,-156"/>
<text text-anchor="start" x="296.5" y="-162.8" font-family="Nimbus Sans L" font-size="14.00" fill="#000000">[ENUM] restriction (Optional)</text>
</a>
</g>
</g>
<!-- RecordData&#45;&gt;RecordItem -->
<g id="edge3" class="edge">
<title>RecordData&#45;&gt;RecordItem</title>
<path fill="none" stroke="#000000" d="M212.0987,-269.0307C231.6907,-263.3119 252.2035,-257.3244 271.9512,-251.5602"/>
<polygon fill="#000000" stroke="#000000" points="272.958,-254.9125 281.5767,-248.7506 270.9965,-248.1929 272.958,-254.9125"/>
<text text-anchor="middle" x="241.5" y="-264.8" font-family="Times,serif" font-size="14.00" fill="#000000">1..*</text>
</g>
<!-- AdditionalData -->
<g id="node5" class="node">
<title>AdditionalData</title>
<g id="a_node5_26"><a xlink:href="#" xlink:title="The AdditionalData class serves as an extension mechanism for information not otherwise represented in the data model. For relatively simple information, atomic data types (e.g., integers, strings) are provided with a mechanism to annotate their meaning. The class can also be used to extend the data model (and the associated Schema) to support proprietary extensions by encapsulating entire XML documents conforming to another Schema (e.g., IDMEF). A detailed discussion for extending the data model and the schema can be found in Section 5. ">
<polygon fill="#cca352" stroke="transparent" points="290.5,-109 290.5,-130 477.5,-130 477.5,-109 290.5,-109"/>
<polygon fill="none" stroke="#000000" points="290.5,-109 290.5,-130 477.5,-130 477.5,-109 290.5,-109"/>
<text text-anchor="start" x="340" y="-115.8" font-family="Nimbus Sans L" font-size="14.00" fill="#000000">AdditionalData</text>
</a>
</g>
<g id="a_node5_27"><a xlink:href="#" xlink:title="The data type of the element content. &#160;The permitted values for this attribute are shown below. &#160;The default value is &quot;string&quot;.">
<polygon fill="#ffcc66" stroke="transparent" points="290.5,-88 290.5,-109 477.5,-109 477.5,-88 290.5,-88"/>
<polygon fill="none" stroke="#000000" points="290.5,-88 290.5,-109 477.5,-109 477.5,-88 290.5,-88"/>
<text text-anchor="start" x="307.5" y="-94.8" font-family="Nimbus Sans L" font-size="14.00" fill="#000000">[ENUM] dtype (Required)</text>
</a>
</g>
<g id="a_node5_28"><a xlink:href="#" xlink:title="A means by which to extend the dtype attribute. &#160;See Section 5.1.">
<polygon fill="#ffcc66" stroke="transparent" points="290.5,-67 290.5,-88 477.5,-88 477.5,-67 290.5,-67"/>
<polygon fill="none" stroke="#000000" points="290.5,-67 290.5,-88 477.5,-88 477.5,-67 290.5,-67"/>
<text text-anchor="start" x="293.5" y="-73.8" font-family="Nimbus Sans L" font-size="14.00" fill="#000000">[STRING] ext&#45;dtype (Optional)</text>
</a>
</g>
<g id="a_node5_29"><a xlink:href="#" xlink:title="A free&#45;form description of the element content.">
<polygon fill="#ffcc66" stroke="transparent" points="290.5,-46 290.5,-67 477.5,-67 477.5,-46 290.5,-46"/>
<polygon fill="none" stroke="#000000" points="290.5,-46 290.5,-67 477.5,-67 477.5,-46 290.5,-46"/>
<text text-anchor="start" x="294.5" y="-52.8" font-family="Nimbus Sans L" font-size="14.00" fill="#000000">[STRING] meaning (Optional)</text>
</a>
</g>
<g id="a_node5_30"><a xlink:href="#" xlink:title="An identifier referencing the format and semantics of the element content.">
<polygon fill="#ffcc66" stroke="transparent" points="290.5,-25 290.5,-46 477.5,-46 477.5,-25 290.5,-25"/>
<polygon fill="none" stroke="#000000" points="290.5,-25 290.5,-46 477.5,-46 477.5,-25 290.5,-25"/>
<text text-anchor="start" x="296" y="-31.8" font-family="Nimbus Sans L" font-size="14.00" fill="#000000">[STRING] formatid (Optional)</text>
</a>
</g>
<g id="a_node5_31"><a xlink:href="#" xlink:title="This attribute has been defined in Section 3.2.">
<polygon fill="#ffcc66" stroke="transparent" points="290.5,-4 290.5,-25 477.5,-25 477.5,-4 290.5,-4"/>
<polygon fill="none" stroke="#000000" points="290.5,-4 290.5,-25 477.5,-25 477.5,-4 290.5,-4"/>
<text text-anchor="start" x="296.5" y="-10.8" font-family="Nimbus Sans L" font-size="14.00" fill="#000000">[ENUM] restriction (Optional)</text>
</a>
</g>
</g>
<!-- RecordData&#45;&gt;AdditionalData -->
<g id="edge4" class="edge">
<title>RecordData&#45;&gt;AdditionalData</title>
<path fill="none" stroke="#000000" d="M150.3614,-253.8773C182.56,-221.3961 227.8629,-177.6943 271,-143 272.0331,-142.1691 273.0752,-141.338 274.1253,-140.5071"/>
<polygon fill="#000000" stroke="#000000" points="276.5643,-143.0446 282.3182,-134.1484 272.2724,-137.5147 276.5643,-143.0446"/>
<text text-anchor="middle" x="241.5" y="-178.8" font-family="Times,serif" font-size="14.00" fill="#000000">0..1</text>
</g>
</g>
</svg>
