<?xml version="1.0" encoding="UTF-8" standalone="no"?>
<!DOCTYPE svg PUBLIC "-//W3C//DTD SVG 1.1//EN"
 "http://www.w3.org/Graphics/SVG/1.1/DTD/svg11.dtd">
<!-- Generated by graphviz version 2.40.1 (0)
 -->
<!-- Title: Reference Pages: 1 -->
<svg width="254pt" height="100pt"
 viewBox="0.00 0.00 254.00 100.00" xmlns="http://www.w3.org/2000/svg" xmlns:xlink="http://www.w3.org/1999/xlink">
<g id="graph0" class="graph" transform="scale(1 1) rotate(0) translate(4 96)">
<title>Reference</title>
<polygon fill="#ffffff" stroke="transparent" points="-4,4 -4,-96 250,-96 250,4 -4,4"/>
<!-- Reference -->
<g id="node1" class="node">
<title>Reference</title>
<g id="a_node1_0"><a xlink:href="#" xlink:title="The Reference class is a reference to a vulnerability, IDS alert, malware sample, advisory, or attack technique. A reference consists of a name, a URL to this reference, and an optional description. ">
<polygon fill="#7a5229" stroke="transparent" points="8,-67 8,-88 238,-88 238,-67 8,-67"/>
<polygon fill="none" stroke="#000000" points="8,-67 8,-88 238,-88 238,-67 8,-67"/>
<text text-anchor="start" x="91.5" y="-73.8" font-family="Nimbus Sans L" font-size="14.00" fill="#000000">Reference</text>
</a>
</g>
<g id="a_node1_1"><a xlink:href="#" xlink:title="Name of the reference.">
<polygon fill="#996633" stroke="transparent" points="8,-46 8,-67 238,-67 238,-46 8,-46"/>
<polygon fill="none" stroke="#000000" points="8,-46 8,-67 238,-67 238,-46 8,-46"/>
<text text-anchor="start" x="11" y="-52.8" font-family="Nimbus Sans L" font-size="14.00" fill="#000000">[ML_STRING] ReferenceName (1..1)</text>
</a>
</g>
<g id="a_node1_2"><a xlink:href="#" xlink:title="A URL associated with the reference.">
<polygon fill="#996633" stroke="transparent" points="8,-25 8,-46 238,-46 238,-25 8,-25"/>
<polygon fill="none" stroke="#000000" points="8,-25 8,-46 238,-46 238,-25 8,-25"/>
<text text-anchor="start" x="74.5" y="-31.8" font-family="Nimbus Sans L" font-size="14.00" fill="#000000">[URL] URL (0..*)</text>
</a>
</g>
<g id="a_node1_3"><a xlink:href="#" xlink:title="A free&#45;form text description of this reference.">
<polygon fill="#996633" stroke="transparent" points="8,-4 8,-25 238,-25 238,-4 8,-4"/>
<polygon fill="none" stroke="#000000" points="8,-4 8,-25 238,-25 238,-4 8,-4"/>
<text text-anchor="start" x="28" y="-10.8" font-family="Nimbus Sans L" font-size="14.00" fill="#000000">[ML_STRING] Description (0..*)</text>
</a>
</g>
</g>
</g>
</svg>
