<?xml version="1.0" encoding="UTF-8" standalone="no"?>
<!DOCTYPE svg PUBLIC "-//W3C//DTD SVG 1.1//EN"
 "http://www.w3.org/Graphics/SVG/1.1/DTD/svg11.dtd">
<!-- Generated by graphviz version 2.40.1 (0)
 -->
<!-- Title: RegistryHandle Pages: 1 -->
<svg width="223pt" height="79pt"
 viewBox="0.00 0.00 223.00 79.00" xmlns="http://www.w3.org/2000/svg" xmlns:xlink="http://www.w3.org/1999/xlink">
<g id="graph0" class="graph" transform="scale(1 1) rotate(0) translate(4 75)">
<title>RegistryHandle</title>
<polygon fill="#ffffff" stroke="transparent" points="-4,4 -4,-75 219,-75 219,4 -4,4"/>
<!-- RegistryHandle -->
<g id="node1" class="node">
<title>RegistryHandle</title>
<g id="a_node1_0"><a xlink:href="#" xlink:title="The RegistryHandle class represents a handle into an Internet registry or community&#45;specific database. The handle is specified in the element content and the type attribute specifies the database. ">
<polygon fill="#a3cc52" stroke="transparent" points="8.5,-45.5 8.5,-66.5 207.5,-66.5 207.5,-45.5 8.5,-45.5"/>
<polygon fill="none" stroke="#000000" points="8.5,-45.5 8.5,-66.5 207.5,-66.5 207.5,-45.5 8.5,-45.5"/>
<text text-anchor="start" x="61.5" y="-52.3" font-family="Nimbus Sans L" font-size="14.00" fill="#000000">RegistryHandle</text>
</a>
</g>
<g id="a_node1_1"><a xlink:href="#" xlink:title="The database to which the handle belongs. &#160;The default value is &#39;local&#39;. &#160;The possible values are:">
<polygon fill="#ccff66" stroke="transparent" points="8.5,-24.5 8.5,-45.5 207.5,-45.5 207.5,-24.5 8.5,-24.5"/>
<polygon fill="none" stroke="#000000" points="8.5,-24.5 8.5,-45.5 207.5,-45.5 207.5,-24.5 8.5,-24.5"/>
<text text-anchor="start" x="26" y="-31.3" font-family="Nimbus Sans L" font-size="14.00" fill="#000000">[ENUM] registry (Required)</text>
</a>
</g>
<g id="a_node1_2"><a xlink:href="#" xlink:title="A means by which to extend the registry attribute. &#160;See Section 5.1.">
<polygon fill="#ccff66" stroke="transparent" points="8.5,-3.5 8.5,-24.5 207.5,-24.5 207.5,-3.5 8.5,-3.5"/>
<polygon fill="none" stroke="#000000" points="8.5,-3.5 8.5,-24.5 207.5,-24.5 207.5,-3.5 8.5,-3.5"/>
<text text-anchor="start" x="11.5" y="-10.3" font-family="Nimbus Sans L" font-size="14.00" fill="#000000">[STRING] ext&#45;registry (Optional)</text>
</a>
</g>
</g>
</g>
</svg>
