<?xml version="1.0" encoding="UTF-8" standalone="no"?>
<!DOCTYPE svg PUBLIC "-//W3C//DTD SVG 1.1//EN"
 "http://www.w3.org/Graphics/SVG/1.1/DTD/svg11.dtd">
<!-- Generated by graphviz version 2.40.1 (0)
 -->
<!-- Title: System Pages: 1 -->
<svg width="798pt" height="866pt"
 viewBox="0.00 0.00 798.00 865.50" xmlns="http://www.w3.org/2000/svg" xmlns:xlink="http://www.w3.org/1999/xlink">
<g id="graph0" class="graph" transform="scale(1 1) rotate(0) translate(4 861.5)">
<title>System</title>
<polygon fill="#ffffff" stroke="transparent" points="-4,4 -4,-861.5 794,-861.5 794,4 -4,4"/>
<!-- System -->
<g id="node1" class="node">
<title>System</title>
<g id="a_node1_0"><a xlink:href="#" xlink:title="The System class describes a system or network involved in an event. The systems or networks represented by this class are categorized according to the role they played in the incident through the category attribute. The value of this category attribute dictates the semantics of the aggregated classes in the System class. If the category attribute has a value of &quot;source&quot;, then the aggregated classes denote the machine and service from which the activity is originating. With a category attribute value of &quot;target&quot; or &quot;intermediary&quot;, then the machine or service is the one targeted in the activity. A value of &quot;sensor&quot; dictates that this System was part of an instrumentation to monitor the network. ">
<polygon fill="#203f7f" stroke="transparent" points="8,-497 8,-518 214,-518 214,-497 8,-497"/>
<polygon fill="none" stroke="#000000" points="8,-497 8,-518 214,-518 214,-497 8,-497"/>
<text text-anchor="start" x="88" y="-503.8" font-family="Nimbus Sans L" font-size="14.00" fill="#000000">System</text>
</a>
</g>
<g id="a_node1_1"><a xlink:href="#" xlink:title="A free&#45;form text description of the System.">
<polygon fill="#284f9f" stroke="transparent" points="8,-476 8,-497 214,-497 214,-476 8,-476"/>
<polygon fill="none" stroke="#000000" points="8,-476 8,-497 214,-497 214,-476 8,-476"/>
<text text-anchor="start" x="16" y="-482.8" font-family="Nimbus Sans L" font-size="14.00" fill="#000000">[ML_STRING] Description (0..*)</text>
</a>
</g>
<g id="a_node1_2"><a xlink:href="#" xlink:title="This attribute is defined in Section 3.2.">
<polygon fill="#284f9f" stroke="transparent" points="8,-455 8,-476 214,-476 214,-455 8,-455"/>
<polygon fill="none" stroke="#000000" points="8,-455 8,-476 214,-476 214,-455 8,-455"/>
<text text-anchor="start" x="23.5" y="-461.8" font-family="Nimbus Sans L" font-size="14.00" fill="#000000">[ENUM] restriction (Optional)</text>
</a>
</g>
<g id="a_node1_3"><a xlink:href="#" xlink:title="Classifies the role the host or network played in the incident. &#160;The possible values are:">
<polygon fill="#284f9f" stroke="transparent" points="8,-434 8,-455 214,-455 214,-434 8,-434"/>
<polygon fill="none" stroke="#000000" points="8,-434 8,-455 214,-455 214,-434 8,-434"/>
<text text-anchor="start" x="25" y="-440.8" font-family="Nimbus Sans L" font-size="14.00" fill="#000000">[ENUM] category (Required)</text>
</a>
</g>
<g id="a_node1_4"><a xlink:href="#" xlink:title="A means by which to extend the category attribute. &#160;See Section 5.1.">
<polygon fill="#284f9f" stroke="transparent" points="8,-413 8,-434 214,-434 214,-413 8,-413"/>
<polygon fill="none" stroke="#000000" points="8,-413 8,-434 214,-434 214,-413 8,-413"/>
<text text-anchor="start" x="11" y="-419.8" font-family="Nimbus Sans L" font-size="14.00" fill="#000000">[STRING] ext&#45;category (Optional)</text>
</a>
</g>
<g id="a_node1_5"><a xlink:href="#" xlink:title="Specifies the interface on which the event(s) on this System originated. &#160;If the Node class specifies a network rather than a host, this attribute has no meaning.">
<polygon fill="#284f9f" stroke="transparent" points="8,-392 8,-413 214,-413 214,-392 8,-392"/>
<polygon fill="none" stroke="#000000" points="8,-392 8,-413 214,-413 214,-392 8,-392"/>
<text text-anchor="start" x="22" y="-398.8" font-family="Nimbus Sans L" font-size="14.00" fill="#000000">[STRING] interface (Optional)</text>
</a>
</g>
<g id="a_node1_6"><a xlink:href="#" xlink:title="An indication of confidence in whether this System was the true target or attacking host. &#160;The permitted values for this attribute are shown below. &#160;The default value is &quot;unknown&quot;.">
<polygon fill="#284f9f" stroke="transparent" points="8,-371 8,-392 214,-392 214,-371 8,-371"/>
<polygon fill="none" stroke="#000000" points="8,-371 8,-392 214,-392 214,-371 8,-371"/>
<text text-anchor="start" x="29" y="-377.8" font-family="Nimbus Sans L" font-size="14.00" fill="#000000">[ENUM] spoofed (Optional)</text>
</a>
</g>
</g>
<!-- Node -->
<g id="node2" class="node">
<title>Node</title>
<g id="a_node2_7"><a xlink:href="#" xlink:title="The Node class names a system (e.g., PC, router) or network. ">
<polygon fill="#203f7f" stroke="transparent" points="297,-680 297,-701 494,-701 494,-680 297,-680"/>
<polygon fill="none" stroke="#000000" points="297,-680 297,-701 494,-701 494,-680 297,-680"/>
<text text-anchor="start" x="379" y="-686.8" font-family="Nimbus Sans L" font-size="14.00" fill="#000000">Node</text>
</a>
</g>
<g id="a_node2_8"><a xlink:href="#" xlink:title="The name of the Node (e.g., fully qualified domain name). &#160;This information MUST be provided if no Address information is given.">
<polygon fill="#284f9f" stroke="transparent" points="297,-659 297,-680 494,-680 494,-659 297,-659"/>
<polygon fill="none" stroke="#000000" points="297,-659 297,-680 494,-680 494,-659 297,-659"/>
<text text-anchor="start" x="300" y="-665.8" font-family="Nimbus Sans L" font-size="14.00" fill="#000000">[ML_STRING] NodeName (0..*)</text>
</a>
</g>
<g id="a_node2_9"><a xlink:href="#" xlink:title="A free&#45;from description of the physical location of the equipment.">
<polygon fill="#284f9f" stroke="transparent" points="297,-638 297,-659 494,-659 494,-638 297,-638"/>
<polygon fill="none" stroke="#000000" points="297,-638 297,-659 494,-659 494,-638 297,-638"/>
<text text-anchor="start" x="307.5" y="-644.8" font-family="Nimbus Sans L" font-size="14.00" fill="#000000">[ML_STRING] Location (0..1)</text>
</a>
</g>
<g id="a_node2_10"><a xlink:href="#" xlink:title="A timestamp of when the resolution between the name and address was performed. &#160;This information SHOULD be provided if both an Address and NodeName are specified.">
<polygon fill="#284f9f" stroke="transparent" points="297,-617 297,-638 494,-638 494,-617 297,-617"/>
<polygon fill="none" stroke="#000000" points="297,-617 297,-638 494,-638 494,-617 297,-617"/>
<text text-anchor="start" x="342.5" y="-623.8" font-family="Nimbus Sans L" font-size="14.00" fill="#000000">[] DateTime (0..1)</text>
</a>
</g>
</g>
<!-- System&#45;&gt;Node -->
<g id="edge4" class="edge">
<title>System&#45;&gt;Node</title>
<path fill="none" stroke="#000000" d="M182.4855,-522.8275C200.4056,-540.3432 220.1945,-558.1295 240,-573 256.4962,-585.3857 274.9805,-597.1815 293.2808,-607.8471"/>
<polygon fill="#000000" stroke="#000000" points="291.8251,-611.0471 302.2403,-612.9897 295.3098,-604.9761 291.8251,-611.0471"/>
<text text-anchor="middle" x="251.5" y="-589.8" font-family="Times,serif" font-size="14.00" fill="#000000">1..1</text>
</g>
<!-- Counter -->
<g id="node5" class="node">
<title>Counter</title>
<g id="a_node5_11"><a xlink:href="#" xlink:title="The Counter class summarize multiple occurrences of some event, or conveys counts or rates on various features (e.g., packets, sessions, events). ">
<polygon fill="#cc401d" stroke="transparent" points="578,-590 578,-611 781,-611 781,-590 578,-590"/>
<polygon fill="none" stroke="#000000" points="578,-590 578,-611 781,-611 781,-590 578,-590"/>
<text text-anchor="start" x="655" y="-596.8" font-family="Nimbus Sans L" font-size="14.00" fill="#000000">Counter</text>
</a>
</g>
<g id="a_node5_12"><a xlink:href="#" xlink:title="Specifies the units of the element content.">
<polygon fill="#ff5024" stroke="transparent" points="578,-569 578,-590 781,-590 781,-569 578,-569"/>
<polygon fill="none" stroke="#000000" points="578,-569 578,-590 781,-590 781,-569 578,-569"/>
<text text-anchor="start" x="607" y="-575.8" font-family="Nimbus Sans L" font-size="14.00" fill="#000000">[ENUM] type (Required)</text>
</a>
</g>
<g id="a_node5_13"><a xlink:href="#" xlink:title="A means by which to extend the type attribute. See Section 5.1.">
<polygon fill="#ff5024" stroke="transparent" points="578,-548 578,-569 781,-569 781,-548 578,-548"/>
<polygon fill="none" stroke="#000000" points="578,-548 578,-569 781,-569 781,-548 578,-548"/>
<text text-anchor="start" x="592.5" y="-554.8" font-family="Nimbus Sans L" font-size="14.00" fill="#000000">[STRING] ext&#45;type (Optional)</text>
</a>
</g>
<g id="a_node5_14"><a xlink:href="#" xlink:title="If present, the Counter class represents a rate rather than a count over the entire event. &#160;In that case, this attribute specifies the denominator of the rate (where the type attribute specified the nominator). &#160;The possible values of this attribute are defined in Section 3.10.2">
<polygon fill="#ff5024" stroke="transparent" points="578,-527 578,-548 781,-548 781,-527 578,-527"/>
<polygon fill="none" stroke="#000000" points="578,-527 578,-548 781,-548 781,-527 578,-527"/>
<text text-anchor="start" x="597" y="-533.8" font-family="Nimbus Sans L" font-size="14.00" fill="#000000">[ENUM] duration (Optional)</text>
</a>
</g>
<g id="a_node5_15"><a xlink:href="#" xlink:title="A means by which to extend the duration attribute. &#160;See Section 5.1.">
<polygon fill="#ff5024" stroke="transparent" points="578,-506 578,-527 781,-527 781,-506 578,-506"/>
<polygon fill="none" stroke="#000000" points="578,-506 578,-527 781,-527 781,-506 578,-506"/>
<text text-anchor="start" x="581" y="-512.8" font-family="Nimbus Sans L" font-size="14.00" fill="#000000">[STRING] ext&#45;duration (Optional)</text>
</a>
</g>
</g>
<!-- System&#45;&gt;Counter -->
<g id="edge8" class="edge">
<title>System&#45;&gt;Counter</title>
<path fill="none" stroke="#000000" d="M222.2535,-509.9185C241.3314,-518.7037 261.3509,-526.554 281,-532 372.0437,-557.2339 479.0716,-563.2416 559.1963,-563.3481"/>
<polygon fill="#000000" stroke="#000000" points="559.3322,-566.848 569.3261,-563.3304 559.3199,-559.848 559.3322,-566.848"/>
<text text-anchor="middle" x="395" y="-565.8" font-family="Times,serif" font-size="14.00" fill="#000000">0..*</text>
</g>
<!-- Service -->
<g id="node6" class="node">
<title>Service</title>
<g id="a_node6_16"><a xlink:href="#" xlink:title="The Service class describes a network service of a host or network. The service is identified by specific port or list of ports, along with the application listening on that port. ">
<polygon fill="#203f7f" stroke="transparent" points="289,-497 289,-518 501,-518 501,-497 289,-497"/>
<polygon fill="none" stroke="#000000" points="289,-497 289,-518 501,-518 501,-497 289,-497"/>
<text text-anchor="start" x="372" y="-503.8" font-family="Nimbus Sans L" font-size="14.00" fill="#000000">Service</text>
</a>
</g>
<g id="a_node6_17"><a xlink:href="#" xlink:title="A port number.">
<polygon fill="#284f9f" stroke="transparent" points="289,-476 289,-497 501,-497 501,-476 289,-476"/>
<polygon fill="none" stroke="#000000" points="289,-476 289,-497 501,-497 501,-476 289,-476"/>
<text text-anchor="start" x="328.5" y="-482.8" font-family="Nimbus Sans L" font-size="14.00" fill="#000000">[INTEGER] Port (0..1)</text>
</a>
</g>
<g id="a_node6_18"><a xlink:href="#" xlink:title="A list of port numbers formatted according to Section 2.10.">
<polygon fill="#284f9f" stroke="transparent" points="289,-455 289,-476 501,-476 501,-455 289,-455"/>
<polygon fill="none" stroke="#000000" points="289,-455 289,-476 501,-476 501,-455 289,-455"/>
<text text-anchor="start" x="317.5" y="-461.8" font-family="Nimbus Sans L" font-size="14.00" fill="#000000">[PORTLIST] Portlist (0..1)</text>
</a>
</g>
<g id="a_node6_19"><a xlink:href="#" xlink:title="A layer&#45;4 protocol&#45;specific code field (e.g., ICMP code field).">
<polygon fill="#284f9f" stroke="transparent" points="289,-434 289,-455 501,-455 501,-434 289,-434"/>
<polygon fill="none" stroke="#000000" points="289,-434 289,-455 501,-455 501,-434 289,-434"/>
<text text-anchor="start" x="309" y="-440.8" font-family="Nimbus Sans L" font-size="14.00" fill="#000000">[INTEGER] ProtoCode (0..1)</text>
</a>
</g>
<g id="a_node6_20"><a xlink:href="#" xlink:title="A layer&#45;4 protocol specific type field (e.g., ICMP type field).">
<polygon fill="#284f9f" stroke="transparent" points="289,-413 289,-434 501,-434 501,-413 289,-413"/>
<polygon fill="none" stroke="#000000" points="289,-413 289,-434 501,-434 501,-413 289,-413"/>
<text text-anchor="start" x="311.5" y="-419.8" font-family="Nimbus Sans L" font-size="14.00" fill="#000000">[INTEGER] ProtoType (0..1)</text>
</a>
</g>
<g id="a_node6_21"><a xlink:href="#" xlink:title="A layer&#45;4 protocol specific flag field (e.g., TCP flag field).">
<polygon fill="#284f9f" stroke="transparent" points="289,-392 289,-413 501,-413 501,-392 289,-392"/>
<polygon fill="none" stroke="#000000" points="289,-392 289,-413 501,-413 501,-392 289,-392"/>
<text text-anchor="start" x="308.5" y="-398.8" font-family="Nimbus Sans L" font-size="14.00" fill="#000000">[INTEGER] ProtoFlags (0..1)</text>
</a>
</g>
<g id="a_node6_22"><a xlink:href="#" xlink:title="The IANA protocol number.">
<polygon fill="#284f9f" stroke="transparent" points="289,-371 289,-392 501,-392 501,-371 289,-371"/>
<polygon fill="none" stroke="#000000" points="289,-371 289,-392 501,-392 501,-371 289,-371"/>
<text text-anchor="start" x="292" y="-377.8" font-family="Nimbus Sans L" font-size="14.00" fill="#000000">[INTEGER] ip_protocol (Required)</text>
</a>
</g>
</g>
<!-- System&#45;&gt;Service -->
<g id="edge6" class="edge">
<title>System&#45;&gt;Service</title>
<path fill="none" stroke="#000000" d="M222.022,-445C237.9975,-445 254.5228,-445 270.7349,-445"/>
<polygon fill="#000000" stroke="#000000" points="270.7811,-448.5001 280.781,-445 270.781,-441.5001 270.7811,-448.5001"/>
<text text-anchor="middle" x="251.5" y="-448.8" font-family="Times,serif" font-size="14.00" fill="#000000">0..*</text>
</g>
<!-- OperatingSystem -->
<g id="node8" class="node">
<title>OperatingSystem</title>
<g id="a_node8_23"><a xlink:href="#" xlink:title="The OperatingSystem class describes the operating system running on a System. The definition is identical to the Application class (Section 3.17.1). ">
<polygon fill="#203f7f" stroke="transparent" points="306,-324 306,-345 485,-345 485,-324 306,-324"/>
<polygon fill="none" stroke="#000000" points="306,-324 306,-345 485,-345 485,-324 306,-324"/>
<text text-anchor="start" x="342.5" y="-330.8" font-family="Nimbus Sans L" font-size="14.00" fill="#000000">OperatingSystem</text>
</a>
</g>
<g id="a_node8_24"><a xlink:href="#" xlink:title="A URL describing the application.">
<polygon fill="#284f9f" stroke="transparent" points="306,-303 306,-324 485,-324 485,-303 306,-303"/>
<polygon fill="none" stroke="#000000" points="306,-303 306,-324 485,-324 485,-303 306,-303"/>
<text text-anchor="start" x="345.5" y="-309.8" font-family="Nimbus Sans L" font-size="14.00" fill="#000000">[URL] URL (0..1)</text>
</a>
</g>
<g id="a_node8_25"><a xlink:href="#" xlink:title="An identifier that can be used to reference this software.">
<polygon fill="#284f9f" stroke="transparent" points="306,-282 306,-303 485,-303 485,-282 306,-282"/>
<polygon fill="none" stroke="#000000" points="306,-282 306,-303 485,-303 485,-282 306,-282"/>
<text text-anchor="start" x="318.5" y="-288.8" font-family="Nimbus Sans L" font-size="14.00" fill="#000000">[STRING] swid (Optional)</text>
</a>
</g>
<g id="a_node8_26"><a xlink:href="#" xlink:title="An identifier that can be used to reference a particular configuration of this software.">
<polygon fill="#284f9f" stroke="transparent" points="306,-261 306,-282 485,-282 485,-261 306,-261"/>
<polygon fill="none" stroke="#000000" points="306,-261 306,-282 485,-282 485,-261 306,-261"/>
<text text-anchor="start" x="309" y="-267.8" font-family="Nimbus Sans L" font-size="14.00" fill="#000000">[STRING] configid (Optional)</text>
</a>
</g>
<g id="a_node8_27"><a xlink:href="#" xlink:title="Vendor name of the software.">
<polygon fill="#284f9f" stroke="transparent" points="306,-240 306,-261 485,-261 485,-240 306,-240"/>
<polygon fill="none" stroke="#000000" points="306,-240 306,-261 485,-261 485,-240 306,-240"/>
<text text-anchor="start" x="311.5" y="-246.8" font-family="Nimbus Sans L" font-size="14.00" fill="#000000">[STRING] vendor (Optional)</text>
</a>
</g>
<g id="a_node8_28"><a xlink:href="#" xlink:title="Family of the software.">
<polygon fill="#284f9f" stroke="transparent" points="306,-219 306,-240 485,-240 485,-219 306,-219"/>
<polygon fill="none" stroke="#000000" points="306,-219 306,-240 485,-240 485,-219 306,-219"/>
<text text-anchor="start" x="314" y="-225.8" font-family="Nimbus Sans L" font-size="14.00" fill="#000000">[STRING] family (Optional)</text>
</a>
</g>
<g id="a_node8_29"><a xlink:href="#" xlink:title="Name of the software.">
<polygon fill="#284f9f" stroke="transparent" points="306,-198 306,-219 485,-219 485,-198 306,-198"/>
<polygon fill="none" stroke="#000000" points="306,-198 306,-219 485,-219 485,-198 306,-198"/>
<text text-anchor="start" x="315" y="-204.8" font-family="Nimbus Sans L" font-size="14.00" fill="#000000">[STRING] name (Optional)</text>
</a>
</g>
<g id="a_node8_30"><a xlink:href="#" xlink:title="Version of the software.">
<polygon fill="#284f9f" stroke="transparent" points="306,-177 306,-198 485,-198 485,-177 306,-177"/>
<polygon fill="none" stroke="#000000" points="306,-177 306,-198 485,-198 485,-177 306,-177"/>
<text text-anchor="start" x="310.5" y="-183.8" font-family="Nimbus Sans L" font-size="14.00" fill="#000000">[STRING] version (Optional)</text>
</a>
</g>
<g id="a_node8_31"><a xlink:href="#" xlink:title="Patch or service pack level of the software.">
<polygon fill="#284f9f" stroke="transparent" points="306,-156 306,-177 485,-177 485,-156 306,-156"/>
<polygon fill="none" stroke="#000000" points="306,-156 306,-177 485,-177 485,-156 306,-156"/>
<text text-anchor="start" x="315.5" y="-162.8" font-family="Nimbus Sans L" font-size="14.00" fill="#000000">[STRING] patch (Optional)</text>
</a>
</g>
</g>
<!-- System&#45;&gt;OperatingSystem -->
<g id="edge7" class="edge">
<title>System&#45;&gt;OperatingSystem</title>
<path fill="none" stroke="#000000" d="M222.022,-369.161C244.094,-354.0837 267.2157,-338.2893 289.1106,-323.3329"/>
<polygon fill="#000000" stroke="#000000" points="291.154,-326.1757 297.4372,-317.645 287.2056,-320.3956 291.154,-326.1757"/>
<text text-anchor="middle" x="251.5" y="-356.8" font-family="Times,serif" font-size="14.00" fill="#000000">0..1</text>
</g>
<!-- AdditionalData -->
<g id="node9" class="node">
<title>AdditionalData</title>
<g id="a_node9_32"><a xlink:href="#" xlink:title="The AdditionalData class serves as an extension mechanism for information not otherwise represented in the data model. For relatively simple information, atomic data types (e.g., integers, strings) are provided with a mechanism to annotate their meaning. The class can also be used to extend the data model (and the associated Schema) to support proprietary extensions by encapsulating entire XML documents conforming to another Schema (e.g., IDMEF). A detailed discussion for extending the data model and the schema can be found in Section 5. ">
<polygon fill="#cca352" stroke="transparent" points="302,-109 302,-130 489,-130 489,-109 302,-109"/>
<polygon fill="none" stroke="#000000" points="302,-109 302,-130 489,-130 489,-109 302,-109"/>
<text text-anchor="start" x="351.5" y="-115.8" font-family="Nimbus Sans L" font-size="14.00" fill="#000000">AdditionalData</text>
</a>
</g>
<g id="a_node9_33"><a xlink:href="#" xlink:title="The data type of the element content. &#160;The permitted values for this attribute are shown below. &#160;The default value is &quot;string&quot;.">
<polygon fill="#ffcc66" stroke="transparent" points="302,-88 302,-109 489,-109 489,-88 302,-88"/>
<polygon fill="none" stroke="#000000" points="302,-88 302,-109 489,-109 489,-88 302,-88"/>
<text text-anchor="start" x="319" y="-94.8" font-family="Nimbus Sans L" font-size="14.00" fill="#000000">[ENUM] dtype (Required)</text>
</a>
</g>
<g id="a_node9_34"><a xlink:href="#" xlink:title="A means by which to extend the dtype attribute. &#160;See Section 5.1.">
<polygon fill="#ffcc66" stroke="transparent" points="302,-67 302,-88 489,-88 489,-67 302,-67"/>
<polygon fill="none" stroke="#000000" points="302,-67 302,-88 489,-88 489,-67 302,-67"/>
<text text-anchor="start" x="305" y="-73.8" font-family="Nimbus Sans L" font-size="14.00" fill="#000000">[STRING] ext&#45;dtype (Optional)</text>
</a>
</g>
<g id="a_node9_35"><a xlink:href="#" xlink:title="A free&#45;form description of the element content.">
<polygon fill="#ffcc66" stroke="transparent" points="302,-46 302,-67 489,-67 489,-46 302,-46"/>
<polygon fill="none" stroke="#000000" points="302,-46 302,-67 489,-67 489,-46 302,-46"/>
<text text-anchor="start" x="306" y="-52.8" font-family="Nimbus Sans L" font-size="14.00" fill="#000000">[STRING] meaning (Optional)</text>
</a>
</g>
<g id="a_node9_36"><a xlink:href="#" xlink:title="An identifier referencing the format and semantics of the element content.">
<polygon fill="#ffcc66" stroke="transparent" points="302,-25 302,-46 489,-46 489,-25 302,-25"/>
<polygon fill="none" stroke="#000000" points="302,-25 302,-46 489,-46 489,-25 302,-25"/>
<text text-anchor="start" x="307.5" y="-31.8" font-family="Nimbus Sans L" font-size="14.00" fill="#000000">[STRING] formatid (Optional)</text>
</a>
</g>
<g id="a_node9_37"><a xlink:href="#" xlink:title="This attribute has been defined in Section 3.2.">
<polygon fill="#ffcc66" stroke="transparent" points="302,-4 302,-25 489,-25 489,-4 302,-4"/>
<polygon fill="none" stroke="#000000" points="302,-4 302,-25 489,-25 489,-4 302,-4"/>
<text text-anchor="start" x="308" y="-10.8" font-family="Nimbus Sans L" font-size="14.00" fill="#000000">[ENUM] restriction (Optional)</text>
</a>
</g>
</g>
<!-- System&#45;&gt;AdditionalData -->
<g id="edge9" class="edge">
<title>System&#45;&gt;AdditionalData</title>
<path fill="none" stroke="#000000" d="M142.7492,-367.2656C171.9087,-302.426 219.8363,-210.2587 281,-144 282.5795,-142.2889 284.204,-140.5965 285.8679,-138.9238"/>
<polygon fill="#000000" stroke="#000000" points="288.5919,-141.1615 293.3974,-131.7192 283.7524,-136.1038 288.5919,-141.1615"/>
<text text-anchor="middle" x="251.5" y="-190.8" font-family="Times,serif" font-size="14.00" fill="#000000">0..*</text>
</g>
<!-- Address -->
<g id="node3" class="node">
<title>Address</title>
<g id="a_node3_38"><a xlink:href="#" xlink:title="The Address class represents a hardware (layer&#45;2), network (layer&#45;3), or application (layer&#45;7) address. ">
<polygon fill="#203f7f" stroke="transparent" points="576,-832 576,-853 782,-853 782,-832 576,-832"/>
<polygon fill="none" stroke="#000000" points="576,-832 576,-853 782,-853 782,-832 576,-832"/>
<text text-anchor="start" x="654" y="-838.8" font-family="Nimbus Sans L" font-size="14.00" fill="#000000">Address</text>
</a>
</g>
<g id="a_node3_39"><a xlink:href="#" xlink:title="The type of address represented. &#160;The permitted values for this attribute are shown below. &#160;The default value is &quot;ipv4&#45;addr&quot;.">
<polygon fill="#284f9f" stroke="transparent" points="576,-811 576,-832 782,-832 782,-811 576,-811"/>
<polygon fill="none" stroke="#000000" points="576,-811 576,-832 782,-832 782,-811 576,-811"/>
<text text-anchor="start" x="593" y="-817.8" font-family="Nimbus Sans L" font-size="14.00" fill="#000000">[ENUM] category (Required)</text>
</a>
</g>
<g id="a_node3_40"><a xlink:href="#" xlink:title="A means by which to extend the category attribute. &#160;See Section 5.1.">
<polygon fill="#284f9f" stroke="transparent" points="576,-790 576,-811 782,-811 782,-790 576,-790"/>
<polygon fill="none" stroke="#000000" points="576,-790 576,-811 782,-811 782,-790 576,-790"/>
<text text-anchor="start" x="579" y="-796.8" font-family="Nimbus Sans L" font-size="14.00" fill="#000000">[STRING] ext&#45;category (Optional)</text>
</a>
</g>
<g id="a_node3_41"><a xlink:href="#" xlink:title="The name of the Virtual LAN to which the address belongs.">
<polygon fill="#284f9f" stroke="transparent" points="576,-769 576,-790 782,-790 782,-769 576,-769"/>
<polygon fill="none" stroke="#000000" points="576,-769 576,-790 782,-790 782,-769 576,-769"/>
<text text-anchor="start" x="584" y="-775.8" font-family="Nimbus Sans L" font-size="14.00" fill="#000000">[STRING] vlan&#45;name (Optional)</text>
</a>
</g>
<g id="a_node3_42"><a xlink:href="#" xlink:title="The number of the Virtual LAN to which the address belongs.">
<polygon fill="#284f9f" stroke="transparent" points="576,-748 576,-769 782,-769 782,-748 576,-748"/>
<polygon fill="none" stroke="#000000" points="576,-748 576,-769 782,-769 782,-748 576,-748"/>
<text text-anchor="start" x="587.5" y="-754.8" font-family="Nimbus Sans L" font-size="14.00" fill="#000000">[STRING] vlan&#45;num (Optional)</text>
</a>
</g>
</g>
<!-- Node&#45;&gt;Address -->
<g id="edge1" class="edge">
<title>Node&#45;&gt;Address</title>
<path fill="none" stroke="#000000" d="M487.2067,-705.1033C510.0419,-716.5209 534.8441,-728.922 558.7985,-740.8992"/>
<polygon fill="#000000" stroke="#000000" points="557.4223,-744.1243 567.9319,-745.4659 560.5529,-737.8633 557.4223,-744.1243"/>
<text text-anchor="middle" x="538.5" y="-737.8" font-family="Times,serif" font-size="14.00" fill="#000000">0..*</text>
</g>
<!-- NodeRole -->
<g id="node4" class="node">
<title>NodeRole</title>
<g id="a_node4_43"><a xlink:href="#" xlink:title="The NodeRole class describes the intended function performed by a particular host. ">
<polygon fill="#203f7f" stroke="transparent" points="576,-701 576,-722 782,-722 782,-701 576,-701"/>
<polygon fill="none" stroke="#000000" points="576,-701 576,-722 782,-722 782,-701 576,-701"/>
<text text-anchor="start" x="648.5" y="-707.8" font-family="Nimbus Sans L" font-size="14.00" fill="#000000">NodeRole</text>
</a>
</g>
<g id="a_node4_44"><a xlink:href="#" xlink:title="Functionality provided by a node.">
<polygon fill="#284f9f" stroke="transparent" points="576,-680 576,-701 782,-701 782,-680 576,-680"/>
<polygon fill="none" stroke="#000000" points="576,-680 576,-701 782,-701 782,-680 576,-680"/>
<text text-anchor="start" x="593" y="-686.8" font-family="Nimbus Sans L" font-size="14.00" fill="#000000">[ENUM] category (Required)</text>
</a>
</g>
<g id="a_node4_45"><a xlink:href="#" xlink:title="A means by which to extend the category attribute. &#160;See Section 5.1.">
<polygon fill="#284f9f" stroke="transparent" points="576,-659 576,-680 782,-680 782,-659 576,-659"/>
<polygon fill="none" stroke="#000000" points="576,-659 576,-680 782,-680 782,-659 576,-659"/>
<text text-anchor="start" x="579" y="-665.8" font-family="Nimbus Sans L" font-size="14.00" fill="#000000">[STRING] ext&#45;category (Optional)</text>
</a>
</g>
<g id="a_node4_46"><a xlink:href="#" xlink:title="A valid language code per RFC 4646 [7] constrained by the definition of &quot;xs:language&quot;. &#160;The interpretation of this code is described in Section 6.">
<polygon fill="#284f9f" stroke="transparent" points="576,-638 576,-659 782,-659 782,-638 576,-638"/>
<polygon fill="none" stroke="#000000" points="576,-638 576,-659 782,-659 782,-638 576,-638"/>
<text text-anchor="start" x="606.5" y="-644.8" font-family="Nimbus Sans L" font-size="14.00" fill="#000000">[ENUM] lang (Required)</text>
</a>
</g>
</g>
<!-- Node&#45;&gt;NodeRole -->
<g id="edge2" class="edge">
<title>Node&#45;&gt;NodeRole</title>
<path fill="none" stroke="#000000" d="M501.5591,-666.8794C519.8372,-668.2309 538.9522,-669.6444 557.5842,-671.0221"/>
<polygon fill="#000000" stroke="#000000" points="557.3447,-674.5138 567.5756,-671.7609 557.8609,-667.5329 557.3447,-674.5138"/>
<text text-anchor="middle" x="538.5" y="-673.8" font-family="Times,serif" font-size="14.00" fill="#000000">0..*</text>
</g>
<!-- Node&#45;&gt;Counter -->
<g id="edge3" class="edge">
<title>Node&#45;&gt;Counter</title>
<path fill="none" stroke="#000000" d="M501.5591,-621.4792C520.631,-614.7637 540.614,-607.7275 560.0087,-600.8983"/>
<polygon fill="#000000" stroke="#000000" points="561.206,-604.1875 569.4759,-597.5648 558.8811,-597.5848 561.206,-604.1875"/>
<text text-anchor="middle" x="538.5" y="-614.8" font-family="Times,serif" font-size="14.00" fill="#000000">0..*</text>
</g>
<!-- Application -->
<g id="node7" class="node">
<title>Application</title>
<g id="a_node7_47"><a xlink:href="#" xlink:title="The Application class describes an application running on a System providing a Service. ">
<polygon fill="#203f7f" stroke="transparent" points="590,-459 590,-480 769,-480 769,-459 590,-459"/>
<polygon fill="none" stroke="#000000" points="590,-459 590,-480 769,-480 769,-459 590,-459"/>
<text text-anchor="start" x="646" y="-465.8" font-family="Nimbus Sans L" font-size="14.00" fill="#000000">Application</text>
</a>
</g>
<g id="a_node7_48"><a xlink:href="#" xlink:title="A URL describing the application.">
<polygon fill="#284f9f" stroke="transparent" points="590,-438 590,-459 769,-459 769,-438 590,-438"/>
<polygon fill="none" stroke="#000000" points="590,-438 590,-459 769,-459 769,-438 590,-438"/>
<text text-anchor="start" x="629.5" y="-444.8" font-family="Nimbus Sans L" font-size="14.00" fill="#000000">[URL] URL (0..1)</text>
</a>
</g>
<g id="a_node7_49"><a xlink:href="#" xlink:title="An identifier that can be used to reference this software.">
<polygon fill="#284f9f" stroke="transparent" points="590,-417 590,-438 769,-438 769,-417 590,-417"/>
<polygon fill="none" stroke="#000000" points="590,-417 590,-438 769,-438 769,-417 590,-417"/>
<text text-anchor="start" x="602.5" y="-423.8" font-family="Nimbus Sans L" font-size="14.00" fill="#000000">[STRING] swid (Optional)</text>
</a>
</g>
<g id="a_node7_50"><a xlink:href="#" xlink:title="An identifier that can be used to reference a particular configuration of this software.">
<polygon fill="#284f9f" stroke="transparent" points="590,-396 590,-417 769,-417 769,-396 590,-396"/>
<polygon fill="none" stroke="#000000" points="590,-396 590,-417 769,-417 769,-396 590,-396"/>
<text text-anchor="start" x="593" y="-402.8" font-family="Nimbus Sans L" font-size="14.00" fill="#000000">[STRING] configid (Optional)</text>
</a>
</g>
<g id="a_node7_51"><a xlink:href="#" xlink:title="Vendor name of the software.">
<polygon fill="#284f9f" stroke="transparent" points="590,-375 590,-396 769,-396 769,-375 590,-375"/>
<polygon fill="none" stroke="#000000" points="590,-375 590,-396 769,-396 769,-375 590,-375"/>
<text text-anchor="start" x="595.5" y="-381.8" font-family="Nimbus Sans L" font-size="14.00" fill="#000000">[STRING] vendor (Optional)</text>
</a>
</g>
<g id="a_node7_52"><a xlink:href="#" xlink:title="Family of the software.">
<polygon fill="#284f9f" stroke="transparent" points="590,-354 590,-375 769,-375 769,-354 590,-354"/>
<polygon fill="none" stroke="#000000" points="590,-354 590,-375 769,-375 769,-354 590,-354"/>
<text text-anchor="start" x="598" y="-360.8" font-family="Nimbus Sans L" font-size="14.00" fill="#000000">[STRING] family (Optional)</text>
</a>
</g>
<g id="a_node7_53"><a xlink:href="#" xlink:title="Name of the software.">
<polygon fill="#284f9f" stroke="transparent" points="590,-333 590,-354 769,-354 769,-333 590,-333"/>
<polygon fill="none" stroke="#000000" points="590,-333 590,-354 769,-354 769,-333 590,-333"/>
<text text-anchor="start" x="599" y="-339.8" font-family="Nimbus Sans L" font-size="14.00" fill="#000000">[STRING] name (Optional)</text>
</a>
</g>
<g id="a_node7_54"><a xlink:href="#" xlink:title="Version of the software.">
<polygon fill="#284f9f" stroke="transparent" points="590,-312 590,-333 769,-333 769,-312 590,-312"/>
<polygon fill="none" stroke="#000000" points="590,-312 590,-333 769,-333 769,-312 590,-312"/>
<text text-anchor="start" x="594.5" y="-318.8" font-family="Nimbus Sans L" font-size="14.00" fill="#000000">[STRING] version (Optional)</text>
</a>
</g>
<g id="a_node7_55"><a xlink:href="#" xlink:title="Patch or service pack level of the software.">
<polygon fill="#284f9f" stroke="transparent" points="590,-291 590,-312 769,-312 769,-291 590,-291"/>
<polygon fill="none" stroke="#000000" points="590,-291 590,-312 769,-312 769,-291 590,-291"/>
<text text-anchor="start" x="599.5" y="-297.8" font-family="Nimbus Sans L" font-size="14.00" fill="#000000">[STRING] patch (Optional)</text>
</a>
</g>
</g>
<!-- Service&#45;&gt;Application -->
<g id="edge5" class="edge">
<title>Service&#45;&gt;Application</title>
<path fill="none" stroke="#000000" d="M509.2861,-421.2575C529.8171,-416.9922 551.1523,-412.5599 571.4836,-408.3362"/>
<polygon fill="#000000" stroke="#000000" points="572.2969,-411.742 581.3759,-406.2811 570.873,-404.8883 572.2969,-411.742"/>
<text text-anchor="middle" x="538.5" y="-420.8" font-family="Times,serif" font-size="14.00" fill="#000000">0..*</text>
</g>
</g>
</svg>
