<?xml version="1.0" encoding="UTF-8" standalone="no"?>
<!DOCTYPE svg PUBLIC "-//W3C//DTD SVG 1.1//EN"
 "http://www.w3.org/Graphics/SVG/1.1/DTD/svg11.dtd">
<!-- Generated by graphviz version 2.40.1 (0)
 -->
<!-- Title: TimeImpact Pages: 1 -->
<svg width="227pt" height="142pt"
 viewBox="0.00 0.00 227.00 142.00" xmlns="http://www.w3.org/2000/svg" xmlns:xlink="http://www.w3.org/1999/xlink">
<g id="graph0" class="graph" transform="scale(1 1) rotate(0) translate(4 138)">
<title>TimeImpact</title>
<polygon fill="#ffffff" stroke="transparent" points="-4,4 -4,-138 223,-138 223,4 -4,4"/>
<!-- TimeImpact -->
<g id="node1" class="node">
<title>TimeImpact</title>
<g id="a_node1_0"><a xlink:href="#" xlink:title="The TimeImpact class describes the impact of the incident on an organization as a function of time. It provides a way to convey down time and recovery time. ">
<polygon fill="#cc401d" stroke="transparent" points="8.5,-109 8.5,-130 211.5,-130 211.5,-109 8.5,-109"/>
<polygon fill="none" stroke="#000000" points="8.5,-109 8.5,-130 211.5,-130 211.5,-109 8.5,-109"/>
<text text-anchor="start" x="73.5" y="-115.8" font-family="Nimbus Sans L" font-size="14.00" fill="#000000">TimeImpact</text>
</a>
</g>
<g id="a_node1_1"><a xlink:href="#" xlink:title="An estimate of the relative severity of the activity. &#160;The permitted values are shown below. &#160;There is no default value.">
<polygon fill="#ff5024" stroke="transparent" points="8.5,-88 8.5,-109 211.5,-109 211.5,-88 8.5,-88"/>
<polygon fill="none" stroke="#000000" points="8.5,-88 8.5,-109 211.5,-109 211.5,-88 8.5,-88"/>
<text text-anchor="start" x="28.5" y="-94.8" font-family="Nimbus Sans L" font-size="14.00" fill="#000000">[ENUM] severity (Optional)</text>
</a>
</g>
<g id="a_node1_2"><a xlink:href="#" xlink:title="Defines the metric in which the time is expressed. &#160;The permitted values are shown below. &#160;There is no default value.">
<polygon fill="#ff5024" stroke="transparent" points="8.5,-67 8.5,-88 211.5,-88 211.5,-67 8.5,-67"/>
<polygon fill="none" stroke="#000000" points="8.5,-67 8.5,-88 211.5,-88 211.5,-67 8.5,-67"/>
<text text-anchor="start" x="31.5" y="-73.8" font-family="Nimbus Sans L" font-size="14.00" fill="#000000">[ENUM] metric (Required)</text>
</a>
</g>
<g id="a_node1_3"><a xlink:href="#" xlink:title="A means by which to extend the metric attribute. &#160;See Section 5.1.">
<polygon fill="#ff5024" stroke="transparent" points="8.5,-46 8.5,-67 211.5,-67 211.5,-46 8.5,-46"/>
<polygon fill="none" stroke="#000000" points="8.5,-46 8.5,-67 211.5,-67 211.5,-46 8.5,-46"/>
<text text-anchor="start" x="17" y="-52.8" font-family="Nimbus Sans L" font-size="14.00" fill="#000000">[STRING] ext&#45;metric (Optional)</text>
</a>
</g>
<g id="a_node1_4"><a xlink:href="#" xlink:title="Defines a unit of time, that when combined with the metric attribute, fully describes a metric of impact that will be conveyed in the element content. &#160;The permitted values are shown below. &#160;The default value is &quot;hour&quot;.">
<polygon fill="#ff5024" stroke="transparent" points="8.5,-25 8.5,-46 211.5,-46 211.5,-25 8.5,-25"/>
<polygon fill="none" stroke="#000000" points="8.5,-25 8.5,-46 211.5,-46 211.5,-25 8.5,-25"/>
<text text-anchor="start" x="25.5" y="-31.8" font-family="Nimbus Sans L" font-size="14.00" fill="#000000">[ENUM] duration (Required)</text>
</a>
</g>
<g id="a_node1_5"><a xlink:href="#" xlink:title="A means by which to extend the duration attribute. &#160;See Section 5.1.">
<polygon fill="#ff5024" stroke="transparent" points="8.5,-4 8.5,-25 211.5,-25 211.5,-4 8.5,-4"/>
<polygon fill="none" stroke="#000000" points="8.5,-4 8.5,-25 211.5,-25 211.5,-4 8.5,-4"/>
<text text-anchor="start" x="11.5" y="-10.8" font-family="Nimbus Sans L" font-size="14.00" fill="#000000">[STRING] ext&#45;duration (Optional)</text>
</a>
</g>
</g>
</g>
</svg>
