<?xml version="1.0" encoding="UTF-8" standalone="no"?>
<!DOCTYPE svg PUBLIC "-//W3C//DTD SVG 1.1//EN"
 "http://www.w3.org/Graphics/SVG/1.1/DTD/svg11.dtd">
<!-- Generated by graphviz version 2.26.3 (20100126.1600)
 -->
<!-- Title: Assessment Pages: 1 -->
<svg width="354pt" height="228pt"
 viewBox="0.00 0.00 354.00 228.00" xmlns="http://www.w3.org/2000/svg" xmlns:xlink="http://www.w3.org/1999/xlink">
<g id="graph1" class="graph" transform="scale(1 1) rotate(0) translate(4 224)">
<title>Assessment</title>
<polygon fill="white" stroke="white" points="-4,5 -4,-224 351,-224 351,5 -4,5"/>
<!-- Assessment -->
<g id="node1" class="node"><title>Assessment</title>
<a xlink:href="#" xlink:title="The Assessment class is used to provide the analyzer&#39;s assessment of an event &#45;&#45; its impact, actions taken in response, and confidence. ">
<polygon fill="#cecece" stroke="#cecece" points="9,-79 9,-100 98,-100 98,-79 9,-79"/>
<polygon fill="none" stroke="black" points="9,-79 9,-100 98,-100 98,-79 9,-79"/>
<text text-anchor="start" x="12.5" y="-86.2333" font-family="Times Roman,serif" font-size="14.00">Assessment</text>
</a>
</g>
<!-- Impact -->
<g id="node2" class="node"><title>Impact</title>
<a xlink:href="#" xlink:title="The Impact class is used to provide the analyzer&#39;s assessment of the impact of the event on the target(s). It is represented in the IDMEF DTD as follows: ">
<polygon fill="#cecece" stroke="#cecece" points="179,-195 179,-216 338,-216 338,-195 179,-195"/>
<polygon fill="none" stroke="black" points="179,-195 179,-216 338,-216 338,-195 179,-195"/>
<text text-anchor="start" x="235" y="-202.233" font-family="Times Roman,serif" font-size="14.00">Impact</text>
</a>
<a xlink:href="#" xlink:title="Section 10.)">
<polygon fill="none" stroke="black" points="179,-175 179,-195 338,-195 338,-175 179,-175"/>
<text text-anchor="start" x="192" y="-181.733" font-family="Times Roman,serif" font-size="14.00">[ENUM] severity () </text>
</a>
<a xlink:href="#" xlink:title="Section 10.)">
<polygon fill="none" stroke="black" points="179,-155 179,-175 338,-175 338,-155 179,-155"/>
<text text-anchor="start" x="182.5" y="-161.733" font-family="Times Roman,serif" font-size="14.00">[ENUM] completion () </text>
</a>
<a xlink:href="#" xlink:title="value is &quot;other&quot;. &#160;(See also Section 10.)">
<polygon fill="none" stroke="black" points="179,-135 179,-155 338,-155 338,-135 179,-135"/>
<text text-anchor="start" x="204.5" y="-141.733" font-family="Times Roman,serif" font-size="14.00">[ENUM] type () </text>
</a>
</g>
<!-- Assessment&#45;&gt;Impact -->
<g id="edge2" class="edge"><title>Assessment&#45;&gt;Impact</title>
<path fill="none" stroke="black" d="M95.9747,-108.028C114.962,-115.994 138.119,-125.708 160.918,-135.273"/>
<polygon fill="black" stroke="black" points="159.733,-138.571 170.309,-139.213 162.441,-132.116 159.733,-138.571"/>
<text text-anchor="middle" x="138" y="-134.4" font-family="Times Roman,serif" font-size="14.00">0..1</text>
</g>
<!-- Action -->
<g id="node4" class="node"><title>Action</title>
<a xlink:href="#" xlink:title="The Action class is used to describe any actions taken by the analyzer in response to the event. Is is represented in the IDMEF DTD as follows: ">
<polygon fill="#cecece" stroke="#cecece" points="186,-89 186,-110 330,-110 330,-89 186,-89"/>
<polygon fill="none" stroke="black" points="186,-89 186,-110 330,-110 330,-89 186,-89"/>
<text text-anchor="start" x="236" y="-96.2333" font-family="Times Roman,serif" font-size="14.00">Action</text>
</a>
<a xlink:href="#" xlink:title="The default value is &quot;other&quot;. &#160;(See also Section 10.)">
<polygon fill="none" stroke="black" points="186,-69 186,-89 330,-89 330,-69 186,-69"/>
<text text-anchor="start" x="189.5" y="-75.7333" font-family="Times Roman,serif" font-size="14.00">[ENUM] category () </text>
</a>
</g>
<!-- Assessment&#45;&gt;Action -->
<g id="edge4" class="edge"><title>Assessment&#45;&gt;Action</title>
<path fill="none" stroke="black" d="M105.526,-90C124.472,-90 146.434,-90 167.687,-90"/>
<polygon fill="black" stroke="black" points="167.717,-93.5001 177.717,-90 167.717,-86.5001 167.717,-93.5001"/>
<text text-anchor="middle" x="138" y="-94.4" font-family="Times Roman,serif" font-size="14.00">0..*</text>
</g>
<!-- Confidence -->
<g id="node6" class="node"><title>Confidence</title>
<a xlink:href="#" xlink:title="The Confidence class is used to represent the analyzer&#39;s best estimate of the validity of its analysis. It is represented in the IDMEF DTD as follows: ">
<polygon fill="#cecece" stroke="#cecece" points="196,-23 196,-44 321,-44 321,-23 196,-23"/>
<polygon fill="none" stroke="black" points="196,-23 196,-44 321,-44 321,-23 196,-23"/>
<text text-anchor="start" x="220.5" y="-30.2333" font-family="Times Roman,serif" font-size="14.00">Confidence</text>
</a>
<a xlink:href="#" xlink:title="also Section 10.)">
<polygon fill="none" stroke="black" points="196,-3 196,-23 321,-23 321,-3 196,-3"/>
<text text-anchor="start" x="199.5" y="-9.73333" font-family="Times Roman,serif" font-size="14.00">[ENUM] rating () </text>
</a>
</g>
<!-- Assessment&#45;&gt;Confidence -->
<g id="edge6" class="edge"><title>Assessment&#45;&gt;Confidence</title>
<path fill="none" stroke="black" d="M105.526,-73.0891C127.519,-66.0084 153.576,-57.6194 177.87,-49.7978"/>
<polygon fill="black" stroke="black" points="178.992,-53.1137 187.438,-46.7174 176.847,-46.4505 178.992,-53.1137"/>
<text text-anchor="middle" x="138" y="-70.4" font-family="Times Roman,serif" font-size="14.00">0..1</text>
</g>
</g>
</svg>
