<?xml version="1.0" encoding="UTF-8" standalone="no"?>
<!DOCTYPE svg PUBLIC "-//W3C//DTD SVG 1.1//EN"
 "http://www.w3.org/Graphics/SVG/1.1/DTD/svg11.dtd">
<!-- Generated by graphviz version 2.40.1 (0)
 -->
<!-- Title: Assessment Pages: 1 -->
<svg width="368pt" height="236pt"
 viewBox="0.00 0.00 368.00 236.00" xmlns="http://www.w3.org/2000/svg" xmlns:xlink="http://www.w3.org/1999/xlink">
<g id="graph0" class="graph" transform="scale(1 1) rotate(0) translate(4 232)">
<title>Assessment</title>
<polygon fill="#ffffff" stroke="transparent" points="-4,4 -4,-232 364,-232 364,4 -4,4"/>
<!-- Assessment -->
<g id="node1" class="node">
<title>Assessment</title>
<g id="a_node1_0"><a xlink:href="#" xlink:title="The Assessment class is used to provide the analyzer&#39;s assessment of an event &#45;&#45; its impact, actions taken in response, and confidence. ">
<polygon fill="#cc6a51" stroke="transparent" points="8.5,-82 8.5,-103 89.5,-103 89.5,-82 8.5,-82"/>
<polygon fill="none" stroke="#000000" points="8.5,-82 8.5,-103 89.5,-103 89.5,-82 8.5,-82"/>
<text text-anchor="start" x="11.5" y="-88.8" font-family="Nimbus Sans L" font-size="14.00" fill="#000000">Assessment</text>
</a>
</g>
</g>
<!-- Impact -->
<g id="node2" class="node">
<title>Impact</title>
<g id="a_node2_1"><a xlink:href="#" xlink:title="The Impact class is used to provide the analyzer&#39;s assessment of the impact of the event on the target(s). It is represented in the IDMEF DTD as follows: ">
<polygon fill="#cc6a51" stroke="transparent" points="164,-203 164,-224 352,-224 352,-203 164,-203"/>
<polygon fill="none" stroke="#000000" points="164,-203 164,-224 352,-224 352,-203 164,-203"/>
<text text-anchor="start" x="237" y="-209.8" font-family="Nimbus Sans L" font-size="14.00" fill="#000000">Impact</text>
</a>
</g>
<g id="a_node2_2"><a xlink:href="#" xlink:title="Section 10.)">
<polygon fill="#ff8465" stroke="transparent" points="164,-182 164,-203 352,-203 352,-182 164,-182"/>
<polygon fill="none" stroke="#000000" points="164,-182 164,-203 352,-203 352,-182 164,-182"/>
<text text-anchor="start" x="176.5" y="-188.8" font-family="Nimbus Sans L" font-size="14.00" fill="#000000">[ENUM] severity (Optional)</text>
</a>
</g>
<g id="a_node2_3"><a xlink:href="#" xlink:title="Section 10.)">
<polygon fill="#ff8465" stroke="transparent" points="164,-161 164,-182 352,-182 352,-161 164,-161"/>
<polygon fill="none" stroke="#000000" points="164,-161 164,-182 352,-182 352,-161 164,-161"/>
<text text-anchor="start" x="167" y="-167.8" font-family="Nimbus Sans L" font-size="14.00" fill="#000000">[ENUM] completion (Optional)</text>
</a>
</g>
<g id="a_node2_4"><a xlink:href="#" xlink:title="value is &quot;other&quot;. &#160;(See also Section 10.)">
<polygon fill="#ff8465" stroke="transparent" points="164,-140 164,-161 352,-161 352,-140 164,-140"/>
<polygon fill="none" stroke="#000000" points="164,-140 164,-161 352,-161 352,-140 164,-140"/>
<text text-anchor="start" x="187" y="-146.8" font-family="Nimbus Sans L" font-size="14.00" fill="#000000">[ENUM] type (Optional)</text>
</a>
</g>
</g>
<!-- Assessment&#45;&gt;Impact -->
<g id="edge1" class="edge">
<title>Assessment&#45;&gt;Impact</title>
<path fill="none" stroke="#000000" d="M90.8955,-111.0105C107.2037,-117.9386 126.6824,-126.2135 146.4848,-134.626"/>
<polygon fill="#000000" stroke="#000000" points="145.3338,-137.9397 155.9062,-138.6284 148.0708,-131.497 145.3338,-137.9397"/>
<text text-anchor="middle" x="126.5" y="-132.8" font-family="Times,serif" font-size="14.00" fill="#000000">0..1</text>
</g>
<!-- Action -->
<g id="node3" class="node">
<title>Action</title>
<g id="a_node3_5"><a xlink:href="#" xlink:title="The Action class is used to describe any actions taken by the analyzer in response to the event. Is is represented in the IDMEF DTD as follows: ">
<polygon fill="#cc6a51" stroke="transparent" points="169,-93 169,-114 347,-114 347,-93 169,-93"/>
<polygon fill="none" stroke="#000000" points="169,-93 169,-114 347,-114 347,-93 169,-93"/>
<text text-anchor="start" x="239" y="-99.8" font-family="Nimbus Sans L" font-size="14.00" fill="#000000">Action</text>
</a>
</g>
<g id="a_node3_6"><a xlink:href="#" xlink:title="The default value is &quot;other&quot;. &#160;(See also Section 10.)">
<polygon fill="#ff8465" stroke="transparent" points="169,-72 169,-93 347,-93 347,-72 169,-72"/>
<polygon fill="none" stroke="#000000" points="169,-72 169,-93 347,-93 347,-72 169,-72"/>
<text text-anchor="start" x="172" y="-78.8" font-family="Nimbus Sans L" font-size="14.00" fill="#000000">[ENUM] category (Required)</text>
</a>
</g>
</g>
<!-- Assessment&#45;&gt;Action -->
<g id="edge2" class="edge">
<title>Assessment&#45;&gt;Action</title>
<path fill="none" stroke="#000000" d="M97.0901,-93C113.279,-93 132.0086,-93 150.8422,-93"/>
<polygon fill="#000000" stroke="#000000" points="150.9926,-96.5001 160.9926,-93 150.9925,-89.5001 150.9926,-96.5001"/>
<text text-anchor="middle" x="126.5" y="-96.8" font-family="Times,serif" font-size="14.00" fill="#000000">0..*</text>
</g>
<!-- Confidence -->
<g id="node4" class="node">
<title>Confidence</title>
<g id="a_node4_7"><a xlink:href="#" xlink:title="The Confidence class is used to represent the analyzer&#39;s best estimate of the validity of its analysis. It is represented in the IDMEF DTD as follows: ">
<polygon fill="#cc6a51" stroke="transparent" points="178,-25 178,-46 338,-46 338,-25 178,-25"/>
<polygon fill="none" stroke="#000000" points="178,-25 178,-46 338,-46 338,-25 178,-25"/>
<text text-anchor="start" x="223.5" y="-31.8" font-family="Nimbus Sans L" font-size="14.00" fill="#000000">Confidence</text>
</a>
</g>
<g id="a_node4_8"><a xlink:href="#" xlink:title="also Section 10.)">
<polygon fill="#ff8465" stroke="transparent" points="178,-4 178,-25 338,-25 338,-4 178,-4"/>
<polygon fill="none" stroke="#000000" points="178,-4 178,-25 338,-25 338,-4 178,-4"/>
<text text-anchor="start" x="181" y="-10.8" font-family="Nimbus Sans L" font-size="14.00" fill="#000000">[ENUM] rating (Required)</text>
</a>
</g>
</g>
<!-- Assessment&#45;&gt;Confidence -->
<g id="edge3" class="edge">
<title>Assessment&#45;&gt;Confidence</title>
<path fill="none" stroke="#000000" d="M97.0901,-77.2285C119.1698,-70.0618 145.9758,-61.3611 171.3254,-53.133"/>
<polygon fill="#000000" stroke="#000000" points="172.5258,-56.4232 180.9567,-50.0069 170.3647,-49.7652 172.5258,-56.4232"/>
<text text-anchor="middle" x="126.5" y="-74.8" font-family="Times,serif" font-size="14.00" fill="#000000">0..1</text>
</g>
</g>
</svg>
