<?xml version="1.0" encoding="UTF-8" standalone="no"?>
<!DOCTYPE svg PUBLIC "-//W3C//DTD SVG 1.1//EN"
 "http://www.w3.org/Graphics/SVG/1.1/DTD/svg11.dtd">
<!-- Generated by graphviz version 2.26.3 (20100126.1600)
 -->
<!-- Title: Checksum Pages: 1 -->
<svg width="236pt" height="96pt"
 viewBox="0.00 0.00 236.00 96.00" xmlns="http://www.w3.org/2000/svg" xmlns:xlink="http://www.w3.org/1999/xlink">
<g id="graph1" class="graph" transform="scale(1 1) rotate(0) translate(4 92)">
<title>Checksum</title>
<polygon fill="white" stroke="white" points="-4,5 -4,-92 233,-92 233,5 -4,5"/>
<!-- Checksum -->
<g id="node1" class="node"><title>Checksum</title>
<a xlink:href="#" xlink:title="The Checksum class represents checksum information associated with the file. This checksum information can be provided by file integrity checkers, among others. ">
<polygon fill="#997a00" stroke="#997a00" points="9,-63 9,-84 220,-84 220,-63 9,-63"/>
<polygon fill="none" stroke="black" points="9,-63 9,-84 220,-84 220,-63 9,-63"/>
<text text-anchor="start" x="79" y="-70.2333" font-family="Times Roman,serif" font-size="14.00">Checksum</text>
</a>
<a xlink:href="#" xlink:title="The value of the checksum.">
<polygon fill="#ffcc00" stroke="#ffcc00" points="9,-43 9,-63 220,-63 220,-43 9,-43"/>
<polygon fill="none" stroke="black" points="9,-43 9,-63 220,-63 220,-43 9,-43"/>
<text text-anchor="start" x="46.5" y="-49.7333" font-family="Times Roman,serif" font-size="14.00">[STRING] value (1) </text>
</a>
<a xlink:href="#" xlink:title="The key to the checksum, if appropriate.">
<polygon fill="#ffcc00" stroke="#ffcc00" points="9,-23 9,-43 220,-43 220,-23 9,-23"/>
<polygon fill="none" stroke="black" points="9,-23 9,-43 220,-43 220,-23 9,-23"/>
<text text-anchor="start" x="44.5" y="-29.7333" font-family="Times Roman,serif" font-size="14.00">[STRING] key (0..1) </text>
</a>
<a xlink:href="#" xlink:title="default value. &#160;(See also Section 10.)">
<polygon fill="#ffcc00" stroke="#ffcc00" points="9,-3 9,-23 220,-23 220,-3 9,-3"/>
<polygon fill="none" stroke="black" points="9,-3 9,-23 220,-23 220,-3 9,-3"/>
<text text-anchor="start" x="12.5" y="-9.73333" font-family="Times Roman,serif" font-size="14.00">[ENUM] algorithm (Required) </text>
</a>
</g>
</g>
</svg>
