<?xml version="1.0" encoding="UTF-8" standalone="no"?>
<!DOCTYPE svg PUBLIC "-//W3C//DTD SVG 1.1//EN"
 "http://www.w3.org/Graphics/SVG/1.1/DTD/svg11.dtd">
<!-- Generated by graphviz version 2.40.1 (0)
 -->
<!-- Title: Checksum Pages: 1 -->
<svg width="206pt" height="100pt"
 viewBox="0.00 0.00 206.00 100.00" xmlns="http://www.w3.org/2000/svg" xmlns:xlink="http://www.w3.org/1999/xlink">
<g id="graph0" class="graph" transform="scale(1 1) rotate(0) translate(4 96)">
<title>Checksum</title>
<polygon fill="#ffffff" stroke="transparent" points="-4,4 -4,-96 202,-96 202,4 -4,4"/>
<!-- Checksum -->
<g id="node1" class="node">
<title>Checksum</title>
<g id="a_node1_0"><a xlink:href="#" xlink:title="The Checksum class represents checksum information associated with the file. This checksum information can be provided by file integrity checkers, among others. ">
<polygon fill="#cca300" stroke="transparent" points="8,-67 8,-88 190,-88 190,-67 8,-67"/>
<polygon fill="none" stroke="#000000" points="8,-67 8,-88 190,-88 190,-67 8,-67"/>
<text text-anchor="start" x="66.5" y="-73.8" font-family="Nimbus Sans L" font-size="14.00" fill="#000000">Checksum</text>
</a>
</g>
<g id="a_node1_1"><a xlink:href="#" xlink:title="The value of the checksum.">
<polygon fill="#ffcc00" stroke="transparent" points="8,-46 8,-67 190,-67 190,-46 8,-46"/>
<polygon fill="none" stroke="#000000" points="8,-46 8,-67 190,-67 190,-46 8,-46"/>
<text text-anchor="start" x="17.5" y="-52.8" font-family="Nimbus Sans L" font-size="14.00" fill="#000000">[STRING] value (Required)</text>
</a>
</g>
<g id="a_node1_2"><a xlink:href="#" xlink:title="The key to the checksum, if appropriate.">
<polygon fill="#ffcc00" stroke="transparent" points="8,-25 8,-46 190,-46 190,-25 8,-25"/>
<polygon fill="none" stroke="#000000" points="8,-25 8,-46 190,-46 190,-25 8,-25"/>
<text text-anchor="start" x="25" y="-31.8" font-family="Nimbus Sans L" font-size="14.00" fill="#000000">[STRING] key (Optional)</text>
</a>
</g>
<g id="a_node1_3"><a xlink:href="#" xlink:title="default value. &#160;(See also Section 10.)">
<polygon fill="#ffcc00" stroke="transparent" points="8,-4 8,-25 190,-25 190,-4 8,-4"/>
<polygon fill="none" stroke="#000000" points="8,-4 8,-25 190,-25 190,-4 8,-4"/>
<text text-anchor="start" x="11" y="-10.8" font-family="Nimbus Sans L" font-size="14.00" fill="#000000">[ENUM] algorithm (Required)</text>
</a>
</g>
</g>
</g>
</svg>
