<?xml version="1.0" encoding="UTF-8" standalone="no"?>
<!DOCTYPE svg PUBLIC "-//W3C//DTD SVG 1.1//EN"
 "http://www.w3.org/Graphics/SVG/1.1/DTD/svg11.dtd">
<!-- Generated by graphviz version 2.40.1 (0)
 -->
<!-- Title: Confidence Pages: 1 -->
<svg width="184pt" height="58pt"
 viewBox="0.00 0.00 184.00 58.00" xmlns="http://www.w3.org/2000/svg" xmlns:xlink="http://www.w3.org/1999/xlink">
<g id="graph0" class="graph" transform="scale(1 1) rotate(0) translate(4 54)">
<title>Confidence</title>
<polygon fill="#ffffff" stroke="transparent" points="-4,4 -4,-54 180,-54 180,4 -4,4"/>
<!-- Confidence -->
<g id="node1" class="node">
<title>Confidence</title>
<g id="a_node1_0"><a xlink:href="#" xlink:title="The Confidence class is used to represent the analyzer&#39;s best estimate of the validity of its analysis. It is represented in the IDMEF DTD as follows: ">
<polygon fill="#cc6a51" stroke="transparent" points="8,-25 8,-46 168,-46 168,-25 8,-25"/>
<polygon fill="none" stroke="#000000" points="8,-25 8,-46 168,-46 168,-25 8,-25"/>
<text text-anchor="start" x="53.5" y="-31.8" font-family="Nimbus Sans L" font-size="14.00" fill="#000000">Confidence</text>
</a>
</g>
<g id="a_node1_1"><a xlink:href="#" xlink:title="also Section 10.)">
<polygon fill="#ff8465" stroke="transparent" points="8,-4 8,-25 168,-25 168,-4 8,-4"/>
<polygon fill="none" stroke="#000000" points="8,-4 8,-25 168,-25 168,-4 8,-4"/>
<text text-anchor="start" x="11" y="-10.8" font-family="Nimbus Sans L" font-size="14.00" fill="#000000">[ENUM] rating (Required)</text>
</a>
</g>
</g>
</g>
</svg>
