<?xml version="1.0" encoding="UTF-8" standalone="no"?>
<!DOCTYPE svg PUBLIC "-//W3C//DTD SVG 1.1//EN"
 "http://www.w3.org/Graphics/SVG/1.1/DTD/svg11.dtd">
<!-- Generated by graphviz version 2.40.1 (0)
 -->
<!-- Title: FileAccess Pages: 1 -->
<svg width="466pt" height="142pt"
 viewBox="0.00 0.00 466.00 142.00" xmlns="http://www.w3.org/2000/svg" xmlns:xlink="http://www.w3.org/1999/xlink">
<g id="graph0" class="graph" transform="scale(1 1) rotate(0) translate(4 138)">
<title>FileAccess</title>
<polygon fill="#ffffff" stroke="transparent" points="-4,4 -4,-138 462,-138 462,4 -4,4"/>
<!-- FileAccess -->
<g id="node1" class="node">
<title>FileAccess</title>
<g id="a_node1_0"><a xlink:href="#" xlink:title="The FileAccess class represents the access permissions on a file. The representation is intended to be useful across operating systems. ">
<polygon fill="#cca300" stroke="transparent" points="8.5,-67 8.5,-88 201.5,-88 201.5,-67 8.5,-67"/>
<polygon fill="none" stroke="#000000" points="8.5,-67 8.5,-88 201.5,-88 201.5,-67 8.5,-67"/>
<text text-anchor="start" x="72" y="-73.8" font-family="Nimbus Sans L" font-size="14.00" fill="#000000">FileAccess</text>
</a>
</g>
<g id="a_node1_1"><a xlink:href="#" xlink:title="Level of access allowed. &#160;The permitted values are shown below. &#160;There is no default value. &#160;(See also Section 10.)">
<polygon fill="#ffcc00" stroke="transparent" points="8.5,-46 8.5,-67 201.5,-67 201.5,-46 8.5,-46"/>
<polygon fill="none" stroke="#000000" points="8.5,-46 8.5,-67 201.5,-67 201.5,-46 8.5,-46"/>
<text text-anchor="start" x="11.5" y="-52.8" font-family="Nimbus Sans L" font-size="14.00" fill="#000000">[ENUM] Permission (Required)</text>
</a>
</g>
</g>
<!-- UserId -->
<g id="node2" class="node">
<title>UserId</title>
<g id="a_node2_2"><a xlink:href="#" xlink:title="The UserId class provides specific information about a user. More than one UserId can be used within the User class to indicate attempts to transition from one user to another, or to provide complete information about a user&#39;s (or process&#39;) privileges. ">
<polygon fill="#52a3cc" stroke="transparent" points="261.5,-109 261.5,-130 450.5,-130 450.5,-109 261.5,-109"/>
<polygon fill="none" stroke="#000000" points="261.5,-109 261.5,-130 450.5,-130 450.5,-109 261.5,-109"/>
<text text-anchor="start" x="336" y="-115.8" font-family="Nimbus Sans L" font-size="14.00" fill="#000000">UserId</text>
</a>
</g>
<g id="a_node2_3"><a xlink:href="#" xlink:title="A user or group name.">
<polygon fill="#66ccff" stroke="transparent" points="261.5,-88 261.5,-109 450.5,-109 450.5,-88 261.5,-88"/>
<polygon fill="none" stroke="#000000" points="261.5,-88 261.5,-109 450.5,-109 450.5,-88 261.5,-88"/>
<text text-anchor="start" x="275.5" y="-94.8" font-family="Nimbus Sans L" font-size="14.00" fill="#000000">[STRING] name (Optional)</text>
</a>
</g>
<g id="a_node2_4"><a xlink:href="#" xlink:title="A user or group number.">
<polygon fill="#66ccff" stroke="transparent" points="261.5,-67 261.5,-88 450.5,-88 450.5,-67 261.5,-67"/>
<polygon fill="none" stroke="#000000" points="261.5,-67 261.5,-88 450.5,-88 450.5,-67 261.5,-67"/>
<text text-anchor="start" x="264.5" y="-73.8" font-family="Nimbus Sans L" font-size="14.00" fill="#000000">[INTEGER] number (Optional)</text>
</a>
</g>
<g id="a_node2_5"><a xlink:href="#" xlink:title="A unique identifier for the user id, see Section 3.2.9.">
<polygon fill="#66ccff" stroke="transparent" points="261.5,-46 261.5,-67 450.5,-67 450.5,-46 261.5,-46"/>
<polygon fill="none" stroke="#000000" points="261.5,-46 261.5,-67 450.5,-67 450.5,-46 261.5,-46"/>
<text text-anchor="start" x="278" y="-52.8" font-family="Nimbus Sans L" font-size="14.00" fill="#000000">[STRING] ident (Optional)</text>
</a>
</g>
<g id="a_node2_6"><a xlink:href="#" xlink:title="The type of user information represented. &#160;The permitted values for this attribute are shown below. &#160;The default value is &quot;original&#45;user&quot;. &#160;(See also Section 10.)">
<polygon fill="#66ccff" stroke="transparent" points="261.5,-25 261.5,-46 450.5,-46 450.5,-25 261.5,-25"/>
<polygon fill="none" stroke="#000000" points="261.5,-25 261.5,-46 450.5,-46 450.5,-25 261.5,-25"/>
<text text-anchor="start" x="285" y="-31.8" font-family="Nimbus Sans L" font-size="14.00" fill="#000000">[ENUM] type (Optional)</text>
</a>
</g>
<g id="a_node2_7"><a xlink:href="#" xlink:title="The tty the user is using.">
<polygon fill="#66ccff" stroke="transparent" points="261.5,-4 261.5,-25 450.5,-25 450.5,-4 261.5,-4"/>
<polygon fill="none" stroke="#000000" points="261.5,-4 261.5,-25 450.5,-25 450.5,-4 261.5,-4"/>
<text text-anchor="start" x="285.5" y="-10.8" font-family="Nimbus Sans L" font-size="14.00" fill="#000000">[STRING] tty (Optional)</text>
</a>
</g>
</g>
<!-- FileAccess&#45;&gt;UserId -->
<g id="edge1" class="edge">
<title>FileAccess&#45;&gt;UserId</title>
<path fill="none" stroke="#000000" d="M209.1291,-67C220.1488,-67 231.3893,-67 242.498,-67"/>
<polygon fill="#000000" stroke="#000000" points="242.6527,-70.5001 252.6526,-67 242.6526,-63.5001 242.6527,-70.5001"/>
<text text-anchor="middle" x="231" y="-70.8" font-family="Times,serif" font-size="14.00" fill="#000000">1</text>
</g>
</g>
</svg>
