<?xml version="1.0" encoding="UTF-8" standalone="no"?>
<!DOCTYPE svg PUBLIC "-//W3C//DTD SVG 1.1//EN"
 "http://www.w3.org/Graphics/SVG/1.1/DTD/svg11.dtd">
<!-- Generated by graphviz version 2.26.3 (20100126.1600)
 -->
<!-- Title: Heartbeat Pages: 1 -->
<svg width="1058pt" height="423pt"
 viewBox="0.00 0.00 1058.00 423.00" xmlns="http://www.w3.org/2000/svg" xmlns:xlink="http://www.w3.org/1999/xlink">
<g id="graph1" class="graph" transform="scale(1 1) rotate(0) translate(4 419)">
<title>Heartbeat</title>
<polygon fill="white" stroke="white" points="-4,5 -4,-419 1055,-419 1055,5 -4,5"/>
<!-- Heartbeat -->
<g id="node1" class="node"><title>Heartbeat</title>
<a xlink:href="#" xlink:title="Analyzers use Heartbeat messages to indicate their current status to managers. Heartbeats are intended to be sent in a regular period, say, every ten minutes or every hour. The receipt of a Heartbeat message from an analyzer indicates to the manager that the analyzer is up and running; lack of a Heartbeat message (or more likely, lack of some number of consecutive Heartbeat messages) indicates that the analyzer or its network connection has failed. ">
<polygon fill="#cecece" stroke="#cecece" points="9,-120 9,-141 202,-141 202,-120 9,-120"/>
<polygon fill="none" stroke="black" points="9,-120 9,-141 202,-141 202,-120 9,-120"/>
<text text-anchor="start" x="70.5" y="-127.233" font-family="Times Roman,serif" font-size="14.00">Heartbeat</text>
</a>
<a xlink:href="#" xlink:title="The interval in seconds at which heartbeats are generated.">
<polygon fill="none" stroke="black" points="9,-100 9,-120 202,-120 202,-100 9,-100"/>
<text text-anchor="start" x="12.5" y="-106.733" font-family="Times Roman,serif" font-size="14.00">[] HeartbeatInterval (0..1) </text>
</a>
<a xlink:href="#" xlink:title="A unique identifier for the heartbeat; see Section 3.2.9.">
<polygon fill="none" stroke="black" points="9,-80 9,-100 202,-100 202,-80 9,-80"/>
<text text-anchor="start" x="23" y="-86.7333" font-family="Times Roman,serif" font-size="14.00">[] messageid (Optional) </text>
</a>
</g>
<!-- Analyzer -->
<g id="node2" class="node"><title>Analyzer</title>
<a xlink:href="#" xlink:title="The Analyzer class identifies the analyzer from which the Alert or Heartbeat message originates. Only one analyzer may be encoded for each alert or heartbeat, and that MUST be the analyzer at which the alert or heartbeat originated. Although the IDMEF data model does not prevent the use of hierarchical intrusion detection systems (where alerts get relayed up the tree), it does not provide any way to record the identity of the &quot;relay&quot; analyzers along the path from the originating analyzer to the manager that ultimately receives the alert. ">
<polygon fill="#cecece" stroke="#cecece" points="282,-337 282,-358 476,-358 476,-337 282,-337"/>
<polygon fill="none" stroke="black" points="282,-337 282,-358 476,-358 476,-337 282,-337"/>
<text text-anchor="start" x="348" y="-344.233" font-family="Times Roman,serif" font-size="14.00">Analyzer</text>
</a>
<a xlink:href="#" xlink:title="(but see below). &#160;A unique identifier for the analyzer; see Section 3.2.9.">
<polygon fill="none" stroke="black" points="282,-317 282,-337 476,-337 476,-317 282,-317"/>
<text text-anchor="start" x="296" y="-323.733" font-family="Times Roman,serif" font-size="14.00">[] analyzerid (Optional) </text>
</a>
<a xlink:href="#" xlink:title="An explicit name for the analyzer that may be easier to understand than the analyzerid.">
<polygon fill="none" stroke="black" points="282,-297 282,-317 476,-317 476,-297 282,-297"/>
<text text-anchor="start" x="313" y="-303.733" font-family="Times Roman,serif" font-size="14.00">[] name (Optional) </text>
</a>
<a xlink:href="#" xlink:title="The manufacturer of the analyzer software and/or hardware.">
<polygon fill="none" stroke="black" points="282,-277 282,-297 476,-297 476,-277 282,-277"/>
<text text-anchor="start" x="285.5" y="-283.733" font-family="Times Roman,serif" font-size="14.00">[] manufacturer (Optional) </text>
</a>
<a xlink:href="#" xlink:title="The model name/number of the analyzer software and/or hardware.">
<polygon fill="none" stroke="black" points="282,-257 282,-277 476,-277 476,-257 282,-257"/>
<text text-anchor="start" x="311.5" y="-263.733" font-family="Times Roman,serif" font-size="14.00">[] model (Optional) </text>
</a>
<a xlink:href="#" xlink:title="The version number of the analyzer software and/or hardware.">
<polygon fill="none" stroke="black" points="282,-237 282,-257 476,-257 476,-237 282,-237"/>
<text text-anchor="start" x="307" y="-243.733" font-family="Times Roman,serif" font-size="14.00">[] version (Optional) </text>
</a>
<a xlink:href="#" xlink:title="The class of analyzer software and/or hardware.">
<polygon fill="none" stroke="black" points="282,-217 282,-237 476,-237 476,-217 282,-217"/>
<text text-anchor="start" x="316" y="-223.733" font-family="Times Roman,serif" font-size="14.00">[] class (Optional) </text>
</a>
<a xlink:href="#" xlink:title="Operating system name. &#160;On POSIX 1003.1 compliant systems, this is the value returned in utsname.sysname by the uname() system call, or the output of the &quot;uname &#45;s&quot; command.">
<polygon fill="none" stroke="black" points="282,-197 282,-217 476,-217 476,-197 282,-197"/>
<text text-anchor="start" x="309.5" y="-203.733" font-family="Times Roman,serif" font-size="14.00">[] ostype (Optional) </text>
</a>
<a xlink:href="#" xlink:title="Operating system version. &#160;On POSIX 1003.1 compliant systems, this is the value returned in utsname.release by the uname() system call, or the output of the &quot;uname &#45;r&quot; command.">
<polygon fill="none" stroke="black" points="282,-177 282,-197 476,-197 476,-177 282,-177"/>
<text text-anchor="start" x="299.5" y="-183.733" font-family="Times Roman,serif" font-size="14.00">[] osversion (Optional) </text>
</a>
</g>
<!-- Heartbeat&#45;&gt;Analyzer -->
<g id="edge10" class="edge"><title>Heartbeat&#45;&gt;Analyzer</title>
<path fill="none" stroke="black" d="M164.454,-145.067C193.909,-161.944 230.494,-182.907 265.063,-202.715"/>
<polygon fill="black" stroke="black" points="263.386,-205.788 273.802,-207.722 266.866,-199.714 263.386,-205.788"/>
<text text-anchor="middle" x="242" y="-199.4" font-family="Times Roman,serif" font-size="14.00">1</text>
</g>
<!-- CreateTime -->
<g id="node11" class="node"><title>CreateTime</title>
<a xlink:href="#" xlink:title="The CreateTime class is used to indicate the date and time the alert or heartbeat was created by the analyzer. ">
<polygon fill="#cecece" stroke="#cecece" points="336,-127 336,-148 423,-148 423,-127 336,-127"/>
<polygon fill="none" stroke="black" points="336,-127 336,-148 423,-148 423,-127 336,-127"/>
<text text-anchor="start" x="339.5" y="-134.233" font-family="Times Roman,serif" font-size="14.00">CreateTime</text>
</a>
</g>
<!-- Heartbeat&#45;&gt;CreateTime -->
<g id="edge12" class="edge"><title>Heartbeat&#45;&gt;CreateTime</title>
<path fill="none" stroke="black" d="M209.76,-121.323C246.022,-124.896 285.479,-128.784 317.166,-131.907"/>
<polygon fill="black" stroke="black" points="316.872,-135.395 327.167,-132.892 317.558,-128.428 316.872,-135.395"/>
<text text-anchor="middle" x="242" y="-130.4" font-family="Times Roman,serif" font-size="14.00">1</text>
</g>
<!-- AnalyzerTime -->
<g id="node13" class="node"><title>AnalyzerTime</title>
<a xlink:href="#" xlink:title="The AnalyzerTime class is used to indicate the current date and time on the analyzer. Its values should be filled in as late as possible in the message transmission process, ideally immediately before placing the message &quot;on the wire&quot;. ">
<polygon fill="#cecece" stroke="#cecece" points="328,-73 328,-94 430,-94 430,-73 328,-73"/>
<polygon fill="none" stroke="black" points="328,-73 328,-94 430,-94 430,-73 328,-73"/>
<text text-anchor="start" x="331.5" y="-80.2333" font-family="Times Roman,serif" font-size="14.00">AnalyzerTime</text>
</a>
</g>
<!-- Heartbeat&#45;&gt;AnalyzerTime -->
<g id="edge14" class="edge"><title>Heartbeat&#45;&gt;AnalyzerTime</title>
<path fill="none" stroke="black" d="M209.76,-100.677C243.287,-97.3732 279.543,-93.8005 309.866,-90.8125"/>
<polygon fill="black" stroke="black" points="310.301,-94.2867 319.909,-89.8228 309.614,-87.3204 310.301,-94.2867"/>
<text text-anchor="middle" x="242" y="-103.4" font-family="Times Roman,serif" font-size="14.00">0..1</text>
</g>
<!-- AdditionalData -->
<g id="node15" class="node"><title>AdditionalData</title>
<a xlink:href="#" xlink:title="The AdditionalData class is used to provide information that cannot be represented by the data model. AdditionalData can be used to provide atomic data (integers, strings, etc.) in cases where only small amounts of additional information need to be sent; it can also be used to extend the data model and the DTD to support the transmission of complex data (such as packet headers). Detailed instructions for extending the data model and the DTD are provided in Section 5. ">
<polygon fill="#cecece" stroke="#cecece" points="299,-23 299,-44 459,-44 459,-23 299,-23"/>
<polygon fill="none" stroke="black" points="299,-23 299,-44 459,-44 459,-23 299,-23"/>
<text text-anchor="start" x="327.5" y="-30.2333" font-family="Times Roman,serif" font-size="14.00">AdditionalData</text>
</a>
<a xlink:href="#" xlink:title="A string describing the meaning of the element content. These values will be vendor/implementation dependent; the method for ensuring that managers understand the strings sent by analyzers is outside the scope of this specification. &#160;A list of acceptable meaning keywords is not within the scope of the document, although later versions may undertake to establish such a list.">
<polygon fill="none" stroke="black" points="299,-3 299,-23 459,-23 459,-3 299,-3"/>
<text text-anchor="start" x="302.5" y="-9.73333" font-family="Times Roman,serif" font-size="14.00">[] meaning (Optional) </text>
</a>
</g>
<!-- Heartbeat&#45;&gt;AdditionalData -->
<g id="edge16" class="edge"><title>Heartbeat&#45;&gt;AdditionalData</title>
<path fill="none" stroke="black" d="M209.551,-77.5076C230.87,-70.7023 253.153,-63.6066 274,-57 280.037,-55.0869 286.27,-53.1161 292.548,-51.1346"/>
<polygon fill="black" stroke="black" points="293.944,-54.3644 302.428,-48.0188 291.839,-47.6885 293.944,-54.3644"/>
<text text-anchor="middle" x="242" y="-75.4" font-family="Times Roman,serif" font-size="14.00">0..*</text>
</g>
<!-- Analyzer&#45;&gt;Analyzer -->
<g id="edge8" class="edge"><title>Analyzer&#45;&gt;Analyzer</title>
<path fill="none" stroke="black" d="M357.391,-362.373C361.438,-373.068 368.641,-380 379,-380 386.122,-380 391.752,-376.724 395.891,-371.201"/>
<polygon fill="black" stroke="black" points="398.982,-372.842 400.609,-362.373 392.808,-369.542 398.982,-372.842"/>
<text text-anchor="middle" x="379" y="-384.4" font-family="Times Roman,serif" font-size="14.00">0..1</text>
</g>
<!-- Node -->
<g id="node3" class="node"><title>Node</title>
<a xlink:href="#" xlink:title="The Node class is used to identify hosts and other network devices (routers, switches, etc.). ">
<polygon fill="#cecece" stroke="#cecece" points="557,-370 557,-391 760,-391 760,-370 557,-370"/>
<polygon fill="none" stroke="black" points="557,-370 557,-391 760,-391 760,-370 557,-370"/>
<text text-anchor="start" x="640.5" y="-377.233" font-family="Times Roman,serif" font-size="14.00">Node</text>
</a>
<a xlink:href="#" xlink:title="The location of the equipment.">
<polygon fill="none" stroke="black" points="557,-350 557,-370 760,-370 760,-350 557,-350"/>
<text text-anchor="start" x="573.5" y="-356.733" font-family="Times Roman,serif" font-size="14.00">[STRING] location (0..1) </text>
</a>
<a xlink:href="#" xlink:title="The name of the equipment. &#160;This information MUST be provided if no Address information is given.">
<polygon fill="none" stroke="black" points="557,-330 557,-350 760,-350 760,-330 557,-330"/>
<text text-anchor="start" x="581.5" y="-336.733" font-family="Times Roman,serif" font-size="14.00">[STRING] name (0..1) </text>
</a>
<a xlink:href="#" xlink:title="A unique identifier for the node; see Section 3.2.9.">
<polygon fill="none" stroke="black" points="557,-310 557,-330 760,-330 760,-310 557,-310"/>
<text text-anchor="start" x="594" y="-316.733" font-family="Times Roman,serif" font-size="14.00">[] ident (Optional) </text>
</a>
<a xlink:href="#" xlink:title="The &quot;domain&quot; from which the name information was obtained, if relevant. &#160;The permitted values for this attribute are shown in the table below. &#160;The default value is &quot;unknown&quot;. (See also Section 10 for extensions to the table.)">
<polygon fill="none" stroke="black" points="557,-290 557,-310 760,-310 760,-290 557,-290"/>
<text text-anchor="start" x="560.5" y="-296.733" font-family="Times Roman,serif" font-size="14.00">[ENUM] category (Optional) </text>
</a>
</g>
<!-- Analyzer&#45;&gt;Node -->
<g id="edge4" class="edge"><title>Analyzer&#45;&gt;Node</title>
<path fill="none" stroke="black" d="M484.08,-295.494C501.888,-300.153 520.493,-305.022 538.635,-309.768"/>
<polygon fill="black" stroke="black" points="537.803,-313.168 548.364,-312.314 539.575,-306.396 537.803,-313.168"/>
<text text-anchor="middle" x="516" y="-311.4" font-family="Times Roman,serif" font-size="14.00">0..1</text>
</g>
<!-- Process -->
<g id="node7" class="node"><title>Process</title>
<a xlink:href="#" xlink:title="The Process class is used to describe processes being executed on sources, targets, and analyzers. ">
<polygon fill="#cecece" stroke="#cecece" points="581,-244 581,-265 736,-265 736,-244 581,-244"/>
<polygon fill="none" stroke="black" points="581,-244 581,-265 736,-265 736,-244 581,-244"/>
<text text-anchor="start" x="632.5" y="-251.233" font-family="Times Roman,serif" font-size="14.00">Process</text>
</a>
<a xlink:href="#" xlink:title="The name of the program being executed. This is a short name; path and argument information are provided elsewhere.">
<polygon fill="none" stroke="black" points="581,-224 581,-244 736,-244 736,-224 581,-224"/>
<text text-anchor="start" x="590.5" y="-230.733" font-family="Times Roman,serif" font-size="14.00">[STRING] name (1) </text>
</a>
<a xlink:href="#" xlink:title="The process identifier of the process.">
<polygon fill="none" stroke="black" points="581,-204 581,-224 736,-224 736,-204 581,-204"/>
<text text-anchor="start" x="586" y="-210.733" font-family="Times Roman,serif" font-size="14.00">[INTEGER] pid (0..1) </text>
</a>
<a xlink:href="#" xlink:title="The full path of the program being executed.">
<polygon fill="none" stroke="black" points="581,-184 581,-204 736,-204 736,-184 581,-184"/>
<text text-anchor="start" x="584.5" y="-190.733" font-family="Times Roman,serif" font-size="14.00">[STRING] path (0..1) </text>
</a>
<a xlink:href="#" xlink:title="A command&#45;line argument to the program. Multiple arguments may be specified (they are assumed to have occurred in the same order they are provided) with multiple uses of arg.">
<polygon fill="none" stroke="black" points="581,-164 581,-184 736,-184 736,-164 581,-164"/>
<text text-anchor="start" x="590" y="-170.733" font-family="Times Roman,serif" font-size="14.00">[STRING] arg (0..*) </text>
</a>
<a xlink:href="#" xlink:title="An environment string associated with the process; generally of the format &quot;VARIABLE=value&quot;. &#160;Multiple environment strings may be specified with multiple uses of env.">
<polygon fill="none" stroke="black" points="581,-144 581,-164 736,-164 736,-144 581,-144"/>
<text text-anchor="start" x="588.5" y="-150.733" font-family="Times Roman,serif" font-size="14.00">[STRING] env (0..*) </text>
</a>
<a xlink:href="#" xlink:title="A unique identifier for the process; see Section 3.2.9.">
<polygon fill="none" stroke="black" points="581,-124 581,-144 736,-144 736,-124 581,-124"/>
<text text-anchor="start" x="594" y="-130.733" font-family="Times Roman,serif" font-size="14.00">[] ident (Optional) </text>
</a>
</g>
<!-- Analyzer&#45;&gt;Process -->
<g id="edge6" class="edge"><title>Analyzer&#45;&gt;Process</title>
<path fill="none" stroke="black" d="M484.08,-240.506C509.717,-233.798 537.009,-226.657 562.188,-220.069"/>
<polygon fill="black" stroke="black" points="563.306,-223.394 572.095,-217.477 561.534,-216.622 563.306,-223.394"/>
<text text-anchor="middle" x="516" y="-238.4" font-family="Times Roman,serif" font-size="14.00">0..1</text>
</g>
<!-- Address -->
<g id="node4" class="node"><title>Address</title>
<a xlink:href="#" xlink:title="The Address class is used to represent network, hardware, and application addresses. ">
<polygon fill="#cecece" stroke="#cecece" points="839,-390 839,-411 1042,-411 1042,-390 839,-390"/>
<polygon fill="none" stroke="black" points="839,-390 839,-411 1042,-411 1042,-390 839,-390"/>
<text text-anchor="start" x="913" y="-397.233" font-family="Times Roman,serif" font-size="14.00">Address</text>
</a>
<a xlink:href="#" xlink:title="The address information. &#160;The format of this data is governed by the category attribute.">
<polygon fill="none" stroke="black" points="839,-370 839,-390 1042,-390 1042,-370 839,-370"/>
<text text-anchor="start" x="865" y="-376.733" font-family="Times Roman,serif" font-size="14.00">[STRING] address (1) </text>
</a>
<a xlink:href="#" xlink:title="The network mask for the address, if appropriate.">
<polygon fill="none" stroke="black" points="839,-350 839,-370 1042,-370 1042,-350 839,-350"/>
<text text-anchor="start" x="853" y="-356.733" font-family="Times Roman,serif" font-size="14.00">[STRING] netmask (0..1) </text>
</a>
<a xlink:href="#" xlink:title="A unique identifier for the address; see Section 3.2.9.">
<polygon fill="none" stroke="black" points="839,-330 839,-350 1042,-350 1042,-330 839,-330"/>
<text text-anchor="start" x="876" y="-336.733" font-family="Times Roman,serif" font-size="14.00">[] ident (Optional) </text>
</a>
<a xlink:href="#" xlink:title="The type of address represented. &#160;The permitted values for this attribute are shown below. &#160;The default value is &quot;unknown&quot;. &#160;(See also Section 10.)">
<polygon fill="none" stroke="black" points="839,-310 839,-330 1042,-330 1042,-310 839,-310"/>
<text text-anchor="start" x="842.5" y="-316.733" font-family="Times Roman,serif" font-size="14.00">[ENUM] category (Optional) </text>
</a>
<a xlink:href="#" xlink:title="The name of the Virtual LAN to which the address belongs.">
<polygon fill="none" stroke="black" points="839,-290 839,-310 1042,-310 1042,-290 839,-290"/>
<text text-anchor="start" x="857.5" y="-296.733" font-family="Times Roman,serif" font-size="14.00">[] vlan&#45;name (Optional) </text>
</a>
<a xlink:href="#" xlink:title="The number of the Virtual LAN to which the address belongs.">
<polygon fill="none" stroke="black" points="839,-270 839,-290 1042,-290 1042,-270 839,-270"/>
<text text-anchor="start" x="861" y="-276.733" font-family="Times Roman,serif" font-size="14.00">[] vlan&#45;num (Optional) </text>
</a>
</g>
<!-- Node&#45;&gt;Address -->
<g id="edge2" class="edge"><title>Node&#45;&gt;Address</title>
<path fill="none" stroke="black" d="M767.836,-341C785.03,-341 802.875,-341 820.277,-341"/>
<polygon fill="black" stroke="black" points="820.464,-344.5 830.464,-341 820.464,-337.5 820.464,-344.5"/>
<text text-anchor="middle" x="799" y="-345.4" font-family="Times Roman,serif" font-size="14.00">0..*</text>
</g>
</g>
</svg>
