<?xml version="1.0" encoding="UTF-8" standalone="no"?>
<!DOCTYPE svg PUBLIC "-//W3C//DTD SVG 1.1//EN"
 "http://www.w3.org/Graphics/SVG/1.1/DTD/svg11.dtd">
<!-- Generated by graphviz version 2.26.3 (20100126.1600)
 -->
<!-- Title: Process Pages: 1 -->
<svg width="180pt" height="156pt"
 viewBox="0.00 0.00 180.00 156.00" xmlns="http://www.w3.org/2000/svg" xmlns:xlink="http://www.w3.org/1999/xlink">
<g id="graph1" class="graph" transform="scale(1 1) rotate(0) translate(4 152)">
<title>Process</title>
<polygon fill="white" stroke="white" points="-4,5 -4,-152 177,-152 177,5 -4,5"/>
<!-- Process -->
<g id="node1" class="node"><title>Process</title>
<a xlink:href="#" xlink:title="The Process class is used to describe processes being executed on sources, targets, and analyzers. ">
<polygon fill="#997a3d" stroke="#997a3d" points="9,-123 9,-144 164,-144 164,-123 9,-123"/>
<polygon fill="none" stroke="black" points="9,-123 9,-144 164,-144 164,-123 9,-123"/>
<text text-anchor="start" x="60.5" y="-130.233" font-family="Times Roman,serif" font-size="14.00">Process</text>
</a>
<a xlink:href="#" xlink:title="The name of the program being executed. This is a short name; path and argument information are provided elsewhere.">
<polygon fill="#ffcc66" stroke="#ffcc66" points="9,-103 9,-123 164,-123 164,-103 9,-103"/>
<polygon fill="none" stroke="black" points="9,-103 9,-123 164,-123 164,-103 9,-103"/>
<text text-anchor="start" x="18.5" y="-109.733" font-family="Times Roman,serif" font-size="14.00">[STRING] name (1) </text>
</a>
<a xlink:href="#" xlink:title="The process identifier of the process.">
<polygon fill="#ffcc66" stroke="#ffcc66" points="9,-83 9,-103 164,-103 164,-83 9,-83"/>
<polygon fill="none" stroke="black" points="9,-83 9,-103 164,-103 164,-83 9,-83"/>
<text text-anchor="start" x="14" y="-89.7333" font-family="Times Roman,serif" font-size="14.00">[INTEGER] pid (0..1) </text>
</a>
<a xlink:href="#" xlink:title="The full path of the program being executed.">
<polygon fill="#ffcc66" stroke="#ffcc66" points="9,-63 9,-83 164,-83 164,-63 9,-63"/>
<polygon fill="none" stroke="black" points="9,-63 9,-83 164,-83 164,-63 9,-63"/>
<text text-anchor="start" x="12.5" y="-69.7333" font-family="Times Roman,serif" font-size="14.00">[STRING] path (0..1) </text>
</a>
<a xlink:href="#" xlink:title="A command&#45;line argument to the program. Multiple arguments may be specified (they are assumed to have occurred in the same order they are provided) with multiple uses of arg.">
<polygon fill="#ffcc66" stroke="#ffcc66" points="9,-43 9,-63 164,-63 164,-43 9,-43"/>
<polygon fill="none" stroke="black" points="9,-43 9,-63 164,-63 164,-43 9,-43"/>
<text text-anchor="start" x="18" y="-49.7333" font-family="Times Roman,serif" font-size="14.00">[STRING] arg (0..*) </text>
</a>
<a xlink:href="#" xlink:title="An environment string associated with the process; generally of the format &quot;VARIABLE=value&quot;. &#160;Multiple environment strings may be specified with multiple uses of env.">
<polygon fill="#ffcc66" stroke="#ffcc66" points="9,-23 9,-43 164,-43 164,-23 9,-23"/>
<polygon fill="none" stroke="black" points="9,-23 9,-43 164,-43 164,-23 9,-23"/>
<text text-anchor="start" x="16.5" y="-29.7333" font-family="Times Roman,serif" font-size="14.00">[STRING] env (0..*) </text>
</a>
<a xlink:href="#" xlink:title="A unique identifier for the process; see Section 3.2.9.">
<polygon fill="#ffcc66" stroke="#ffcc66" points="9,-3 9,-23 164,-23 164,-3 9,-3"/>
<polygon fill="none" stroke="black" points="9,-3 9,-23 164,-23 164,-3 9,-3"/>
<text text-anchor="start" x="22" y="-9.73333" font-family="Times Roman,serif" font-size="14.00">[] ident (Optional) </text>
</a>
</g>
</g>
</svg>
