<?xml version="1.0" encoding="UTF-8" standalone="no"?>
<!DOCTYPE svg PUBLIC "-//W3C//DTD SVG 1.1//EN"
 "http://www.w3.org/Graphics/SVG/1.1/DTD/svg11.dtd">
<!-- Generated by graphviz version 2.40.1 (0)
 -->
<!-- Title: Process Pages: 1 -->
<svg width="195pt" height="163pt"
 viewBox="0.00 0.00 195.00 163.00" xmlns="http://www.w3.org/2000/svg" xmlns:xlink="http://www.w3.org/1999/xlink">
<g id="graph0" class="graph" transform="scale(1 1) rotate(0) translate(4 159)">
<title>Process</title>
<polygon fill="#ffffff" stroke="transparent" points="-4,4 -4,-159 191,-159 191,4 -4,4"/>
<!-- Process -->
<g id="node1" class="node">
<title>Process</title>
<g id="a_node1_0"><a xlink:href="#" xlink:title="The Process class is used to describe processes being executed on sources, targets, and analyzers. ">
<polygon fill="#cca352" stroke="transparent" points="8.5,-129.5 8.5,-150.5 179.5,-150.5 179.5,-129.5 8.5,-129.5"/>
<polygon fill="none" stroke="#000000" points="8.5,-129.5 8.5,-150.5 179.5,-150.5 179.5,-129.5 8.5,-129.5"/>
<text text-anchor="start" x="69.5" y="-136.3" font-family="Nimbus Sans L" font-size="14.00" fill="#000000">Process</text>
</a>
</g>
<g id="a_node1_1"><a xlink:href="#" xlink:title="The name of the program being executed. This is a short name; path and argument information are provided elsewhere.">
<polygon fill="#ffcc66" stroke="transparent" points="8.5,-108.5 8.5,-129.5 179.5,-129.5 179.5,-108.5 8.5,-108.5"/>
<polygon fill="none" stroke="#000000" points="8.5,-108.5 8.5,-129.5 179.5,-129.5 179.5,-108.5 8.5,-108.5"/>
<text text-anchor="start" x="11.5" y="-115.3" font-family="Nimbus Sans L" font-size="14.00" fill="#000000">[STRING] name (Required)</text>
</a>
</g>
<g id="a_node1_2"><a xlink:href="#" xlink:title="The process identifier of the process.">
<polygon fill="#ffcc66" stroke="transparent" points="8.5,-87.5 8.5,-108.5 179.5,-108.5 179.5,-87.5 8.5,-87.5"/>
<polygon fill="none" stroke="#000000" points="8.5,-87.5 8.5,-108.5 179.5,-108.5 179.5,-87.5 8.5,-87.5"/>
<text text-anchor="start" x="17" y="-94.3" font-family="Nimbus Sans L" font-size="14.00" fill="#000000">[INTEGER] pid (Optional)</text>
</a>
</g>
<g id="a_node1_3"><a xlink:href="#" xlink:title="The full path of the program being executed.">
<polygon fill="#ffcc66" stroke="transparent" points="8.5,-66.5 8.5,-87.5 179.5,-87.5 179.5,-66.5 8.5,-66.5"/>
<polygon fill="none" stroke="#000000" points="8.5,-66.5 8.5,-87.5 179.5,-87.5 179.5,-66.5 8.5,-66.5"/>
<text text-anchor="start" x="17.5" y="-73.3" font-family="Nimbus Sans L" font-size="14.00" fill="#000000">[STRING] path (Optional)</text>
</a>
</g>
<g id="a_node1_4"><a xlink:href="#" xlink:title="A command&#45;line argument to the program. Multiple arguments may be specified (they are assumed to have occurred in the same order they are provided) with multiple uses of arg.">
<polygon fill="#ffcc66" stroke="transparent" points="8.5,-45.5 8.5,-66.5 179.5,-66.5 179.5,-45.5 8.5,-45.5"/>
<polygon fill="none" stroke="#000000" points="8.5,-45.5 8.5,-66.5 179.5,-66.5 179.5,-45.5 8.5,-45.5"/>
<text text-anchor="start" x="21" y="-52.3" font-family="Nimbus Sans L" font-size="14.00" fill="#000000">[STRING] arg (Optional)</text>
</a>
</g>
<g id="a_node1_5"><a xlink:href="#" xlink:title="An environment string associated with the process; generally of the format &quot;VARIABLE=value&quot;. &#160;Multiple environment strings may be specified with multiple uses of env.">
<polygon fill="#ffcc66" stroke="transparent" points="8.5,-24.5 8.5,-45.5 179.5,-45.5 179.5,-24.5 8.5,-24.5"/>
<polygon fill="none" stroke="#000000" points="8.5,-24.5 8.5,-45.5 179.5,-45.5 179.5,-24.5 8.5,-24.5"/>
<text text-anchor="start" x="20" y="-31.3" font-family="Nimbus Sans L" font-size="14.00" fill="#000000">[STRING] env (Optional)</text>
</a>
</g>
<g id="a_node1_6"><a xlink:href="#" xlink:title="A unique identifier for the process; see Section 3.2.9.">
<polygon fill="#ffcc66" stroke="transparent" points="8.5,-3.5 8.5,-24.5 179.5,-24.5 179.5,-3.5 8.5,-3.5"/>
<polygon fill="none" stroke="#000000" points="8.5,-3.5 8.5,-24.5 179.5,-24.5 179.5,-3.5 8.5,-3.5"/>
<text text-anchor="start" x="16" y="-10.3" font-family="Nimbus Sans L" font-size="14.00" fill="#000000">[STRING] ident (Optional)</text>
</a>
</g>
</g>
</g>
</svg>
