<?xml version="1.0" encoding="UTF-8" standalone="no"?>
<!DOCTYPE svg PUBLIC "-//W3C//DTD SVG 1.1//EN"
 "http://www.w3.org/Graphics/SVG/1.1/DTD/svg11.dtd">
<!-- Generated by graphviz version 2.40.1 (0)
 -->
<!-- Title: Source Pages: 1 -->
<svg width="937pt" height="737pt"
 viewBox="0.00 0.00 937.00 737.00" xmlns="http://www.w3.org/2000/svg" xmlns:xlink="http://www.w3.org/1999/xlink">
<g id="graph0" class="graph" transform="scale(1 1) rotate(0) translate(4 733)">
<title>Source</title>
<polygon fill="#ffffff" stroke="transparent" points="-4,4 -4,-733 933,-733 933,4 -4,4"/>
<!-- Source -->
<g id="node1" class="node">
<title>Source</title>
<g id="a_node1_0"><a xlink:href="#" xlink:title="The Source class contains information about the possible source(s) of the event(s) that generated an alert. An event may have more than one source (e.g., in a distributed denial&#45;of&#45;service attack). ">
<polygon fill="#65779e" stroke="transparent" points="8,-413.5 8,-434.5 192,-434.5 192,-413.5 8,-413.5"/>
<polygon fill="none" stroke="#000000" points="8,-413.5 8,-434.5 192,-434.5 192,-413.5 8,-413.5"/>
<text text-anchor="start" x="78.5" y="-420.3" font-family="Nimbus Sans L" font-size="14.00" fill="#000000">Source</text>
</a>
</g>
<g id="a_node1_1"><a xlink:href="#" xlink:title="A unique identifier for this source; see Section 3.2.9.">
<polygon fill="#7e95c5" stroke="transparent" points="8,-392.5 8,-413.5 192,-413.5 192,-392.5 8,-392.5"/>
<polygon fill="none" stroke="#000000" points="8,-392.5 8,-413.5 192,-413.5 192,-392.5 8,-392.5"/>
<text text-anchor="start" x="22" y="-399.3" font-family="Nimbus Sans L" font-size="14.00" fill="#000000">[STRING] ident (Optional)</text>
</a>
</g>
<g id="a_node1_2"><a xlink:href="#" xlink:title="An indication of whether the source is, as far as the analyzer can determine, a spoofed address used for hiding the real origin of the attack. &#160;The permitted values for this attribute are shown below. &#160;The default value is &quot;unknown&quot;. &#160;(See also Section 10.)">
<polygon fill="#7e95c5" stroke="transparent" points="8,-371.5 8,-392.5 192,-392.5 192,-371.5 8,-371.5"/>
<polygon fill="none" stroke="#000000" points="8,-371.5 8,-392.5 192,-392.5 192,-371.5 8,-371.5"/>
<text text-anchor="start" x="18" y="-378.3" font-family="Nimbus Sans L" font-size="14.00" fill="#000000">[ENUM] spoofed (Optional)</text>
</a>
</g>
<g id="a_node1_3"><a xlink:href="#" xlink:title="May be used by a network&#45;based analyzer with multiple interfaces to indicate which interface this source was seen on.">
<polygon fill="#7e95c5" stroke="transparent" points="8,-350.5 8,-371.5 192,-371.5 192,-350.5 8,-350.5"/>
<polygon fill="none" stroke="#000000" points="8,-350.5 8,-371.5 192,-371.5 192,-350.5 8,-350.5"/>
<text text-anchor="start" x="11" y="-357.3" font-family="Nimbus Sans L" font-size="14.00" fill="#000000">[STRING] interface (Optional)</text>
</a>
</g>
</g>
<!-- Node -->
<g id="node2" class="node">
<title>Node</title>
<g id="a_node2_4"><a xlink:href="#" xlink:title="The Node class is used to identify hosts and other network devices (routers, switches, etc.). ">
<polygon fill="#3daf3d" stroke="transparent" points="316.5,-666.5 316.5,-687.5 495.5,-687.5 495.5,-666.5 316.5,-666.5"/>
<polygon fill="none" stroke="#000000" points="316.5,-666.5 316.5,-687.5 495.5,-687.5 495.5,-666.5 316.5,-666.5"/>
<text text-anchor="start" x="389.5" y="-673.3" font-family="Nimbus Sans L" font-size="14.00" fill="#000000">Node</text>
</a>
</g>
<g id="a_node2_5"><a xlink:href="#" xlink:title="The location of the equipment.">
<polygon fill="#4cdb4c" stroke="transparent" points="316.5,-645.5 316.5,-666.5 495.5,-666.5 495.5,-645.5 316.5,-645.5"/>
<polygon fill="none" stroke="#000000" points="316.5,-645.5 316.5,-666.5 495.5,-666.5 495.5,-645.5 316.5,-645.5"/>
<text text-anchor="start" x="319.5" y="-652.3" font-family="Nimbus Sans L" font-size="14.00" fill="#000000">[STRING] location (Optional)</text>
</a>
</g>
<g id="a_node2_6"><a xlink:href="#" xlink:title="The name of the equipment. &#160;This information MUST be provided if no Address information is given.">
<polygon fill="#4cdb4c" stroke="transparent" points="316.5,-624.5 316.5,-645.5 495.5,-645.5 495.5,-624.5 316.5,-624.5"/>
<polygon fill="none" stroke="#000000" points="316.5,-624.5 316.5,-645.5 495.5,-645.5 495.5,-624.5 316.5,-624.5"/>
<text text-anchor="start" x="325.5" y="-631.3" font-family="Nimbus Sans L" font-size="14.00" fill="#000000">[STRING] name (Optional)</text>
</a>
</g>
<g id="a_node2_7"><a xlink:href="#" xlink:title="A unique identifier for the node; see Section 3.2.9.">
<polygon fill="#4cdb4c" stroke="transparent" points="316.5,-603.5 316.5,-624.5 495.5,-624.5 495.5,-603.5 316.5,-603.5"/>
<polygon fill="none" stroke="#000000" points="316.5,-603.5 316.5,-624.5 495.5,-624.5 495.5,-603.5 316.5,-603.5"/>
<text text-anchor="start" x="328" y="-610.3" font-family="Nimbus Sans L" font-size="14.00" fill="#000000">[STRING] ident (Optional)</text>
</a>
</g>
<g id="a_node2_8"><a xlink:href="#" xlink:title="The &quot;domain&quot; from which the name information was obtained, if relevant. &#160;The permitted values for this attribute are shown in the table below. &#160;The default value is &quot;unknown&quot;. (See also Section 10 for extensions to the table.)">
<polygon fill="#4cdb4c" stroke="transparent" points="316.5,-582.5 316.5,-603.5 495.5,-603.5 495.5,-582.5 316.5,-582.5"/>
<polygon fill="none" stroke="#000000" points="316.5,-582.5 316.5,-603.5 495.5,-603.5 495.5,-582.5 316.5,-582.5"/>
<text text-anchor="start" x="322" y="-589.3" font-family="Nimbus Sans L" font-size="14.00" fill="#000000">[ENUM] category (Optional)</text>
</a>
</g>
</g>
<!-- Source&#45;&gt;Node -->
<g id="edge2" class="edge">
<title>Source&#45;&gt;Node</title>
<path fill="none" stroke="#000000" d="M140.8428,-438.5607C171.4803,-471.6244 215.4657,-516.0638 259,-549.5 271.5904,-559.1699 285.3631,-568.5756 299.2644,-577.4005"/>
<polygon fill="#000000" stroke="#000000" points="297.5926,-580.4831 307.927,-582.8174 301.3039,-574.5479 297.5926,-580.4831"/>
<text text-anchor="middle" x="229.5" y="-537.3" font-family="Times,serif" font-size="14.00" fill="#000000">0..1</text>
</g>
<!-- User -->
<g id="node4" class="node">
<title>User</title>
<g id="a_node4_9"><a xlink:href="#" xlink:title="The User class is used to describe users. It is primarily used as a &quot;container&quot; class for the UserId aggregate class, as shown in Figure 16. ">
<polygon fill="#52a3cc" stroke="transparent" points="318.5,-514.5 318.5,-535.5 492.5,-535.5 492.5,-514.5 318.5,-514.5"/>
<polygon fill="none" stroke="#000000" points="318.5,-514.5 318.5,-535.5 492.5,-535.5 492.5,-514.5 318.5,-514.5"/>
<text text-anchor="start" x="391" y="-521.3" font-family="Nimbus Sans L" font-size="14.00" fill="#000000">User</text>
</a>
</g>
<g id="a_node4_10"><a xlink:href="#" xlink:title="A unique identifier for the user; see Section 3.2.9.">
<polygon fill="#66ccff" stroke="transparent" points="318.5,-493.5 318.5,-514.5 492.5,-514.5 492.5,-493.5 318.5,-493.5"/>
<polygon fill="none" stroke="#000000" points="318.5,-493.5 318.5,-514.5 492.5,-514.5 492.5,-493.5 318.5,-493.5"/>
<text text-anchor="start" x="327.5" y="-500.3" font-family="Nimbus Sans L" font-size="14.00" fill="#000000">[STRING] ident (Optional)</text>
</a>
</g>
<g id="a_node4_11"><a xlink:href="#" xlink:title="The type of user represented. &#160;The permitted values for this attribute are shown below. &#160;The default value is &quot;unknown&quot;. (See also Section 10.)">
<polygon fill="#66ccff" stroke="transparent" points="318.5,-472.5 318.5,-493.5 492.5,-493.5 492.5,-472.5 318.5,-472.5"/>
<polygon fill="none" stroke="#000000" points="318.5,-472.5 318.5,-493.5 492.5,-493.5 492.5,-472.5 318.5,-472.5"/>
<text text-anchor="start" x="321.5" y="-479.3" font-family="Nimbus Sans L" font-size="14.00" fill="#000000">[ENUM] category (Optional)</text>
</a>
</g>
</g>
<!-- Source&#45;&gt;User -->
<g id="edge4" class="edge">
<title>Source&#45;&gt;User</title>
<path fill="none" stroke="#000000" d="M200.2532,-437.3928C219.5933,-445.478 239.808,-453.5389 259,-460.5 272.3875,-465.3557 286.5946,-470.1079 300.6905,-474.5867"/>
<polygon fill="#000000" stroke="#000000" points="299.8307,-477.9852 310.42,-477.6417 301.9278,-471.3067 299.8307,-477.9852"/>
<text text-anchor="middle" x="229.5" y="-455.3" font-family="Times,serif" font-size="14.00" fill="#000000">0..1</text>
</g>
<!-- Process -->
<g id="node6" class="node">
<title>Process</title>
<g id="a_node6_12"><a xlink:href="#" xlink:title="The Process class is used to describe processes being executed on sources, targets, and analyzers. ">
<polygon fill="#cca352" stroke="transparent" points="320.5,-425.5 320.5,-446.5 491.5,-446.5 491.5,-425.5 320.5,-425.5"/>
<polygon fill="none" stroke="#000000" points="320.5,-425.5 320.5,-446.5 491.5,-446.5 491.5,-425.5 320.5,-425.5"/>
<text text-anchor="start" x="381.5" y="-432.3" font-family="Nimbus Sans L" font-size="14.00" fill="#000000">Process</text>
</a>
</g>
<g id="a_node6_13"><a xlink:href="#" xlink:title="The name of the program being executed. This is a short name; path and argument information are provided elsewhere.">
<polygon fill="#ffcc66" stroke="transparent" points="320.5,-404.5 320.5,-425.5 491.5,-425.5 491.5,-404.5 320.5,-404.5"/>
<polygon fill="none" stroke="#000000" points="320.5,-404.5 320.5,-425.5 491.5,-425.5 491.5,-404.5 320.5,-404.5"/>
<text text-anchor="start" x="323.5" y="-411.3" font-family="Nimbus Sans L" font-size="14.00" fill="#000000">[STRING] name (Required)</text>
</a>
</g>
<g id="a_node6_14"><a xlink:href="#" xlink:title="The process identifier of the process.">
<polygon fill="#ffcc66" stroke="transparent" points="320.5,-383.5 320.5,-404.5 491.5,-404.5 491.5,-383.5 320.5,-383.5"/>
<polygon fill="none" stroke="#000000" points="320.5,-383.5 320.5,-404.5 491.5,-404.5 491.5,-383.5 320.5,-383.5"/>
<text text-anchor="start" x="329" y="-390.3" font-family="Nimbus Sans L" font-size="14.00" fill="#000000">[INTEGER] pid (Optional)</text>
</a>
</g>
<g id="a_node6_15"><a xlink:href="#" xlink:title="The full path of the program being executed.">
<polygon fill="#ffcc66" stroke="transparent" points="320.5,-362.5 320.5,-383.5 491.5,-383.5 491.5,-362.5 320.5,-362.5"/>
<polygon fill="none" stroke="#000000" points="320.5,-362.5 320.5,-383.5 491.5,-383.5 491.5,-362.5 320.5,-362.5"/>
<text text-anchor="start" x="329.5" y="-369.3" font-family="Nimbus Sans L" font-size="14.00" fill="#000000">[STRING] path (Optional)</text>
</a>
</g>
<g id="a_node6_16"><a xlink:href="#" xlink:title="A command&#45;line argument to the program. Multiple arguments may be specified (they are assumed to have occurred in the same order they are provided) with multiple uses of arg.">
<polygon fill="#ffcc66" stroke="transparent" points="320.5,-341.5 320.5,-362.5 491.5,-362.5 491.5,-341.5 320.5,-341.5"/>
<polygon fill="none" stroke="#000000" points="320.5,-341.5 320.5,-362.5 491.5,-362.5 491.5,-341.5 320.5,-341.5"/>
<text text-anchor="start" x="333" y="-348.3" font-family="Nimbus Sans L" font-size="14.00" fill="#000000">[STRING] arg (Optional)</text>
</a>
</g>
<g id="a_node6_17"><a xlink:href="#" xlink:title="An environment string associated with the process; generally of the format &quot;VARIABLE=value&quot;. &#160;Multiple environment strings may be specified with multiple uses of env.">
<polygon fill="#ffcc66" stroke="transparent" points="320.5,-320.5 320.5,-341.5 491.5,-341.5 491.5,-320.5 320.5,-320.5"/>
<polygon fill="none" stroke="#000000" points="320.5,-320.5 320.5,-341.5 491.5,-341.5 491.5,-320.5 320.5,-320.5"/>
<text text-anchor="start" x="332" y="-327.3" font-family="Nimbus Sans L" font-size="14.00" fill="#000000">[STRING] env (Optional)</text>
</a>
</g>
<g id="a_node6_18"><a xlink:href="#" xlink:title="A unique identifier for the process; see Section 3.2.9.">
<polygon fill="#ffcc66" stroke="transparent" points="320.5,-299.5 320.5,-320.5 491.5,-320.5 491.5,-299.5 320.5,-299.5"/>
<polygon fill="none" stroke="#000000" points="320.5,-299.5 320.5,-320.5 491.5,-320.5 491.5,-299.5 320.5,-299.5"/>
<text text-anchor="start" x="328" y="-306.3" font-family="Nimbus Sans L" font-size="14.00" fill="#000000">[STRING] ident (Optional)</text>
</a>
</g>
</g>
<!-- Source&#45;&gt;Process -->
<g id="edge5" class="edge">
<title>Source&#45;&gt;Process</title>
<path fill="none" stroke="#000000" d="M200.0321,-386.2787C232.6766,-384.2484 268.9826,-381.9904 301.8846,-379.9442"/>
<polygon fill="#000000" stroke="#000000" points="302.215,-383.4305 311.9784,-379.3164 301.7804,-376.444 302.215,-383.4305"/>
<text text-anchor="middle" x="229.5" y="-388.3" font-family="Times,serif" font-size="14.00" fill="#000000">0..1</text>
</g>
<!-- Service -->
<g id="node7" class="node">
<title>Service</title>
<g id="a_node7_19"><a xlink:href="#" xlink:title="The Service class describes network services on sources and targets. It can identify services by name, port, and protocol. When Service occurs as an aggregate class of Source, it is understood that the service is one from which activity of interest is originating; and that the service is &quot;attached&quot; to the Node, Process, and User information also contained in Source. Likewise, when Service occurs as an aggregate class of Target, it is understood that the service is one to which activity of interest is being directed; and that the service is &quot;attached&quot; to the Node, Process, and User information also contained in Target. If Service occurs in both Source and Target, then information in both locations should be the same. If information is the same in both locations and implementers wish to carry it in only one location, they should specify it as an aggregate of the Target class. ">
<polygon fill="#cca3a3" stroke="transparent" points="267.5,-252.5 267.5,-273.5 544.5,-273.5 544.5,-252.5 267.5,-252.5"/>
<polygon fill="none" stroke="#000000" points="267.5,-252.5 267.5,-273.5 544.5,-273.5 544.5,-252.5 267.5,-252.5"/>
<text text-anchor="start" x="383" y="-259.3" font-family="Nimbus Sans L" font-size="14.00" fill="#000000">Service</text>
</a>
</g>
<g id="a_node7_20"><a xlink:href="#" xlink:title="The name of the service. &#160;Whenever possible, the name from the IANA list of well&#45;known ports SHOULD be used.">
<polygon fill="#ffcccc" stroke="transparent" points="267.5,-231.5 267.5,-252.5 544.5,-252.5 544.5,-231.5 267.5,-231.5"/>
<polygon fill="none" stroke="#000000" points="267.5,-231.5 267.5,-252.5 544.5,-252.5 544.5,-231.5 267.5,-231.5"/>
<text text-anchor="start" x="325.5" y="-238.3" font-family="Nimbus Sans L" font-size="14.00" fill="#000000">[STRING] name (Optional)</text>
</a>
</g>
<g id="a_node7_21"><a xlink:href="#" xlink:title="The port number being used.">
<polygon fill="#ffcccc" stroke="transparent" points="267.5,-210.5 267.5,-231.5 544.5,-231.5 544.5,-210.5 267.5,-210.5"/>
<polygon fill="none" stroke="#000000" points="267.5,-210.5 267.5,-231.5 544.5,-231.5 544.5,-210.5 267.5,-210.5"/>
<text text-anchor="start" x="326" y="-217.3" font-family="Nimbus Sans L" font-size="14.00" fill="#000000">[INTEGER] port (Optional)</text>
</a>
</g>
<g id="a_node7_22"><a xlink:href="#" xlink:title="A list of port numbers being used; see Section 3.2.8 for formatting rules. &#160;If a portlist is given, the iana_protocol_number and iana_protocol_name MUST apply to all the elements of the list.">
<polygon fill="#ffcccc" stroke="transparent" points="267.5,-189.5 267.5,-210.5 544.5,-210.5 544.5,-189.5 267.5,-189.5"/>
<polygon fill="none" stroke="#000000" points="267.5,-189.5 267.5,-210.5 544.5,-210.5 544.5,-189.5 267.5,-189.5"/>
<text text-anchor="start" x="315" y="-196.3" font-family="Nimbus Sans L" font-size="14.00" fill="#000000">[PORTLIST] portlist (Optional)</text>
</a>
</g>
<g id="a_node7_23"><a xlink:href="#" xlink:title="Additional information about the protocol being used. &#160;The intent of the protocol field is to carry additional information related to the protocol being used when the &lt;Service&gt; attributes iana_protocol_number or/and iana_protocol_name are filed.">
<polygon fill="#ffcccc" stroke="transparent" points="267.5,-168.5 267.5,-189.5 544.5,-189.5 544.5,-168.5 267.5,-168.5"/>
<polygon fill="none" stroke="#000000" points="267.5,-168.5 267.5,-189.5 544.5,-189.5 544.5,-168.5 267.5,-168.5"/>
<text text-anchor="start" x="318.5" y="-175.3" font-family="Nimbus Sans L" font-size="14.00" fill="#000000">[STRING] protocol (Optional)</text>
</a>
</g>
<g id="a_node7_24"><a xlink:href="#" xlink:title="A unique identifier for the service; see Section 3.2.9.">
<polygon fill="#ffcccc" stroke="transparent" points="267.5,-147.5 267.5,-168.5 544.5,-168.5 544.5,-147.5 267.5,-147.5"/>
<polygon fill="none" stroke="#000000" points="267.5,-147.5 267.5,-168.5 544.5,-168.5 544.5,-147.5 267.5,-147.5"/>
<text text-anchor="start" x="328" y="-154.3" font-family="Nimbus Sans L" font-size="14.00" fill="#000000">[STRING] ident (Optional)</text>
</a>
</g>
<g id="a_node7_25"><a xlink:href="#" xlink:title="The IP version number.">
<polygon fill="#ffcccc" stroke="transparent" points="267.5,-126.5 267.5,-147.5 544.5,-147.5 544.5,-126.5 267.5,-126.5"/>
<polygon fill="none" stroke="#000000" points="267.5,-126.5 267.5,-147.5 544.5,-147.5 544.5,-126.5 267.5,-126.5"/>
<text text-anchor="start" x="307" y="-133.3" font-family="Nimbus Sans L" font-size="14.00" fill="#000000">[INTEGER] ip_version (Optional)</text>
</a>
</g>
<g id="a_node7_26"><a xlink:href="#" xlink:title="The IANA protocol number.">
<polygon fill="#ffcccc" stroke="transparent" points="267.5,-105.5 267.5,-126.5 544.5,-126.5 544.5,-105.5 267.5,-105.5"/>
<polygon fill="none" stroke="#000000" points="267.5,-105.5 267.5,-126.5 544.5,-126.5 544.5,-105.5 267.5,-105.5"/>
<text text-anchor="start" x="270.5" y="-112.3" font-family="Nimbus Sans L" font-size="14.00" fill="#000000">[INTEGER] iana_protocol_number (Optional)</text>
</a>
</g>
<g id="a_node7_27"><a xlink:href="#" xlink:title="The IANA protocol name.">
<polygon fill="#ffcccc" stroke="transparent" points="267.5,-84.5 267.5,-105.5 544.5,-105.5 544.5,-84.5 267.5,-84.5"/>
<polygon fill="none" stroke="#000000" points="267.5,-84.5 267.5,-105.5 544.5,-105.5 544.5,-84.5 267.5,-84.5"/>
<text text-anchor="start" x="281" y="-91.3" font-family="Nimbus Sans L" font-size="14.00" fill="#000000">[STRING] iana_protocol_name (Optional)</text>
</a>
</g>
</g>
<!-- Source&#45;&gt;Service -->
<g id="edge8" class="edge">
<title>Source&#45;&gt;Service</title>
<path fill="none" stroke="#000000" d="M166.289,-346.2822C192.7082,-327.8622 224.2726,-305.855 255.6723,-283.9626"/>
<polygon fill="#000000" stroke="#000000" points="257.881,-286.6893 264.0823,-278.0989 253.8775,-280.9472 257.881,-286.6893"/>
<text text-anchor="middle" x="229.5" y="-308.3" font-family="Times,serif" font-size="14.00" fill="#000000">0..1</text>
</g>
<!-- Address -->
<g id="node3" class="node">
<title>Address</title>
<g id="a_node3_28"><a xlink:href="#" xlink:title="The Address class is used to represent network, hardware, and application addresses. ">
<polygon fill="#3daf3d" stroke="transparent" points="671,-703.5 671,-724.5 870,-724.5 870,-703.5 671,-703.5"/>
<polygon fill="none" stroke="#000000" points="671,-703.5 671,-724.5 870,-724.5 870,-703.5 671,-703.5"/>
<text text-anchor="start" x="745.5" y="-710.3" font-family="Nimbus Sans L" font-size="14.00" fill="#000000">Address</text>
</a>
</g>
<g id="a_node3_29"><a xlink:href="#" xlink:title="The address information. &#160;The format of this data is governed by the category attribute.">
<polygon fill="#4cdb4c" stroke="transparent" points="671,-682.5 671,-703.5 870,-703.5 870,-682.5 671,-682.5"/>
<polygon fill="none" stroke="#000000" points="671,-682.5 671,-703.5 870,-703.5 870,-682.5 671,-682.5"/>
<text text-anchor="start" x="681.5" y="-689.3" font-family="Nimbus Sans L" font-size="14.00" fill="#000000">[STRING] address (Required)</text>
</a>
</g>
<g id="a_node3_30"><a xlink:href="#" xlink:title="The network mask for the address, if appropriate.">
<polygon fill="#4cdb4c" stroke="transparent" points="671,-661.5 671,-682.5 870,-682.5 870,-661.5 671,-661.5"/>
<polygon fill="none" stroke="#000000" points="671,-661.5 671,-682.5 870,-682.5 870,-661.5 671,-661.5"/>
<text text-anchor="start" x="681.5" y="-668.3" font-family="Nimbus Sans L" font-size="14.00" fill="#000000">[STRING] netmask (Optional)</text>
</a>
</g>
<g id="a_node3_31"><a xlink:href="#" xlink:title="A unique identifier for the address; see Section 3.2.9.">
<polygon fill="#4cdb4c" stroke="transparent" points="671,-640.5 671,-661.5 870,-661.5 870,-640.5 671,-640.5"/>
<polygon fill="none" stroke="#000000" points="671,-640.5 671,-661.5 870,-661.5 870,-640.5 671,-640.5"/>
<text text-anchor="start" x="692.5" y="-647.3" font-family="Nimbus Sans L" font-size="14.00" fill="#000000">[STRING] ident (Optional)</text>
</a>
</g>
<g id="a_node3_32"><a xlink:href="#" xlink:title="The type of address represented. &#160;The permitted values for this attribute are shown below. &#160;The default value is &quot;unknown&quot;. &#160;(See also Section 10.)">
<polygon fill="#4cdb4c" stroke="transparent" points="671,-619.5 671,-640.5 870,-640.5 870,-619.5 671,-619.5"/>
<polygon fill="none" stroke="#000000" points="671,-619.5 671,-640.5 870,-640.5 870,-619.5 671,-619.5"/>
<text text-anchor="start" x="686.5" y="-626.3" font-family="Nimbus Sans L" font-size="14.00" fill="#000000">[ENUM] category (Optional)</text>
</a>
</g>
<g id="a_node3_33"><a xlink:href="#" xlink:title="The name of the Virtual LAN to which the address belongs.">
<polygon fill="#4cdb4c" stroke="transparent" points="671,-598.5 671,-619.5 870,-619.5 870,-598.5 671,-598.5"/>
<polygon fill="none" stroke="#000000" points="671,-598.5 671,-619.5 870,-619.5 870,-598.5 671,-598.5"/>
<text text-anchor="start" x="675.5" y="-605.3" font-family="Nimbus Sans L" font-size="14.00" fill="#000000">[STRING] vlan&#45;name (Optional)</text>
</a>
</g>
<g id="a_node3_34"><a xlink:href="#" xlink:title="The number of the Virtual LAN to which the address belongs.">
<polygon fill="#4cdb4c" stroke="transparent" points="671,-577.5 671,-598.5 870,-598.5 870,-577.5 671,-577.5"/>
<polygon fill="none" stroke="#000000" points="671,-577.5 671,-598.5 870,-598.5 870,-577.5 671,-577.5"/>
<text text-anchor="start" x="674" y="-584.3" font-family="Nimbus Sans L" font-size="14.00" fill="#000000">[INTEGER] vlan&#45;num (Optional)</text>
</a>
</g>
</g>
<!-- Node&#45;&gt;Address -->
<g id="edge1" class="edge">
<title>Node&#45;&gt;Address</title>
<path fill="none" stroke="#000000" d="M503.1793,-639.7877C549.0509,-641.8013 604.107,-644.218 652.2633,-646.3319"/>
<polygon fill="#000000" stroke="#000000" points="652.2849,-649.8361 662.4288,-646.7781 652.592,-642.8428 652.2849,-649.8361"/>
<text text-anchor="middle" x="581.5" y="-647.3" font-family="Times,serif" font-size="14.00" fill="#000000">0..*</text>
</g>
<!-- UserId -->
<g id="node5" class="node">
<title>UserId</title>
<g id="a_node5_35"><a xlink:href="#" xlink:title="The UserId class provides specific information about a user. More than one UserId can be used within the User class to indicate attempts to transition from one user to another, or to provide complete information about a user&#39;s (or process&#39;) privileges. ">
<polygon fill="#52a3cc" stroke="transparent" points="676,-530.5 676,-551.5 865,-551.5 865,-530.5 676,-530.5"/>
<polygon fill="none" stroke="#000000" points="676,-530.5 676,-551.5 865,-551.5 865,-530.5 676,-530.5"/>
<text text-anchor="start" x="750.5" y="-537.3" font-family="Nimbus Sans L" font-size="14.00" fill="#000000">UserId</text>
</a>
</g>
<g id="a_node5_36"><a xlink:href="#" xlink:title="A user or group name.">
<polygon fill="#66ccff" stroke="transparent" points="676,-509.5 676,-530.5 865,-530.5 865,-509.5 676,-509.5"/>
<polygon fill="none" stroke="#000000" points="676,-509.5 676,-530.5 865,-530.5 865,-509.5 676,-509.5"/>
<text text-anchor="start" x="690" y="-516.3" font-family="Nimbus Sans L" font-size="14.00" fill="#000000">[STRING] name (Optional)</text>
</a>
</g>
<g id="a_node5_37"><a xlink:href="#" xlink:title="A user or group number.">
<polygon fill="#66ccff" stroke="transparent" points="676,-488.5 676,-509.5 865,-509.5 865,-488.5 676,-488.5"/>
<polygon fill="none" stroke="#000000" points="676,-488.5 676,-509.5 865,-509.5 865,-488.5 676,-488.5"/>
<text text-anchor="start" x="679" y="-495.3" font-family="Nimbus Sans L" font-size="14.00" fill="#000000">[INTEGER] number (Optional)</text>
</a>
</g>
<g id="a_node5_38"><a xlink:href="#" xlink:title="A unique identifier for the user id, see Section 3.2.9.">
<polygon fill="#66ccff" stroke="transparent" points="676,-467.5 676,-488.5 865,-488.5 865,-467.5 676,-467.5"/>
<polygon fill="none" stroke="#000000" points="676,-467.5 676,-488.5 865,-488.5 865,-467.5 676,-467.5"/>
<text text-anchor="start" x="692.5" y="-474.3" font-family="Nimbus Sans L" font-size="14.00" fill="#000000">[STRING] ident (Optional)</text>
</a>
</g>
<g id="a_node5_39"><a xlink:href="#" xlink:title="The type of user information represented. &#160;The permitted values for this attribute are shown below. &#160;The default value is &quot;original&#45;user&quot;. &#160;(See also Section 10.)">
<polygon fill="#66ccff" stroke="transparent" points="676,-446.5 676,-467.5 865,-467.5 865,-446.5 676,-446.5"/>
<polygon fill="none" stroke="#000000" points="676,-446.5 676,-467.5 865,-467.5 865,-446.5 676,-446.5"/>
<text text-anchor="start" x="699.5" y="-453.3" font-family="Nimbus Sans L" font-size="14.00" fill="#000000">[ENUM] type (Optional)</text>
</a>
</g>
<g id="a_node5_40"><a xlink:href="#" xlink:title="The tty the user is using.">
<polygon fill="#66ccff" stroke="transparent" points="676,-425.5 676,-446.5 865,-446.5 865,-425.5 676,-425.5"/>
<polygon fill="none" stroke="#000000" points="676,-425.5 676,-446.5 865,-446.5 865,-425.5 676,-425.5"/>
<text text-anchor="start" x="700" y="-432.3" font-family="Nimbus Sans L" font-size="14.00" fill="#000000">[STRING] tty (Optional)</text>
</a>
</g>
</g>
<!-- User&#45;&gt;UserId -->
<g id="edge3" class="edge">
<title>User&#45;&gt;UserId</title>
<path fill="none" stroke="#000000" d="M500.792,-500.3171C548.6465,-498.2165 606.9489,-495.6573 657.0441,-493.4583"/>
<polygon fill="#000000" stroke="#000000" points="657.438,-496.9445 667.2749,-493.0092 657.131,-489.9512 657.438,-496.9445"/>
<text text-anchor="middle" x="581.5" y="-500.3" font-family="Times,serif" font-size="14.00" fill="#000000">1..*</text>
</g>
<!-- WebService -->
<g id="node8" class="node">
<title>WebService</title>
<g id="a_node8_41"><a xlink:href="#" xlink:title="The WebService class carries additional information related to web traffic. ">
<polygon fill="#cca3a3" stroke="transparent" points="668,-302.5 668,-323.5 873,-323.5 873,-302.5 668,-302.5"/>
<polygon fill="none" stroke="#000000" points="668,-302.5 668,-323.5 873,-323.5 873,-302.5 668,-302.5"/>
<text text-anchor="start" x="733.5" y="-309.3" font-family="Nimbus Sans L" font-size="14.00" fill="#000000">WebService</text>
</a>
</g>
<g id="a_node8_42"><a xlink:href="#" xlink:title="The URL in the request.">
<polygon fill="#ffcccc" stroke="transparent" points="668,-281.5 668,-302.5 873,-302.5 873,-281.5 668,-281.5"/>
<polygon fill="none" stroke="#000000" points="668,-281.5 668,-302.5 873,-302.5 873,-281.5 668,-281.5"/>
<text text-anchor="start" x="698" y="-288.3" font-family="Nimbus Sans L" font-size="14.00" fill="#000000">[STRING] url (Required)</text>
</a>
</g>
<g id="a_node8_43"><a xlink:href="#" xlink:title="The CGI script in the request, without arguments.">
<polygon fill="#ffcccc" stroke="transparent" points="668,-260.5 668,-281.5 873,-281.5 873,-260.5 668,-260.5"/>
<polygon fill="none" stroke="#000000" points="668,-260.5 668,-281.5 873,-281.5 873,-260.5 668,-260.5"/>
<text text-anchor="start" x="698.5" y="-267.3" font-family="Nimbus Sans L" font-size="14.00" fill="#000000">[STRING] cgi (Optional)</text>
</a>
</g>
<g id="a_node8_44"><a xlink:href="#" xlink:title="The HTTP method (PUT, GET) used in the request.">
<polygon fill="#ffcccc" stroke="transparent" points="668,-239.5 668,-260.5 873,-260.5 873,-239.5 668,-239.5"/>
<polygon fill="none" stroke="#000000" points="668,-239.5 668,-260.5 873,-260.5 873,-239.5 668,-239.5"/>
<text text-anchor="start" x="671" y="-246.3" font-family="Nimbus Sans L" font-size="14.00" fill="#000000">[STRING] http&#45;method (Optional)</text>
</a>
</g>
<g id="a_node8_45"><a xlink:href="#" xlink:title="The arguments to the CGI script.">
<polygon fill="#ffcccc" stroke="transparent" points="668,-218.5 668,-239.5 873,-239.5 873,-218.5 668,-218.5"/>
<polygon fill="none" stroke="#000000" points="668,-218.5 668,-239.5 873,-239.5 873,-218.5 668,-218.5"/>
<text text-anchor="start" x="697.5" y="-225.3" font-family="Nimbus Sans L" font-size="14.00" fill="#000000">[STRING] arg (Optional)</text>
</a>
</g>
</g>
<!-- Service&#45;&gt;WebService -->
<g id="edge6" class="edge">
<title>Service&#45;&gt;WebService</title>
<path fill="none" stroke="#000000" d="M562.2964,-219.0755C595.0228,-227.3357 628.8662,-235.8778 659.4931,-243.608"/>
<polygon fill="none" stroke="#000000" points="553.0371,-213.1287 561.8764,-218.9696 551.324,-219.9158 553.0371,-213.1287"/>
</g>
<!-- SNMPService -->
<g id="node9" class="node">
<title>SNMPService</title>
<g id="a_node9_46"><a xlink:href="#" xlink:title="The SNMPService class carries additional information related to SNMP traffic. The aggregate classes composing SNMPService must be interpreted as described in RFC 3411 [15] and RFC 3584 [16]. ">
<polygon fill="#cca3a3" stroke="transparent" points="619,-171.5 619,-192.5 921,-192.5 921,-171.5 619,-171.5"/>
<polygon fill="none" stroke="#000000" points="619,-171.5 619,-192.5 921,-192.5 921,-171.5 619,-171.5"/>
<text text-anchor="start" x="727" y="-178.3" font-family="Nimbus Sans L" font-size="14.00" fill="#000000">SNMPService</text>
</a>
</g>
<g id="a_node9_47"><a xlink:href="#" xlink:title="The object identifier in the request.">
<polygon fill="#ffcccc" stroke="transparent" points="619,-150.5 619,-171.5 921,-171.5 921,-150.5 619,-150.5"/>
<polygon fill="none" stroke="#000000" points="619,-150.5 619,-171.5 921,-171.5 921,-150.5 619,-150.5"/>
<text text-anchor="start" x="697.5" y="-157.3" font-family="Nimbus Sans L" font-size="14.00" fill="#000000">[STRING] oid (Optional)</text>
</a>
</g>
<g id="a_node9_48"><a xlink:href="#" xlink:title="The SNMP version, typically 0 for SNMPv1, 1 for SNMPv2c, 2 for SNMPv2u and SNMPv2*, and 3 for SNMPv3; see RFC 3411 [15] Section 5 for appropriate values.">
<polygon fill="#ffcccc" stroke="transparent" points="619,-129.5 619,-150.5 921,-150.5 921,-129.5 619,-129.5"/>
<polygon fill="none" stroke="#000000" points="619,-129.5 619,-150.5 921,-150.5 921,-129.5 619,-129.5"/>
<text text-anchor="start" x="622" y="-136.3" font-family="Nimbus Sans L" font-size="14.00" fill="#000000">[INTEGER] messageProcessingModel (Optional)</text>
</a>
</g>
<g id="a_node9_49"><a xlink:href="#" xlink:title="The identification of the security model in use, typically 0 for any, 1 for SNMPv1, 2 for SNMPv2c, and 3 for USM; see RFC 3411 [15] Section 5 for appropriate values.">
<polygon fill="#ffcccc" stroke="transparent" points="619,-108.5 619,-129.5 921,-129.5 921,-108.5 619,-108.5"/>
<polygon fill="none" stroke="#000000" points="619,-108.5 619,-129.5 921,-129.5 921,-108.5 619,-108.5"/>
<text text-anchor="start" x="660" y="-115.3" font-family="Nimbus Sans L" font-size="14.00" fill="#000000">[INTEGER] securityModel (Optional)</text>
</a>
</g>
<g id="a_node9_50"><a xlink:href="#" xlink:title="The object&#39;s security name; see RFC 3411 [15] Section 3.2.2.">
<polygon fill="#ffcccc" stroke="transparent" points="619,-87.5 619,-108.5 921,-108.5 921,-87.5 619,-87.5"/>
<polygon fill="none" stroke="#000000" points="619,-87.5 619,-108.5 921,-108.5 921,-87.5 619,-87.5"/>
<text text-anchor="start" x="665" y="-94.3" font-family="Nimbus Sans L" font-size="14.00" fill="#000000">[STRING] securityName (Optional)</text>
</a>
</g>
<g id="a_node9_51"><a xlink:href="#" xlink:title="The security level of the SNMP request; see RFC 3411 [15] Section 3.4.3.">
<polygon fill="#ffcccc" stroke="transparent" points="619,-66.5 619,-87.5 921,-87.5 921,-66.5 619,-66.5"/>
<polygon fill="none" stroke="#000000" points="619,-66.5 619,-87.5 921,-87.5 921,-66.5 619,-66.5"/>
<text text-anchor="start" x="662.5" y="-73.3" font-family="Nimbus Sans L" font-size="14.00" fill="#000000">[INTEGER] securityLevel (Optional)</text>
</a>
</g>
<g id="a_node9_52"><a xlink:href="#" xlink:title="The object&#39;s context name; see RFC 3411 [15] Section 3.3.3.">
<polygon fill="#ffcccc" stroke="transparent" points="619,-45.5 619,-66.5 921,-66.5 921,-45.5 619,-45.5"/>
<polygon fill="none" stroke="#000000" points="619,-45.5 619,-66.5 921,-66.5 921,-45.5 619,-45.5"/>
<text text-anchor="start" x="667" y="-52.3" font-family="Nimbus Sans L" font-size="14.00" fill="#000000">[STRING] contextName (Optional)</text>
</a>
</g>
<g id="a_node9_53"><a xlink:href="#" xlink:title="The object&#39;s context engine identifier; see RFC 3411 [15] Section 3.3.2.">
<polygon fill="#ffcccc" stroke="transparent" points="619,-24.5 619,-45.5 921,-45.5 921,-24.5 619,-24.5"/>
<polygon fill="none" stroke="#000000" points="619,-24.5 619,-45.5 921,-45.5 921,-24.5 619,-24.5"/>
<text text-anchor="start" x="657.5" y="-31.3" font-family="Nimbus Sans L" font-size="14.00" fill="#000000">[STRING] contextEngineID (Optional)</text>
</a>
</g>
<g id="a_node9_54"><a xlink:href="#" xlink:title="The command sent to the SNMP server (GET, SET, etc.).">
<polygon fill="#ffcccc" stroke="transparent" points="619,-3.5 619,-24.5 921,-24.5 921,-3.5 619,-3.5"/>
<polygon fill="none" stroke="#000000" points="619,-3.5 619,-24.5 921,-24.5 921,-3.5 619,-3.5"/>
<text text-anchor="start" x="676.5" y="-10.3" font-family="Nimbus Sans L" font-size="14.00" fill="#000000">[STRING] command (Optional)</text>
</a>
</g>
</g>
<!-- Service&#45;&gt;SNMPService -->
<g id="edge7" class="edge">
<title>Service&#45;&gt;SNMPService</title>
<path fill="none" stroke="#000000" d="M562.1701,-144.6844C578.2779,-141.1049 594.6576,-137.465 610.7924,-133.8795"/>
<polygon fill="none" stroke="#000000" points="551.4212,-143.4877 561.9424,-144.7349 552.9398,-150.321 551.4212,-143.4877"/>
</g>
</g>
</svg>
