<?xml version="1.0" encoding="UTF-8" standalone="no"?>
<!DOCTYPE svg PUBLIC "-//W3C//DTD SVG 1.1//EN"
 "http://www.w3.org/Graphics/SVG/1.1/DTD/svg11.dtd">
<!-- Generated by graphviz version 2.26.3 (20100126.1600)
 -->
<!-- Title: Target Pages: 1 -->
<svg width="1430pt" height="988pt"
 viewBox="0.00 0.00 1430.00 988.00" xmlns="http://www.w3.org/2000/svg" xmlns:xlink="http://www.w3.org/1999/xlink">
<g id="graph1" class="graph" transform="scale(1 1) rotate(0) translate(4 984)">
<title>Target</title>
<polygon fill="white" stroke="white" points="-4,5 -4,-984 1427,-984 1427,5 -4,5"/>
<!-- Target -->
<g id="node1" class="node"><title>Target</title>
<a xlink:href="#" xlink:title="The Target class contains information about the possible target(s) of the event(s) that generated an alert. An event may have more than one target (e.g., in the case of a port sweep). ">
<polygon fill="#cecece" stroke="#cecece" points="8,-741 8,-762 190,-762 190,-741 8,-741"/>
<polygon fill="none" stroke="black" points="8,-741 8,-762 190,-762 190,-741 8,-741"/>
<text text-anchor="start" x="77" y="-748.233" font-family="Times Roman,serif" font-size="14.00">Target</text>
</a>
<a xlink:href="#" xlink:title="A unique identifier for this target, see Section 3.2.9.">
<polygon fill="none" stroke="black" points="8,-721 8,-741 190,-741 190,-721 8,-721"/>
<text text-anchor="start" x="34.5" y="-727.733" font-family="Times Roman,serif" font-size="14.00">[] ident (Optional) </text>
</a>
<a xlink:href="#" xlink:title="An indication of whether the target is, as far as the analyzer can determine, a decoy. &#160;The permitted values for this attribute are shown below. &#160;The default value is &quot;unknown&quot;. &#160;(See also Section 10.)">
<polygon fill="none" stroke="black" points="8,-701 8,-721 190,-721 190,-701 8,-701"/>
<text text-anchor="start" x="11.5" y="-707.733" font-family="Times Roman,serif" font-size="14.00">[ENUM] decoy (Optional) </text>
</a>
<a xlink:href="#" xlink:title="May be used by a network&#45;based analyzer with multiple interfaces to indicate which interface this target was seen on.">
<polygon fill="none" stroke="black" points="8,-681 8,-701 190,-701 190,-681 8,-681"/>
<text text-anchor="start" x="22" y="-687.733" font-family="Times Roman,serif" font-size="14.00">[] interface (Optional) </text>
</a>
</g>
<!-- Node -->
<g id="node2" class="node"><title>Node</title>
<a xlink:href="#" xlink:title="The Node class is used to identify hosts and other network devices (routers, switches, etc.). ">
<polygon fill="#cecece" stroke="#cecece" points="328,-935 328,-956 531,-956 531,-935 328,-935"/>
<polygon fill="none" stroke="black" points="328,-935 328,-956 531,-956 531,-935 328,-935"/>
<text text-anchor="start" x="411.5" y="-942.233" font-family="Times Roman,serif" font-size="14.00">Node</text>
</a>
<a xlink:href="#" xlink:title="The location of the equipment.">
<polygon fill="none" stroke="black" points="328,-915 328,-935 531,-935 531,-915 328,-915"/>
<text text-anchor="start" x="344.5" y="-921.733" font-family="Times Roman,serif" font-size="14.00">[STRING] location (0..1) </text>
</a>
<a xlink:href="#" xlink:title="The name of the equipment. &#160;This information MUST be provided if no Address information is given.">
<polygon fill="none" stroke="black" points="328,-895 328,-915 531,-915 531,-895 328,-895"/>
<text text-anchor="start" x="352.5" y="-901.733" font-family="Times Roman,serif" font-size="14.00">[STRING] name (0..1) </text>
</a>
<a xlink:href="#" xlink:title="A unique identifier for the node; see Section 3.2.9.">
<polygon fill="none" stroke="black" points="328,-875 328,-895 531,-895 531,-875 328,-875"/>
<text text-anchor="start" x="365" y="-881.733" font-family="Times Roman,serif" font-size="14.00">[] ident (Optional) </text>
</a>
<a xlink:href="#" xlink:title="The &quot;domain&quot; from which the name information was obtained, if relevant. &#160;The permitted values for this attribute are shown in the table below. &#160;The default value is &quot;unknown&quot;. (See also Section 10 for extensions to the table.)">
<polygon fill="none" stroke="black" points="328,-855 328,-875 531,-875 531,-855 328,-855"/>
<text text-anchor="start" x="331.5" y="-861.733" font-family="Times Roman,serif" font-size="14.00">[ENUM] category (Optional) </text>
</a>
</g>
<!-- Target&#45;&gt;Node -->
<g id="edge4" class="edge"><title>Target&#45;&gt;Node</title>
<path fill="none" stroke="black" d="M131.097,-766.132C152.431,-792.528 182.6,-824.767 216,-845 244.325,-862.159 277.688,-874.675 309.498,-883.732"/>
<polygon fill="black" stroke="black" points="308.743,-887.154 319.313,-886.432 310.6,-880.405 308.743,-887.154"/>
<text text-anchor="middle" x="230" y="-863.4" font-family="Times Roman,serif" font-size="14.00">0..1</text>
</g>
<!-- User -->
<g id="node6" class="node"><title>User</title>
<a xlink:href="#" xlink:title="The User class is used to describe users. It is primarily used as a &quot;container&quot; class for the UserId aggregate class, as shown in Figure 16. ">
<polygon fill="#cecece" stroke="#cecece" points="623,-818 623,-839 826,-839 826,-818 623,-818"/>
<polygon fill="none" stroke="black" points="623,-818 623,-839 826,-839 826,-818 623,-818"/>
<text text-anchor="start" x="708.5" y="-825.233" font-family="Times Roman,serif" font-size="14.00">User</text>
</a>
<a xlink:href="#" xlink:title="A unique identifier for the user; see Section 3.2.9.">
<polygon fill="none" stroke="black" points="623,-798 623,-818 826,-818 826,-798 623,-798"/>
<text text-anchor="start" x="660" y="-804.733" font-family="Times Roman,serif" font-size="14.00">[] ident (Optional) </text>
</a>
<a xlink:href="#" xlink:title="The type of user represented. &#160;The permitted values for this attribute are shown below. &#160;The default value is &quot;unknown&quot;. (See also Section 10.)">
<polygon fill="none" stroke="black" points="623,-778 623,-798 826,-798 826,-778 623,-778"/>
<text text-anchor="start" x="626.5" y="-784.733" font-family="Times Roman,serif" font-size="14.00">[ENUM] category (Optional) </text>
</a>
</g>
<!-- Target&#45;&gt;User -->
<g id="edge8" class="edge"><title>Target&#45;&gt;User</title>
<path fill="none" stroke="black" d="M168.025,-766.079C196.053,-781.547 229.456,-797.042 262,-805 375.704,-832.804 509.904,-830.208 604.284,-822.837"/>
<polygon fill="black" stroke="black" points="604.755,-826.31 614.439,-822.013 604.189,-819.333 604.755,-826.31"/>
<text text-anchor="middle" x="230" y="-803.4" font-family="Times Roman,serif" font-size="14.00">0..1</text>
</g>
<!-- Process -->
<g id="node10" class="node"><title>Process</title>
<a xlink:href="#" xlink:title="The Process class is used to describe processes being executed on sources, targets, and analyzers. ">
<polygon fill="#cecece" stroke="#cecece" points="352,-771 352,-792 507,-792 507,-771 352,-771"/>
<polygon fill="none" stroke="black" points="352,-771 352,-792 507,-792 507,-771 352,-771"/>
<text text-anchor="start" x="403.5" y="-778.233" font-family="Times Roman,serif" font-size="14.00">Process</text>
</a>
<a xlink:href="#" xlink:title="The name of the program being executed. This is a short name; path and argument information are provided elsewhere.">
<polygon fill="none" stroke="black" points="352,-751 352,-771 507,-771 507,-751 352,-751"/>
<text text-anchor="start" x="361.5" y="-757.733" font-family="Times Roman,serif" font-size="14.00">[STRING] name (1) </text>
</a>
<a xlink:href="#" xlink:title="The process identifier of the process.">
<polygon fill="none" stroke="black" points="352,-731 352,-751 507,-751 507,-731 352,-731"/>
<text text-anchor="start" x="357" y="-737.733" font-family="Times Roman,serif" font-size="14.00">[INTEGER] pid (0..1) </text>
</a>
<a xlink:href="#" xlink:title="The full path of the program being executed.">
<polygon fill="none" stroke="black" points="352,-711 352,-731 507,-731 507,-711 352,-711"/>
<text text-anchor="start" x="355.5" y="-717.733" font-family="Times Roman,serif" font-size="14.00">[STRING] path (0..1) </text>
</a>
<a xlink:href="#" xlink:title="A command&#45;line argument to the program. Multiple arguments may be specified (they are assumed to have occurred in the same order they are provided) with multiple uses of arg.">
<polygon fill="none" stroke="black" points="352,-691 352,-711 507,-711 507,-691 352,-691"/>
<text text-anchor="start" x="361" y="-697.733" font-family="Times Roman,serif" font-size="14.00">[STRING] arg (0..*) </text>
</a>
<a xlink:href="#" xlink:title="An environment string associated with the process; generally of the format &quot;VARIABLE=value&quot;. &#160;Multiple environment strings may be specified with multiple uses of env.">
<polygon fill="none" stroke="black" points="352,-671 352,-691 507,-691 507,-671 352,-671"/>
<text text-anchor="start" x="359.5" y="-677.733" font-family="Times Roman,serif" font-size="14.00">[STRING] env (0..*) </text>
</a>
<a xlink:href="#" xlink:title="A unique identifier for the process; see Section 3.2.9.">
<polygon fill="none" stroke="black" points="352,-651 352,-671 507,-671 507,-651 352,-651"/>
<text text-anchor="start" x="365" y="-657.733" font-family="Times Roman,serif" font-size="14.00">[] ident (Optional) </text>
</a>
</g>
<!-- Target&#45;&gt;Process -->
<g id="edge10" class="edge"><title>Target&#45;&gt;Process</title>
<path fill="none" stroke="black" d="M198.011,-722C240.896,-722 290.903,-722 333.399,-722"/>
<polygon fill="black" stroke="black" points="333.467,-725.5 343.467,-722 333.467,-718.5 333.467,-725.5"/>
<text text-anchor="middle" x="230" y="-726.4" font-family="Times Roman,serif" font-size="14.00">0..1</text>
</g>
<!-- Service -->
<g id="node12" class="node"><title>Service</title>
<a xlink:href="#" xlink:title="The Service class describes network services on sources and targets. It can identify services by name, port, and protocol. When Service occurs as an aggregate class of Source, it is understood that the service is one from which activity of interest is originating; and that the service is &quot;attached&quot; to the Node, Process, and User information also contained in Source. Likewise, when Service occurs as an aggregate class of Target, it is understood that the service is one to which activity of interest is being directed; and that the service is &quot;attached&quot; to the Node, Process, and User information also contained in Target. If Service occurs in both Source and Target, then information in both locations should be the same. If information is the same in both locations and implementers wish to carry it in only one location, they should specify it as an aggregate of the Target class. ">
<polygon fill="#cecece" stroke="#cecece" points="271,-605 271,-626 588,-626 588,-605 271,-605"/>
<polygon fill="none" stroke="black" points="271,-605 271,-626 588,-626 588,-605 271,-605"/>
<text text-anchor="start" x="404" y="-612.233" font-family="Times Roman,serif" font-size="14.00">Service</text>
</a>
<a xlink:href="#" xlink:title="The name of the service. &#160;Whenever possible, the name from the IANA list of well&#45;known ports SHOULD be used.">
<polygon fill="none" stroke="black" points="271,-585 271,-605 588,-605 588,-585 271,-585"/>
<text text-anchor="start" x="352.5" y="-591.733" font-family="Times Roman,serif" font-size="14.00">[STRING] name (0..1) </text>
</a>
<a xlink:href="#" xlink:title="The port number being used.">
<polygon fill="none" stroke="black" points="271,-565 271,-585 588,-585 588,-565 271,-565"/>
<text text-anchor="start" x="352.5" y="-571.733" font-family="Times Roman,serif" font-size="14.00">[INTEGER] port (0..1) </text>
</a>
<a xlink:href="#" xlink:title="A list of port numbers being used; see Section 3.2.8 for formatting rules. &#160;If a portlist is given, the iana_protocol_number and iana_protocol_name MUST apply to all the elements of the list.">
<polygon fill="none" stroke="black" points="271,-545 271,-565 588,-565 588,-545 271,-545"/>
<text text-anchor="start" x="339.5" y="-551.733" font-family="Times Roman,serif" font-size="14.00">[PORTLIST] portlist (0..1) </text>
</a>
<a xlink:href="#" xlink:title="Additional information about the protocol being used. &#160;The intent of the protocol field is to carry additional information related to the protocol being used when the &lt;Service&gt; attributes iana_protocol_number or/and iana_protocol_name are filed.">
<polygon fill="none" stroke="black" points="271,-525 271,-545 588,-545 588,-525 271,-525"/>
<text text-anchor="start" x="343.5" y="-531.733" font-family="Times Roman,serif" font-size="14.00">[STRING] protocol (0..1) </text>
</a>
<a xlink:href="#" xlink:title="A unique identifier for the service; see Section 3.2.9.">
<polygon fill="none" stroke="black" points="271,-505 271,-525 588,-525 588,-505 271,-505"/>
<text text-anchor="start" x="365" y="-511.733" font-family="Times Roman,serif" font-size="14.00">[] ident (Optional) </text>
</a>
<a xlink:href="#" xlink:title="The IP version number.">
<polygon fill="none" stroke="black" points="271,-485 271,-505 588,-505 588,-485 271,-485"/>
<text text-anchor="start" x="316.5" y="-491.733" font-family="Times Roman,serif" font-size="14.00">[INTEGER] ip_version (Optional) </text>
</a>
<a xlink:href="#" xlink:title="The IANA protocol number.">
<polygon fill="none" stroke="black" points="271,-465 271,-485 588,-485 588,-465 271,-465"/>
<text text-anchor="start" x="274.5" y="-471.733" font-family="Times Roman,serif" font-size="14.00">[INTEGER] iana_protocol_number (Optional) </text>
</a>
<a xlink:href="#" xlink:title="The IANA protocol name.">
<polygon fill="none" stroke="black" points="271,-445 271,-465 588,-465 588,-445 271,-445"/>
<text text-anchor="start" x="286.5" y="-451.733" font-family="Times Roman,serif" font-size="14.00">[STRING] iana_protocol_name (Optional) </text>
</a>
</g>
<!-- Target&#45;&gt;Service -->
<g id="edge16" class="edge"><title>Target&#45;&gt;Service</title>
<path fill="none" stroke="black" d="M177.205,-677.921C200.323,-664.891 226.618,-650.07 253.287,-635.038"/>
<polygon fill="black" stroke="black" points="255.349,-637.894 262.342,-629.934 251.912,-631.796 255.349,-637.894"/>
<text text-anchor="middle" x="230" y="-656.4" font-family="Times Roman,serif" font-size="14.00">0..1</text>
</g>
<!-- File -->
<g id="node18" class="node"><title>File</title>
<a xlink:href="#" xlink:title="The File class provides specific information about a file or other file&#45;like object that has been created, deleted, or modified on the target. The description can provide either the file settings prior to the event or the file settings at the time of the event, as specified using the &quot;category&quot; attribute. ">
<polygon fill="#cecece" stroke="#cecece" points="317,-389 317,-410 541,-410 541,-389 317,-389"/>
<polygon fill="none" stroke="black" points="317,-389 317,-410 541,-410 541,-389 317,-389"/>
<text text-anchor="start" x="417" y="-396.233" font-family="Times Roman,serif" font-size="14.00">File</text>
</a>
<a xlink:href="#" xlink:title="The name of the file to which the alert applies, not including the path to the file.">
<polygon fill="none" stroke="black" points="317,-369 317,-389 541,-389 541,-369 317,-369"/>
<text text-anchor="start" x="361" y="-375.733" font-family="Times Roman,serif" font-size="14.00">[STRING] name (1) </text>
</a>
<a xlink:href="#" xlink:title="The full path to the file, including the name. &#160;The path name should be represented in as &quot;universal&quot; a manner as possible, to facilitate processing of the alert.">
<polygon fill="none" stroke="black" points="317,-349 317,-369 541,-369 541,-349 317,-349"/>
<text text-anchor="start" x="364" y="-355.733" font-family="Times Roman,serif" font-size="14.00">[STRING] path (1) </text>
</a>
<a xlink:href="#" xlink:title="Time the file was created. &#160;Note that this is *not* the Unix &quot;st_ctime&quot; file attribute (which is not file creation time). &#160;The Unix &quot;st_ctime&quot; attribute is contained in the &quot;Inode&quot; class.">
<polygon fill="none" stroke="black" points="317,-329 317,-349 541,-349 541,-329 317,-329"/>
<text text-anchor="start" x="322" y="-335.733" font-family="Times Roman,serif" font-size="14.00">[DATETIME] create&#45;time (0..1) </text>
</a>
<a xlink:href="#" xlink:title="Time the file was last modified.">
<polygon fill="none" stroke="black" points="317,-309 317,-329 541,-329 541,-309 317,-309"/>
<text text-anchor="start" x="320.5" y="-315.733" font-family="Times Roman,serif" font-size="14.00">[DATETIME] modify&#45;time (0..1) </text>
</a>
<a xlink:href="#" xlink:title="Time the file was last accessed.">
<polygon fill="none" stroke="black" points="317,-289 317,-309 541,-309 541,-289 317,-289"/>
<text text-anchor="start" x="322" y="-295.733" font-family="Times Roman,serif" font-size="14.00">[DATETIME] access&#45;time (0..1) </text>
</a>
<a xlink:href="#" xlink:title="The size of the data, in bytes. &#160;Typically what is meant when referring to file size. &#160;On Unix UFS file systems, this value corresponds to stat.st_size. &#160;On Windows NTFS, this value corresponds to Valid Data Length (VDL).">
<polygon fill="none" stroke="black" points="317,-269 317,-289 541,-289 541,-269 317,-269"/>
<text text-anchor="start" x="335" y="-275.733" font-family="Times Roman,serif" font-size="14.00">[INTEGER] data&#45;size (0..1) </text>
</a>
<a xlink:href="#" xlink:title="The physical space on disk consumed by the file, in bytes. &#160;On Unix UFS file systems, this value corresponds to 512 * stat.st_blocks. &#160;On Windows NTFS, this value corresponds to End of File (EOF).">
<polygon fill="none" stroke="black" points="317,-249 317,-269 541,-269 541,-249 317,-249"/>
<text text-anchor="start" x="337" y="-255.733" font-family="Times Roman,serif" font-size="14.00">[INTEGER] disk&#45;size (0..1) </text>
</a>
<a xlink:href="#" xlink:title="A unique identifier for this file; see Section 3.2.9.">
<polygon fill="none" stroke="black" points="317,-229 317,-249 541,-249 541,-229 317,-229"/>
<text text-anchor="start" x="380.5" y="-235.733" font-family="Times Roman,serif" font-size="14.00">[] ident (0..1) </text>
</a>
<a xlink:href="#" xlink:title="The type of file system the file resides on. &#160;This attribute governs how path names and other attributes are interpreted.">
<polygon fill="none" stroke="black" points="317,-209 317,-229 541,-229 541,-209 317,-209"/>
<text text-anchor="start" x="368" y="-215.733" font-family="Times Roman,serif" font-size="14.00">[] category (0..1) </text>
</a>
<a xlink:href="#" xlink:title="The type of file, as a mime&#45;type.">
<polygon fill="none" stroke="black" points="317,-189 317,-209 541,-209 541,-189 317,-189"/>
<text text-anchor="start" x="370" y="-195.733" font-family="Times Roman,serif" font-size="14.00">[] file&#45;type (0..1) </text>
</a>
</g>
<!-- Target&#45;&gt;File -->
<g id="edge30" class="edge"><title>Target&#45;&gt;File</title>
<path fill="none" stroke="black" d="M117.425,-677.83C143.703,-618.126 196.138,-510.265 262,-433 273.767,-419.196 287.137,-405.81 301.069,-393.185"/>
<polygon fill="black" stroke="black" points="303.716,-395.515 308.859,-386.252 299.062,-390.286 303.716,-395.515"/>
<text text-anchor="middle" x="230" y="-495.4" font-family="Times Roman,serif" font-size="14.00">0..1</text>
</g>
<!-- Address -->
<g id="node3" class="node"><title>Address</title>
<a xlink:href="#" xlink:title="The Address class is used to represent network, hardware, and application addresses. ">
<polygon fill="#cecece" stroke="#cecece" points="912,-955 912,-976 1115,-976 1115,-955 912,-955"/>
<polygon fill="none" stroke="black" points="912,-955 912,-976 1115,-976 1115,-955 912,-955"/>
<text text-anchor="start" x="986" y="-962.233" font-family="Times Roman,serif" font-size="14.00">Address</text>
</a>
<a xlink:href="#" xlink:title="The address information. &#160;The format of this data is governed by the category attribute.">
<polygon fill="none" stroke="black" points="912,-935 912,-955 1115,-955 1115,-935 912,-935"/>
<text text-anchor="start" x="938" y="-941.733" font-family="Times Roman,serif" font-size="14.00">[STRING] address (1) </text>
</a>
<a xlink:href="#" xlink:title="The network mask for the address, if appropriate.">
<polygon fill="none" stroke="black" points="912,-915 912,-935 1115,-935 1115,-915 912,-915"/>
<text text-anchor="start" x="926" y="-921.733" font-family="Times Roman,serif" font-size="14.00">[STRING] netmask (0..1) </text>
</a>
<a xlink:href="#" xlink:title="A unique identifier for the address; see Section 3.2.9.">
<polygon fill="none" stroke="black" points="912,-895 912,-915 1115,-915 1115,-895 912,-895"/>
<text text-anchor="start" x="949" y="-901.733" font-family="Times Roman,serif" font-size="14.00">[] ident (Optional) </text>
</a>
<a xlink:href="#" xlink:title="The type of address represented. &#160;The permitted values for this attribute are shown below. &#160;The default value is &quot;unknown&quot;. &#160;(See also Section 10.)">
<polygon fill="none" stroke="black" points="912,-875 912,-895 1115,-895 1115,-875 912,-875"/>
<text text-anchor="start" x="915.5" y="-881.733" font-family="Times Roman,serif" font-size="14.00">[ENUM] category (Optional) </text>
</a>
<a xlink:href="#" xlink:title="The name of the Virtual LAN to which the address belongs.">
<polygon fill="none" stroke="black" points="912,-855 912,-875 1115,-875 1115,-855 912,-855"/>
<text text-anchor="start" x="930.5" y="-861.733" font-family="Times Roman,serif" font-size="14.00">[] vlan&#45;name (Optional) </text>
</a>
<a xlink:href="#" xlink:title="The number of the Virtual LAN to which the address belongs.">
<polygon fill="none" stroke="black" points="912,-835 912,-855 1115,-855 1115,-835 912,-835"/>
<text text-anchor="start" x="934" y="-841.733" font-family="Times Roman,serif" font-size="14.00">[] vlan&#45;num (Optional) </text>
</a>
</g>
<!-- Node&#45;&gt;Address -->
<g id="edge2" class="edge"><title>Node&#45;&gt;Address</title>
<path fill="none" stroke="black" d="M538.503,-906C639.347,-906 788.662,-906 892.773,-906"/>
<polygon fill="black" stroke="black" points="893.02,-909.5 903.02,-906 893.02,-902.5 893.02,-909.5"/>
<text text-anchor="middle" x="724" y="-910.4" font-family="Times Roman,serif" font-size="14.00">0..*</text>
</g>
<!-- UserId -->
<g id="node7" class="node"><title>UserId</title>
<a xlink:href="#" xlink:title="The UserId class provides specific information about a user. More than one UserId can be used within the User class to indicate attempts to transition from one user to another, or to provide complete information about a user&#39;s (or process&#39;) privileges. ">
<polygon fill="#cecece" stroke="#cecece" points="1229,-728 1229,-749 1414,-749 1414,-728 1229,-728"/>
<polygon fill="none" stroke="black" points="1229,-728 1229,-749 1414,-749 1414,-728 1229,-728"/>
<text text-anchor="start" x="1299" y="-735.233" font-family="Times Roman,serif" font-size="14.00">UserId</text>
</a>
<a xlink:href="#" xlink:title="A user or group name.">
<polygon fill="none" stroke="black" points="1229,-708 1229,-728 1414,-728 1414,-708 1229,-708"/>
<text text-anchor="start" x="1244.5" y="-714.733" font-family="Times Roman,serif" font-size="14.00">[STRING] name (0..1) </text>
</a>
<a xlink:href="#" xlink:title="A user or group number.">
<polygon fill="none" stroke="black" points="1229,-688 1229,-708 1414,-708 1414,-688 1229,-688"/>
<text text-anchor="start" x="1232.5" y="-694.733" font-family="Times Roman,serif" font-size="14.00">[INTEGER] number (0..1) </text>
</a>
<a xlink:href="#" xlink:title="A unique identifier for the user id, see Section 3.2.9.">
<polygon fill="none" stroke="black" points="1229,-668 1229,-688 1414,-688 1414,-668 1229,-668"/>
<text text-anchor="start" x="1257" y="-674.733" font-family="Times Roman,serif" font-size="14.00">[] ident (Optional) </text>
</a>
<a xlink:href="#" xlink:title="The type of user information represented. &#160;The permitted values for this attribute are shown below. &#160;The default value is &quot;original&#45;user&quot;. &#160;(See also Section 10.)">
<polygon fill="none" stroke="black" points="1229,-648 1229,-668 1414,-668 1414,-648 1229,-648"/>
<text text-anchor="start" x="1238.5" y="-654.733" font-family="Times Roman,serif" font-size="14.00">[ENUM] type (Optional) </text>
</a>
<a xlink:href="#" xlink:title="The tty the user is using.">
<polygon fill="none" stroke="black" points="1229,-628 1229,-648 1414,-648 1414,-628 1229,-628"/>
<text text-anchor="start" x="1237.5" y="-634.733" font-family="Times Roman,serif" font-size="14.00">[STRING] tty (Optional) </text>
</a>
</g>
<!-- User&#45;&gt;UserId -->
<g id="edge6" class="edge"><title>User&#45;&gt;UserId</title>
<path fill="none" stroke="black" d="M833.725,-803.707C946.031,-797.407 1112.54,-785.37 1174,-767 1186.35,-763.308 1198.87,-758.533 1211.11,-753.164"/>
<polygon fill="black" stroke="black" points="1212.74,-756.266 1220.41,-748.952 1209.86,-749.889 1212.74,-756.266"/>
<text text-anchor="middle" x="1013" y="-806.4" font-family="Times Roman,serif" font-size="14.00">1..*</text>
</g>
<!-- WebService -->
<g id="node13" class="node"><title>WebService</title>
<a xlink:href="#" xlink:title="The WebService class carries additional information related to web traffic. ">
<polygon fill="#cecece" stroke="#cecece" points="908,-733 908,-754 1118,-754 1118,-733 908,-733"/>
<polygon fill="none" stroke="black" points="908,-733 908,-754 1118,-754 1118,-733 908,-733"/>
<text text-anchor="start" x="972" y="-740.233" font-family="Times Roman,serif" font-size="14.00">WebService</text>
</a>
<a xlink:href="#" xlink:title="The URL in the request.">
<polygon fill="none" stroke="black" points="908,-713 908,-733 1118,-733 1118,-713 908,-713"/>
<text text-anchor="start" x="954.5" y="-719.733" font-family="Times Roman,serif" font-size="14.00">[STRING] url (1) </text>
</a>
<a xlink:href="#" xlink:title="The CGI script in the request, without arguments.">
<polygon fill="none" stroke="black" points="908,-693 908,-713 1118,-713 1118,-693 908,-693"/>
<text text-anchor="start" x="945.5" y="-699.733" font-family="Times Roman,serif" font-size="14.00">[STRING] cgi (0..1) </text>
</a>
<a xlink:href="#" xlink:title="The HTTP method (PUT, GET) used in the request.">
<polygon fill="none" stroke="black" points="908,-673 908,-693 1118,-693 1118,-673 908,-673"/>
<text text-anchor="start" x="911.5" y="-679.733" font-family="Times Roman,serif" font-size="14.00">[STRING] http&#45;method (0..1) </text>
</a>
<a xlink:href="#" xlink:title="The arguments to the CGI script.">
<polygon fill="none" stroke="black" points="908,-653 908,-673 1118,-673 1118,-653 908,-653"/>
<text text-anchor="start" x="944.5" y="-659.733" font-family="Times Roman,serif" font-size="14.00">[STRING] arg (0..*) </text>
</a>
</g>
<!-- Service&#45;&gt;WebService -->
<g id="edge12" class="edge"><title>Service&#45;&gt;WebService</title>
<path fill="none" stroke="black" d="M605.349,-586.73C700.962,-614.236 816.309,-647.418 899.868,-671.455"/>
<polygon fill="none" stroke="black" points="596.537,-580.554 605.18,-586.682 594.602,-587.281 596.537,-580.554"/>
</g>
<!-- SNMPService -->
<g id="node15" class="node"><title>SNMPService</title>
<a xlink:href="#" xlink:title="The SNMPService class carries additional information related to SNMP traffic. The aggregate classes composing SNMPService must be interpreted as described in RFC 3411 [15] and RFC 3584 [16]. ">
<polygon fill="#cecece" stroke="#cecece" points="861,-607 861,-628 1166,-628 1166,-607 861,-607"/>
<polygon fill="none" stroke="black" points="861,-607 861,-628 1166,-628 1166,-607 861,-607"/>
<text text-anchor="start" x="968" y="-614.233" font-family="Times Roman,serif" font-size="14.00">SNMPService</text>
</a>
<a xlink:href="#" xlink:title="The object identifier in the request.">
<polygon fill="none" stroke="black" points="861,-587 861,-607 1166,-607 1166,-587 861,-587"/>
<text text-anchor="start" x="945.5" y="-593.733" font-family="Times Roman,serif" font-size="14.00">[STRING] oid (0..1) </text>
</a>
<a xlink:href="#" xlink:title="The SNMP version, typically 0 for SNMPv1, 1 for SNMPv2c, 2 for SNMPv2u and SNMPv2*, and 3 for SNMPv3; see RFC 3411 [15] Section 5 for appropriate values.">
<polygon fill="none" stroke="black" points="861,-567 861,-587 1166,-587 1166,-567 861,-567"/>
<text text-anchor="start" x="864.5" y="-573.733" font-family="Times Roman,serif" font-size="14.00">[INTEGER] messageProcessingModel (0..1) </text>
</a>
<a xlink:href="#" xlink:title="The identification of the security model in use, typically 0 for any, 1 for SNMPv1, 2 for SNMPv2c, and 3 for USM; see RFC 3411 [15] Section 5 for appropriate values.">
<polygon fill="none" stroke="black" points="861,-547 861,-567 1166,-567 1166,-547 861,-547"/>
<text text-anchor="start" x="903.5" y="-553.733" font-family="Times Roman,serif" font-size="14.00">[INTEGER] securityModel (0..1) </text>
</a>
<a xlink:href="#" xlink:title="The object&#39;s security name; see RFC 3411 [15] Section 3.2.2.">
<polygon fill="none" stroke="black" points="861,-527 861,-547 1166,-547 1166,-527 861,-527"/>
<text text-anchor="start" x="908" y="-533.733" font-family="Times Roman,serif" font-size="14.00">[STRING] securityName (0..1) </text>
</a>
<a xlink:href="#" xlink:title="The security level of the SNMP request; see RFC 3411 [15] Section 3.4.3.">
<polygon fill="none" stroke="black" points="861,-507 861,-527 1166,-527 1166,-507 861,-507"/>
<text text-anchor="start" x="905" y="-513.733" font-family="Times Roman,serif" font-size="14.00">[INTEGER] securityLevel (0..1) </text>
</a>
<a xlink:href="#" xlink:title="The object&#39;s context name; see RFC 3411 [15] Section 3.3.3.">
<polygon fill="none" stroke="black" points="861,-487 861,-507 1166,-507 1166,-487 861,-487"/>
<text text-anchor="start" x="909.5" y="-493.733" font-family="Times Roman,serif" font-size="14.00">[STRING] contextName (0..1) </text>
</a>
<a xlink:href="#" xlink:title="The object&#39;s context engine identifier; see RFC 3411 [15] Section 3.3.2.">
<polygon fill="none" stroke="black" points="861,-467 861,-487 1166,-487 1166,-467 861,-467"/>
<text text-anchor="start" x="897.5" y="-473.733" font-family="Times Roman,serif" font-size="14.00">[STRING] contextEngineID (0..1) </text>
</a>
<a xlink:href="#" xlink:title="The command sent to the SNMP server (GET, SET, etc.).">
<polygon fill="none" stroke="black" points="861,-447 861,-467 1166,-467 1166,-447 861,-447"/>
<text text-anchor="start" x="922.5" y="-453.733" font-family="Times Roman,serif" font-size="14.00">[STRING] command (0..1) </text>
</a>
</g>
<!-- Service&#45;&gt;SNMPService -->
<g id="edge14" class="edge"><title>Service&#45;&gt;SNMPService</title>
<path fill="none" stroke="black" d="M606.041,-536.606C684.391,-536.875 775.883,-537.188 852.25,-537.449"/>
<polygon fill="none" stroke="black" points="595.581,-533.07 605.569,-536.605 595.557,-540.07 595.581,-533.07"/>
</g>
<!-- FileAccess -->
<g id="node19" class="node"><title>FileAccess</title>
<a xlink:href="#" xlink:title="The FileAccess class represents the access permissions on a file. The representation is intended to be useful across operating systems. ">
<polygon fill="#cecece" stroke="#cecece" points="922,-401 922,-422 1105,-422 1105,-401 922,-401"/>
<polygon fill="none" stroke="black" points="922,-401 922,-422 1105,-422 1105,-401 922,-401"/>
<text text-anchor="start" x="979" y="-408.233" font-family="Times Roman,serif" font-size="14.00">FileAccess</text>
</a>
<a xlink:href="#" xlink:title="Level of access allowed. &#160;The permitted values are shown below. &#160;There is no default value. &#160;(See also Section 10.)">
<polygon fill="none" stroke="black" points="922,-381 922,-401 1105,-401 1105,-381 922,-381"/>
<text text-anchor="start" x="925.5" y="-387.733" font-family="Times Roman,serif" font-size="14.00">[ENUM] Permission (1..*) </text>
</a>
</g>
<!-- File&#45;&gt;FileAccess -->
<g id="edge20" class="edge"><title>File&#45;&gt;FileAccess</title>
<path fill="none" stroke="black" d="M549.297,-321.011C653.349,-339.184 802.515,-365.237 903.334,-382.846"/>
<polygon fill="black" stroke="black" points="902.789,-386.304 913.242,-384.576 903.993,-379.408 902.789,-386.304"/>
<text text-anchor="middle" x="724" y="-374.4" font-family="Times Roman,serif" font-size="14.00">0..*</text>
</g>
<!-- Linkage -->
<g id="node22" class="node"><title>Linkage</title>
<a xlink:href="#" xlink:title="The Linkage class represents file system connections between the file described in the &lt;File&gt; element and other objects in the file system. For example, if the &lt;File&gt; element is a symbolic link or shortcut, then the &lt;Linkage&gt; element should contain the name of the object the link points to. Further information can be provided about the object in the &lt;Linkage&gt; element with another &lt;File&gt; element, if appropriate. ">
<polygon fill="#cecece" stroke="#cecece" points="941,-335 941,-356 1085,-356 1085,-335 941,-335"/>
<polygon fill="none" stroke="black" points="941,-335 941,-356 1085,-356 1085,-335 941,-335"/>
<text text-anchor="start" x="985.5" y="-342.233" font-family="Times Roman,serif" font-size="14.00">Linkage</text>
</a>
<a xlink:href="#" xlink:title="The name of the file system object, not including the path.">
<polygon fill="none" stroke="black" points="941,-315 941,-335 1085,-335 1085,-315 941,-315"/>
<text text-anchor="start" x="945" y="-321.733" font-family="Times Roman,serif" font-size="14.00">[STRING] name (1) </text>
</a>
<a xlink:href="#" xlink:title="The full path to the file system object, including the name. &#160;The path name should be represented in as &quot;universal&quot; a manner as possible, to facilitate processing of the alert.">
<polygon fill="none" stroke="black" points="941,-295 941,-315 1085,-315 1085,-295 941,-295"/>
<text text-anchor="start" x="948" y="-301.733" font-family="Times Roman,serif" font-size="14.00">[STRING] path (1) </text>
</a>
<a xlink:href="#" xlink:title="Section 10.)">
<polygon fill="none" stroke="black" points="941,-275 941,-295 1085,-295 1085,-275 941,-275"/>
<text text-anchor="start" x="944.5" y="-281.733" font-family="Times Roman,serif" font-size="14.00">[ENUM] category () </text>
</a>
</g>
<!-- File&#45;&gt;Linkage -->
<g id="edge24" class="edge"><title>File&#45;&gt;Linkage</title>
<path fill="none" stroke="black" d="M549.297,-303.296C660.184,-306.334 822.309,-310.776 922.552,-313.522"/>
<polygon fill="black" stroke="black" points="922.564,-317.024 932.656,-313.799 922.756,-310.026 922.564,-317.024"/>
<text text-anchor="middle" x="724" y="-315.4" font-family="Times Roman,serif" font-size="14.00">0..*</text>
</g>
<!-- Inode -->
<g id="node25" class="node"><title>Inode</title>
<a xlink:href="#" xlink:title="The Inode class is used to represent the additional information contained in a Unix file system i&#45;node. ">
<polygon fill="#cecece" stroke="#cecece" points="897,-229 897,-250 1129,-250 1129,-229 897,-229"/>
<polygon fill="none" stroke="black" points="897,-229 897,-250 1129,-250 1129,-229 897,-229"/>
<text text-anchor="start" x="993.5" y="-236.233" font-family="Times Roman,serif" font-size="14.00">Inode</text>
</a>
<a xlink:href="#" xlink:title="The time of the last inode change, given by the st_ctime element of &quot;struct stat&quot;.">
<polygon fill="none" stroke="black" points="897,-209 897,-229 1129,-229 1129,-209 897,-209"/>
<text text-anchor="start" x="903" y="-215.733" font-family="Times Roman,serif" font-size="14.00">[DATETIME] change&#45;time (0..1) </text>
</a>
<a xlink:href="#" xlink:title="The inode number.">
<polygon fill="none" stroke="black" points="897,-189 897,-209 1129,-209 1129,-189 897,-189"/>
<text text-anchor="start" x="924" y="-195.733" font-family="Times Roman,serif" font-size="14.00">[INTEGER] number (0..1) </text>
</a>
<a xlink:href="#" xlink:title="The major device number of the device the file resides on.">
<polygon fill="none" stroke="black" points="897,-169 897,-189 1129,-189 1129,-169 897,-169"/>
<text text-anchor="start" x="907" y="-175.733" font-family="Times Roman,serif" font-size="14.00">[INTEGER] major&#45;device (0..1) </text>
</a>
<a xlink:href="#" xlink:title="The minor device number of the device the file resides on.">
<polygon fill="none" stroke="black" points="897,-149 897,-169 1129,-169 1129,-149 897,-149"/>
<text text-anchor="start" x="906.5" y="-155.733" font-family="Times Roman,serif" font-size="14.00">[INTEGER] minor&#45;device (0..1) </text>
</a>
<a xlink:href="#" xlink:title="The major device of the file itself, if it is a character special device.">
<polygon fill="none" stroke="black" points="897,-129 897,-149 1129,-149 1129,-129 897,-129"/>
<text text-anchor="start" x="901" y="-135.733" font-family="Times Roman,serif" font-size="14.00">[INTEGER] c&#45;major&#45;device (0..1) </text>
</a>
<a xlink:href="#" xlink:title="The minor device of the file itself, if it is a character special device.">
<polygon fill="none" stroke="black" points="897,-109 897,-129 1129,-129 1129,-109 897,-109"/>
<text text-anchor="start" x="900.5" y="-115.733" font-family="Times Roman,serif" font-size="14.00">[INTEGER] c&#45;minor&#45;device (0..1) </text>
</a>
</g>
<!-- File&#45;&gt;Inode -->
<g id="edge26" class="edge"><title>File&#45;&gt;Inode</title>
<path fill="none" stroke="black" d="M549.386,-274.485C570.897,-269.965 593.107,-265.323 614,-261 702.284,-242.734 801.64,-222.562 879.121,-206.919"/>
<polygon fill="black" stroke="black" points="879.83,-210.346 888.939,-204.937 878.445,-203.484 879.83,-210.346"/>
<text text-anchor="middle" x="724" y="-265.4" font-family="Times Roman,serif" font-size="14.00">0..1</text>
</g>
<!-- Checksum -->
<g id="node27" class="node"><title>Checksum</title>
<a xlink:href="#" xlink:title="The Checksum class represents checksum information associated with the file. This checksum information can be provided by file integrity checkers, among others. ">
<polygon fill="#cecece" stroke="#cecece" points="938,-63 938,-84 1088,-84 1088,-63 938,-63"/>
<polygon fill="none" stroke="black" points="938,-63 938,-84 1088,-84 1088,-63 938,-63"/>
<text text-anchor="start" x="977.5" y="-70.2333" font-family="Times Roman,serif" font-size="14.00">Checksum</text>
</a>
<a xlink:href="#" xlink:title="The value of the checksum.">
<polygon fill="none" stroke="black" points="938,-43 938,-63 1088,-63 1088,-43 938,-43"/>
<text text-anchor="start" x="945" y="-49.7333" font-family="Times Roman,serif" font-size="14.00">[STRING] value (1) </text>
</a>
<a xlink:href="#" xlink:title="The key to the checksum, if appropriate.">
<polygon fill="none" stroke="black" points="938,-23 938,-43 1088,-43 1088,-23 938,-23"/>
<text text-anchor="start" x="943" y="-29.7333" font-family="Times Roman,serif" font-size="14.00">[STRING] key (0..1) </text>
</a>
<a xlink:href="#" xlink:title="default value. &#160;(See also Section 10.)">
<polygon fill="none" stroke="black" points="938,-3 938,-23 1088,-23 1088,-3 938,-3"/>
<text text-anchor="start" x="941.5" y="-9.73333" font-family="Times Roman,serif" font-size="14.00">[ENUM] algorithm () </text>
</a>
</g>
<!-- File&#45;&gt;Checksum -->
<g id="edge28" class="edge"><title>File&#45;&gt;Checksum</title>
<path fill="none" stroke="black" d="M549.317,-229.672C570.636,-217.986 592.799,-206.324 614,-196 717.001,-145.842 744.623,-136.94 852,-97 873.961,-88.8312 897.837,-80.6166 920.311,-73.175"/>
<polygon fill="black" stroke="black" points="921.443,-76.4871 929.847,-70.0354 919.254,-69.8381 921.443,-76.4871"/>
<text text-anchor="middle" x="724" y="-200.4" font-family="Times Roman,serif" font-size="14.00">0..*</text>
</g>
<!-- FileAccess&#45;&gt;UserId -->
<g id="edge18" class="edge"><title>FileAccess&#45;&gt;UserId</title>
<path fill="none" stroke="black" d="M1112.92,-409.007C1134.5,-414.059 1156.17,-422.16 1174,-435 1235.29,-479.142 1274.89,-557.337 1297.37,-615.343"/>
<polygon fill="black" stroke="black" points="1294.15,-616.723 1300.97,-624.834 1300.7,-614.242 1294.15,-616.723"/>
<text text-anchor="middle" x="1197" y="-460.4" font-family="Times Roman,serif" font-size="14.00">1</text>
</g>
<!-- Linkage&#45;&gt;File -->
<g id="edge22" class="edge"><title>Linkage&#45;&gt;File</title>
<path fill="none" stroke="black" d="M932.717,-299.625C901.98,-294.126 866.5,-288.705 834,-286 742.39,-278.376 638.791,-282.182 559.305,-287.736"/>
<polygon fill="black" stroke="black" points="558.966,-284.251 549.242,-288.457 559.466,-291.233 558.966,-284.251"/>
<text text-anchor="middle" x="724" y="-290.4" font-family="Times Roman,serif" font-size="14.00">1</text>
</g>
</g>
</svg>
