<?xml version="1.0" encoding="UTF-8" standalone="no"?>
<!DOCTYPE svg PUBLIC "-//W3C//DTD SVG 1.1//EN"
 "http://www.w3.org/Graphics/SVG/1.1/DTD/svg11.dtd">
<!-- Generated by graphviz version 2.40.1 (0)
 -->
<!-- Title: UserId Pages: 1 -->
<svg width="213pt" height="142pt"
 viewBox="0.00 0.00 213.00 142.00" xmlns="http://www.w3.org/2000/svg" xmlns:xlink="http://www.w3.org/1999/xlink">
<g id="graph0" class="graph" transform="scale(1 1) rotate(0) translate(4 138)">
<title>UserId</title>
<polygon fill="#ffffff" stroke="transparent" points="-4,4 -4,-138 209,-138 209,4 -4,4"/>
<!-- UserId -->
<g id="node1" class="node">
<title>UserId</title>
<g id="a_node1_0"><a xlink:href="#" xlink:title="The UserId class provides specific information about a user. More than one UserId can be used within the User class to indicate attempts to transition from one user to another, or to provide complete information about a user&#39;s (or process&#39;) privileges. ">
<polygon fill="#52a3cc" stroke="transparent" points="8.5,-109 8.5,-130 197.5,-130 197.5,-109 8.5,-109"/>
<polygon fill="none" stroke="#000000" points="8.5,-109 8.5,-130 197.5,-130 197.5,-109 8.5,-109"/>
<text text-anchor="start" x="83" y="-115.8" font-family="Nimbus Sans L" font-size="14.00" fill="#000000">UserId</text>
</a>
</g>
<g id="a_node1_1"><a xlink:href="#" xlink:title="A user or group name.">
<polygon fill="#66ccff" stroke="transparent" points="8.5,-88 8.5,-109 197.5,-109 197.5,-88 8.5,-88"/>
<polygon fill="none" stroke="#000000" points="8.5,-88 8.5,-109 197.5,-109 197.5,-88 8.5,-88"/>
<text text-anchor="start" x="22.5" y="-94.8" font-family="Nimbus Sans L" font-size="14.00" fill="#000000">[STRING] name (Optional)</text>
</a>
</g>
<g id="a_node1_2"><a xlink:href="#" xlink:title="A user or group number.">
<polygon fill="#66ccff" stroke="transparent" points="8.5,-67 8.5,-88 197.5,-88 197.5,-67 8.5,-67"/>
<polygon fill="none" stroke="#000000" points="8.5,-67 8.5,-88 197.5,-88 197.5,-67 8.5,-67"/>
<text text-anchor="start" x="11.5" y="-73.8" font-family="Nimbus Sans L" font-size="14.00" fill="#000000">[INTEGER] number (Optional)</text>
</a>
</g>
<g id="a_node1_3"><a xlink:href="#" xlink:title="A unique identifier for the user id, see Section 3.2.9.">
<polygon fill="#66ccff" stroke="transparent" points="8.5,-46 8.5,-67 197.5,-67 197.5,-46 8.5,-46"/>
<polygon fill="none" stroke="#000000" points="8.5,-46 8.5,-67 197.5,-67 197.5,-46 8.5,-46"/>
<text text-anchor="start" x="25" y="-52.8" font-family="Nimbus Sans L" font-size="14.00" fill="#000000">[STRING] ident (Optional)</text>
</a>
</g>
<g id="a_node1_4"><a xlink:href="#" xlink:title="The type of user information represented. &#160;The permitted values for this attribute are shown below. &#160;The default value is &quot;original&#45;user&quot;. &#160;(See also Section 10.)">
<polygon fill="#66ccff" stroke="transparent" points="8.5,-25 8.5,-46 197.5,-46 197.5,-25 8.5,-25"/>
<polygon fill="none" stroke="#000000" points="8.5,-25 8.5,-46 197.5,-46 197.5,-25 8.5,-25"/>
<text text-anchor="start" x="32" y="-31.8" font-family="Nimbus Sans L" font-size="14.00" fill="#000000">[ENUM] type (Optional)</text>
</a>
</g>
<g id="a_node1_5"><a xlink:href="#" xlink:title="The tty the user is using.">
<polygon fill="#66ccff" stroke="transparent" points="8.5,-4 8.5,-25 197.5,-25 197.5,-4 8.5,-4"/>
<polygon fill="none" stroke="#000000" points="8.5,-4 8.5,-25 197.5,-25 197.5,-4 8.5,-4"/>
<text text-anchor="start" x="32.5" y="-10.8" font-family="Nimbus Sans L" font-size="14.00" fill="#000000">[STRING] tty (Optional)</text>
</a>
</g>
</g>
</g>
</svg>
